<svg width="49" height="48" viewBox="0 0 49 48" fill="none" xmlns="http://www.w3.org/2000/svg">
<path d="M34.0004 7.12V4C34.0004 3.18 33.3204 2.5 32.5004 2.5C31.6804 2.5 31.0004 3.18 31.0004 4V7H18.0004V4C18.0004 3.18 17.3204 2.5 16.5004 2.5C15.6804 2.5 15.0004 3.18 15.0004 4V7.12C9.60044 7.62 6.98046 10.84 6.58046 15.62C6.54046 16.2 7.02046 16.68 7.58046 16.68H41.4204C42.0004 16.68 42.4804 16.18 42.4204 15.62C42.0204 10.84 39.4004 7.62 34.0004 7.12Z" fill="#AEC1DA"/>
<path opacity="0.4" d="M40.5 19.68C41.6 19.68 42.5 20.58 42.5 21.68V34C42.5 40 39.5 44 32.5 44H16.5C9.5 44 6.5 40 6.5 34V21.68C6.5 20.58 7.4 19.68 8.5 19.68H40.5Z" fill="#D0DDEC"/>
<path d="M17.5 30C17.24 30 16.98 29.94 16.74 29.84C16.5 29.74 16.28 29.6 16.08 29.42C15.9 29.22 15.76 29 15.66 28.76C15.56 28.52 15.5 28.26 15.5 28C15.5 27.74 15.56 27.48 15.66 27.24C15.76 27 15.9 26.78 16.08 26.58C16.28 26.4 16.5 26.2599 16.74 26.1599C17.22 25.9599 17.78 25.9599 18.26 26.1599C18.5 26.2599 18.72 26.4 18.92 26.58C19.1 26.78 19.24 27 19.34 27.24C19.44 27.48 19.5 27.74 19.5 28C19.5 28.26 19.44 28.52 19.34 28.76C19.24 29 19.1 29.22 18.92 29.42C18.72 29.6 18.5 29.74 18.26 29.84C18.02 29.94 17.76 30 17.5 30Z" fill="#D0DDEC"/>
<path d="M24.5 30C24.24 30 23.98 29.94 23.74 29.84C23.5 29.74 23.28 29.6 23.08 29.42C22.72 29.04 22.5 28.52 22.5 28C22.5 27.48 22.72 26.96 23.08 26.58C23.28 26.4 23.5 26.26 23.74 26.16C24.22 25.94 24.78 25.94 25.26 26.16C25.5 26.26 25.72 26.4 25.92 26.58C26.28 26.96 26.5 27.48 26.5 28C26.5 28.52 26.28 29.04 25.92 29.42C25.72 29.6 25.5 29.74 25.26 29.84C25.02 29.94 24.76 30 24.5 30Z" fill="#D0DDEC"/>
<path d="M17.5 37C17.24 37 16.98 36.94 16.74 36.84C16.5 36.74 16.28 36.6 16.08 36.42C15.72 36.04 15.5 35.52 15.5 35C15.5 34.48 15.72 33.96 16.08 33.58C16.28 33.4 16.5 33.2599 16.74 33.1599C17.22 32.9599 17.78 32.9599 18.26 33.1599C18.5 33.2599 18.72 33.4 18.92 33.58C19.28 33.96 19.5 34.48 19.5 35C19.5 35.52 19.28 36.04 18.92 36.42C18.72 36.6 18.5 36.74 18.26 36.84C18.02 36.94 17.76 37 17.5 37Z" fill="#D0DDEC"/>
</svg>
