<svg width="31" height="30" viewBox="0 0 31 30" fill="none" xmlns="http://www.w3.org/2000/svg">
<path d="M7.938 1.88573C5.84434 3.15812 3.55643 5.44682 2.71196 7.90804C1.89986 10.2803 0.77209 15.1165 1.09315 16.9792C1.41422 18.842 2.28567 22.519 4.29569 24.5273C6.3084 26.5357 17.926 28.3418 20.8911 27.4738C23.8562 26.6031 28.5993 23.0042 29.1929 21.314C29.7865 19.6238 31.7668 12.7496 30.0158 7.9323C29.1713 5.60856 25.9445 2.18226 23.3895 0.936823C20.8372 -0.308614 13.933 -0.0740837 11.8015 0.314105C9.67012 0.702293 8.80136 1.36006 7.938 1.88573Z" fill="#E8FCFC"/>
<path d="M12.7915 23.5226C12.8698 23.2935 12.6647 21.1072 12.0631 19.2768C11.7474 18.3144 10.8301 16.201 10.3417 15.3276C9.99908 14.6941 9.59168 14.0848 9.08715 13.5538C8.58802 13.0227 7.99716 12.5563 7.31996 12.249C6.64276 11.9444 5.89001 11.8123 5.15885 11.85C4.70289 11.8878 4.91873 11.8689 4.61385 11.9093C4.52212 11.9201 4.43309 11.939 4.34405 11.9579C4.25502 11.9794 4.16599 11.9929 4.07965 12.0199C3.70193 12.1277 3.88539 12.0711 3.56163 12.1843C3.39975 12.2409 3.45911 12.2167 3.0625 12.3865L3.07329 12.4188C3.41864 12.3272 3.76398 12.2409 4.11472 12.1897C4.46546 12.1385 4.81351 12.1088 5.16425 12.1142C6.60498 12.1493 7.8083 12.7369 8.85782 13.7748C9.32188 14.2304 9.8345 14.8935 10.1825 15.4192C10.5711 16.015 10.9056 16.6485 11.1646 17.3116C11.429 17.9748 11.6098 18.6649 11.7933 19.3523C11.9821 20.0613 12.3841 21.5332 12.6674 22.9835C12.7861 23.5819 12.7537 23.4768 12.7618 23.5011L12.7915 23.5226Z" fill="#F4A04D"/>
<path d="M11.3919 17.7325C11.249 17.5977 11.0763 17.498 10.8901 17.4279C10.704 17.3578 10.4989 17.3255 10.2966 17.3389C10.194 17.347 10.0942 17.3686 9.99707 17.3982C9.89995 17.4306 9.80821 17.4737 9.72458 17.5276C9.5546 17.6382 9.4143 17.781 9.30908 17.9455C9.45747 17.8161 9.61126 17.7029 9.77584 17.6193C9.94312 17.5357 10.1212 17.4845 10.3046 17.4737C10.4881 17.4602 10.6743 17.4845 10.855 17.5303C11.0385 17.5762 11.2166 17.6436 11.3919 17.7325Z" fill="#F4A04D"/>
<path d="M9.18447 13.8905C9.08195 13.8501 8.96863 13.8447 8.85801 13.8582C8.7474 13.8717 8.63678 13.9067 8.53965 13.9633C8.44252 14.0199 8.35349 14.0954 8.28874 14.1871C8.25366 14.2302 8.22938 14.2814 8.2024 14.3299C8.18081 14.3812 8.16193 14.4324 8.14844 14.4863C8.18891 14.4485 8.22128 14.4054 8.25636 14.3677C8.29413 14.3299 8.32651 14.2922 8.36698 14.2598C8.43982 14.1898 8.52346 14.1331 8.6071 14.0846C8.69074 14.0334 8.78247 13.9957 8.8796 13.9633C8.97673 13.931 9.07655 13.9094 9.18447 13.8905Z" fill="#D68741"/>
<path d="M7.33249 12.4531C7.09236 12.4828 6.85764 12.569 6.6418 12.6877C6.42596 12.8063 6.2317 12.9653 6.07252 13.1567C5.99427 13.2538 5.92682 13.3589 5.86747 13.4694C5.81081 13.5799 5.76494 13.6959 5.73257 13.8145C5.66782 14.0544 5.65163 14.3024 5.6813 14.5423C5.70828 14.3024 5.75415 14.0679 5.8324 13.8468C5.91334 13.6285 6.02665 13.4236 6.17504 13.243C6.32073 13.0624 6.4988 12.9087 6.69576 12.7766C6.89541 12.6472 7.10585 12.5367 7.33249 12.4531Z" fill="#F4A04D"/>
<path d="M9.20069 18.5725C9.20069 18.5725 9.39764 19.4864 9.0469 20.4488C8.69886 21.4085 8.2375 22.883 8.2375 22.883C8.2375 22.883 7.76534 21.8721 7.8274 20.7103C7.88945 19.5511 8.49111 18.3191 9.20069 18.5725Z" fill="#F4A04D"/>
<path d="M9.04814 18.2714C9.32873 18.3766 9.48521 19.0316 8.71358 20.1288C7.94195 21.226 7.10287 22.6844 7.10287 22.6844C7.10287 22.6844 6.68738 17.3872 9.04814 18.2714Z" fill="#F4C77C"/>
<path d="M7.08504 22.4593C7.14169 22.2948 7.20645 22.1331 7.2712 21.9713C7.44927 21.5508 7.65701 21.1411 7.86746 20.7367C8.0779 20.3296 8.30184 19.9361 8.4826 19.5182C8.6283 19.1893 8.7605 18.8551 8.88461 18.5181C8.60941 18.7904 8.3504 19.0815 8.11837 19.3915C7.97538 19.5856 7.83778 19.7851 7.72176 19.9954C7.60575 20.2056 7.51402 20.4267 7.42768 20.6531C7.29009 21.0305 7.17407 21.416 7.06885 21.8042C7.06885 21.7018 7.06885 21.5939 7.07155 21.4834C7.14709 21.1923 7.22803 20.9038 7.32516 20.6181C7.4034 20.3862 7.49783 20.1571 7.61654 19.9414C7.73526 19.7258 7.87016 19.5182 8.01585 19.3214C8.16154 19.1246 8.31803 18.9332 8.47991 18.7526C8.63639 18.5801 8.79557 18.413 8.97094 18.2539C8.99522 18.262 9.01951 18.2701 9.04379 18.2782C9.06537 18.2863 9.08426 18.297 9.10315 18.3105C8.94936 18.7391 8.77938 19.1597 8.59322 19.5748C8.49879 19.7824 8.39627 19.99 8.28835 20.1922C8.18043 20.3943 8.06711 20.5911 7.95649 20.7906C7.73526 21.1896 7.52211 21.5912 7.33055 22.0037C7.24422 22.1897 7.16328 22.3784 7.09043 22.5698C7.09043 22.5321 7.08773 22.497 7.08504 22.4593Z" fill="#F4A04D"/>
<path d="M7.30005 19.5877C7.3594 19.4718 7.42146 19.3585 7.49161 19.2507C7.58064 19.1159 7.67237 18.9838 7.7749 18.8571C7.87742 18.7331 7.98534 18.6118 8.10405 18.5013C8.22007 18.3881 8.34418 18.2856 8.47368 18.1913C8.48177 18.1859 8.48717 18.1805 8.49527 18.1778C8.52764 18.1751 8.56002 18.1751 8.59239 18.1778C8.56541 18.1994 8.54113 18.2209 8.51415 18.2452C8.39544 18.3503 8.28482 18.4609 8.1769 18.5768C7.96376 18.8086 7.7722 19.0593 7.60492 19.3262C7.44574 19.5715 7.31354 19.833 7.19482 20.0999C7.2245 19.922 7.25958 19.7521 7.30005 19.5877Z" fill="#F4A04D"/>
<path d="M8.4751 18.1867C8.4751 18.1867 8.98232 17.8066 9.29529 17.7931C9.60826 17.7796 9.30609 18.7744 9.27641 18.8148C9.24673 18.8552 8.59111 18.4778 8.4751 18.1867Z" fill="#F4A04D"/>
<path d="M8.27696 14.7391C8.27696 14.7391 8.44153 15.5074 8.15015 16.3134C7.85606 17.1195 7.47025 18.3568 7.47025 18.3568C7.47025 18.3568 7.07364 17.5077 7.1276 16.5345C7.17617 15.5586 7.6807 14.5262 8.27696 14.7391Z" fill="#D68741"/>
<path d="M8.14851 14.4857C8.38594 14.5747 8.51544 15.1219 7.86792 16.0439C7.2204 16.9658 6.51622 18.1897 6.51622 18.1897C6.51622 18.1897 6.16818 13.7444 8.14851 14.4857Z" fill="#F2B15B"/>
<path d="M7.67041 14.4137C7.67041 14.4137 8.0967 14.0956 8.3584 14.0821C8.62011 14.0714 8.3665 14.907 8.34221 14.9394C8.31523 14.9744 7.76484 14.659 7.67041 14.4137Z" fill="#D68741"/>
<path d="M5.77338 15.2241C5.77338 15.2241 5.77338 16.2188 4.15457 19.2245C4.15457 19.2245 4.00079 16.2134 4.41898 15.5314C4.83717 14.8493 5.43073 14.7658 5.77338 15.2241Z" fill="#F4A04D"/>
<path d="M5.67745 14.9844C6.08755 15.6529 5.43733 16.5722 2.99023 18.6938C2.99023 18.6938 4.40129 12.8979 5.67745 14.9844Z" fill="#F4C77C"/>
<path d="M3.77289 17.7784L3.98873 17.5169L4.19647 17.25C4.47437 16.8942 4.73877 16.5303 4.98969 16.1555C5.1138 15.9668 5.23791 15.7781 5.35122 15.584C5.46994 15.3926 5.57786 15.1932 5.67768 14.9883C5.60753 15.2039 5.5104 15.4115 5.41058 15.6137C5.36201 15.7161 5.30536 15.8159 5.25139 15.9156C5.19743 16.0154 5.13808 16.1124 5.07873 16.2095C4.844 16.6003 4.57959 16.9697 4.3017 17.3309C4.09125 17.6032 3.87002 17.8646 3.64338 18.118C3.44103 18.2987 3.22519 18.4901 2.99316 18.6922C3.10918 18.5602 3.22519 18.4281 3.33851 18.296C3.4815 18.1234 3.63259 17.9563 3.77289 17.7784Z" fill="#F4A04D"/>
<path d="M3.30924 17.5693C3.46303 17.3024 3.62761 17.0382 3.79218 16.7767C4.05659 16.375 4.33449 15.9842 4.63396 15.6068C4.88758 15.286 5.15738 14.9759 5.44606 14.6875C5.45146 14.6929 5.45686 14.6983 5.46225 14.7037C5.35433 14.8331 5.24911 14.9652 5.14928 15.1C5.07644 15.1943 5.00359 15.2887 4.93344 15.3857C4.8606 15.4801 4.79045 15.5771 4.7203 15.6741C4.43971 16.0596 4.16991 16.4532 3.9082 16.8522C3.78139 17.0544 3.64649 17.2512 3.52508 17.456L3.33622 17.7607L3.16895 18.0437C3.20672 17.9008 3.25528 17.7418 3.30924 17.5693Z" fill="#F4A04D"/>
<path d="M4.98839 14.53C4.98839 14.53 5.6575 13.9531 5.81398 14.2254C5.97047 14.4976 5.84636 15.2686 5.7951 15.3064C5.74114 15.3468 4.9776 14.7672 4.98839 14.53Z" fill="#F4A04D"/>
<path d="M0 17.4529C0.016188 17.4367 0.0323774 17.4206 0.0485655 17.4044C0.0701495 17.3828 0.0917309 17.3612 0.113315 17.3424C0.366928 17.0917 0.601656 16.8544 0.822892 16.6253C1.39217 16.0376 1.85083 15.5281 2.19618 15.086C2.24474 15.024 2.29061 14.962 2.33378 14.9054C2.46328 14.7329 2.5712 14.5684 2.66023 14.4175C2.68452 14.377 2.7088 14.3339 2.72768 14.2962C2.984 13.8163 3.02716 13.447 2.8437 13.172C2.79244 13.0966 2.72499 13.0265 2.64135 12.9645C2.5685 12.9106 2.49566 12.8674 2.42551 12.8351C2.41472 12.8297 2.40393 12.8243 2.39583 12.8216C0.674503 12.0722 0 17.4529 0 17.4529Z" fill="#F4C77C"/>
<path d="M0.0498047 17.4085C0.0713887 17.3869 0.0929702 17.3653 0.114554 17.3465C0.122648 17.3033 0.133442 17.2629 0.146932 17.2198C0.211684 16.9745 0.265645 16.7265 0.349283 16.4865C0.492277 16.0013 0.68923 15.5322 0.907769 15.0794C0.964427 14.9661 1.02109 14.8529 1.07774 14.7397L1.26661 14.4108C1.39611 14.1924 1.53101 13.9795 1.6767 13.7719C1.90603 13.4457 2.15425 13.1276 2.42675 12.8338C2.41596 12.8284 2.40517 12.823 2.39707 12.8203C2.29185 12.9174 2.18932 13.0198 2.0868 13.1222C1.91413 13.3109 1.74415 13.505 1.59306 13.7099C1.28279 14.1197 1.01029 14.5564 0.786359 15.0173C0.565122 15.481 0.373564 15.9582 0.246757 16.4569C0.171213 16.7022 0.130744 16.9556 0.0821795 17.2063C0.0659914 17.2737 0.0578987 17.3411 0.0498047 17.4085Z" fill="#F4A04D"/>
<path d="M0.823242 16.629C0.882598 16.4673 0.931162 16.3055 0.985123 16.1438L1.07416 15.9066C1.10384 15.8284 1.12812 15.7475 1.16319 15.6694C1.19017 15.6047 1.21715 15.54 1.24413 15.4753C1.38173 15.4213 1.51393 15.3647 1.64613 15.3081C1.80532 15.2434 1.9645 15.176 2.12368 15.1167C2.14796 15.1086 2.16955 15.0979 2.19383 15.0898C2.2424 15.0278 2.28826 14.9658 2.33143 14.9091C2.24509 14.9307 2.16145 14.9604 2.07782 14.99C1.91324 15.052 1.75406 15.1275 1.60027 15.2138C1.48426 15.2785 1.37094 15.3513 1.26302 15.4321C1.29539 15.3566 1.32777 15.2785 1.36554 15.2057C1.40331 15.1302 1.43299 15.052 1.47346 14.9765L1.59217 14.7528C1.62185 14.7016 1.65153 14.6504 1.68121 14.5964L2.00497 14.521C2.14257 14.4913 2.28017 14.4617 2.41776 14.4455C2.45284 14.4401 2.48522 14.4374 2.52029 14.432C2.55536 14.4266 2.58774 14.4239 2.62281 14.4239C2.6363 14.4239 2.64709 14.4212 2.66058 14.4212C2.68487 14.3808 2.70915 14.3377 2.72803 14.2999C2.61742 14.2918 2.5068 14.2999 2.39888 14.3134C2.25319 14.335 2.11289 14.3727 1.97529 14.4239C1.88626 14.4563 1.79722 14.4967 1.71358 14.5425C1.84309 14.3215 1.98608 14.1085 2.14257 13.9063C2.19653 13.8416 2.24509 13.7742 2.30175 13.7095L2.38539 13.6125C2.41237 13.5801 2.44205 13.5505 2.47172 13.5208C2.58774 13.3968 2.70915 13.2809 2.84675 13.1758C2.69566 13.2567 2.55806 13.3618 2.42856 13.4723C2.29905 13.5855 2.17764 13.7095 2.06433 13.8389C1.83769 14.0977 1.64614 14.3889 1.47886 14.6881L1.36015 14.9172C1.32237 14.9954 1.29 15.0736 1.25492 15.1518C1.18478 15.3081 1.12812 15.4726 1.07146 15.6343C1.0148 15.7961 0.974331 15.9632 0.928465 16.1276C0.885297 16.2921 0.85292 16.4592 0.823242 16.629Z" fill="#F4A04D"/>
<path d="M2.09783 12.7487C2.08164 12.6948 3.23099 12.153 3.30923 12.3336C3.38477 12.5142 2.96658 13.3526 2.95579 13.4092C2.9477 13.4658 2.21114 13.1261 2.09783 12.7487Z" fill="#F4A04D"/>
<path d="M10.5474 13.8906C10.1265 14.3489 9.81622 16.0284 10.2668 17.6755C10.4395 18.3117 10.3747 19.2821 10.399 20.2796C10.4044 20.5383 10.515 21.5924 10.5177 21.8485C10.5231 23.164 10.399 23.687 10.4422 24.0994C10.5258 24.9055 14.1708 26.0188 18.4633 25.7816C22.7559 25.5444 24.1885 24.8111 24.2721 24.1533C24.3558 23.4956 24.2721 21.6894 24.2721 21.0559C24.2721 20.4224 24.5258 19.4627 24.2721 18.5165C24.0185 17.5676 24.5797 16.1685 24.3855 15.3329C24.1885 14.4972 24.0266 13.8933 24.0266 13.8933H10.5474V13.8906Z" fill="#A06648"/>
<path d="M24.2695 18.5138C24.0375 17.6404 24.4962 16.3788 24.4125 15.5323C24.4098 15.5054 24.4071 15.4811 24.4044 15.4569C24.399 15.4137 24.3909 15.3706 24.3829 15.3302C24.1859 14.4945 24.024 13.8906 24.024 13.8906H22.4268H10.5502C10.2804 14.1845 10.0564 14.9797 10.0483 15.9448C10.2399 15.9529 10.4315 15.9798 10.6122 16.0472C11.3353 16.3222 11.249 16.7077 12.4199 16.8775C14.7618 17.2172 16.529 15.597 18.6334 15.6375C19.7072 15.659 20.5004 15.7642 21.1965 15.8774C21.9088 15.9933 22.416 16.5352 22.4133 17.166C22.4133 17.3735 22.4322 17.573 22.4808 17.7536C22.7344 18.7025 22.4808 19.6595 22.4808 20.293C22.4808 20.9265 22.5644 22.7327 22.4808 23.3905C22.3971 24.0482 20.9645 24.7815 16.6719 25.0187C14.3382 25.1481 12.196 24.8785 10.7147 24.4741C11.6375 25.2047 14.8157 25.9811 18.4661 25.7789C22.7587 25.5417 24.1913 24.8084 24.2749 24.1507C24.3586 23.4929 24.2749 21.6867 24.2749 21.0532C24.2695 20.4197 24.5232 19.4627 24.2695 18.5138Z" fill="#844A30"/>
<path d="M10.6083 12.7239C9.4374 13.1282 8.53356 14.5543 8.73861 15.177C8.97334 15.8968 9.88527 15.4654 10.6083 15.7404C11.3314 16.0154 11.2451 16.4009 12.416 16.5707C14.7579 16.9104 16.5251 15.2902 18.6295 15.3307C20.734 15.3711 21.7646 15.7431 23.092 15.8455C24.4194 15.9507 24.3547 14.7403 24.9428 15.0206C25.531 15.301 24.8322 13.4814 24.4248 13.1094C24.0174 12.7373 24.1847 12.5486 22.4175 12.3869C20.6503 12.2278 12.9664 11.9124 10.6083 12.7239Z" fill="#BC7F64"/>
<path d="M11.4612 12.2557C10.6977 12.7328 10.2579 13.1291 10.9621 13.4688C11.669 13.8111 12.3623 13.8758 12.9964 14.0376C13.6304 14.1993 14.1322 14.0214 14.7528 14.0376C15.3733 14.0537 16.6576 14.1589 17.2781 14.1077C17.8987 14.0564 19.5256 14.1184 20.7612 14.0376C21.9969 13.9567 22.782 13.8111 23.0626 13.7114C23.3432 13.6143 23.8397 13.2558 23.5672 12.873C23.2947 12.4902 23.2299 12.3123 22.7254 11.9618C22.2209 11.6114 20.7612 10.7946 20.3134 10.4226C19.8655 10.0506 18.2521 10.0452 18.047 10.0721C17.842 10.0991 17.2889 10.304 16.6387 10.4226C15.9885 10.5385 14.4182 10.5385 13.9137 10.8808C13.4092 11.2232 13.6547 11.2663 12.9991 11.5117C12.3435 11.7624 11.8254 12.0265 11.4612 12.2557Z" fill="#F4D4B3"/>
<path d="M23.5676 12.8752C23.2951 12.4924 23.2303 12.3145 22.7258 11.9641C22.2213 11.6136 20.7617 10.7968 20.3138 10.4248C20.1034 10.2496 19.6339 10.1552 19.1752 10.1094C19.731 10.4895 20.7563 11.0718 21.1502 11.3467C21.6142 11.6702 21.6763 11.832 21.9245 12.1851C22.1754 12.5382 21.7168 12.8671 21.4604 12.9561C21.2014 13.045 20.4838 13.0316 19.3992 13.444C18.355 13.8403 16.8469 13.5653 16.2749 13.6139C15.7029 13.6624 14.1785 13.045 13.6092 13.0316C13.0373 13.0154 12.7756 13.4036 12.1901 13.2553C11.7152 13.134 11.2053 13.072 10.6819 12.886C10.5416 13.099 10.5956 13.2931 10.9652 13.471C11.6721 13.8133 12.3655 13.878 12.9995 14.0398C13.6335 14.2015 14.1354 14.0236 14.7559 14.0398C15.3764 14.056 16.658 14.1611 17.2812 14.1099C17.9018 14.0587 19.5287 14.1207 20.7644 14.0398C22 13.9589 22.7852 13.8133 23.0658 13.7136C23.3437 13.6139 23.8401 13.258 23.5676 12.8752Z" fill="#DDB38E"/>
<path d="M19.0198 10.4681C18.8417 10.4169 18.5153 10.4681 18.0647 10.4681C17.6168 10.4681 17.4199 10.6864 16.7184 10.6622C16.0169 10.6379 14.7542 10.6864 14.417 10.9048C14.0797 11.1231 13.9691 11.3199 13.7425 11.4898C13.5159 11.6596 11.8647 12.1934 11.808 12.4495C11.7514 12.7082 12.1992 12.6597 12.9844 12.6355C13.7695 12.6112 14.274 12.0747 14.6409 11.8537C15.0052 11.6353 15.3154 11.5113 15.9603 11.4871C16.6051 11.4628 17.1096 11.3172 17.4199 11.2175C17.7275 11.1204 19.1304 11.1932 19.3274 11.0234C19.5243 10.859 19.241 10.5328 19.0198 10.4681Z" fill="#FFE8D4"/>
<path d="M15.1969 12.0937C14.8947 12.3444 14.2229 12.5924 14.5575 12.7892C14.892 12.986 15.491 13.0911 16.1844 12.9833C16.9344 12.8674 17.8706 13.11 18.1512 12.9644C18.4318 12.8189 18.8149 12.0021 18.5613 11.8295C18.3077 11.657 17.6871 12.153 17.2312 12.118C16.7725 12.0802 16.6619 12.056 16.268 11.9347C15.8768 11.8134 15.3857 11.9374 15.1969 12.0937Z" fill="#FFE8D4"/>
<path d="M19.2451 11.4198C18.9078 11.4414 18.9078 11.6732 19.2451 11.8269C19.5823 11.9806 20.0868 12.2717 19.7496 12.4793C19.4123 12.6868 18.7675 12.7354 18.8512 12.8836C18.9348 13.0319 19.3557 13.1263 20.0868 12.8836C20.8153 12.641 21.0689 12.4901 21.3225 12.4793C21.5761 12.4685 21.6301 12.0156 21.3225 11.8269C21.015 11.6382 20.8747 11.7595 20.6211 11.5519C20.3674 11.3471 20.2568 11.126 19.9762 11.1503C19.6956 11.1745 19.7523 11.4198 19.639 11.4198C19.5257 11.4198 19.639 11.3956 19.2451 11.4198Z" fill="#FFE8D4"/>
<path d="M10.9828 16.8342C10.1788 17.2817 10.7616 17.5648 10.9612 18.6889C11.1636 19.8103 10.8722 20.0556 10.9612 20.5436C11.0502 21.0315 10.8722 21.816 10.9612 22.3497C11.0502 22.8835 10.7373 23.5682 11.0341 23.8108C11.3308 24.0534 12.375 24.3527 12.4127 23.3984C12.4532 22.4441 12.1133 22.0505 12.2266 21.0531C12.3399 20.0556 12.7095 19.3224 12.4127 18.6404C12.116 17.9583 12.3965 17.7616 12.116 17.4219C11.8381 17.0768 11.4549 16.5727 10.9828 16.8342Z" fill="#BC7F64"/>
<path d="M1.39456 23.9652C1.15714 24.3211 1.45392 24.5448 1.96654 24.5664C2.47916 24.588 3.95767 24.596 4.63757 24.7012C5.31746 24.8063 6.86342 24.4046 7.03879 24.3049C7.21416 24.2052 7.64854 24.1297 7.69171 23.976C7.73488 23.8224 7.26543 23.4665 6.80946 23.383C6.3535 23.3021 6.11608 23.0029 5.74375 22.9678C5.37143 22.9328 4.71311 22.9274 4.54853 22.984C4.38395 23.0406 3.5125 22.9624 3.19953 23.0541C2.88656 23.1457 2.77055 23.2616 2.26602 23.3991C1.76419 23.5393 1.53755 23.7523 1.39456 23.9652Z" fill="#EDB36E"/>
<path d="M6.99023 23.4297C7.07926 23.5213 7.13052 23.613 7.11703 23.6696C7.08196 23.8233 6.71233 23.896 6.56394 23.9931C6.41555 24.0901 5.10432 24.481 4.52155 24.3705C3.94148 24.26 2.68151 24.2411 2.24443 24.2168C1.81005 24.1899 1.55914 23.9688 1.748 23.6184C1.58072 23.7235 1.4755 23.8448 1.39456 23.9634C1.15714 24.3193 1.45392 24.543 1.96654 24.5646C2.47916 24.5862 3.95767 24.5943 4.63757 24.6994C5.31746 24.8045 6.86342 24.4029 7.03879 24.3031C7.21416 24.2034 7.64854 24.1279 7.69171 23.9742C7.73218 23.8448 7.38144 23.5564 6.99023 23.4297Z" fill="#CC9456"/>
<path d="M2.45854 23.6991C2.15636 23.7368 2.73643 23.9821 2.82277 24.0226C2.98195 24.0899 2.86054 23.6505 2.45854 23.6991Z" fill="#592007"/>
<path d="M4.69303 23.1566C4.318 22.976 4.17501 23.4127 4.24785 23.5124C4.3207 23.6121 4.92775 23.2671 4.69303 23.1566Z" fill="#592007"/>
<path d="M6.4228 23.6697C6.2852 23.7021 6.14491 23.7587 6.13681 23.8504C6.12872 23.942 6.64134 23.9151 6.66562 23.8234C6.6899 23.7317 6.54961 23.6401 6.4228 23.6697Z" fill="#592007"/>
<path d="M4.98338 24.2992C5.01575 24.1321 5.35031 24.1132 5.33142 24.2804C5.31254 24.4502 4.96179 24.4125 4.98338 24.2992Z" fill="#592007"/>
<path d="M3.36883 23.1927C3.2798 23.2062 3.39042 23.3409 3.47675 23.3868C3.56309 23.4326 3.51992 23.1711 3.36883 23.1927Z" fill="#592007"/>
<path d="M3.67965 23.9768C3.57983 24.0388 3.91168 24.1439 4.00611 24.0981C4.10324 24.0523 3.80106 23.904 3.67965 23.9768Z" fill="#592007"/>
<path d="M5.78745 23.3358C5.79824 23.2954 5.78205 23.2522 5.74428 23.2307C5.68492 23.1929 5.63636 23.1687 5.577 23.2819C5.50146 23.4275 5.47987 23.5811 5.63096 23.5326C5.72809 23.5003 5.77126 23.4059 5.78745 23.3358Z" fill="#592007"/>
<path d="M1.71763 24.2131C1.65018 24.2805 1.85253 24.3102 1.93886 24.3533C2.0252 24.3964 2.14661 24.3317 2.13312 24.267C2.11963 24.205 1.79317 24.1376 1.71763 24.2131Z" fill="#592007"/>
<path d="M3.14154 23.2258C3.08219 23.0856 2.74224 23.3336 2.61003 23.4037C2.47513 23.4738 2.1136 23.5089 1.96251 23.587C1.88427 23.6275 1.85189 23.6733 1.96521 23.7083C2.07853 23.7434 2.45085 23.5924 2.67479 23.5304C2.89333 23.4657 3.19011 23.3336 3.14154 23.2258Z" fill="#FCC78D"/>
<path d="M3.61087 23.045C3.52454 23.0773 3.69721 23.1016 3.86718 23.1636C4.03716 23.2256 4.2449 23.1582 4.253 23.1231C4.26109 23.0881 3.7134 23.0072 3.61087 23.045Z" fill="#FCC78D"/>
<path d="M4.73305 23.0308C4.67909 23.1009 5.03523 23.047 5.19171 23.0766C5.3482 23.1063 5.78527 23.2384 5.87431 23.1251C5.97953 22.9957 5.7556 23.0389 5.63419 23.0227C5.51278 23.0038 4.78431 22.9607 4.73305 23.0308Z" fill="#FCC78D"/>
<path d="M6.46149 24.5368C6.71511 24.251 6.96332 24.2079 7.15758 24.0138C7.35184 23.8197 8.02094 23.6795 8.35549 23.5959C8.69005 23.5124 9.46977 23.7496 9.834 23.7577C10.1982 23.7658 10.6137 23.8979 10.978 24.0677C11.3422 24.2375 11.7928 24.2267 11.9708 24.5394C12.1489 24.8522 12.3998 24.7955 12.5401 25.0732C12.6804 25.3509 11.1102 25.5018 10.4033 25.5099C9.66133 25.5207 7.94 25.5746 7.94 25.5746C6.96332 25.5746 5.68177 25.4075 5.65479 25.1002C5.62511 24.7928 6.27803 24.747 6.46149 24.5368Z" fill="#EDB36E"/>
<path d="M12.54 25.0705C12.4483 24.8899 12.3107 24.8495 12.1758 24.7578C12.0328 24.9843 10.8187 25.1083 10.2386 25.1163C9.5641 25.1271 7.99926 25.181 7.99926 25.181C7.19525 25.181 6.16462 25.0436 5.95687 24.7902C5.7842 24.8656 5.6412 24.9519 5.65469 25.0975C5.68167 25.4048 6.96592 25.5719 7.93991 25.5719C7.93991 25.5719 9.66123 25.518 10.4032 25.5072C11.1101 25.4991 12.6776 25.3509 12.54 25.0705Z" fill="#CC9456"/>
<path d="M7.02606 24.0816C6.74817 24.2514 7.21492 24.3916 7.40918 24.2811C7.60613 24.1679 7.21222 23.9657 7.02606 24.0816Z" fill="#592007"/>
<path d="M9.16819 23.8301C9.009 23.7492 8.86061 23.9675 8.99821 24.0835L9.00091 24.0861C9.11153 24.1778 9.50274 24.2452 9.47576 24.0861C9.45687 23.9945 9.29769 23.8947 9.16819 23.8301Z" fill="#592007"/>
<path d="M7.89573 24.9192C7.87954 24.7709 8.14664 24.6955 8.2033 24.7251C8.25996 24.7521 8.37057 24.8222 8.30043 24.9192C8.23028 25.0163 8.11966 25.0028 8.02253 25.0459C7.92541 25.0863 7.90922 25.0459 7.89573 24.9192Z" fill="#592007"/>
<path d="M10.9751 24.53C10.9562 24.4814 10.9778 24.4275 11.0237 24.4086C11.1154 24.3682 11.2449 24.3682 11.2557 24.4599C11.2692 24.5866 11.1855 24.7537 11.1019 24.7187C11.0506 24.6971 11.0021 24.5974 10.9751 24.53Z" fill="#592007"/>
<path d="M10.1268 25.0574C9.97843 25.0682 9.95955 25.2084 10.0998 25.238C10.2401 25.265 10.5612 25.2946 10.5612 25.238C10.5612 25.1814 10.3616 25.0601 10.2887 25.0574C10.2105 25.0547 10.2941 25.0439 10.1268 25.0574Z" fill="#592007"/>
<path d="M6.61446 24.9597C6.50384 25.0406 6.35815 25.1538 6.54971 25.1619C6.74127 25.17 6.99218 25.2374 7.00567 25.1619C7.01916 25.0837 6.75475 24.8573 6.61446 24.9597Z" fill="#592007"/>
<path d="M9.61362 24.5238C9.50839 24.5966 9.3654 24.7071 9.47602 24.7233C9.58663 24.7395 9.72423 24.6478 9.82406 24.6236C9.91849 24.5993 9.71884 24.451 9.61362 24.5238Z" fill="#592007"/>
<path d="M8.81133 23.7477C8.87878 23.6695 8.47947 23.6668 8.39583 23.6642C8.31219 23.6588 7.65118 23.9041 7.56215 23.9283C7.47312 23.9526 7.53786 24.0685 7.73482 24.0496C7.93177 24.0308 8.69261 23.8852 8.81133 23.7477Z" fill="#FCC78D"/>
<path d="M9.54647 23.7841C9.43046 23.8083 9.52488 23.9027 9.78659 23.9566C10.0483 24.0105 10.4881 24.0914 10.6446 24.1857C10.801 24.2801 10.9063 24.2882 11.0627 24.3097C11.2192 24.3313 11.5241 24.4283 11.6374 24.4553C11.7534 24.4796 11.6374 24.3367 11.4594 24.2828C11.2813 24.2316 10.9413 24.1426 10.8415 24.0536C10.7444 23.9674 9.69486 23.7544 9.54647 23.7841Z" fill="#FCC78D"/>
<path d="M6.93933 24.3791C6.89077 24.309 6.70191 24.3872 6.64795 24.4519C6.59399 24.5166 6.35117 24.6783 6.28102 24.7242C6.21087 24.77 6.08407 24.7889 6.1677 24.832C6.25134 24.8751 6.49147 24.8455 6.61827 24.7188C6.74508 24.5894 7.04186 24.522 6.93933 24.3791Z" fill="#FCC78D"/>
<path d="M25.3613 16.6266C27.4225 16.4244 28.8498 18.5594 28.5584 20.6837C28.267 22.808 26.3838 24.3041 24.3495 24.0264C22.3152 23.7488 20.9015 21.8024 21.1928 19.6782C21.4815 17.5539 23.47 16.8126 25.3613 16.6266ZM24.595 22.2284C25.6499 22.3712 26.6293 21.5949 26.7804 20.495C26.9315 19.3924 26.1895 18.2845 25.1211 18.3896C24.1391 18.4867 23.1084 18.8722 22.9573 19.972C22.8062 21.0746 23.5401 22.0855 24.595 22.2284Z" fill="#EDB36E"/>
<path d="M24.2607 23.1009C26.1817 23.3623 27.9651 21.9498 28.2376 19.9441C28.3266 19.2918 28.2457 18.6394 28.0271 18.0625C28.4804 18.8038 28.6908 19.7473 28.5613 20.6909C28.2699 22.8151 26.3867 24.3113 24.3524 24.0336C22.3181 23.7559 20.9044 21.8096 21.1958 19.6853C21.2093 19.591 21.2254 19.4993 21.247 19.4077C21.1904 21.2462 22.4719 22.8555 24.2607 23.1009Z" fill="#CC9456"/>
<path d="M27.196 17.4581C27.0557 17.2559 26.3893 16.9055 25.8066 16.8246C24.9972 16.7114 23.9395 16.9648 23.3325 17.2289C23.0114 17.3691 22.032 18.0458 21.7542 18.6119C21.5032 19.1214 21.4628 19.5284 21.6894 19.5581C21.916 19.5877 22.5959 18.3153 23.2354 17.9406C23.8748 17.5659 25.2184 17.2559 25.9469 17.3718C26.6726 17.4877 27.1232 17.9298 27.2662 17.849C27.4065 17.7681 27.277 17.574 27.196 17.4581Z" fill="#FCC78D"/>
<path d="M21.9163 20.3098C21.9028 20.4123 21.865 20.4527 21.8272 20.4473C21.7895 20.4419 21.7652 20.3934 21.7787 20.291C21.7922 20.1885 21.8839 20.043 21.8839 20.043C21.8839 20.043 21.9298 20.2074 21.9163 20.3098Z" fill="#FFE8D4"/>
<path d="M22.6277 21.5404C22.5549 21.6132 22.5009 21.624 22.474 21.597C22.447 21.5701 22.4578 21.5162 22.5306 21.4434C22.6035 21.3706 22.7626 21.3086 22.7626 21.3086C22.7626 21.3086 22.7006 21.4676 22.6277 21.5404Z" fill="#FFE8D4"/>
<path d="M26.0794 17.9956C26.0848 18.098 26.0578 18.1465 26.02 18.1492C25.9822 18.1519 25.9471 18.1088 25.9418 18.0064C25.9364 17.9039 25.9957 17.7422 25.9957 17.7422C25.9957 17.7422 26.074 17.8905 26.0794 17.9956Z" fill="#FFE8D4"/>
<path d="M24.4667 17.972C24.5504 18.034 24.5666 18.0853 24.545 18.1176C24.5234 18.1473 24.4667 18.1446 24.3831 18.0853C24.2995 18.026 24.2158 17.875 24.2158 17.875C24.2158 17.875 24.3831 17.91 24.4667 17.972Z" fill="#FFE8D4"/>
<path d="M27.2821 19.4264C27.1876 19.4696 27.1337 19.4615 27.1175 19.4264C27.1013 19.3914 27.131 19.3456 27.2227 19.2997C27.3171 19.2566 27.4871 19.2539 27.4871 19.2539C27.4871 19.2539 27.3765 19.3833 27.2821 19.4264Z" fill="#FFE8D4"/>
<path d="M27.0994 18.3274C27.0104 18.2762 26.9861 18.2277 27.005 18.1926C27.0239 18.1603 27.0779 18.1549 27.1696 18.2061C27.2586 18.2573 27.3612 18.3948 27.3612 18.3948C27.3612 18.3948 27.1885 18.3786 27.0994 18.3274Z" fill="#FFE8D4"/>
<path d="M26.9204 18.9073C26.8422 18.9747 26.7882 18.9828 26.7639 18.9532C26.7397 18.9235 26.7531 18.8696 26.8287 18.8022C26.9069 18.7348 27.0688 18.6836 27.0688 18.6836C27.0688 18.6836 26.996 18.8373 26.9204 18.9073Z" fill="#FFE8D4"/>
<path d="M27.3607 21.1222C27.2636 21.0899 27.2285 21.0441 27.242 21.009C27.2555 20.974 27.3068 20.9578 27.4039 20.9901C27.501 21.0225 27.6278 21.1384 27.6278 21.1384C27.6278 21.1384 27.4579 21.1546 27.3607 21.1222Z" fill="#FFE8D4"/>
<path d="M27.5253 20.0163C27.4821 19.9219 27.4929 19.868 27.528 19.8518C27.5631 19.8357 27.6089 19.8653 27.6521 19.9597C27.6952 20.054 27.6953 20.2239 27.6953 20.2239C27.6953 20.2239 27.5684 20.1106 27.5253 20.0163Z" fill="#FFE8D4"/>
<path d="M22.453 20.6027C22.3559 20.5704 22.3208 20.5245 22.3343 20.4895C22.3478 20.4544 22.3991 20.4383 22.4962 20.4706C22.5933 20.503 22.7201 20.6189 22.7201 20.6189C22.7201 20.6189 22.5502 20.6351 22.453 20.6027Z" fill="#FFE8D4"/>
<path d="M22.5627 19.5941C22.4629 19.6238 22.4116 19.6076 22.4008 19.5725C22.39 19.5348 22.4251 19.4917 22.5222 19.462C22.622 19.4324 22.792 19.4512 22.792 19.4512C22.792 19.4512 22.6598 19.5645 22.5627 19.5941Z" fill="#FFE8D4"/>
<path d="M23.0235 18.7964C22.9642 18.8799 22.9129 18.9015 22.8806 18.8799C22.8482 18.8584 22.8482 18.8018 22.9075 18.7182C22.9669 18.6346 23.1126 18.543 23.1126 18.543C23.1126 18.543 23.0829 18.7128 23.0235 18.7964Z" fill="#FFE8D4"/>
<path d="M23.5674 18.0686C23.4649 18.0605 23.4217 18.0255 23.4244 17.9877C23.4271 17.95 23.4757 17.923 23.5782 17.9311C23.6807 17.9392 23.8318 18.0228 23.8318 18.0228C23.8318 18.0228 23.67 18.0767 23.5674 18.0686Z" fill="#FFE8D4"/>
<path d="M23.8781 18.6168C23.7971 18.6815 23.7432 18.6869 23.7189 18.6572C23.6946 18.6276 23.7108 18.5737 23.789 18.509C23.87 18.4443 24.0346 18.3984 24.0346 18.3984C24.0346 18.3984 23.959 18.5494 23.8781 18.6168Z" fill="#FFE8D4"/>
<path d="M25.3083 17.8863C25.2273 17.951 25.1734 17.9564 25.1491 17.9268C25.1248 17.8971 25.141 17.8432 25.2192 17.7785C25.2975 17.7138 25.4647 17.668 25.4647 17.668C25.4647 17.668 25.3865 17.8216 25.3083 17.8863Z" fill="#FFE8D4"/>
<path d="M26.9635 21.9605C26.8826 22.0252 26.8286 22.0306 26.8043 22.001C26.7801 21.9713 26.7963 21.9174 26.8745 21.8527C26.9554 21.788 27.12 21.7422 27.12 21.7422C27.12 21.7422 27.0418 21.8958 26.9635 21.9605Z" fill="#FFE8D4"/>
<path d="M26.3463 22.0872C26.3112 22.1842 26.2654 22.2166 26.2303 22.2031C26.1952 22.1896 26.1817 22.1357 26.2168 22.0387C26.2519 21.9416 26.3706 21.8203 26.3706 21.8203C26.3706 21.8203 26.3814 21.9901 26.3463 22.0872Z" fill="#FFE8D4"/>
<path d="M21.9779 21.2729C21.9185 21.3592 21.8673 21.3781 21.8376 21.3565C21.8052 21.3349 21.8052 21.281 21.8646 21.1948C21.9239 21.1085 22.0669 21.0195 22.0669 21.0195C22.0669 21.0195 22.0345 21.1867 21.9779 21.2729Z" fill="#FFE8D4"/>
<path d="M22.7784 22.1461C22.6759 22.1542 22.6273 22.1272 22.6246 22.0895C22.6219 22.0517 22.6651 22.0167 22.7676 22.0086C22.8702 22.0005 23.032 22.0571 23.032 22.0571C23.032 22.0571 22.8809 22.138 22.7784 22.1461Z" fill="#FFE8D4"/>
<path d="M25.585 22.75C25.5661 22.8525 25.5256 22.8902 25.4879 22.8821C25.4501 22.874 25.4285 22.8255 25.4474 22.7231C25.4663 22.6206 25.5634 22.4805 25.5634 22.4805C25.5634 22.4805 25.6039 22.6476 25.585 22.75Z" fill="#FFE8D4"/>
<path d="M26.0989 22.8044C26.018 22.7397 26.0018 22.6885 26.0233 22.6588C26.0449 22.6291 26.1016 22.6318 26.1825 22.6965C26.2635 22.7612 26.3444 22.9122 26.3444 22.9122C26.3444 22.9122 26.1798 22.8691 26.0989 22.8044Z" fill="#FFE8D4"/>
<path d="M24.4792 23.2379C24.3982 23.3026 24.3443 23.308 24.32 23.2783C24.2957 23.2487 24.3119 23.1948 24.3901 23.1301C24.4684 23.0654 24.6356 23.0195 24.6356 23.0195C24.6356 23.0195 24.5601 23.1705 24.4792 23.2379Z" fill="#FFE8D4"/>
<path d="M23.5978 23.0617C23.614 23.1642 23.5897 23.2127 23.5519 23.2181C23.5141 23.2235 23.4764 23.183 23.4602 23.0833C23.444 22.9808 23.4872 22.8164 23.4872 22.8164C23.4872 22.8164 23.5816 22.9593 23.5978 23.0617Z" fill="#FFE8D4"/>
<path d="M24.1225 22.7642C24.082 22.8585 24.0362 22.8882 24.0011 22.8747C23.966 22.8612 23.9552 22.8046 23.9957 22.7103C24.0361 22.6159 24.163 22.5 24.163 22.5C24.163 22.5 24.163 22.6671 24.1225 22.7642Z" fill="#FFE8D4"/>
<path d="M23.4868 22.1171C23.5327 22.0255 23.5813 21.9985 23.6163 22.0174C23.6514 22.0336 23.6568 22.0902 23.6109 22.1818C23.5651 22.2735 23.4302 22.3813 23.4302 22.3813C23.4302 22.3813 23.4383 22.2088 23.4868 22.1171Z" fill="#FFE8D4"/>
<path d="M24.9853 22.6599C24.9394 22.7516 24.8909 22.7785 24.8558 22.7624C24.8207 22.7462 24.8153 22.6896 24.8612 22.5979C24.907 22.5063 25.0392 22.3984 25.0392 22.3984C25.0392 22.3984 25.0312 22.5683 24.9853 22.6599Z" fill="#FFE8D4"/>
<path d="M25.1999 23.5269C25.1189 23.5916 25.065 23.597 25.0407 23.5674C25.0164 23.5377 25.0326 23.4838 25.1108 23.4191C25.1918 23.3544 25.3563 23.3086 25.3563 23.3086C25.3563 23.3086 25.2808 23.4623 25.1999 23.5269Z" fill="#FFE8D4"/>
<path d="M22.6945 22.7769C22.6135 22.8416 22.5596 22.847 22.5353 22.8174C22.511 22.7877 22.5272 22.7338 22.6055 22.6691C22.6837 22.6044 22.851 22.5586 22.851 22.5586C22.851 22.5586 22.7727 22.7123 22.6945 22.7769Z" fill="#FFE8D4"/>
<path d="M27.0895 20.5191C27.0086 20.5838 26.9546 20.5892 26.9303 20.5596C26.906 20.5299 26.9222 20.476 27.0005 20.4113C27.0814 20.3466 27.246 20.3008 27.246 20.3008C27.246 20.3008 27.1704 20.4544 27.0895 20.5191Z" fill="#FFE8D4"/>
<path d="M26.6266 17.2769C26.5457 17.3416 26.4917 17.347 26.4674 17.3174C26.4432 17.2877 26.4593 17.2338 26.5376 17.1691C26.6185 17.1044 26.7831 17.0586 26.7831 17.0586C26.7831 17.0586 26.7049 17.2123 26.6266 17.2769Z" fill="#FFE8D4"/>
<path d="M26.4207 18.3878C26.3182 18.3932 26.2696 18.3636 26.2696 18.3258C26.2669 18.2881 26.3128 18.253 26.4153 18.2503C26.5179 18.2449 26.677 18.3069 26.677 18.3069C26.677 18.3069 26.5233 18.3851 26.4207 18.3878Z" fill="#FFE8D4"/>
<path d="M25.9156 17.1293C25.9318 17.2318 25.9103 17.2803 25.8698 17.2884C25.832 17.2938 25.7942 17.2533 25.778 17.1536C25.7619 17.0512 25.805 16.8867 25.805 16.8867C25.805 16.8867 25.8968 17.0296 25.9156 17.1293Z" fill="#FFE8D4"/>
<path d="M21.8918 19.0543C21.8108 19.119 21.7569 19.1244 21.7326 19.0947C21.7083 19.0651 21.7245 19.0112 21.8027 18.9465C21.8837 18.8818 22.0482 18.8359 22.0482 18.8359C22.0482 18.8359 21.97 18.9896 21.8918 19.0543Z" fill="#FFE8D4"/>
<path d="M22.5892 18.1131C22.5865 18.2155 22.5541 18.2613 22.5137 18.2586C22.4759 18.2586 22.4462 18.2101 22.4489 18.1077C22.4516 18.0052 22.5271 17.8516 22.5271 17.8516C22.5271 17.8516 22.5919 18.0106 22.5892 18.1131Z" fill="#FFE8D4"/>
<path d="M23.5617 17.5309C23.4807 17.5956 23.4268 17.6009 23.4025 17.5713C23.3782 17.5416 23.3944 17.4877 23.4726 17.423C23.5509 17.3583 23.7182 17.3125 23.7182 17.3125C23.7182 17.3125 23.6399 17.4635 23.5617 17.5309Z" fill="#FFE8D4"/>
<path d="M24.7464 17.3451C24.6735 17.4179 24.6196 17.4287 24.5926 17.4017C24.5656 17.3748 24.5764 17.3209 24.6493 17.2481C24.7221 17.1753 24.8813 17.1133 24.8813 17.1133C24.8813 17.1133 24.8192 17.2723 24.7464 17.3451Z" fill="#FFE8D4"/>
<path d="M26.9437 22.7553C26.8708 22.8281 26.8168 22.8388 26.7899 22.8119C26.7629 22.7849 26.7737 22.731 26.8465 22.6582C26.9194 22.5854 27.0786 22.5234 27.0786 22.5234C27.0786 22.5234 27.0165 22.6825 26.9437 22.7553Z" fill="#FFE8D4"/>
<path d="M22.1785 22.1641C22.1542 22.2638 22.1137 22.3016 22.076 22.2935C22.0382 22.2854 22.0193 22.2342 22.0436 22.1318C22.0679 22.032 22.1704 21.8945 22.1704 21.8945C22.1704 21.8945 22.2028 22.0644 22.1785 22.1641Z" fill="#FFE8D4"/>
<path d="M28.0027 20.8026C27.9083 20.8458 27.8544 20.835 27.8382 20.8C27.822 20.7649 27.8517 20.7191 27.9461 20.6759C28.0405 20.6328 28.2105 20.6328 28.2105 20.6328C28.2105 20.6328 28.0945 20.7595 28.0027 20.8026Z" fill="#FFE8D4"/>
<path d="M27.7859 21.8514C27.8183 21.9485 27.8021 22.0024 27.7644 22.0132C27.7266 22.024 27.6834 21.9916 27.6537 21.8919C27.6214 21.7948 27.6402 21.625 27.6402 21.625C27.6402 21.625 27.7536 21.7517 27.7859 21.8514Z" fill="#FFE8D4"/>
<path d="M27.7761 18.5578C27.8354 18.4743 27.8894 18.4554 27.9191 18.477C27.9514 18.4985 27.9487 18.5551 27.8894 18.6387C27.83 18.7223 27.6816 18.8085 27.6816 18.8085C27.6816 18.8085 27.7167 18.6414 27.7761 18.5578Z" fill="#FFE8D4"/>
<path d="M28.0657 19.4896C27.9929 19.5624 27.9389 19.5732 27.9119 19.5463C27.885 19.5193 27.8958 19.4654 27.9686 19.3926C28.0414 19.3198 28.2006 19.2578 28.2006 19.2578C28.2006 19.2578 28.1386 19.4169 28.0657 19.4896Z" fill="#FFE8D4"/>
<path d="M4.00053 26.3699C4.25953 26.2917 4.49696 26.3241 4.5725 26.5667C4.64805 26.8093 4.46728 26.9711 4.20827 27.0492C3.94926 27.1274 3.71723 27.1139 3.63629 26.8524C3.56075 26.6017 3.74421 26.4508 4.00053 26.3699Z" fill="#EED28D"/>
<path d="M3.64551 26.6287C3.71026 26.5721 3.79929 26.5289 3.89912 26.4966C4.13924 26.4238 4.36318 26.4535 4.43333 26.6799C4.4738 26.812 4.43333 26.9171 4.34699 26.998C4.52776 26.9091 4.63837 26.7635 4.57632 26.5667C4.50078 26.3241 4.26335 26.2917 4.00434 26.3699C3.83167 26.4238 3.69677 26.5074 3.64551 26.6287Z" fill="#D8A861"/>
<path d="M3.63895 26.8545C3.68482 26.8329 3.73069 26.814 3.77655 26.7952C3.80353 26.7844 3.83051 26.7736 3.8548 26.7628L3.93574 26.7332C3.9897 26.7116 4.04366 26.6954 4.09492 26.6792C4.20284 26.6442 4.31076 26.6145 4.42138 26.5903C4.46994 26.5795 4.51851 26.5687 4.56977 26.5606C4.56707 26.5525 4.56437 26.5471 4.56167 26.5391C4.51311 26.5445 4.46455 26.5498 4.41598 26.5579C4.30267 26.5768 4.19205 26.6038 4.08143 26.6388C3.97351 26.6765 3.86559 26.7143 3.76306 26.7655C3.7172 26.7844 3.67403 26.8086 3.63086 26.8329C3.63626 26.841 3.63626 26.8464 3.63895 26.8545Z" fill="#AA6A35"/>
<path d="M4.01061 26.4623C4.13472 26.4219 4.25073 26.4327 4.26422 26.4812C4.27771 26.5297 4.1617 26.5136 4.03759 26.5513C3.91348 26.589 3.82714 26.6726 3.81096 26.6214C3.79747 26.5729 3.8838 26.5001 4.01061 26.4623Z" fill="#FBF0C1"/>
<path d="M4.10539 26.7585C4.2295 26.7207 4.34821 26.7369 4.3644 26.7989C4.38328 26.8582 4.29425 26.9283 4.16744 26.966C4.04333 27.0038 3.93002 26.9984 3.91113 26.9364C3.89494 26.8771 3.98128 26.7989 4.10539 26.7585Z" fill="#FBF0C1"/>
<path d="M4.04356 25.2234C4.27559 25.2692 4.44556 25.3932 4.40239 25.6089C4.35922 25.8245 4.15418 25.8758 3.92485 25.8326C3.69282 25.7868 3.52014 25.6817 3.56601 25.4471C3.60918 25.2207 3.81153 25.1776 4.04356 25.2234Z" fill="#EED28D"/>
<path d="M3.66113 25.2744C3.73398 25.2555 3.82032 25.2582 3.91205 25.2771C4.12789 25.3202 4.28707 25.4334 4.2466 25.6383C4.22232 25.7569 4.14947 25.8216 4.04965 25.8459C4.22502 25.8513 4.36801 25.7866 4.40308 25.6086C4.44625 25.3903 4.27628 25.2663 4.04425 25.2231C3.89316 25.1935 3.75287 25.2016 3.66113 25.2744Z" fill="#D8A861"/>
<path d="M3.56445 25.4473C3.60762 25.45 3.65079 25.4554 3.69396 25.4581C3.71824 25.4608 3.74252 25.4635 3.7668 25.4662L3.83965 25.477C3.88822 25.4824 3.93678 25.4932 3.98534 25.5013C4.08247 25.5201 4.1769 25.5417 4.27403 25.566C4.3172 25.5767 4.35767 25.5902 4.40084 25.6037C4.40084 25.5983 4.40354 25.5902 4.40354 25.5848C4.36307 25.5687 4.3226 25.5525 4.28213 25.539C4.1877 25.5067 4.09057 25.4824 3.99344 25.4635C3.89631 25.4473 3.79648 25.4312 3.69666 25.4285C3.65349 25.4258 3.61032 25.4258 3.56715 25.4258C3.56715 25.4339 3.56445 25.4393 3.56445 25.4473Z" fill="#AA6A35"/>
<path d="M4.01491 25.294C4.12823 25.3156 4.21186 25.3695 4.20107 25.4153C4.19298 25.4611 4.10934 25.3991 3.99872 25.3776C3.8854 25.356 3.78828 25.3857 3.79637 25.3398C3.80446 25.2913 3.9016 25.2724 4.01491 25.294Z" fill="#FBF0C1"/>
<path d="M3.96531 25.5636C4.07593 25.5852 4.15957 25.6472 4.14878 25.7011C4.13799 25.755 4.04085 25.7712 3.93024 25.7496C3.81962 25.7281 3.73328 25.6768 3.74408 25.6229C3.75487 25.5663 3.852 25.5394 3.96531 25.5636Z" fill="#FBF0C1"/>
<path d="M1.66946 26.7427C1.96354 26.7507 2.19827 26.8694 2.19017 27.1443C2.18208 27.4193 1.94196 27.5244 1.64787 27.5163C1.35379 27.5083 1.11906 27.4139 1.12716 27.1147C1.13525 26.8289 1.37537 26.7346 1.66946 26.7427Z" fill="#EED28D"/>
<path d="M1.21191 26.8855C1.29825 26.8478 1.40347 26.8343 1.51949 26.837C1.79468 26.8451 2.01322 26.9529 2.00513 27.2117C1.99973 27.3627 1.92149 27.457 1.80548 27.5082C2.02401 27.4786 2.1859 27.3681 2.19129 27.1443C2.19939 26.8694 1.96466 26.7507 1.67058 26.7427C1.47902 26.7373 1.30904 26.7777 1.21191 26.8855Z" fill="#D8A861"/>
<path d="M1.12695 27.1167C1.18091 27.1113 1.23487 27.1086 1.29153 27.1059C1.32121 27.1059 1.35359 27.1032 1.38326 27.1005L1.475 27.0978C1.53705 27.0951 1.5991 27.0978 1.65846 27.0978C1.78257 27.1005 1.90398 27.1086 2.02539 27.1194C2.07935 27.1248 2.13331 27.1329 2.18727 27.141C2.18727 27.1329 2.18727 27.1248 2.18727 27.1167C2.13601 27.1059 2.08205 27.0951 2.03079 27.087C1.90668 27.0682 1.78257 27.0574 1.65846 27.0547C1.53435 27.0547 1.41024 27.0574 1.28614 27.0736C1.23218 27.0789 1.18091 27.087 1.12695 27.0951C1.12965 27.1005 1.12695 27.1059 1.12695 27.1167Z" fill="#AA6A35"/>
<path d="M1.64698 26.84C1.78998 26.8427 1.90329 26.8912 1.90329 26.9505C1.90329 27.0071 1.78728 26.9478 1.64698 26.9451C1.50399 26.9424 1.38797 26.9963 1.39067 26.9397C1.38797 26.8804 1.50399 26.8373 1.64698 26.84Z" fill="#FBF0C1"/>
<path d="M1.64359 27.1759C1.78658 27.1786 1.8999 27.2379 1.8972 27.308C1.8945 27.3754 1.77849 27.4158 1.6355 27.4131C1.4925 27.4104 1.37919 27.3646 1.38188 27.2945C1.38458 27.2244 1.50329 27.1732 1.64359 27.1759Z" fill="#FBF0C1"/>
<path d="M2.84409 25.6826C3.15706 25.7554 3.38369 25.9333 3.31355 26.2298C3.2434 26.5237 2.96281 26.583 2.64984 26.5075C2.33687 26.432 2.10484 26.2784 2.18038 25.9603C2.25053 25.6557 2.53112 25.6098 2.84409 25.6826Z" fill="#EED28D"/>
<path d="M2.31836 25.7345C2.41819 25.7129 2.5369 25.7237 2.65831 25.7506C2.94969 25.8207 3.16014 25.9852 3.09539 26.2601C3.05761 26.4192 2.95239 26.5054 2.81479 26.5351C3.05492 26.554 3.25187 26.4704 3.31123 26.2305C3.38138 25.9366 3.15474 25.7587 2.84177 25.6832C2.63672 25.6347 2.44786 25.6374 2.31836 25.7345Z" fill="#D8A861"/>
<path d="M2.17773 25.962C2.23709 25.9674 2.29645 25.9755 2.3558 25.9863C2.38818 25.9917 2.42325 25.9971 2.45563 26.0024L2.55546 26.0213C2.62291 26.0321 2.68766 26.0483 2.75241 26.0618C2.88461 26.0914 3.01412 26.1264 3.14092 26.1669C3.19758 26.1831 3.25424 26.2046 3.3109 26.2262C3.3136 26.2181 3.31359 26.21 3.31629 26.2019C3.26233 26.1777 3.20837 26.1561 3.15441 26.1345C3.02761 26.086 2.8954 26.0483 2.7632 26.0186C2.631 25.9917 2.4961 25.9647 2.3585 25.9566C2.29914 25.9512 2.24249 25.9485 2.18313 25.9458C2.18313 25.9431 2.18043 25.9512 2.17773 25.962Z" fill="#AA6A35"/>
<path d="M2.79724 25.7824C2.94832 25.8175 3.06164 25.8956 3.04545 25.9549C3.02926 26.0142 2.92134 25.928 2.77026 25.8929C2.61917 25.8579 2.48157 25.8902 2.49506 25.8309C2.51124 25.7689 2.64345 25.7474 2.79724 25.7824Z" fill="#FBF0C1"/>
<path d="M2.71612 26.1436C2.8672 26.1786 2.97782 26.2676 2.95894 26.3404C2.94275 26.4132 2.80785 26.4294 2.65676 26.3943C2.50567 26.3593 2.39235 26.2838 2.41124 26.211C2.43013 26.1382 2.56503 26.1086 2.71612 26.1436Z" fill="#FBF0C1"/>
<path d="M3.20943 28.0075C3.43874 27.755 3.47612 27.4157 3.29293 27.2496C3.10974 27.0835 2.77535 27.1536 2.54605 27.4061C2.31674 27.6586 2.27936 27.9979 2.46255 28.164C2.64574 28.3301 2.98013 28.26 3.20943 28.0075Z" fill="#EED28D"/>
<path d="M2.32215 27.911C2.35453 27.8086 2.42198 27.7035 2.51371 27.6037C2.72686 27.3692 2.98856 27.2587 3.2098 27.4582C3.3393 27.5741 3.36358 27.7143 3.32042 27.8598C3.46071 27.6469 3.485 27.4204 3.29074 27.2452C3.05331 27.0295 2.77272 27.1482 2.54339 27.3989C2.3923 27.566 2.29787 27.7466 2.32215 27.911Z" fill="#D8A861"/>
<path d="M2.46322 28.1593C2.501 28.1081 2.53607 28.0569 2.57654 28.0056C2.59812 27.9787 2.61971 27.949 2.64129 27.9221L2.70874 27.8385C2.75191 27.7819 2.80047 27.7307 2.84634 27.6768C2.94077 27.5689 3.0406 27.4692 3.14312 27.3694C3.18899 27.3263 3.23485 27.2832 3.28342 27.2427C3.27532 27.2373 3.26993 27.232 3.26183 27.2266C3.21057 27.2643 3.16201 27.302 3.11614 27.3425C3.00552 27.4368 2.903 27.5366 2.80857 27.6444C2.71414 27.7549 2.62241 27.8655 2.54416 27.9868C2.50909 28.038 2.47671 28.0919 2.44434 28.1431C2.44973 28.1458 2.45513 28.1539 2.46322 28.1593C2.46053 28.1593 2.46053 28.1593 2.46322 28.1593Z" fill="#AA6A35"/>
<path d="M2.61184 27.4964C2.72246 27.3724 2.85196 27.3104 2.90053 27.3535C2.94909 27.3966 2.81149 27.4533 2.70087 27.5773C2.59025 27.7013 2.55248 27.8441 2.50122 27.801C2.45266 27.7552 2.50122 27.6204 2.61184 27.4964Z" fill="#FBF0C1"/>
<path d="M2.90411 27.7538C3.01473 27.6325 3.15233 27.5759 3.21169 27.6298C3.27104 27.6837 3.21708 27.8158 3.10646 27.9371C2.99584 28.0584 2.86904 28.1258 2.80968 28.0719C2.75302 28.018 2.79349 27.8751 2.90411 27.7538Z" fill="#FBF0C1"/>
<path d="M29.9412 25.3908C29.9412 26.6794 28.0553 27.7712 24.9472 28.5772C23.4849 28.9573 21.5774 29.4183 19.7859 29.5396C13.1084 29.9871 9.62793 28.9681 9.62793 27.073C9.62793 26.0756 11.0471 25.345 13.0841 24.5444C13.2217 24.4905 13.3593 24.4365 13.4996 24.3826C13.8287 24.2559 14.1498 24.078 14.4816 23.8947C15.0347 23.5874 15.6121 23.2585 16.2947 23.121C16.9287 22.9916 17.5574 22.9889 18.2157 22.9943C18.6851 22.9997 19.1681 23.0105 19.678 22.9835C19.91 22.9701 20.1502 22.9296 20.393 22.8784C20.9002 22.7706 21.4128 22.625 21.8634 22.625C22.4354 22.6277 23.0073 22.7652 23.547 22.873C23.7979 22.9242 24.0434 22.9674 24.2781 22.9862C24.5317 23.0078 24.7745 23.0078 25.0093 23.0024C25.5165 22.9889 25.9833 22.9458 26.4338 23.0401C28.6354 23.5038 29.9412 24.326 29.9412 25.3908Z" fill="#AF6A48"/>
<path d="M15.1811 26.345C14.5174 25.5875 13.1252 24.5766 13.082 24.5442C13.2196 24.4903 13.3572 24.4364 13.4975 24.3825C13.8267 24.2558 14.1477 24.0778 14.4796 23.8945C15.7989 25.423 15.8556 27.1133 15.1811 26.345Z" fill="#DB8F65"/>
<path d="M20.6811 25.3374C19.5587 24.2726 18.2124 22.9948 18.2124 22.9948C18.6819 23.0002 19.1648 23.011 19.6747 22.984C19.9068 22.9706 20.1469 22.9301 20.3897 22.8789C21.4446 24.065 21.8035 26.4023 20.6811 25.3374Z" fill="#DB8F65"/>
<path d="M25.3384 24.8309C24.9445 24.1597 23.5415 22.8711 23.5415 22.8711C23.7924 22.9223 24.0379 22.9654 24.2727 22.9843C24.5263 23.0059 24.7691 23.0059 25.0038 23.0005C25.7889 23.979 25.7323 25.5021 25.3384 24.8309Z" fill="#DB8F65"/>
<path d="M19.7828 29.5423C21.5742 29.421 23.4817 28.9574 24.9441 28.58C28.0522 27.7739 29.9381 26.6821 29.9381 25.3936C29.9381 25.2588 29.9165 25.1267 29.876 25C24.9575 28.0139 17.6837 28.5557 14.3409 28.1406C9.93234 27.5933 11.7049 25.1267 11.7049 25.1267C10.4315 25.7198 9.62207 26.3209 9.62207 27.0757C9.62477 28.9708 13.1052 29.9898 19.7828 29.5423Z" fill="#93563B"/>
<path d="M5.99152 26.6325C6.31798 27.6542 7.61303 27.4359 7.60223 26.371C7.83696 26.3333 8.07169 26.2956 8.30641 26.2578C8.4629 28.2419 5.76759 28.684 5.29004 26.7457C5.52207 26.708 5.75679 26.6703 5.99152 26.6325Z" fill="#FDCB81"/>
<path d="M8.2191 26.2713C8.20561 28.0235 5.94198 28.3955 5.3754 26.7323C5.34572 26.7377 5.31874 26.7404 5.28906 26.7457C5.76661 28.684 8.46462 28.2419 8.30544 26.2578C8.27846 26.2632 8.24878 26.2686 8.2191 26.2713Z" fill="#DDAB68"/>
<path d="M8.30601 26.2571C8.3222 26.3623 8.17921 26.4728 7.98495 26.5024C7.79069 26.5348 7.61802 26.4755 7.60184 26.3703C7.58565 26.2652 7.72864 26.1547 7.9229 26.125C8.11715 26.0954 8.28983 26.152 8.30601 26.2571Z" fill="#C69355"/>
<path d="M7.94741 26.2635C8.0958 26.2392 8.2334 26.2689 8.29545 26.3309C8.30625 26.3066 8.31164 26.2824 8.30894 26.2581C8.29276 26.153 8.12008 26.0937 7.92583 26.126C7.73157 26.1584 7.58858 26.2689 7.60476 26.3713C7.60746 26.3956 7.62095 26.4172 7.63984 26.436C7.67761 26.3579 7.79632 26.2878 7.94741 26.2635Z" fill="#DDAB68"/>
<path d="M5.99449 26.6321C6.01068 26.7373 5.86769 26.8478 5.67343 26.8774C5.47917 26.9098 5.3065 26.8505 5.29031 26.7453C5.27412 26.6402 5.41712 26.5297 5.61138 26.5C5.80563 26.4704 5.9783 26.527 5.99449 26.6321Z" fill="#C69355"/>
<path d="M5.63296 26.6346C5.78135 26.6103 5.91895 26.64 5.981 26.702C5.99179 26.6777 5.99719 26.6535 5.99449 26.6292C5.9783 26.5241 5.80563 26.4648 5.61138 26.4971C5.41712 26.5295 5.27412 26.64 5.29031 26.7424C5.29301 26.7667 5.3065 26.7883 5.32539 26.8071C5.36586 26.7316 5.48457 26.6589 5.63296 26.6346Z" fill="#DDAB68"/>
<path d="M6.83436 27.3497C6.81277 27.4117 7.0529 27.4629 7.34698 27.285C7.61138 27.1259 7.70581 26.7189 7.67074 26.6542C7.63567 26.5895 7.50076 27.0909 7.22827 27.2203C6.98005 27.3389 6.83436 27.3497 6.83436 27.3497Z" fill="#FFD69F"/>
<path d="M6.00471 28.1941C5.74301 29.2347 6.96251 29.7307 7.5102 28.8196C7.72874 28.9112 7.94998 29.0029 8.16852 29.0918C7.25659 30.8629 4.73125 29.8224 5.3464 27.9219C5.56494 28.0108 5.78617 28.1025 6.00471 28.1941Z" fill="#FDCB81"/>
<path d="M8.08876 29.0568C7.15525 30.5421 5.03461 29.666 5.42852 27.9542C5.40154 27.9434 5.37456 27.9327 5.34758 27.9219C4.73513 29.8224 7.26047 30.8629 8.1697 29.0918C8.14272 29.081 8.11574 29.0676 8.08876 29.0568Z" fill="#DDAB68"/>
<path d="M8.1693 29.0896C8.12883 29.1866 7.94807 29.2055 7.7673 29.13C7.58653 29.0545 7.47052 28.9143 7.51099 28.8173C7.55146 28.7202 7.73223 28.7014 7.91299 28.7768C8.09646 28.8496 8.21247 28.9898 8.1693 29.0896Z" fill="#C69355"/>
<path d="M7.86188 28.9035C8.00217 28.9629 8.102 29.0572 8.12088 29.1435C8.14247 29.13 8.16135 29.1111 8.16945 29.0896C8.20992 28.9925 8.0966 28.8496 7.91314 28.7768C7.73237 28.7014 7.5516 28.7202 7.51113 28.8173C7.50304 28.8389 7.50034 28.8658 7.50574 28.8901C7.58398 28.8415 7.72158 28.8442 7.86188 28.9035Z" fill="#DDAB68"/>
<path d="M6.00427 28.1911C5.9638 28.2882 5.78303 28.307 5.60226 28.2316C5.4215 28.1561 5.30548 28.0159 5.34595 27.9188C5.38642 27.8218 5.56719 27.8029 5.74795 27.8784C5.93142 27.9512 6.04474 28.0914 6.00427 28.1911Z" fill="#C69355"/>
<path d="M5.69683 28.0051C5.83713 28.0644 5.93696 28.1588 5.95585 28.245C5.97743 28.2316 5.99631 28.2127 6.00441 28.1911C6.04488 28.0941 5.93156 27.9512 5.7481 27.8784C5.56733 27.8029 5.38656 27.8218 5.34609 27.9188C5.338 27.9404 5.3353 27.9674 5.3407 27.9916C5.41624 27.9431 5.55654 27.9458 5.69683 28.0051Z" fill="#DDAB68"/>
<path d="M6.34267 29.2396C6.29141 29.28 6.46948 29.4498 6.81212 29.4552C7.1197 29.4579 7.41648 29.1614 7.41918 29.0886C7.42187 29.0131 7.04415 29.3716 6.74467 29.3393C6.47218 29.3096 6.34267 29.2396 6.34267 29.2396Z" fill="#FFD69F"/>
<path d="M9.09037 27.4506C8.58854 28.3995 9.65156 29.1705 10.4016 28.4184C10.5932 28.5585 10.7847 28.7014 10.9763 28.8416C9.66774 30.3431 7.46347 28.7257 8.51569 27.0273C8.70995 27.1675 8.90151 27.3104 9.09037 27.4506Z" fill="#FDCB81"/>
<path d="M10.9051 28.7877C9.64245 30.0035 7.79161 28.6475 8.58753 27.0786C8.56324 27.0624 8.54166 27.0435 8.51738 27.0273C7.46516 28.7257 9.66673 30.3404 10.978 28.8416C10.9537 28.8227 10.9294 28.8065 10.9051 28.7877Z" fill="#DDAB68"/>
<path d="M10.9738 28.8411C10.9117 28.9274 10.7309 28.9005 10.5718 28.7845C10.4126 28.6686 10.337 28.5042 10.3991 28.4179C10.4611 28.3316 10.6419 28.3586 10.8011 28.4745C10.9603 28.5904 11.0385 28.7549 10.9738 28.8411Z" fill="#C69355"/>
<path d="M10.7201 28.585C10.8415 28.674 10.9143 28.7926 10.9143 28.8816C10.9386 28.8735 10.9602 28.86 10.9737 28.8411C11.0358 28.7549 10.9602 28.5931 10.801 28.4745C10.6418 28.3586 10.4638 28.3316 10.399 28.4179C10.3855 28.4368 10.3774 28.461 10.3774 28.488C10.4638 28.461 10.5987 28.4961 10.7201 28.585Z" fill="#DDAB68"/>
<path d="M9.08949 27.4505C9.02744 27.5368 8.84667 27.5098 8.68749 27.3939C8.52831 27.278 8.45276 27.1136 8.51482 27.0273C8.57687 26.941 8.75764 26.968 8.91682 27.0839C9.076 27.1998 9.15425 27.3643 9.08949 27.4505Z" fill="#C69355"/>
<path d="M8.83581 27.1952C8.95722 27.2842 9.03007 27.4028 9.03007 27.4917C9.05435 27.4836 9.07594 27.4702 9.08943 27.4513C9.15148 27.365 9.07594 27.2033 8.91675 27.0847C8.75757 26.9661 8.5795 26.9418 8.51475 27.0281C8.50126 27.0469 8.49316 27.0712 8.49316 27.0982C8.5795 27.0712 8.7144 27.1062 8.83581 27.1952Z" fill="#DDAB68"/>
<path d="M9.16318 28.5508C9.10382 28.5777 9.23602 28.7853 9.56788 28.8716C9.86736 28.9498 10.2262 28.7314 10.2451 28.6613C10.264 28.5912 9.8134 28.8446 9.53011 28.7422C9.2738 28.6478 9.16318 28.5508 9.16318 28.5508Z" fill="#FFD69F"/>
</svg>
