<svg width="49" height="48" viewBox="0 0 49 48" fill="none" xmlns="http://www.w3.org/2000/svg">
<path opacity="0.4" d="M32.88 4H16.12C8.84 4 4.5 8.34 4.5 15.62V32.36C4.5 39.66 8.84 44 16.12 44H32.86C40.14 44 44.48 39.66 44.48 32.38V15.62C44.5 8.34 40.16 4 32.88 4Z" fill="#D0DDEC"/>
<path d="M43.1 24.46H36.14C34.18 24.46 32.44 25.54 31.56 27.3L29.88 30.62C29.48 31.42 28.68 31.92 27.8 31.92H21.24C20.62 31.92 19.74 31.78 19.16 30.62L17.48 27.32C16.6 25.58 14.84 24.48 12.9 24.48H5.9C5.12 24.48 4.5 25.1 4.5 25.88V32.4C4.5 39.66 8.86 44 16.14 44H32.9C39.76 44 43.98 40.24 44.5 33.56V25.86C44.5 25.1 43.88 24.46 43.1 24.46Z" fill="#AEC1DA"/>
<path d="M27.6 15.5998H21.4C20.62 15.5998 20 14.9798 20 14.1998C20 13.4198 20.62 12.7998 21.4 12.7998H27.6C28.38 12.7998 29 13.4198 29 14.1998C29 14.9798 28.36 15.5998 27.6 15.5998Z" fill="#D0DDEC"/>
<path d="M29.1575 21.1799H19.8375C19.0575 21.1799 18.4375 20.5599 18.4375 19.7799C18.4375 18.9999 19.0575 18.3799 19.8375 18.3799H29.1375C29.9175 18.3799 30.5375 18.9999 30.5375 19.7799C30.5375 20.5599 29.9175 21.1799 29.1575 21.1799Z" fill="#D0DDEC"/>
</svg>
