<svg width="248" height="192" viewBox="0 0 248 192" fill="none" xmlns="http://www.w3.org/2000/svg">
<path d="M124.002 97.5922C146.657 97.5922 165.023 90.3874 165.023 81.4999C165.023 72.6124 146.657 65.4077 124.002 65.4077C101.346 65.4077 82.9805 72.6124 82.9805 81.4999C82.9805 90.3874 101.346 97.5922 124.002 97.5922Z" fill="#F9FAFB"/>
<path d="M97.4112 71.3834C97.1668 70.9867 96.6468 70.8634 96.249 71.1078L95.5301 71.5512L95.0868 70.8323C94.8423 70.4356 94.3223 70.3123 93.9246 70.5567C93.5279 70.8012 93.4046 71.3212 93.649 71.7189L94.0923 72.4378L94.979 73.8756L96.4168 72.9889L97.1357 72.5456C97.5323 72.3 97.6557 71.7801 97.4112 71.3834Z" fill="#D0D5DD"/>
<path d="M99.1214 43.0566H95.9492L99.3603 41.5577L99.1214 43.0566Z" fill="#667185"/>
<path d="M99.1213 43.3067H95.9491C95.8313 43.3067 95.7291 43.2233 95.7046 43.1078C95.6802 42.9922 95.7402 42.8756 95.8491 42.8278L99.2602 41.33C99.3435 41.2933 99.4413 41.3056 99.5135 41.3611C99.5858 41.4167 99.6224 41.5078 99.608 41.5989L99.3691 43.0967C99.348 43.2167 99.2435 43.3067 99.1213 43.3067ZM97.1391 42.8067H98.9069L99.0402 41.9722L97.1391 42.8067Z" fill="#F9FAFB"/>
<path d="M141.773 24.5044L139.077 41.41L138.814 43.0566L138.488 45.0988L139.765 44.3533L141.451 46.6511L141.713 45.0044L144.409 28.0988L141.773 24.5044Z" fill="#E4E7EC"/>
<path d="M141.45 46.9011C141.372 46.9011 141.297 46.8644 141.249 46.7988L139.697 44.6822L138.615 45.3144C138.532 45.3633 138.427 45.36 138.347 45.3044C138.267 45.25 138.226 45.1544 138.242 45.0588L141.526 24.4644C141.542 24.3644 141.616 24.2844 141.714 24.2611C141.812 24.2377 141.915 24.2744 141.974 24.3566L144.61 27.9511C144.65 28.0044 144.666 28.0722 144.656 28.1388L141.697 46.6911C141.682 46.7911 141.607 46.8711 141.509 46.8944C141.489 46.8988 141.47 46.9011 141.45 46.9011ZM139.765 44.1033C139.843 44.1033 139.918 44.1388 139.967 44.2055L141.298 46.0211L144.146 28.1633L141.925 25.1355L138.818 44.6166L139.638 44.1366C139.678 44.1144 139.722 44.1033 139.765 44.1033Z" fill="#F9FAFB"/>
<path d="M95.9453 43.0566H99.1198L98.7931 45.1022L95.9453 43.0566Z" fill="#D0D5DD"/>
<path d="M98.7929 45.3522C98.7418 45.3522 98.6907 45.3366 98.6473 45.3055L95.7995 43.26C95.7118 43.1966 95.674 43.0833 95.7073 42.98C95.7407 42.8766 95.8362 42.8066 95.9451 42.8066H99.1184C99.1918 42.8066 99.2607 42.8389 99.3084 42.8944C99.3562 42.95 99.3762 43.0233 99.3651 43.0955L99.0384 45.1411C99.0251 45.2266 98.9673 45.2989 98.8873 45.3322C98.8584 45.3455 98.8251 45.3522 98.7929 45.3522ZM96.7218 43.3066L98.6095 44.6622L98.8262 43.3066H96.7218Z" fill="#F9FAFB"/>
<path d="M141.773 24.5044L139.077 41.41L138.814 43.0566L138.489 45.0988L121.382 55.0977H114.326L114.16 56.1422L98.793 45.1022L99.1196 43.0566L99.3585 41.5577L100.446 34.7322H110.869L112.472 24.6777L112.681 24.5044H141.773Z" fill="#F7F9FC"/>
<path d="M113.603 59.6455L111.516 72.73H91.2148L106.048 64.0611L113.603 59.6455Z" fill="#D0D5DD"/>
<path d="M111.516 72.73L114.153 76.3244H93.8515L91.2148 72.73H111.516Z" fill="#D0D5DD"/>
<path d="M114.647 76.5744H93.726L90.7227 72.48H111.644L114.647 76.5744ZM93.9793 76.0744H113.66L111.39 72.98H91.7093L93.9793 76.0744Z" fill="#F9FAFB"/>
<path d="M141.988 43.0566L144.624 46.6511L142.703 58.6922L140.066 55.0978L141.988 43.0566Z" fill="#D0D5DD"/>
<path d="M142.703 58.9422C142.624 58.9422 142.549 58.9055 142.502 58.84L139.865 55.2455C139.825 55.1922 139.809 55.1244 139.819 55.0578L141.739 43.0166C141.755 42.9166 141.829 42.8366 141.927 42.8133C142.025 42.79 142.128 42.8266 142.187 42.9089L144.824 46.5033C144.864 46.5566 144.879 46.6244 144.869 46.6911L142.949 58.7322C142.934 58.8322 142.859 58.9122 142.762 58.9355C142.743 58.94 142.723 58.9422 142.703 58.9422ZM140.329 55.0344L142.55 58.0622L144.36 46.7155L142.139 43.6878L140.329 55.0344Z" fill="#F9FAFB"/>
<path d="M153.118 55.0978L155.754 58.6922L151.879 82.99L149.242 79.3956L153.118 55.0978Z" fill="#D0D5DD"/>
<path d="M151.878 83.24C151.8 83.24 151.725 83.2033 151.677 83.1378L149.041 79.5433C149.001 79.49 148.985 79.4222 148.995 79.3556L152.871 55.0578C152.886 54.9578 152.961 54.8778 153.058 54.8545C153.156 54.8311 153.26 54.8678 153.318 54.95L155.955 58.5445C155.995 58.5978 156.011 58.6656 156.001 58.7322L152.125 83.03C152.11 83.13 152.035 83.21 151.937 83.2333C151.918 83.2378 151.898 83.24 151.878 83.24ZM149.505 79.3322L151.726 82.36L155.491 58.7567L153.27 55.7289L149.505 79.3322Z" fill="#F9FAFB"/>
<path d="M141.901 79.3955L141.75 80.3422L140.758 86.5622L143.394 90.1577L144.387 83.9366L144.538 82.9899L141.901 79.3955Z" fill="#D0D5DD"/>
<path d="M143.394 90.4077C143.315 90.4077 143.241 90.3711 143.193 90.3055L140.556 86.71C140.516 86.6566 140.501 86.5888 140.511 86.5222L141.654 79.3555C141.67 79.2555 141.744 79.1755 141.842 79.1522C141.94 79.1288 142.043 79.1655 142.102 79.2477L144.739 82.8422C144.779 82.8955 144.794 82.9633 144.784 83.03L143.641 90.1966C143.625 90.2966 143.551 90.3766 143.453 90.4C143.433 90.4055 143.414 90.4077 143.394 90.4077ZM141.021 86.4988L143.242 89.5266L144.274 83.0544L142.053 80.0266L141.021 86.4988Z" fill="#F9FAFB"/>
<path d="M134.469 79.3955L135.3 80.3422L140.755 86.5622L141.748 80.3422L141.899 79.3955H134.469Z" fill="#D0D5DD"/>
<path d="M140.755 86.8122C140.684 86.8122 140.615 86.7822 140.567 86.7266L134.281 79.5599C134.216 79.4866 134.201 79.3811 134.241 79.2922C134.281 79.2033 134.371 79.1455 134.468 79.1455H141.897C141.971 79.1455 142.04 79.1777 142.087 79.2333C142.135 79.2888 142.155 79.3622 142.144 79.4344L141.001 86.6011C140.985 86.6966 140.916 86.7755 140.823 86.8022C140.802 86.8099 140.778 86.8122 140.755 86.8122ZM135.021 79.6455L140.592 85.9977L141.605 79.6455H135.021Z" fill="#F9FAFB"/>
<path d="M95.9471 43.0566L98.7948 45.1022L114.162 56.1422L113.603 59.6455L106.048 64.0611L91.2148 72.73L95.9471 43.0566Z" fill="#98A2B3"/>
<path d="M91.2148 72.9799C91.1659 72.9799 91.1159 72.9655 91.0736 72.9366C90.9936 72.8822 90.9525 72.7866 90.9681 72.6911L95.7003 43.0177C95.7136 42.9322 95.7714 42.8599 95.8514 42.8266C95.9314 42.7933 96.0225 42.8033 96.0936 42.8544L114.308 55.9399C114.385 55.9955 114.424 56.0888 114.409 56.1822L113.85 59.6855C113.838 59.7599 113.795 59.8244 113.729 59.8622L91.3414 72.9455C91.3014 72.9688 91.2581 72.9799 91.2148 72.9799ZM96.1303 43.4955L91.5448 72.2477L113.375 59.4888L113.89 56.2544L96.1303 43.4955Z" fill="#F9FAFB"/>
<path d="M141.985 43.0566L140.064 55.0978H121.383L141.985 43.0566Z" fill="#98A2B3"/>
<path d="M140.064 55.3478H121.383C121.269 55.3478 121.171 55.2722 121.142 55.1633C121.112 55.0544 121.159 54.9389 121.257 54.8822L141.859 42.8411C141.943 42.7922 142.047 42.7955 142.127 42.8511C142.207 42.9066 142.248 43.0011 142.233 43.0966L140.311 55.1366C140.292 55.2589 140.187 55.3478 140.064 55.3478ZM122.306 54.8478H139.851L141.654 43.5389L122.306 54.8478Z" fill="#F9FAFB"/>
<path d="M140.065 55.0978H153.118L149.242 79.3956H141.901H134.472H110.453L111.516 72.73L113.603 59.6456L114.162 56.1422L114.329 55.0978H121.384H140.065ZM142.792 69.2611C143.146 69.2611 143.476 68.9856 143.531 68.6456C143.585 68.3044 143.343 68.0278 142.989 68.0278H120.015C119.663 68.0278 119.332 68.3044 119.278 68.6456C119.223 68.9856 119.465 69.2611 119.818 69.2611H142.792ZM143.67 63.7544C144.024 63.7544 144.354 63.4778 144.409 63.1367C144.463 62.7967 144.221 62.5211 143.866 62.5211H120.894C120.542 62.5211 120.211 62.7978 120.158 63.1367C120.103 63.4778 120.345 63.7544 120.698 63.7544H143.67ZM141.913 74.7678C142.268 74.7678 142.598 74.4922 142.652 74.15C142.706 73.81 142.464 73.5333 142.11 73.5333H128.76C128.405 73.5333 128.075 73.81 128.021 74.15C127.966 74.4911 128.209 74.7678 128.563 74.7678H141.913Z" fill="#D0D5DD"/>
<path d="M149.242 79.6456H110.453C110.379 79.6456 110.311 79.6133 110.263 79.5578C110.215 79.5022 110.195 79.4289 110.206 79.3567L114.082 55.0589C114.101 54.9378 114.206 54.8478 114.328 54.8478H153.117C153.191 54.8478 153.259 54.88 153.307 54.9356C153.355 54.9911 153.375 55.0644 153.364 55.1367L149.488 79.4344C149.469 79.5567 149.365 79.6456 149.242 79.6456ZM110.746 79.1456H149.028L152.824 55.3478H114.542L110.746 79.1456ZM141.913 75.0178H128.562C128.317 75.0178 128.092 74.9178 127.943 74.7444C127.796 74.5722 127.735 74.3467 127.773 74.1111C127.847 73.6478 128.279 73.2844 128.758 73.2844H142.109C142.354 73.2844 142.579 73.3844 142.728 73.5578C142.875 73.73 142.936 73.9544 142.898 74.1889C142.825 74.6544 142.392 75.0178 141.913 75.0178ZM128.759 73.7844C128.528 73.7844 128.303 73.97 128.268 74.19C128.254 74.28 128.274 74.36 128.325 74.42C128.379 74.4833 128.464 74.5178 128.563 74.5178H141.914C142.145 74.5178 142.371 74.3311 142.406 74.1111C142.421 74.0222 142.401 73.9422 142.349 73.8822C142.295 73.8189 142.211 73.7833 142.111 73.7833H128.759V73.7844ZM142.792 69.5111H119.818C119.574 69.5111 119.349 69.4111 119.201 69.2378C119.054 69.0656 118.993 68.8411 119.031 68.6056C119.105 68.1411 119.537 67.7778 120.015 67.7778H142.988C143.233 67.7778 143.458 67.8778 143.607 68.0511C143.754 68.2233 143.815 68.4489 143.777 68.6844C143.703 69.1478 143.271 69.5111 142.792 69.5111ZM120.015 68.2778C119.784 68.2778 119.559 68.4644 119.525 68.6844C119.511 68.7722 119.531 68.8544 119.582 68.9133C119.636 68.9767 119.719 69.0111 119.818 69.0111H142.792C143.023 69.0111 143.248 68.8256 143.283 68.6056C143.297 68.5156 143.277 68.4356 143.226 68.3756C143.172 68.3122 143.087 68.2778 142.987 68.2778H120.015ZM143.669 64.0044H120.696C120.452 64.0044 120.227 63.9044 120.079 63.7311C119.932 63.5589 119.872 63.3333 119.909 63.0978C119.984 62.6344 120.415 62.2711 120.894 62.2711H143.867C144.112 62.2711 144.338 62.3711 144.486 62.5444C144.633 62.7167 144.694 62.9411 144.656 63.1756C144.582 63.6411 144.148 64.0044 143.669 64.0044ZM120.894 62.7711C120.663 62.7711 120.438 62.9567 120.404 63.1767C120.389 63.2656 120.409 63.3478 120.461 63.4067C120.514 63.47 120.598 63.5044 120.697 63.5044H143.671C143.902 63.5044 144.127 63.3178 144.163 63.0978C144.177 63.0089 144.157 62.9289 144.106 62.87C144.052 62.8067 143.967 62.7711 143.867 62.7711H120.894Z" fill="#F9FAFB"/>
<path d="M143.862 62.521C144.217 62.521 144.459 62.7977 144.404 63.1365C144.35 63.4777 144.02 63.7543 143.666 63.7543H120.692C120.34 63.7543 120.098 63.4777 120.152 63.1365C120.207 62.7965 120.537 62.521 120.889 62.521H143.862Z" fill="#98A2B3"/>
<path d="M143.667 64.0099H120.694C120.448 64.0099 120.222 63.9099 120.073 63.7344C119.925 63.5611 119.864 63.3344 119.902 63.0966C119.976 62.6311 120.41 62.2655 120.89 62.2655H143.864C144.11 62.2655 144.337 62.3655 144.487 62.5411C144.635 62.7144 144.696 62.9399 144.658 63.1766C144.584 63.6444 144.148 64.0099 143.667 64.0099ZM120.892 62.7766C120.664 62.7766 120.442 62.9599 120.406 63.1777C120.392 63.2666 120.412 63.3444 120.462 63.4033C120.515 63.4655 120.597 63.4988 120.695 63.4988H143.668C143.897 63.4988 144.12 63.3144 144.155 63.0966C144.169 63.0088 144.149 62.9311 144.099 62.8722C144.046 62.8099 143.963 62.7755 143.865 62.7755H120.892V62.7766Z" fill="#98A2B3"/>
<path d="M142.987 68.0277C143.342 68.0277 143.584 68.3044 143.529 68.6455C143.475 68.9855 143.145 69.261 142.791 69.261H119.817C119.465 69.261 119.223 68.9844 119.277 68.6455C119.332 68.3044 119.662 68.0277 120.015 68.0277H142.987Z" fill="#98A2B3"/>
<path d="M142.792 69.5155H119.819C119.573 69.5155 119.347 69.4155 119.198 69.24C119.05 69.0667 118.989 68.84 119.027 68.6044C119.101 68.1378 119.535 67.7722 120.015 67.7722H142.989C143.235 67.7722 143.462 67.8722 143.611 68.0478C143.759 68.2211 143.82 68.4478 143.782 68.6855C143.708 69.1511 143.273 69.5155 142.792 69.5155ZM120.015 68.2822C119.788 68.2822 119.565 68.4667 119.53 68.6844C119.515 68.7722 119.535 68.85 119.585 68.9089C119.639 68.9711 119.721 69.0055 119.819 69.0055H142.792C143.021 69.0055 143.244 68.8222 143.279 68.6044C143.293 68.5155 143.273 68.4378 143.223 68.3789C143.17 68.3167 143.087 68.2822 142.989 68.2822H120.015Z" fill="#98A2B3"/>
<path d="M142.109 73.5345C142.464 73.5345 142.706 73.8112 142.652 74.1501C142.597 74.4912 142.267 74.7679 141.913 74.7679H128.562C128.207 74.7679 127.965 74.4912 128.019 74.1501C128.074 73.8101 128.404 73.5345 128.758 73.5345H142.109Z" fill="#98A2B3"/>
<path d="M141.913 75.0234H128.562C128.315 75.0234 128.089 74.9234 127.94 74.7478C127.792 74.5745 127.731 74.3478 127.769 74.11C127.843 73.6445 128.278 73.2789 128.759 73.2789H142.11C142.356 73.2789 142.583 73.3789 142.733 73.5545C142.881 73.7278 142.942 73.9534 142.904 74.19C142.83 74.6578 142.394 75.0234 141.913 75.0234ZM128.76 73.79C128.531 73.79 128.308 73.9734 128.273 74.1911C128.259 74.28 128.279 74.3578 128.329 74.4167C128.382 74.4789 128.465 74.5134 128.563 74.5134H141.914C142.143 74.5134 142.366 74.3289 142.401 74.1112C142.415 74.0234 142.395 73.9456 142.345 73.8867C142.292 73.8245 142.209 73.79 142.111 73.79H128.76Z" fill="#98A2B3"/>
<path d="M134.471 79.3955L137.108 82.99H113.09L110.453 79.3955H134.471Z" fill="#D0D5DD"/>
<path d="M137.107 83.2399H113.089C113.009 83.2399 112.935 83.2022 112.888 83.1377L110.252 79.5433C110.196 79.4677 110.187 79.3666 110.231 79.2822C110.274 79.1977 110.359 79.1455 110.454 79.1455H134.472C134.552 79.1455 134.626 79.1833 134.673 79.2477L137.309 82.8422C137.365 82.9177 137.374 83.0188 137.33 83.1033C137.287 83.1877 137.202 83.2399 137.107 83.2399ZM113.216 82.7399H136.614L134.344 79.6455H110.947L113.216 82.7399Z" fill="#F9FAFB"/>
<path d="M140.759 86.5622L135.304 80.3422L134.473 79.3955L137.109 82.9899L137.939 83.9366L143.396 90.1577L140.759 86.5622Z" fill="#D0D5DD"/>
<path d="M143.395 90.4077C143.325 90.4077 143.256 90.3788 143.207 90.3222L136.921 83.1555C136.916 83.15 136.912 83.1444 136.907 83.1388L134.271 79.5444C134.192 79.4366 134.212 79.2855 134.316 79.2011C134.421 79.1177 134.573 79.1311 134.661 79.2311L140.947 86.3977C140.952 86.4033 140.956 86.4088 140.961 86.4144L143.597 90.0088C143.676 90.1166 143.656 90.2677 143.552 90.3522C143.505 90.3888 143.451 90.4077 143.395 90.4077Z" fill="#F9FAFB"/>
<path d="M149.243 79.3955L151.88 82.99H144.539L141.902 79.3955H149.243Z" fill="#D0D5DD"/>
<path d="M151.88 83.2399H144.539C144.459 83.2399 144.384 83.2022 144.338 83.1377L141.701 79.5433C141.645 79.4677 141.636 79.3666 141.68 79.2822C141.723 79.1977 141.809 79.1455 141.903 79.1455H149.244C149.324 79.1455 149.399 79.1833 149.445 79.2477L152.082 82.8422C152.137 82.9177 152.146 83.0188 152.103 83.1033C152.06 83.1877 151.974 83.2399 151.88 83.2399ZM144.665 82.7399H151.386L149.116 79.6455H142.395L144.665 82.7399Z" fill="#F9FAFB"/>
<path d="M114.159 56.3923C114.108 56.3923 114.057 56.3767 114.014 56.3456L98.6471 45.3056C98.5704 45.2501 98.5315 45.1567 98.5459 45.0634L100.199 34.6945C100.209 34.6345 100.239 34.5812 100.286 34.5423L112.311 24.4878L112.521 24.3134C112.566 24.2756 112.623 24.2556 112.681 24.2556H141.774C141.847 24.2556 141.916 24.2878 141.964 24.3434C142.012 24.3989 142.032 24.4723 142.02 24.5445L138.736 45.1389C138.724 45.2134 138.68 45.2778 138.615 45.3156L121.508 55.3145C121.47 55.3367 121.426 55.3489 121.382 55.3489H114.539L114.406 56.1823C114.393 56.2678 114.335 56.3401 114.255 56.3734C114.225 56.3856 114.193 56.3923 114.159 56.3923ZM99.0637 44.9889L113.976 55.7034L114.078 55.0589C114.097 54.9378 114.203 54.8478 114.325 54.8478H121.313L138.259 44.9423L141.479 24.7534H112.771L112.632 24.8689L100.678 34.8623L99.0637 44.9889Z" fill="#F9FAFB"/>
<path d="M112.475 24.6777L110.871 34.7322H100.449L112.475 24.6777Z" fill="#D0D5DD"/>
<path d="M110.871 34.9822H100.448C100.343 34.9822 100.25 34.9167 100.214 34.8178C100.178 34.7189 100.208 34.6078 100.288 34.5411L112.314 24.4867C112.394 24.42 112.507 24.41 112.597 24.4611C112.688 24.5122 112.737 24.6144 112.721 24.7178L111.117 34.7722C111.098 34.8933 110.994 34.9822 110.871 34.9822ZM101.137 34.4822H110.657L112.122 25.2978L101.137 34.4822Z" fill="#F9FAFB"/>
<path d="M141.928 20.1422C146.146 20.1422 149.038 23.4389 148.389 27.5067C147.741 31.5744 143.796 34.8711 139.579 34.8711C135.362 34.8711 132.469 31.5744 133.118 27.5067C133.767 23.4389 137.711 20.1422 141.928 20.1422ZM142.337 23.0922C142.454 22.6044 142.107 22.1822 141.608 22.1822C141.586 22.1822 141.565 22.1833 141.543 22.1844C141.052 22.2167 140.621 22.6233 140.578 23.0922L139.931 30.4655C139.915 30.6322 140.032 30.7689 140.207 30.7811C140.215 30.7811 140.223 30.7822 140.232 30.7822C140.416 30.7822 140.593 30.6444 140.635 30.4655L142.337 23.0922ZM139.905 32.8311C140.355 32.8311 140.776 32.48 140.845 32.0455C140.914 31.6111 140.606 31.26 140.156 31.26C139.706 31.26 139.285 31.6111 139.216 32.0455C139.146 32.4789 139.455 32.8311 139.905 32.8311Z" fill="#98A2B3"/>
<path d="M139.581 35.1211C137.433 35.1211 135.551 34.3022 134.281 32.8144C133.052 31.3744 132.552 29.4755 132.872 27.4678C133.538 23.2911 137.601 19.8922 141.929 19.8922C144.077 19.8922 145.959 20.7111 147.229 22.1989C148.458 23.6389 148.958 25.5378 148.638 27.5455C147.972 31.7233 143.908 35.1211 139.581 35.1211ZM141.929 20.3922C137.836 20.3922 133.995 23.6011 133.366 27.5467C133.069 29.4078 133.529 31.1633 134.662 32.49C135.834 33.8644 137.582 34.6211 139.581 34.6211C143.674 34.6211 147.515 31.4122 148.144 27.4667C148.441 25.6055 147.981 23.85 146.848 22.5233C145.676 21.1489 143.928 20.3922 141.929 20.3922ZM139.906 33.0811C139.615 33.0811 139.346 32.9633 139.171 32.7567C138.996 32.5522 138.925 32.2855 138.969 32.0055C139.054 31.4722 139.533 31.05 140.077 31.0122C139.971 30.9833 139.877 30.9255 139.806 30.8422C139.713 30.7322 139.668 30.5911 139.683 30.4433L140.331 23.0711C140.384 22.4755 140.909 21.9778 141.527 21.9367C141.554 21.9344 141.582 21.9333 141.609 21.9333C141.928 21.9333 142.219 22.0689 142.406 22.3067C142.591 22.54 142.654 22.8467 142.582 23.15L140.878 30.5222C140.817 30.78 140.593 30.9811 140.333 31.0244C140.554 31.0622 140.752 31.17 140.891 31.3344C141.065 31.5389 141.136 31.8055 141.092 32.0855C141.004 32.6433 140.482 33.0811 139.906 33.0811ZM140.156 31.5089C139.831 31.5089 139.513 31.7722 139.463 32.0844C139.442 32.2178 139.473 32.3411 139.551 32.4322C139.633 32.5278 139.758 32.5811 139.906 32.5811C140.232 32.5811 140.549 32.3178 140.599 32.0055C140.621 31.8722 140.589 31.7489 140.512 31.6578C140.429 31.5622 140.304 31.5089 140.156 31.5089ZM141.609 22.4322C141.594 22.4322 141.578 22.4333 141.562 22.4344C141.194 22.4589 140.859 22.77 140.828 23.1144L140.181 30.4878C140.179 30.5011 140.182 30.5111 140.187 30.5178C140.194 30.5255 140.208 30.5311 140.225 30.5322C140.301 30.5322 140.376 30.4733 140.392 30.4089L142.095 23.0367C142.095 23.0355 142.095 23.0355 142.095 23.0344C142.133 22.8789 142.103 22.73 142.013 22.6155C141.922 22.4989 141.775 22.4322 141.609 22.4322Z" fill="#F9FAFB"/>
<path d="M140.157 31.2589C140.607 31.2589 140.916 31.61 140.846 32.0445C140.776 32.4789 140.356 32.83 139.906 32.83C139.456 32.83 139.147 32.4789 139.217 32.0445C139.287 31.61 139.707 31.2589 140.157 31.2589Z" fill="#F9FAFB"/>
<path d="M139.907 32.8867C139.669 32.8867 139.461 32.7956 139.319 32.63C139.183 32.47 139.127 32.2589 139.163 32.0367C139.236 31.5778 139.683 31.2045 140.157 31.2045C140.395 31.2045 140.604 31.2956 140.745 31.4611C140.882 31.6211 140.937 31.8322 140.902 32.0545C140.828 32.5122 140.383 32.8867 139.907 32.8867ZM140.157 31.3145C139.734 31.3145 139.337 31.6456 139.272 32.0534C139.242 32.2434 139.288 32.4222 139.403 32.5578C139.523 32.6978 139.701 32.7756 139.906 32.7756C140.329 32.7756 140.726 32.4445 140.792 32.0367C140.822 31.8467 140.775 31.6678 140.661 31.5322C140.541 31.3922 140.363 31.3145 140.157 31.3145Z" fill="#F9FAFB"/>
<path d="M141.61 22.1823C142.109 22.1823 142.456 22.6034 142.339 23.0923L140.636 30.4656C140.593 30.6445 140.417 30.7823 140.232 30.7823C140.224 30.7823 140.217 30.7823 140.208 30.7811C140.032 30.7689 139.916 30.6323 139.931 30.4656L140.579 23.0923C140.621 22.6234 141.052 22.2178 141.543 22.1845C141.567 22.1834 141.588 22.1823 141.61 22.1823Z" fill="#F9FAFB"/>
<path d="M140.232 30.8378C140.223 30.8378 140.213 30.8378 140.204 30.8367C140.103 30.83 140.014 30.7867 139.954 30.7156C139.896 30.6467 139.868 30.5556 139.877 30.46L140.524 23.0867C140.569 22.5933 141.024 22.1633 141.54 22.1289C141.826 22.1078 142.09 22.2189 142.253 22.4256C142.4 22.6122 142.451 22.8589 142.392 23.1044L140.689 30.4778C140.642 30.6833 140.446 30.8378 140.232 30.8378ZM141.61 22.2378C141.59 22.2378 141.569 22.2389 141.548 22.24C141.083 22.2711 140.674 22.6556 140.636 23.0967L139.988 30.47C139.982 30.5356 140 30.5967 140.04 30.6433C140.081 30.6911 140.142 30.7211 140.213 30.7256C140.22 30.7256 140.227 30.7267 140.233 30.7267C140.393 30.7267 140.547 30.6067 140.582 30.4533L142.286 23.08C142.337 22.8644 142.296 22.6567 142.168 22.4956C142.038 22.3322 141.834 22.2378 141.61 22.2378Z" fill="#F9FAFB"/>
<path d="M58.9521 121.203V134H56.7461L51.0068 124.833V134H48.8008V121.203H51.0068L56.7637 130.388V121.203H58.9521ZM60.9648 129.351V129.148C60.9648 128.463 61.0645 127.827 61.2637 127.241C61.4629 126.649 61.75 126.137 62.125 125.703C62.5059 125.264 62.9688 124.924 63.5137 124.684C64.0645 124.438 64.6855 124.314 65.377 124.314C66.0742 124.314 66.6953 124.438 67.2402 124.684C67.791 124.924 68.2568 125.264 68.6377 125.703C69.0186 126.137 69.3086 126.649 69.5078 127.241C69.707 127.827 69.8066 128.463 69.8066 129.148V129.351C69.8066 130.036 69.707 130.672 69.5078 131.258C69.3086 131.844 69.0186 132.356 68.6377 132.796C68.2568 133.229 67.7939 133.569 67.249 133.815C66.7041 134.056 66.0859 134.176 65.3945 134.176C64.6973 134.176 64.0732 134.056 63.5225 133.815C62.9775 133.569 62.5146 133.229 62.1338 132.796C61.7529 132.356 61.4629 131.844 61.2637 131.258C61.0645 130.672 60.9648 130.036 60.9648 129.351ZM63.083 129.148V129.351C63.083 129.778 63.127 130.183 63.2148 130.563C63.3027 130.944 63.4404 131.278 63.6279 131.565C63.8154 131.853 64.0557 132.078 64.3486 132.242C64.6416 132.406 64.9902 132.488 65.3945 132.488C65.7871 132.488 66.127 132.406 66.4141 132.242C66.707 132.078 66.9473 131.853 67.1348 131.565C67.3223 131.278 67.46 130.944 67.5479 130.563C67.6416 130.183 67.6885 129.778 67.6885 129.351V129.148C67.6885 128.727 67.6416 128.328 67.5479 127.953C67.46 127.572 67.3193 127.235 67.126 126.942C66.9385 126.649 66.6982 126.421 66.4053 126.257C66.1182 126.087 65.7754 126.002 65.377 126.002C64.9785 126.002 64.6328 126.087 64.3398 126.257C64.0527 126.421 63.8154 126.649 63.6279 126.942C63.4404 127.235 63.3027 127.572 63.2148 127.953C63.127 128.328 63.083 128.727 63.083 129.148ZM77.1719 121.203H79.1406L82.8408 131.073L86.5322 121.203H88.501L83.6143 134H82.0498L77.1719 121.203ZM76.2754 121.203H78.1475L78.4727 129.746V134H76.2754V121.203ZM87.5254 121.203H89.4062V134H87.2002V129.746L87.5254 121.203ZM96.0068 134.176C95.3037 134.176 94.668 134.062 94.0996 133.833C93.5371 133.599 93.0566 133.273 92.6582 132.857C92.2656 132.441 91.9639 131.952 91.7529 131.39C91.542 130.827 91.4365 130.221 91.4365 129.57V129.219C91.4365 128.475 91.5449 127.801 91.7617 127.197C91.9785 126.594 92.2803 126.078 92.667 125.65C93.0537 125.217 93.5107 124.886 94.0381 124.657C94.5654 124.429 95.1367 124.314 95.752 124.314C96.4316 124.314 97.0264 124.429 97.5361 124.657C98.0459 124.886 98.4678 125.208 98.8018 125.624C99.1416 126.034 99.3936 126.523 99.5576 127.092C99.7275 127.66 99.8125 128.287 99.8125 128.973V129.878H92.4648V128.357H97.7207V128.19C97.709 127.81 97.6328 127.452 97.4922 127.118C97.3574 126.784 97.1494 126.515 96.8682 126.31C96.5869 126.104 96.2119 126.002 95.7432 126.002C95.3916 126.002 95.0781 126.078 94.8027 126.23C94.5332 126.377 94.3076 126.591 94.126 126.872C93.9443 127.153 93.8037 127.493 93.7041 127.892C93.6104 128.284 93.5635 128.727 93.5635 129.219V129.57C93.5635 129.986 93.6191 130.373 93.7305 130.73C93.8477 131.082 94.0176 131.39 94.2402 131.653C94.4629 131.917 94.7324 132.125 95.0488 132.277C95.3652 132.424 95.7256 132.497 96.1299 132.497C96.6396 132.497 97.0938 132.395 97.4922 132.189C97.8906 131.984 98.2363 131.694 98.5293 131.319L99.6455 132.4C99.4404 132.699 99.1738 132.986 98.8457 133.262C98.5176 133.531 98.1162 133.751 97.6416 133.921C97.1729 134.091 96.6279 134.176 96.0068 134.176ZM106.8 131.425C106.8 131.214 106.747 131.023 106.642 130.854C106.536 130.678 106.334 130.52 106.035 130.379C105.742 130.238 105.309 130.109 104.734 129.992C104.23 129.881 103.768 129.749 103.346 129.597C102.93 129.438 102.572 129.248 102.273 129.025C101.975 128.803 101.743 128.539 101.579 128.234C101.415 127.93 101.333 127.578 101.333 127.18C101.333 126.793 101.418 126.427 101.588 126.081C101.758 125.735 102.001 125.431 102.317 125.167C102.634 124.903 103.018 124.695 103.469 124.543C103.926 124.391 104.436 124.314 104.998 124.314C105.795 124.314 106.478 124.449 107.046 124.719C107.62 124.982 108.06 125.343 108.364 125.8C108.669 126.251 108.821 126.761 108.821 127.329H106.703C106.703 127.077 106.639 126.843 106.51 126.626C106.387 126.403 106.199 126.225 105.947 126.09C105.695 125.949 105.379 125.879 104.998 125.879C104.635 125.879 104.333 125.938 104.093 126.055C103.858 126.166 103.683 126.312 103.565 126.494C103.454 126.676 103.398 126.875 103.398 127.092C103.398 127.25 103.428 127.394 103.486 127.522C103.551 127.646 103.656 127.76 103.803 127.865C103.949 127.965 104.148 128.059 104.4 128.146C104.658 128.234 104.98 128.319 105.367 128.401C106.094 128.554 106.718 128.75 107.239 128.99C107.767 129.225 108.171 129.529 108.452 129.904C108.733 130.273 108.874 130.742 108.874 131.311C108.874 131.732 108.783 132.119 108.602 132.471C108.426 132.816 108.168 133.118 107.828 133.376C107.488 133.628 107.081 133.824 106.606 133.965C106.138 134.105 105.61 134.176 105.024 134.176C104.163 134.176 103.434 134.023 102.836 133.719C102.238 133.408 101.784 133.013 101.474 132.532C101.169 132.046 101.017 131.542 101.017 131.021H103.064C103.088 131.413 103.196 131.727 103.39 131.961C103.589 132.189 103.835 132.356 104.128 132.462C104.427 132.562 104.734 132.611 105.051 132.611C105.432 132.611 105.751 132.562 106.009 132.462C106.267 132.356 106.463 132.216 106.598 132.04C106.732 131.858 106.8 131.653 106.8 131.425ZM116.063 131.425C116.063 131.214 116.011 131.023 115.905 130.854C115.8 130.678 115.598 130.52 115.299 130.379C115.006 130.238 114.572 130.109 113.998 129.992C113.494 129.881 113.031 129.749 112.609 129.597C112.193 129.438 111.836 129.248 111.537 129.025C111.238 128.803 111.007 128.539 110.843 128.234C110.679 127.93 110.597 127.578 110.597 127.18C110.597 126.793 110.682 126.427 110.852 126.081C111.021 125.735 111.265 125.431 111.581 125.167C111.897 124.903 112.281 124.695 112.732 124.543C113.189 124.391 113.699 124.314 114.262 124.314C115.059 124.314 115.741 124.449 116.31 124.719C116.884 124.982 117.323 125.343 117.628 125.8C117.933 126.251 118.085 126.761 118.085 127.329H115.967C115.967 127.077 115.902 126.843 115.773 126.626C115.65 126.403 115.463 126.225 115.211 126.09C114.959 125.949 114.643 125.879 114.262 125.879C113.898 125.879 113.597 125.938 113.356 126.055C113.122 126.166 112.946 126.312 112.829 126.494C112.718 126.676 112.662 126.875 112.662 127.092C112.662 127.25 112.691 127.394 112.75 127.522C112.814 127.646 112.92 127.76 113.066 127.865C113.213 127.965 113.412 128.059 113.664 128.146C113.922 128.234 114.244 128.319 114.631 128.401C115.357 128.554 115.981 128.75 116.503 128.99C117.03 129.225 117.435 129.529 117.716 129.904C117.997 130.273 118.138 130.742 118.138 131.311C118.138 131.732 118.047 132.119 117.865 132.471C117.689 132.816 117.432 133.118 117.092 133.376C116.752 133.628 116.345 133.824 115.87 133.965C115.401 134.105 114.874 134.176 114.288 134.176C113.427 134.176 112.697 134.023 112.1 133.719C111.502 133.408 111.048 133.013 110.737 132.532C110.433 132.046 110.28 131.542 110.28 131.021H112.328C112.352 131.413 112.46 131.727 112.653 131.961C112.853 132.189 113.099 132.356 113.392 132.462C113.69 132.562 113.998 132.611 114.314 132.611C114.695 132.611 115.015 132.562 115.272 132.462C115.53 132.356 115.727 132.216 115.861 132.04C115.996 131.858 116.063 131.653 116.063 131.425ZM125.354 132.093V127.558C125.354 127.218 125.292 126.925 125.169 126.679C125.046 126.433 124.858 126.242 124.606 126.107C124.36 125.973 124.05 125.905 123.675 125.905C123.329 125.905 123.03 125.964 122.778 126.081C122.526 126.198 122.33 126.356 122.189 126.556C122.049 126.755 121.979 126.98 121.979 127.232H119.869C119.869 126.857 119.96 126.494 120.142 126.143C120.323 125.791 120.587 125.478 120.933 125.202C121.278 124.927 121.691 124.71 122.172 124.552C122.652 124.394 123.191 124.314 123.789 124.314C124.504 124.314 125.137 124.435 125.688 124.675C126.244 124.915 126.681 125.278 126.997 125.765C127.319 126.245 127.48 126.849 127.48 127.575V131.803C127.48 132.236 127.51 132.626 127.568 132.972C127.633 133.312 127.724 133.607 127.841 133.859V134H125.67C125.57 133.771 125.491 133.481 125.433 133.13C125.38 132.772 125.354 132.427 125.354 132.093ZM125.661 128.217L125.679 129.526H124.158C123.766 129.526 123.42 129.564 123.121 129.641C122.822 129.711 122.573 129.816 122.374 129.957C122.175 130.098 122.025 130.268 121.926 130.467C121.826 130.666 121.776 130.892 121.776 131.144C121.776 131.396 121.835 131.627 121.952 131.838C122.069 132.043 122.239 132.204 122.462 132.321C122.69 132.438 122.966 132.497 123.288 132.497C123.722 132.497 124.1 132.409 124.422 132.233C124.75 132.052 125.008 131.832 125.195 131.574C125.383 131.311 125.482 131.062 125.494 130.827L126.18 131.768C126.109 132.008 125.989 132.266 125.819 132.541C125.649 132.816 125.427 133.08 125.151 133.332C124.882 133.578 124.557 133.78 124.176 133.938C123.801 134.097 123.367 134.176 122.875 134.176C122.254 134.176 121.7 134.053 121.214 133.807C120.728 133.555 120.347 133.218 120.071 132.796C119.796 132.368 119.658 131.885 119.658 131.346C119.658 130.842 119.752 130.396 119.939 130.01C120.133 129.617 120.414 129.289 120.783 129.025C121.158 128.762 121.615 128.562 122.154 128.428C122.693 128.287 123.309 128.217 124 128.217H125.661ZM135.786 124.49H137.711V133.736C137.711 134.592 137.529 135.318 137.166 135.916C136.803 136.514 136.296 136.968 135.646 137.278C134.995 137.595 134.242 137.753 133.387 137.753C133.023 137.753 132.619 137.7 132.174 137.595C131.734 137.489 131.307 137.319 130.891 137.085C130.48 136.856 130.138 136.555 129.862 136.18L130.855 134.932C131.195 135.336 131.57 135.632 131.98 135.819C132.391 136.007 132.821 136.101 133.272 136.101C133.759 136.101 134.172 136.01 134.512 135.828C134.857 135.652 135.124 135.392 135.312 135.046C135.499 134.7 135.593 134.278 135.593 133.78V126.644L135.786 124.49ZM129.326 129.351V129.166C129.326 128.445 129.414 127.789 129.59 127.197C129.766 126.6 130.018 126.087 130.346 125.659C130.674 125.226 131.072 124.895 131.541 124.666C132.01 124.432 132.54 124.314 133.132 124.314C133.747 124.314 134.271 124.426 134.705 124.648C135.145 124.871 135.511 125.19 135.804 125.606C136.097 126.017 136.325 126.509 136.489 127.083C136.659 127.651 136.785 128.284 136.867 128.981V129.57C136.791 130.25 136.662 130.871 136.48 131.434C136.299 131.996 136.059 132.482 135.76 132.893C135.461 133.303 135.092 133.619 134.652 133.842C134.219 134.064 133.706 134.176 133.114 134.176C132.534 134.176 132.01 134.056 131.541 133.815C131.078 133.575 130.68 133.238 130.346 132.805C130.018 132.371 129.766 131.861 129.59 131.275C129.414 130.684 129.326 130.042 129.326 129.351ZM131.444 129.166V129.351C131.444 129.784 131.485 130.188 131.567 130.563C131.655 130.938 131.787 131.27 131.963 131.557C132.145 131.838 132.373 132.061 132.648 132.225C132.93 132.383 133.261 132.462 133.642 132.462C134.14 132.462 134.547 132.356 134.863 132.146C135.186 131.935 135.432 131.65 135.602 131.293C135.777 130.93 135.9 130.525 135.971 130.08V128.489C135.936 128.144 135.862 127.821 135.751 127.522C135.646 127.224 135.502 126.963 135.32 126.74C135.139 126.512 134.91 126.336 134.635 126.213C134.359 126.084 134.034 126.02 133.659 126.02C133.278 126.02 132.947 126.102 132.666 126.266C132.385 126.43 132.153 126.655 131.972 126.942C131.796 127.229 131.664 127.563 131.576 127.944C131.488 128.325 131.444 128.732 131.444 129.166ZM144.101 134.176C143.397 134.176 142.762 134.062 142.193 133.833C141.631 133.599 141.15 133.273 140.752 132.857C140.359 132.441 140.058 131.952 139.847 131.39C139.636 130.827 139.53 130.221 139.53 129.57V129.219C139.53 128.475 139.639 127.801 139.855 127.197C140.072 126.594 140.374 126.078 140.761 125.65C141.147 125.217 141.604 124.886 142.132 124.657C142.659 124.429 143.23 124.314 143.846 124.314C144.525 124.314 145.12 124.429 145.63 124.657C146.14 124.886 146.562 125.208 146.896 125.624C147.235 126.034 147.487 126.523 147.651 127.092C147.821 127.66 147.906 128.287 147.906 128.973V129.878H140.559V128.357H145.814V128.19C145.803 127.81 145.727 127.452 145.586 127.118C145.451 126.784 145.243 126.515 144.962 126.31C144.681 126.104 144.306 126.002 143.837 126.002C143.485 126.002 143.172 126.078 142.896 126.23C142.627 126.377 142.401 126.591 142.22 126.872C142.038 127.153 141.897 127.493 141.798 127.892C141.704 128.284 141.657 128.727 141.657 129.219V129.57C141.657 129.986 141.713 130.373 141.824 130.73C141.941 131.082 142.111 131.39 142.334 131.653C142.557 131.917 142.826 132.125 143.143 132.277C143.459 132.424 143.819 132.497 144.224 132.497C144.733 132.497 145.188 132.395 145.586 132.189C145.984 131.984 146.33 131.694 146.623 131.319L147.739 132.4C147.534 132.699 147.268 132.986 146.939 133.262C146.611 133.531 146.21 133.751 145.735 133.921C145.267 134.091 144.722 134.176 144.101 134.176ZM156.906 134H154.788V123.576C154.788 122.867 154.92 122.272 155.184 121.792C155.453 121.306 155.837 120.939 156.335 120.693C156.833 120.441 157.422 120.315 158.102 120.315C158.312 120.315 158.521 120.33 158.726 120.359C158.931 120.383 159.13 120.421 159.323 120.474L159.271 122.108C159.153 122.079 159.024 122.059 158.884 122.047C158.749 122.035 158.603 122.029 158.444 122.029C158.122 122.029 157.844 122.091 157.609 122.214C157.381 122.331 157.205 122.504 157.082 122.732C156.965 122.961 156.906 123.242 156.906 123.576V134ZM158.866 124.49V126.037H153.329V124.49H158.866ZM160 129.351V129.148C160 128.463 160.1 127.827 160.299 127.241C160.498 126.649 160.785 126.137 161.16 125.703C161.541 125.264 162.004 124.924 162.549 124.684C163.1 124.438 163.721 124.314 164.412 124.314C165.109 124.314 165.73 124.438 166.275 124.684C166.826 124.924 167.292 125.264 167.673 125.703C168.054 126.137 168.344 126.649 168.543 127.241C168.742 127.827 168.842 128.463 168.842 129.148V129.351C168.842 130.036 168.742 130.672 168.543 131.258C168.344 131.844 168.054 132.356 167.673 132.796C167.292 133.229 166.829 133.569 166.284 133.815C165.739 134.056 165.121 134.176 164.43 134.176C163.732 134.176 163.108 134.056 162.558 133.815C162.013 133.569 161.55 133.229 161.169 132.796C160.788 132.356 160.498 131.844 160.299 131.258C160.1 130.672 160 130.036 160 129.351ZM162.118 129.148V129.351C162.118 129.778 162.162 130.183 162.25 130.563C162.338 130.944 162.476 131.278 162.663 131.565C162.851 131.853 163.091 132.078 163.384 132.242C163.677 132.406 164.025 132.488 164.43 132.488C164.822 132.488 165.162 132.406 165.449 132.242C165.742 132.078 165.982 131.853 166.17 131.565C166.357 131.278 166.495 130.944 166.583 130.563C166.677 130.183 166.724 129.778 166.724 129.351V129.148C166.724 128.727 166.677 128.328 166.583 127.953C166.495 127.572 166.354 127.235 166.161 126.942C165.974 126.649 165.733 126.421 165.44 126.257C165.153 126.087 164.811 126.002 164.412 126.002C164.014 126.002 163.668 126.087 163.375 126.257C163.088 126.421 162.851 126.649 162.663 126.942C162.476 127.235 162.338 127.572 162.25 127.953C162.162 128.328 162.118 128.727 162.118 129.148ZM176.339 131.759V124.49H178.466V134H176.462L176.339 131.759ZM176.638 129.781L177.35 129.764C177.35 130.402 177.279 130.991 177.139 131.53C176.998 132.063 176.781 132.529 176.488 132.928C176.195 133.32 175.82 133.628 175.363 133.851C174.906 134.067 174.358 134.176 173.72 134.176C173.257 134.176 172.832 134.108 172.445 133.974C172.059 133.839 171.725 133.631 171.443 133.35C171.168 133.068 170.954 132.702 170.802 132.251C170.649 131.8 170.573 131.261 170.573 130.634V124.49H172.691V130.651C172.691 130.997 172.732 131.287 172.814 131.521C172.896 131.75 173.008 131.935 173.148 132.075C173.289 132.216 173.453 132.315 173.641 132.374C173.828 132.433 174.027 132.462 174.238 132.462C174.842 132.462 175.316 132.345 175.662 132.11C176.014 131.87 176.263 131.548 176.409 131.144C176.562 130.739 176.638 130.285 176.638 129.781ZM182.737 126.521V134H180.619V124.49H182.614L182.737 126.521ZM182.359 128.894L181.674 128.885C181.68 128.211 181.773 127.593 181.955 127.03C182.143 126.468 182.4 125.984 182.729 125.58C183.062 125.176 183.461 124.865 183.924 124.648C184.387 124.426 184.902 124.314 185.471 124.314C185.928 124.314 186.341 124.379 186.71 124.508C187.085 124.631 187.404 124.833 187.668 125.114C187.938 125.396 188.143 125.762 188.283 126.213C188.424 126.658 188.494 127.206 188.494 127.856V134H186.367V127.848C186.367 127.391 186.3 127.03 186.165 126.767C186.036 126.497 185.846 126.307 185.594 126.195C185.348 126.078 185.04 126.02 184.671 126.02C184.308 126.02 183.982 126.096 183.695 126.248C183.408 126.4 183.165 126.608 182.966 126.872C182.772 127.136 182.623 127.44 182.518 127.786C182.412 128.132 182.359 128.501 182.359 128.894ZM196.457 132.031V120.5H198.584V134H196.659L196.457 132.031ZM190.27 129.351V129.166C190.27 128.445 190.354 127.789 190.524 127.197C190.694 126.6 190.94 126.087 191.263 125.659C191.585 125.226 191.978 124.895 192.44 124.666C192.903 124.432 193.425 124.314 194.005 124.314C194.579 124.314 195.083 124.426 195.517 124.648C195.95 124.871 196.319 125.19 196.624 125.606C196.929 126.017 197.172 126.509 197.354 127.083C197.535 127.651 197.664 128.284 197.74 128.981V129.57C197.664 130.25 197.535 130.871 197.354 131.434C197.172 131.996 196.929 132.482 196.624 132.893C196.319 133.303 195.947 133.619 195.508 133.842C195.074 134.064 194.567 134.176 193.987 134.176C193.413 134.176 192.895 134.056 192.432 133.815C191.975 133.575 191.585 133.238 191.263 132.805C190.94 132.371 190.694 131.861 190.524 131.275C190.354 130.684 190.27 130.042 190.27 129.351ZM192.388 129.166V129.351C192.388 129.784 192.426 130.188 192.502 130.563C192.584 130.938 192.71 131.27 192.88 131.557C193.05 131.838 193.27 132.061 193.539 132.225C193.814 132.383 194.143 132.462 194.523 132.462C195.004 132.462 195.399 132.356 195.71 132.146C196.021 131.935 196.264 131.65 196.439 131.293C196.621 130.93 196.744 130.525 196.809 130.08V128.489C196.773 128.144 196.7 127.821 196.589 127.522C196.483 127.224 196.34 126.963 196.158 126.74C195.977 126.512 195.751 126.336 195.481 126.213C195.218 126.084 194.904 126.02 194.541 126.02C194.154 126.02 193.826 126.102 193.557 126.266C193.287 126.43 193.064 126.655 192.889 126.942C192.719 127.229 192.593 127.563 192.511 127.944C192.429 128.325 192.388 128.732 192.388 129.166Z" fill="#30445B"/>
<path d="M13.5039 157.097H10.8447V156.023H13.5039C14.0189 156.023 14.4359 155.941 14.7549 155.777C15.0739 155.613 15.3063 155.385 15.4521 155.094C15.6025 154.802 15.6777 154.469 15.6777 154.096C15.6777 153.754 15.6025 153.433 15.4521 153.132C15.3063 152.831 15.0739 152.59 14.7549 152.407C14.4359 152.22 14.0189 152.127 13.5039 152.127H11.1523V161H9.83301V151.047H13.5039C14.2559 151.047 14.8916 151.177 15.4111 151.437C15.9307 151.696 16.3249 152.056 16.5938 152.517C16.8626 152.972 16.9971 153.494 16.9971 154.082C16.9971 154.72 16.8626 155.265 16.5938 155.716C16.3249 156.167 15.9307 156.511 15.4111 156.748C14.8916 156.98 14.2559 157.097 13.5039 157.097ZM19.8477 150.5V161H18.5762V150.5H19.8477ZM24.9473 161.137C24.4323 161.137 23.9652 161.05 23.5459 160.877C23.1312 160.699 22.7734 160.451 22.4727 160.132C22.1764 159.813 21.9486 159.435 21.7891 158.997C21.6296 158.56 21.5498 158.081 21.5498 157.562V157.274C21.5498 156.673 21.6387 156.137 21.8164 155.668C21.9941 155.194 22.2357 154.793 22.541 154.465C22.8464 154.137 23.1927 153.888 23.5801 153.72C23.9674 153.551 24.3685 153.467 24.7832 153.467C25.3118 153.467 25.7676 153.558 26.1504 153.74C26.5378 153.923 26.8545 154.178 27.1006 154.506C27.3467 154.829 27.529 155.212 27.6475 155.654C27.766 156.092 27.8252 156.57 27.8252 157.09V157.657H22.3018V156.625H26.5605V156.529C26.5423 156.201 26.474 155.882 26.3555 155.572C26.2415 155.262 26.0592 155.007 25.8086 154.807C25.5579 154.606 25.2161 154.506 24.7832 154.506C24.4961 154.506 24.2318 154.567 23.9902 154.69C23.7487 154.809 23.5413 154.987 23.3682 155.224C23.195 155.461 23.0605 155.75 22.9648 156.092C22.8691 156.434 22.8213 156.828 22.8213 157.274V157.562C22.8213 157.912 22.8691 158.243 22.9648 158.553C23.0651 158.858 23.2087 159.127 23.3955 159.359C23.5869 159.592 23.8171 159.774 24.0859 159.906C24.3594 160.038 24.6693 160.104 25.0156 160.104C25.4622 160.104 25.8405 160.013 26.1504 159.831C26.4603 159.649 26.7314 159.405 26.9639 159.1L27.7295 159.708C27.57 159.95 27.3672 160.18 27.1211 160.398C26.875 160.617 26.5719 160.795 26.2119 160.932C25.8564 161.068 25.4349 161.137 24.9473 161.137ZM33.6631 159.735V155.928C33.6631 155.636 33.6038 155.383 33.4854 155.169C33.3714 154.95 33.1982 154.782 32.9658 154.663C32.7334 154.545 32.4463 154.485 32.1045 154.485C31.7855 154.485 31.5052 154.54 31.2637 154.649C31.0267 154.759 30.8398 154.902 30.7031 155.08C30.571 155.258 30.5049 155.449 30.5049 155.654H29.2402C29.2402 155.39 29.3086 155.128 29.4453 154.868C29.582 154.608 29.778 154.374 30.0332 154.164C30.293 153.95 30.6029 153.781 30.9629 153.658C31.3275 153.531 31.7331 153.467 32.1797 153.467C32.7174 153.467 33.1914 153.558 33.6016 153.74C34.0163 153.923 34.3398 154.198 34.5723 154.567C34.8092 154.932 34.9277 155.39 34.9277 155.941V159.387C34.9277 159.633 34.9482 159.895 34.9893 160.173C35.0348 160.451 35.1009 160.69 35.1875 160.891V161H33.8682C33.8044 160.854 33.7542 160.66 33.7178 160.419C33.6813 160.173 33.6631 159.945 33.6631 159.735ZM33.8818 156.516L33.8955 157.404H32.6172C32.2572 157.404 31.9359 157.434 31.6533 157.493C31.3708 157.548 31.1338 157.632 30.9424 157.746C30.751 157.86 30.6051 158.004 30.5049 158.177C30.4046 158.345 30.3545 158.544 30.3545 158.771C30.3545 159.004 30.4069 159.216 30.5117 159.407C30.6165 159.599 30.7738 159.751 30.9834 159.865C31.1976 159.975 31.4596 160.029 31.7695 160.029C32.1569 160.029 32.4987 159.947 32.7949 159.783C33.0911 159.619 33.3258 159.419 33.499 159.182C33.6768 158.945 33.7725 158.715 33.7861 158.491L34.3262 159.1C34.2943 159.291 34.2077 159.503 34.0664 159.735C33.9251 159.968 33.736 160.191 33.499 160.405C33.2666 160.615 32.9886 160.79 32.665 160.932C32.346 161.068 31.986 161.137 31.585 161.137C31.0837 161.137 30.6439 161.039 30.2656 160.843C29.8919 160.647 29.6003 160.385 29.3906 160.057C29.1855 159.724 29.083 159.353 29.083 158.942C29.083 158.546 29.1605 158.197 29.3154 157.896C29.4704 157.591 29.6937 157.338 29.9854 157.138C30.277 156.933 30.6279 156.778 31.0381 156.673C31.4482 156.568 31.9062 156.516 32.4121 156.516H33.8818ZM41.2236 159.038C41.2236 158.856 41.1826 158.687 41.1006 158.532C41.0231 158.373 40.8613 158.229 40.6152 158.102C40.3737 157.969 40.0091 157.855 39.5215 157.76C39.1113 157.673 38.7399 157.571 38.4072 157.452C38.0791 157.334 37.7988 157.19 37.5664 157.021C37.3385 156.853 37.1631 156.655 37.04 156.427C36.917 156.199 36.8555 155.932 36.8555 155.627C36.8555 155.335 36.9193 155.06 37.0469 154.8C37.179 154.54 37.3636 154.31 37.6006 154.109C37.8421 153.909 38.1315 153.752 38.4688 153.638C38.806 153.524 39.182 153.467 39.5967 153.467C40.1891 153.467 40.695 153.572 41.1143 153.781C41.5335 153.991 41.8548 154.271 42.0781 154.622C42.3014 154.968 42.4131 155.354 42.4131 155.777H41.1484C41.1484 155.572 41.0869 155.374 40.9639 155.183C40.8454 154.987 40.6699 154.825 40.4375 154.697C40.2096 154.57 39.9294 154.506 39.5967 154.506C39.2458 154.506 38.9609 154.561 38.7422 154.67C38.528 154.775 38.3708 154.909 38.2705 155.073C38.1748 155.237 38.127 155.41 38.127 155.593C38.127 155.729 38.1497 155.853 38.1953 155.962C38.2454 156.067 38.332 156.165 38.4551 156.256C38.5781 156.342 38.7513 156.424 38.9746 156.502C39.1979 156.579 39.4827 156.657 39.8291 156.734C40.4352 156.871 40.9342 157.035 41.3262 157.227C41.7181 157.418 42.0098 157.653 42.2012 157.931C42.3926 158.209 42.4883 158.546 42.4883 158.942C42.4883 159.266 42.4199 159.562 42.2832 159.831C42.151 160.1 41.9574 160.332 41.7021 160.528C41.4515 160.72 41.1507 160.87 40.7998 160.979C40.4535 161.084 40.0638 161.137 39.6309 161.137C38.9792 161.137 38.4277 161.021 37.9766 160.788C37.5254 160.556 37.1836 160.255 36.9512 159.886C36.7188 159.517 36.6025 159.127 36.6025 158.717H37.874C37.8923 159.063 37.9925 159.339 38.1748 159.544C38.3571 159.744 38.5804 159.888 38.8447 159.975C39.109 160.057 39.3711 160.098 39.6309 160.098C39.9772 160.098 40.2666 160.052 40.499 159.961C40.736 159.87 40.916 159.744 41.0391 159.585C41.1621 159.425 41.2236 159.243 41.2236 159.038ZM47.2188 161.137C46.7038 161.137 46.2367 161.05 45.8174 160.877C45.4027 160.699 45.0449 160.451 44.7441 160.132C44.4479 159.813 44.2201 159.435 44.0605 158.997C43.901 158.56 43.8213 158.081 43.8213 157.562V157.274C43.8213 156.673 43.9102 156.137 44.0879 155.668C44.2656 155.194 44.5072 154.793 44.8125 154.465C45.1178 154.137 45.4642 153.888 45.8516 153.72C46.2389 153.551 46.64 153.467 47.0547 153.467C47.5833 153.467 48.0391 153.558 48.4219 153.74C48.8092 153.923 49.126 154.178 49.3721 154.506C49.6182 154.829 49.8005 155.212 49.9189 155.654C50.0374 156.092 50.0967 156.57 50.0967 157.09V157.657H44.5732V156.625H48.832V156.529C48.8138 156.201 48.7454 155.882 48.627 155.572C48.513 155.262 48.3307 155.007 48.0801 154.807C47.8294 154.606 47.4876 154.506 47.0547 154.506C46.7676 154.506 46.5033 154.567 46.2617 154.69C46.0202 154.809 45.8128 154.987 45.6396 155.224C45.4665 155.461 45.332 155.75 45.2363 156.092C45.1406 156.434 45.0928 156.828 45.0928 157.274V157.562C45.0928 157.912 45.1406 158.243 45.2363 158.553C45.3366 158.858 45.4801 159.127 45.667 159.359C45.8584 159.592 46.0885 159.774 46.3574 159.906C46.6309 160.038 46.9408 160.104 47.2871 160.104C47.7337 160.104 48.112 160.013 48.4219 159.831C48.7318 159.649 49.0029 159.405 49.2354 159.1L50.001 159.708C49.8415 159.95 49.6387 160.18 49.3926 160.398C49.1465 160.617 48.8434 160.795 48.4834 160.932C48.1279 161.068 47.7064 161.137 47.2188 161.137ZM56.3105 150.5V161H55.0459V150.5H56.3105ZM56.0098 157.021L55.4834 157.001C55.488 156.495 55.5632 156.028 55.709 155.6C55.8548 155.167 56.0599 154.791 56.3242 154.472C56.5885 154.153 56.903 153.907 57.2676 153.733C57.6367 153.556 58.0446 153.467 58.4912 153.467C58.8558 153.467 59.1839 153.517 59.4756 153.617C59.7673 153.713 60.0156 153.868 60.2207 154.082C60.4303 154.296 60.5898 154.574 60.6992 154.916C60.8086 155.253 60.8633 155.666 60.8633 156.153V161H59.5918V156.14C59.5918 155.752 59.5348 155.442 59.4209 155.21C59.307 154.973 59.1406 154.802 58.9219 154.697C58.7031 154.588 58.4342 154.533 58.1152 154.533C57.8008 154.533 57.5137 154.599 57.2539 154.731C56.9987 154.864 56.7777 155.046 56.5908 155.278C56.4085 155.511 56.265 155.777 56.1602 156.078C56.0599 156.374 56.0098 156.689 56.0098 157.021ZM62.4219 157.384V157.227C62.4219 156.693 62.4993 156.199 62.6543 155.743C62.8092 155.283 63.0326 154.884 63.3242 154.547C63.6159 154.205 63.9691 153.941 64.3838 153.754C64.7985 153.562 65.2633 153.467 65.7783 153.467C66.2979 153.467 66.765 153.562 67.1797 153.754C67.599 153.941 67.9544 154.205 68.2461 154.547C68.5423 154.884 68.7679 155.283 68.9229 155.743C69.0778 156.199 69.1553 156.693 69.1553 157.227V157.384C69.1553 157.917 69.0778 158.411 68.9229 158.867C68.7679 159.323 68.5423 159.722 68.2461 160.063C67.9544 160.401 67.6012 160.665 67.1865 160.856C66.7764 161.043 66.3115 161.137 65.792 161.137C65.2725 161.137 64.8053 161.043 64.3906 160.856C63.9759 160.665 63.6204 160.401 63.3242 160.063C63.0326 159.722 62.8092 159.323 62.6543 158.867C62.4993 158.411 62.4219 157.917 62.4219 157.384ZM63.6865 157.227V157.384C63.6865 157.753 63.7298 158.102 63.8164 158.43C63.903 158.753 64.0329 159.04 64.2061 159.291C64.3838 159.542 64.6048 159.74 64.8691 159.886C65.1335 160.027 65.4411 160.098 65.792 160.098C66.1383 160.098 66.4414 160.027 66.7012 159.886C66.9655 159.74 67.1842 159.542 67.3574 159.291C67.5306 159.04 67.6605 158.753 67.7471 158.43C67.8382 158.102 67.8838 157.753 67.8838 157.384V157.227C67.8838 156.862 67.8382 156.518 67.7471 156.194C67.6605 155.866 67.5283 155.577 67.3506 155.326C67.1774 155.071 66.9587 154.87 66.6943 154.725C66.4346 154.579 66.1292 154.506 65.7783 154.506C65.432 154.506 65.1266 154.579 64.8623 154.725C64.6025 154.87 64.3838 155.071 64.2061 155.326C64.0329 155.577 63.903 155.866 63.8164 156.194C63.7298 156.518 63.6865 156.862 63.6865 157.227ZM72.1152 150.5V161H70.8438V150.5H72.1152ZM78.8076 159.564V150.5H80.0791V161H78.917L78.8076 159.564ZM73.8311 157.384V157.24C73.8311 156.675 73.8994 156.162 74.0361 155.702C74.1774 155.237 74.3757 154.839 74.6309 154.506C74.8906 154.173 75.1982 153.918 75.5537 153.74C75.9137 153.558 76.3148 153.467 76.7568 153.467C77.2217 153.467 77.6273 153.549 77.9736 153.713C78.3245 153.872 78.6208 154.107 78.8623 154.417C79.1084 154.722 79.3021 155.091 79.4434 155.524C79.5846 155.957 79.6826 156.447 79.7373 156.994V157.623C79.6872 158.165 79.5892 158.653 79.4434 159.086C79.3021 159.519 79.1084 159.888 78.8623 160.193C78.6208 160.499 78.3245 160.733 77.9736 160.897C77.6227 161.057 77.2126 161.137 76.7432 161.137C76.3102 161.137 75.9137 161.043 75.5537 160.856C75.1982 160.67 74.8906 160.408 74.6309 160.07C74.3757 159.733 74.1774 159.337 74.0361 158.881C73.8994 158.421 73.8311 157.922 73.8311 157.384ZM75.1025 157.24V157.384C75.1025 157.753 75.139 158.099 75.2119 158.423C75.2894 158.746 75.4079 159.031 75.5674 159.277C75.7269 159.523 75.9297 159.717 76.1758 159.858C76.4219 159.995 76.7158 160.063 77.0576 160.063C77.4769 160.063 77.821 159.975 78.0898 159.797C78.3633 159.619 78.582 159.384 78.7461 159.093C78.9102 158.801 79.0378 158.484 79.1289 158.143V156.495C79.0742 156.244 78.9945 156.003 78.8896 155.771C78.7894 155.534 78.6572 155.324 78.4932 155.142C78.3337 154.955 78.1354 154.807 77.8984 154.697C77.666 154.588 77.3903 154.533 77.0713 154.533C76.7249 154.533 76.4264 154.606 76.1758 154.752C75.9297 154.893 75.7269 155.089 75.5674 155.34C75.4079 155.586 75.2894 155.873 75.2119 156.201C75.139 156.525 75.1025 156.871 75.1025 157.24ZM85.1855 157.384V157.227C85.1855 156.693 85.263 156.199 85.418 155.743C85.5729 155.283 85.7962 154.884 86.0879 154.547C86.3796 154.205 86.7327 153.941 87.1475 153.754C87.5622 153.562 88.027 153.467 88.542 153.467C89.0615 153.467 89.5286 153.562 89.9434 153.754C90.3626 153.941 90.7181 154.205 91.0098 154.547C91.306 154.884 91.5316 155.283 91.6865 155.743C91.8415 156.199 91.9189 156.693 91.9189 157.227V157.384C91.9189 157.917 91.8415 158.411 91.6865 158.867C91.5316 159.323 91.306 159.722 91.0098 160.063C90.7181 160.401 90.3649 160.665 89.9502 160.856C89.54 161.043 89.0752 161.137 88.5557 161.137C88.0361 161.137 87.569 161.043 87.1543 160.856C86.7396 160.665 86.3841 160.401 86.0879 160.063C85.7962 159.722 85.5729 159.323 85.418 158.867C85.263 158.411 85.1855 157.917 85.1855 157.384ZM86.4502 157.227V157.384C86.4502 157.753 86.4935 158.102 86.5801 158.43C86.6667 158.753 86.7965 159.04 86.9697 159.291C87.1475 159.542 87.3685 159.74 87.6328 159.886C87.8971 160.027 88.2048 160.098 88.5557 160.098C88.902 160.098 89.2051 160.027 89.4648 159.886C89.7292 159.74 89.9479 159.542 90.1211 159.291C90.2943 159.04 90.4242 158.753 90.5107 158.43C90.6019 158.102 90.6475 157.753 90.6475 157.384V157.227C90.6475 156.862 90.6019 156.518 90.5107 156.194C90.4242 155.866 90.292 155.577 90.1143 155.326C89.9411 155.071 89.7223 154.87 89.458 154.725C89.1982 154.579 88.8929 154.506 88.542 154.506C88.1956 154.506 87.8903 154.579 87.626 154.725C87.3662 154.87 87.1475 155.071 86.9697 155.326C86.7965 155.577 86.6667 155.866 86.5801 156.194C86.4935 156.518 86.4502 156.862 86.4502 157.227ZM94.7695 154.766V161H93.5049V153.604H94.7354L94.7695 154.766ZM97.0801 153.562L97.0732 154.738C96.9684 154.715 96.8682 154.702 96.7725 154.697C96.6813 154.688 96.5765 154.684 96.458 154.684C96.1663 154.684 95.9089 154.729 95.6855 154.82C95.4622 154.911 95.2731 155.039 95.1182 155.203C94.9632 155.367 94.8402 155.563 94.749 155.791C94.6624 156.014 94.6055 156.26 94.5781 156.529L94.2227 156.734C94.2227 156.288 94.266 155.868 94.3525 155.477C94.4437 155.085 94.5827 154.738 94.7695 154.438C94.9564 154.132 95.1934 153.895 95.4805 153.727C95.7721 153.553 96.1185 153.467 96.5195 153.467C96.6107 153.467 96.7155 153.478 96.834 153.501C96.9525 153.519 97.0345 153.54 97.0801 153.562ZM104.818 153.604V154.574H100.819V153.604H104.818ZM102.173 151.806H103.438V159.168C103.438 159.419 103.476 159.608 103.554 159.735C103.631 159.863 103.731 159.947 103.854 159.988C103.978 160.029 104.11 160.05 104.251 160.05C104.356 160.05 104.465 160.041 104.579 160.022C104.698 160 104.786 159.981 104.846 159.968L104.853 161C104.752 161.032 104.62 161.062 104.456 161.089C104.297 161.121 104.103 161.137 103.875 161.137C103.565 161.137 103.28 161.075 103.021 160.952C102.761 160.829 102.553 160.624 102.398 160.337C102.248 160.045 102.173 159.653 102.173 159.161V151.806ZM110.663 159.735V155.928C110.663 155.636 110.604 155.383 110.485 155.169C110.371 154.95 110.198 154.782 109.966 154.663C109.733 154.545 109.446 154.485 109.104 154.485C108.785 154.485 108.505 154.54 108.264 154.649C108.027 154.759 107.84 154.902 107.703 155.08C107.571 155.258 107.505 155.449 107.505 155.654H106.24C106.24 155.39 106.309 155.128 106.445 154.868C106.582 154.608 106.778 154.374 107.033 154.164C107.293 153.95 107.603 153.781 107.963 153.658C108.327 153.531 108.733 153.467 109.18 153.467C109.717 153.467 110.191 153.558 110.602 153.74C111.016 153.923 111.34 154.198 111.572 154.567C111.809 154.932 111.928 155.39 111.928 155.941V159.387C111.928 159.633 111.948 159.895 111.989 160.173C112.035 160.451 112.101 160.69 112.188 160.891V161H110.868C110.804 160.854 110.754 160.66 110.718 160.419C110.681 160.173 110.663 159.945 110.663 159.735ZM110.882 156.516L110.896 157.404H109.617C109.257 157.404 108.936 157.434 108.653 157.493C108.371 157.548 108.134 157.632 107.942 157.746C107.751 157.86 107.605 158.004 107.505 158.177C107.405 158.345 107.354 158.544 107.354 158.771C107.354 159.004 107.407 159.216 107.512 159.407C107.617 159.599 107.774 159.751 107.983 159.865C108.198 159.975 108.46 160.029 108.77 160.029C109.157 160.029 109.499 159.947 109.795 159.783C110.091 159.619 110.326 159.419 110.499 159.182C110.677 158.945 110.772 158.715 110.786 158.491L111.326 159.1C111.294 159.291 111.208 159.503 111.066 159.735C110.925 159.968 110.736 160.191 110.499 160.405C110.267 160.615 109.989 160.79 109.665 160.932C109.346 161.068 108.986 161.137 108.585 161.137C108.084 161.137 107.644 161.039 107.266 160.843C106.892 160.647 106.6 160.385 106.391 160.057C106.186 159.724 106.083 159.353 106.083 158.942C106.083 158.546 106.16 158.197 106.315 157.896C106.47 157.591 106.694 157.338 106.985 157.138C107.277 156.933 107.628 156.778 108.038 156.673C108.448 156.568 108.906 156.516 109.412 156.516H110.882ZM115.182 155.025V163.844H113.91V153.604H115.072L115.182 155.025ZM120.165 157.24V157.384C120.165 157.922 120.101 158.421 119.974 158.881C119.846 159.337 119.659 159.733 119.413 160.07C119.172 160.408 118.873 160.67 118.518 160.856C118.162 161.043 117.754 161.137 117.294 161.137C116.825 161.137 116.41 161.059 116.05 160.904C115.69 160.749 115.384 160.524 115.134 160.228C114.883 159.931 114.683 159.576 114.532 159.161C114.386 158.746 114.286 158.279 114.231 157.76V156.994C114.286 156.447 114.389 155.957 114.539 155.524C114.689 155.091 114.888 154.722 115.134 154.417C115.384 154.107 115.688 153.872 116.043 153.713C116.398 153.549 116.809 153.467 117.273 153.467C117.738 153.467 118.151 153.558 118.511 153.74C118.871 153.918 119.174 154.173 119.42 154.506C119.666 154.839 119.851 155.237 119.974 155.702C120.101 156.162 120.165 156.675 120.165 157.24ZM118.894 157.384V157.24C118.894 156.871 118.855 156.525 118.777 156.201C118.7 155.873 118.579 155.586 118.415 155.34C118.256 155.089 118.05 154.893 117.8 154.752C117.549 154.606 117.251 154.533 116.904 154.533C116.585 154.533 116.307 154.588 116.07 154.697C115.838 154.807 115.64 154.955 115.476 155.142C115.312 155.324 115.177 155.534 115.072 155.771C114.972 156.003 114.897 156.244 114.847 156.495V158.266C114.938 158.585 115.065 158.885 115.229 159.168C115.394 159.446 115.612 159.672 115.886 159.845C116.159 160.013 116.503 160.098 116.918 160.098C117.26 160.098 117.554 160.027 117.8 159.886C118.05 159.74 118.256 159.542 118.415 159.291C118.579 159.04 118.7 158.753 118.777 158.43C118.855 158.102 118.894 157.753 118.894 157.384ZM124.916 157.384V157.227C124.916 156.693 124.993 156.199 125.148 155.743C125.303 155.283 125.527 154.884 125.818 154.547C126.11 154.205 126.463 153.941 126.878 153.754C127.293 153.562 127.757 153.467 128.272 153.467C128.792 153.467 129.259 153.562 129.674 153.754C130.093 153.941 130.449 154.205 130.74 154.547C131.036 154.884 131.262 155.283 131.417 155.743C131.572 156.199 131.649 156.693 131.649 157.227V157.384C131.649 157.917 131.572 158.411 131.417 158.867C131.262 159.323 131.036 159.722 130.74 160.063C130.449 160.401 130.095 160.665 129.681 160.856C129.271 161.043 128.806 161.137 128.286 161.137C127.767 161.137 127.299 161.043 126.885 160.856C126.47 160.665 126.115 160.401 125.818 160.063C125.527 159.722 125.303 159.323 125.148 158.867C124.993 158.411 124.916 157.917 124.916 157.384ZM126.181 157.227V157.384C126.181 157.753 126.224 158.102 126.311 158.43C126.397 158.753 126.527 159.04 126.7 159.291C126.878 159.542 127.099 159.74 127.363 159.886C127.628 160.027 127.935 160.098 128.286 160.098C128.632 160.098 128.936 160.027 129.195 159.886C129.46 159.74 129.678 159.542 129.852 159.291C130.025 159.04 130.155 158.753 130.241 158.43C130.332 158.102 130.378 157.753 130.378 157.384V157.227C130.378 156.862 130.332 156.518 130.241 156.194C130.155 155.866 130.022 155.577 129.845 155.326C129.672 155.071 129.453 154.87 129.188 154.725C128.929 154.579 128.623 154.506 128.272 154.506C127.926 154.506 127.621 154.579 127.356 154.725C127.097 154.87 126.878 155.071 126.7 155.326C126.527 155.577 126.397 155.866 126.311 156.194C126.224 156.518 126.181 156.862 126.181 157.227ZM134.5 155.183V161H133.235V153.604H134.432L134.5 155.183ZM134.199 157.021L133.673 157.001C133.677 156.495 133.753 156.028 133.898 155.6C134.044 155.167 134.249 154.791 134.514 154.472C134.778 154.153 135.092 153.907 135.457 153.733C135.826 153.556 136.234 153.467 136.681 153.467C137.045 153.467 137.373 153.517 137.665 153.617C137.957 153.713 138.205 153.868 138.41 154.082C138.62 154.296 138.779 154.574 138.889 154.916C138.998 155.253 139.053 155.666 139.053 156.153V161H137.781V156.14C137.781 155.752 137.724 155.442 137.61 155.21C137.496 154.973 137.33 154.802 137.111 154.697C136.893 154.588 136.624 154.533 136.305 154.533C135.99 154.533 135.703 154.599 135.443 154.731C135.188 154.864 134.967 155.046 134.78 155.278C134.598 155.511 134.454 155.777 134.35 156.078C134.249 156.374 134.199 156.689 134.199 157.021ZM147.543 153.604V154.574H143.544V153.604H147.543ZM144.897 151.806H146.162V159.168C146.162 159.419 146.201 159.608 146.278 159.735C146.356 159.863 146.456 159.947 146.579 159.988C146.702 160.029 146.834 160.05 146.976 160.05C147.08 160.05 147.19 160.041 147.304 160.022C147.422 160 147.511 159.981 147.57 159.968L147.577 161C147.477 161.032 147.345 161.062 147.181 161.089C147.021 161.121 146.827 161.137 146.6 161.137C146.29 161.137 146.005 161.075 145.745 160.952C145.485 160.829 145.278 160.624 145.123 160.337C144.973 160.045 144.897 159.653 144.897 159.161V151.806ZM150.291 150.5V161H149.026V150.5H150.291ZM149.99 157.021L149.464 157.001C149.468 156.495 149.544 156.028 149.689 155.6C149.835 155.167 150.04 154.791 150.305 154.472C150.569 154.153 150.883 153.907 151.248 153.733C151.617 153.556 152.025 153.467 152.472 153.467C152.836 153.467 153.164 153.517 153.456 153.617C153.748 153.713 153.996 153.868 154.201 154.082C154.411 154.296 154.57 154.574 154.68 154.916C154.789 155.253 154.844 155.666 154.844 156.153V161H153.572V156.14C153.572 155.752 153.515 155.442 153.401 155.21C153.287 154.973 153.121 154.802 152.902 154.697C152.684 154.588 152.415 154.533 152.096 154.533C151.781 154.533 151.494 154.599 151.234 154.731C150.979 154.864 150.758 155.046 150.571 155.278C150.389 155.511 150.245 155.777 150.141 156.078C150.04 156.374 149.99 156.689 149.99 157.021ZM159.807 161.137C159.292 161.137 158.825 161.05 158.405 160.877C157.991 160.699 157.633 160.451 157.332 160.132C157.036 159.813 156.808 159.435 156.648 158.997C156.489 158.56 156.409 158.081 156.409 157.562V157.274C156.409 156.673 156.498 156.137 156.676 155.668C156.854 155.194 157.095 154.793 157.4 154.465C157.706 154.137 158.052 153.888 158.439 153.72C158.827 153.551 159.228 153.467 159.643 153.467C160.171 153.467 160.627 153.558 161.01 153.74C161.397 153.923 161.714 154.178 161.96 154.506C162.206 154.829 162.388 155.212 162.507 155.654C162.625 156.092 162.685 156.57 162.685 157.09V157.657H157.161V156.625H161.42V156.529C161.402 156.201 161.333 155.882 161.215 155.572C161.101 155.262 160.919 155.007 160.668 154.807C160.417 154.606 160.076 154.506 159.643 154.506C159.355 154.506 159.091 154.567 158.85 154.69C158.608 154.809 158.401 154.987 158.228 155.224C158.054 155.461 157.92 155.75 157.824 156.092C157.729 156.434 157.681 156.828 157.681 157.274V157.562C157.681 157.912 157.729 158.243 157.824 158.553C157.924 158.858 158.068 159.127 158.255 159.359C158.446 159.592 158.676 159.774 158.945 159.906C159.219 160.038 159.529 160.104 159.875 160.104C160.322 160.104 160.7 160.013 161.01 159.831C161.32 159.649 161.591 159.405 161.823 159.1L162.589 159.708C162.429 159.95 162.227 160.18 161.98 160.398C161.734 160.617 161.431 160.795 161.071 160.932C160.716 161.068 160.294 161.137 159.807 161.137ZM171.51 151.929L168.215 161H166.868L170.662 151.047H171.53L171.51 151.929ZM174.271 161L170.97 151.929L170.949 151.047H171.817L175.625 161H174.271ZM174.101 157.315V158.396H168.509V157.315H174.101ZM178.373 151.047V161H177.054V151.047H178.373ZM184.047 150.5H185.318V159.564L185.209 161H184.047V150.5ZM190.315 157.24V157.384C190.315 157.922 190.252 158.421 190.124 158.881C189.996 159.337 189.81 159.733 189.563 160.07C189.317 160.408 189.017 160.67 188.661 160.856C188.306 161.043 187.898 161.137 187.438 161.137C186.968 161.137 186.556 161.057 186.2 160.897C185.849 160.733 185.553 160.499 185.312 160.193C185.07 159.888 184.876 159.519 184.73 159.086C184.589 158.653 184.491 158.165 184.437 157.623V156.994C184.491 156.447 184.589 155.957 184.73 155.524C184.876 155.091 185.07 154.722 185.312 154.417C185.553 154.107 185.849 153.872 186.2 153.713C186.551 153.549 186.959 153.467 187.424 153.467C187.889 153.467 188.301 153.558 188.661 153.74C189.021 153.918 189.322 154.173 189.563 154.506C189.81 154.839 189.996 155.237 190.124 155.702C190.252 156.162 190.315 156.675 190.315 157.24ZM189.044 157.384V157.24C189.044 156.871 189.01 156.525 188.941 156.201C188.873 155.873 188.764 155.586 188.613 155.34C188.463 155.089 188.265 154.893 188.019 154.752C187.772 154.606 187.469 154.533 187.109 154.533C186.79 154.533 186.512 154.588 186.275 154.697C186.043 154.807 185.845 154.955 185.681 155.142C185.517 155.324 185.382 155.534 185.277 155.771C185.177 156.003 185.102 156.244 185.052 156.495V158.143C185.125 158.462 185.243 158.769 185.407 159.065C185.576 159.357 185.799 159.596 186.077 159.783C186.36 159.97 186.708 160.063 187.123 160.063C187.465 160.063 187.757 159.995 187.998 159.858C188.244 159.717 188.442 159.523 188.593 159.277C188.748 159.031 188.862 158.746 188.935 158.423C189.007 158.099 189.044 157.753 189.044 157.384ZM196.44 159.291V153.604H197.712V161H196.502L196.44 159.291ZM196.68 157.732L197.206 157.719C197.206 158.211 197.154 158.667 197.049 159.086C196.949 159.501 196.785 159.861 196.557 160.166C196.329 160.471 196.03 160.711 195.661 160.884C195.292 161.052 194.843 161.137 194.314 161.137C193.954 161.137 193.624 161.084 193.323 160.979C193.027 160.875 192.772 160.713 192.558 160.494C192.343 160.275 192.177 159.991 192.059 159.64C191.945 159.289 191.888 158.867 191.888 158.375V153.604H193.152V158.389C193.152 158.721 193.189 158.997 193.262 159.216C193.339 159.43 193.442 159.601 193.569 159.729C193.701 159.852 193.847 159.938 194.007 159.988C194.171 160.038 194.34 160.063 194.513 160.063C195.05 160.063 195.477 159.961 195.791 159.756C196.105 159.546 196.331 159.266 196.468 158.915C196.609 158.56 196.68 158.165 196.68 157.732ZM202.736 153.604V154.574H198.737V153.604H202.736ZM200.091 151.806H201.355V159.168C201.355 159.419 201.394 159.608 201.472 159.735C201.549 159.863 201.649 159.947 201.772 159.988C201.896 160.029 202.028 160.05 202.169 160.05C202.274 160.05 202.383 160.041 202.497 160.022C202.616 160 202.704 159.981 202.764 159.968L202.771 161C202.67 161.032 202.538 161.062 202.374 161.089C202.215 161.121 202.021 161.137 201.793 161.137C201.483 161.137 201.198 161.075 200.938 160.952C200.679 160.829 200.471 160.624 200.316 160.337C200.166 160.045 200.091 159.653 200.091 159.161V151.806ZM207.316 153.604V154.574H203.317V153.604H207.316ZM204.671 151.806H205.936V159.168C205.936 159.419 205.974 159.608 206.052 159.735C206.129 159.863 206.229 159.947 206.353 159.988C206.476 160.029 206.608 160.05 206.749 160.05C206.854 160.05 206.963 160.041 207.077 160.022C207.196 160 207.285 159.981 207.344 159.968L207.351 161C207.25 161.032 207.118 161.062 206.954 161.089C206.795 161.121 206.601 161.137 206.373 161.137C206.063 161.137 205.778 161.075 205.519 160.952C205.259 160.829 205.051 160.624 204.896 160.337C204.746 160.045 204.671 159.653 204.671 159.161V151.806ZM208.328 157.384V157.227C208.328 156.693 208.406 156.199 208.561 155.743C208.715 155.283 208.939 154.884 209.23 154.547C209.522 154.205 209.875 153.941 210.29 153.754C210.705 153.562 211.17 153.467 211.685 153.467C212.204 153.467 212.671 153.562 213.086 153.754C213.505 153.941 213.861 154.205 214.152 154.547C214.449 154.884 214.674 155.283 214.829 155.743C214.984 156.199 215.062 156.693 215.062 157.227V157.384C215.062 157.917 214.984 158.411 214.829 158.867C214.674 159.323 214.449 159.722 214.152 160.063C213.861 160.401 213.507 160.665 213.093 160.856C212.683 161.043 212.218 161.137 211.698 161.137C211.179 161.137 210.712 161.043 210.297 160.856C209.882 160.665 209.527 160.401 209.23 160.063C208.939 159.722 208.715 159.323 208.561 158.867C208.406 158.411 208.328 157.917 208.328 157.384ZM209.593 157.227V157.384C209.593 157.753 209.636 158.102 209.723 158.43C209.809 158.753 209.939 159.04 210.112 159.291C210.29 159.542 210.511 159.74 210.775 159.886C211.04 160.027 211.347 160.098 211.698 160.098C212.045 160.098 212.348 160.027 212.607 159.886C212.872 159.74 213.09 159.542 213.264 159.291C213.437 159.04 213.567 158.753 213.653 158.43C213.744 158.102 213.79 157.753 213.79 157.384V157.227C213.79 156.862 213.744 156.518 213.653 156.194C213.567 155.866 213.435 155.577 213.257 155.326C213.084 155.071 212.865 154.87 212.601 154.725C212.341 154.579 212.035 154.506 211.685 154.506C211.338 154.506 211.033 154.579 210.769 154.725C210.509 154.87 210.29 155.071 210.112 155.326C209.939 155.577 209.809 155.866 209.723 156.194C209.636 156.518 209.593 156.862 209.593 157.227ZM217.912 155.183V161H216.647V153.604H217.844L217.912 155.183ZM217.611 157.021L217.085 157.001C217.09 156.495 217.165 156.028 217.311 155.6C217.456 155.167 217.661 154.791 217.926 154.472C218.19 154.153 218.505 153.907 218.869 153.733C219.238 153.556 219.646 153.467 220.093 153.467C220.457 153.467 220.785 153.517 221.077 153.617C221.369 153.713 221.617 153.868 221.822 154.082C222.032 154.296 222.191 154.574 222.301 154.916C222.41 155.253 222.465 155.666 222.465 156.153V161H221.193V156.14C221.193 155.752 221.136 155.442 221.022 155.21C220.909 154.973 220.742 154.802 220.523 154.697C220.305 154.588 220.036 154.533 219.717 154.533C219.402 154.533 219.115 154.599 218.855 154.731C218.6 154.864 218.379 155.046 218.192 155.278C218.01 155.511 217.867 155.777 217.762 156.078C217.661 156.374 217.611 156.689 217.611 157.021ZM230.955 153.604V154.574H226.956V153.604H230.955ZM228.31 151.806H229.574V159.168C229.574 159.419 229.613 159.608 229.69 159.735C229.768 159.863 229.868 159.947 229.991 159.988C230.114 160.029 230.246 160.05 230.388 160.05C230.493 160.05 230.602 160.041 230.716 160.022C230.834 160 230.923 159.981 230.982 159.968L230.989 161C230.889 161.032 230.757 161.062 230.593 161.089C230.433 161.121 230.24 161.137 230.012 161.137C229.702 161.137 229.417 161.075 229.157 160.952C228.897 160.829 228.69 160.624 228.535 160.337C228.385 160.045 228.31 159.653 228.31 159.161V151.806ZM231.967 157.384V157.227C231.967 156.693 232.044 156.199 232.199 155.743C232.354 155.283 232.577 154.884 232.869 154.547C233.161 154.205 233.514 153.941 233.929 153.754C234.343 153.562 234.808 153.467 235.323 153.467C235.843 153.467 236.31 153.562 236.725 153.754C237.144 153.941 237.499 154.205 237.791 154.547C238.087 154.884 238.313 155.283 238.468 155.743C238.623 156.199 238.7 156.693 238.7 157.227V157.384C238.7 157.917 238.623 158.411 238.468 158.867C238.313 159.323 238.087 159.722 237.791 160.063C237.499 160.401 237.146 160.665 236.731 160.856C236.321 161.043 235.856 161.137 235.337 161.137C234.817 161.137 234.35 161.043 233.936 160.856C233.521 160.665 233.165 160.401 232.869 160.063C232.577 159.722 232.354 159.323 232.199 158.867C232.044 158.411 231.967 157.917 231.967 157.384ZM233.231 157.227V157.384C233.231 157.753 233.275 158.102 233.361 158.43C233.448 158.753 233.578 159.04 233.751 159.291C233.929 159.542 234.15 159.74 234.414 159.886C234.678 160.027 234.986 160.098 235.337 160.098C235.683 160.098 235.986 160.027 236.246 159.886C236.51 159.74 236.729 159.542 236.902 159.291C237.076 159.04 237.205 158.753 237.292 158.43C237.383 158.102 237.429 157.753 237.429 157.384V157.227C237.429 156.862 237.383 156.518 237.292 156.194C237.205 155.866 237.073 155.577 236.896 155.326C236.722 155.071 236.504 154.87 236.239 154.725C235.979 154.579 235.674 154.506 235.323 154.506C234.977 154.506 234.672 154.579 234.407 154.725C234.147 154.87 233.929 155.071 233.751 155.326C233.578 155.577 233.448 155.866 233.361 156.194C233.275 156.518 233.231 156.862 233.231 157.227ZM61.1641 183.038C61.1641 182.856 61.123 182.687 61.041 182.532C60.9635 182.373 60.8018 182.229 60.5557 182.102C60.3141 181.969 59.9495 181.855 59.4619 181.76C59.0518 181.673 58.6803 181.571 58.3477 181.452C58.0195 181.334 57.7393 181.19 57.5068 181.021C57.279 180.853 57.1035 180.655 56.9805 180.427C56.8574 180.199 56.7959 179.932 56.7959 179.627C56.7959 179.335 56.8597 179.06 56.9873 178.8C57.1195 178.54 57.304 178.31 57.541 178.109C57.7826 177.909 58.0719 177.752 58.4092 177.638C58.7464 177.524 59.1224 177.467 59.5371 177.467C60.1296 177.467 60.6354 177.572 61.0547 177.781C61.474 177.991 61.7952 178.271 62.0186 178.622C62.2419 178.968 62.3535 179.354 62.3535 179.777H61.0889C61.0889 179.572 61.0273 179.374 60.9043 179.183C60.7858 178.987 60.6104 178.825 60.3779 178.697C60.1501 178.57 59.8698 178.506 59.5371 178.506C59.1862 178.506 58.9014 178.561 58.6826 178.67C58.4684 178.775 58.3112 178.909 58.2109 179.073C58.1152 179.237 58.0674 179.41 58.0674 179.593C58.0674 179.729 58.0902 179.853 58.1357 179.962C58.1859 180.067 58.2725 180.165 58.3955 180.256C58.5186 180.342 58.6917 180.424 58.915 180.502C59.1383 180.579 59.4232 180.657 59.7695 180.734C60.3757 180.871 60.8747 181.035 61.2666 181.227C61.6585 181.418 61.9502 181.653 62.1416 181.931C62.333 182.209 62.4287 182.546 62.4287 182.942C62.4287 183.266 62.3604 183.562 62.2236 183.831C62.0915 184.1 61.8978 184.332 61.6426 184.528C61.3919 184.72 61.0911 184.87 60.7402 184.979C60.3939 185.084 60.0042 185.137 59.5713 185.137C58.9196 185.137 58.3682 185.021 57.917 184.788C57.4658 184.556 57.124 184.255 56.8916 183.886C56.6592 183.517 56.543 183.127 56.543 182.717H57.8145C57.8327 183.063 57.9329 183.339 58.1152 183.544C58.2975 183.744 58.5208 183.888 58.7852 183.975C59.0495 184.057 59.3115 184.098 59.5713 184.098C59.9176 184.098 60.207 184.052 60.4395 183.961C60.6764 183.87 60.8564 183.744 60.9795 183.585C61.1025 183.425 61.1641 183.243 61.1641 183.038ZM67.1865 177.604V178.574H63.1875V177.604H67.1865ZM64.541 175.806H65.8057V183.168C65.8057 183.419 65.8444 183.608 65.9219 183.735C65.9993 183.863 66.0996 183.947 66.2227 183.988C66.3457 184.029 66.4779 184.05 66.6191 184.05C66.724 184.05 66.8333 184.041 66.9473 184.022C67.0658 184 67.1546 183.981 67.2139 183.968L67.2207 185C67.1204 185.032 66.9883 185.062 66.8242 185.089C66.6647 185.121 66.471 185.137 66.2432 185.137C65.9333 185.137 65.6484 185.075 65.3887 184.952C65.1289 184.829 64.9215 184.624 64.7666 184.337C64.6162 184.045 64.541 183.653 64.541 183.161V175.806ZM73.0312 183.735V179.928C73.0312 179.636 72.972 179.383 72.8535 179.169C72.7396 178.95 72.5664 178.782 72.334 178.663C72.1016 178.545 71.8145 178.485 71.4727 178.485C71.1536 178.485 70.8734 178.54 70.6318 178.649C70.3949 178.759 70.208 178.902 70.0713 179.08C69.9391 179.258 69.873 179.449 69.873 179.654H68.6084C68.6084 179.39 68.6768 179.128 68.8135 178.868C68.9502 178.608 69.1462 178.374 69.4014 178.164C69.6611 177.95 69.971 177.781 70.3311 177.658C70.6956 177.531 71.1012 177.467 71.5479 177.467C72.0856 177.467 72.5596 177.558 72.9697 177.74C73.3844 177.923 73.708 178.198 73.9404 178.567C74.1774 178.932 74.2959 179.39 74.2959 179.941V183.387C74.2959 183.633 74.3164 183.895 74.3574 184.173C74.403 184.451 74.4691 184.69 74.5557 184.891V185H73.2363C73.1725 184.854 73.1224 184.66 73.0859 184.419C73.0495 184.173 73.0312 183.945 73.0312 183.735ZM73.25 180.516L73.2637 181.404H71.9854C71.6253 181.404 71.304 181.434 71.0215 181.493C70.7389 181.548 70.502 181.632 70.3105 181.746C70.1191 181.86 69.9733 182.004 69.873 182.177C69.7728 182.345 69.7227 182.544 69.7227 182.771C69.7227 183.004 69.7751 183.216 69.8799 183.407C69.9847 183.599 70.1419 183.751 70.3516 183.865C70.5658 183.975 70.8278 184.029 71.1377 184.029C71.5251 184.029 71.8669 183.947 72.1631 183.783C72.4593 183.619 72.694 183.419 72.8672 183.182C73.0449 182.945 73.1406 182.715 73.1543 182.491L73.6943 183.1C73.6624 183.291 73.5758 183.503 73.4346 183.735C73.2933 183.968 73.1042 184.191 72.8672 184.405C72.6348 184.615 72.3568 184.79 72.0332 184.932C71.7142 185.068 71.3542 185.137 70.9531 185.137C70.4518 185.137 70.012 185.039 69.6338 184.843C69.2601 184.647 68.9684 184.385 68.7588 184.057C68.5537 183.724 68.4512 183.353 68.4512 182.942C68.4512 182.546 68.5286 182.197 68.6836 181.896C68.8385 181.591 69.0618 181.338 69.3535 181.138C69.6452 180.933 69.9961 180.778 70.4062 180.673C70.8164 180.568 71.2744 180.516 71.7803 180.516H73.25ZM77.5498 178.766V185H76.2852V177.604H77.5156L77.5498 178.766ZM79.8604 177.562L79.8535 178.738C79.7487 178.715 79.6484 178.702 79.5527 178.697C79.4616 178.688 79.3568 178.684 79.2383 178.684C78.9466 178.684 78.6891 178.729 78.4658 178.82C78.2425 178.911 78.0534 179.039 77.8984 179.203C77.7435 179.367 77.6204 179.563 77.5293 179.791C77.4427 180.014 77.3857 180.26 77.3584 180.529L77.0029 180.734C77.0029 180.288 77.0462 179.868 77.1328 179.477C77.224 179.085 77.363 178.738 77.5498 178.438C77.7367 178.132 77.9736 177.895 78.2607 177.727C78.5524 177.553 78.8988 177.467 79.2998 177.467C79.391 177.467 79.4958 177.478 79.6143 177.501C79.7327 177.519 79.8148 177.54 79.8604 177.562ZM84.4678 177.604V178.574H80.4688V177.604H84.4678ZM81.8223 175.806H83.0869V183.168C83.0869 183.419 83.1257 183.608 83.2031 183.735C83.2806 183.863 83.3809 183.947 83.5039 183.988C83.627 184.029 83.7591 184.05 83.9004 184.05C84.0052 184.05 84.1146 184.041 84.2285 184.022C84.347 184 84.4359 183.981 84.4951 183.968L84.502 185C84.4017 185.032 84.2695 185.062 84.1055 185.089C83.946 185.121 83.7523 185.137 83.5244 185.137C83.2145 185.137 82.9297 185.075 82.6699 184.952C82.4102 184.829 82.2028 184.624 82.0479 184.337C81.8975 184.045 81.8223 183.653 81.8223 183.161V175.806ZM92.5205 177.604V178.574H88.5215V177.604H92.5205ZM89.875 175.806H91.1396V183.168C91.1396 183.419 91.1784 183.608 91.2559 183.735C91.3333 183.863 91.4336 183.947 91.5566 183.988C91.6797 184.029 91.8118 184.05 91.9531 184.05C92.0579 184.05 92.1673 184.041 92.2812 184.022C92.3997 184 92.4886 183.981 92.5479 183.968L92.5547 185C92.4544 185.032 92.3223 185.062 92.1582 185.089C91.9987 185.121 91.805 185.137 91.5771 185.137C91.2673 185.137 90.9824 185.075 90.7227 184.952C90.4629 184.829 90.2555 184.624 90.1006 184.337C89.9502 184.045 89.875 183.653 89.875 183.161V175.806ZM95.2686 174.5V185H94.0039V174.5H95.2686ZM94.9678 181.021L94.4414 181.001C94.446 180.495 94.5212 180.028 94.667 179.6C94.8128 179.167 95.0179 178.791 95.2822 178.472C95.5465 178.153 95.861 177.907 96.2256 177.733C96.5947 177.556 97.0026 177.467 97.4492 177.467C97.8138 177.467 98.1419 177.517 98.4336 177.617C98.7253 177.713 98.9736 177.868 99.1787 178.082C99.3883 178.296 99.5479 178.574 99.6572 178.916C99.7666 179.253 99.8213 179.666 99.8213 180.153V185H98.5498V180.14C98.5498 179.752 98.4928 179.442 98.3789 179.21C98.265 178.973 98.0986 178.802 97.8799 178.697C97.6611 178.588 97.3923 178.533 97.0732 178.533C96.7588 178.533 96.4717 178.599 96.2119 178.731C95.9567 178.864 95.7357 179.046 95.5488 179.278C95.3665 179.511 95.223 179.777 95.1182 180.078C95.0179 180.374 94.9678 180.689 94.9678 181.021ZM104.784 185.137C104.269 185.137 103.802 185.05 103.383 184.877C102.968 184.699 102.61 184.451 102.31 184.132C102.013 183.813 101.785 183.435 101.626 182.997C101.466 182.56 101.387 182.081 101.387 181.562V181.274C101.387 180.673 101.476 180.137 101.653 179.668C101.831 179.194 102.073 178.793 102.378 178.465C102.683 178.137 103.03 177.888 103.417 177.72C103.804 177.551 104.205 177.467 104.62 177.467C105.149 177.467 105.604 177.558 105.987 177.74C106.375 177.923 106.691 178.178 106.938 178.506C107.184 178.829 107.366 179.212 107.484 179.654C107.603 180.092 107.662 180.57 107.662 181.09V181.657H102.139V180.625H106.397V180.529C106.379 180.201 106.311 179.882 106.192 179.572C106.078 179.262 105.896 179.007 105.646 178.807C105.395 178.606 105.053 178.506 104.62 178.506C104.333 178.506 104.069 178.567 103.827 178.69C103.586 178.809 103.378 178.987 103.205 179.224C103.032 179.461 102.897 179.75 102.802 180.092C102.706 180.434 102.658 180.828 102.658 181.274V181.562C102.658 181.912 102.706 182.243 102.802 182.553C102.902 182.858 103.046 183.127 103.232 183.359C103.424 183.592 103.654 183.774 103.923 183.906C104.196 184.038 104.506 184.104 104.853 184.104C105.299 184.104 105.677 184.013 105.987 183.831C106.297 183.649 106.568 183.405 106.801 183.1L107.566 183.708C107.407 183.95 107.204 184.18 106.958 184.398C106.712 184.617 106.409 184.795 106.049 184.932C105.693 185.068 105.272 185.137 104.784 185.137ZM115.571 184.098C115.872 184.098 116.15 184.036 116.405 183.913C116.66 183.79 116.87 183.621 117.034 183.407C117.198 183.188 117.292 182.94 117.314 182.662H118.518C118.495 183.1 118.347 183.507 118.073 183.886C117.804 184.259 117.451 184.562 117.014 184.795C116.576 185.023 116.095 185.137 115.571 185.137C115.015 185.137 114.53 185.039 114.115 184.843C113.705 184.647 113.363 184.378 113.09 184.036C112.821 183.694 112.618 183.302 112.481 182.86C112.349 182.414 112.283 181.942 112.283 181.445V181.158C112.283 180.661 112.349 180.192 112.481 179.75C112.618 179.303 112.821 178.909 113.09 178.567C113.363 178.226 113.705 177.957 114.115 177.761C114.53 177.565 115.015 177.467 115.571 177.467C116.15 177.467 116.656 177.585 117.089 177.822C117.522 178.055 117.861 178.374 118.107 178.779C118.358 179.18 118.495 179.636 118.518 180.146H117.314C117.292 179.841 117.205 179.565 117.055 179.319C116.909 179.073 116.708 178.877 116.453 178.731C116.202 178.581 115.909 178.506 115.571 178.506C115.184 178.506 114.858 178.583 114.594 178.738C114.334 178.889 114.127 179.094 113.972 179.354C113.821 179.609 113.712 179.894 113.644 180.208C113.58 180.518 113.548 180.835 113.548 181.158V181.445C113.548 181.769 113.58 182.088 113.644 182.402C113.707 182.717 113.814 183.002 113.965 183.257C114.12 183.512 114.327 183.717 114.587 183.872C114.851 184.022 115.179 184.098 115.571 184.098ZM119.604 181.384V181.227C119.604 180.693 119.682 180.199 119.837 179.743C119.992 179.283 120.215 178.884 120.507 178.547C120.799 178.205 121.152 177.941 121.566 177.754C121.981 177.562 122.446 177.467 122.961 177.467C123.48 177.467 123.948 177.562 124.362 177.754C124.782 177.941 125.137 178.205 125.429 178.547C125.725 178.884 125.951 179.283 126.105 179.743C126.26 180.199 126.338 180.693 126.338 181.227V181.384C126.338 181.917 126.26 182.411 126.105 182.867C125.951 183.323 125.725 183.722 125.429 184.063C125.137 184.401 124.784 184.665 124.369 184.856C123.959 185.043 123.494 185.137 122.975 185.137C122.455 185.137 121.988 185.043 121.573 184.856C121.159 184.665 120.803 184.401 120.507 184.063C120.215 183.722 119.992 183.323 119.837 182.867C119.682 182.411 119.604 181.917 119.604 181.384ZM120.869 181.227V181.384C120.869 181.753 120.912 182.102 120.999 182.43C121.086 182.753 121.215 183.04 121.389 183.291C121.566 183.542 121.787 183.74 122.052 183.886C122.316 184.027 122.624 184.098 122.975 184.098C123.321 184.098 123.624 184.027 123.884 183.886C124.148 183.74 124.367 183.542 124.54 183.291C124.713 183.04 124.843 182.753 124.93 182.43C125.021 182.102 125.066 181.753 125.066 181.384V181.227C125.066 180.862 125.021 180.518 124.93 180.194C124.843 179.866 124.711 179.577 124.533 179.326C124.36 179.071 124.141 178.87 123.877 178.725C123.617 178.579 123.312 178.506 122.961 178.506C122.615 178.506 122.309 178.579 122.045 178.725C121.785 178.87 121.566 179.071 121.389 179.326C121.215 179.577 121.086 179.866 120.999 180.194C120.912 180.518 120.869 180.862 120.869 181.227ZM129.188 179.183V185H127.924V177.604H129.12L129.188 179.183ZM128.888 181.021L128.361 181.001C128.366 180.495 128.441 180.028 128.587 179.6C128.733 179.167 128.938 178.791 129.202 178.472C129.466 178.153 129.781 177.907 130.146 177.733C130.515 177.556 130.923 177.467 131.369 177.467C131.734 177.467 132.062 177.517 132.354 177.617C132.645 177.713 132.894 177.868 133.099 178.082C133.308 178.296 133.468 178.574 133.577 178.916C133.687 179.253 133.741 179.666 133.741 180.153V185H132.47V180.14C132.47 179.752 132.413 179.442 132.299 179.21C132.185 178.973 132.019 178.802 131.8 178.697C131.581 178.588 131.312 178.533 130.993 178.533C130.679 178.533 130.392 178.599 130.132 178.731C129.877 178.864 129.656 179.046 129.469 179.278C129.286 179.511 129.143 179.777 129.038 180.078C128.938 180.374 128.888 180.689 128.888 181.021ZM137.911 183.858L139.935 177.604H141.227L138.567 185H137.72L137.911 183.858ZM136.223 177.604L138.308 183.893L138.451 185H137.604L134.924 177.604H136.223ZM145.417 185.137C144.902 185.137 144.435 185.05 144.016 184.877C143.601 184.699 143.243 184.451 142.942 184.132C142.646 183.813 142.418 183.435 142.259 182.997C142.099 182.56 142.02 182.081 142.02 181.562V181.274C142.02 180.673 142.108 180.137 142.286 179.668C142.464 179.194 142.705 178.793 143.011 178.465C143.316 178.137 143.662 177.888 144.05 177.72C144.437 177.551 144.838 177.467 145.253 177.467C145.782 177.467 146.237 177.558 146.62 177.74C147.007 177.923 147.324 178.178 147.57 178.506C147.816 178.829 147.999 179.212 148.117 179.654C148.236 180.092 148.295 180.57 148.295 181.09V181.657H142.771V180.625H147.03V180.529C147.012 180.201 146.944 179.882 146.825 179.572C146.711 179.262 146.529 179.007 146.278 178.807C146.028 178.606 145.686 178.506 145.253 178.506C144.966 178.506 144.701 178.567 144.46 178.69C144.218 178.809 144.011 178.987 143.838 179.224C143.665 179.461 143.53 179.75 143.435 180.092C143.339 180.434 143.291 180.828 143.291 181.274V181.562C143.291 181.912 143.339 182.243 143.435 182.553C143.535 182.858 143.678 183.127 143.865 183.359C144.057 183.592 144.287 183.774 144.556 183.906C144.829 184.038 145.139 184.104 145.485 184.104C145.932 184.104 146.31 184.013 146.62 183.831C146.93 183.649 147.201 183.405 147.434 183.1L148.199 183.708C148.04 183.95 147.837 184.18 147.591 184.398C147.345 184.617 147.042 184.795 146.682 184.932C146.326 185.068 145.905 185.137 145.417 185.137ZM151.036 178.766V185H149.771V177.604H151.002L151.036 178.766ZM153.347 177.562L153.34 178.738C153.235 178.715 153.135 178.702 153.039 178.697C152.948 178.688 152.843 178.684 152.725 178.684C152.433 178.684 152.175 178.729 151.952 178.82C151.729 178.911 151.54 179.039 151.385 179.203C151.23 179.367 151.107 179.563 151.016 179.791C150.929 180.014 150.872 180.26 150.845 180.529L150.489 180.734C150.489 180.288 150.533 179.868 150.619 179.477C150.71 179.085 150.849 178.738 151.036 178.438C151.223 178.132 151.46 177.895 151.747 177.727C152.039 177.553 152.385 177.467 152.786 177.467C152.877 177.467 152.982 177.478 153.101 177.501C153.219 177.519 153.301 177.54 153.347 177.562ZM158.822 183.038C158.822 182.856 158.781 182.687 158.699 182.532C158.622 182.373 158.46 182.229 158.214 182.102C157.972 181.969 157.608 181.855 157.12 181.76C156.71 181.673 156.339 181.571 156.006 181.452C155.678 181.334 155.397 181.19 155.165 181.021C154.937 180.853 154.762 180.655 154.639 180.427C154.516 180.199 154.454 179.932 154.454 179.627C154.454 179.335 154.518 179.06 154.646 178.8C154.778 178.54 154.962 178.31 155.199 178.109C155.441 177.909 155.73 177.752 156.067 177.638C156.405 177.524 156.781 177.467 157.195 177.467C157.788 177.467 158.294 177.572 158.713 177.781C159.132 177.991 159.453 178.271 159.677 178.622C159.9 178.968 160.012 179.354 160.012 179.777H158.747C158.747 179.572 158.686 179.374 158.562 179.183C158.444 178.987 158.269 178.825 158.036 178.697C157.808 178.57 157.528 178.506 157.195 178.506C156.844 178.506 156.56 178.561 156.341 178.67C156.127 178.775 155.969 178.909 155.869 179.073C155.773 179.237 155.726 179.41 155.726 179.593C155.726 179.729 155.748 179.853 155.794 179.962C155.844 180.067 155.931 180.165 156.054 180.256C156.177 180.342 156.35 180.424 156.573 180.502C156.797 180.579 157.081 180.657 157.428 180.734C158.034 180.871 158.533 181.035 158.925 181.227C159.317 181.418 159.608 181.653 159.8 181.931C159.991 182.209 160.087 182.546 160.087 182.942C160.087 183.266 160.019 183.562 159.882 183.831C159.75 184.1 159.556 184.332 159.301 184.528C159.05 184.72 158.749 184.87 158.398 184.979C158.052 185.084 157.662 185.137 157.229 185.137C156.578 185.137 156.026 185.021 155.575 184.788C155.124 184.556 154.782 184.255 154.55 183.886C154.317 183.517 154.201 183.127 154.201 182.717H155.473C155.491 183.063 155.591 183.339 155.773 183.544C155.956 183.744 156.179 183.888 156.443 183.975C156.708 184.057 156.97 184.098 157.229 184.098C157.576 184.098 157.865 184.052 158.098 183.961C158.335 183.87 158.515 183.744 158.638 183.585C158.761 183.425 158.822 183.243 158.822 183.038ZM166.109 183.735V179.928C166.109 179.636 166.05 179.383 165.932 179.169C165.818 178.95 165.645 178.782 165.412 178.663C165.18 178.545 164.893 178.485 164.551 178.485C164.232 178.485 163.951 178.54 163.71 178.649C163.473 178.759 163.286 178.902 163.149 179.08C163.017 179.258 162.951 179.449 162.951 179.654H161.687C161.687 179.39 161.755 179.128 161.892 178.868C162.028 178.608 162.224 178.374 162.479 178.164C162.739 177.95 163.049 177.781 163.409 177.658C163.774 177.531 164.179 177.467 164.626 177.467C165.164 177.467 165.638 177.558 166.048 177.74C166.463 177.923 166.786 178.198 167.019 178.567C167.256 178.932 167.374 179.39 167.374 179.941V183.387C167.374 183.633 167.395 183.895 167.436 184.173C167.481 184.451 167.547 184.69 167.634 184.891V185H166.314C166.251 184.854 166.201 184.66 166.164 184.419C166.128 184.173 166.109 183.945 166.109 183.735ZM166.328 180.516L166.342 181.404H165.063C164.703 181.404 164.382 181.434 164.1 181.493C163.817 181.548 163.58 181.632 163.389 181.746C163.197 181.86 163.051 182.004 162.951 182.177C162.851 182.345 162.801 182.544 162.801 182.771C162.801 183.004 162.853 183.216 162.958 183.407C163.063 183.599 163.22 183.751 163.43 183.865C163.644 183.975 163.906 184.029 164.216 184.029C164.603 184.029 164.945 183.947 165.241 183.783C165.537 183.619 165.772 183.419 165.945 183.182C166.123 182.945 166.219 182.715 166.232 182.491L166.772 183.1C166.741 183.291 166.654 183.503 166.513 183.735C166.371 183.968 166.182 184.191 165.945 184.405C165.713 184.615 165.435 184.79 165.111 184.932C164.792 185.068 164.432 185.137 164.031 185.137C163.53 185.137 163.09 185.039 162.712 184.843C162.338 184.647 162.047 184.385 161.837 184.057C161.632 183.724 161.529 183.353 161.529 182.942C161.529 182.546 161.607 182.197 161.762 181.896C161.917 181.591 162.14 181.338 162.432 181.138C162.723 180.933 163.074 180.778 163.484 180.673C163.895 180.568 164.353 180.516 164.858 180.516H166.328ZM172.46 177.604V178.574H168.461V177.604H172.46ZM169.814 175.806H171.079V183.168C171.079 183.419 171.118 183.608 171.195 183.735C171.273 183.863 171.373 183.947 171.496 183.988C171.619 184.029 171.751 184.05 171.893 184.05C171.997 184.05 172.107 184.041 172.221 184.022C172.339 184 172.428 183.981 172.487 183.968L172.494 185C172.394 185.032 172.262 185.062 172.098 185.089C171.938 185.121 171.744 185.137 171.517 185.137C171.207 185.137 170.922 185.075 170.662 184.952C170.402 184.829 170.195 184.624 170.04 184.337C169.89 184.045 169.814 183.653 169.814 183.161V175.806ZM175.317 177.604V185H174.046V177.604H175.317ZM173.95 175.642C173.95 175.437 174.012 175.263 174.135 175.122C174.262 174.981 174.449 174.91 174.695 174.91C174.937 174.91 175.121 174.981 175.249 175.122C175.381 175.263 175.447 175.437 175.447 175.642C175.447 175.838 175.381 176.006 175.249 176.147C175.121 176.284 174.937 176.353 174.695 176.353C174.449 176.353 174.262 176.284 174.135 176.147C174.012 176.006 173.95 175.838 173.95 175.642ZM177.013 181.384V181.227C177.013 180.693 177.09 180.199 177.245 179.743C177.4 179.283 177.623 178.884 177.915 178.547C178.207 178.205 178.56 177.941 178.975 177.754C179.389 177.562 179.854 177.467 180.369 177.467C180.889 177.467 181.356 177.562 181.771 177.754C182.19 177.941 182.545 178.205 182.837 178.547C183.133 178.884 183.359 179.283 183.514 179.743C183.669 180.199 183.746 180.693 183.746 181.227V181.384C183.746 181.917 183.669 182.411 183.514 182.867C183.359 183.323 183.133 183.722 182.837 184.063C182.545 184.401 182.192 184.665 181.777 184.856C181.367 185.043 180.902 185.137 180.383 185.137C179.863 185.137 179.396 185.043 178.981 184.856C178.567 184.665 178.211 184.401 177.915 184.063C177.623 183.722 177.4 183.323 177.245 182.867C177.09 182.411 177.013 181.917 177.013 181.384ZM178.277 181.227V181.384C178.277 181.753 178.321 182.102 178.407 182.43C178.494 182.753 178.624 183.04 178.797 183.291C178.975 183.542 179.196 183.74 179.46 183.886C179.724 184.027 180.032 184.098 180.383 184.098C180.729 184.098 181.032 184.027 181.292 183.886C181.556 183.74 181.775 183.542 181.948 183.291C182.121 183.04 182.251 182.753 182.338 182.43C182.429 182.102 182.475 181.753 182.475 181.384V181.227C182.475 180.862 182.429 180.518 182.338 180.194C182.251 179.866 182.119 179.577 181.941 179.326C181.768 179.071 181.549 178.87 181.285 178.725C181.025 178.579 180.72 178.506 180.369 178.506C180.023 178.506 179.717 178.579 179.453 178.725C179.193 178.87 178.975 179.071 178.797 179.326C178.624 179.577 178.494 179.866 178.407 180.194C178.321 180.518 178.277 180.862 178.277 181.227ZM186.597 179.183V185H185.332V177.604H186.528L186.597 179.183ZM186.296 181.021L185.77 181.001C185.774 180.495 185.849 180.028 185.995 179.6C186.141 179.167 186.346 178.791 186.61 178.472C186.875 178.153 187.189 177.907 187.554 177.733C187.923 177.556 188.331 177.467 188.777 177.467C189.142 177.467 189.47 177.517 189.762 177.617C190.053 177.713 190.302 177.868 190.507 178.082C190.716 178.296 190.876 178.574 190.985 178.916C191.095 179.253 191.149 179.666 191.149 180.153V185H189.878V180.14C189.878 179.752 189.821 179.442 189.707 179.21C189.593 178.973 189.427 178.802 189.208 178.697C188.989 178.588 188.72 178.533 188.401 178.533C188.087 178.533 187.8 178.599 187.54 178.731C187.285 178.864 187.064 179.046 186.877 179.278C186.695 179.511 186.551 179.777 186.446 180.078C186.346 180.374 186.296 180.689 186.296 181.021Z" fill="#7B93AF"/>
</svg>
