<svg width="29" height="30" viewBox="0 0 29 30" fill="none" xmlns="http://www.w3.org/2000/svg">
<path d="M6.57339 1.77643C4.59699 2.97757 2.43721 5.13809 1.64257 7.46147C0.875954 9.70088 -0.188654 14.2662 0.114428 16.0247C0.41751 17.7831 1.24016 21.2542 3.13761 23.15C5.03505 25.0459 16.0046 26.7509 18.8036 25.9315C21.6027 25.1095 26.0802 21.7122 26.6405 20.1167C27.2008 18.5211 29.0702 12.0319 27.4173 7.48437C26.6201 5.29077 23.574 2.05636 21.1621 0.88067C18.7527 -0.295018 12.2352 -0.0736222 10.2231 0.292826C8.21105 0.654185 7.3884 1.2802 6.57339 1.77643Z" fill="#E8FCFC"/>
<path d="M15.416 17.0378C15.416 17.0378 15.9687 16.3584 17.2421 15.8927C17.2421 15.8927 24.8803 15.572 27.9646 16.1039L26.4085 17.1218L15.416 17.0378Z" fill="#F2CD70"/>
<path d="M26.4054 21.363C26.4054 21.363 27.3885 20.77 27.9845 20.1771C27.9845 20.1771 28.2163 16.4439 27.9616 16.1055C27.9616 16.1055 26.5761 16.8689 26.4054 17.1234C26.2348 17.3779 26.4054 21.363 26.4054 21.363Z" fill="#EAC55E"/>
<path d="M15.4149 17.0367C14.9794 17.2225 15.1603 20.5129 15.2443 21.0218C15.3283 21.5308 26.0228 21.4875 26.4049 21.3603C26.4049 21.3603 26.6595 17.3319 26.4049 17.1207C26.1527 16.9095 16.3064 16.655 15.4149 17.0367Z" fill="#FFE285"/>
<path d="M15.7119 17.2044C15.1694 17.3087 15.7119 17.7133 16.2213 17.7566C16.7306 17.7999 24.4121 18.0136 24.6235 17.6752C24.6694 17.6039 24.8757 17.3418 24.3102 17.2731C22.2141 17.011 16.4123 17.0695 15.7119 17.2044Z" fill="#FFE7A4"/>
<path d="M25.1192 26.4633C25.6936 25.9624 25.8653 25.2198 25.5027 24.8047C25.1401 24.3897 24.3805 24.4593 23.8061 24.9602C23.2317 25.4611 23.0601 26.2037 23.4227 26.6187C23.7853 27.0338 24.5448 26.9642 25.1192 26.4633Z" fill="#472F2C"/>
<path d="M25.689 25.2812C25.6075 25.5561 25.4292 25.8309 25.1694 26.06C24.5964 26.5613 23.8348 26.63 23.4732 26.2152C23.3586 26.0829 23.2974 25.92 23.2847 25.7393C23.1854 26.0701 23.2236 26.3933 23.4222 26.6198C23.7839 27.0346 24.5454 26.9659 25.1185 26.4646C25.5107 26.121 25.7145 25.6681 25.689 25.2812Z" fill="#2D1C1B"/>
<path d="M25.4939 25.1719C25.4251 25.2329 25.2876 25.1897 25.1882 25.0777C25.0889 24.9657 25.066 24.8232 25.1347 24.7622C25.2035 24.7011 25.341 24.7443 25.4404 24.8563C25.5397 24.9683 25.5626 25.1108 25.4939 25.1719Z" fill="#2D1C1B"/>
<path d="M24.4546 25.3848C24.2661 25.5146 24.0369 25.5121 23.9427 25.3772C23.8484 25.2423 23.9274 25.026 24.1159 24.8962C24.3043 24.7665 24.5336 24.769 24.6278 24.9039C24.722 25.0388 24.6456 25.2551 24.4546 25.3848Z" fill="#60403E"/>
<path d="M27.8925 25.7684C28.504 25.3134 28.7327 24.5864 28.4033 24.1446C28.074 23.7027 27.3113 23.7134 26.6999 24.1684C26.0884 24.6233 25.8598 25.3504 26.1891 25.7922C26.5185 26.2341 27.2811 26.2234 27.8925 25.7684Z" fill="#92A544"/>
<path d="M28.5585 24.6328C28.4541 24.9 28.258 25.1621 27.9804 25.3683C27.3691 25.8238 26.605 25.8339 26.2765 25.3912C26.1721 25.2512 26.1237 25.0832 26.1262 24.9026C26.0014 25.2232 26.0142 25.5515 26.195 25.7907C26.5235 26.2335 27.2876 26.2233 27.8989 25.7678C28.314 25.4573 28.5534 25.0196 28.5585 24.6328Z" fill="#7D8937"/>
<path d="M28.3721 24.5082C28.2983 24.5642 28.1658 24.5108 28.0741 24.3911C27.985 24.2715 27.9723 24.129 28.0461 24.073C28.12 24.0171 28.2524 24.0705 28.3441 24.1901C28.4333 24.3097 28.446 24.4522 28.3721 24.5082Z" fill="#6B722B"/>
<path d="M27.3194 24.6463C27.1207 24.7633 26.8915 24.7404 26.81 24.5979C26.726 24.4554 26.8202 24.2467 27.0214 24.1297C27.2201 24.0126 27.4493 24.0355 27.5308 24.178C27.6123 24.3205 27.5181 24.5292 27.3194 24.6463Z" fill="#B6C659"/>
<path d="M25.9268 23.8922C26.686 23.8227 27.2607 23.3217 27.2104 22.7731C27.1601 22.2244 26.5039 21.836 25.7447 21.9055C24.9856 21.9749 24.4109 22.476 24.4612 23.0246C24.5114 23.5732 25.1677 23.9617 25.9268 23.8922Z" fill="#472F2C"/>
<path d="M27.0908 23.2726C26.8641 23.4457 26.5585 23.5678 26.2121 23.5984C25.4531 23.6671 24.796 23.2777 24.7476 22.7306C24.7323 22.5576 24.7782 22.3871 24.8749 22.2344C24.5999 22.443 24.442 22.7281 24.47 23.0283C24.5209 23.578 25.1755 23.9674 25.9345 23.8961C26.4515 23.8478 26.8845 23.6009 27.0908 23.2726Z" fill="#2D1C1B"/>
<path d="M26.9973 23.0684C26.9056 23.076 26.819 22.9615 26.8063 22.8114C26.7936 22.6612 26.8572 22.534 26.9489 22.5238C27.0406 22.5162 27.1272 22.6307 27.14 22.7808C27.1527 22.931 27.089 23.0607 26.9973 23.0684Z" fill="#2D1C1B"/>
<path d="M26.0254 22.6346C25.7962 22.6295 25.6102 22.4921 25.6153 22.3292C25.6179 22.1638 25.8089 22.0366 26.0381 22.0391C26.2673 22.0442 26.4533 22.1816 26.4482 22.3445C26.4456 22.5099 26.2571 22.6397 26.0254 22.6346Z" fill="#60403E"/>
<path d="M6.54407 7.90702V5.65234H4.49636V7.90702C4.49636 8.65009 4.28497 9.3779 3.88765 10.0065L3.2662 10.9887C2.89436 11.574 2.69824 12.2535 2.69824 12.9457V24.9011C2.69824 25.1632 2.84597 25.4049 3.07774 25.5245C4.60843 26.3134 6.42947 26.3134 7.96016 25.5245C8.19447 25.4049 8.33965 25.1632 8.33965 24.9011V12.9482C8.33965 12.256 8.14354 11.5766 7.77169 10.9913L7.15024 10.009C6.75547 9.38044 6.54407 8.65264 6.54407 7.90702Z" fill="#F4E9E6"/>
<path d="M3.13477 14.5312V24.4813C3.13477 24.7027 3.25957 24.9063 3.45568 25.0081C4.74951 25.6774 6.29039 25.6774 7.58676 25.0081C7.78542 24.9063 7.90767 24.7027 7.90767 24.4813V14.5312H3.13477Z" fill="#F2CD70"/>
<path d="M3.36404 14.2305C3.36404 14.4213 3.36149 14.6224 3.36149 14.831C3.21632 14.7394 3.13482 14.6376 3.13482 14.5308C3.13227 14.4239 3.21632 14.3221 3.36404 14.2305Z" fill="#FFE285"/>
<path d="M7.90455 14.5318C7.90455 14.9187 6.83485 15.2342 5.5181 15.2342C5.11314 15.2342 4.73111 15.2037 4.39746 15.1528V13.9135C4.73111 13.86 5.11314 13.832 5.5181 13.832C6.8374 13.832 7.90455 14.145 7.90455 14.5318Z" fill="#FFE285"/>
<path d="M4.25566 10.5718C3.89655 10.61 3.5196 11.7602 3.40754 12.2972C3.30311 12.7985 3.39225 22.9114 3.40499 24.2729C3.40499 24.4001 3.45338 24.5223 3.54252 24.6139C3.54507 24.6165 3.54761 24.619 3.55016 24.6215C3.86343 24.9295 4.39574 24.6979 4.39574 24.2602V12.6356C4.39829 12.1827 4.7956 10.5133 4.25566 10.5718Z" fill="#FFE7A4"/>
<path d="M4.39996 18.0547V19.2355C4.25733 19.1566 4.17074 19.1108 4.02812 19.0395C4.00519 19.0268 3.99755 18.9988 4.01283 18.9784C4.09179 18.8588 4.14527 18.785 4.2395 18.6451C4.14272 18.5051 4.09179 18.4313 4.01283 18.3117C3.99755 18.2914 4.00519 18.2608 4.02812 18.2506C4.17074 18.1794 4.25733 18.1336 4.39996 18.0547Z" fill="#FFE7A4"/>
<path d="M4.39949 16.583V20.6113C4.05566 20.5579 3.71438 20.4816 3.37818 20.3772C3.37054 19.0794 3.3629 17.6416 3.36035 16.3438C3.70164 16.4481 4.04802 16.5295 4.39949 16.583Z" fill="#FFE7A4"/>
<path d="M4.39694 12.638V13.913C3.94614 13.9842 3.57939 14.0962 3.36035 14.2311C3.36545 13.1674 3.38073 12.4243 3.4062 12.297C3.51826 11.7601 3.8952 10.6099 4.25432 10.5717C4.79426 10.5157 4.39694 12.1851 4.39694 12.638Z" fill="#FFF9F8"/>
<path d="M4.39949 13.9141V15.1534C3.94614 15.0821 3.57939 14.9701 3.36035 14.8327C3.36035 14.6241 3.3629 14.423 3.3629 14.2322C3.58194 14.0973 3.94869 13.9853 4.39949 13.9141Z" fill="#FFEDC0"/>
<path d="M6.55469 6.45988H4.4866C4.43821 6.45988 4.39746 6.41916 4.39746 6.37081V5.55902C4.39746 5.26129 4.63942 5.01953 4.9374 5.01953H6.09879C6.39678 5.01953 6.63874 5.26129 6.63874 5.55902V6.37081C6.64129 6.4217 6.60308 6.45988 6.55469 6.45988Z" fill="#E8AC42"/>
<path d="M6.14464 5.02344C6.17521 5.0896 6.19303 5.16594 6.19303 5.24483V5.63418C6.19303 5.91665 5.96381 6.14569 5.68111 6.14569H4.39746V6.37472C4.39746 6.42307 4.43821 6.46378 4.4866 6.46378H6.55469C6.60308 6.46378 6.64383 6.42307 6.64383 6.37472V5.56293C6.63874 5.27791 6.42226 5.04634 6.14464 5.02344Z" fill="#DB9421"/>
<path d="M4.83519 5.68166H5.17648C5.3242 5.68166 5.44136 5.56205 5.44136 5.417C5.44136 5.2694 5.32165 5.15234 5.17648 5.15234H4.83519C4.68747 5.15234 4.57031 5.27195 4.57031 5.417C4.57031 5.5646 4.69002 5.68166 4.83519 5.68166Z" fill="#F2CD70"/>
<path d="M8.3422 20.1339C6.53644 20.8846 4.504 20.8846 2.69824 20.1339V16.1055C4.504 16.8562 6.53644 16.8562 8.3422 16.1055V20.1339Z" fill="#E8AC42"/>
<path d="M4.39949 16.583V20.6113C4.05566 20.5579 3.71438 20.4816 3.37818 20.3772C3.37054 19.0794 3.3629 17.6416 3.36035 16.3438C3.70164 16.4481 4.04802 16.5295 4.39949 16.583Z" fill="#FFC166"/>
<path d="M5.51268 17.3633C5.65276 17.2666 5.72663 17.2157 5.84633 17.1368C5.86671 17.1216 5.89727 17.1292 5.90745 17.1521C5.98386 17.3023 6.03225 17.3913 6.11885 17.5542C6.29204 17.5567 6.38373 17.5593 6.54418 17.5695C6.56456 17.572 6.58239 17.5873 6.58493 17.6102C6.59512 17.7705 6.59766 17.8647 6.60021 18.0352C6.76321 18.1242 6.85236 18.17 7.00262 18.2464C7.02555 18.2591 7.03319 18.2871 7.01791 18.3074C6.93641 18.4271 6.88547 18.5009 6.79123 18.6408C6.88801 18.7808 6.93895 18.8546 7.01791 18.9742C7.03319 18.9945 7.02555 19.0251 7.00262 19.0353C6.85236 19.1116 6.76321 19.1599 6.60021 19.2465C6.59766 19.4195 6.59512 19.5111 6.58493 19.6715C6.58239 19.6918 6.5671 19.7096 6.54418 19.7122C6.38373 19.7223 6.28949 19.7249 6.11885 19.7274C6.02971 19.8903 5.98386 19.9794 5.90745 20.1295C5.89472 20.1524 5.86671 20.16 5.84633 20.1448C5.72663 20.0633 5.65276 20.0124 5.51268 19.9183C5.3726 20.015 5.29875 20.0659 5.17904 20.1448C5.15867 20.16 5.1281 20.1524 5.11791 20.1295C5.0415 19.9794 4.99311 19.8903 4.90652 19.7274C4.73333 19.7249 4.64164 19.7223 4.48118 19.7122C4.46081 19.7096 4.44298 19.6944 4.44044 19.6715C4.43025 19.5111 4.4277 19.417 4.42515 19.2465C4.26215 19.1574 4.17301 19.1116 4.02274 19.0353C3.99982 19.0225 3.99218 18.9945 4.00746 18.9742C4.08896 18.8546 4.1399 18.7808 4.23414 18.6408C4.13735 18.5009 4.08642 18.4271 4.00746 18.3074C3.99218 18.2871 3.99982 18.2566 4.02274 18.2464C4.17301 18.17 4.26215 18.1217 4.42515 18.0352C4.4277 17.8621 4.43025 17.7705 4.44044 17.6102C4.44298 17.5898 4.45826 17.572 4.48118 17.5695C4.64164 17.5593 4.73587 17.5567 4.90652 17.5542C4.99566 17.3913 5.0415 17.3023 5.11791 17.1521C5.13065 17.1292 5.15867 17.1216 5.17904 17.1368C5.29875 17.2157 5.3726 17.2666 5.51268 17.3633Z" fill="#F2CD70"/>
<path d="M5.81235 19.3522C6.20742 19.1887 6.39503 18.7361 6.23138 18.3414C6.06774 17.9466 5.6148 17.7592 5.21973 17.9227C4.82466 18.0862 4.63706 18.5388 4.8007 18.9335C4.96435 19.3282 5.41728 19.5157 5.81235 19.3522Z" fill="#472F2C"/>
<path d="M4.39557 18.0508V19.2316C4.25294 19.1527 4.16635 19.1069 4.02372 19.0356C4.0008 19.0229 3.99316 18.9949 4.00844 18.9745C4.08739 18.8549 4.14087 18.7811 4.23511 18.6412C4.13833 18.5012 4.08739 18.4274 4.00844 18.3078C3.99316 18.2874 4.0008 18.2569 4.02372 18.2467C4.16635 18.1755 4.25294 18.1297 4.39557 18.0508Z" fill="#FFE285"/>
<path d="M13.7555 5.07889V2.82422H11.7078V5.07889C11.7078 5.82197 11.4964 6.54978 11.0991 7.17834L10.4776 8.16062C10.1058 8.74592 9.90967 9.42538 9.90967 10.1176V22.0729C9.90967 22.335 10.0574 22.5768 10.2892 22.6964C11.8198 23.4853 13.6409 23.4853 15.1716 22.6964C15.4059 22.5768 15.5511 22.335 15.5511 22.0729V10.1201C15.5511 9.42792 15.355 8.74846 14.9831 8.16317L14.3617 7.18088C13.9669 6.54978 13.7555 5.82197 13.7555 5.07889Z" fill="#F4E9E6"/>
<path d="M10.3462 11.7031V21.6532C10.3462 21.8746 10.471 22.0782 10.6671 22.18C11.9609 22.8493 13.5018 22.8493 14.7982 22.18C14.9968 22.0782 15.1191 21.8746 15.1191 21.6532V11.7031H10.3462Z" fill="#D7EF70"/>
<path d="M10.5754 11.4023C10.5754 11.5932 10.5729 11.7942 10.5729 12.0029C10.4277 11.9113 10.3462 11.8095 10.3462 11.7026C10.3462 11.5957 10.4277 11.494 10.5754 11.4023Z" fill="#EFFF92"/>
<path d="M15.1189 11.7037C15.1189 12.0905 14.0492 12.4061 12.7325 12.4061C12.3275 12.4061 11.9455 12.3756 11.6118 12.3247V11.0854C11.9455 11.0319 12.3275 11.0039 12.7325 11.0039C14.0492 11.0014 15.1189 11.3169 15.1189 11.7037Z" fill="#EFFF92"/>
<path d="M11.47 7.74356C11.1109 7.78174 10.734 8.93198 10.6219 9.46892C10.5175 9.97025 10.6066 20.0832 10.6193 21.4447C10.6193 21.5719 10.6677 21.694 10.7569 21.7857C10.7594 21.7882 10.762 21.7907 10.7645 21.7933C11.0778 22.1012 11.6101 21.8696 11.6101 21.4319V9.80738C11.6101 9.35441 12.0074 7.68758 11.47 7.74356Z" fill="#EFFF92"/>
<path d="M11.6109 13.7509V17.7793C11.2671 17.7259 10.9258 17.6495 10.5896 17.5452C10.582 16.2474 10.5743 14.8096 10.5718 13.5117C10.9105 13.6186 11.2594 13.6975 11.6109 13.7509Z" fill="#EFFF92"/>
<path d="M11.6084 9.8098V11.0847C11.1576 11.156 10.7908 11.268 10.5718 11.4028C10.5769 10.3391 10.5921 9.59604 10.6176 9.4688C10.7297 8.93186 11.1066 7.78162 11.4657 7.74344C12.0057 7.69 11.6084 9.35683 11.6084 9.8098Z" fill="#FFF9F8"/>
<path d="M11.6109 11.082V12.3213C11.1576 12.2501 10.7908 12.1381 10.5718 12.0007C10.5718 11.792 10.5743 11.591 10.5743 11.4001C10.7959 11.2653 11.1601 11.1533 11.6109 11.082Z" fill="#F8FFB6"/>
<path d="M13.7661 3.63175H11.698C11.6496 3.63175 11.6089 3.59103 11.6089 3.54268V2.7309C11.6089 2.43316 11.8508 2.19141 12.1488 2.19141H13.3102C13.6082 2.19141 13.8502 2.43316 13.8502 2.7309V3.54268C13.8553 3.59103 13.8145 3.63175 13.7661 3.63175Z" fill="#4F6B43"/>
<path d="M13.359 2.19141C13.3896 2.25757 13.4074 2.33391 13.4074 2.4128V2.80215C13.4074 3.08462 13.1782 3.31365 12.8955 3.31365H11.6118V3.54268C11.6118 3.59103 11.6526 3.63175 11.701 3.63175H13.7691C13.8174 3.63175 13.8582 3.59103 13.8582 3.54268V2.7309C13.8531 2.44843 13.6341 2.21685 13.359 2.19141Z" fill="#384D2F"/>
<path d="M12.0466 2.85353H12.3879C12.5356 2.85353 12.6528 2.73393 12.6528 2.58888C12.6528 2.44128 12.5331 2.32422 12.3879 2.32422H12.0466C11.8989 2.32422 11.7817 2.44382 11.7817 2.58888C11.7817 2.73393 11.9014 2.85353 12.0466 2.85353Z" fill="#6F9160"/>
<path d="M15.5536 17.3057C13.7479 18.0564 11.7154 18.0564 9.90967 17.3057V13.2773C11.7154 14.0281 13.7479 14.0281 15.5536 13.2773V17.3057Z" fill="#4F6B43"/>
<path d="M11.6109 13.7509V17.7793C11.2671 17.7259 10.9258 17.6495 10.5896 17.5452C10.582 16.2474 10.5743 14.8096 10.5718 13.5117C10.9105 13.6186 11.2594 13.6975 11.6109 13.7509Z" fill="#6F9160"/>
<path d="M13.0918 16.2682C13.074 16.2682 13.0587 16.258 13.0485 16.2427C13.0358 16.2198 13.046 16.1918 13.0689 16.1791C13.5604 15.9145 13.7922 15.2834 13.8915 14.9195C13.6165 15.1587 13.1122 15.0849 13.0842 15.0798C13.0587 15.0747 13.0409 15.0518 13.0434 15.0263C13.0485 15.0009 13.0714 14.9831 13.0969 14.9856C13.1045 14.9856 13.833 15.095 13.9501 14.6421C13.9552 14.6166 13.9807 14.6014 14.0062 14.6064C14.0316 14.6115 14.0469 14.6344 14.0444 14.6599C14.0367 14.7082 13.861 15.8585 13.1147 16.2606C13.1071 16.2656 13.0995 16.2682 13.0918 16.2682Z" fill="#F2CD70"/>
<path d="M13.0453 17.0172C13.3631 16.7398 13.458 16.3288 13.2572 16.0991C13.0564 15.8693 12.636 15.908 12.3182 16.1853C12.0003 16.4627 11.9054 16.8737 12.1062 17.1034C12.307 17.3331 12.7274 17.2945 13.0453 17.0172Z" fill="#92A544"/>
<path d="M13.362 16.3672C13.3162 16.5173 13.2194 16.6726 13.0742 16.7973C12.7558 17.0746 12.3356 17.1128 12.1344 16.8838C12.0707 16.81 12.0376 16.7209 12.03 16.6217C11.9739 16.8049 11.9969 16.983 12.1064 17.1103C12.3076 17.3393 12.7278 17.3011 13.0462 17.0237C13.2652 16.8329 13.3773 16.5809 13.362 16.3672Z" fill="#7D8937"/>
<path d="M12.6796 16.4228C12.5751 16.494 12.4478 16.494 12.3968 16.4177C12.3459 16.3439 12.3892 16.2243 12.4936 16.1505C12.5981 16.0792 12.7254 16.0792 12.7763 16.1556C12.8273 16.2319 12.784 16.3515 12.6796 16.4228Z" fill="#B6C659"/>
<path d="M12.5927 15.7266C13.0033 15.6293 13.279 15.3099 13.2086 15.0132C13.1382 14.7164 12.7483 14.5547 12.3377 14.652C11.9271 14.7493 11.6513 15.0687 11.7217 15.3654C11.7922 15.6622 12.1821 15.8239 12.5927 15.7266Z" fill="#92A544"/>
<path d="M13.179 15.2915C13.0669 15.4035 12.909 15.4951 12.7231 15.5384C12.313 15.6351 11.9234 15.4747 11.8521 15.177C11.8291 15.0828 11.8419 14.9861 11.8826 14.8945C11.7502 15.0294 11.684 15.1999 11.7222 15.3602C11.7935 15.658 12.1831 15.8183 12.5932 15.7216C12.8734 15.658 13.0898 15.4875 13.179 15.2915Z" fill="#7D8937"/>
<path d="M12.5477 15.0273C12.4204 15.0426 12.3109 14.9815 12.2981 14.8924C12.2879 14.8034 12.3796 14.7168 12.507 14.7016C12.6343 14.6863 12.7438 14.7474 12.7566 14.8364C12.7693 14.9255 12.6751 15.012 12.5477 15.0273Z" fill="#B6C659"/>
<path d="M5.26778 26.9901C4.93923 27.0817 5.05129 27.5983 5.29834 27.779C5.88413 28.209 6.63547 28.2268 7.07099 27.8069C7.75866 27.1402 7.23145 26.8196 6.98185 26.9265C6.76791 27.0181 6.57689 27.4151 6.22287 27.3921C5.8714 27.3692 5.68038 26.873 5.26778 26.9901Z" fill="#FDCB81"/>
<path d="M7.03077 26.9071C7.14539 27.014 7.16576 27.2379 6.83211 27.5637C6.48064 27.9047 5.87193 27.8894 5.3982 27.5408C5.2403 27.4262 5.15115 27.1438 5.25048 26.9911C4.94231 27.0954 5.05692 27.5967 5.29888 27.7749C5.88467 28.205 6.636 28.2228 7.07152 27.8029C7.71334 27.1794 7.29311 26.8588 7.03077 26.9071Z" fill="#EAB46C"/>
<path d="M5.68316 27.2771C5.64496 27.3407 5.53798 27.3458 5.44375 27.2898C5.34951 27.2339 5.30622 27.1346 5.34442 27.071C5.38262 27.0074 5.48959 27.0023 5.58383 27.0583C5.67806 27.1168 5.72391 27.2135 5.68316 27.2771Z" fill="#FFDAAE"/>
<path d="M4.22597 29.2652C4.01457 29.484 4.31001 29.9039 4.56725 29.9675C5.17851 30.1126 5.75156 29.8199 5.90947 29.2575C6.15652 28.3694 5.63186 28.2981 5.48923 28.4992C5.36443 28.6722 5.38226 29.1099 5.10719 29.2346C4.83213 29.3593 4.4883 28.9903 4.22597 29.2652Z" fill="#FDCB81"/>
<path d="M5.51884 28.4638C5.64873 28.5147 5.75316 28.7055 5.63345 29.1407C5.50611 29.5937 5.04257 29.8329 4.54847 29.7133C4.38547 29.6751 4.20464 29.4563 4.21483 29.2781C4.02635 29.4995 4.31161 29.9067 4.5663 29.9678C5.17756 30.1128 5.75061 29.8202 5.90852 29.2578C6.13774 28.4256 5.69458 28.3111 5.51884 28.4638Z" fill="#EAB46C"/>
<path d="M4.69386 29.3829C4.68113 29.4567 4.58435 29.4999 4.47483 29.4821C4.36786 29.4643 4.28891 29.388 4.30164 29.3142C4.31438 29.2404 4.41116 29.1971 4.52068 29.2149C4.6302 29.2327 4.7066 29.3091 4.69386 29.3829Z" fill="#FFDAAE"/>
<path d="M6.6148 28.4384C6.29389 28.614 6.56386 29.0823 6.87459 29.1917C7.61319 29.4512 8.41292 29.2706 8.74911 28.7514C9.28141 27.9269 8.6345 27.7564 8.40273 27.9269C8.20407 28.072 8.11493 28.5046 7.73799 28.5758C7.36104 28.6471 7.01721 28.2196 6.6148 28.4384Z" fill="#FDCB81"/>
<path d="M8.45307 27.8983C8.60334 27.9721 8.69248 28.1807 8.4327 28.5828C8.16018 29.0053 7.51327 29.1503 6.91474 28.9391C6.71608 28.8704 6.54034 28.621 6.59892 28.448C6.30348 28.6312 6.56836 29.0841 6.87399 29.191C7.61259 29.4506 8.41232 29.2699 8.74852 28.7508C9.25026 27.9797 8.71286 27.7812 8.45307 27.8983Z" fill="#EAB46C"/>
<path d="M7.08472 28.6161C7.06435 28.6873 6.96248 28.723 6.85805 28.6924C6.75363 28.6619 6.68486 28.5805 6.70524 28.5092C6.72561 28.4379 6.82749 28.4023 6.93191 28.4329C7.03633 28.4608 7.1051 28.5448 7.08472 28.6161Z" fill="#FFDAAE"/>
<path d="M15.4106 26.4887C13.531 28.4355 10.4288 28.494 8.48044 26.616C7.63232 25.7991 7.22735 24.9644 7.21462 24.0864C7.19934 22.9464 7.8488 21.7376 9.06113 20.4169C10.1461 19.2336 11.063 18.5617 11.9009 18.3123C13.098 17.9561 14.1371 18.4599 15.2832 19.5618C17.2316 21.4424 17.2902 24.542 15.4106 26.4887Z" fill="#A06648"/>
<path d="M16.4167 21.2308C16.3199 22.722 15.5457 24.1496 14.1958 25.0276C12.0819 26.4018 9.30066 25.9361 7.7394 24.03C8.25133 23.0554 11.0657 17.9455 13.1057 19.2051C13.1057 19.2051 12.9096 18.149 11.9036 18.3145C11.0657 18.5638 10.1488 19.2357 9.06379 20.419C8.09852 21.4725 7.48981 22.4523 7.2886 23.3837C7.28605 23.3913 7.28605 23.3964 7.28351 23.404C7.27841 23.4269 7.27332 23.4498 7.27077 23.4702C7.26823 23.4829 7.26568 23.4982 7.26313 23.5109C7.25804 23.5338 7.25549 23.5542 7.25294 23.5771C7.25039 23.5923 7.24785 23.6051 7.24785 23.6203C7.2453 23.6407 7.24275 23.6636 7.2402 23.6839C7.23766 23.6992 7.23766 23.7119 7.23511 23.7272C7.23257 23.7476 7.23002 23.7679 7.23002 23.7883C7.22747 23.8035 7.22747 23.8188 7.22747 23.8341C7.22492 23.8544 7.22492 23.8748 7.22238 23.8952C7.22238 23.9104 7.21983 23.9257 7.21983 23.941C7.21983 23.9613 7.21729 23.9791 7.21729 23.9995C7.21729 24.0148 7.21729 24.0326 7.21729 24.0478C7.21729 24.0606 7.21729 24.0733 7.21729 24.0886C7.23002 24.964 7.63498 25.8012 8.4831 26.6181C10.4315 28.4961 13.5362 28.4376 15.4132 26.4908C16.8038 25.0479 17.1324 22.974 16.4167 21.2308Z" fill="#844A30"/>
<path d="M14.4569 23.2332C15.3113 22.3795 15.3113 20.9955 14.4569 20.1418C13.6025 19.2881 12.2173 19.2881 11.3629 20.1418C10.5085 20.9955 10.5085 22.3795 11.3629 23.2332C12.2173 24.0869 13.6025 24.0869 14.4569 23.2332Z" fill="#BC7F64"/>
<path d="M11.8356 22.9502C10.4679 24.5101 8.70033 25.1947 7.88532 24.4821C7.0703 23.7696 7.91588 22.2758 9.28357 20.7158C10.6513 19.1559 12.0189 18.1227 12.834 18.8353C13.649 19.5503 13.2007 21.3902 11.8356 22.9502Z" fill="#FDFEFB"/>
<path d="M11.3038 22.4872C10.4404 23.4721 9.32484 23.9047 8.81036 23.4543C8.29589 23.0038 8.83074 22.0623 9.69159 21.0774C10.555 20.0926 11.4184 19.4411 11.9329 19.8916C12.4499 20.3395 12.1672 21.5024 11.3038 22.4872Z" fill="#E7C9B8"/>
<path d="M23.2934 24.6605C23.6576 23.7801 23.6882 22.8996 24.7095 21.2862C25.5474 19.9603 25.6544 18.9551 25.1144 18.548C24.6458 18.1968 16.376 25.172 16.376 25.172C17.6851 27.3351 19.9671 27.3733 21.4163 26.6913C21.9919 26.4215 22.84 25.7599 23.2934 24.6605Z" fill="#384D2F"/>
<path d="M21.9968 25.3847C22.1598 25.6672 21.8618 26.143 21.332 26.4484C20.8023 26.7538 20.242 26.7742 20.079 26.4917C19.9159 26.2092 20.2649 26.2856 20.7946 25.9802C21.3244 25.6748 21.8338 25.1022 21.9968 25.3847Z" fill="#4F6B43"/>
<path d="M22.594 23.428C23.0015 22.5653 23.8471 21.4227 24.4507 20.5956C25.0492 19.7762 25.528 18.8372 24.9881 18.43C24.5195 18.0789 23.4803 18.4784 22.5431 18.9772C21.5269 19.5192 20.1464 20.2852 19.0818 20.6669C18.4986 20.8756 17.923 21.2038 17.4212 21.6365C15.9338 22.9216 15.6282 24.6851 16.7438 25.558C17.8822 26.4486 20.0395 26.0949 21.5396 24.7818C22.021 24.3619 22.375 23.8962 22.594 23.428Z" fill="#CCD374"/>
<path d="M22.5939 23.428C23.0014 22.5654 23.847 21.4228 24.4506 20.5957C25.0491 19.7763 25.5279 18.8373 24.988 18.4301C24.8556 18.3309 24.6773 18.2901 24.4684 18.2978C24.7511 18.7609 24.3538 19.5167 23.8648 20.1758C23.3121 20.9214 22.5379 21.9495 22.1711 22.7435C21.9725 23.1761 21.6337 23.5833 21.2084 23.9599C19.5987 25.3774 17.7853 25.4588 16.708 24.5172C16.4304 24.2729 16.275 23.7894 16.1757 23.4662C15.9388 24.2856 16.1146 25.0669 16.7462 25.5606C17.8847 26.4512 20.0419 26.0975 21.542 24.7844C22.0208 24.362 22.3749 23.8963 22.5939 23.428Z" fill="#B5B758"/>
<path d="M20.2057 24.0299C21.1852 23.4029 21.6544 22.3881 21.2538 21.7633C20.8532 21.1385 19.7344 21.1402 18.7549 21.7672C17.7755 22.3941 17.3062 23.4089 17.7068 24.0337C18.1074 24.6585 19.2262 24.6568 20.2057 24.0299Z" fill="#B5B758"/>
<path d="M20.1529 23.8815C21.0663 23.2742 21.4549 22.2535 21.0208 21.6018C20.5868 20.9501 19.4945 20.9141 18.5811 21.5214C17.6677 22.1288 17.2791 23.1494 17.7132 23.8011C18.1472 24.4528 19.2395 24.4888 20.1529 23.8815Z" fill="#A06648"/>
<path d="M20.8178 21.3725C20.7694 21.3318 20.7159 21.2962 20.6599 21.2656C21.1209 21.7873 21.0292 22.6016 20.4078 23.1691C19.7277 23.7926 18.6759 23.8867 18.0544 23.3803C17.8176 23.1869 17.68 22.935 17.6342 22.6627C17.4432 23.1869 17.5298 23.7061 17.9194 24.0267C18.5409 24.5331 19.6895 24.3474 20.4893 23.6145C21.289 22.8816 21.4393 21.8789 20.8178 21.3725Z" fill="#844A30"/>
<path d="M19.5145 22.1316C19.9117 21.9485 20.154 21.6273 20.0556 21.4142C19.9572 21.2011 19.5554 21.1768 19.1582 21.3599C18.761 21.543 18.5187 21.8642 18.6171 22.0773C18.7155 22.2904 19.1173 22.3147 19.5145 22.1316Z" fill="#BC7F64"/>
</svg>
