<svg width="29" height="30" viewBox="0 0 29 30" fill="none" xmlns="http://www.w3.org/2000/svg">
<path d="M6.79159 1.80039C4.78853 3.01773 2.59962 5.20739 1.79427 7.56211C1.01731 9.83172 -0.0616575 14.4586 0.245513 16.2408C0.552683 18.023 1.38643 21.5409 3.30947 23.4623C5.23251 25.3837 16.35 27.1117 19.1868 26.2812C22.0236 25.4482 26.5615 22.0051 27.1294 20.388C27.6972 18.7709 29.5919 12.1942 27.9166 7.58532C27.1087 5.36214 24.0215 2.0841 21.5771 0.892549C19.1352 -0.298997 12.5297 -0.0746152 10.4905 0.296776C8.45134 0.668167 7.62017 1.29747 6.79159 1.80039Z" fill="#E8FCFC"/>
<path d="M7.40408 12.5381C7.40408 12.5381 8.36173 11.5968 10.1505 11.4188C12.4453 11.1918 17.2542 14.0985 19.0198 15.8058C20.9944 17.7144 18.3796 22.398 15.7312 23.0789C13.7178 23.5973 6.6581 20.4353 7.40408 12.5381Z" fill="#C24244"/>
<path d="M19.0946 15.8846C19.203 18.2084 15.8835 21.017 13.4855 20.8778C11.8025 20.7797 7.69834 17.3624 7.87645 12.1836C7.56412 12.3822 7.40408 12.5395 7.40408 12.5395C6.6581 20.4393 13.7178 23.5987 15.7312 23.0803C18.3435 22.4072 20.9247 17.837 19.0946 15.8846Z" fill="#B53A3D"/>
<path d="M4.53102 16.2326C6.02557 14.453 7.03484 12.0209 8.86238 11.8584C10.6899 11.6985 12.1922 14.3782 13.6248 16.0211C15.0574 17.664 17.5096 19.459 17.2024 21.61C16.8953 23.7584 12.2748 23.6836 9.14889 23.6398C6.27079 23.6011 2.80415 23.142 1.93685 21.3082C0.653964 18.5976 2.95903 18.105 4.53102 16.2326Z" fill="#D14A4A"/>
<path d="M13.6231 16.0252C12.1905 14.3823 10.6882 11.7 8.86071 11.8625C8.24121 11.9167 7.71463 12.2339 7.23193 12.6982C7.68107 12.2984 8.16893 12.0276 8.73681 11.9786C10.5643 11.8187 12.0666 14.4984 13.4992 16.1413C14.9318 17.7841 17.384 19.5792 17.0769 21.7302C17.0304 22.0603 16.8807 22.3363 16.6535 22.5684C16.953 22.3131 17.1466 21.9984 17.2034 21.6141C17.5105 19.4631 15.0583 17.6681 13.6231 16.0252Z" fill="#EFD4C7"/>
<path d="M8.47395 16.734C8.11257 16.8681 8.05836 17.5516 7.85702 17.7038C7.4466 18.0133 7.35368 18.1835 7.34335 18.4955C7.33303 18.8076 8.21323 19.1455 8.98503 19.0758C9.79555 19.001 10.206 18.8773 10.1466 18.5652C10.0898 18.2505 9.38771 17.4871 9.26381 17.1415C9.13733 16.7933 8.81467 16.6102 8.47395 16.734Z" fill="#EFD4C7"/>
<path d="M8.56025 17.3148C8.35891 17.3896 8.33052 17.7687 8.21953 17.8512C7.99238 18.0214 7.94075 18.1169 7.93559 18.2897C7.93042 18.4625 8.41828 18.6507 8.84677 18.6121C9.29591 18.5708 9.52306 18.5037 9.49209 18.3284C9.46111 18.153 9.07134 17.73 9.00165 17.5392C8.92937 17.3483 8.75126 17.2451 8.56025 17.3148Z" fill="#D3AE9F"/>
<path d="M7.77701 12.6287C7.05426 12.9021 6.51477 14.3103 6.34957 14.9989C6.18695 15.6849 6.72644 16.0409 7.64536 16.2059C8.56429 16.371 9.26382 16.2085 9.75168 16.7372C10.2395 17.2659 11.8477 16.3065 11.8735 15.6153C11.8993 14.9241 9.83944 11.8524 7.77701 12.6287Z" fill="#F97C75"/>
<path d="M7.86096 12.7534C7.18209 13.0088 6.67616 14.3319 6.52128 14.9766C6.36641 15.6214 6.87492 15.9541 7.73706 16.1114C8.5992 16.2662 9.25485 16.114 9.71431 16.6092C10.1738 17.1044 11.6812 16.2069 11.7045 15.5569C11.7303 14.9096 9.79691 12.0261 7.86096 12.7534Z" fill="#E55655"/>
<path d="M10.6954 17.5542C10.4321 17.9076 10.7031 18.5704 10.6437 18.9366C10.5844 19.3029 10.8451 19.7129 11.5136 20.3912C12.1822 21.0695 14.0536 22.7331 15.4552 22.519C16.8594 22.3024 16.6374 20.4944 15.5791 19.1172C14.5208 17.7399 12.9127 16.2028 12.4945 16.2801C12.0763 16.3575 11.2555 16.8037 10.6954 17.5542Z" fill="#F97C75"/>
<path d="M10.9456 17.7217C10.7055 18.0441 10.9533 18.6476 10.8991 18.9829C10.8449 19.3182 11.085 19.6921 11.6941 20.3085C12.3033 20.9275 14.0095 22.444 15.2873 22.248C16.565 22.052 16.3662 20.404 15.4008 19.1479C14.4354 17.8919 12.9719 16.4915 12.5898 16.5611C12.2052 16.6307 11.4567 17.0356 10.9456 17.7217Z" fill="#E55655"/>
<path d="M5.14686 16.2923C5.65279 15.7842 7.10604 16.3568 7.06216 17.2363C7.02086 18.1157 6.67497 18.3479 7.14218 19.0287C7.60939 19.7096 7.64036 22.6395 6.52526 22.82C5.41015 23.0006 2.70499 22.3919 2.483 20.9063C2.26101 19.4182 2.1242 19.3228 5.14686 16.2923Z" fill="#F97C75"/>
<path d="M5.17633 16.5503C5.64096 16.0834 6.97547 16.6096 6.93675 17.4168C6.89803 18.2241 6.58054 18.4382 7.00903 19.0623C7.43752 19.6865 7.46591 22.3765 6.44115 22.5415C5.41639 22.7066 2.93321 22.1495 2.72929 20.7852C2.52537 19.4208 2.40147 19.3305 5.17633 16.5503Z" fill="#E55655"/>
<path d="M7.88186 19.7663C7.81217 19.9314 7.73473 22.6859 8.00576 22.869C8.27679 23.0521 13.367 23.5009 13.4729 22.7581C13.5787 22.0153 11.1575 21.0817 10.507 19.903C10.2205 19.3846 8.09095 19.2815 7.88186 19.7663Z" fill="#F97C75"/>
<path d="M8.0003 19.8839C7.93577 20.0361 7.8635 22.5842 8.11388 22.7544C8.36426 22.9247 13.0751 23.3399 13.1732 22.6513C13.2712 21.9627 11.0307 21.0987 10.4293 20.0077C10.166 19.5306 8.19389 19.4351 8.0003 19.8839Z" fill="#E55655"/>
<path d="M10.5641 11.7641C10.2079 11.7898 10.8842 12.6023 12.1826 13.0949C13.4809 13.5901 17.2728 15.3026 17.1592 14.9338C17.0508 14.5675 12.8279 11.6041 10.5641 11.7641Z" fill="#DD575E"/>
<path d="M23.3829 21.3103C22.0587 21.8287 20.5874 21.8287 19.2658 21.3103C19.1832 21.2767 19.1238 21.202 19.1135 21.1143L17.8564 10.0938H24.7923L23.5352 21.1143C23.5249 21.2045 23.4655 21.2793 23.3829 21.3103Z" fill="#C7DFEF"/>
<path d="M23.2296 20.9131C22.0035 21.3928 20.6406 21.3928 19.4145 20.9131C19.3371 20.8821 19.2829 20.8125 19.2726 20.73L18.1084 10.0938H24.5332L23.369 20.73C23.3613 20.8125 23.3071 20.8821 23.2296 20.9131Z" fill="#DCF3FF"/>
<path d="M18.3779 12.5156L19.2762 20.7275C19.2865 20.81 19.3407 20.8797 19.4182 20.9106C20.6443 21.3903 22.0072 21.3903 23.2333 20.9106C23.3107 20.8797 23.3649 20.81 23.3752 20.7275L24.2735 12.5156H18.3779Z" fill="#F4F5F7"/>
<path d="M21.3228 13.0917C22.9508 13.0917 24.2706 12.8342 24.2706 12.5165C24.2706 12.1989 22.9508 11.9414 21.3228 11.9414C19.6948 11.9414 18.375 12.1989 18.375 12.5165C18.375 12.8342 19.6948 13.0917 21.3228 13.0917Z" fill="white"/>
<path d="M21.3231 10.7707C23.2376 10.7707 24.7897 10.467 24.7897 10.0924C24.7897 9.71775 23.2376 9.41406 21.3231 9.41406C19.4085 9.41406 17.8564 9.71775 17.8564 10.0924C17.8564 10.467 19.4085 10.7707 21.3231 10.7707Z" fill="#C7DFEF"/>
<path d="M21.3229 10.68C22.9865 10.68 24.3352 10.4167 24.3352 10.0919C24.3352 9.76718 22.9865 9.50391 21.3229 9.50391C19.6592 9.50391 18.3105 9.76718 18.3105 10.0919C18.3105 10.4167 19.6592 10.68 21.3229 10.68Z" fill="#A9C4D3"/>
<path d="M24.3351 10.0938C24.3351 10.4187 22.9876 10.6818 21.3227 10.6818C19.6604 10.6818 18.3104 10.4187 18.3104 10.0938H17.8535C17.8535 10.4677 19.4049 10.7721 21.3202 10.7721C23.2354 10.7721 24.7868 10.4677 24.7868 10.0938H24.3351Z" fill="#C7DFEF"/>
<path d="M6.39935 25.2015C6.39935 27.1281 5.22746 28.1288 3.78195 28.1288C2.33645 28.1288 1.16455 27.1281 1.16455 25.2015C1.16455 23.2749 2.63846 21.1523 3.78195 21.1523C4.8635 21.1523 6.39935 23.2749 6.39935 25.2015Z" fill="#EAA27A"/>
<path d="M4.20593 21.25C4.97257 22.0108 5.59981 23.4809 5.43461 24.7498C5.20746 26.4985 3.92973 27.2593 2.49455 27.0736C2.13318 27.0272 1.79503 26.924 1.49561 26.7693C1.94475 27.6694 2.79914 28.1311 3.78002 28.1311C5.22553 28.1311 6.39743 27.1304 6.39743 25.2038C6.40001 23.517 5.22295 21.6807 4.20593 21.25Z" fill="#CE8763"/>
<path d="M3.28263 23.432C3.60461 22.7192 3.59807 22.0207 3.26801 21.8719C2.93796 21.723 2.40938 22.1802 2.0874 22.893C1.76541 23.6058 1.77196 24.3043 2.10201 24.4531C2.43207 24.6019 2.96065 24.1448 3.28263 23.432Z" fill="#F4B595"/>
<path d="M22.8643 18.1783L23.1947 18.0391L26.9452 21.0231C26.9452 21.0231 27.9468 24.9382 26.8884 27.6101L26.6097 27.6256L26.1425 21.4873L22.8643 18.1783Z" fill="#DD855F"/>
<path d="M26.1484 21.5547L26.6131 27.6259L26.8918 27.6105C27.9502 24.9411 26.9486 21.0234 26.9486 21.0234L26.6156 21.1008L26.1484 21.5547Z" fill="#EF9575"/>
<path d="M12.2247 26.3382C12.1783 25.941 11.8298 25.647 11.4116 25.6289L11.4323 25.8223C11.6284 25.9487 11.7653 26.1499 11.7911 26.3897C11.8195 26.6322 11.7291 26.8591 11.5639 27.0294L11.5846 27.2202C11.995 27.1067 12.2712 26.7379 12.2247 26.3382Z" fill="#F5A968"/>
<path d="M15.8342 27.8293C15.9788 27.6772 16.2653 27.5817 16.4847 27.5817C16.6964 27.5817 16.9003 27.6669 17.0448 27.8087L17.272 27.8035C17.1816 27.4244 16.8616 27.1459 16.4821 27.1485C16.0949 27.151 15.7748 27.4425 15.6948 27.8345L15.8342 27.8293Z" fill="#F5A968"/>
<path d="M23.539 27.6877C23.6629 27.5922 23.8333 27.5329 23.9959 27.5277C24.1714 27.52 24.3315 27.5742 24.4683 27.6696L24.7729 27.6644C24.6516 27.3188 24.3392 27.079 23.9804 27.0945C23.632 27.1074 23.3454 27.3575 23.2422 27.6928L23.539 27.6877Z" fill="#F5A968"/>
<path d="M26.613 21.1055L11.1538 23.2797L11.4352 25.8227C11.4584 25.8201 11.4842 25.8175 11.51 25.8175C11.8508 25.8175 12.1269 26.0935 12.1269 26.4339C12.1269 26.7537 11.8843 27.0168 11.572 27.0477L11.6675 27.9143L15.8362 27.8344C15.9343 27.5945 16.1718 27.4243 16.448 27.4243C16.7164 27.4243 16.9462 27.5842 17.0494 27.8111L23.5439 27.6873C23.6291 27.512 23.8072 27.3907 24.0137 27.3907C24.2124 27.3907 24.3879 27.5042 24.4731 27.6693L26.6156 27.628C26.613 27.628 27.55 24.5666 26.613 21.1055Z" fill="#FDCB81"/>
<path d="M22.8643 18.1758L18.8762 19.9115C18.8788 19.9373 18.8814 19.9605 18.8814 19.9863C18.8814 20.2958 18.631 20.546 18.3213 20.546C18.1457 20.546 17.9909 20.466 17.8876 20.3422L13.595 22.2095C13.595 22.2121 13.595 22.2147 13.595 22.2147C13.595 22.3668 13.4711 22.4932 13.3162 22.4932C13.2414 22.4932 13.1717 22.4623 13.1226 22.4133L11.1479 23.2721L26.6071 21.0979L22.8643 18.1758Z" fill="#F5A968"/>
<path d="M25.7859 22.2358C25.6646 22.0734 25.2645 22.0115 24.9186 22.2358C24.7328 22.3571 24.4178 22.5273 24.3791 22.6872C24.2939 23.0508 24.8308 23.2236 25.2309 23.1385C25.631 23.0534 26.0466 22.5814 25.7859 22.2358Z" fill="#F5A968"/>
<path d="M13.8406 23.7805C13.6393 23.961 13.616 24.5078 13.8742 24.6651C14.1323 24.8225 14.7595 24.7863 14.7931 24.5078C14.8266 24.2293 14.5324 24.0565 14.4627 23.9017C14.3982 23.7444 14.0161 23.6232 13.8406 23.7805Z" fill="#F5A968"/>
<path d="M13.4763 26.7057C13.3602 26.8992 13.6673 27.1416 13.8222 27.0875C13.9771 27.0333 14.2585 26.8605 14.2585 26.6361C14.2585 26.551 13.8584 26.0635 13.4763 26.7057Z" fill="#F5A968"/>
<path d="M16.3241 25.6241C16.5951 25.2811 17.2611 25.5106 17.3824 25.735C17.5037 25.9594 17.6328 26.3746 17.274 26.4185C16.9152 26.4623 16.7758 26.1863 16.5667 26.1167C16.3576 26.0471 16.1666 25.8227 16.3241 25.6241Z" fill="#F5A968"/>
<path d="M19.602 23.2726C19.4936 23.3138 19.429 23.3938 19.602 23.6543C19.7749 23.9148 20.4693 23.9664 20.6422 23.8787C20.8152 23.791 21.0062 23.2984 20.7971 23.1539C20.588 23.0095 20.3325 23.3912 20.1905 23.3396C20.0537 23.2906 19.8291 23.1875 19.602 23.2726Z" fill="#F5A968"/>
<path d="M17.3455 23.5218C17.1906 23.7049 17.0848 23.8983 17.1906 24.0196C17.2965 24.1408 17.7456 24.2285 17.8669 24.1588C17.9882 24.0892 18.0063 23.9035 17.9702 23.7204C17.9366 23.5347 17.4617 23.3851 17.3455 23.5218Z" fill="#F5A968"/>
<path d="M20.5378 25.4904C19.9596 25.6245 19.7918 26.2538 19.9131 26.4214C20.0344 26.5865 20.5971 26.6226 20.8888 26.5349C21.1805 26.4472 21.4386 26.5014 21.578 26.3105C21.7174 26.1171 21.3018 25.3124 20.5378 25.4904Z" fill="#F5A968"/>
<path d="M22.9341 24.3252C22.6838 24.3329 22.7251 24.627 22.8644 24.8539C23.0038 25.0783 23.3859 25.166 23.5072 25.0087C23.6285 24.8539 23.5407 24.5934 23.4039 24.4026C23.2645 24.2117 23.1587 24.3175 22.9341 24.3252Z" fill="#F5A968"/>
<path d="M25.2932 25.6254C25.0144 25.7363 25.1022 26.0329 24.9809 26.1877C24.8595 26.3424 24.7898 26.6854 24.9809 26.7396C25.1719 26.7938 25.8146 26.6622 25.9359 26.4249C26.0572 26.1877 25.9179 25.3752 25.2932 25.6254Z" fill="#F5A968"/>
<path d="M22.3162 18.9141C21.9858 18.9141 22.0555 19.2158 21.849 19.4299C21.6399 19.6439 21.3018 19.6672 21.3276 19.7987C21.3534 19.9302 21.6915 20.397 22.3162 19.9818C22.9409 19.564 22.7344 18.9141 22.3162 18.9141Z" fill="#DD8F54"/>
<path d="M16.2664 21.4881C15.8302 21.5654 15.7863 21.7743 15.838 21.9033C15.8896 22.0323 17.0305 22.2154 17.1492 21.9033C17.268 21.5912 16.5013 21.4442 16.2664 21.4881Z" fill="#DD8F54"/>
<path d="M20.1918 21.1064C20.0112 21.0265 20.5816 20.7144 20.8888 20.8433C21.196 20.9723 21.6632 21.1812 21.325 21.3617C20.9895 21.5449 20.4861 21.2379 20.1918 21.1064Z" fill="#DD8F54"/>
<path d="M24.7735 20.3194C24.5102 20.1827 24.1101 20.616 24.0068 20.7269C23.9036 20.8378 24.3656 21.155 24.7735 21.0235C25.1787 20.8919 25.1736 20.5283 24.7735 20.3194Z" fill="#DD8F54"/>
<path d="M18.1791 21.0213C18.0372 21.0677 18.3082 21.3566 18.3882 21.3566C18.4656 21.3566 19.0129 21.1271 18.8838 21.0213C18.7522 20.9156 18.414 20.9465 18.1791 21.0213Z" fill="#DD8F54"/>
<path d="M14.0941 22.4248C13.9392 22.2959 14.6413 22.2959 14.6413 22.4248C14.6413 22.5538 14.249 22.5538 14.0941 22.4248Z" fill="#DD8F54"/>
<path d="M10.2445 28.4114C9.2739 30.075 7.75611 30.3509 6.50678 29.6236C5.25745 28.8963 4.74894 27.4417 5.7195 25.7782C6.69005 24.1146 9.03384 23.0211 10.0225 23.5962C10.9569 24.1404 11.215 26.7479 10.2445 28.4114Z" fill="#F4F5F7"/>
<path d="M10.342 23.8945C10.6208 24.9391 10.422 26.5226 9.6399 27.5362C8.56352 28.9341 7.07413 28.947 5.92805 28.0649C5.63895 27.8431 5.39889 27.5852 5.22079 27.2989C5.15367 28.3022 5.6596 29.1301 6.50883 29.6253C7.75816 30.3526 9.27337 30.0792 10.2465 28.4131C11.0932 26.9585 11.0028 24.7792 10.342 23.8945Z" fill="#D6D7D8"/>
<path d="M8.43651 25.3154C9.07382 24.8615 9.42009 24.2548 9.20992 23.9601C8.99976 23.6655 8.31275 23.7946 7.67544 24.2485C7.03813 24.7024 6.69186 25.3091 6.90202 25.6038C7.11218 25.8984 7.79919 25.7693 8.43651 25.3154Z" fill="white"/>
</svg>
