<svg width="24" height="24" viewBox="0 0 24 24" fill="none" xmlns="http://www.w3.org/2000/svg">
<path d="M9 1.75H15C17.6576 1.75 19.435 2.31976 20.5576 3.44238C21.6802 4.565 22.25 6.3424 22.25 9V15C22.25 17.6576 21.6802 19.435 20.5576 20.5576C19.435 21.6802 17.6576 22.25 15 22.25H9C6.3424 22.25 4.565 21.6802 3.44238 20.5576C2.31976 19.435 1.75 17.6576 1.75 15V9C1.75 6.3424 2.31976 4.565 3.44238 3.44238C4.565 2.31976 6.3424 1.75 9 1.75ZM9 2.25C6.65972 2.25 4.92459 2.66134 3.79297 3.79297C2.66134 4.92459 2.25 6.65972 2.25 9V15C2.25 17.3403 2.66134 19.0754 3.79297 20.207C4.92459 21.3387 6.65972 21.75 9 21.75H15C17.3403 21.75 19.0754 21.3387 20.207 20.207C21.3387 19.0754 21.75 17.3403 21.75 15V9C21.75 6.65972 21.3387 4.92459 20.207 3.79297C19.0754 2.66134 17.3403 2.25 15 2.25H9Z" fill="#005F73" stroke="#005F73"/>
<path d="M7.33011 15.24C7.17011 15.24 7.01011 15.19 6.87011 15.08C6.54011 14.83 6.48011 14.36 6.73011 14.03L9.11011 10.94C9.40011 10.57 9.81011 10.33 10.2801 10.27C10.7401 10.21 11.2101 10.34 11.5801 10.63L13.4101 12.07C13.4801 12.13 13.5501 12.13 13.6001 12.12C13.6401 12.12 13.7101 12.1 13.7701 12.02L16.0801 9.04001C16.3301 8.71001 16.8101 8.65001 17.1301 8.91001C17.4601 9.16001 17.5201 9.63001 17.2601 9.96001L14.9501 12.94C14.6601 13.31 14.2501 13.55 13.7801 13.6C13.3101 13.66 12.8501 13.53 12.4801 13.24L10.6501 11.8C10.5801 11.74 10.5001 11.74 10.4601 11.75C10.4201 11.75 10.3501 11.77 10.2901 11.85L7.91011 14.94C7.78011 15.14 7.56011 15.24 7.33011 15.24Z" fill="#005F73"/>
</svg>
