<svg width="24" height="24" viewBox="0 0 24 24" fill="none" xmlns="http://www.w3.org/2000/svg">
<g clip-path="url(#clip0_12474_324605)">
<path d="M1.60781 0.0704155C0.646875 0.342289 0 1.17666 0 2.14698C0 2.44229 0.117187 2.87823 0.267187 3.14073C0.3375 3.26729 1.63594 4.60323 3.49219 6.46885C5.41406 8.4001 6.64687 9.67041 6.72187 9.80635C6.79219 9.92354 6.89531 10.1485 6.95156 10.2985L7.05469 10.5704L7.07812 16.5048L7.10156 22.4345L7.27969 22.7907C7.69219 23.6298 8.60156 24.1126 9.49219 23.9626C10.125 23.8595 10.7344 23.4329 11.025 22.8939C11.3062 22.3735 11.2969 22.6267 11.2969 15.8439C11.2969 11.9907 11.2781 9.51104 11.25 9.30948C11.2219 9.13604 11.1469 8.82666 11.0812 8.62979C10.8234 7.85166 10.8797 7.91729 7.03594 4.06417C5.08594 2.10948 3.40312 0.445415 3.29062 0.365726C2.84531 0.0563526 2.10937 -0.0702095 1.60781 0.0704155ZM2.42812 1.49541C2.52187 1.54698 2.79844 1.78604 3.03281 2.0251L3.46875 2.46104L2.9625 2.96729L2.45625 3.46885L1.98281 2.98604C1.37344 2.36729 1.30781 2.20323 1.50469 1.8001C1.57031 1.65948 1.65469 1.5751 1.79531 1.50479C2.03906 1.38292 2.20312 1.38292 2.42812 1.49541ZM9.60469 8.75166C9.90469 9.35635 9.89062 9.02823 9.88125 15.886C9.86719 22.097 9.86719 22.1204 9.76875 22.247C9.45 22.6782 8.90625 22.697 8.60156 22.2939C8.50781 22.1673 8.50781 22.1017 8.48437 16.322L8.46094 10.4767L8.35312 10.1017C8.21719 9.61885 8.02031 9.20166 7.7625 8.84073C7.64531 8.68135 6.63281 7.63604 5.5125 6.51573L3.46875 4.47666L3.975 3.97042L4.47656 3.46885L6.96562 5.9626C9.13125 8.13291 9.47812 8.49854 9.60469 8.75166Z" fill="#005F73"/>
<path d="M21.3986 0.0656891C20.822 0.206314 20.9064 0.126625 17.0392 4.00319C13.1907 7.85631 13.1954 7.84694 12.9517 8.52194C12.7032 9.19694 12.7079 9.061 12.7032 15.8204C12.7032 22.6923 12.6892 22.3641 12.9751 22.8938C13.2611 23.4329 13.8657 23.8594 14.5032 23.9673C15.5017 24.136 16.5236 23.4938 16.8282 22.5094C16.9173 22.2188 16.922 22.0548 16.922 16.5751C16.922 13.0079 16.9407 10.8329 16.9689 10.6407C16.997 10.4719 17.0954 10.1766 17.1892 9.98444C17.3485 9.64694 17.4845 9.50631 20.5079 6.46881C23.9626 3.00006 23.8407 3.14069 23.9626 2.44225C24.2111 0.993813 22.8329 -0.281187 21.3986 0.0656891ZM22.2564 1.53288C22.5704 1.76725 22.6689 2.10944 22.5095 2.41881C22.4579 2.51725 22.2095 2.80319 21.9657 3.04694L21.5157 3.49225L21.0142 2.986L20.5079 2.48444L20.9767 2.01569C21.2298 1.75788 21.5064 1.51413 21.5861 1.47663C21.7642 1.38288 22.0923 1.411 22.2564 1.53288ZM18.4267 6.586C17.2736 7.74381 16.261 8.78912 16.186 8.90631C15.9564 9.2485 15.7501 9.68913 15.6423 10.0735C15.5439 10.4297 15.5392 10.4626 15.5157 16.2985C15.4923 22.1016 15.4923 22.1673 15.3986 22.2938C15.0939 22.6969 14.5501 22.6782 14.2314 22.2469C14.1329 22.1204 14.1329 22.0969 14.1189 15.9235C14.1095 11.5688 14.1236 9.63756 14.1564 9.42194C14.2736 8.73287 14.2548 8.75631 17.011 5.986L19.5236 3.46881L20.0251 3.97038L20.5314 4.47663L18.4267 6.586Z" fill="#005F73"/>
<path d="M1.47721 8.10006C0.319402 8.49849 -0.275911 9.72193 0.136589 10.8329C0.295964 11.2547 0.460027 11.461 1.39284 12.3797C2.32096 13.2985 2.50378 13.4344 3.03346 13.5704C3.98971 13.8188 4.9694 13.3547 5.42878 12.4266C5.57878 12.1219 5.60221 12.0329 5.61628 11.6485C5.63971 11.1657 5.56003 10.8141 5.35378 10.4532C5.20378 10.1954 3.73659 8.69068 3.36159 8.40943C3.20221 8.28756 2.95846 8.16568 2.78034 8.10943C2.39128 7.99224 1.80534 7.98756 1.47721 8.10006ZM2.42878 9.48756C2.57878 9.56724 4.09284 11.0907 4.16784 11.236C4.24284 11.3813 4.23346 11.7001 4.14909 11.8594C4.05534 12.0376 3.86784 12.1782 3.67096 12.2157C3.33815 12.2766 3.21628 12.1969 2.31159 11.2876C1.41159 10.3782 1.34596 10.2797 1.43034 9.95162C1.53346 9.52037 2.0444 9.28599 2.42878 9.48756Z" fill="#005F73"/>
<path d="M21.2289 8.10003C21.0836 8.15159 20.8539 8.26409 20.7133 8.35784C20.3851 8.57816 18.8008 10.1813 18.6414 10.4532C18.3179 11.0203 18.2804 11.8125 18.5523 12.3891C18.9883 13.3266 20.0008 13.8235 20.9664 13.5703C21.4961 13.4344 21.6789 13.2985 22.607 12.3797C23.0945 11.9016 23.5492 11.4141 23.6242 11.3016C24.3508 10.2094 23.957 8.77503 22.7804 8.20784C22.457 8.05316 22.3867 8.03909 21.9601 8.02972C21.6039 8.02034 21.4304 8.03441 21.2289 8.10003ZM22.2179 9.49222C22.4945 9.63753 22.6351 9.95159 22.5695 10.275C22.5226 10.4953 20.9101 12.1219 20.6617 12.1969C20.3429 12.2907 20.0008 12.15 19.8508 11.8594C19.7617 11.686 19.7617 11.3766 19.8461 11.2125C19.9211 11.0719 21.4398 9.55316 21.5851 9.47347C21.7211 9.40316 22.0586 9.41253 22.2179 9.49222Z" fill="#005F73"/>
</g>
<defs>
<clipPath id="clip0_12474_324605">
<rect width="24" height="24" fill="white"/>
</clipPath>
</defs>
</svg>
