<svg width="24" height="24" viewBox="0 0 24 24" fill="none" xmlns="http://www.w3.org/2000/svg">
<g clip-path="url(#clip0_12474_324281)">
<path d="M13.6411 -8.05147e-05C13.8463 0.109223 13.9727 0.255996 14.063 0.468669C14.1074 0.840207 14.0312 1.1957 13.9458 1.55558C13.929 1.62923 13.929 1.62923 13.9119 1.70436C13.8846 1.82383 13.8569 1.94317 13.8286 2.06242C13.8643 2.06888 13.8999 2.07535 13.9366 2.08201C14.7709 2.26216 15.6056 3.02414 16.0698 3.71769C16.1048 3.77483 16.1394 3.83224 16.1724 3.89054C16.2239 3.86903 16.2754 3.84752 16.3286 3.82536C16.5081 3.75064 16.6881 3.67696 16.8683 3.60371C16.9537 3.56879 17.0388 3.5331 17.1238 3.49723C17.3951 3.3884 17.5743 3.34436 17.8599 3.42179C18.0645 3.52988 18.1895 3.63004 18.2817 3.84367C18.346 4.1282 18.336 4.28532 18.188 4.54679C17.981 4.8073 17.7074 4.90473 17.4058 5.03019C17.3562 5.05149 17.3066 5.07279 17.2555 5.09474C16.8903 5.24992 16.8903 5.24992 16.7817 5.24992C16.7919 5.29318 16.802 5.33645 16.8125 5.38102C17.0254 6.34967 16.9625 7.32563 16.5942 8.24992C16.8506 8.43509 17.11 8.6075 17.3823 8.76847C17.8568 9.06021 17.8568 9.06021 17.9353 9.3339C17.9778 9.58532 17.9458 9.76148 17.813 9.98429C17.6462 10.1556 17.4922 10.2719 17.2505 10.2831C16.9103 10.2772 16.6546 10.1033 16.3784 9.92002C16.3491 9.90071 16.3199 9.88141 16.2898 9.86151C16.2318 9.82277 16.1742 9.78339 16.1171 9.74334C15.967 9.64021 15.967 9.64021 15.7921 9.60618C15.6626 9.67934 15.5782 9.77795 15.478 9.88762C14.8845 10.5022 14.134 10.8224 13.3599 11.1562C13.293 11.1851 13.2262 11.214 13.1594 11.2429C12.9471 11.3347 12.7346 11.4257 12.522 11.5165C12.4873 11.5313 12.4526 11.5462 12.4169 11.5614C12.3184 11.6035 12.2197 11.6453 12.121 11.687C12.0912 11.6997 12.0614 11.7124 12.0307 11.7255C11.8238 11.8124 11.8238 11.8124 11.7192 11.8124C11.7349 11.8474 11.7505 11.8823 11.7666 11.9183C11.8374 12.078 11.9073 12.2382 11.9771 12.3984C12.0139 12.4808 12.0139 12.4808 12.0516 12.565C12.2037 12.9166 12.3146 13.1804 12.1821 13.5556C12.0494 13.7547 11.9332 13.8899 11.7004 13.9516C11.4495 13.9867 11.2751 13.981 11.063 13.828C10.8233 13.584 10.7097 13.3032 10.5796 12.9902C10.5583 12.94 10.537 12.8898 10.515 12.8382C10.4629 12.7152 10.4112 12.592 10.3599 12.4687C10.3353 12.4794 10.3107 12.4902 10.2854 12.5013C9.98117 12.6345 9.67645 12.7666 9.3716 12.8985C9.27751 12.9392 9.18347 12.9801 9.08943 13.021C8.92069 13.0943 8.75175 13.1672 8.58269 13.2397C8.51643 13.2683 8.45023 13.2969 8.3841 13.3257C7.75274 13.6006 7.14091 13.793 6.45166 13.8632C6.39873 13.8691 6.3458 13.8749 6.29126 13.881C6.16313 13.8951 6.03497 13.9087 5.90674 13.9218C5.89945 13.9601 5.89215 13.9984 5.88464 14.0378C5.85693 14.1811 5.82845 14.3241 5.79945 14.4671C5.78106 14.559 5.76356 14.651 5.74606 14.743C5.67091 15.1102 5.61805 15.3604 5.29846 15.5789C5.03754 15.6625 4.76654 15.6486 4.52393 15.5273C4.31187 15.3364 4.22527 15.2013 4.20898 14.9107C4.2122 14.6276 4.27501 14.3583 4.33643 14.0829C4.3476 14.0312 4.35878 13.9794 4.3703 13.9261C4.39769 13.7996 4.42546 13.6732 4.45361 13.5468C4.41222 13.5337 4.41222 13.5337 4.36998 13.5203C3.41434 13.2106 2.66733 12.5381 2.10986 11.7187C2.06169 11.7396 2.06169 11.7396 2.01254 11.761C1.86551 11.8245 1.71816 11.8873 1.5708 11.9501C1.52029 11.9721 1.46977 11.994 1.41772 12.0167C0.728887 12.3086 0.728887 12.3086 0.410645 12.1816C0.206791 12.0947 0.0989369 11.9624 0.000488285 11.7655C-0.015625 11.6465 -0.015625 11.6465 -0.0229492 11.5019C-0.026333 11.4549 -0.0297168 11.4079 -0.0332031 11.3594C0.0183311 11.1202 0.142763 10.9832 0.328613 10.828C0.5067 10.7243 0.69107 10.6464 0.882324 10.5702C0.93148 10.5496 0.980635 10.5289 1.03128 10.5076C1.38848 10.3593 1.38848 10.3593 1.50049 10.3593C1.49034 10.3026 1.48019 10.2459 1.46973 10.1875C1.29367 9.16895 1.39539 8.29744 1.68799 7.31242C1.65798 7.29543 1.62796 7.27845 1.59704 7.26094C1.46003 7.18297 1.32353 7.10415 1.18701 7.02531C1.11618 6.98525 1.11618 6.98525 1.04391 6.94438C0.753273 6.77556 0.530199 6.63297 0.374023 6.32713C0.306149 6.06751 0.339812 5.86085 0.469238 5.62492C0.636393 5.43369 0.805779 5.35265 1.05811 5.32609C1.38198 5.33256 1.64164 5.5151 1.90405 5.68919C1.93326 5.7085 1.96247 5.72781 1.99256 5.7477C2.0505 5.78646 2.10803 5.82583 2.16509 5.86588C2.31557 5.9695 2.31557 5.9695 2.49127 6.00175C2.6134 5.93365 2.69226 5.84522 2.78662 5.74211C3.14077 5.37917 3.54043 5.11192 3.9931 4.88792C4.0251 4.87202 4.05709 4.85612 4.09005 4.83973C4.50275 4.63713 4.92505 4.45622 5.34717 4.27433C5.42906 4.23886 5.51093 4.20337 5.5928 4.16786C5.91589 4.02783 6.23928 3.8885 6.56299 3.74992C6.51126 3.62393 6.4595 3.49796 6.40772 3.37199C6.39324 3.33673 6.37877 3.30147 6.36386 3.26515C6.34234 3.21281 6.34234 3.21281 6.32037 3.1594C6.30611 3.12456 6.29185 3.08971 6.27715 3.05381C6.25025 2.98971 6.22243 2.92598 6.1934 2.86281C6.07555 2.6057 6.05679 2.38786 6.09424 2.10929C6.20191 1.88153 6.33606 1.74981 6.56299 1.64054C6.79842 1.60297 6.97555 1.61245 7.18994 1.71965C7.46416 1.96122 7.58512 2.23183 7.72315 2.5634C7.74242 2.6085 7.7617 2.65361 7.78156 2.70008C7.92236 3.03339 7.92236 3.03339 7.92236 3.14054C8.09624 3.06742 8.27005 2.99414 8.44385 2.92082C8.49794 2.89803 8.55204 2.87525 8.60777 2.85178C8.91025 2.72398 9.21177 2.59438 9.51209 2.46159C9.57397 2.43434 9.63585 2.4071 9.69773 2.37987C9.78736 2.34041 9.87693 2.30083 9.96628 2.26075C10.7606 1.90456 11.5479 1.70157 12.4224 1.73429C12.4262 1.67435 12.4301 1.61441 12.4341 1.55265C12.4589 1.30895 12.5037 1.07138 12.5542 0.831951C12.5614 0.795945 12.5686 0.759939 12.5759 0.722843C12.6366 0.446068 12.7243 0.233162 12.9559 0.0543018C13.1798 -0.0449563 13.402 -0.0396106 13.6411 -8.05147e-05ZM10.9317 3.44981C10.9019 3.46195 10.8721 3.47409 10.8413 3.48659C10.4841 3.63326 10.1308 3.7893 9.77762 3.94549C9.56617 4.03899 9.35454 4.13209 9.14295 4.22526C9.07806 4.25385 9.07806 4.25385 9.01187 4.28302C8.61431 4.45816 8.21621 4.63204 7.81791 4.80548C7.7056 4.8544 7.5933 4.90335 7.481 4.95232C7.12919 5.10567 6.77725 5.25872 6.42502 5.41111C6.25973 5.48265 6.09449 5.55432 5.92926 5.62601C5.85132 5.65978 5.77335 5.69348 5.69534 5.72712C4.60642 6.19666 3.55965 6.67829 3.0752 7.84636C2.7432 8.73811 2.70455 9.54641 3.07117 10.4373C3.46096 11.2695 4.10316 11.8995 4.96606 12.2212C5.98206 12.5609 6.8751 12.4023 7.82568 11.9736C7.89648 11.9423 7.9673 11.9112 8.03816 11.8801C8.1882 11.8142 8.33804 11.7478 8.48773 11.681C8.7199 11.5776 8.95269 11.4755 9.18561 11.3737C9.50653 11.2334 9.82727 11.0926 10.1478 10.9515C10.5236 10.786 10.8994 10.6208 11.2753 10.4559C11.4809 10.3657 11.6865 10.2754 11.892 10.1849C12.2354 10.0338 12.579 9.8831 12.9243 9.73619C14.0024 9.2757 14.8145 8.74519 15.2759 7.61125C15.5772 6.76415 15.5339 5.88595 15.168 5.06297C14.7267 4.21869 14.0522 3.61953 13.1434 3.32475C12.3831 3.11578 11.6649 3.15128 10.9317 3.44981Z" fill="#005F73"/>
<path d="M18.4112 12.0506C18.5702 12.1728 18.6449 12.28 18.7032 12.4688C18.7139 12.6159 18.7139 12.6159 18.7124 12.7788C18.7119 12.8665 18.7119 12.8665 18.7115 12.956C18.7103 13.0469 18.7103 13.0469 18.7091 13.1397C18.7087 13.2012 18.7082 13.2628 18.7078 13.3262C18.7067 13.4779 18.7052 13.6296 18.7032 13.7813C18.7299 13.7835 18.7567 13.7857 18.7842 13.788C19.2961 13.8363 19.748 14.0259 20.1889 14.2859C20.2945 14.3425 20.3657 14.3783 20.4845 14.3907C20.5755 14.3299 20.5755 14.3299 20.657 14.2361C20.6889 14.2028 20.7209 14.1694 20.7538 14.1351C20.7868 14.0995 20.8197 14.064 20.8536 14.0274C21.3154 13.534 21.3154 13.534 21.6358 13.4797C21.9006 13.4793 22.0613 13.5026 22.2657 13.6876C22.4487 13.8898 22.4747 14.0507 22.4781 14.3129C22.3984 14.7119 22.0844 14.9557 21.7993 15.2184C21.7527 15.2629 21.7527 15.2629 21.7052 15.3082C21.6767 15.3346 21.6482 15.361 21.6188 15.3882C21.552 15.4654 21.552 15.4654 21.5721 15.5625C21.6331 15.7155 21.7116 15.8594 21.7882 16.0049C21.99 16.3983 22.1792 16.7997 22.172 17.2501C22.2103 17.2493 22.2485 17.2486 22.288 17.2478C22.4622 17.2449 22.6364 17.2431 22.8106 17.2413C22.8709 17.2401 22.9311 17.2389 22.9932 17.2377C23.0807 17.237 23.0807 17.237 23.1699 17.2363C23.2502 17.2352 23.2502 17.2352 23.3321 17.2341C23.5662 17.2586 23.7171 17.3368 23.8741 17.5108C24.0349 17.743 24.0287 17.9573 24.0001 18.2344C23.9062 18.4222 23.8042 18.5466 23.6251 18.6563C23.4677 18.7088 23.3494 18.7085 23.1836 18.7078C23.0955 18.7075 23.0955 18.7075 23.0056 18.7073C22.9441 18.7069 22.8827 18.7065 22.8194 18.7061C22.7568 18.7059 22.6943 18.7057 22.6317 18.7055C22.4784 18.7049 22.3252 18.7041 22.172 18.7032C22.1701 18.7293 22.1681 18.7555 22.1662 18.7824C22.1432 19.0378 22.0925 19.2588 21.9991 19.4971C21.9869 19.5294 21.9746 19.5616 21.962 19.5949C21.8694 19.8306 21.7549 20.0411 21.6097 20.2493C21.5538 20.3398 21.5538 20.3398 21.5735 20.4333C21.617 20.5518 21.6713 20.6072 21.7629 20.6935C21.7939 20.7234 21.8248 20.7532 21.8567 20.784C21.922 20.8456 21.9873 20.9073 22.0526 20.9689C22.2597 21.1687 22.4237 21.3414 22.4736 21.6358C22.474 21.9006 22.4507 22.0613 22.2657 22.2657C22.0635 22.4487 21.9025 22.4747 21.6404 22.4781C21.2413 22.3984 20.9976 22.0843 20.7349 21.7992C20.7052 21.7682 20.6756 21.7372 20.6451 21.7052C20.6187 21.6767 20.5923 21.6482 20.5651 21.6188C20.4879 21.5519 20.4879 21.5519 20.3907 21.5721C20.2378 21.633 20.0939 21.7115 19.9483 21.7881C19.555 21.9899 19.1535 22.1791 18.7032 22.1719C18.704 22.2102 18.7047 22.2485 18.7055 22.2879C18.7084 22.4622 18.7102 22.6364 18.712 22.8106C18.7132 22.8708 18.7144 22.9311 18.7156 22.9932C18.7163 23.0806 18.7163 23.0806 18.717 23.1699C18.7181 23.2501 18.7181 23.2501 18.7192 23.332C18.6947 23.5661 18.6165 23.7171 18.4425 23.8741C18.2103 24.0348 17.996 24.0286 17.7189 24.0001C17.4775 23.8794 17.3353 23.7401 17.2501 23.4844C17.2462 23.3842 17.2451 23.2839 17.2455 23.1836C17.2457 23.0954 17.2457 23.0954 17.246 23.0055C17.2466 22.9134 17.2466 22.9134 17.2472 22.8194C17.2474 22.7568 17.2476 22.6942 17.2478 22.6316C17.2484 22.4784 17.2491 22.3252 17.2501 22.1719C17.224 22.17 17.1978 22.1681 17.1709 22.1661C16.9155 22.1432 16.6945 22.0925 16.4562 21.9991C16.4078 21.9807 16.4078 21.9807 16.3584 21.962C16.1227 21.8694 15.9122 21.7549 15.704 21.6096C15.6135 21.5537 15.6135 21.5537 15.52 21.5735C15.4015 21.6169 15.3461 21.6712 15.2597 21.7629C15.215 21.8093 15.215 21.8093 15.1693 21.8566C15.1076 21.9219 15.046 21.9872 14.9844 22.0525C14.7845 22.2596 14.6118 22.4237 14.3175 22.4735C14.0527 22.4739 13.892 22.4506 13.6876 22.2657C13.5046 22.0634 13.4786 21.9025 13.4752 21.6404C13.5549 21.2413 13.8689 20.9976 14.1541 20.7348C14.1851 20.7052 14.2161 20.6755 14.2481 20.645C14.2766 20.6186 14.3051 20.5922 14.3345 20.5651C14.4014 20.4878 14.4014 20.4878 14.3812 20.3907C14.3203 20.2377 14.2417 20.0938 14.1651 19.9483C13.9634 19.555 13.7742 19.1535 13.7814 18.7032C13.7239 18.7043 13.7239 18.7043 13.6653 18.7054C13.4911 18.7083 13.3169 18.7102 13.1427 18.712C13.0824 18.7131 13.0222 18.7143 12.9601 18.7155C12.8727 18.7162 12.8727 18.7162 12.7834 18.7169C12.7032 18.718 12.7032 18.718 12.6213 18.7191C12.398 18.6958 12.2444 18.6162 12.0821 18.4629C11.9561 18.2559 11.8843 18.0482 11.9223 17.8039C11.9996 17.5619 12.121 17.4394 12.3282 17.2969C12.4856 17.2445 12.6039 17.2447 12.7697 17.2455C12.8578 17.2457 12.8578 17.2457 12.9478 17.2459C13.0399 17.2465 13.0399 17.2465 13.1339 17.2471C13.1965 17.2474 13.2591 17.2476 13.3217 17.2478C13.4749 17.2483 13.6281 17.2491 13.7814 17.2501C13.7835 17.2233 13.7857 17.1966 13.788 17.1691C13.8364 16.6572 14.026 16.2053 14.286 15.7643C14.3425 15.6588 14.3784 15.5876 14.3907 15.4688C14.3299 15.3778 14.3299 15.3778 14.2362 15.2963C14.2028 15.2644 14.1695 15.2324 14.1351 15.1995C14.0996 15.1665 14.0641 15.1336 14.0274 15.0997C13.534 14.6379 13.534 14.6379 13.4798 14.3174C13.4794 14.0527 13.5027 13.892 13.6876 13.6876C13.8899 13.5046 14.0508 13.4786 14.3129 13.4751C14.712 13.5548 14.9557 13.8689 15.2185 14.154C15.2481 14.185 15.2777 14.2161 15.3083 14.248C15.3347 14.2765 15.361 14.3051 15.3882 14.3344C15.4654 14.4013 15.4654 14.4013 15.5626 14.3812C15.7156 14.3202 15.8594 14.2417 16.005 14.1651C16.3983 13.9633 16.7998 13.7741 17.2501 13.7813C17.2494 13.743 17.2486 13.7047 17.2479 13.6653C17.2449 13.4911 17.2431 13.3169 17.2413 13.1426C17.2401 13.0824 17.239 13.0221 17.2377 12.9601C17.2373 12.9018 17.2368 12.8435 17.2364 12.7834C17.2356 12.7299 17.2349 12.6763 17.2341 12.6212C17.2578 12.3953 17.3363 12.2419 17.4962 12.0821C17.8068 11.8844 18.0961 11.8586 18.4112 12.0506ZM15.8228 16.1153C15.3295 16.7456 15.0595 17.4736 15.1407 18.2813C15.2519 18.983 15.5294 19.512 16.0314 20.0157C16.0602 20.0456 16.089 20.0755 16.1187 20.1063C16.6146 20.5831 17.2994 20.8053 17.9767 20.8301C18.7784 20.8008 19.4586 20.4951 20.0157 19.9219C20.0455 19.8932 20.0752 19.8644 20.1058 19.8348C20.5835 19.3401 20.8054 18.6532 20.8302 17.9766C20.8008 17.1749 20.4951 16.4947 19.922 15.9376C19.8932 15.9078 19.8645 15.8781 19.8348 15.8475C19.3431 15.3726 18.6578 15.1467 17.9855 15.1202C17.1561 15.1432 16.3728 15.4881 15.8228 16.1153Z" fill="#005F73"/>
<path d="M9.69165 18.0587C10.2816 18.5682 10.7888 19.316 10.8752 20.1095C10.9381 21.1859 10.7811 22.1168 10.0498 22.9476C9.40546 23.6088 8.62214 23.9945 7.69781 24.0164C6.71455 24.0248 5.87391 23.7617 5.15649 23.0626C4.46188 22.3498 4.19397 21.5092 4.1993 20.5315C4.22209 19.596 4.60363 18.8219 5.27166 18.1687C6.53024 17.0649 8.37606 17.0373 9.69165 18.0587ZM6.09857 19.4183C6.01143 19.536 5.93415 19.6553 5.85962 19.7814C5.83913 19.8159 5.81865 19.8505 5.79754 19.8861C5.59573 20.2968 5.60215 20.8235 5.71515 21.2601C5.91186 21.7618 6.1941 22.0861 6.65649 22.3595C6.69105 22.38 6.72562 22.4004 6.76123 22.4216C7.17194 22.6234 7.69866 22.6169 8.13525 22.504C8.6369 22.3072 8.96119 22.025 9.23462 21.5626C9.2551 21.528 9.27558 21.4935 9.29669 21.4579C9.49851 21.0472 9.49208 20.5204 9.37909 20.0838C9.18237 19.5822 8.90013 19.2579 8.43774 18.9845C8.40318 18.964 8.36862 18.9435 8.333 18.9224C7.59679 18.5606 6.618 18.8028 6.09857 19.4183Z" fill="#005F73"/>
<path d="M23.089 5.9833C23.5331 6.30904 23.8836 6.76348 23.9994 7.31246C24.0602 7.96906 24.0071 8.54509 23.6068 9.09078C23.267 9.48956 22.8011 9.84964 22.2611 9.89963C21.5793 9.92431 21.0215 9.87386 20.4801 9.4125C20.099 9.05538 19.7873 8.58424 19.7678 8.04799C19.7483 7.35189 19.8513 6.8062 20.3432 6.28121C21.0471 5.53726 22.241 5.44237 23.089 5.9833ZM21.2865 7.41207C21.2073 7.6145 21.2029 7.80121 21.2338 8.01558C21.3352 8.22212 21.4399 8.35303 21.6557 8.43746C21.8921 8.46953 22.0696 8.46437 22.2855 8.35836C22.443 8.21626 22.5319 8.12146 22.5611 7.90627C22.5736 7.63826 22.5448 7.47172 22.3588 7.26558C22.1789 7.10688 22.0009 7.10092 21.7699 7.10848C21.5514 7.14 21.4282 7.25147 21.2865 7.41207Z" fill="#005F73"/>
<path d="M12.4687 5.76559C12.6795 5.86544 12.798 5.97305 12.8906 6.18747C12.956 6.47238 12.942 6.67809 12.7969 6.93747C12.2732 7.72835 11.5967 8.31197 10.6611 8.54586C10.1474 8.63301 9.60361 8.60491 9.09503 8.50576C8.42053 8.40394 7.82305 8.49963 7.26562 8.90622C7.10105 9.0598 6.96155 9.22407 6.82324 9.40133C6.48005 9.82017 6.48005 9.82017 6.21826 9.86074C5.93418 9.87572 5.75796 9.82741 5.53125 9.65622C5.38881 9.48054 5.35124 9.3184 5.34375 9.09372C5.42295 8.49087 6.02062 7.94938 6.46875 7.59371C7.26041 7.01495 8.26754 6.88857 9.21973 7.00558C9.31723 7.02231 9.4147 7.03921 9.51215 7.0563C10.0664 7.14011 10.5253 7.08522 10.9922 6.76278C11.2364 6.56226 11.3869 6.33491 11.5503 6.06716C11.7757 5.723 12.0885 5.71396 12.4687 5.76559Z" fill="#005F73"/>
<path d="M18.9794 16.9013C19.1442 17.0903 19.2163 17.2908 19.222 17.5421C19.1795 17.8531 18.9921 18.0418 18.7762 18.2561C18.6925 18.3395 18.6103 18.4243 18.528 18.5091C18.4657 18.5729 18.4032 18.6365 18.3407 18.7001C18.3108 18.7306 18.2809 18.7611 18.2501 18.7926C18.0028 19.0403 17.8028 19.2065 17.4384 19.2187C17.2234 19.1779 17.0621 19.1213 16.9022 18.9696C16.7652 18.734 16.7224 18.5546 16.7503 18.287C16.8296 18.0389 17.0146 17.8492 17.195 17.6683C17.2378 17.6254 17.2805 17.5826 17.3246 17.5384C17.3466 17.5165 17.3687 17.4946 17.3915 17.4721C17.4589 17.4052 17.5258 17.3378 17.5926 17.2703C17.6354 17.2276 17.6783 17.1849 17.7224 17.141C17.7612 17.1022 17.8 17.0635 17.84 17.0236C18.2012 16.7009 18.556 16.6712 18.9794 16.9013Z" fill="#005F73"/>
<path d="M20.9939 1.70802C21.1925 1.94755 21.2076 2.08861 21.2021 2.39283C21.1822 2.57837 21.1277 2.67765 20.9997 2.81251C20.7447 2.99482 20.5067 2.99018 20.2028 2.95313C19.9917 2.85313 19.8754 2.74504 19.781 2.53126C19.7215 2.28438 19.7319 2.1106 19.8278 1.87501C20.1567 1.49558 20.5891 1.36486 20.9939 1.70802Z" fill="#005F73"/>
<path d="M2.43657 16.9219C2.64769 17.0219 2.76398 17.13 2.85844 17.3438C2.91787 17.5907 2.90755 17.7645 2.81157 18C2.66826 18.1654 2.5344 18.316 2.30967 18.3439C1.81363 18.3502 1.81363 18.3502 1.59282 18.1407C1.4105 17.8856 1.41514 17.6476 1.45219 17.3438C1.6566 16.9123 1.99834 16.8685 2.43657 16.9219Z" fill="#005F73"/>
</g>
<defs>
<clipPath id="clip0_12474_324281">
<rect width="24" height="24" fill="white"/>
</clipPath>
</defs>
</svg>
