<svg width="24" height="24" viewBox="0 0 24 24" fill="none" xmlns="http://www.w3.org/2000/svg">
<path d="M12 17V6M12 17C12 14.7909 13.7909 13 16 13M12 17C12 14.7909 10.2091 13 8 13M12 17C12 18 12.1364 18.3702 12.5 19C13.4665 20.674 15.6071 21.2476 17.2811 20.2811C18.8161 19.3948 19.4259 17.5214 18.7713 15.9257C20.6114 15.5662 22 13.9453 22 12C22 9.79086 20.2091 8 18 8L18 6C18 4.34315 16.6569 3 15 3C13.3432 3 12 4.34315 12 6M12 17C12 18 11.8636 18.3702 11.5 19C10.5335 20.674 8.39294 21.2476 6.71892 20.2811C5.18389 19.3948 4.57416 17.5214 5.22868 15.9257C3.38864 15.5662 2.00003 13.9453 2.00003 12C2.00003 9.79086 3.79089 8 6.00003 8L6.00001 6C6.00001 4.34315 7.34315 3 9.00001 3C10.6569 3 12 4.34315 12 6" stroke="#005F73" stroke-width="1.5" stroke-linecap="round" stroke-linejoin="round"/>
</svg>
