<svg width="24" height="24" viewBox="0 0 24 24" fill="none" xmlns="http://www.w3.org/2000/svg">
<path d="M4 22.5V18.073C4 17.1571 3.65701 16.285 3.19922 15.4917C2.43644 14.1698 2 12.6359 2 11C2 6.02944 6.02944 2 11 2C15.9061 2 19.8953 5.89691 19.998 11.2867C20.0006 11.4266 20.0294 11.5661 20.0862 11.6939L22 16L20 17C19 20.5 19.2 21.5 16 21.5C12.8 21.5 12.5 21 12 19.5M10 15C10 13.8954 10.8954 13 12 13C13.3807 13 14.5 11.8807 14.5 10.5M14.5 10.5C15.3284 10.5 16 9.82843 16 9C16 8.17157 15.3284 7.5 14.5 7.5C14.2869 7.5 14.0841 7.54445 13.9005 7.62458C13.9651 7.42806 14 7.21811 14 7C14 5.89543 13.1046 5 12 5C11.0535 5 10.2605 5.65753 10.053 6.54073M14.5 10.5C14.0557 10.5 13.6566 10.3069 13.3819 10M6.21963 9.52616C5.5252 9.65745 5 10.2674 5 11C5 11.8284 5.67157 12.5 6.5 12.5C7.15311 12.5 7.70873 12.0826 7.91465 11.5M6.21963 9.52616C6.31046 9.50898 6.40418 9.5 6.5 9.5M6.21963 9.52616C6.07852 9.21307 6 8.86571 6 8.5C6 7.11929 7.11929 6 8.5 6C9.08684 6 9.62646 6.2022 10.053 6.54073M10.053 6.54073C10.63 6.99869 11 7.70613 11 8.5" stroke="#005F73" stroke-width="1.5" stroke-linecap="round" stroke-linejoin="round"/>
</svg>
