<svg width="24" height="24" viewBox="0 0 24 24" fill="none" xmlns="http://www.w3.org/2000/svg">
<g clip-path="url(#clip0_12474_324785)">
<path d="M12.1152 0.900391C12.7418 0.902524 13.3639 0.915107 13.9902 1.04395H13.9893C14.0543 1.05673 14.0547 1.05727 14.1211 1.07031C16.2333 1.49344 18.1458 2.48998 19.6943 3.98828C19.7209 4.01398 19.748 4.03992 19.7754 4.06641C20.1144 4.39579 20.443 4.73178 20.7324 5.11523L20.793 5.19434C22.5938 7.55234 23.3619 10.5017 23.0176 13.4443V13.4453C22.6451 16.2222 21.212 18.9077 18.9951 20.6543L18.9932 20.6553C18.953 20.6859 18.9135 20.7175 18.8721 20.749L18.8711 20.748C18.8482 20.7658 18.8254 20.7845 18.8018 20.8027C17.4242 21.8634 15.8441 22.5769 14.1426 22.9258C14.1118 22.9321 14.0806 22.9388 14.0488 22.9453H14.0479C13.3684 23.0747 12.698 23.1022 12.0146 23.0996H11.8828C11.2575 23.0975 10.6343 23.0872 10.0088 22.9561L9.88184 22.9297C7.76505 22.4861 5.86185 21.5193 4.30371 20.0117C4.26391 19.9733 4.26405 19.9726 4.22363 19.9336H4.22266C3.88344 19.604 3.5552 19.2676 3.26562 18.8838V18.8848L3.20508 18.8057C2.59324 18.0045 2.09012 17.1351 1.70996 16.2002V16.1992C1.69695 16.1679 1.68333 16.1368 1.66992 16.1045C1.3098 15.2287 1.08389 14.2807 0.975586 13.3428L0.962891 13.2441V13.2422C0.647143 10.3076 1.49026 7.33984 3.33398 5.03613L3.33496 5.03418H3.33594C3.87152 4.39597 4.45615 3.76163 5.12695 3.25098C5.14979 3.23333 5.17276 3.21545 5.19629 3.19727C6.54962 2.15516 8.09192 1.45518 9.75879 1.09863C9.79832 1.09012 9.83818 1.08104 9.87891 1.07227H9.87988C10.5837 0.929084 11.2739 0.897688 11.9834 0.900391H12.1152ZM13.4756 2.08203C10.2974 1.53009 7.16252 2.7924 4.87598 4.98047C4.2517 5.59287 3.7325 6.30549 3.30371 7.07031V7.07129L3.25098 7.16406C2.67578 8.18929 2.30918 9.31036 2.11523 10.4717V10.4727C2.11018 10.5015 2.1058 10.5308 2.10059 10.5605C1.69293 12.9846 2.35416 15.6479 3.74609 17.6543L3.96973 17.96C4.50074 18.6674 5.10556 19.3312 5.80469 19.8594L5.8877 19.9229C7.24325 20.9452 8.75447 21.6168 10.4307 21.9004C10.4622 21.9057 10.4939 21.9115 10.5264 21.917H10.5254C13.0115 22.3187 15.6813 21.6726 17.7256 20.207C18.514 19.6315 19.2585 18.9795 19.8457 18.2051L19.9014 18.1328C20.1955 17.7479 20.4577 17.3518 20.6943 16.9297V16.9287C20.7117 16.8981 20.7292 16.8675 20.7471 16.8359L20.9531 16.4473C21.4113 15.53 21.7131 14.5446 21.8828 13.5283V13.5273C21.8879 13.4985 21.8932 13.4692 21.8984 13.4395C22.3061 11.0151 21.6442 8.35118 20.252 6.34473V6.3457C19.6669 5.52257 18.9907 4.75199 18.1934 4.13965L18.1924 4.13867C18.136 4.09387 18.135 4.09401 18.0781 4.04883L17.8281 3.86035C16.5638 2.94293 15.1108 2.36611 13.5674 2.09961L13.5664 2.09863C13.5366 2.09331 13.5063 2.08849 13.4756 2.08301V2.08203Z" fill="#005F73" stroke="#005F73" stroke-width="0.2"/>
<path d="M11.5801 2.93384C12.7815 2.92238 13.8822 3.02236 15.0332 3.42114H15.0322C15.078 3.43685 15.0785 3.43643 15.125 3.45239L15.126 3.45337C17.1058 4.14924 18.8417 5.62676 19.8682 7.45044C19.8866 7.48287 19.9049 7.51566 19.9238 7.54907C20.3863 8.3717 20.7099 9.22846 20.9102 10.1506L20.9336 10.2581V10.259C21.4025 12.5436 20.8829 15.0269 19.6221 16.969L19.6211 16.97C18.2561 19.0093 16.1736 20.4507 13.7539 20.9309H13.7529C13.3448 21.009 12.9418 21.0604 12.5225 21.0627C12.4836 21.063 12.4443 21.0634 12.4043 21.0637C12.322 21.0642 12.2395 21.0645 12.1572 21.0647L11.79 21.0676C11.0846 21.0721 10.3903 20.9938 9.70605 20.8059V20.8069C9.67021 20.7971 9.63458 20.7866 9.59766 20.7766H9.59668C7.30888 20.1308 5.30812 18.6294 4.13184 16.5491C4.11536 16.5204 4.09901 16.4917 4.08203 16.4622C3.67383 15.7476 3.37062 14.9863 3.16992 14.1917L3.08984 13.8489C3.08222 13.8137 3.07426 13.7786 3.06641 13.7424V13.7405C2.59532 11.4462 3.12389 8.98005 4.37988 7.02759L4.38086 7.02661C5.68267 5.0708 7.69436 3.61952 10.0078 3.12036H10.0088C10.2447 3.07311 10.4817 3.03035 10.7197 2.99438V2.99536C10.7694 2.98726 10.8189 2.97831 10.8701 2.96997H10.874C11.0736 2.94495 11.267 2.93775 11.4639 2.93579C11.5018 2.93533 11.54 2.93431 11.5791 2.93384H11.5801ZM14.543 4.51099C11.7159 3.47723 8.58179 4.36386 6.44434 6.40063L6.44336 6.40161C6.41026 6.43224 6.37687 6.46284 6.34277 6.49438C5.34565 7.44518 4.66709 8.77725 4.32715 10.1086C4.31796 10.1444 4.30828 10.1802 4.29883 10.217C4.15846 10.7958 4.11171 11.3745 4.11328 11.9729V11.9739C4.11329 12.0084 4.11425 12.0428 4.11426 12.0784L4.12598 12.5286C4.14546 12.9004 4.18901 13.2646 4.26562 13.6311L4.31641 13.8508V13.8518C4.32913 13.9049 4.32886 13.9052 4.3418 13.9592L4.44336 14.3284C5.00031 16.1573 6.27238 17.7451 7.89453 18.7502C9.68867 19.8276 11.8168 20.177 13.8545 19.6917C15.2948 19.3231 16.5288 18.5751 17.6035 17.553L17.6045 17.551C17.6341 17.5239 17.6638 17.4969 17.6943 17.469C18.9803 16.2527 19.8225 14.2795 19.8828 12.5188C19.8865 12.356 19.8872 12.1931 19.8867 12.0295V11.9241L19.874 11.4729C19.8512 11.026 19.7944 10.59 19.6846 10.1487C19.6697 10.0887 19.6694 10.0883 19.6543 10.0276L19.582 9.76685C19.1984 8.4757 18.489 7.38154 17.5527 6.39673L17.5508 6.39575L17.625 6.32837L17.5508 6.39478C17.5219 6.36287 17.4927 6.33097 17.4629 6.2981V6.29712C16.7057 5.49006 15.6745 4.9346 14.6367 4.54712C14.6057 4.53547 14.5749 4.52299 14.543 4.51099Z" fill="#005F73" stroke="#005F73" stroke-width="0.2"/>
<path d="M15.3213 11.162C15.354 11.1805 15.3868 11.199 15.4205 11.2181C15.5193 11.2618 15.5193 11.2618 15.6381 11.2115C15.7063 11.1775 15.7746 11.1434 15.8428 11.1093C16.1751 11.0821 16.1751 11.0821 16.3555 11.1972C16.5138 11.3604 16.5054 11.4624 16.5073 11.6858C16.5076 11.716 16.5079 11.7463 16.5083 11.7775C16.5092 11.8778 16.5097 11.9782 16.5102 12.0785C16.5104 12.1128 16.5106 12.147 16.5108 12.1823C16.5118 12.3637 16.5124 12.5452 16.5129 12.7266C16.5134 12.9138 16.515 13.1011 16.5169 13.2883C16.5181 13.4324 16.5185 13.5765 16.5186 13.7206C16.5189 13.7896 16.5194 13.8586 16.5203 13.9276C16.5214 14.0244 16.5214 14.121 16.5211 14.2178C16.5213 14.2727 16.5216 14.3277 16.5219 14.3844C16.4943 14.5615 16.4356 14.6386 16.3115 14.7656C16.1504 14.8461 15.9724 14.8306 15.7959 14.8124C15.6758 14.748 15.6758 14.748 15.6084 14.6718C15.6084 14.6409 15.6084 14.6099 15.6084 14.5781C15.5776 14.595 15.5468 14.6119 15.515 14.6293C15.0153 14.8731 14.4464 14.9114 13.915 14.7363C13.4428 14.5297 13.0468 14.1623 12.8323 13.6902C12.6431 13.1891 12.6529 12.6871 12.8428 12.1874C13.1097 11.6343 13.4566 11.3524 14.0147 11.1093C14.3976 10.9817 14.955 10.9969 15.3213 11.162ZM13.9736 12.2665C13.7769 12.4527 13.6919 12.6446 13.6823 12.9151C13.702 13.2507 13.812 13.4354 14.0469 13.6757C14.2459 13.8306 14.4714 13.8813 14.7213 13.8709C15.0503 13.8127 15.2798 13.5856 15.4678 13.3212C15.5509 13.0562 15.5529 12.8097 15.459 12.5478C15.2765 12.2772 15.0702 12.0912 14.7529 12.0058C14.4534 11.9958 14.2109 12.0834 13.9736 12.2665Z" fill="#005F73"/>
<path d="M6.32854 9.18739C6.45771 9.28966 6.53647 9.36888 6.60979 9.51552C6.61528 9.58059 6.61808 9.6459 6.61941 9.71119C6.62035 9.75154 6.62128 9.79188 6.62224 9.83345C6.62303 9.87706 6.62381 9.92066 6.62462 9.96559C6.62559 10.0102 6.62657 10.0548 6.62757 10.1008C6.63064 10.2436 6.6334 10.3864 6.63615 10.5292C6.63818 10.6259 6.64022 10.7226 6.64229 10.8192C6.64731 11.0565 6.65206 11.2938 6.65666 11.5311C6.76133 11.4494 6.86593 11.3675 6.9705 11.2856C6.99989 11.2627 7.02928 11.2397 7.05955 11.2161C7.22364 11.0874 7.38398 10.956 7.54143 10.8192C7.67162 10.719 7.76592 10.6644 7.93108 10.6522C8.16308 10.6979 8.23576 10.7438 8.39104 10.9218C8.44773 11.1052 8.45543 11.2042 8.38664 11.3837C8.27762 11.5636 8.15141 11.675 7.98967 11.8065C7.96062 11.8308 7.93157 11.855 7.90164 11.88C7.69059 12.0555 7.47683 12.2278 7.26091 12.3972C7.16849 12.4691 7.16849 12.4691 7.07854 12.5624C7.12065 12.6043 7.16275 12.6461 7.20614 12.6893C7.36228 12.8445 7.51826 13 7.6742 13.1555C7.74173 13.2228 7.80929 13.29 7.8769 13.3572C7.97405 13.4538 8.07105 13.5505 8.16801 13.6473C8.19829 13.6773 8.22857 13.7074 8.25976 13.7383C8.28791 13.7664 8.31605 13.7946 8.34505 13.8236C8.36983 13.8483 8.3946 13.8729 8.42013 13.8983C8.59134 14.0845 8.6023 14.2206 8.59557 14.463C8.57854 14.578 8.57854 14.578 8.49065 14.7245C8.31603 14.8293 8.20245 14.8581 8.00011 14.8459C7.74327 14.7769 7.58254 14.5796 7.40666 14.3905C7.3493 14.3301 7.29192 14.2697 7.23454 14.2092C7.09301 14.0593 6.95296 13.9081 6.81386 13.7559C6.76269 13.7006 6.70991 13.6469 6.65666 13.5936C6.65491 13.6513 6.65316 13.7089 6.65135 13.7683C6.64827 13.8449 6.64516 13.9214 6.64201 13.9979C6.64096 14.0358 6.6399 14.0737 6.63881 14.1127C6.62833 14.3471 6.59656 14.5148 6.46916 14.7186C6.33083 14.8314 6.17427 14.8317 5.99895 14.8278C5.85308 14.8035 5.77304 14.7287 5.67229 14.6249C5.6176 14.5155 5.61917 14.4511 5.61851 14.3293C5.61818 14.2869 5.61784 14.2445 5.6175 14.2008C5.61737 14.1542 5.61724 14.1075 5.61712 14.0595C5.61681 14.0105 5.6165 13.9615 5.61618 13.911C5.61526 13.7482 5.61471 13.5855 5.61424 13.4228C5.61405 13.3673 5.61386 13.3119 5.61366 13.2547C5.61269 12.9611 5.61202 12.6676 5.61158 12.374C5.61106 12.0704 5.60944 11.7668 5.60758 11.4632C5.60636 11.2301 5.60597 10.997 5.6058 10.7639C5.60557 10.652 5.60502 10.54 5.60415 10.4281C5.60302 10.2716 5.60306 10.115 5.60338 9.95848C5.60278 9.91214 5.60218 9.86579 5.60156 9.81804C5.60311 9.61421 5.60583 9.50042 5.71468 9.32377C5.89898 9.15585 6.08743 9.14908 6.32854 9.18739Z" fill="#005F73"/>
<path d="M11.8386 11.2969C11.9546 11.3921 11.9933 11.4413 12.0466 11.5782C12.057 11.7753 12.0312 11.9475 11.9294 12.1172C11.7544 12.2222 11.5937 12.2503 11.3903 12.2344C11.2977 12.195 11.2977 12.195 11.2087 12.1436C10.9787 12.0118 10.7588 12.009 10.4997 12.0469C10.2463 12.1315 10.0896 12.3051 9.93722 12.5157C9.84764 12.7844 9.85033 13.0745 9.95773 13.336C9.9819 13.3746 10.0061 13.4133 10.031 13.4532C10.0464 13.4996 10.0619 13.546 10.0778 13.5938C10.1638 13.6465 10.1638 13.6465 10.2653 13.6875C10.3074 13.7122 10.3074 13.7122 10.3503 13.7373C10.6217 13.8537 10.8357 13.829 11.1091 13.7344C11.1555 13.7189 11.2019 13.7035 11.2497 13.6875C11.2652 13.6411 11.2807 13.5947 11.2966 13.5469C11.4586 13.4285 11.6177 13.4361 11.8122 13.4532C11.9445 13.512 12.0214 13.5602 12.1081 13.6758C12.1735 13.8897 12.1686 14.0517 12.07 14.253C11.7999 14.5704 11.4837 14.7798 11.0639 14.8217C10.4282 14.8669 9.92075 14.7603 9.41995 14.341C9.26371 14.1867 9.15162 14.0203 9.0466 13.8282C9.0272 13.7947 9.00781 13.7612 8.98782 13.7267C8.77226 13.2896 8.78184 12.6924 8.93234 12.2344C9.17453 11.6842 9.52946 11.329 10.0808 11.0889C10.6719 10.8952 11.3098 10.9781 11.8386 11.2969Z" fill="#005F73"/>
<path d="M18.0942 9.18742C18.2287 9.27151 18.3047 9.32723 18.3754 9.46867C18.3801 9.53584 18.3819 9.60322 18.3823 9.67055C18.3826 9.71294 18.383 9.75533 18.3833 9.799C18.3835 9.86895 18.3835 9.86895 18.3837 9.94031C18.384 9.98933 18.3843 10.0383 18.3846 10.0888C18.3856 10.2516 18.3861 10.4143 18.3866 10.577C18.3868 10.6325 18.387 10.688 18.3872 10.7451C18.3881 11.0387 18.3888 11.3322 18.3892 11.6258C18.3898 11.9294 18.3914 12.233 18.3932 12.5366C18.3945 12.7697 18.3949 13.0028 18.395 13.2359C18.3953 13.3478 18.3958 13.4598 18.3967 13.5717C18.3978 13.7283 18.3978 13.8848 18.3974 14.0413C18.398 14.0877 18.3986 14.134 18.3993 14.1818C18.3977 14.3856 18.395 14.4994 18.2861 14.676C18.1213 14.8263 17.9949 14.8307 17.7783 14.8293C17.6102 14.8025 17.5378 14.7092 17.4379 14.578C17.3837 14.4696 17.3848 14.407 17.3841 14.2863C17.3836 14.224 17.3836 14.224 17.3831 14.1604C17.383 14.1147 17.3829 14.0691 17.3827 14.022C17.3824 13.974 17.3821 13.9259 17.3818 13.8765C17.3809 13.717 17.3803 13.5576 17.3799 13.3981C17.3796 13.3165 17.3796 13.3165 17.3793 13.2333C17.3783 12.9455 17.3776 12.6576 17.3772 12.3698C17.3767 12.0723 17.3751 11.7748 17.3732 11.4773C17.372 11.2487 17.3716 11.0202 17.3714 10.7916C17.3712 10.6819 17.3706 10.5723 17.3698 10.4626C17.3686 10.3091 17.3687 10.1556 17.369 10.0021C17.3684 9.95679 17.3678 9.91149 17.3672 9.86482C17.3693 9.59375 17.3988 9.44127 17.5785 9.23429C17.7406 9.15326 17.917 9.16446 18.0942 9.18742Z" fill="#005F73"/>
<path d="M12.1406 15.5624C12.4021 15.7105 12.4021 15.7105 12.4688 15.8437C12.4759 15.9286 12.4804 16.0138 12.4836 16.0989C12.4855 16.1494 12.4875 16.1998 12.4895 16.2518C12.4914 16.3047 12.4932 16.3576 12.4951 16.412C12.4971 16.4653 12.4992 16.5185 12.5013 16.5734C12.5062 16.7051 12.511 16.8369 12.5156 16.9687C12.5447 16.9384 12.5737 16.9082 12.6036 16.877C12.7325 16.7529 12.8137 16.743 12.9862 16.7296C13.1687 16.739 13.2693 16.8347 13.3975 16.954C13.4845 17.1235 13.5035 17.2563 13.4531 17.4374C13.3356 17.629 13.1839 17.7893 13.0312 17.9531C13.0009 17.9861 12.9705 18.0192 12.9392 18.0533C12.7739 18.233 12.6076 18.4119 12.4396 18.5892C12.4114 18.619 12.3831 18.6489 12.354 18.6796C12.2398 18.79 12.1801 18.7978 12.0176 18.8203C11.7991 18.8152 11.6969 18.7294 11.5439 18.5806C11.5088 18.5436 11.4737 18.5067 11.4375 18.4687C11.4157 18.4461 11.3939 18.4234 11.3715 18.4001C11.2019 18.2234 11.0376 18.0424 10.875 17.8593C10.8211 17.7999 10.8211 17.7999 10.7661 17.7394C10.6305 17.5808 10.5278 17.4539 10.5117 17.2412C10.5553 17.0198 10.6096 16.9278 10.7812 16.7812C10.9709 16.7131 11.1076 16.7121 11.291 16.7958C11.3906 16.8749 11.3906 16.8749 11.4844 16.9687C11.4847 16.9194 11.4847 16.9194 11.485 16.8691C11.4865 16.7197 11.4898 16.5703 11.4932 16.4208C11.4934 16.3691 11.4937 16.3175 11.494 16.2642C11.5056 15.8355 11.5056 15.8355 11.645 15.6934C11.8245 15.5683 11.9202 15.5412 12.1406 15.5624Z" fill="#005F73"/>
<path d="M12.1865 6.14064C12.3242 6.21583 12.3839 6.24883 12.4678 6.37501C12.5091 6.56728 12.5092 6.75605 12.5088 6.95216C12.5098 7.00476 12.5107 7.05736 12.5117 7.11156C12.5139 7.24108 12.5149 7.37048 12.5146 7.50001C12.5571 7.46956 12.5996 7.43911 12.6434 7.40773C12.8512 7.27799 12.931 7.28206 13.1709 7.31251C13.3323 7.4121 13.392 7.4601 13.4521 7.64064C13.4799 7.84293 13.4673 7.97151 13.3496 8.13576C13.1483 8.38184 12.9262 8.61127 12.7078 8.84218C12.6117 8.94427 12.52 9.04834 12.4312 9.15675C12.2929 9.32222 12.216 9.36505 12.0049 9.39259C11.7057 9.35669 11.5132 9.1349 11.3223 8.91798C11.3 8.89317 11.2778 8.86836 11.2549 8.8428C11.2105 8.79323 11.1664 8.74355 11.1223 8.69372C11.0692 8.63373 11.0156 8.57422 10.9619 8.51478C10.5575 8.06332 10.5575 8.06332 10.5254 7.80177C10.5472 7.63036 10.5817 7.54216 10.6865 7.40626C10.8351 7.3072 10.9225 7.2986 11.0976 7.29091C11.2515 7.32271 11.3575 7.40912 11.4834 7.50001C11.4838 7.46858 11.4843 7.43715 11.4847 7.40476C11.4872 7.26168 11.4912 7.11866 11.4951 6.9756C11.4958 6.92614 11.4964 6.87668 11.4971 6.82573C11.5087 6.45746 11.5087 6.45746 11.6204 6.27302C11.7882 6.12569 11.9691 6.09041 12.1865 6.14064Z" fill="#005F73"/>
</g>
<defs>
<clipPath id="clip0_12474_324785">
<rect width="24" height="24" fill="white"/>
</clipPath>
</defs>
</svg>
