<svg width="24" height="24" viewBox="0 0 24 24" fill="none" xmlns="http://www.w3.org/2000/svg">
<path d="M8.55572 2V3.5C8.55572 4.60457 7.65035 5.50121 6.57884 5.76941C5.71323 5.98608 4.87424 6.30618 4.15601 6.62646C2.78928 7.23591 2.08244 8.69245 2.21501 10.183L2.99917 19M15.4992 2V3.5C15.4992 4.60457 16.4048 5.5006 17.4757 5.77104C18.3318 5.98721 19.1586 6.30561 19.8661 6.62439C21.2209 7.23491 21.9167 8.68304 21.7851 10.1632L20.9992 19M6.49917 11C6.49917 12.5 6.49917 16.5 10.4992 16.5M7.49917 15.5C7.49917 17 7.99917 20 6.49917 22M17.4992 11C17.4992 12.5 17.4992 16.5 13.4992 16.5M16.4992 15.5C16.4992 17 15.9992 20 17.4992 22" stroke="#005F73" stroke-width="1.5" stroke-linecap="round" stroke-linejoin="round"/>
</svg>
