<svg width="25" height="24" viewBox="0 0 25 24" fill="none" xmlns="http://www.w3.org/2000/svg">
<path d="M9.36919 2V3.5C9.36919 4.60457 8.46383 5.50121 7.39231 5.76941C6.5267 5.98608 5.68772 6.30618 4.96949 6.62646C3.60276 7.23591 2.89592 8.69245 3.02849 10.183L3.81264 19M16.3126 2V3.5C16.3126 4.60457 17.2183 5.5006 18.2892 5.77104C19.1453 5.98721 19.9721 6.30561 20.6795 6.62439C22.0343 7.23491 22.7302 8.68304 22.5986 10.1632L21.8126 19M7.31264 11C7.31264 12.5 7.31264 16.5 11.3126 16.5M8.31264 15.5C8.31264 17 8.81264 20 7.31264 22M18.3126 11C18.3126 12.5 18.3126 16.5 14.3126 16.5M17.3126 15.5C17.3126 17 16.8126 20 18.3126 22" stroke="#267E95" stroke-width="1.5" stroke-linecap="round" stroke-linejoin="round"/>
</svg>
