<svg width="26" height="24" viewBox="0 0 26 24" fill="none" xmlns="http://www.w3.org/2000/svg">
<path d="M2.96777 18.584H2.9707V18.583C3.18885 18.5383 3.41196 18.4183 3.58789 18.2695C3.76152 18.1226 3.90439 17.9349 3.94238 17.7451C3.95889 17.6624 3.95791 17.5346 3.94531 17.4014C3.93888 17.3333 3.9288 17.261 3.91602 17.1885L3.86914 16.9746C3.81931 16.7929 3.79492 16.6806 3.79102 16.6123C3.79015 16.5969 3.7902 16.5852 3.79102 16.5771C3.80056 16.575 3.81291 16.5717 3.82812 16.5684C3.86038 16.5614 3.90445 16.5523 3.95898 16.541C4.06843 16.5183 4.21983 16.4879 4.40137 16.4512C4.76452 16.3777 5.24959 16.2799 5.76855 16.1758L6.58984 16.001C8.55306 15.5495 10.8114 14.8146 12.5312 14.0518C13.2936 13.719 13.9196 13.513 14.5703 13.3789H14.5693C15.0723 13.2799 15.8377 13.1579 16.4834 13.0664C16.806 13.0207 17.0979 12.9827 17.3115 12.959C17.4183 12.9471 17.5043 12.9394 17.5645 12.9355C17.569 12.9353 17.5739 12.9358 17.5781 12.9355C17.5816 12.9643 17.5863 13.0006 17.5908 13.0439C17.6034 13.165 17.6195 13.3387 17.6387 13.5518C17.677 13.978 17.7271 14.5612 17.7812 15.1992C17.8801 16.5058 17.9434 17.215 18.0596 17.6309C18.1187 17.8424 18.1937 17.9881 18.3008 18.0996C18.4065 18.2096 18.5365 18.279 18.6865 18.3496L18.6885 18.3506C19.017 18.4959 19.3257 18.5312 20.2002 18.5312C20.6806 18.5312 20.968 18.5269 21.1611 18.501C21.2592 18.4878 21.3372 18.4684 21.4062 18.4395C21.4411 18.4248 21.4731 18.4082 21.5029 18.3896L21.5889 18.3291V18.3281C21.9646 18.0307 22.1081 17.5307 21.917 17.0967L21.916 17.0977C21.8334 16.8893 21.7228 16.7382 21.541 16.6309C21.3642 16.5265 21.1285 16.4684 20.8105 16.4229L20.8096 16.4219C20.6756 16.404 20.5506 16.3839 20.458 16.3662C20.4227 16.3595 20.3928 16.3532 20.3691 16.3477C20.3696 16.3171 20.3711 16.2763 20.373 16.2266C20.3779 16.104 20.3874 15.9285 20.4004 15.7129C20.4263 15.2814 20.467 14.691 20.5166 14.0488C20.6159 12.7548 20.6972 11.2582 20.6973 10.7197V9.93066L21.0146 10.126C21.2266 10.2571 21.3696 10.3372 21.5488 10.3809C21.7249 10.4237 21.9313 10.4307 22.2676 10.4307C22.5879 10.4307 22.7986 10.4218 22.9883 10.3809C23.1796 10.3395 23.3444 10.2659 23.5762 10.1475H23.5771C24.7336 9.5499 25.3213 8.18409 24.9473 7.01758L24.8594 6.78711C24.7454 6.52522 24.557 6.25992 24.3418 6.03711C24.1273 5.81506 23.8793 5.62973 23.6416 5.53223C23.4203 5.43858 23.1002 5.39693 22.7783 5.40039C22.4555 5.40387 22.1172 5.45266 21.8555 5.54785C21.3985 5.70548 20.9613 6.06373 20.625 6.50293C20.3304 6.88772 20.1069 7.34173 20.0146 7.79102L19.9834 7.9834L19.9463 8.30371L19.5732 8.08887H19.5723C19.3336 7.95341 19.1836 7.87301 18.9756 7.83105C18.7731 7.7902 18.5182 7.78613 18.0703 7.78613H17.1025L17.085 7.79395L15.126 8.58984V8.59082C14.044 9.03384 12.8115 9.48488 12.3916 9.61035C11.9063 9.75134 11.5665 9.87867 11.2715 10.0625C10.9757 10.2469 10.7303 10.4842 10.4297 10.8359V10.8369C10.2156 11.0828 10.0801 11.221 9.8623 11.3623C9.75113 11.4344 9.61787 11.5074 9.44141 11.5947L8.75879 11.9141C7.30056 12.573 6.89845 12.7245 5.4502 13.1484C4.16365 13.5196 3.19559 13.8241 2.50977 14.0742C2.16689 14.1992 1.89223 14.311 1.68359 14.4121C1.47764 14.5119 1.32655 14.6049 1.2373 14.6943C1.1551 14.7768 1.07216 14.8825 1.00586 14.9834C0.941608 15.0812 0.884839 15.1869 0.867188 15.2695L0.868164 15.2705C0.855454 15.326 0.858191 15.4064 0.867188 15.4902C0.876966 15.5812 0.894833 15.6933 0.918945 15.8184C0.967335 16.0693 1.04168 16.3787 1.125 16.6885C1.20836 16.9984 1.30141 17.3111 1.38965 17.5674C1.43368 17.6952 1.4774 17.81 1.51758 17.9043C1.55697 17.9968 1.59622 18.0763 1.63379 18.1279L1.63477 18.1299C1.76017 18.2923 1.98754 18.4238 2.22656 18.5049C2.46698 18.5863 2.73915 18.6238 2.96777 18.584ZM23.1523 9.41699C22.3349 9.82683 21.4755 9.65921 21.0781 9.06152L21.0771 9.0625C20.8586 8.72705 20.7773 8.38885 20.8242 8.0498C20.8656 7.75128 21.008 7.4431 21.2607 7.12891L21.376 6.99414V6.99316C21.7201 6.60833 22.0665 6.3708 22.4082 6.27246C22.7471 6.17505 23.0912 6.21224 23.4404 6.3916H23.4414C23.8738 6.60853 24.1981 7.16027 24.1982 7.67773C24.1982 8.08821 24.1092 8.43655 23.9365 8.72363C23.7854 8.97457 23.5672 9.1839 23.2803 9.34863L23.1523 9.41699ZM2.65918 17.6924C2.58525 17.6898 2.51608 17.679 2.46191 17.6631C2.4042 17.6461 2.37772 17.6267 2.37012 17.6172L2.36816 17.6152C2.36981 17.6172 2.36573 17.6126 2.35645 17.5938C2.34795 17.5765 2.33733 17.5522 2.3252 17.5225C2.30101 17.4633 2.27192 17.3838 2.23926 17.29C2.17386 17.1023 2.09667 16.8601 2.02246 16.6143C1.94831 16.3686 1.87721 16.1203 1.8252 15.9189C1.79916 15.8182 1.77825 15.7298 1.76367 15.6602C1.74841 15.5872 1.74219 15.5429 1.74219 15.5254C1.74227 15.5244 1.74285 15.5216 1.74414 15.5166C1.74581 15.5101 1.74848 15.5016 1.75293 15.4912C1.76197 15.4701 1.77624 15.4446 1.79492 15.417C1.83236 15.3617 1.88382 15.3043 1.9375 15.2617L2.0918 15.1826C2.17574 15.1454 2.28662 15.1 2.41992 15.0488C2.68674 14.9464 3.04049 14.8206 3.44141 14.6846C4.24256 14.4126 5.23032 14.1012 6.08984 13.8574H6.09082C6.56817 13.7285 7.71186 13.2824 8.63281 12.875L10.3027 12.1416L10.3203 12.1338L10.334 12.1201L11.0557 11.3867C11.4011 11.0357 11.5833 10.8566 11.7568 10.7402C11.9261 10.6268 12.0907 10.571 12.4111 10.4805H12.4121C12.7862 10.3706 13.5654 10.0978 14.1367 9.86133H14.1357C17.0868 8.67218 17.3907 8.58398 18.0254 8.58398H18.0273C18.3374 8.57739 18.589 8.61028 18.791 8.66992L18.9775 8.73828C19.4133 8.9357 19.757 9.34578 19.8311 9.7334V9.73438C19.8446 9.80253 19.8535 9.93141 19.8525 10.1533C19.8516 10.3727 19.841 10.676 19.8213 11.0889C19.7819 11.9148 19.7035 13.1746 19.5771 15.0664L19.4688 16.7227L19.4658 16.7715L19.502 16.8037L19.7451 17.0215L19.7471 17.0225C19.8541 17.1151 19.9565 17.178 20.085 17.2158C20.2106 17.2527 20.3555 17.2637 20.543 17.2637C20.7902 17.2637 20.9546 17.3026 21.042 17.3574C21.0834 17.3834 21.1017 17.4097 21.1094 17.4326C21.117 17.4554 21.1181 17.4881 21.0996 17.5352L21.0977 17.54C21.0958 17.5416 21.0917 17.5442 21.084 17.5479C21.0609 17.5588 21.0179 17.5713 20.9404 17.5811C20.7864 17.6005 20.5311 17.6074 20.1104 17.6074C19.6425 17.6074 19.3871 17.6027 19.2295 17.5781C19.1529 17.5662 19.1059 17.5499 19.0713 17.5312C19.0374 17.5129 19.0088 17.4885 18.9746 17.4502L18.9717 17.4463C18.9188 17.3932 18.8988 17.378 18.877 17.3242C18.8516 17.2616 18.8267 17.1502 18.7979 16.9121C18.7407 16.4397 18.6706 15.5109 18.5215 13.5811C18.4673 12.8834 18.4091 12.226 18.3594 11.7285C18.3345 11.48 18.3117 11.2708 18.293 11.1162C18.2836 11.0389 18.2749 10.9747 18.2676 10.9258C18.2607 10.8799 18.2542 10.8396 18.2471 10.8164L18.2451 10.8105C18.1828 10.6481 18.0206 10.5621 17.874 10.5469C17.7286 10.5319 17.5506 10.5844 17.4883 10.7578V10.7588C17.4763 10.7922 17.471 10.8403 17.4678 10.8857C17.4642 10.9366 17.4619 10.9996 17.4619 11.0693C17.4619 11.209 17.4697 11.3811 17.4834 11.5508V11.5518L17.5283 12.0645L16.4229 12.2139C14.2798 12.504 13.4838 12.6956 12.2529 13.2441C10.3745 14.0823 7.90807 14.8407 5.36816 15.3555H5.36719C4.74865 15.4868 4.17022 15.6139 3.73828 15.7148C3.52256 15.7652 3.34239 15.8087 3.21191 15.8438C3.14694 15.8612 3.09307 15.8774 3.05273 15.8906C3.03267 15.8972 3.01404 15.9039 2.99902 15.9102C2.98876 15.9144 2.97041 15.9229 2.9541 15.9355V15.9346C2.95281 15.9355 2.95146 15.9365 2.9502 15.9375L2.94922 15.9385V15.9395C2.8911 15.9857 2.85802 16.0532 2.84082 16.127C2.82305 16.2034 2.81904 16.2957 2.82617 16.3994C2.84046 16.6069 2.89915 16.8817 2.99902 17.2188C3.05424 17.4126 3.07394 17.5077 3.07227 17.5615C3.07156 17.5838 3.06663 17.5914 3.06445 17.5947C3.06104 17.5999 3.05391 17.6084 3.03223 17.623C2.95837 17.67 2.81182 17.6977 2.65918 17.6924Z" fill="#005F73" stroke="#005F73" stroke-width="0.2"/>
<path d="M22.3521 3.57738C22.3789 3.40895 22.3193 3.24124 22.1924 3.12733L22.1918 3.12858C22.1512 3.09141 22.1014 3.07193 22.0322 3.07018C21.9686 3.0686 21.8828 3.08084 21.763 3.10871C21.5218 3.1649 21.1103 3.29085 20.3874 3.53359C18.9386 4.02012 16.2226 4.9813 11.0788 6.80641C5.77065 8.68984 3.05582 9.65356 1.6642 10.1749C0.970152 10.4349 0.600137 10.5868 0.401216 10.6893C0.302749 10.7401 0.236521 10.7827 0.194137 10.827C0.145372 10.8781 0.131732 10.9267 0.125524 10.9695L0.126771 10.9701C0.115601 11.0414 0.104423 11.1006 0.10085 11.1482C0.0972907 11.1957 0.0985179 11.2457 0.117829 11.2924C0.1386 11.3425 0.174756 11.3749 0.21286 11.3996C0.24834 11.4226 0.295 11.4441 0.344823 11.4678C0.369838 11.4797 0.394772 11.4812 0.406545 11.4812C0.421796 11.4811 0.438401 11.4788 0.45464 11.4765C0.487235 11.472 0.528946 11.4632 0.579243 11.451C0.681003 11.4261 0.827446 11.385 1.02252 11.3248C1.41336 11.2041 2.00833 11.0066 2.85727 10.7163C4.55592 10.1353 7.27603 9.17845 11.4223 7.70728C16.4887 5.90963 19.1973 4.94562 20.6433 4.40649C21.3652 4.13732 21.776 3.97317 22.0089 3.86289C22.1245 3.80811 22.2027 3.76425 22.2539 3.72413C22.3072 3.68236 22.3415 3.63642 22.3515 3.57863L22.3521 3.57738Z" fill="#005F73" stroke="#005F73" stroke-width="0.2"/>
</svg>
