<svg width="25" height="24" viewBox="0 0 25 24" fill="none" xmlns="http://www.w3.org/2000/svg">
<path d="M21.5303 21.0918C22.5437 21.1144 23.1751 21.0953 23.5752 20.9766C23.7791 20.916 23.9302 20.8277 24.042 20.7002C24.1529 20.5736 24.2176 20.4169 24.2637 20.2334L24.293 20.0703C24.3327 19.6906 24.1772 19.3275 23.8857 19.0293C23.5953 18.7322 23.1677 18.4955 22.6494 18.3594L22.4219 18.3076C22.25 18.2745 22.0778 18.2269 21.9404 18.1777C21.872 18.1532 21.8137 18.1284 21.7686 18.1055C21.7206 18.0811 21.6963 18.0633 21.6885 18.0547L21.6797 18.0449L21.6787 18.0459C21.6835 18.05 21.6821 18.0493 21.6729 18.0361C21.6652 18.0252 21.655 18.0091 21.6426 17.9883C21.6177 17.9464 21.5855 17.8881 21.5469 17.8145C21.4694 17.6668 21.3679 17.4615 21.249 17.2139C21.1302 16.9662 20.9944 16.6765 20.8486 16.3604L20.3887 15.3477C19.299 12.8794 18.4928 11.2421 17.9561 10.4004L17.7422 10.0879C17.3096 9.51589 16.643 9.20802 15.8857 9.20801C15.6292 9.20801 15.3998 9.23154 15.1553 9.31836C14.9116 9.40487 14.6585 9.55299 14.3506 9.79297C13.8909 10.1513 13.2976 10.724 12.418 11.6309L11.4375 12.6533C10.8791 13.2315 10.3625 13.7586 9.97656 14.1406C9.78346 14.3318 9.62317 14.4856 9.50781 14.5918C9.45446 14.6409 9.41171 14.6789 9.37988 14.7051C9.36096 14.6821 9.33757 14.6517 9.30957 14.6143C9.23551 14.5152 9.13516 14.3721 9.01758 14.1992C8.78252 13.8537 8.48054 13.3913 8.18457 12.9268C7.88865 12.4623 7.59875 11.9965 7.38867 11.6426C7.2835 11.4654 7.19905 11.317 7.14355 11.2119C7.12804 11.1825 7.11571 11.157 7.10547 11.1357C7.10722 11.1351 7.10952 11.1344 7.11133 11.1338C7.16739 11.1148 7.24669 11.0901 7.34375 11.0605C7.53828 11.0013 7.80229 10.9249 8.08984 10.8457L8.62305 10.6807C9.1583 10.5024 9.69365 10.286 10.1738 10.0566C10.7319 9.79004 11.2216 9.50263 11.5518 9.23438L11.6836 9.12109V9.12012C11.9102 8.90726 12.0514 8.76542 12.1299 8.60938C12.2107 8.44859 12.2217 8.28183 12.2217 8.03809C12.2217 7.7233 12.1712 7.4349 12.042 7.15137C11.9131 6.86852 11.7074 6.59613 11.4062 6.30859C10.8066 5.73617 9.81151 5.09233 8.23047 4.18555C7.70891 3.88606 7.3926 3.71425 7.12891 3.61719C6.85949 3.51808 6.64644 3.49698 6.33594 3.49121C6.00052 3.48544 5.84582 3.47575 5.72363 3.42285C5.60351 3.37081 5.50573 3.2743 5.30273 3.0498C4.49887 2.13275 3.38034 1.73042 2.32617 1.96582L2.11621 2.02148C0.694376 2.46677 -0.126868 3.78471 0.154297 5.19922C0.293288 5.9153 0.663283 6.62774 1.1123 7.16211C1.33715 7.42967 1.58427 7.65521 1.83496 7.81445C2.08473 7.97306 2.34411 8.07025 2.59277 8.07031C2.6447 8.07031 2.68018 8.07808 2.70312 8.08496C2.70142 8.0863 2.70019 8.08843 2.69824 8.08984C2.66835 8.11156 2.61769 8.13664 2.54297 8.15723H2.54199C2.0031 8.31432 1.455 8.82537 1.12891 9.43066C0.985983 9.69481 0.90048 9.88439 0.853516 10.1318C0.807375 10.3751 0.798828 10.6714 0.798828 11.1465C0.798838 11.6068 0.813532 11.9177 0.868164 12.2119C0.922924 12.5067 1.01739 12.7808 1.1709 13.168C1.67622 14.4632 2.65977 15.9721 3.75781 17.2715C4.85459 18.5693 6.07728 19.6719 7.06738 20.1406L7.33691 20.2666C7.58326 20.3781 7.77025 20.4487 7.97168 20.4922C8.23944 20.55 8.52911 20.5586 9.01562 20.5586C9.60828 20.5586 10.0653 20.5161 10.4873 20.4023C10.9098 20.2884 11.2922 20.1043 11.7383 19.8291C12.5119 19.3512 13.1938 18.55 14.6855 16.3867C15.216 15.6195 15.5212 15.1908 15.708 14.9746C15.7543 14.9211 15.7923 14.8829 15.8223 14.8564C15.8458 14.8357 15.8627 14.8258 15.873 14.8203L15.874 14.8213L15.875 14.8232C15.9502 14.9281 16.1221 15.2254 16.3447 15.6299C16.5659 16.0319 16.8338 16.5333 17.0996 17.041C17.6331 18.0599 18.1534 19.0951 18.2744 19.4062C18.5341 20.0889 18.7717 20.5123 19.251 20.7588C19.719 20.9994 20.4052 21.0636 21.5293 21.0918H21.5303ZM3.79688 7.07812C3.38227 7.16141 3.07235 7.16091 2.79688 7.06934C2.52101 6.97761 2.2671 6.78996 1.97266 6.47266C1.57231 6.0369 1.31679 5.53465 1.2207 5.05957C1.12454 4.58367 1.18898 4.14259 1.41602 3.81934C2.05639 2.89853 3.17105 2.68625 4.05273 3.28809C4.55833 3.64415 4.94367 4.17732 5.14453 4.72266C5.34616 5.27032 5.35615 5.81279 5.14062 6.19727C4.99347 6.45913 4.83608 6.64133 4.63086 6.77637C4.47568 6.87844 4.28897 6.95639 4.05176 7.01953L3.79688 7.07812ZM21.5625 20.0342C21.1459 20.025 20.7248 20.0029 20.3867 19.9697C20.2178 19.9531 20.071 19.9334 19.9561 19.9121C19.8393 19.8904 19.7682 19.8692 19.7383 19.8525C19.7141 19.8357 19.6793 19.8 19.6348 19.7412C19.5901 19.6822 19.5403 19.6049 19.4873 19.5117C19.3814 19.3253 19.2657 19.0801 19.1553 18.7998C18.9698 18.3212 18.3186 17.0679 17.6699 15.8848C17.3446 15.2915 17.0184 14.7135 16.749 14.2559C16.6145 14.0273 16.494 13.8281 16.3945 13.6719C16.2963 13.5177 16.2154 13.3988 16.1611 13.3369L16.1582 13.335C16.0935 13.2664 16.0185 13.206 15.9473 13.165C15.9117 13.1446 15.8744 13.1274 15.8379 13.1172C15.8033 13.1076 15.7582 13.101 15.7139 13.1152L15.7061 13.1182C15.6756 13.1309 15.6483 13.1566 15.6299 13.1748C15.6076 13.1969 15.5816 13.2255 15.5537 13.2588C15.4975 13.3259 15.4272 13.4177 15.3486 13.5264C15.1912 13.744 14.9958 14.0352 14.8008 14.3486V14.3496C13.7197 16.049 12.2909 17.9664 11.6758 18.5713L11.4678 18.7549C10.4643 19.5695 8.97659 19.8029 7.75293 19.334L7.49512 19.2227C6.5848 18.7781 5.46669 17.7932 4.44824 16.4951C3.22742 14.9444 2.43171 13.6463 2.04004 12.5566C1.64919 11.4691 1.66408 10.5993 2.0459 9.88965L2.19531 9.63379C2.34127 9.41092 2.4863 9.27857 2.71387 9.1875C3.03206 9.06022 3.51716 9.01145 4.39844 8.96582C5.31583 8.91445 6.33568 8.76592 7.17871 8.5791C7.60003 8.48573 7.97931 8.38287 8.28027 8.27637C8.43076 8.2231 8.56377 8.16843 8.67285 8.11328C8.77908 8.05956 8.86846 8.00223 8.93066 7.94141C9.02343 7.85484 9.10385 7.76061 9.12598 7.65039C9.15011 7.53016 9.10091 7.4206 9.00781 7.31641C8.91606 7.21376 8.76982 7.1023 8.56641 6.9707C8.36141 6.83809 8.09146 6.68031 7.74707 6.4873L7.74609 6.48828C7.12035 6.13074 6.54932 5.8105 6.46289 5.75684C6.46726 5.7604 6.46615 5.76108 6.46094 5.75293C6.45551 5.74444 6.44885 5.73061 6.44043 5.71094C6.42357 5.67152 6.40515 5.61586 6.38672 5.54688C6.36833 5.47799 6.35009 5.39769 6.33398 5.31055L6.29199 5.03223C6.27438 4.87085 6.26237 4.74859 6.25684 4.65527C6.25119 4.55999 6.25294 4.50266 6.25977 4.46875C6.26224 4.45658 6.26514 4.45023 6.2666 4.44727C6.27104 4.44526 6.28638 4.44043 6.33398 4.44043C6.3514 4.44048 6.38981 4.44635 6.45117 4.46387C6.51012 4.4807 6.58272 4.50587 6.66406 4.53711C6.82666 4.59954 7.02077 4.68634 7.20605 4.78125H7.20703C7.59043 4.97171 8.39868 5.44582 9.00879 5.8418V5.84277C10.0483 6.50538 10.7149 7.07431 11.0186 7.54004C11.1695 7.77166 11.2236 7.96622 11.2021 8.12793C11.181 8.28661 11.0843 8.43471 10.8887 8.56836C10.3253 8.95636 9.09472 9.46187 7.53516 9.93945L6.84766 10.1426C5.75562 10.454 5.08982 10.6596 4.69727 10.8301C4.50151 10.9151 4.36377 10.996 4.27441 11.083C4.18029 11.1747 4.13976 11.2733 4.13965 11.3838C4.13965 11.4835 4.1631 11.577 4.22559 11.6494C4.28847 11.722 4.37908 11.7603 4.48242 11.7744C4.68287 11.8017 4.97543 11.7459 5.36328 11.627H5.36426L6.00781 11.4238L7.24902 13.3994L7.75977 14.2148C7.92364 14.4729 8.07812 14.7134 8.21582 14.9229C8.35354 15.1323 8.47481 15.3115 8.57031 15.4473C8.66217 15.5778 8.73645 15.6769 8.78027 15.7197L8.87109 15.8066C8.96221 15.8888 9.05643 15.9538 9.16406 15.9805C9.31467 16.0177 9.46857 15.9758 9.64648 15.8662C9.82322 15.7573 10.0381 15.5731 10.3184 15.3018C10.6 15.0291 10.9525 14.6628 11.4053 14.1865C12.3333 13.2124 13.6374 11.9103 14.2832 11.2988C14.851 10.7685 15.1467 10.5004 15.3594 10.3633C15.4624 10.2969 15.5428 10.2637 15.6221 10.2461C15.7033 10.2281 15.789 10.2256 15.9092 10.2256C16.1231 10.2256 16.2512 10.2421 16.3604 10.2881C16.47 10.3343 16.5701 10.4144 16.7217 10.5605C17.0269 10.8663 17.3859 11.4175 17.8848 12.3994C18.3831 13.3803 19.0174 14.7814 19.876 16.7773C20.3148 17.7928 20.5855 18.3716 20.8877 18.7178C21.2005 19.0761 21.5441 19.1832 22.0898 19.2861C22.5039 19.3638 22.855 19.5044 23.0684 19.6504C23.1764 19.7243 23.2389 19.7928 23.2637 19.8457C23.2753 19.8706 23.2762 19.8891 23.2744 19.9014C23.2727 19.9125 23.2676 19.927 23.251 19.9443L23.2188 19.9561C23.1908 19.9648 23.1515 19.9732 23.1016 19.9814C23.002 19.9979 22.8675 20.0111 22.708 20.0205C22.3895 20.0392 21.979 20.0434 21.5625 20.0342ZM6.05957 6.70508L6.05859 6.7041L6.06055 6.70508L6.0625 6.70605C6.06114 6.70567 6.06014 6.70527 6.05957 6.70508ZM4.63574 7.94043C4.61325 7.93922 4.59251 7.93643 4.57324 7.93457C4.60754 7.9236 4.64777 7.90944 4.69629 7.89746H4.69727C5.11301 7.80251 5.55033 7.49916 5.82715 7.15332L5.93555 7.00293L5.93945 6.99707C5.99001 6.90501 6.0431 6.82352 6.08496 6.76562C6.09418 6.75288 6.10363 6.74147 6.11133 6.73145C6.15022 6.75236 6.20444 6.78251 6.27051 6.82031C6.40382 6.89659 6.58305 7.00169 6.77734 7.11523C6.96923 7.23303 7.14265 7.3475 7.26758 7.4375C7.30654 7.46557 7.33861 7.49279 7.36621 7.51465C7.33512 7.52518 7.29827 7.53851 7.25488 7.55078C7.10185 7.59408 6.88643 7.64398 6.64062 7.69336C6.27197 7.76742 5.83962 7.83957 5.45508 7.8877L5.08984 7.92676C4.90501 7.94347 4.75159 7.94666 4.63574 7.94043Z" fill="#005F73" stroke="#005F73" stroke-width="0.2"/>
</svg>
