<svg width="25" height="24" viewBox="0 0 25 24" fill="none" xmlns="http://www.w3.org/2000/svg">
<path d="M18.087 15.48L14.027 12L18.087 8.52C19.697 7.14 20.627 5.12 20.627 3C20.627 2.59 20.287 2.25 19.877 2.25C19.467 2.25 19.127 2.59 19.127 3C19.127 3.08 19.127 3.17 19.117 3.25H6.63695C6.63695 3.17 6.62695 3.08 6.62695 3C6.62695 2.59 6.28695 2.25 5.87695 2.25C5.46695 2.25 5.12695 2.59 5.12695 3C5.12695 5.13 6.05695 7.14 7.66695 8.52L11.727 12L7.66695 15.48C6.05695 16.86 5.12695 18.88 5.12695 21C5.12695 21.41 5.46695 21.75 5.87695 21.75C6.28695 21.75 6.62695 21.41 6.62695 21C6.62695 20.92 6.62695 20.83 6.63695 20.75H19.107C19.107 20.83 19.117 20.92 19.117 21C19.117 21.41 19.457 21.75 19.867 21.75C20.277 21.75 20.617 21.41 20.617 21C20.617 18.87 19.687 16.86 18.077 15.48H18.087ZM6.90695 4.75H18.857C18.557 5.7 18.007 6.56 17.257 7.25H8.50695C7.75695 6.56 7.20695 5.7 6.90695 4.75ZM10.247 8.75H15.527L12.887 11.01L10.247 8.75ZM15.527 15.25H10.247L12.887 12.99L15.527 15.25ZM6.91695 19.25C7.22695 18.29 7.77695 17.41 8.54695 16.72C8.58695 16.72 8.62695 16.75 8.67695 16.75H17.267C18.017 17.44 18.567 18.3 18.867 19.25H6.90695H6.91695Z" fill="#005F73"/>
</svg>
