<svg width="25" height="24" viewBox="0 0 25 24" fill="none" xmlns="http://www.w3.org/2000/svg">
<path d="M12.4385 2.25H4.43848C3.74848 2.25 3.18848 2.81 3.18848 3.5V5.5C3.18848 6.1 3.61848 6.58 4.18848 6.7V17.5C4.18848 19.84 6.09848 21.75 8.43848 21.75C10.7785 21.75 12.6885 19.84 12.6885 17.5V6.7C13.2585 6.58 13.6885 6.1 13.6885 5.5V3.5C13.6885 2.81 13.1285 2.25 12.4385 2.25ZM4.68848 3.75H12.1885V5.25H4.68848V3.75ZM8.43848 20.25C6.91848 20.25 5.68848 19.02 5.68848 17.5V16.75H7.93848C8.34848 16.75 8.68848 16.41 8.68848 16C8.68848 15.59 8.34848 15.25 7.93848 15.25H5.68848V13.75H7.93848C8.34848 13.75 8.68848 13.41 8.68848 13C8.68848 12.59 8.34848 12.25 7.93848 12.25H5.68848V10.75H7.93848C8.34848 10.75 8.68848 10.41 8.68848 10C8.68848 9.59 8.34848 9.25 7.93848 9.25H5.68848V6.75H11.1885V17.5C11.1885 19.02 9.95848 20.25 8.43848 20.25Z" fill="#005F73"/>
<path d="M22.6385 17.1001C22.5685 16.6501 22.4585 16.2001 22.3085 15.7601C21.9685 14.7401 21.0885 12.8101 19.0185 11.3801C18.7585 11.2001 18.4185 11.2001 18.1685 11.3801C17.2785 12.0001 15.6785 13.3801 14.8885 15.7601C14.7585 16.1601 14.6485 16.5901 14.5785 17.0201C14.3785 18.1901 14.7085 19.3801 15.4785 20.3001C16.2585 21.2201 17.3985 21.7601 18.6085 21.7601C19.8185 21.7601 20.9585 21.2301 21.7485 20.3101C22.5085 19.4201 22.8385 18.2501 22.6485 17.1101L22.6385 17.1001ZM20.5985 19.3201C19.5985 20.4901 17.6085 20.4901 16.6185 19.3201C16.1385 18.7501 15.9285 18.0001 16.0585 17.2701C16.1185 16.9101 16.2085 16.5601 16.3185 16.2401C16.8585 14.6101 17.8585 13.5501 18.6085 12.9401C20.0085 14.0801 20.6385 15.4701 20.8985 16.2401C21.0185 16.6001 21.1085 16.9801 21.1685 17.3501C21.2885 18.0601 21.0885 18.7701 20.6085 19.3301L20.5985 19.3201Z" fill="#005F73"/>
<path d="M19.7084 16.2902C19.3184 16.4202 19.0984 16.8402 19.2284 17.2402C19.2684 17.3502 19.3084 17.5502 19.2384 17.7402C19.1584 17.9302 18.9684 18.1002 18.6984 18.1902C18.3084 18.3202 18.0984 18.7502 18.2384 19.1402C18.3484 19.4502 18.6384 19.6502 18.9484 19.6502C19.0284 19.6502 19.1084 19.6402 19.1884 19.6102C19.8784 19.3702 20.4084 18.8902 20.6484 18.2802C20.8784 17.7002 20.7784 17.1402 20.6584 16.7802C20.5284 16.3902 20.1084 16.1702 19.7084 16.3002V16.2902Z" fill="#005F73"/>
</svg>
