<svg width="25" height="24" viewBox="0 0 25 24" fill="none" xmlns="http://www.w3.org/2000/svg">
<path d="M21.877 11.25H20.587C20.437 9.68 19.807 8.24 18.857 7.08L19.767 6.17C20.057 5.88 20.057 5.4 19.767 5.11C19.477 4.82 18.997 4.82 18.707 5.11L17.797 6.02C16.637 5.07 15.197 4.44 13.627 4.29V3C13.627 2.59 13.287 2.25 12.877 2.25C12.467 2.25 12.127 2.59 12.127 3V4.29C10.557 4.44 9.11695 5.07 7.95695 6.02L7.04695 5.11C6.75695 4.82 6.27695 4.82 5.98695 5.11C5.69695 5.4 5.69695 5.88 5.98695 6.17L6.89695 7.08C5.94695 8.24 5.31695 9.68 5.16695 11.25H3.87695C3.46695 11.25 3.12695 11.59 3.12695 12C3.12695 12.41 3.46695 12.75 3.87695 12.75H5.16695C5.31695 14.32 5.94695 15.76 6.89695 16.92L5.98695 17.83C5.69695 18.12 5.69695 18.6 5.98695 18.89C6.13695 19.04 6.32695 19.11 6.51695 19.11C6.70695 19.11 6.89695 19.04 7.04695 18.89L7.95695 17.98C9.11695 18.93 10.557 19.56 12.127 19.71V21C12.127 21.41 12.467 21.75 12.877 21.75C13.287 21.75 13.627 21.41 13.627 21V19.71C15.197 19.56 16.637 18.93 17.797 17.98L18.707 18.89C18.857 19.04 19.047 19.11 19.237 19.11C19.427 19.11 19.617 19.04 19.767 18.89C20.057 18.6 20.057 18.12 19.767 17.83L18.857 16.92C19.807 15.76 20.437 14.32 20.587 12.75H21.877C22.287 12.75 22.627 12.41 22.627 12C22.627 11.59 22.287 11.25 21.877 11.25ZM12.877 18.25C9.42695 18.25 6.62695 15.45 6.62695 12C6.62695 8.55 9.42695 5.75 12.877 5.75C16.327 5.75 19.127 8.55 19.127 12C19.127 15.45 16.327 18.25 12.877 18.25Z" fill="#005F73"/>
<path d="M12.877 7.25C10.257 7.25 8.12695 9.38 8.12695 12C8.12695 14.62 10.257 16.75 12.877 16.75C15.497 16.75 17.627 14.62 17.627 12C17.627 9.38 15.497 7.25 12.877 7.25ZM12.877 15.25C11.087 15.25 9.62695 13.79 9.62695 12C9.62695 10.21 11.087 8.75 12.877 8.75C14.667 8.75 16.127 10.21 16.127 12C16.127 13.79 14.667 15.25 12.877 15.25Z" fill="#005F73"/>
</svg>
