<svg width="24" height="24" viewBox="0 0 24 24" fill="none" xmlns="http://www.w3.org/2000/svg">
<path d="M21 11.25H19.71C19.56 9.68 18.93 8.24 17.98 7.08L18.89 6.17C19.18 5.88 19.18 5.4 18.89 5.11C18.6 4.82 18.12 4.82 17.83 5.11L16.92 6.02C15.76 5.07 14.32 4.44 12.75 4.29V3C12.75 2.59 12.41 2.25 12 2.25C11.59 2.25 11.25 2.59 11.25 3V4.29C9.68 4.44 8.24 5.07 7.08 6.02L6.17 5.11C5.88 4.82 5.4 4.82 5.11 5.11C4.82 5.4 4.82 5.88 5.11 6.17L6.02 7.08C5.07 8.24 4.44 9.68 4.29 11.25H3C2.59 11.25 2.25 11.59 2.25 12C2.25 12.41 2.59 12.75 3 12.75H4.29C4.44 14.32 5.07 15.76 6.02 16.92L5.11 17.83C4.82 18.12 4.82 18.6 5.11 18.89C5.26 19.04 5.45 19.11 5.64 19.11C5.83 19.11 6.02 19.04 6.17 18.89L7.08 17.98C8.24 18.93 9.68 19.56 11.25 19.71V21C11.25 21.41 11.59 21.75 12 21.75C12.41 21.75 12.75 21.41 12.75 21V19.71C14.32 19.56 15.76 18.93 16.92 17.98L17.83 18.89C17.98 19.04 18.17 19.11 18.36 19.11C18.55 19.11 18.74 19.04 18.89 18.89C19.18 18.6 19.18 18.12 18.89 17.83L17.98 16.92C18.93 15.76 19.56 14.32 19.71 12.75H21C21.41 12.75 21.75 12.41 21.75 12C21.75 11.59 21.41 11.25 21 11.25ZM12 18.25C8.55 18.25 5.75 15.45 5.75 12C5.75 8.55 8.55 5.75 12 5.75C15.45 5.75 18.25 8.55 18.25 12C18.25 15.45 15.45 18.25 12 18.25Z" fill="#005F73"/>
<path d="M12 7.25C9.38 7.25 7.25 9.38 7.25 12C7.25 14.62 9.38 16.75 12 16.75C14.62 16.75 16.75 14.62 16.75 12C16.75 9.38 14.62 7.25 12 7.25ZM12 15.25C10.21 15.25 8.75 13.79 8.75 12C8.75 10.21 10.21 8.75 12 8.75C13.79 8.75 15.25 10.21 15.25 12C15.25 13.79 13.79 15.25 12 15.25Z" fill="#005F73"/>
</svg>
