<svg width="24" height="24" viewBox="0 0 24 24" fill="none" xmlns="http://www.w3.org/2000/svg">
<path d="M15.5 12.1668V10.5002C15.5 9.75975 15.8219 9.09451 16.3333 8.63674M20.5 12.1668V10.5002C20.5 9.11945 19.3807 8.00016 18 8.00016C16.6193 8.00016 15.5 6.88087 15.5 5.50016V3.8335M20.5 3.8335V5.50016C20.5 6.24058 20.1781 6.90582 19.6667 7.36358M17.5 5.0835H18.5M17.5 11.0002H18.5" stroke="#005F73" stroke-width="1.5" stroke-linecap="round" stroke-linejoin="round"/>
<path d="M15.5 20.1668V18.5002C15.5 17.7597 15.8219 17.0945 16.3333 16.6367M20.5 20.1668V18.5002C20.5 17.1195 19.3807 16.0002 18 16.0002C16.6193 16.0002 15.5 14.8809 15.5 13.5002V11.8335M20.5 11.8335V13.5002C20.5 14.2406 20.1781 14.9058 19.6667 15.3636M17.5 13.0835H18.5M17.5 19.0002H18.5" stroke="#005F73" stroke-width="1.5" stroke-linecap="round" stroke-linejoin="round"/>
<path d="M12.0996 1.33789C12.7341 1.33862 13.3628 1.35387 14.001 1.49414H14C14.0429 1.50312 14.0857 1.51223 14.1299 1.52148H14.1309C14.5933 1.61941 14.8428 1.67227 15.0039 1.73242C15.1392 1.78294 15.2181 1.84115 15.3008 1.91895L15.3877 2.00293L15.4248 2.04004L15.4307 2.09277C15.4416 2.18904 15.4469 2.27733 15.4355 2.36719C15.4239 2.45918 15.3954 2.54605 15.3486 2.6416L15.334 2.6709L15.3076 2.69238C15.0779 2.87707 14.8644 2.83882 14.6592 2.82129L14.6465 2.82031V2.81934C14.4731 2.78914 14.3043 2.74746 14.1396 2.70605V2.70703C11.7323 2.13518 9.13032 2.55401 7.01855 3.84961C6.42678 4.22207 5.88266 4.6561 5.36328 5.12988H5.3623C5.33813 5.15179 5.31396 5.17372 5.28906 5.19629C3.85525 6.5237 2.89336 8.50873 2.58594 10.4297V10.4307C2.57773 10.4809 2.569 10.5313 2.56055 10.583C2.49184 11.0438 2.47544 11.4983 2.47656 11.9707V12.0879L2.48828 12.5811C2.50744 12.9879 2.55123 13.3868 2.62793 13.7881L2.67773 14.0293V14.0312C2.68623 14.0705 2.69534 14.11 2.7041 14.1504H2.70312C3.06319 15.771 3.86575 17.2266 4.98438 18.4502H4.98535C5.06241 18.5357 5.13574 18.6227 5.20703 18.7129C5.27581 18.7917 5.3488 18.864 5.42578 18.9346L5.6748 19.1514L5.67773 19.1533C5.7168 19.1877 5.75566 19.2224 5.7959 19.2578L6.09766 19.5039C6.40498 19.7419 6.72885 19.957 7.06445 20.1699L7.06543 20.1709C7.09307 20.1887 7.12093 20.2063 7.14941 20.2246H7.14844C9.09846 21.464 11.6968 21.8316 13.9502 21.3516C14.1353 21.3085 14.3196 21.2609 14.5049 21.2119L14.5107 21.2109C14.7219 21.1629 14.9526 21.1219 15.1885 21.2188L15.29 21.2695L15.3242 21.2891L15.3438 21.3242C15.4545 21.517 15.4843 21.7096 15.4258 21.9297L15.4189 21.9551L15.4033 21.9775C15.2135 22.2441 14.9507 22.288 14.7217 22.3428L14.7227 22.3438C14.6836 22.3535 14.6447 22.3639 14.6045 22.374H14.6035C13.936 22.5372 13.254 22.6544 12.5566 22.6611C12.517 22.6616 12.4774 22.6626 12.4365 22.6631C11.6518 22.6702 10.8809 22.6615 10.0996 22.5254L9.76465 22.459C9.7247 22.4502 9.68471 22.4416 9.64355 22.4326H9.64258C9.51051 22.4028 9.37982 22.3692 9.25 22.334L8.8623 22.2217C8.82556 22.2104 8.78883 22.1991 8.75098 22.1875H8.75C7.14491 21.6853 5.71619 20.8001 4.5166 19.6328C4.45358 19.5717 4.38905 19.5111 4.32422 19.4502L4.32324 19.4492C4.00611 19.1456 3.74394 18.8041 3.48926 18.4648V18.4658C3.45907 18.4259 3.45948 18.4255 3.42871 18.3848C2.05098 16.5489 1.32667 14.3227 1.33203 12.0322L1.33301 11.9082C1.34123 9.02769 2.51855 6.36646 4.53711 4.33301L4.53809 4.33203C6.31635 2.57159 8.91788 1.35465 11.4521 1.34082C11.4924 1.34049 11.5327 1.34018 11.5742 1.33984C11.7044 1.33903 11.8349 1.33797 11.9648 1.33789C12.0091 1.33786 12.054 1.33792 12.0996 1.33789Z" fill="#005F73" stroke="#005F73" stroke-width="0.3"/>
<path d="M12.1113 3.94971L12.1318 3.95557C12.2723 3.9929 12.3534 4.05994 12.4229 4.13721L12.4902 4.21729L12.5146 4.24658L12.5215 4.28467C12.5325 4.34219 12.5403 4.38071 12.5439 4.42236C12.5475 4.4628 12.5471 4.50516 12.5469 4.5708C12.5471 4.62352 12.5476 4.67665 12.5479 4.73096V4.73291C12.5468 4.8193 12.5469 4.81966 12.5459 4.90771C12.5459 4.96797 12.5459 5.02825 12.5459 5.09033C12.546 5.25755 12.5453 5.42466 12.5439 5.59131C12.5428 5.76503 12.5422 5.93937 12.542 6.11377C12.5414 6.44378 12.54 6.77418 12.5381 7.104C12.536 7.47915 12.5351 7.85457 12.5342 8.22998C12.5323 8.95918 12.5283 9.68834 12.5244 10.4175C12.5261 10.4177 12.5277 10.4182 12.5293 10.4185H12.5352V10.4194C12.8719 10.4816 13.1388 10.6983 13.333 10.9438L13.4121 11.0503L13.415 11.0552V11.0562C13.684 11.4824 13.6942 11.9407 13.6484 12.3901L13.6475 12.3989L13.6455 12.4087C13.5447 12.8509 13.2979 13.1849 12.9258 13.4292L12.9219 13.4321C12.4953 13.6925 12.0482 13.6851 11.6123 13.6499L11.5996 13.6489L11.5869 13.645C11.4129 13.6001 11.2748 13.5333 11.1289 13.4419V13.4429C11.0999 13.4265 11.0709 13.4099 11.041 13.3931L11.0352 13.3901C10.7684 13.2238 10.5899 12.9897 10.459 12.7222L10.4492 12.7036L10.4453 12.6831C10.4358 12.6306 10.4277 12.5777 10.4189 12.5249C10.409 12.525 10.3975 12.5258 10.3838 12.5259H10.3828C9.8724 12.5297 9.36199 12.5328 8.85156 12.5347C8.58927 12.5356 8.32657 12.5374 8.06445 12.5396L7.30469 12.5425C7.20837 12.5428 7.11194 12.5434 7.01562 12.5444C6.88024 12.5458 6.74509 12.5455 6.61035 12.5454C6.57047 12.5461 6.53035 12.5476 6.48926 12.5483H6.48633C6.36092 12.5475 6.26811 12.5481 6.19238 12.5278C6.1066 12.5048 6.04553 12.4562 5.97852 12.4058L5.95898 12.3911L5.94531 12.3716C5.90643 12.3161 5.87273 12.2622 5.85156 12.1987C5.83033 12.135 5.82533 12.0722 5.82617 12.0024L5.82422 11.9087V11.8882L5.83008 11.8677C5.85304 11.7813 5.88449 11.7125 5.93457 11.6509C5.98118 11.5936 6.03885 11.5489 6.09668 11.5054L6.12402 11.4849L6.1582 11.478C6.23775 11.4625 6.31649 11.456 6.39258 11.4536H6.7373C6.87855 11.4537 7.01986 11.4551 7.16016 11.4565H7.15918C7.25641 11.4569 7.35394 11.4573 7.45117 11.4575H7.45215C7.70881 11.4582 7.96537 11.4603 8.22168 11.4624L9.00684 11.4663L10.417 11.4741C10.4173 11.4722 10.4177 11.4702 10.418 11.4683L10.4189 11.4634C10.4935 11.0563 10.8438 10.7622 11.1152 10.5659L11.1211 10.561L11.1279 10.5571C11.2425 10.491 11.3199 10.446 11.3906 10.4224C11.4187 10.413 11.446 10.4095 11.4727 10.4058C11.4686 9.6434 11.4668 8.88103 11.4648 8.11865C11.4639 7.74282 11.4621 7.36642 11.46 6.99072C11.4581 6.66303 11.4575 6.33506 11.457 6.00732C11.4568 5.83409 11.4564 5.66076 11.4551 5.48779C11.4536 5.29415 11.453 5.10067 11.4531 4.90771C11.4525 4.85013 11.4519 4.79224 11.4512 4.73291V4.73096L11.4521 4.57275L11.4512 4.43311V4.41943L11.4541 4.40479C11.4795 4.27194 11.5384 4.15432 11.6377 4.0708C11.7365 3.98775 11.8612 3.95141 11.9971 3.95264V3.95166C12.028 3.95118 12.059 3.9502 12.0908 3.94971H12.1113ZM11.8945 11.4292C11.7297 11.4573 11.6391 11.5374 11.5 11.6899C11.4238 11.8556 11.413 11.994 11.4414 12.187C11.5306 12.3654 11.6335 12.4679 11.8115 12.5571C12.0049 12.5857 12.1428 12.5747 12.3086 12.4985C12.4615 12.3591 12.5424 12.2694 12.5703 12.104C12.5752 11.9831 12.5699 11.8973 12.5479 11.8228C12.5262 11.7497 12.486 11.6773 12.4082 11.5903C12.3217 11.5132 12.2495 11.4732 12.1768 11.4517C12.102 11.4296 12.0159 11.4243 11.8945 11.4292Z" fill="#005F73" stroke="#005F73" stroke-width="0.3"/>
</svg>
