<svg width="24" height="24" viewBox="0 0 24 24" fill="none" xmlns="http://www.w3.org/2000/svg">
<path d="M8.99996 2.5H15M8.99996 2.5V6.96887C8.99996 7.31693 8.90913 7.65895 8.73644 7.96115L2.70983 18.5077C1.94793 19.841 2.91067 21.5 4.44631 21.5H19.5536C21.0892 21.5 22.052 19.841 21.2901 18.5077L15.2635 7.96115C15.0908 7.65895 15 7.31693 15 6.96887V2.5M8.99996 2.5H6.99996M15 2.5H17" stroke="#005F73" stroke-width="1.5" stroke-linecap="round" stroke-linejoin="round"/>
<path d="M10 12C9.93333 12 9.86668 11.9933 9.80668 11.98C9.74001 11.9667 9.68 11.9467 9.62 11.9267C9.56 11.9 9.49999 11.8667 9.44666 11.8333C9.39332 11.7933 9.34 11.7533 9.29333 11.7067C9.10667 11.52 9 11.2667 9 11C9 10.7333 9.10667 10.48 9.29333 10.2933C9.34 10.2467 9.39332 10.2067 9.44666 10.1667C9.49999 10.1333 9.56 10.1 9.62 10.08C9.68 10.0533 9.74001 10.0333 9.80668 10.02C9.93335 9.99333 10.0667 9.99333 10.1933 10.02C10.26 10.0333 10.32 10.0533 10.38 10.08C10.44 10.1 10.5 10.1333 10.5533 10.1667C10.6067 10.2067 10.66 10.2467 10.7067 10.2933C10.8933 10.48 11 10.7333 11 11C11 11.2667 10.8933 11.52 10.7067 11.7067C10.66 11.7533 10.6067 11.7933 10.5533 11.8333C10.5 11.8667 10.44 11.9 10.38 11.9267C10.32 11.9467 10.26 11.9667 10.1933 11.98C10.1333 11.9933 10.0667 12 10 12Z" fill="#005F73"/>
<path d="M14 18C13.9333 18 13.8667 17.9933 13.8067 17.98C13.74 17.9667 13.68 17.9467 13.62 17.9267C13.56 17.9 13.5 17.8667 13.4467 17.8333C13.3933 17.7933 13.34 17.7533 13.2933 17.7067C13.1067 17.52 13 17.2667 13 17C13 16.7333 13.1067 16.48 13.2933 16.2933C13.34 16.2467 13.3933 16.2067 13.4467 16.1667C13.5 16.1333 13.56 16.1 13.62 16.08C13.68 16.0533 13.74 16.0333 13.8067 16.02C13.9333 15.9933 14.0667 15.9933 14.1933 16.02C14.26 16.0333 14.32 16.0533 14.38 16.08C14.44 16.1 14.5 16.1333 14.5533 16.1667C14.6067 16.2067 14.66 16.2467 14.7067 16.2933C14.8933 16.48 15 16.7333 15 17C15 17.2667 14.8933 17.52 14.7067 17.7067C14.66 17.7533 14.6067 17.7933 14.5533 17.8333C14.5 17.8667 14.44 17.9 14.38 17.9267C14.32 17.9467 14.26 17.9667 14.1933 17.98C14.1333 17.9933 14.0667 18 14 18Z" fill="#005F73"/>
<path d="M15.5 15C15.11 15 14.72 14.84 14.44 14.56C14.16 14.28 14 13.89 14 13.5C14 13.4 14.01 13.3 14.03 13.21C14.05 13.11 14.08 13.02 14.11 12.93C14.15 12.84 14.2 12.75 14.25 12.67C14.31 12.59 14.37 12.51 14.44 12.44C14.51 12.37 14.59 12.31 14.67 12.25C14.75 12.2 14.84 12.15 14.93 12.12C15.02 12.08 15.11 12.05 15.21 12.03C15.4 11.99 15.6 11.99 15.79 12.03C15.89 12.05 15.98 12.08 16.07 12.12C16.16 12.15 16.25 12.2 16.33 12.25C16.41 12.31 16.49 12.37 16.56 12.44C16.63 12.51 16.69 12.59 16.75 12.67C16.8 12.75 16.85 12.84 16.88 12.93C16.92 13.02 16.95 13.11 16.97 13.21C16.99 13.3 17 13.4 17 13.5C17 13.9 16.84 14.28 16.56 14.56C16.49 14.63 16.41 14.69 16.33 14.75C16.25 14.8 16.16 14.85 16.07 14.89C15.98 14.92 15.89 14.95 15.79 14.97C15.69 14.99 15.6 15 15.5 15Z" fill="#005F73"/>
<path d="M6.5 20C6.11 20 5.72 19.84 5.44 19.56C5.16 19.28 5 18.89 5 18.5C5 18.4 5.01003 18.3 5.03003 18.21C5.05003 18.11 5.07999 18.02 5.10999 17.93C5.14999 17.84 5.2 17.75 5.25 17.67C5.31 17.59 5.37 17.51 5.44 17.44C5.51 17.37 5.58998 17.31 5.66998 17.25C5.74998 17.2 5.83999 17.15 5.92999 17.12C6.01999 17.08 6.11002 17.05 6.21002 17.03C6.40002 16.99 6.59998 16.99 6.78998 17.03C6.88998 17.05 6.98001 17.08 7.07001 17.12C7.16001 17.15 7.25002 17.2 7.33002 17.25C7.41002 17.31 7.49 17.37 7.56 17.44C7.63 17.51 7.69 17.59 7.75 17.67C7.8 17.75 7.85 17.84 7.88 17.93C7.92 18.02 7.94997 18.11 7.96997 18.21C7.98997 18.3 8 18.4 8 18.5C8 18.9 7.84 19.28 7.56 19.56C7.49 19.63 7.41002 19.69 7.33002 19.75C7.25002 19.8 7.16001 19.85 7.07001 19.89C6.98001 19.92 6.88998 19.95 6.78998 19.97C6.68998 19.99 6.6 20 6.5 20Z" fill="#005F73"/>
<path d="M17.5 19C17.37 19 17.24 18.9467 17.1467 18.8533C17.0533 18.76 17 18.63 17 18.5C17 18.4667 17.0033 18.4333 17.01 18.4033C17.0167 18.37 17.0267 18.34 17.0367 18.31C17.05 18.28 17.0667 18.25 17.0833 18.2233C17.1033 18.1967 17.1233 18.17 17.1467 18.1467C17.17 18.1233 17.1967 18.1033 17.2233 18.0833C17.25 18.0667 17.28 18.05 17.31 18.04C17.34 18.0267 17.37 18.0167 17.4033 18.01C17.4667 17.9967 17.5333 17.9967 17.5967 18.01C17.63 18.0167 17.66 18.0267 17.69 18.04C17.72 18.05 17.75 18.0667 17.7767 18.0833C17.8033 18.1033 17.83 18.1233 17.8533 18.1467C17.8767 18.17 17.8967 18.1967 17.9167 18.2233C17.9333 18.25 17.95 18.28 17.96 18.31C17.9733 18.34 17.9833 18.37 17.99 18.4033C17.9967 18.4333 18 18.4667 18 18.5C18 18.6333 17.9467 18.76 17.8533 18.8533C17.83 18.8767 17.8033 18.8967 17.7767 18.9167C17.75 18.9333 17.72 18.95 17.69 18.9633C17.66 18.9733 17.63 18.9833 17.5967 18.99C17.5633 18.9967 17.5333 19 17.5 19Z" fill="#005F73"/>
<path d="M12.5 13C12.37 13 12.24 12.9467 12.1467 12.8533C12.0533 12.76 12 12.63 12 12.5C12 12.4667 12.0033 12.4333 12.01 12.4033C12.0167 12.37 12.0267 12.34 12.0367 12.31C12.05 12.28 12.0667 12.25 12.0833 12.2233C12.1033 12.1967 12.1233 12.17 12.1467 12.1467C12.17 12.1233 12.1967 12.1033 12.2233 12.0833C12.25 12.0667 12.28 12.05 12.31 12.04C12.34 12.0267 12.37 12.0167 12.4033 12.01C12.4667 11.9967 12.5333 11.9967 12.5967 12.01C12.63 12.0167 12.66 12.0267 12.69 12.04C12.72 12.05 12.75 12.0667 12.7767 12.0833C12.8033 12.1033 12.83 12.1233 12.8533 12.1467C12.8767 12.17 12.8967 12.1967 12.9167 12.2233C12.9333 12.25 12.95 12.28 12.96 12.31C12.9733 12.34 12.9833 12.37 12.99 12.4033C12.9967 12.4333 13 12.4667 13 12.5C13 12.6333 12.9467 12.76 12.8533 12.8533C12.83 12.8767 12.8033 12.8967 12.7767 12.9167C12.75 12.9333 12.72 12.95 12.69 12.9633C12.66 12.9733 12.63 12.9833 12.5967 12.99C12.5633 12.9967 12.5333 13 12.5 13Z" fill="#005F73"/>
<path d="M11.5 16C11.4667 16 11.4333 15.9966 11.4033 15.9899C11.37 15.9832 11.34 15.9732 11.31 15.9597C11.2767 15.9497 11.25 15.9329 11.2233 15.9161C11.1933 15.896 11.17 15.8758 11.1467 15.8523C11.0533 15.7584 11 15.6275 11 15.4966C11 15.3658 11.0533 15.2349 11.1467 15.1409C11.3333 14.953 11.6667 14.953 11.8533 15.1409C11.9467 15.2349 12 15.3624 12 15.4966C12 15.6309 11.9467 15.7584 11.8533 15.8523C11.83 15.8758 11.8033 15.896 11.7767 15.9161C11.75 15.9329 11.72 15.9497 11.69 15.9597C11.66 15.9732 11.63 15.9832 11.5967 15.9899C11.5667 15.9966 11.5333 16 11.5 16Z" fill="#005F73"/>
<path d="M11 19C10.9333 19 10.8667 18.9933 10.8067 18.98C10.74 18.9667 10.68 18.9467 10.62 18.92C10.56 18.9 10.5 18.8667 10.4467 18.8333C10.3933 18.7933 10.34 18.7533 10.2933 18.7067C10.2467 18.66 10.2067 18.6067 10.1667 18.5533C10.1333 18.5 10.1 18.44 10.0733 18.38C10.0533 18.32 10.0334 18.26 10.02 18.1933C10.0067 18.1333 10 18.0667 10 18C10 17.74 10.1067 17.48 10.2933 17.2933C10.34 17.2467 10.3933 17.2067 10.4467 17.1667C10.5 17.1333 10.56 17.1 10.62 17.08C10.68 17.0533 10.74 17.0333 10.8067 17.02C10.9333 16.9933 11.0667 16.9933 11.1933 17.02C11.26 17.0333 11.32 17.0533 11.38 17.08C11.44 17.1 11.5 17.1333 11.5533 17.1667C11.6067 17.2067 11.66 17.2467 11.7067 17.2933C11.8933 17.48 12 17.74 12 18C12 18.0667 11.9933 18.1333 11.98 18.1933C11.9666 18.26 11.9467 18.32 11.9267 18.38C11.9 18.44 11.8667 18.5 11.8333 18.5533C11.7933 18.6067 11.7533 18.66 11.7067 18.7067C11.66 18.7533 11.6067 18.7933 11.5533 18.8333C11.5 18.8667 11.44 18.9 11.38 18.92C11.32 18.9467 11.26 18.9667 11.1933 18.98C11.1333 18.9933 11.0667 19 11 19Z" fill="#005F73"/>
<path d="M9 16C8.93333 16 8.86668 15.9933 8.80668 15.98C8.74001 15.9667 8.68 15.9467 8.62 15.92C8.56 15.9 8.49999 15.8667 8.44666 15.8333C8.39332 15.7933 8.34 15.7533 8.29333 15.7067C8.24667 15.66 8.20667 15.6067 8.16667 15.5533C8.13333 15.5 8.09999 15.44 8.07332 15.38C8.05332 15.32 8.03335 15.26 8.02002 15.1933C8.00669 15.1333 8 15.0667 8 15C8 14.74 8.10667 14.48 8.29333 14.2933C8.34 14.2467 8.39332 14.2067 8.44666 14.1667C8.49999 14.1333 8.56 14.1 8.62 14.08C8.68 14.0533 8.74001 14.0333 8.80668 14.02C8.93335 13.9933 9.06665 13.9933 9.19332 14.02C9.25999 14.0333 9.32 14.0533 9.38 14.08C9.44 14.1 9.50001 14.1333 9.55334 14.1667C9.60668 14.2067 9.66 14.2467 9.70667 14.2933C9.89333 14.48 10 14.74 10 15C10 15.0667 9.99331 15.1333 9.97998 15.1933C9.96665 15.26 9.94668 15.32 9.92668 15.38C9.90001 15.44 9.86667 15.5 9.83333 15.5533C9.79333 15.6067 9.75333 15.66 9.70667 15.7067C9.66 15.7533 9.60668 15.7933 9.55334 15.8333C9.50001 15.8667 9.44 15.9 9.38 15.92C9.32 15.9467 9.25999 15.9667 9.19332 15.98C9.13332 15.9933 9.06667 16 9 16Z" fill="#005F73"/>
</svg>
