<svg width="25" height="24" viewBox="0 0 25 24" fill="none" xmlns="http://www.w3.org/2000/svg">
<path d="M21.7385 3.20006C20.4685 1.93006 18.4085 1.93006 17.1385 3.20006L15.1985 5.14006L15.0185 4.96006C14.6885 4.63006 14.2485 4.45006 13.7785 4.45006C13.3085 4.45006 12.8685 4.63006 12.5385 4.96006L11.8285 5.67006C11.1485 6.35006 11.1485 7.46006 11.8285 8.14006L12.0085 8.32006L6.17853 14.1501C5.76853 14.5601 5.45854 15.0701 5.26854 15.6201L5.00854 16.4001C4.89854 16.7301 4.70854 17.0301 4.46854 17.2801L3.90854 17.8401C3.48854 18.2601 3.24854 18.8301 3.24854 19.4301C3.24854 20.0301 3.47854 20.6001 3.90854 21.0201C4.33854 21.4401 4.89854 21.6801 5.49854 21.6801C6.09854 21.6801 6.66854 21.4501 7.08854 21.0201L7.64854 20.4601C7.89854 20.2101 8.19854 20.0301 8.52854 19.9201L9.30854 19.6601C9.85854 19.4801 10.3685 19.1601 10.7785 18.7501L16.6085 12.9201L16.7885 13.1001C17.1285 13.4401 17.5785 13.6101 18.0285 13.6101C18.4785 13.6101 18.9285 13.4401 19.2685 13.1001L19.9785 12.3901C20.3085 12.0601 20.4885 11.6201 20.4885 11.1501C20.4885 10.6801 20.3085 10.2401 19.9785 9.91006L19.7985 9.73006L21.7385 7.79006C23.0085 6.52006 23.0085 4.46006 21.7385 3.19006V3.20006ZM9.71853 17.7001C9.46853 17.9501 9.16854 18.1301 8.83854 18.2401L8.05854 18.5001C7.50853 18.6801 6.99854 19.0001 6.58854 19.4101L6.02854 19.9701C5.74854 20.2501 5.24854 20.2501 4.96854 19.9701C4.82854 19.8301 4.74854 19.6401 4.74854 19.4401C4.74854 19.2401 4.82854 19.0501 4.96854 18.9101L5.52854 18.3501C5.93854 17.9401 6.24854 17.4301 6.43854 16.8801L6.69854 16.1001C6.80854 15.7701 6.99854 15.4701 7.23854 15.2201L7.74854 14.7101C7.80854 14.7301 7.86854 14.7501 7.93854 14.7501H12.6685L9.71853 17.7001ZM14.1685 13.2501H9.21853L13.0785 9.39006L15.5585 11.8701L14.1685 13.2601V13.2501ZM20.6785 6.74006L18.2085 9.21006C17.9185 9.50006 17.9185 9.98006 18.2085 10.2701L18.9185 10.9801C18.9785 11.0401 18.9885 11.1201 18.9885 11.1501C18.9885 11.1801 18.9885 11.2601 18.9185 11.3301L18.2085 12.0401C18.1085 12.1401 17.9485 12.1401 17.8585 12.0401L17.1485 11.3301L13.6085 7.79006L12.8985 7.08006C12.7985 6.98006 12.7985 6.82006 12.8985 6.73006L13.6085 6.02006C13.6685 5.96006 13.7485 5.95006 13.7885 5.95006C13.7885 5.95006 13.8985 5.95006 13.9685 6.02006L14.6785 6.73006C14.9685 7.02006 15.4485 7.02006 15.7385 6.73006L18.2085 4.26006C18.8885 3.58006 19.9985 3.58006 20.6785 4.26006C21.3585 4.94006 21.3585 6.05006 20.6785 6.73006V6.74006Z" fill="#005F73"/>
</svg>
