<svg width="24" height="24" viewBox="0 0 24 24" fill="none" xmlns="http://www.w3.org/2000/svg">
<path d="M8.5 7.75V11.5M8.5 7.75C8.5 7.05964 7.94036 6.5 7.25 6.5C6.55964 6.5 6 7.05964 6 7.75V16.5C6 19.8137 8.68629 22.5 12 22.5C15.3137 22.5 18 19.8137 18 16.5V9.75C18 9.05964 17.4404 8.5 16.75 8.5C16.4686 8.5 16.2089 8.59299 16 8.74991M8.5 7.75V3.75C8.5 3.05964 9.05964 2.5 9.75 2.5C10.4404 2.5 11 3.05964 11 3.75M11 3.75V9.5M11 3.75V2.75C11 2.05964 11.5596 1.5 12.25 1.5C12.9404 1.5 13.5 2.05964 13.5 2.75V4.75M13.5 4.75V9.5M13.5 4.75C13.5 4.05964 14.0596 3.5 14.75 3.5C15.4404 3.5 16 4.05964 16 4.75V8.74991M16 8.74991C15.6964 8.97796 15.5 9.34105 15.5 9.75V12.5C14.2034 13.0119 13.2627 14.1721 13.047 15.586" stroke="#005F73" stroke-width="1.5" stroke-linecap="round" stroke-linejoin="round"/>
</svg>
