<svg width="24" height="24" viewBox="0 0 24 24" fill="none" xmlns="http://www.w3.org/2000/svg">
<path d="M14.5023 9.5C13.5021 11 12.5024 13.5 12.5024 17M14.5023 9.5C13.5023 11 13.0023 13 8.50232 13M14.5023 9.5C15.7667 7.81412 17.7417 6.48351 19.8282 6.10713C20.4364 5.99743 20.9098 5.44513 20.8083 4.8356L20.6416 3.8356C20.5612 3.35341 20.1433 2.99452 19.6579 3.05216C17.2617 3.33669 14.2857 4.7708 12.5023 7C12.5023 6 12.5023 3 12.0023 1.5M8.00232 6.5C7.50232 5 6.50232 4 5.00232 4M4.50236 13.9972C5.5023 18.4972 9.33613 21.9814 12.0022 21.9814C14.6684 21.9814 18.3362 18.4975 19.5024 13.9972C20.6685 9.49686 17.0024 6.49716 14.5024 9.49716C14.5024 8.00057 13.0024 6.50008 10.0024 6.50008C7.00237 6.50008 3.50242 9.49715 4.50236 13.9972Z" stroke="#005F73" stroke-width="1.5" stroke-linecap="round" stroke-linejoin="round"/>
</svg>
