<svg width="24" height="24" viewBox="0 0 24 24" fill="none" xmlns="http://www.w3.org/2000/svg">
<g clip-path="url(#clip0_12474_324511)">
<mask id="path-1-outside-1_12474_324511" maskUnits="userSpaceOnUse" x="4.5625" y="-0.682129" width="20" height="24" fill="black">
<rect fill="white" x="4.5625" y="-0.682129" width="20" height="24"/>
<path d="M11.8568 0.668666C12.0957 0.87185 12.295 1.14646 12.3742 1.45309C12.374 1.56666 12.3628 1.67624 12.3508 1.78913C12.312 2.1492 12.312 2.1492 12.4336 2.47811C12.5949 2.63559 12.7847 2.7457 12.9817 2.85295C13.1287 2.93477 13.2641 3.03051 13.4026 3.12594C13.4816 3.17787 13.5606 3.2297 13.6399 3.28121C13.6721 3.26484 13.7043 3.24846 13.7375 3.23159C13.7797 3.21026 13.8219 3.18893 13.8655 3.16696C13.9073 3.14575 13.9492 3.12454 13.9924 3.10269C14.3239 2.94345 14.7812 2.9383 15.1358 3.0386C15.2352 3.08331 15.3276 3.13174 15.4211 3.18746C15.4834 3.21906 15.5459 3.25041 15.6086 3.28121C15.6568 3.24834 15.7049 3.21547 15.7546 3.18161C15.8014 3.14966 15.8014 3.14966 15.8492 3.11707C15.9178 3.06992 15.9861 3.02233 16.0541 2.97432C16.2079 2.86606 16.3556 2.76713 16.5232 2.68081C16.6796 2.59555 16.772 2.53747 16.8742 2.39059C16.9069 2.19667 16.893 2.00377 16.8817 1.80829C16.8597 1.39045 16.9657 1.10822 17.2428 0.790431C17.5769 0.471079 17.9961 0.309538 18.457 0.318202C18.8717 0.357348 19.2517 0.534426 19.5362 0.840053C19.7822 1.15272 19.8929 1.39404 19.8508 1.78913C19.812 2.1492 19.812 2.1492 19.9336 2.47811C20.0949 2.63559 20.2847 2.7457 20.4817 2.85295C20.6287 2.93477 20.7641 3.03051 20.9026 3.12594C20.9816 3.17787 21.0606 3.2297 21.1399 3.28121C21.1721 3.26484 21.2043 3.24846 21.2375 3.23159C21.2797 3.21026 21.3219 3.18893 21.3655 3.16696C21.4283 3.13514 21.4283 3.13514 21.4924 3.10269C21.8324 2.93937 22.2737 2.95114 22.6397 3.03036C23.0362 3.17512 23.303 3.41624 23.5041 3.78512C23.7179 4.25468 23.7098 4.67429 23.5305 5.15621C23.369 5.49788 23.1164 5.73415 22.7805 5.90621C22.6877 5.92168 22.5949 5.93715 22.4992 5.95309C22.4992 6.23153 22.4992 6.50996 22.4992 6.79684C22.5921 6.81231 22.6849 6.82778 22.7805 6.84371C23.1663 7.04132 23.4216 7.32529 23.5836 7.72464C23.6931 8.12959 23.6782 8.61464 23.4957 8.99484C23.2625 9.38591 22.9396 9.62939 22.4992 9.74996C22.3747 9.76106 22.2574 9.76782 22.133 9.76754C22.1 9.7675 22.067 9.76746 22.033 9.76742C21.7088 9.76006 21.4726 9.67941 21.2219 9.4775C21.1426 9.41142 21.1426 9.41142 21.0404 9.42843C20.8542 9.48404 20.7034 9.58004 20.5393 9.68258C20.5068 9.70249 20.4743 9.7224 20.4409 9.74292C20.3612 9.79183 20.2817 9.84117 20.2024 9.89059C20.2136 9.93128 20.2136 9.93128 20.2251 9.97279C20.3465 10.5022 20.2772 11.092 19.9911 11.5508C19.6779 11.9856 19.3048 12.2219 18.7961 12.375C18.7807 12.5142 18.7652 12.6534 18.7492 12.7968C18.7908 12.8017 18.8324 12.8065 18.8752 12.8115C19.2088 12.8807 19.4727 13.1095 19.6633 13.3857C19.8363 13.6598 19.881 13.8733 19.8466 14.1902C19.8118 14.5366 19.8118 14.5366 19.9338 14.8511C20.0959 15.0074 20.2856 15.1186 20.4817 15.2272C20.6282 15.3099 20.764 15.4056 20.9026 15.5009C20.9816 15.5529 21.0606 15.6047 21.1399 15.6562C21.1721 15.6398 21.2043 15.6235 21.2375 15.6066C21.2797 15.5853 21.3219 15.5639 21.3655 15.542C21.4073 15.5207 21.4492 15.4995 21.4924 15.4777C21.8324 15.3144 22.2737 15.3261 22.6397 15.4054C23.0362 15.5501 23.303 15.7912 23.5041 16.1601C23.7179 16.6297 23.7098 17.0493 23.5305 17.5312C23.369 17.8729 23.1164 18.1092 22.7805 18.2812C22.6877 18.2967 22.5949 18.3122 22.4992 18.3281C22.4992 18.854 22.4992 19.38 22.4992 19.9218C22.5921 19.9373 22.6849 19.9528 22.7805 19.9687C23.1663 20.1663 23.4216 20.4503 23.5836 20.8496C23.693 21.2544 23.6785 21.7403 23.4953 22.12C23.2778 22.4865 22.9768 22.7285 22.5705 22.868C22.0982 22.9806 21.692 22.909 21.268 22.6778C20.9307 22.4566 20.7119 22.1446 20.6242 21.75C20.5833 21.3311 20.5804 20.945 20.8117 20.5781C20.8282 20.549 20.8446 20.5198 20.8616 20.4898C21.0092 20.2529 21.2183 20.0909 21.468 19.9687C21.5608 19.9532 21.6536 19.9378 21.7492 19.9218C21.7492 19.3959 21.7492 18.87 21.7492 18.3281C21.6564 18.3126 21.5636 18.2972 21.468 18.2812C21.0788 18.0819 20.8375 17.7988 20.6614 17.4045C20.6202 17.2332 20.6331 17.1077 20.6519 16.9347C20.6867 16.5883 20.6867 16.5883 20.5647 16.2738C20.4026 16.1175 20.2129 16.0063 20.0168 15.8977C19.8703 15.815 19.7345 15.7193 19.5959 15.624C19.5169 15.5721 19.4379 15.5202 19.3586 15.4687C19.3264 15.4851 19.2942 15.5015 19.261 15.5183C19.2188 15.5397 19.1766 15.561 19.133 15.583C19.0912 15.6042 19.0493 15.6254 19.0061 15.6472C18.6746 15.8065 18.2173 15.8116 17.8627 15.7113C17.7633 15.6666 17.6709 15.6182 17.5774 15.5625C17.515 15.5309 17.4526 15.4995 17.3899 15.4687C17.3417 15.5016 17.2936 15.5345 17.2439 15.5683C17.1971 15.6003 17.1971 15.6003 17.1493 15.6329C17.0807 15.68 17.0124 15.7276 16.9444 15.7755C16.7906 15.8836 16.6421 15.9832 16.4753 16.0708C16.3214 16.156 16.227 16.2157 16.1242 16.3593C16.0818 16.583 16.1039 16.8092 16.1175 17.035C16.1361 17.3794 16.0159 17.6297 15.8078 17.8974C15.5426 18.1814 15.2123 18.3558 14.8242 18.3907C14.3213 18.402 13.9067 18.3433 13.5242 17.986C13.3241 17.7635 13.1156 17.4626 13.1282 17.1523C13.134 17.0996 13.134 17.0996 13.1398 17.0458C13.1939 16.6432 13.1939 16.6432 13.0647 16.2738C12.9026 16.1175 12.7129 16.0063 12.5168 15.8977C12.3703 15.815 12.2345 15.7193 12.0959 15.624C12.0169 15.5721 11.9379 15.5202 11.8586 15.4687C11.8264 15.4851 11.7942 15.5015 11.761 15.5183C11.7188 15.5397 11.6766 15.561 11.633 15.583C11.5702 15.6148 11.5702 15.6148 11.5061 15.6472C11.1661 15.8106 10.7248 15.7988 10.3588 15.7196C9.96381 15.5754 9.69619 15.3345 9.49437 14.9677C9.30349 14.5495 9.27697 14.1536 9.41819 13.7155C9.58111 13.3172 9.83239 13.0412 10.218 12.8437C10.3108 12.8282 10.4036 12.8128 10.4992 12.7968C10.4992 12.5184 10.4992 12.24 10.4992 11.9531C10.4064 11.9376 10.3136 11.9222 10.218 11.9062C9.8322 11.7086 9.57687 11.4246 9.4149 11.0253C9.30546 10.6206 9.31996 10.1347 9.50315 9.75491C9.71158 9.40384 10.0074 9.15438 10.3973 9.01663C10.8298 8.94596 11.2946 8.94344 11.6711 9.18746C11.7059 9.2155 11.7407 9.24354 11.7766 9.27243C11.8571 9.33996 11.8571 9.33996 11.9662 9.31665C12.106 9.27759 12.2068 9.22221 12.3296 9.14498C12.373 9.11785 12.4165 9.09072 12.4612 9.06277C12.506 9.03431 12.5508 9.00585 12.5969 8.97653C12.6424 8.94807 12.6879 8.91961 12.7348 8.89028C12.94 8.77144 12.94 8.77144 13.1242 8.62496C13.1232 8.54182 13.1218 8.45866 13.1188 8.37556C13.1074 8.02613 13.1204 7.75653 13.3117 7.45309C13.3282 7.42396 13.3446 7.39484 13.3616 7.36483C13.5092 7.12794 13.7183 6.96592 13.968 6.84371C14.0608 6.82825 14.1536 6.81278 14.2492 6.79684C14.2492 6.5184 14.2492 6.23996 14.2492 5.95309C14.11 5.92989 14.11 5.92989 13.968 5.90621C13.5639 5.71156 13.3004 5.39598 13.1488 4.97888C13.1139 4.83096 13.1307 4.70121 13.1477 4.55147C13.1852 4.20966 13.1852 4.20966 13.0649 3.89924C12.9027 3.74275 12.7131 3.63138 12.5168 3.52273C12.3703 3.44003 12.2345 3.34432 12.0959 3.24899C12.0169 3.19706 11.9379 3.14523 11.8586 3.09371C11.8264 3.11009 11.7942 3.12647 11.761 3.14334C11.7188 3.16467 11.6766 3.186 11.633 3.20797C11.5912 3.22918 11.5493 3.25039 11.5061 3.27224C11.1746 3.43148 10.7173 3.43663 10.3627 3.33633C10.2633 3.29162 10.1709 3.24319 10.0774 3.18746C10.015 3.15587 9.95259 3.12452 9.88987 3.09371C9.84171 3.12659 9.79356 3.15946 9.74394 3.19332C9.69708 3.22527 9.69708 3.22527 9.64927 3.25786C9.58068 3.30501 9.51238 3.3526 9.44438 3.40061C9.29056 3.50887 9.14286 3.6078 8.97526 3.69412C8.81885 3.77938 8.72653 3.83746 8.62425 3.98434C8.59156 4.17829 8.60561 4.37123 8.61673 4.56674C8.63886 4.99298 8.52828 5.27117 8.24687 5.59494C7.9186 5.91446 7.58349 6.05434 7.12718 6.07028C6.67647 6.05511 6.3144 5.93618 5.98606 5.6213C5.64227 5.23688 5.55301 4.84633 5.56327 4.33572C5.60334 3.87006 5.83932 3.53774 6.18675 3.23434C6.57516 2.95691 7.03866 2.93664 7.49925 2.99996C7.65486 3.04428 7.78343 3.10381 7.92112 3.18746C7.98343 3.21911 8.04588 3.25046 8.10862 3.28121C8.15678 3.24834 8.20494 3.21547 8.25456 3.18161C8.2858 3.16031 8.31704 3.13901 8.34922 3.11707C8.41782 3.06992 8.48612 3.02233 8.55412 2.97432C8.70794 2.86606 8.85563 2.76713 9.02324 2.68081C9.17965 2.59555 9.27197 2.53747 9.37425 2.39059C9.40694 2.19667 9.39295 2.00377 9.38166 1.80829C9.35968 1.39045 9.46572 1.10822 9.74284 0.790431C10.3488 0.211185 11.1863 0.190101 11.8568 0.668666ZM10.2473 1.48239C10.144 1.69697 10.1338 1.87522 10.1711 2.10934C10.2803 2.33615 10.4131 2.46889 10.6399 2.57809C10.874 2.61546 11.0522 2.60523 11.2668 2.50192C11.4348 2.34991 11.5584 2.22818 11.5953 1.99691C11.6073 1.73049 11.5744 1.56327 11.3899 1.35934C11.1859 1.17483 11.0187 1.14189 10.7523 1.1539C10.521 1.19081 10.3993 1.31438 10.2473 1.48239ZM17.7473 1.48239C17.644 1.69697 17.6338 1.87522 17.6711 2.10934C17.7803 2.33615 17.9131 2.46889 18.1399 2.57809C18.374 2.61546 18.5522 2.60523 18.7668 2.50192C18.9348 2.34991 19.0584 2.22818 19.0953 1.99691C19.1073 1.73049 19.0744 1.56327 18.8899 1.35934C18.6859 1.17483 18.5187 1.14189 18.2523 1.1539C18.021 1.19081 17.8993 1.31438 17.7473 1.48239ZM17.3899 3.04684C17.172 3.19554 16.9546 3.34483 16.7377 3.49492C16.6767 3.537 16.6157 3.57895 16.5545 3.62067C16.482 3.67011 16.4101 3.72027 16.3381 3.77047C16.2976 3.79845 16.257 3.82643 16.2153 3.85525C16.1092 3.95107 16.0901 3.98419 16.0774 4.12496C16.0784 4.21144 16.0796 4.29793 16.0828 4.38436C16.0973 4.80984 16.045 5.14827 15.7844 5.49899C15.5447 5.73324 15.3178 5.8469 14.9992 5.95309C14.9992 6.23153 14.9992 6.50996 14.9992 6.79684C15.095 6.83745 15.095 6.83745 15.1926 6.87887C15.6165 7.07061 15.8519 7.29732 16.0415 7.7239C16.0788 7.88113 16.0655 7.99853 16.0427 8.15698C16.0209 8.33862 16.0112 8.49858 16.0774 8.67184C16.2828 8.90123 16.6203 9.11421 16.9211 9.18746C17.0649 9.13303 17.1804 9.04518 17.3049 8.95602C17.8035 8.62709 18.3689 8.58669 18.9505 8.7026C19.226 8.79277 19.4259 8.93359 19.6366 9.13143C19.7314 9.20129 19.7314 9.20129 19.84 9.16C19.8822 9.13813 19.9245 9.11625 19.968 9.09371C19.9959 9.08241 20.0238 9.0711 20.0525 9.05945C20.2791 8.96727 20.5126 8.86357 20.6711 8.67184C20.7231 8.49683 20.7033 8.32715 20.688 8.14746C20.6585 7.7939 20.7337 7.55208 20.9524 7.26559C21.1983 7.01283 21.4112 6.92361 21.7492 6.79684C21.7492 6.5184 21.7492 6.23996 21.7492 5.95309C21.6777 5.92699 21.6062 5.90088 21.5325 5.87399C21.1215 5.70672 20.9131 5.45327 20.718 5.06246C20.6752 4.92561 20.6692 4.81575 20.6814 4.67337C20.6834 4.63527 20.6855 4.59717 20.6876 4.55792C20.6922 4.47871 20.6983 4.39958 20.7059 4.32061C20.7132 4.14362 20.712 4.03096 20.5921 3.89426C20.4817 3.80708 20.3682 3.73135 20.2492 3.65621C20.1705 3.60127 20.0918 3.54616 20.0132 3.49087C19.9348 3.43745 19.8562 3.38416 19.7776 3.33102C19.737 3.30344 19.6964 3.27585 19.6546 3.24743C19.556 3.18044 19.4574 3.11358 19.3586 3.04684C19.3264 3.06321 19.2942 3.07959 19.261 3.09646C19.2188 3.11779 19.1766 3.13912 19.133 3.1611C19.0912 3.18231 19.0493 3.20352 19.0061 3.22537C18.6746 3.3846 18.2173 3.38975 17.8627 3.28945C17.7633 3.24474 17.6709 3.19632 17.5774 3.14059C17.515 3.10899 17.4526 3.07765 17.3899 3.04684ZM6.4973 4.10739C6.39398 4.32197 6.38376 4.50022 6.42112 4.73434C6.53033 4.96115 6.66306 5.09389 6.88987 5.20309C7.12399 5.24046 7.30225 5.23023 7.51683 5.12692C7.68483 4.97491 7.80841 4.85318 7.84532 4.62191C7.85732 4.35548 7.82439 4.18827 7.63987 3.98434C7.43594 3.79983 7.26873 3.76689 7.0023 3.7789C6.77103 3.81581 6.6493 3.93938 6.4973 4.10739ZM13.9973 4.10739C13.894 4.32197 13.8838 4.50022 13.9211 4.73434C14.0303 4.96115 14.1631 5.09389 14.3899 5.20309C14.624 5.24046 14.8022 5.23023 15.0168 5.12692C15.1848 4.97491 15.3084 4.85318 15.3453 4.62191C15.3573 4.35548 15.3244 4.18827 15.1399 3.98434C14.9359 3.79983 14.7687 3.76689 14.5023 3.7789C14.271 3.81581 14.1493 3.93938 13.9973 4.10739ZM21.4973 4.10739C21.394 4.32197 21.3838 4.50022 21.4211 4.73434C21.5303 4.96115 21.6631 5.09389 21.8899 5.20309C22.124 5.24046 22.3022 5.23023 22.5168 5.12692C22.6848 4.97491 22.8084 4.85318 22.8453 4.62191C22.8573 4.35548 22.8244 4.18827 22.6399 3.98434C22.4359 3.79983 22.2687 3.76689 22.0023 3.7789C21.771 3.81581 21.6493 3.93938 21.4973 4.10739ZM13.9973 7.85739C13.894 8.07197 13.8838 8.25022 13.9211 8.48434C14.0303 8.71115 14.1631 8.84389 14.3899 8.95309C14.624 8.99046 14.8022 8.98023 15.0168 8.87692C15.1848 8.72491 15.3084 8.60318 15.3453 8.37191C15.3573 8.10549 15.3244 7.93827 15.1399 7.73434C14.9359 7.54983 14.7687 7.51689 14.5023 7.5289C14.271 7.56581 14.1493 7.68938 13.9973 7.85739ZM21.4973 7.85739C21.394 8.07197 21.3838 8.25022 21.4211 8.48434C21.5303 8.71115 21.6631 8.84389 21.8899 8.95309C22.124 8.99046 22.3022 8.98023 22.5168 8.87692C22.6848 8.72491 22.8084 8.60318 22.8453 8.37191C22.8573 8.10549 22.8244 7.93827 22.6399 7.73434C22.4359 7.54983 22.2687 7.51689 22.0023 7.5289C21.771 7.56581 21.6493 7.68938 21.4973 7.85739ZM12.3274 10.0781C12.225 10.2847 12.2594 10.4754 12.2979 10.6953C12.3391 10.9466 12.2714 11.0879 12.1399 11.2968C12.1007 11.3708 12.1007 11.3708 12.0608 11.4463C11.8391 11.7158 11.5768 11.8439 11.2492 11.9531C11.2492 12.2315 11.2492 12.51 11.2492 12.7968C11.345 12.8374 11.345 12.8374 11.4426 12.8789C11.8647 13.0698 12.101 13.2952 12.2898 13.7202C12.3474 13.9577 12.3197 14.1921 12.2949 14.4339C12.2866 14.6095 12.287 14.7196 12.4062 14.8553C12.5167 14.9425 12.6303 15.0184 12.7492 15.0937C12.828 15.1487 12.9067 15.2038 12.9853 15.2591C13.0637 15.3125 13.1423 15.3658 13.2209 15.4189C13.2615 15.4465 13.3021 15.4741 13.3439 15.5025C13.4425 15.5695 13.5411 15.6363 13.6399 15.7031C13.6721 15.6867 13.7043 15.6703 13.7375 15.6535C13.7797 15.6321 13.8219 15.6108 13.8655 15.5888C13.9283 15.557 13.9283 15.557 13.9924 15.5246C14.3239 15.3653 14.7812 15.3602 15.1358 15.4605C15.2352 15.5052 15.3276 15.5536 15.4211 15.6093C15.4835 15.6408 15.546 15.6721 15.6086 15.7031C15.7484 15.6086 15.888 15.5138 16.0276 15.4189C16.0665 15.3926 16.1055 15.3663 16.1456 15.3392C16.2245 15.2854 16.3029 15.2311 16.381 15.1762C16.4603 15.1209 16.5408 15.0674 16.6224 15.0156C16.8349 14.8779 16.8349 14.8779 16.9511 14.6631C16.956 14.548 16.9485 14.4406 16.9358 14.3261C16.9165 13.9879 16.9174 13.745 17.1086 13.4531C17.1347 13.4038 17.1608 13.3545 17.1877 13.3037C17.3978 13.0481 17.6787 12.879 17.9992 12.7968C17.9992 12.6576 17.9992 12.5184 17.9992 12.375C17.9635 12.3619 17.9278 12.3487 17.891 12.3352C17.3021 12.1066 16.9394 11.8059 16.6353 11.2496C16.473 10.8647 16.4816 10.2906 16.593 9.89059C16.4569 9.80272 16.32 9.71617 16.1828 9.62985C16.1442 9.60486 16.1055 9.57988 16.0657 9.55413C16.0282 9.53072 15.9907 9.5073 15.9521 9.48318C15.9178 9.46133 15.8834 9.43949 15.848 9.41698C15.7278 9.36584 15.6815 9.37383 15.5617 9.42184C15.5173 9.45181 15.4728 9.48178 15.427 9.51266C15.1733 9.68009 14.9362 9.72135 14.636 9.72067C14.6031 9.72063 14.5703 9.72058 14.5364 9.72054C14.2373 9.71376 13.9228 9.66355 13.7067 9.43887C13.445 9.18863 12.5368 9.88181 12.3274 10.0781ZM17.4576 9.88601C17.2643 10.1667 17.2626 10.4507 17.2961 10.7812C17.3793 11.0927 17.5983 11.305 17.8586 11.4843C18.1398 11.6222 18.4625 11.6296 18.7639 11.5492C19.0512 11.4223 19.2761 11.1839 19.4136 10.9035C19.5029 10.622 19.5023 10.2889 19.3821 10.0166C19.2187 9.73813 18.9633 9.51951 18.6555 9.42184C18.1195 9.35826 17.8034 9.48154 17.4576 9.88601ZM10.2473 10.1074C10.144 10.322 10.1338 10.5002 10.1711 10.7343C10.2803 10.9611 10.4131 11.0939 10.6399 11.2031C10.874 11.2405 11.0522 11.2302 11.2668 11.1269C11.4348 10.9749 11.5584 10.8532 11.5953 10.6219C11.6073 10.3555 11.5744 10.1883 11.3899 9.98434C11.1859 9.79983 11.0187 9.76689 10.7523 9.7789C10.521 9.81581 10.3993 9.93938 10.2473 10.1074ZM10.2473 13.8574C10.144 14.072 10.1338 14.2502 10.1711 14.4843C10.2803 14.7111 10.4131 14.8439 10.6399 14.9531C10.874 14.9905 11.0522 14.9802 11.2668 14.8769C11.4348 14.7249 11.5584 14.6032 11.5953 14.3719C11.6073 14.1055 11.5744 13.9383 11.3899 13.7343C11.1859 13.5498 11.0187 13.5169 10.7523 13.5289C10.521 13.5658 10.3993 13.6894 10.2473 13.8574ZM17.7473 13.8574C17.644 14.072 17.6338 14.2502 17.6711 14.4843C17.7803 14.7111 17.9131 14.8439 18.1399 14.9531C18.374 14.9905 18.5522 14.9802 18.7668 14.8769C18.9348 14.7249 19.0584 14.6032 19.0953 14.3719C19.1073 14.1055 19.0744 13.9383 18.8899 13.7343C18.6859 13.5498 18.5187 13.5169 18.2523 13.5289C18.021 13.5658 17.8993 13.6894 17.7473 13.8574ZM13.9973 16.4824C13.894 16.697 13.8838 16.8752 13.9211 17.1093C14.0303 17.3361 14.1631 17.4689 14.3899 17.5781C14.624 17.6155 14.8022 17.6052 15.0168 17.5019C15.1848 17.3499 15.3084 17.2282 15.3453 16.9969C15.3573 16.7305 15.3244 16.5633 15.1399 16.3593C14.9359 16.1748 14.7687 16.1419 14.5023 16.1539C14.271 16.1908 14.1493 16.3144 13.9973 16.4824ZM21.4973 16.4824C21.394 16.697 21.3838 16.8752 21.4211 17.1093C21.5303 17.3361 21.6631 17.4689 21.8899 17.5781C22.124 17.6155 22.3022 17.6052 22.5168 17.5019C22.6848 17.3499 22.8084 17.2282 22.8453 16.9969C22.8573 16.7305 22.8244 16.5633 22.6399 16.3593C22.4359 16.1748 22.2687 16.1419 22.0023 16.1539C21.771 16.1908 21.6493 16.3144 21.4973 16.4824ZM21.4973 20.9824C21.394 21.197 21.3838 21.3752 21.4211 21.6093C21.5303 21.8361 21.6631 21.9689 21.8899 22.0781C22.124 22.1155 22.3022 22.1052 22.5168 22.0019C22.6848 21.8499 22.8084 21.7282 22.8453 21.4969C22.8573 21.2305 22.8244 21.0633 22.6399 20.8593C22.4359 20.6748 22.2687 20.6419 22.0023 20.6539C21.771 20.6908 21.6493 20.8144 21.4973 20.9824Z"/>
</mask>
<path d="M11.8568 0.668666C12.0957 0.87185 12.295 1.14646 12.3742 1.45309C12.374 1.56666 12.3628 1.67624 12.3508 1.78913C12.312 2.1492 12.312 2.1492 12.4336 2.47811C12.5949 2.63559 12.7847 2.7457 12.9817 2.85295C13.1287 2.93477 13.2641 3.03051 13.4026 3.12594C13.4816 3.17787 13.5606 3.2297 13.6399 3.28121C13.6721 3.26484 13.7043 3.24846 13.7375 3.23159C13.7797 3.21026 13.8219 3.18893 13.8655 3.16696C13.9073 3.14575 13.9492 3.12454 13.9924 3.10269C14.3239 2.94345 14.7812 2.9383 15.1358 3.0386C15.2352 3.08331 15.3276 3.13174 15.4211 3.18746C15.4834 3.21906 15.5459 3.25041 15.6086 3.28121C15.6568 3.24834 15.7049 3.21547 15.7546 3.18161C15.8014 3.14966 15.8014 3.14966 15.8492 3.11707C15.9178 3.06992 15.9861 3.02233 16.0541 2.97432C16.2079 2.86606 16.3556 2.76713 16.5232 2.68081C16.6796 2.59555 16.772 2.53747 16.8742 2.39059C16.9069 2.19667 16.893 2.00377 16.8817 1.80829C16.8597 1.39045 16.9657 1.10822 17.2428 0.790431C17.5769 0.471079 17.9961 0.309538 18.457 0.318202C18.8717 0.357348 19.2517 0.534426 19.5362 0.840053C19.7822 1.15272 19.8929 1.39404 19.8508 1.78913C19.812 2.1492 19.812 2.1492 19.9336 2.47811C20.0949 2.63559 20.2847 2.7457 20.4817 2.85295C20.6287 2.93477 20.7641 3.03051 20.9026 3.12594C20.9816 3.17787 21.0606 3.2297 21.1399 3.28121C21.1721 3.26484 21.2043 3.24846 21.2375 3.23159C21.2797 3.21026 21.3219 3.18893 21.3655 3.16696C21.4283 3.13514 21.4283 3.13514 21.4924 3.10269C21.8324 2.93937 22.2737 2.95114 22.6397 3.03036C23.0362 3.17512 23.303 3.41624 23.5041 3.78512C23.7179 4.25468 23.7098 4.67429 23.5305 5.15621C23.369 5.49788 23.1164 5.73415 22.7805 5.90621C22.6877 5.92168 22.5949 5.93715 22.4992 5.95309C22.4992 6.23153 22.4992 6.50996 22.4992 6.79684C22.5921 6.81231 22.6849 6.82778 22.7805 6.84371C23.1663 7.04132 23.4216 7.32529 23.5836 7.72464C23.6931 8.12959 23.6782 8.61464 23.4957 8.99484C23.2625 9.38591 22.9396 9.62939 22.4992 9.74996C22.3747 9.76106 22.2574 9.76782 22.133 9.76754C22.1 9.7675 22.067 9.76746 22.033 9.76742C21.7088 9.76006 21.4726 9.67941 21.2219 9.4775C21.1426 9.41142 21.1426 9.41142 21.0404 9.42843C20.8542 9.48404 20.7034 9.58004 20.5393 9.68258C20.5068 9.70249 20.4743 9.7224 20.4409 9.74292C20.3612 9.79183 20.2817 9.84117 20.2024 9.89059C20.2136 9.93128 20.2136 9.93128 20.2251 9.97279C20.3465 10.5022 20.2772 11.092 19.9911 11.5508C19.6779 11.9856 19.3048 12.2219 18.7961 12.375C18.7807 12.5142 18.7652 12.6534 18.7492 12.7968C18.7908 12.8017 18.8324 12.8065 18.8752 12.8115C19.2088 12.8807 19.4727 13.1095 19.6633 13.3857C19.8363 13.6598 19.881 13.8733 19.8466 14.1902C19.8118 14.5366 19.8118 14.5366 19.9338 14.8511C20.0959 15.0074 20.2856 15.1186 20.4817 15.2272C20.6282 15.3099 20.764 15.4056 20.9026 15.5009C20.9816 15.5529 21.0606 15.6047 21.1399 15.6562C21.1721 15.6398 21.2043 15.6235 21.2375 15.6066C21.2797 15.5853 21.3219 15.5639 21.3655 15.542C21.4073 15.5207 21.4492 15.4995 21.4924 15.4777C21.8324 15.3144 22.2737 15.3261 22.6397 15.4054C23.0362 15.5501 23.303 15.7912 23.5041 16.1601C23.7179 16.6297 23.7098 17.0493 23.5305 17.5312C23.369 17.8729 23.1164 18.1092 22.7805 18.2812C22.6877 18.2967 22.5949 18.3122 22.4992 18.3281C22.4992 18.854 22.4992 19.38 22.4992 19.9218C22.5921 19.9373 22.6849 19.9528 22.7805 19.9687C23.1663 20.1663 23.4216 20.4503 23.5836 20.8496C23.693 21.2544 23.6785 21.7403 23.4953 22.12C23.2778 22.4865 22.9768 22.7285 22.5705 22.868C22.0982 22.9806 21.692 22.909 21.268 22.6778C20.9307 22.4566 20.7119 22.1446 20.6242 21.75C20.5833 21.3311 20.5804 20.945 20.8117 20.5781C20.8282 20.549 20.8446 20.5198 20.8616 20.4898C21.0092 20.2529 21.2183 20.0909 21.468 19.9687C21.5608 19.9532 21.6536 19.9378 21.7492 19.9218C21.7492 19.3959 21.7492 18.87 21.7492 18.3281C21.6564 18.3126 21.5636 18.2972 21.468 18.2812C21.0788 18.0819 20.8375 17.7988 20.6614 17.4045C20.6202 17.2332 20.6331 17.1077 20.6519 16.9347C20.6867 16.5883 20.6867 16.5883 20.5647 16.2738C20.4026 16.1175 20.2129 16.0063 20.0168 15.8977C19.8703 15.815 19.7345 15.7193 19.5959 15.624C19.5169 15.5721 19.4379 15.5202 19.3586 15.4687C19.3264 15.4851 19.2942 15.5015 19.261 15.5183C19.2188 15.5397 19.1766 15.561 19.133 15.583C19.0912 15.6042 19.0493 15.6254 19.0061 15.6472C18.6746 15.8065 18.2173 15.8116 17.8627 15.7113C17.7633 15.6666 17.6709 15.6182 17.5774 15.5625C17.515 15.5309 17.4526 15.4995 17.3899 15.4687C17.3417 15.5016 17.2936 15.5345 17.2439 15.5683C17.1971 15.6003 17.1971 15.6003 17.1493 15.6329C17.0807 15.68 17.0124 15.7276 16.9444 15.7755C16.7906 15.8836 16.6421 15.9832 16.4753 16.0708C16.3214 16.156 16.227 16.2157 16.1242 16.3593C16.0818 16.583 16.1039 16.8092 16.1175 17.035C16.1361 17.3794 16.0159 17.6297 15.8078 17.8974C15.5426 18.1814 15.2123 18.3558 14.8242 18.3907C14.3213 18.402 13.9067 18.3433 13.5242 17.986C13.3241 17.7635 13.1156 17.4626 13.1282 17.1523C13.134 17.0996 13.134 17.0996 13.1398 17.0458C13.1939 16.6432 13.1939 16.6432 13.0647 16.2738C12.9026 16.1175 12.7129 16.0063 12.5168 15.8977C12.3703 15.815 12.2345 15.7193 12.0959 15.624C12.0169 15.5721 11.9379 15.5202 11.8586 15.4687C11.8264 15.4851 11.7942 15.5015 11.761 15.5183C11.7188 15.5397 11.6766 15.561 11.633 15.583C11.5702 15.6148 11.5702 15.6148 11.5061 15.6472C11.1661 15.8106 10.7248 15.7988 10.3588 15.7196C9.96381 15.5754 9.69619 15.3345 9.49437 14.9677C9.30349 14.5495 9.27697 14.1536 9.41819 13.7155C9.58111 13.3172 9.83239 13.0412 10.218 12.8437C10.3108 12.8282 10.4036 12.8128 10.4992 12.7968C10.4992 12.5184 10.4992 12.24 10.4992 11.9531C10.4064 11.9376 10.3136 11.9222 10.218 11.9062C9.8322 11.7086 9.57687 11.4246 9.4149 11.0253C9.30546 10.6206 9.31996 10.1347 9.50315 9.75491C9.71158 9.40384 10.0074 9.15438 10.3973 9.01663C10.8298 8.94596 11.2946 8.94344 11.6711 9.18746C11.7059 9.2155 11.7407 9.24354 11.7766 9.27243C11.8571 9.33996 11.8571 9.33996 11.9662 9.31665C12.106 9.27759 12.2068 9.22221 12.3296 9.14498C12.373 9.11785 12.4165 9.09072 12.4612 9.06277C12.506 9.03431 12.5508 9.00585 12.5969 8.97653C12.6424 8.94807 12.6879 8.91961 12.7348 8.89028C12.94 8.77144 12.94 8.77144 13.1242 8.62496C13.1232 8.54182 13.1218 8.45866 13.1188 8.37556C13.1074 8.02613 13.1204 7.75653 13.3117 7.45309C13.3282 7.42396 13.3446 7.39484 13.3616 7.36483C13.5092 7.12794 13.7183 6.96592 13.968 6.84371C14.0608 6.82825 14.1536 6.81278 14.2492 6.79684C14.2492 6.5184 14.2492 6.23996 14.2492 5.95309C14.11 5.92989 14.11 5.92989 13.968 5.90621C13.5639 5.71156 13.3004 5.39598 13.1488 4.97888C13.1139 4.83096 13.1307 4.70121 13.1477 4.55147C13.1852 4.20966 13.1852 4.20966 13.0649 3.89924C12.9027 3.74275 12.7131 3.63138 12.5168 3.52273C12.3703 3.44003 12.2345 3.34432 12.0959 3.24899C12.0169 3.19706 11.9379 3.14523 11.8586 3.09371C11.8264 3.11009 11.7942 3.12647 11.761 3.14334C11.7188 3.16467 11.6766 3.186 11.633 3.20797C11.5912 3.22918 11.5493 3.25039 11.5061 3.27224C11.1746 3.43148 10.7173 3.43663 10.3627 3.33633C10.2633 3.29162 10.1709 3.24319 10.0774 3.18746C10.015 3.15587 9.95259 3.12452 9.88987 3.09371C9.84171 3.12659 9.79356 3.15946 9.74394 3.19332C9.69708 3.22527 9.69708 3.22527 9.64927 3.25786C9.58068 3.30501 9.51238 3.3526 9.44438 3.40061C9.29056 3.50887 9.14286 3.6078 8.97526 3.69412C8.81885 3.77938 8.72653 3.83746 8.62425 3.98434C8.59156 4.17829 8.60561 4.37123 8.61673 4.56674C8.63886 4.99298 8.52828 5.27117 8.24687 5.59494C7.9186 5.91446 7.58349 6.05434 7.12718 6.07028C6.67647 6.05511 6.3144 5.93618 5.98606 5.6213C5.64227 5.23688 5.55301 4.84633 5.56327 4.33572C5.60334 3.87006 5.83932 3.53774 6.18675 3.23434C6.57516 2.95691 7.03866 2.93664 7.49925 2.99996C7.65486 3.04428 7.78343 3.10381 7.92112 3.18746C7.98343 3.21911 8.04588 3.25046 8.10862 3.28121C8.15678 3.24834 8.20494 3.21547 8.25456 3.18161C8.2858 3.16031 8.31704 3.13901 8.34922 3.11707C8.41782 3.06992 8.48612 3.02233 8.55412 2.97432C8.70794 2.86606 8.85563 2.76713 9.02324 2.68081C9.17965 2.59555 9.27197 2.53747 9.37425 2.39059C9.40694 2.19667 9.39295 2.00377 9.38166 1.80829C9.35968 1.39045 9.46572 1.10822 9.74284 0.790431C10.3488 0.211185 11.1863 0.190101 11.8568 0.668666ZM10.2473 1.48239C10.144 1.69697 10.1338 1.87522 10.1711 2.10934C10.2803 2.33615 10.4131 2.46889 10.6399 2.57809C10.874 2.61546 11.0522 2.60523 11.2668 2.50192C11.4348 2.34991 11.5584 2.22818 11.5953 1.99691C11.6073 1.73049 11.5744 1.56327 11.3899 1.35934C11.1859 1.17483 11.0187 1.14189 10.7523 1.1539C10.521 1.19081 10.3993 1.31438 10.2473 1.48239ZM17.7473 1.48239C17.644 1.69697 17.6338 1.87522 17.6711 2.10934C17.7803 2.33615 17.9131 2.46889 18.1399 2.57809C18.374 2.61546 18.5522 2.60523 18.7668 2.50192C18.9348 2.34991 19.0584 2.22818 19.0953 1.99691C19.1073 1.73049 19.0744 1.56327 18.8899 1.35934C18.6859 1.17483 18.5187 1.14189 18.2523 1.1539C18.021 1.19081 17.8993 1.31438 17.7473 1.48239ZM17.3899 3.04684C17.172 3.19554 16.9546 3.34483 16.7377 3.49492C16.6767 3.537 16.6157 3.57895 16.5545 3.62067C16.482 3.67011 16.4101 3.72027 16.3381 3.77047C16.2976 3.79845 16.257 3.82643 16.2153 3.85525C16.1092 3.95107 16.0901 3.98419 16.0774 4.12496C16.0784 4.21144 16.0796 4.29793 16.0828 4.38436C16.0973 4.80984 16.045 5.14827 15.7844 5.49899C15.5447 5.73324 15.3178 5.8469 14.9992 5.95309C14.9992 6.23153 14.9992 6.50996 14.9992 6.79684C15.095 6.83745 15.095 6.83745 15.1926 6.87887C15.6165 7.07061 15.8519 7.29732 16.0415 7.7239C16.0788 7.88113 16.0655 7.99853 16.0427 8.15698C16.0209 8.33862 16.0112 8.49858 16.0774 8.67184C16.2828 8.90123 16.6203 9.11421 16.9211 9.18746C17.0649 9.13303 17.1804 9.04518 17.3049 8.95602C17.8035 8.62709 18.3689 8.58669 18.9505 8.7026C19.226 8.79277 19.4259 8.93359 19.6366 9.13143C19.7314 9.20129 19.7314 9.20129 19.84 9.16C19.8822 9.13813 19.9245 9.11625 19.968 9.09371C19.9959 9.08241 20.0238 9.0711 20.0525 9.05945C20.2791 8.96727 20.5126 8.86357 20.6711 8.67184C20.7231 8.49683 20.7033 8.32715 20.688 8.14746C20.6585 7.7939 20.7337 7.55208 20.9524 7.26559C21.1983 7.01283 21.4112 6.92361 21.7492 6.79684C21.7492 6.5184 21.7492 6.23996 21.7492 5.95309C21.6777 5.92699 21.6062 5.90088 21.5325 5.87399C21.1215 5.70672 20.9131 5.45327 20.718 5.06246C20.6752 4.92561 20.6692 4.81575 20.6814 4.67337C20.6834 4.63527 20.6855 4.59717 20.6876 4.55792C20.6922 4.47871 20.6983 4.39958 20.7059 4.32061C20.7132 4.14362 20.712 4.03096 20.5921 3.89426C20.4817 3.80708 20.3682 3.73135 20.2492 3.65621C20.1705 3.60127 20.0918 3.54616 20.0132 3.49087C19.9348 3.43745 19.8562 3.38416 19.7776 3.33102C19.737 3.30344 19.6964 3.27585 19.6546 3.24743C19.556 3.18044 19.4574 3.11358 19.3586 3.04684C19.3264 3.06321 19.2942 3.07959 19.261 3.09646C19.2188 3.11779 19.1766 3.13912 19.133 3.1611C19.0912 3.18231 19.0493 3.20352 19.0061 3.22537C18.6746 3.3846 18.2173 3.38975 17.8627 3.28945C17.7633 3.24474 17.6709 3.19632 17.5774 3.14059C17.515 3.10899 17.4526 3.07765 17.3899 3.04684ZM6.4973 4.10739C6.39398 4.32197 6.38376 4.50022 6.42112 4.73434C6.53033 4.96115 6.66306 5.09389 6.88987 5.20309C7.12399 5.24046 7.30225 5.23023 7.51683 5.12692C7.68483 4.97491 7.80841 4.85318 7.84532 4.62191C7.85732 4.35548 7.82439 4.18827 7.63987 3.98434C7.43594 3.79983 7.26873 3.76689 7.0023 3.7789C6.77103 3.81581 6.6493 3.93938 6.4973 4.10739ZM13.9973 4.10739C13.894 4.32197 13.8838 4.50022 13.9211 4.73434C14.0303 4.96115 14.1631 5.09389 14.3899 5.20309C14.624 5.24046 14.8022 5.23023 15.0168 5.12692C15.1848 4.97491 15.3084 4.85318 15.3453 4.62191C15.3573 4.35548 15.3244 4.18827 15.1399 3.98434C14.9359 3.79983 14.7687 3.76689 14.5023 3.7789C14.271 3.81581 14.1493 3.93938 13.9973 4.10739ZM21.4973 4.10739C21.394 4.32197 21.3838 4.50022 21.4211 4.73434C21.5303 4.96115 21.6631 5.09389 21.8899 5.20309C22.124 5.24046 22.3022 5.23023 22.5168 5.12692C22.6848 4.97491 22.8084 4.85318 22.8453 4.62191C22.8573 4.35548 22.8244 4.18827 22.6399 3.98434C22.4359 3.79983 22.2687 3.76689 22.0023 3.7789C21.771 3.81581 21.6493 3.93938 21.4973 4.10739ZM13.9973 7.85739C13.894 8.07197 13.8838 8.25022 13.9211 8.48434C14.0303 8.71115 14.1631 8.84389 14.3899 8.95309C14.624 8.99046 14.8022 8.98023 15.0168 8.87692C15.1848 8.72491 15.3084 8.60318 15.3453 8.37191C15.3573 8.10549 15.3244 7.93827 15.1399 7.73434C14.9359 7.54983 14.7687 7.51689 14.5023 7.5289C14.271 7.56581 14.1493 7.68938 13.9973 7.85739ZM21.4973 7.85739C21.394 8.07197 21.3838 8.25022 21.4211 8.48434C21.5303 8.71115 21.6631 8.84389 21.8899 8.95309C22.124 8.99046 22.3022 8.98023 22.5168 8.87692C22.6848 8.72491 22.8084 8.60318 22.8453 8.37191C22.8573 8.10549 22.8244 7.93827 22.6399 7.73434C22.4359 7.54983 22.2687 7.51689 22.0023 7.5289C21.771 7.56581 21.6493 7.68938 21.4973 7.85739ZM12.3274 10.0781C12.225 10.2847 12.2594 10.4754 12.2979 10.6953C12.3391 10.9466 12.2714 11.0879 12.1399 11.2968C12.1007 11.3708 12.1007 11.3708 12.0608 11.4463C11.8391 11.7158 11.5768 11.8439 11.2492 11.9531C11.2492 12.2315 11.2492 12.51 11.2492 12.7968C11.345 12.8374 11.345 12.8374 11.4426 12.8789C11.8647 13.0698 12.101 13.2952 12.2898 13.7202C12.3474 13.9577 12.3197 14.1921 12.2949 14.4339C12.2866 14.6095 12.287 14.7196 12.4062 14.8553C12.5167 14.9425 12.6303 15.0184 12.7492 15.0937C12.828 15.1487 12.9067 15.2038 12.9853 15.2591C13.0637 15.3125 13.1423 15.3658 13.2209 15.4189C13.2615 15.4465 13.3021 15.4741 13.3439 15.5025C13.4425 15.5695 13.5411 15.6363 13.6399 15.7031C13.6721 15.6867 13.7043 15.6703 13.7375 15.6535C13.7797 15.6321 13.8219 15.6108 13.8655 15.5888C13.9283 15.557 13.9283 15.557 13.9924 15.5246C14.3239 15.3653 14.7812 15.3602 15.1358 15.4605C15.2352 15.5052 15.3276 15.5536 15.4211 15.6093C15.4835 15.6408 15.546 15.6721 15.6086 15.7031C15.7484 15.6086 15.888 15.5138 16.0276 15.4189C16.0665 15.3926 16.1055 15.3663 16.1456 15.3392C16.2245 15.2854 16.3029 15.2311 16.381 15.1762C16.4603 15.1209 16.5408 15.0674 16.6224 15.0156C16.8349 14.8779 16.8349 14.8779 16.9511 14.6631C16.956 14.548 16.9485 14.4406 16.9358 14.3261C16.9165 13.9879 16.9174 13.745 17.1086 13.4531C17.1347 13.4038 17.1608 13.3545 17.1877 13.3037C17.3978 13.0481 17.6787 12.879 17.9992 12.7968C17.9992 12.6576 17.9992 12.5184 17.9992 12.375C17.9635 12.3619 17.9278 12.3487 17.891 12.3352C17.3021 12.1066 16.9394 11.8059 16.6353 11.2496C16.473 10.8647 16.4816 10.2906 16.593 9.89059C16.4569 9.80272 16.32 9.71617 16.1828 9.62985C16.1442 9.60486 16.1055 9.57988 16.0657 9.55413C16.0282 9.53072 15.9907 9.5073 15.9521 9.48318C15.9178 9.46133 15.8834 9.43949 15.848 9.41698C15.7278 9.36584 15.6815 9.37383 15.5617 9.42184C15.5173 9.45181 15.4728 9.48178 15.427 9.51266C15.1733 9.68009 14.9362 9.72135 14.636 9.72067C14.6031 9.72063 14.5703 9.72058 14.5364 9.72054C14.2373 9.71376 13.9228 9.66355 13.7067 9.43887C13.445 9.18863 12.5368 9.88181 12.3274 10.0781ZM17.4576 9.88601C17.2643 10.1667 17.2626 10.4507 17.2961 10.7812C17.3793 11.0927 17.5983 11.305 17.8586 11.4843C18.1398 11.6222 18.4625 11.6296 18.7639 11.5492C19.0512 11.4223 19.2761 11.1839 19.4136 10.9035C19.5029 10.622 19.5023 10.2889 19.3821 10.0166C19.2187 9.73813 18.9633 9.51951 18.6555 9.42184C18.1195 9.35826 17.8034 9.48154 17.4576 9.88601ZM10.2473 10.1074C10.144 10.322 10.1338 10.5002 10.1711 10.7343C10.2803 10.9611 10.4131 11.0939 10.6399 11.2031C10.874 11.2405 11.0522 11.2302 11.2668 11.1269C11.4348 10.9749 11.5584 10.8532 11.5953 10.6219C11.6073 10.3555 11.5744 10.1883 11.3899 9.98434C11.1859 9.79983 11.0187 9.76689 10.7523 9.7789C10.521 9.81581 10.3993 9.93938 10.2473 10.1074ZM10.2473 13.8574C10.144 14.072 10.1338 14.2502 10.1711 14.4843C10.2803 14.7111 10.4131 14.8439 10.6399 14.9531C10.874 14.9905 11.0522 14.9802 11.2668 14.8769C11.4348 14.7249 11.5584 14.6032 11.5953 14.3719C11.6073 14.1055 11.5744 13.9383 11.3899 13.7343C11.1859 13.5498 11.0187 13.5169 10.7523 13.5289C10.521 13.5658 10.3993 13.6894 10.2473 13.8574ZM17.7473 13.8574C17.644 14.072 17.6338 14.2502 17.6711 14.4843C17.7803 14.7111 17.9131 14.8439 18.1399 14.9531C18.374 14.9905 18.5522 14.9802 18.7668 14.8769C18.9348 14.7249 19.0584 14.6032 19.0953 14.3719C19.1073 14.1055 19.0744 13.9383 18.8899 13.7343C18.6859 13.5498 18.5187 13.5169 18.2523 13.5289C18.021 13.5658 17.8993 13.6894 17.7473 13.8574ZM13.9973 16.4824C13.894 16.697 13.8838 16.8752 13.9211 17.1093C14.0303 17.3361 14.1631 17.4689 14.3899 17.5781C14.624 17.6155 14.8022 17.6052 15.0168 17.5019C15.1848 17.3499 15.3084 17.2282 15.3453 16.9969C15.3573 16.7305 15.3244 16.5633 15.1399 16.3593C14.9359 16.1748 14.7687 16.1419 14.5023 16.1539C14.271 16.1908 14.1493 16.3144 13.9973 16.4824ZM21.4973 16.4824C21.394 16.697 21.3838 16.8752 21.4211 17.1093C21.5303 17.3361 21.6631 17.4689 21.8899 17.5781C22.124 17.6155 22.3022 17.6052 22.5168 17.5019C22.6848 17.3499 22.8084 17.2282 22.8453 16.9969C22.8573 16.7305 22.8244 16.5633 22.6399 16.3593C22.4359 16.1748 22.2687 16.1419 22.0023 16.1539C21.771 16.1908 21.6493 16.3144 21.4973 16.4824ZM21.4973 20.9824C21.394 21.197 21.3838 21.3752 21.4211 21.6093C21.5303 21.8361 21.6631 21.9689 21.8899 22.0781C22.124 22.1155 22.3022 22.1052 22.5168 22.0019C22.6848 21.8499 22.8084 21.7282 22.8453 21.4969C22.8573 21.2305 22.8244 21.0633 22.6399 20.8593C22.4359 20.6748 22.2687 20.6419 22.0023 20.6539C21.771 20.6908 21.6493 20.8144 21.4973 20.9824Z" fill="#005F73"/>
<path d="M11.8568 0.668666C12.0957 0.87185 12.295 1.14646 12.3742 1.45309C12.374 1.56666 12.3628 1.67624 12.3508 1.78913C12.312 2.1492 12.312 2.1492 12.4336 2.47811C12.5949 2.63559 12.7847 2.7457 12.9817 2.85295C13.1287 2.93477 13.2641 3.03051 13.4026 3.12594C13.4816 3.17787 13.5606 3.2297 13.6399 3.28121C13.6721 3.26484 13.7043 3.24846 13.7375 3.23159C13.7797 3.21026 13.8219 3.18893 13.8655 3.16696C13.9073 3.14575 13.9492 3.12454 13.9924 3.10269C14.3239 2.94345 14.7812 2.9383 15.1358 3.0386C15.2352 3.08331 15.3276 3.13174 15.4211 3.18746C15.4834 3.21906 15.5459 3.25041 15.6086 3.28121C15.6568 3.24834 15.7049 3.21547 15.7546 3.18161C15.8014 3.14966 15.8014 3.14966 15.8492 3.11707C15.9178 3.06992 15.9861 3.02233 16.0541 2.97432C16.2079 2.86606 16.3556 2.76713 16.5232 2.68081C16.6796 2.59555 16.772 2.53747 16.8742 2.39059C16.9069 2.19667 16.893 2.00377 16.8817 1.80829C16.8597 1.39045 16.9657 1.10822 17.2428 0.790431C17.5769 0.471079 17.9961 0.309538 18.457 0.318202C18.8717 0.357348 19.2517 0.534426 19.5362 0.840053C19.7822 1.15272 19.8929 1.39404 19.8508 1.78913C19.812 2.1492 19.812 2.1492 19.9336 2.47811C20.0949 2.63559 20.2847 2.7457 20.4817 2.85295C20.6287 2.93477 20.7641 3.03051 20.9026 3.12594C20.9816 3.17787 21.0606 3.2297 21.1399 3.28121C21.1721 3.26484 21.2043 3.24846 21.2375 3.23159C21.2797 3.21026 21.3219 3.18893 21.3655 3.16696C21.4283 3.13514 21.4283 3.13514 21.4924 3.10269C21.8324 2.93937 22.2737 2.95114 22.6397 3.03036C23.0362 3.17512 23.303 3.41624 23.5041 3.78512C23.7179 4.25468 23.7098 4.67429 23.5305 5.15621C23.369 5.49788 23.1164 5.73415 22.7805 5.90621C22.6877 5.92168 22.5949 5.93715 22.4992 5.95309C22.4992 6.23153 22.4992 6.50996 22.4992 6.79684C22.5921 6.81231 22.6849 6.82778 22.7805 6.84371C23.1663 7.04132 23.4216 7.32529 23.5836 7.72464C23.6931 8.12959 23.6782 8.61464 23.4957 8.99484C23.2625 9.38591 22.9396 9.62939 22.4992 9.74996C22.3747 9.76106 22.2574 9.76782 22.133 9.76754C22.1 9.7675 22.067 9.76746 22.033 9.76742C21.7088 9.76006 21.4726 9.67941 21.2219 9.4775C21.1426 9.41142 21.1426 9.41142 21.0404 9.42843C20.8542 9.48404 20.7034 9.58004 20.5393 9.68258C20.5068 9.70249 20.4743 9.7224 20.4409 9.74292C20.3612 9.79183 20.2817 9.84117 20.2024 9.89059C20.2136 9.93128 20.2136 9.93128 20.2251 9.97279C20.3465 10.5022 20.2772 11.092 19.9911 11.5508C19.6779 11.9856 19.3048 12.2219 18.7961 12.375C18.7807 12.5142 18.7652 12.6534 18.7492 12.7968C18.7908 12.8017 18.8324 12.8065 18.8752 12.8115C19.2088 12.8807 19.4727 13.1095 19.6633 13.3857C19.8363 13.6598 19.881 13.8733 19.8466 14.1902C19.8118 14.5366 19.8118 14.5366 19.9338 14.8511C20.0959 15.0074 20.2856 15.1186 20.4817 15.2272C20.6282 15.3099 20.764 15.4056 20.9026 15.5009C20.9816 15.5529 21.0606 15.6047 21.1399 15.6562C21.1721 15.6398 21.2043 15.6235 21.2375 15.6066C21.2797 15.5853 21.3219 15.5639 21.3655 15.542C21.4073 15.5207 21.4492 15.4995 21.4924 15.4777C21.8324 15.3144 22.2737 15.3261 22.6397 15.4054C23.0362 15.5501 23.303 15.7912 23.5041 16.1601C23.7179 16.6297 23.7098 17.0493 23.5305 17.5312C23.369 17.8729 23.1164 18.1092 22.7805 18.2812C22.6877 18.2967 22.5949 18.3122 22.4992 18.3281C22.4992 18.854 22.4992 19.38 22.4992 19.9218C22.5921 19.9373 22.6849 19.9528 22.7805 19.9687C23.1663 20.1663 23.4216 20.4503 23.5836 20.8496C23.693 21.2544 23.6785 21.7403 23.4953 22.12C23.2778 22.4865 22.9768 22.7285 22.5705 22.868C22.0982 22.9806 21.692 22.909 21.268 22.6778C20.9307 22.4566 20.7119 22.1446 20.6242 21.75C20.5833 21.3311 20.5804 20.945 20.8117 20.5781C20.8282 20.549 20.8446 20.5198 20.8616 20.4898C21.0092 20.2529 21.2183 20.0909 21.468 19.9687C21.5608 19.9532 21.6536 19.9378 21.7492 19.9218C21.7492 19.3959 21.7492 18.87 21.7492 18.3281C21.6564 18.3126 21.5636 18.2972 21.468 18.2812C21.0788 18.0819 20.8375 17.7988 20.6614 17.4045C20.6202 17.2332 20.6331 17.1077 20.6519 16.9347C20.6867 16.5883 20.6867 16.5883 20.5647 16.2738C20.4026 16.1175 20.2129 16.0063 20.0168 15.8977C19.8703 15.815 19.7345 15.7193 19.5959 15.624C19.5169 15.5721 19.4379 15.5202 19.3586 15.4687C19.3264 15.4851 19.2942 15.5015 19.261 15.5183C19.2188 15.5397 19.1766 15.561 19.133 15.583C19.0912 15.6042 19.0493 15.6254 19.0061 15.6472C18.6746 15.8065 18.2173 15.8116 17.8627 15.7113C17.7633 15.6666 17.6709 15.6182 17.5774 15.5625C17.515 15.5309 17.4526 15.4995 17.3899 15.4687C17.3417 15.5016 17.2936 15.5345 17.2439 15.5683C17.1971 15.6003 17.1971 15.6003 17.1493 15.6329C17.0807 15.68 17.0124 15.7276 16.9444 15.7755C16.7906 15.8836 16.6421 15.9832 16.4753 16.0708C16.3214 16.156 16.227 16.2157 16.1242 16.3593C16.0818 16.583 16.1039 16.8092 16.1175 17.035C16.1361 17.3794 16.0159 17.6297 15.8078 17.8974C15.5426 18.1814 15.2123 18.3558 14.8242 18.3907C14.3213 18.402 13.9067 18.3433 13.5242 17.986C13.3241 17.7635 13.1156 17.4626 13.1282 17.1523C13.134 17.0996 13.134 17.0996 13.1398 17.0458C13.1939 16.6432 13.1939 16.6432 13.0647 16.2738C12.9026 16.1175 12.7129 16.0063 12.5168 15.8977C12.3703 15.815 12.2345 15.7193 12.0959 15.624C12.0169 15.5721 11.9379 15.5202 11.8586 15.4687C11.8264 15.4851 11.7942 15.5015 11.761 15.5183C11.7188 15.5397 11.6766 15.561 11.633 15.583C11.5702 15.6148 11.5702 15.6148 11.5061 15.6472C11.1661 15.8106 10.7248 15.7988 10.3588 15.7196C9.96381 15.5754 9.69619 15.3345 9.49437 14.9677C9.30349 14.5495 9.27697 14.1536 9.41819 13.7155C9.58111 13.3172 9.83239 13.0412 10.218 12.8437C10.3108 12.8282 10.4036 12.8128 10.4992 12.7968C10.4992 12.5184 10.4992 12.24 10.4992 11.9531C10.4064 11.9376 10.3136 11.9222 10.218 11.9062C9.8322 11.7086 9.57687 11.4246 9.4149 11.0253C9.30546 10.6206 9.31996 10.1347 9.50315 9.75491C9.71158 9.40384 10.0074 9.15438 10.3973 9.01663C10.8298 8.94596 11.2946 8.94344 11.6711 9.18746C11.7059 9.2155 11.7407 9.24354 11.7766 9.27243C11.8571 9.33996 11.8571 9.33996 11.9662 9.31665C12.106 9.27759 12.2068 9.22221 12.3296 9.14498C12.373 9.11785 12.4165 9.09072 12.4612 9.06277C12.506 9.03431 12.5508 9.00585 12.5969 8.97653C12.6424 8.94807 12.6879 8.91961 12.7348 8.89028C12.94 8.77144 12.94 8.77144 13.1242 8.62496C13.1232 8.54182 13.1218 8.45866 13.1188 8.37556C13.1074 8.02613 13.1204 7.75653 13.3117 7.45309C13.3282 7.42396 13.3446 7.39484 13.3616 7.36483C13.5092 7.12794 13.7183 6.96592 13.968 6.84371C14.0608 6.82825 14.1536 6.81278 14.2492 6.79684C14.2492 6.5184 14.2492 6.23996 14.2492 5.95309C14.11 5.92989 14.11 5.92989 13.968 5.90621C13.5639 5.71156 13.3004 5.39598 13.1488 4.97888C13.1139 4.83096 13.1307 4.70121 13.1477 4.55147C13.1852 4.20966 13.1852 4.20966 13.0649 3.89924C12.9027 3.74275 12.7131 3.63138 12.5168 3.52273C12.3703 3.44003 12.2345 3.34432 12.0959 3.24899C12.0169 3.19706 11.9379 3.14523 11.8586 3.09371C11.8264 3.11009 11.7942 3.12647 11.761 3.14334C11.7188 3.16467 11.6766 3.186 11.633 3.20797C11.5912 3.22918 11.5493 3.25039 11.5061 3.27224C11.1746 3.43148 10.7173 3.43663 10.3627 3.33633C10.2633 3.29162 10.1709 3.24319 10.0774 3.18746C10.015 3.15587 9.95259 3.12452 9.88987 3.09371C9.84171 3.12659 9.79356 3.15946 9.74394 3.19332C9.69708 3.22527 9.69708 3.22527 9.64927 3.25786C9.58068 3.30501 9.51238 3.3526 9.44438 3.40061C9.29056 3.50887 9.14286 3.6078 8.97526 3.69412C8.81885 3.77938 8.72653 3.83746 8.62425 3.98434C8.59156 4.17829 8.60561 4.37123 8.61673 4.56674C8.63886 4.99298 8.52828 5.27117 8.24687 5.59494C7.9186 5.91446 7.58349 6.05434 7.12718 6.07028C6.67647 6.05511 6.3144 5.93618 5.98606 5.6213C5.64227 5.23688 5.55301 4.84633 5.56327 4.33572C5.60334 3.87006 5.83932 3.53774 6.18675 3.23434C6.57516 2.95691 7.03866 2.93664 7.49925 2.99996C7.65486 3.04428 7.78343 3.10381 7.92112 3.18746C7.98343 3.21911 8.04588 3.25046 8.10862 3.28121C8.15678 3.24834 8.20494 3.21547 8.25456 3.18161C8.2858 3.16031 8.31704 3.13901 8.34922 3.11707C8.41782 3.06992 8.48612 3.02233 8.55412 2.97432C8.70794 2.86606 8.85563 2.76713 9.02324 2.68081C9.17965 2.59555 9.27197 2.53747 9.37425 2.39059C9.40694 2.19667 9.39295 2.00377 9.38166 1.80829C9.35968 1.39045 9.46572 1.10822 9.74284 0.790431C10.3488 0.211185 11.1863 0.190101 11.8568 0.668666ZM10.2473 1.48239C10.144 1.69697 10.1338 1.87522 10.1711 2.10934C10.2803 2.33615 10.4131 2.46889 10.6399 2.57809C10.874 2.61546 11.0522 2.60523 11.2668 2.50192C11.4348 2.34991 11.5584 2.22818 11.5953 1.99691C11.6073 1.73049 11.5744 1.56327 11.3899 1.35934C11.1859 1.17483 11.0187 1.14189 10.7523 1.1539C10.521 1.19081 10.3993 1.31438 10.2473 1.48239ZM17.7473 1.48239C17.644 1.69697 17.6338 1.87522 17.6711 2.10934C17.7803 2.33615 17.9131 2.46889 18.1399 2.57809C18.374 2.61546 18.5522 2.60523 18.7668 2.50192C18.9348 2.34991 19.0584 2.22818 19.0953 1.99691C19.1073 1.73049 19.0744 1.56327 18.8899 1.35934C18.6859 1.17483 18.5187 1.14189 18.2523 1.1539C18.021 1.19081 17.8993 1.31438 17.7473 1.48239ZM17.3899 3.04684C17.172 3.19554 16.9546 3.34483 16.7377 3.49492C16.6767 3.537 16.6157 3.57895 16.5545 3.62067C16.482 3.67011 16.4101 3.72027 16.3381 3.77047C16.2976 3.79845 16.257 3.82643 16.2153 3.85525C16.1092 3.95107 16.0901 3.98419 16.0774 4.12496C16.0784 4.21144 16.0796 4.29793 16.0828 4.38436C16.0973 4.80984 16.045 5.14827 15.7844 5.49899C15.5447 5.73324 15.3178 5.8469 14.9992 5.95309C14.9992 6.23153 14.9992 6.50996 14.9992 6.79684C15.095 6.83745 15.095 6.83745 15.1926 6.87887C15.6165 7.07061 15.8519 7.29732 16.0415 7.7239C16.0788 7.88113 16.0655 7.99853 16.0427 8.15698C16.0209 8.33862 16.0112 8.49858 16.0774 8.67184C16.2828 8.90123 16.6203 9.11421 16.9211 9.18746C17.0649 9.13303 17.1804 9.04518 17.3049 8.95602C17.8035 8.62709 18.3689 8.58669 18.9505 8.7026C19.226 8.79277 19.4259 8.93359 19.6366 9.13143C19.7314 9.20129 19.7314 9.20129 19.84 9.16C19.8822 9.13813 19.9245 9.11625 19.968 9.09371C19.9959 9.08241 20.0238 9.0711 20.0525 9.05945C20.2791 8.96727 20.5126 8.86357 20.6711 8.67184C20.7231 8.49683 20.7033 8.32715 20.688 8.14746C20.6585 7.7939 20.7337 7.55208 20.9524 7.26559C21.1983 7.01283 21.4112 6.92361 21.7492 6.79684C21.7492 6.5184 21.7492 6.23996 21.7492 5.95309C21.6777 5.92699 21.6062 5.90088 21.5325 5.87399C21.1215 5.70672 20.9131 5.45327 20.718 5.06246C20.6752 4.92561 20.6692 4.81575 20.6814 4.67337C20.6834 4.63527 20.6855 4.59717 20.6876 4.55792C20.6922 4.47871 20.6983 4.39958 20.7059 4.32061C20.7132 4.14362 20.712 4.03096 20.5921 3.89426C20.4817 3.80708 20.3682 3.73135 20.2492 3.65621C20.1705 3.60127 20.0918 3.54616 20.0132 3.49087C19.9348 3.43745 19.8562 3.38416 19.7776 3.33102C19.737 3.30344 19.6964 3.27585 19.6546 3.24743C19.556 3.18044 19.4574 3.11358 19.3586 3.04684C19.3264 3.06321 19.2942 3.07959 19.261 3.09646C19.2188 3.11779 19.1766 3.13912 19.133 3.1611C19.0912 3.18231 19.0493 3.20352 19.0061 3.22537C18.6746 3.3846 18.2173 3.38975 17.8627 3.28945C17.7633 3.24474 17.6709 3.19632 17.5774 3.14059C17.515 3.10899 17.4526 3.07765 17.3899 3.04684ZM6.4973 4.10739C6.39398 4.32197 6.38376 4.50022 6.42112 4.73434C6.53033 4.96115 6.66306 5.09389 6.88987 5.20309C7.12399 5.24046 7.30225 5.23023 7.51683 5.12692C7.68483 4.97491 7.80841 4.85318 7.84532 4.62191C7.85732 4.35548 7.82439 4.18827 7.63987 3.98434C7.43594 3.79983 7.26873 3.76689 7.0023 3.7789C6.77103 3.81581 6.6493 3.93938 6.4973 4.10739ZM13.9973 4.10739C13.894 4.32197 13.8838 4.50022 13.9211 4.73434C14.0303 4.96115 14.1631 5.09389 14.3899 5.20309C14.624 5.24046 14.8022 5.23023 15.0168 5.12692C15.1848 4.97491 15.3084 4.85318 15.3453 4.62191C15.3573 4.35548 15.3244 4.18827 15.1399 3.98434C14.9359 3.79983 14.7687 3.76689 14.5023 3.7789C14.271 3.81581 14.1493 3.93938 13.9973 4.10739ZM21.4973 4.10739C21.394 4.32197 21.3838 4.50022 21.4211 4.73434C21.5303 4.96115 21.6631 5.09389 21.8899 5.20309C22.124 5.24046 22.3022 5.23023 22.5168 5.12692C22.6848 4.97491 22.8084 4.85318 22.8453 4.62191C22.8573 4.35548 22.8244 4.18827 22.6399 3.98434C22.4359 3.79983 22.2687 3.76689 22.0023 3.7789C21.771 3.81581 21.6493 3.93938 21.4973 4.10739ZM13.9973 7.85739C13.894 8.07197 13.8838 8.25022 13.9211 8.48434C14.0303 8.71115 14.1631 8.84389 14.3899 8.95309C14.624 8.99046 14.8022 8.98023 15.0168 8.87692C15.1848 8.72491 15.3084 8.60318 15.3453 8.37191C15.3573 8.10549 15.3244 7.93827 15.1399 7.73434C14.9359 7.54983 14.7687 7.51689 14.5023 7.5289C14.271 7.56581 14.1493 7.68938 13.9973 7.85739ZM21.4973 7.85739C21.394 8.07197 21.3838 8.25022 21.4211 8.48434C21.5303 8.71115 21.6631 8.84389 21.8899 8.95309C22.124 8.99046 22.3022 8.98023 22.5168 8.87692C22.6848 8.72491 22.8084 8.60318 22.8453 8.37191C22.8573 8.10549 22.8244 7.93827 22.6399 7.73434C22.4359 7.54983 22.2687 7.51689 22.0023 7.5289C21.771 7.56581 21.6493 7.68938 21.4973 7.85739ZM12.3274 10.0781C12.225 10.2847 12.2594 10.4754 12.2979 10.6953C12.3391 10.9466 12.2714 11.0879 12.1399 11.2968C12.1007 11.3708 12.1007 11.3708 12.0608 11.4463C11.8391 11.7158 11.5768 11.8439 11.2492 11.9531C11.2492 12.2315 11.2492 12.51 11.2492 12.7968C11.345 12.8374 11.345 12.8374 11.4426 12.8789C11.8647 13.0698 12.101 13.2952 12.2898 13.7202C12.3474 13.9577 12.3197 14.1921 12.2949 14.4339C12.2866 14.6095 12.287 14.7196 12.4062 14.8553C12.5167 14.9425 12.6303 15.0184 12.7492 15.0937C12.828 15.1487 12.9067 15.2038 12.9853 15.2591C13.0637 15.3125 13.1423 15.3658 13.2209 15.4189C13.2615 15.4465 13.3021 15.4741 13.3439 15.5025C13.4425 15.5695 13.5411 15.6363 13.6399 15.7031C13.6721 15.6867 13.7043 15.6703 13.7375 15.6535C13.7797 15.6321 13.8219 15.6108 13.8655 15.5888C13.9283 15.557 13.9283 15.557 13.9924 15.5246C14.3239 15.3653 14.7812 15.3602 15.1358 15.4605C15.2352 15.5052 15.3276 15.5536 15.4211 15.6093C15.4835 15.6408 15.546 15.6721 15.6086 15.7031C15.7484 15.6086 15.888 15.5138 16.0276 15.4189C16.0665 15.3926 16.1055 15.3663 16.1456 15.3392C16.2245 15.2854 16.3029 15.2311 16.381 15.1762C16.4603 15.1209 16.5408 15.0674 16.6224 15.0156C16.8349 14.8779 16.8349 14.8779 16.9511 14.6631C16.956 14.548 16.9485 14.4406 16.9358 14.3261C16.9165 13.9879 16.9174 13.745 17.1086 13.4531C17.1347 13.4038 17.1608 13.3545 17.1877 13.3037C17.3978 13.0481 17.6787 12.879 17.9992 12.7968C17.9992 12.6576 17.9992 12.5184 17.9992 12.375C17.9635 12.3619 17.9278 12.3487 17.891 12.3352C17.3021 12.1066 16.9394 11.8059 16.6353 11.2496C16.473 10.8647 16.4816 10.2906 16.593 9.89059C16.4569 9.80272 16.32 9.71617 16.1828 9.62985C16.1442 9.60486 16.1055 9.57988 16.0657 9.55413C16.0282 9.53072 15.9907 9.5073 15.9521 9.48318C15.9178 9.46133 15.8834 9.43949 15.848 9.41698C15.7278 9.36584 15.6815 9.37383 15.5617 9.42184C15.5173 9.45181 15.4728 9.48178 15.427 9.51266C15.1733 9.68009 14.9362 9.72135 14.636 9.72067C14.6031 9.72063 14.5703 9.72058 14.5364 9.72054C14.2373 9.71376 13.9228 9.66355 13.7067 9.43887C13.445 9.18863 12.5368 9.88181 12.3274 10.0781ZM17.4576 9.88601C17.2643 10.1667 17.2626 10.4507 17.2961 10.7812C17.3793 11.0927 17.5983 11.305 17.8586 11.4843C18.1398 11.6222 18.4625 11.6296 18.7639 11.5492C19.0512 11.4223 19.2761 11.1839 19.4136 10.9035C19.5029 10.622 19.5023 10.2889 19.3821 10.0166C19.2187 9.73813 18.9633 9.51951 18.6555 9.42184C18.1195 9.35826 17.8034 9.48154 17.4576 9.88601ZM10.2473 10.1074C10.144 10.322 10.1338 10.5002 10.1711 10.7343C10.2803 10.9611 10.4131 11.0939 10.6399 11.2031C10.874 11.2405 11.0522 11.2302 11.2668 11.1269C11.4348 10.9749 11.5584 10.8532 11.5953 10.6219C11.6073 10.3555 11.5744 10.1883 11.3899 9.98434C11.1859 9.79983 11.0187 9.76689 10.7523 9.7789C10.521 9.81581 10.3993 9.93938 10.2473 10.1074ZM10.2473 13.8574C10.144 14.072 10.1338 14.2502 10.1711 14.4843C10.2803 14.7111 10.4131 14.8439 10.6399 14.9531C10.874 14.9905 11.0522 14.9802 11.2668 14.8769C11.4348 14.7249 11.5584 14.6032 11.5953 14.3719C11.6073 14.1055 11.5744 13.9383 11.3899 13.7343C11.1859 13.5498 11.0187 13.5169 10.7523 13.5289C10.521 13.5658 10.3993 13.6894 10.2473 13.8574ZM17.7473 13.8574C17.644 14.072 17.6338 14.2502 17.6711 14.4843C17.7803 14.7111 17.9131 14.8439 18.1399 14.9531C18.374 14.9905 18.5522 14.9802 18.7668 14.8769C18.9348 14.7249 19.0584 14.6032 19.0953 14.3719C19.1073 14.1055 19.0744 13.9383 18.8899 13.7343C18.6859 13.5498 18.5187 13.5169 18.2523 13.5289C18.021 13.5658 17.8993 13.6894 17.7473 13.8574ZM13.9973 16.4824C13.894 16.697 13.8838 16.8752 13.9211 17.1093C14.0303 17.3361 14.1631 17.4689 14.3899 17.5781C14.624 17.6155 14.8022 17.6052 15.0168 17.5019C15.1848 17.3499 15.3084 17.2282 15.3453 16.9969C15.3573 16.7305 15.3244 16.5633 15.1399 16.3593C14.9359 16.1748 14.7687 16.1419 14.5023 16.1539C14.271 16.1908 14.1493 16.3144 13.9973 16.4824ZM21.4973 16.4824C21.394 16.697 21.3838 16.8752 21.4211 17.1093C21.5303 17.3361 21.6631 17.4689 21.8899 17.5781C22.124 17.6155 22.3022 17.6052 22.5168 17.5019C22.6848 17.3499 22.8084 17.2282 22.8453 16.9969C22.8573 16.7305 22.8244 16.5633 22.6399 16.3593C22.4359 16.1748 22.2687 16.1419 22.0023 16.1539C21.771 16.1908 21.6493 16.3144 21.4973 16.4824ZM21.4973 20.9824C21.394 21.197 21.3838 21.3752 21.4211 21.6093C21.5303 21.8361 21.6631 21.9689 21.8899 22.0781C22.124 22.1155 22.3022 22.1052 22.5168 22.0019C22.6848 21.8499 22.8084 21.7282 22.8453 21.4969C22.8573 21.2305 22.8244 21.0633 22.6399 20.8593C22.4359 20.6748 22.2687 20.6419 22.0023 20.6539C21.771 20.6908 21.6493 20.8144 21.4973 20.9824Z" stroke="#005F73" stroke-width="0.4" mask="url(#path-1-outside-1_12474_324511)"/>
<path d="M2.66602 14.8794L2.83398 14.9019L2.85254 14.9058L2.86914 14.9175C2.96198 14.9811 2.96594 14.9841 3.05664 15.0679L3.15527 15.1587L3.15625 15.1597C3.32075 15.317 3.48318 15.4766 3.64355 15.6382C3.69573 15.6905 3.6959 15.6904 3.74902 15.7437C3.85902 15.8539 3.96934 15.9643 4.0791 16.0747L4.30371 16.3003C4.48661 16.4837 4.66989 16.6674 4.85254 16.8511L4.90137 16.9009L4.87207 16.9644C4.78517 17.1504 4.67986 17.2689 4.54102 17.4038L4.54004 17.4028C4.50178 17.4402 4.46422 17.4785 4.4248 17.5171H4.42383C4.39447 17.5454 4.36521 17.5739 4.33496 17.603L4.28809 17.6479L4.22754 17.6235C4.07569 17.5612 3.96638 17.4719 3.86426 17.3735L3.6377 17.147C3.58557 17.094 3.5332 17.0404 3.47949 16.9858C3.3677 16.8727 3.2559 16.7597 3.14258 16.645C3.12893 17.4367 3.1156 18.2303 3.10156 19.0444C3.21424 19.0695 3.3274 19.0948 3.44336 19.1206L3.45605 19.1235L3.42188 19.2183L3.45605 19.1245C4.00498 19.3213 4.42954 19.727 4.72168 20.2095L4.83887 20.4204L4.84277 20.4282H4.8418C5.07171 20.9979 5.07088 21.7511 4.84277 22.3208L4.83984 22.3296L4.75 22.2837L4.83887 22.3296C4.52372 22.9477 4.04156 23.4414 3.3623 23.6646L3.35645 23.6665V23.6655C2.72114 23.8318 2.04713 23.7968 1.45312 23.479L1.44629 23.4751V23.4741C0.85519 23.0945 0.441442 22.558 0.27832 21.8667L0.275391 21.854C0.203628 21.186 0.261647 20.5378 0.680664 19.9624L0.685547 19.9556H0.686523C1.11334 19.4598 1.5257 19.198 2.14844 19.0464C2.12796 17.8586 2.1267 17.7611 2.10742 16.6431C1.79145 16.959 1.47474 17.2767 1.14941 17.6021L1.09766 17.6528L1.0332 17.6206C0.8403 17.5241 0.739591 17.4376 0.59668 17.2905C0.559255 17.2523 0.521954 17.2137 0.483398 17.1743L0.482422 17.1733C0.454244 17.1441 0.425516 17.1146 0.396484 17.0845L0.350586 17.0366L0.376953 16.9751C0.450658 16.8071 0.542132 16.6954 0.665039 16.5728C0.700213 16.5374 0.735245 16.5017 0.771484 16.4653H0.772461L1.00586 16.2319C1.08872 16.1492 1.17181 16.0664 1.25488 15.9839C1.38215 15.8575 1.50977 15.731 1.63672 15.604L1.87793 15.3638C1.91611 15.3256 1.95382 15.2868 1.99316 15.2476H1.99414C2.0294 15.2126 2.06426 15.1771 2.10059 15.1411C2.13169 15.1102 2.16327 15.0792 2.19531 15.0474L2.19824 15.0454C2.34241 14.9128 2.50036 14.8713 2.66602 14.8794ZM2.86816 19.9888C2.37888 19.9145 1.90125 20.1037 1.56152 20.4673C1.52037 20.5214 1.48093 20.5767 1.44336 20.6333C1.42489 20.6611 1.4057 20.6887 1.38672 20.7173C1.22543 21.0143 1.2148 21.3753 1.26953 21.7251C1.40455 22.1565 1.66341 22.4464 2.06055 22.6636C2.39991 22.7976 2.82018 22.7845 3.16895 22.6616C3.53544 22.4865 3.77554 22.2288 3.9375 21.855C4.053 21.4992 4.02058 21.0622 3.86133 20.7261H3.86035C3.6309 20.3372 3.31187 20.1113 2.86816 19.9888Z" fill="#005F73" stroke="#005F73" stroke-width="0.2"/>
<path d="M6.81543 14.9512C7.34713 14.7969 8.0378 14.838 8.53027 15.0986H8.5293L8.65234 15.1621L8.65527 15.1631C9.14828 15.4376 9.48301 15.8301 9.70508 16.3262L9.79297 16.5449L9.79688 16.5537H9.7959C9.97239 17.2398 9.85521 17.9517 9.50195 18.5547L9.49805 18.5605C9.16349 19.0475 8.74134 19.3507 8.18945 19.5469L8.18066 19.5498L8.17188 19.5518C8.06738 19.5692 8.04124 19.5729 7.97461 19.584V21.6494H9.09961V22.5996H7.97461V23.7246H7.02441V22.5996H5.89941V21.6494H7.02441V19.5801C6.91112 19.5549 6.79726 19.5298 6.68066 19.5039L6.67285 19.502L6.66504 19.499C6.01963 19.2369 5.55669 18.7698 5.28613 18.1367L5.28418 18.1309C5.0811 17.5646 5.05814 16.9292 5.28223 16.3584L5.28418 16.3525H5.28516C5.61736 15.6537 6.08411 15.2276 6.80762 14.9531L6.81543 14.9502V14.9512ZM7.73828 15.8633C7.25095 15.7907 6.77526 15.979 6.43652 16.3408L6.31738 16.5088C6.2981 16.5378 6.27865 16.5668 6.25879 16.5967C6.09959 16.893 6.08901 17.2523 6.14355 17.6006C6.27858 18.0317 6.53769 18.321 6.93457 18.5381C7.27402 18.6722 7.6941 18.6591 8.04297 18.5361C8.41004 18.3606 8.64958 18.1024 8.81152 17.7275C8.92615 17.3721 8.89427 16.936 8.73535 16.6006H8.73438C8.50428 16.2109 8.1838 15.9855 7.73828 15.8633Z" fill="#005F73" stroke="#005F73" stroke-width="0.2"/>
</g>
<defs>
<clipPath id="clip0_12474_324511">
<rect width="24" height="24" fill="white"/>
</clipPath>
</defs>
</svg>
