<svg width="25" height="24" viewBox="0 0 25 24" fill="none" xmlns="http://www.w3.org/2000/svg">
<path d="M4.8125 22.5V18.073C4.8125 17.1571 4.46951 16.285 4.01172 15.4917C3.24894 14.1698 2.8125 12.6359 2.8125 11C2.8125 6.02944 6.84194 2 11.8125 2C16.7186 2 20.7078 5.89691 20.8105 11.2867C20.8131 11.4266 20.8419 11.5661 20.8987 11.6939L22.8125 16L20.8125 17C19.8125 20.5 20.0125 21.5 16.8125 21.5C13.6125 21.5 13.3125 21 12.8125 19.5M10.8125 15C10.8125 13.8954 11.7079 13 12.8125 13C14.1932 13 15.3125 11.8807 15.3125 10.5M15.3125 10.5C16.1409 10.5 16.8125 9.82843 16.8125 9C16.8125 8.17157 16.1409 7.5 15.3125 7.5C15.0994 7.5 14.8966 7.54445 14.713 7.62458C14.7776 7.42806 14.8125 7.21811 14.8125 7C14.8125 5.89543 13.9171 5 12.8125 5C11.866 5 11.073 5.65753 10.8655 6.54073M15.3125 10.5C14.8682 10.5 14.4691 10.3069 14.1944 10M7.03213 9.52616C6.3377 9.65745 5.8125 10.2674 5.8125 11C5.8125 11.8284 6.48407 12.5 7.3125 12.5C7.96561 12.5 8.52123 12.0826 8.72715 11.5M7.03213 9.52616C7.12296 9.50898 7.21668 9.5 7.3125 9.5M7.03213 9.52616C6.89102 9.21307 6.8125 8.86571 6.8125 8.5C6.8125 7.11929 7.93179 6 9.3125 6C9.89934 6 10.439 6.2022 10.8655 6.54073M10.8655 6.54073C11.4425 6.99869 11.8125 7.70613 11.8125 8.5" stroke="#267E95" stroke-width="1.5" stroke-linecap="round" stroke-linejoin="round"/>
</svg>
