<svg width="24" height="24" viewBox="0 0 24 24" fill="none" xmlns="http://www.w3.org/2000/svg">
<mask id="path-1-outside-1_12474_324575" maskUnits="userSpaceOnUse" x="1" y="1" width="21" height="21" fill="black">
<rect fill="white" x="1" y="1" width="21" height="21"/>
<path d="M13.8728 2.25366C14.109 2.4336 14.2557 2.66162 14.3412 2.94506C14.3941 3.39363 14.3554 3.75072 14.098 4.12573C13.8292 4.39457 13.5966 4.51844 13.2162 4.53881C13.2142 4.57058 13.2122 4.60235 13.2101 4.63508C13.1803 5.04874 13.1174 5.45447 13.0492 5.86303C13.0381 5.93047 13.027 5.99792 13.0159 6.06536C12.9892 6.22843 12.9621 6.39145 12.9349 6.55444C12.9645 6.55947 12.994 6.56451 13.0245 6.56969C13.2905 6.61838 13.5272 6.68508 13.7728 6.7976C13.8045 6.81175 13.8363 6.82589 13.869 6.84046C14.1271 6.95809 14.3692 7.0947 14.6103 7.2442C14.7095 7.31217 14.7095 7.31217 14.8099 7.30444C14.8987 7.21067 14.9821 7.11626 15.0648 7.01733C15.0895 6.98813 15.1143 6.95893 15.1398 6.92884C15.3404 6.69037 15.5343 6.44679 15.725 6.20029C15.8069 6.09441 15.887 5.99297 15.9818 5.89819C15.9675 5.76933 15.9348 5.66344 15.8851 5.5437C15.7856 5.17871 15.8029 4.80577 15.9604 4.46026C16.1342 4.18299 16.4053 3.95067 16.7214 3.85455C17.1263 3.78124 17.4984 3.81389 17.8568 4.02319C18.1375 4.2263 18.293 4.48456 18.3724 4.82006C18.4255 5.22763 18.3828 5.56181 18.138 5.89819C17.8958 6.16627 17.6411 6.35442 17.2751 6.37664C17.0395 6.37932 16.8192 6.38182 16.5912 6.32006C16.5749 6.34008 16.5587 6.3601 16.5419 6.38073C16.4656 6.47477 16.3892 6.56881 16.3128 6.66284C16.2852 6.69687 16.2576 6.73091 16.2291 6.76597C16.035 7.00491 15.8401 7.24324 15.6445 7.48095C15.5671 7.5768 15.4925 7.67409 15.4193 7.77319C15.4961 7.95717 15.6226 8.092 15.7533 8.23901C16.0788 8.61388 16.3235 9.0157 16.5443 9.46069C16.5844 9.44581 16.6246 9.43092 16.6659 9.41559C16.817 9.35965 16.9682 9.30384 17.1194 9.24811C17.1844 9.22412 17.2494 9.20007 17.3144 9.17597C17.6794 9.04062 18.0439 8.90899 18.4193 8.80444C18.4154 8.75223 18.4116 8.70002 18.4076 8.64623C18.4076 8.3434 18.5312 8.08226 18.6888 7.82885C18.9667 7.55867 19.2774 7.40501 19.6661 7.39508C20.0639 7.41354 20.4145 7.53839 20.6898 7.83471C20.9579 8.18941 20.9989 8.55345 20.9505 8.99194C20.8645 9.30299 20.6978 9.59357 20.4161 9.76263C20.0686 9.9417 19.7583 10.0444 19.3683 9.94262C19.102 9.85276 18.8975 9.75668 18.7005 9.55444C18.7005 9.5235 18.7005 9.49256 18.7005 9.46069C18.0973 9.69272 17.494 9.92475 16.8724 10.1638C16.8724 10.3193 16.8904 10.4459 16.9224 10.5965C17.0352 11.1387 17.0273 11.6748 17.013 12.2263C17.0536 12.2309 17.0941 12.2355 17.1359 12.2402C17.1949 12.2472 17.254 12.2542 17.3148 12.2615C17.3473 12.265 17.3798 12.2686 17.4133 12.2723C17.6319 12.2981 17.8441 12.3364 18.0589 12.3845C18.5859 12.526 18.5859 12.526 19.0922 12.4219C19.1959 12.2998 19.2747 12.1759 19.3568 12.0388C19.6624 11.7942 20.0112 11.7699 20.388 11.8044C20.746 11.887 21.0163 12.0696 21.2318 12.3669C21.4233 12.7385 21.4823 13.0713 21.3607 13.4744C21.216 13.8631 20.978 14.1119 20.6081 14.2956C20.267 14.4038 19.8429 14.3891 19.5179 14.239C19.1039 13.9925 19.0125 13.7287 18.8412 13.2576C17.8666 13.0951 17.8666 13.0951 16.8724 12.9294C16.8415 13.0841 16.8105 13.2388 16.7787 13.3982C16.7322 13.5254 16.6854 13.6449 16.6293 13.7673C16.6151 13.7991 16.6009 13.8308 16.5863 13.8635C16.4517 14.1584 16.2917 14.4343 16.1224 14.7107C16.1069 14.7416 16.0915 14.7726 16.0755 14.8044C16.1158 14.8357 16.1562 14.8669 16.1977 14.8991C16.5155 15.1466 16.829 15.3975 17.133 15.662C17.2888 15.7963 17.4415 15.9244 17.6224 16.0232C17.726 16.0056 17.726 16.0056 17.8158 15.9412C18.1083 15.7895 18.408 15.7808 18.7249 15.8683C19.0904 16.0165 19.347 16.2337 19.5102 16.5936C19.6429 16.9282 19.6395 17.2927 19.5179 17.6316C19.3646 17.9656 19.1208 18.2006 18.778 18.336C18.4023 18.4295 18.0066 18.4175 17.6612 18.2358C17.5351 18.1529 17.439 18.0597 17.3412 17.9451C17.3073 17.9074 17.2735 17.8697 17.2386 17.8308C17.0728 17.5964 17.0486 17.3778 17.0541 17.0955C17.0549 17.0393 17.0558 16.9831 17.0566 16.9252C17.0577 16.875 17.0588 16.8249 17.0599 16.7732C17.08 16.5917 17.08 16.5917 16.9907 16.5035C16.9575 16.4755 16.9242 16.4475 16.89 16.4187C16.8327 16.3702 16.8327 16.3702 16.7743 16.3207C16.5629 16.15 16.3493 15.9822 16.1349 15.8154C15.9699 15.6865 15.8107 15.5522 15.6537 15.4138C15.5006 15.4814 15.3944 15.5662 15.2728 15.6804C14.8752 16.0392 14.4395 16.2947 13.9662 16.5388C14.1416 17.0498 14.3211 17.5578 14.5224 18.0593C14.6224 18.3106 14.6224 18.3106 14.6224 18.4138C14.6746 18.4099 14.7268 18.4061 14.7806 18.4021C15.1126 18.4039 15.406 18.5274 15.6478 18.7537C15.9203 19.0564 16.0331 19.3655 16.0287 19.7732C16.0025 20.1037 15.8735 20.3698 15.6537 20.6169C15.2543 20.942 14.8915 20.9888 14.388 20.9451C14.0417 20.8474 13.7857 20.6356 13.5912 20.3357C13.4201 19.9918 13.3975 19.6416 13.5062 19.2751C13.5864 19.0574 13.7044 18.8025 13.9193 18.6951C13.8085 18.293 13.6615 17.9061 13.5121 17.5173C13.4879 17.454 13.4637 17.3906 13.4395 17.3273C13.3808 17.1738 13.322 17.0203 13.263 16.8669C13.0567 16.8912 12.8567 16.9197 12.6537 16.9636C12.1764 17.0471 11.6832 17.0152 11.2005 17.0076C11.1937 17.0676 11.1937 17.0676 11.1866 17.1288C11.1127 17.7469 11.016 18.3614 10.9193 18.9763C10.9626 19.0042 11.0059 19.032 11.0506 19.0607C11.3685 19.2792 11.5449 19.5345 11.6224 19.9138C11.6767 20.2893 11.5764 20.6523 11.3571 20.9608C11.1038 21.2407 10.8043 21.3768 10.4324 21.4297C10.0598 21.446 9.76029 21.338 9.47496 21.1003C9.17956 20.8168 9.06254 20.5481 9.0399 20.1388C9.05269 19.7569 9.19812 19.4349 9.46617 19.1638C9.69423 18.9816 9.88125 18.918 10.1693 18.8357C10.2776 18.186 10.3859 17.5363 10.4974 16.8669C10.3427 16.836 10.188 16.8051 10.0287 16.7732C9.90269 16.6706 9.90269 16.6706 9.84117 16.5388C9.83824 16.3689 9.83824 16.3689 9.88804 16.2107C9.98765 16.1169 9.98765 16.1169 10.1224 16.0701C10.3379 16.0924 10.5422 16.139 10.7523 16.1902C11.9605 16.4486 13.1761 16.1922 14.2123 15.5427C15.2618 14.8549 15.9241 13.8055 16.2103 12.5955C16.4195 11.4175 16.1965 10.1423 15.5079 9.15142C14.772 8.12751 13.7953 7.47193 12.5599 7.21069C12.5183 7.20175 12.4768 7.1928 12.4339 7.18359C11.7231 7.09305 10.9909 7.12466 10.3099 7.35131C10.2799 7.36111 10.2498 7.37091 10.2189 7.381C9.54436 7.608 8.99166 7.98212 8.48179 8.47631C8.4537 8.50097 8.4256 8.52562 8.39665 8.55102C7.69415 9.18996 7.21474 10.2845 7.16271 11.2196C7.11696 12.5741 7.41923 13.7713 8.34117 14.8044C8.37519 14.8429 8.40921 14.8813 8.44426 14.9209C8.69604 15.1889 8.96678 15.3912 9.27859 15.5826C9.55666 15.7563 9.55666 15.7563 9.60679 15.9294C9.59799 16.0732 9.58154 16.1747 9.50718 16.2986C9.36554 16.3836 9.24768 16.3874 9.09117 16.3513C8.91254 16.2684 8.74378 16.1723 8.57554 16.0701C8.56503 16.0951 8.55452 16.1201 8.54368 16.1459C8.46121 16.2947 8.35272 16.417 8.24156 16.5447C8.19494 16.599 8.14837 16.6534 8.10185 16.7078C8.07887 16.7347 8.05588 16.7615 8.0322 16.7892C7.90798 16.9355 7.78729 17.0842 7.66972 17.2359C7.59117 17.3357 7.59117 17.3357 7.51994 17.4106C7.45112 17.4819 7.45112 17.4819 7.40367 17.6169C7.43924 17.738 7.48927 17.8473 7.5421 17.9619C7.65483 18.2463 7.61665 18.5153 7.515 18.7976C7.34698 19.1718 7.12838 19.3877 6.74742 19.5388C6.3956 19.6561 6.01475 19.6132 5.6812 19.4601C5.406 19.2989 5.20857 19.0729 5.09086 18.7758C5.00977 18.4413 4.99132 18.046 5.13902 17.7283C5.23293 17.5755 5.34691 17.4541 5.48179 17.3357C5.5195 17.3019 5.5572 17.268 5.59605 17.2331C5.82155 17.0737 6.03582 17.0421 6.30797 17.0456C6.35981 17.046 6.41166 17.0463 6.46507 17.0466C6.58315 17.0531 6.6818 17.067 6.79429 17.1013C7.0614 16.8151 7.30901 16.5195 7.5489 16.2105C7.69834 16.0181 7.85195 15.831 8.01304 15.6482C7.94372 15.4882 7.85251 15.3834 7.73179 15.2585C7.37402 14.869 7.10136 14.419 6.84117 13.9607C6.7631 13.9905 6.7631 13.9905 6.68345 14.0209C6.4908 14.0945 6.29807 14.1678 6.10531 14.2411C6.02181 14.2728 5.93833 14.3047 5.85487 14.3366C5.73508 14.3823 5.61522 14.4279 5.49534 14.4734C5.45789 14.4877 5.42044 14.5021 5.38185 14.5169C5.11747 14.6169 5.11747 14.6169 5.01304 14.6169C5.01691 14.6604 5.02078 14.7039 5.02476 14.7488C5.02275 15.0791 4.89935 15.4046 4.6732 15.6453C4.39601 15.8933 4.10316 16.0066 3.7357 16.0349C3.33466 16.0082 3.00944 15.8548 2.73082 15.5632C2.50645 15.254 2.40942 14.936 2.44499 14.5563C2.51721 14.1567 2.71699 13.8664 3.0443 13.6326C3.36955 13.4467 3.69736 13.386 4.06383 13.4771C4.35515 13.5725 4.53452 13.6792 4.7318 13.9138C5.13385 13.803 5.52077 13.6561 5.90953 13.5066C5.97288 13.4824 6.03623 13.4582 6.09959 13.434C6.2531 13.3754 6.40653 13.3165 6.55992 13.2576C6.5537 13.2208 6.54747 13.184 6.54106 13.1461C6.5239 13.044 6.50694 12.9419 6.49015 12.8397C6.47322 12.7376 6.45544 12.6356 6.43706 12.5337C6.40963 12.2762 6.41445 12.0193 6.41637 11.7605C6.41658 11.7061 6.41679 11.6517 6.41701 11.5956C6.41756 11.4621 6.41832 11.3286 6.41929 11.1951C6.39088 11.1931 6.36246 11.1911 6.33318 11.189C5.93338 11.1572 5.54014 11.0937 5.14488 11.0281C5.07723 11.017 5.00957 11.0059 4.94191 10.9948C4.77809 10.968 4.61431 10.941 4.45055 10.9138C4.42116 10.9585 4.39177 11.0032 4.3615 11.0492C4.14795 11.3656 3.88844 11.5425 3.51305 11.6169C3.09679 11.6708 2.76632 11.5554 2.42027 11.3269C2.10479 10.9967 1.99426 10.6535 2.00023 10.2048C2.03599 9.82881 2.25037 9.51927 2.52867 9.27319C2.86145 9.03356 3.25929 9.04211 3.65367 9.08569C3.79699 9.12844 3.90766 9.18628 4.02867 9.27319C4.07024 9.30026 4.11181 9.32733 4.15465 9.35522C4.41493 9.60847 4.52498 9.85009 4.5443 10.2107C4.57606 10.2127 4.60783 10.2147 4.64056 10.2167C5.05422 10.2465 5.45995 10.3094 5.86851 10.3777C5.93595 10.3888 6.0034 10.3999 6.07085 10.4109C6.23391 10.4377 6.39693 10.4647 6.55992 10.4919C6.56656 10.4414 6.57321 10.3908 6.58005 10.3387C6.60855 10.1524 6.66039 9.98466 6.72691 9.80932C6.73894 9.77713 6.75098 9.74494 6.76337 9.71177C6.87689 9.42017 7.02612 9.15843 7.1909 8.89306C7.27773 8.75556 7.27773 8.75556 7.26304 8.57006C7.17718 8.48206 7.09509 8.40862 6.99937 8.33276C6.95877 8.29954 6.95877 8.29954 6.91735 8.26565C6.82999 8.19455 6.74194 8.1244 6.65367 8.05444C6.609 8.01883 6.609 8.01883 6.56342 7.9825C6.31472 7.78454 6.06506 7.58783 5.80992 7.39819C5.76738 7.42042 5.72484 7.44266 5.68101 7.46557C5.37607 7.61218 5.03872 7.64462 4.70964 7.55365C4.32593 7.39503 4.06757 7.16167 3.88805 6.78881C3.78242 6.4548 3.78795 6.06218 3.93199 5.74292C4.09454 5.45983 4.32798 5.21869 4.63164 5.09234C5.03168 4.98922 5.44094 5.00288 5.80113 5.21319C6.08404 5.42184 6.30669 5.68724 6.37242 6.03881C6.39123 6.31101 6.38598 6.5691 6.32554 6.83569C6.3653 6.86638 6.40506 6.89708 6.44603 6.92871C6.77854 7.187 7.10388 7.45035 7.41733 7.73167C7.56167 7.85871 7.68817 7.94958 7.87242 8.00756C7.91206 7.96406 7.9517 7.92055 7.99254 7.87573C8.16197 7.70664 8.34534 7.56352 8.53746 7.42163C8.56496 7.40109 8.59245 7.38056 8.62078 7.3594C8.88996 7.16371 9.1772 7.00018 9.46617 6.83569C9.43635 6.75762 9.43635 6.75762 9.40593 6.67797C9.33239 6.48531 9.25906 6.29259 9.18579 6.09983C9.15402 6.01633 9.12219 5.93285 9.0903 5.84939C9.04455 5.7296 8.99899 5.60974 8.95347 5.48986C8.93912 5.45241 8.92476 5.41496 8.90998 5.37637C8.80992 5.11199 8.80992 5.11199 8.80992 5.00756C8.75771 5.01143 8.70551 5.0153 8.65172 5.01928C8.34888 5.01928 8.08774 4.89571 7.83433 4.73803C7.55775 4.45355 7.40775 4.12547 7.38609 3.72729C7.39572 3.37389 7.5443 3.03803 7.78801 2.78283C8.1191 2.49986 8.44343 2.43771 8.87419 2.45379C9.20341 2.49738 9.44895 2.62554 9.67418 2.86889C9.92125 3.19344 10.004 3.54365 9.97337 3.94628C9.93164 4.19325 9.83419 4.35624 9.67418 4.54705C9.57404 4.67255 9.57404 4.67255 9.51304 4.82006C9.54741 4.95153 9.58597 5.06836 9.63554 5.19397C9.65586 5.24786 9.65586 5.24786 9.67659 5.30284C9.72004 5.41757 9.76448 5.53189 9.80894 5.64624C9.8384 5.7236 9.86778 5.801 9.89711 5.87841C10.0221 6.22127 10.0221 6.22127 10.1693 6.55444C10.4134 6.52702 10.4134 6.52702 10.6549 6.48358C11.1739 6.37532 11.7043 6.4055 12.2318 6.41381C12.2341 6.38356 12.2363 6.35331 12.2386 6.32214C12.2712 5.92473 12.3348 5.53524 12.4018 5.14242C12.4101 5.09278 12.4183 5.04314 12.4268 4.992C12.4344 4.94766 12.4419 4.90332 12.4497 4.85763C12.4673 4.71727 12.4753 4.58633 12.4662 4.44506C12.3709 4.33657 12.3709 4.33657 12.2435 4.24585C11.9614 4.00687 11.838 3.79077 11.7944 3.42334C11.7789 3.00937 11.8917 2.69857 12.1468 2.37451C12.6312 1.88596 13.3169 1.90761 13.8728 2.25366ZM12.5658 3.00659C12.4966 3.17189 12.4912 3.28275 12.513 3.46069C12.6027 3.64708 12.6765 3.72714 12.8529 3.83569C13.068 3.89305 13.204 3.88655 13.4037 3.78881C13.5417 3.67093 13.6211 3.58514 13.6604 3.40521C13.6728 3.21185 13.6539 3.07869 13.5326 2.92456C13.3741 2.77685 13.2947 2.72093 13.0814 2.69311C12.8496 2.72093 12.711 2.82753 12.5658 3.00659ZM8.13316 3.49877C8.0909 3.66312 8.10915 3.8152 8.15367 3.97631C8.25788 4.14161 8.3486 4.23182 8.52867 4.30444C8.75144 4.31998 8.91032 4.28838 9.08824 4.1521C9.21812 3.97892 9.28039 3.86978 9.27574 3.65112C9.2177 3.46153 9.13406 3.36962 8.99742 3.22631C8.63985 3.04753 8.35848 3.21467 8.13316 3.49877ZM16.5912 4.82006C16.5158 4.97077 16.5221 5.12536 16.5443 5.28881C16.6197 5.43429 16.6851 5.53336 16.8138 5.63452C17.0583 5.70244 17.231 5.69665 17.4525 5.58178C17.6397 5.42134 17.6643 5.35156 17.6839 5.10424C17.6787 4.92704 17.6442 4.81885 17.5287 4.67944C17.37 4.54796 17.2234 4.50887 17.0162 4.51556C16.8356 4.55891 16.7123 4.68449 16.5912 4.82006ZM4.57359 6.0271C4.51609 6.23411 4.49494 6.4096 4.59245 6.60314C4.71902 6.77354 4.82771 6.8555 5.03941 6.88842C5.27134 6.897 5.39106 6.81971 5.56383 6.67163C5.69773 6.51094 5.68613 6.3312 5.66929 6.13256C5.59368 5.98943 5.52724 5.88702 5.39976 5.78686C5.06326 5.69339 4.79656 5.74331 4.57359 6.0271ZM19.3099 8.24194C19.1792 8.39334 19.1273 8.4888 19.099 8.68725C19.1273 8.8857 19.1792 8.98116 19.3099 9.13256C19.47 9.24287 19.5604 9.27319 19.7552 9.27319C19.9617 9.2142 20.0493 9.14313 20.2005 8.99194C20.2589 8.81682 20.278 8.65789 20.2474 8.47631C20.1636 8.31737 20.0518 8.21589 19.8929 8.13061C19.6547 8.06953 19.5127 8.11518 19.3099 8.24194ZM2.8568 9.92944C2.73421 10.1197 2.6833 10.2665 2.71617 10.4919C2.82251 10.6928 2.92265 10.8324 3.13804 10.9138C3.32987 10.9319 3.48864 10.9161 3.64964 10.805C3.79332 10.6586 3.86017 10.5307 3.8734 10.3249C3.85815 10.0963 3.76996 9.99108 3.6068 9.83569C3.36845 9.71652 3.05393 9.75549 2.8568 9.92944ZM19.6706 12.719C19.573 12.8689 19.5446 12.9615 19.5414 13.1433C19.6034 13.3442 19.6793 13.4359 19.8255 13.5857C19.9892 13.6675 20.1626 13.6593 20.3412 13.6326C20.4994 13.5523 20.5979 13.4387 20.6898 13.2869C20.7376 13.0638 20.7074 12.897 20.5873 12.7039C20.4444 12.5649 20.3292 12.518 20.1332 12.4929C19.9439 12.516 19.7978 12.5717 19.6706 12.719ZM3.37242 14.2888C3.23026 14.4348 3.14297 14.5508 3.13804 14.7576C3.21372 14.9972 3.29477 15.1442 3.51305 15.2732C3.70842 15.3311 3.83649 15.3378 4.01695 15.2468C4.17799 15.1405 4.25224 15.0388 4.30992 14.8513C4.32347 14.6358 4.29109 14.5112 4.15465 14.3415C3.87462 14.1201 3.68837 14.0979 3.37242 14.2888ZM17.9037 16.6794C17.7693 16.8416 17.738 16.9842 17.7464 17.1952C17.7802 17.385 17.8838 17.5176 18.0326 17.6345C18.1975 17.6803 18.3461 17.7004 18.513 17.6638C18.6688 17.5665 18.8052 17.4545 18.888 17.2888C18.9095 17.0043 18.8604 16.8582 18.6771 16.6443C18.446 16.4517 18.1233 16.5025 17.9037 16.6794ZM5.85679 17.9451C5.73045 18.1346 5.7319 18.285 5.76304 18.5076C5.83905 18.6569 5.90242 18.7523 6.03551 18.8533C6.23326 18.9098 6.402 18.9094 6.59215 18.8298C6.75567 18.6972 6.87388 18.5752 6.90068 18.3585C6.89329 18.1494 6.84909 18.0188 6.69762 17.8718C6.5734 17.7804 6.47686 17.7375 6.32262 17.7283C6.11809 17.7607 6.01488 17.8133 5.85679 17.9451ZM14.2943 19.3044C14.184 19.4646 14.1537 19.555 14.1537 19.7498C14.2123 19.9549 14.2867 20.0433 14.4349 20.1951C14.599 20.2771 14.7716 20.2678 14.9505 20.2419C15.1364 20.1338 15.2391 20.0308 15.308 19.8289C15.3438 19.6357 15.2986 19.5045 15.2007 19.3372C15.0692 19.17 14.9199 19.1261 14.7162 19.0964C14.5312 19.1234 14.4368 19.1841 14.2943 19.3044ZM9.8734 19.7878C9.77993 19.9367 9.74742 20.0186 9.74742 20.1951C9.81046 20.401 9.89075 20.5369 10.0638 20.6667C10.2558 20.7221 10.4002 20.7217 10.5912 20.6638C10.7308 20.5788 10.8052 20.5097 10.89 20.3708C10.9306 20.1922 10.9355 20.0386 10.8724 19.8669C10.7417 19.7003 10.5998 19.605 10.4007 19.5359C10.1701 19.5408 10.0341 19.6271 9.8734 19.7878Z"/>
</mask>
<path d="M13.8728 2.25366C14.109 2.4336 14.2557 2.66162 14.3412 2.94506C14.3941 3.39363 14.3554 3.75072 14.098 4.12573C13.8292 4.39457 13.5966 4.51844 13.2162 4.53881C13.2142 4.57058 13.2122 4.60235 13.2101 4.63508C13.1803 5.04874 13.1174 5.45447 13.0492 5.86303C13.0381 5.93047 13.027 5.99792 13.0159 6.06536C12.9892 6.22843 12.9621 6.39145 12.9349 6.55444C12.9645 6.55947 12.994 6.56451 13.0245 6.56969C13.2905 6.61838 13.5272 6.68508 13.7728 6.7976C13.8045 6.81175 13.8363 6.82589 13.869 6.84046C14.1271 6.95809 14.3692 7.0947 14.6103 7.2442C14.7095 7.31217 14.7095 7.31217 14.8099 7.30444C14.8987 7.21067 14.9821 7.11626 15.0648 7.01733C15.0895 6.98813 15.1143 6.95893 15.1398 6.92884C15.3404 6.69037 15.5343 6.44679 15.725 6.20029C15.8069 6.09441 15.887 5.99297 15.9818 5.89819C15.9675 5.76933 15.9348 5.66344 15.8851 5.5437C15.7856 5.17871 15.8029 4.80577 15.9604 4.46026C16.1342 4.18299 16.4053 3.95067 16.7214 3.85455C17.1263 3.78124 17.4984 3.81389 17.8568 4.02319C18.1375 4.2263 18.293 4.48456 18.3724 4.82006C18.4255 5.22763 18.3828 5.56181 18.138 5.89819C17.8958 6.16627 17.6411 6.35442 17.2751 6.37664C17.0395 6.37932 16.8192 6.38182 16.5912 6.32006C16.5749 6.34008 16.5587 6.3601 16.5419 6.38073C16.4656 6.47477 16.3892 6.56881 16.3128 6.66284C16.2852 6.69687 16.2576 6.73091 16.2291 6.76597C16.035 7.00491 15.8401 7.24324 15.6445 7.48095C15.5671 7.5768 15.4925 7.67409 15.4193 7.77319C15.4961 7.95717 15.6226 8.092 15.7533 8.23901C16.0788 8.61388 16.3235 9.0157 16.5443 9.46069C16.5844 9.44581 16.6246 9.43092 16.6659 9.41559C16.817 9.35965 16.9682 9.30384 17.1194 9.24811C17.1844 9.22412 17.2494 9.20007 17.3144 9.17597C17.6794 9.04062 18.0439 8.90899 18.4193 8.80444C18.4154 8.75223 18.4116 8.70002 18.4076 8.64623C18.4076 8.3434 18.5312 8.08226 18.6888 7.82885C18.9667 7.55867 19.2774 7.40501 19.6661 7.39508C20.0639 7.41354 20.4145 7.53839 20.6898 7.83471C20.9579 8.18941 20.9989 8.55345 20.9505 8.99194C20.8645 9.30299 20.6978 9.59357 20.4161 9.76263C20.0686 9.9417 19.7583 10.0444 19.3683 9.94262C19.102 9.85276 18.8975 9.75668 18.7005 9.55444C18.7005 9.5235 18.7005 9.49256 18.7005 9.46069C18.0973 9.69272 17.494 9.92475 16.8724 10.1638C16.8724 10.3193 16.8904 10.4459 16.9224 10.5965C17.0352 11.1387 17.0273 11.6748 17.013 12.2263C17.0536 12.2309 17.0941 12.2355 17.1359 12.2402C17.1949 12.2472 17.254 12.2542 17.3148 12.2615C17.3473 12.265 17.3798 12.2686 17.4133 12.2723C17.6319 12.2981 17.8441 12.3364 18.0589 12.3845C18.5859 12.526 18.5859 12.526 19.0922 12.4219C19.1959 12.2998 19.2747 12.1759 19.3568 12.0388C19.6624 11.7942 20.0112 11.7699 20.388 11.8044C20.746 11.887 21.0163 12.0696 21.2318 12.3669C21.4233 12.7385 21.4823 13.0713 21.3607 13.4744C21.216 13.8631 20.978 14.1119 20.6081 14.2956C20.267 14.4038 19.8429 14.3891 19.5179 14.239C19.1039 13.9925 19.0125 13.7287 18.8412 13.2576C17.8666 13.0951 17.8666 13.0951 16.8724 12.9294C16.8415 13.0841 16.8105 13.2388 16.7787 13.3982C16.7322 13.5254 16.6854 13.6449 16.6293 13.7673C16.6151 13.7991 16.6009 13.8308 16.5863 13.8635C16.4517 14.1584 16.2917 14.4343 16.1224 14.7107C16.1069 14.7416 16.0915 14.7726 16.0755 14.8044C16.1158 14.8357 16.1562 14.8669 16.1977 14.8991C16.5155 15.1466 16.829 15.3975 17.133 15.662C17.2888 15.7963 17.4415 15.9244 17.6224 16.0232C17.726 16.0056 17.726 16.0056 17.8158 15.9412C18.1083 15.7895 18.408 15.7808 18.7249 15.8683C19.0904 16.0165 19.347 16.2337 19.5102 16.5936C19.6429 16.9282 19.6395 17.2927 19.5179 17.6316C19.3646 17.9656 19.1208 18.2006 18.778 18.336C18.4023 18.4295 18.0066 18.4175 17.6612 18.2358C17.5351 18.1529 17.439 18.0597 17.3412 17.9451C17.3073 17.9074 17.2735 17.8697 17.2386 17.8308C17.0728 17.5964 17.0486 17.3778 17.0541 17.0955C17.0549 17.0393 17.0558 16.9831 17.0566 16.9252C17.0577 16.875 17.0588 16.8249 17.0599 16.7732C17.08 16.5917 17.08 16.5917 16.9907 16.5035C16.9575 16.4755 16.9242 16.4475 16.89 16.4187C16.8327 16.3702 16.8327 16.3702 16.7743 16.3207C16.5629 16.15 16.3493 15.9822 16.1349 15.8154C15.9699 15.6865 15.8107 15.5522 15.6537 15.4138C15.5006 15.4814 15.3944 15.5662 15.2728 15.6804C14.8752 16.0392 14.4395 16.2947 13.9662 16.5388C14.1416 17.0498 14.3211 17.5578 14.5224 18.0593C14.6224 18.3106 14.6224 18.3106 14.6224 18.4138C14.6746 18.4099 14.7268 18.4061 14.7806 18.4021C15.1126 18.4039 15.406 18.5274 15.6478 18.7537C15.9203 19.0564 16.0331 19.3655 16.0287 19.7732C16.0025 20.1037 15.8735 20.3698 15.6537 20.6169C15.2543 20.942 14.8915 20.9888 14.388 20.9451C14.0417 20.8474 13.7857 20.6356 13.5912 20.3357C13.4201 19.9918 13.3975 19.6416 13.5062 19.2751C13.5864 19.0574 13.7044 18.8025 13.9193 18.6951C13.8085 18.293 13.6615 17.9061 13.5121 17.5173C13.4879 17.454 13.4637 17.3906 13.4395 17.3273C13.3808 17.1738 13.322 17.0203 13.263 16.8669C13.0567 16.8912 12.8567 16.9197 12.6537 16.9636C12.1764 17.0471 11.6832 17.0152 11.2005 17.0076C11.1937 17.0676 11.1937 17.0676 11.1866 17.1288C11.1127 17.7469 11.016 18.3614 10.9193 18.9763C10.9626 19.0042 11.0059 19.032 11.0506 19.0607C11.3685 19.2792 11.5449 19.5345 11.6224 19.9138C11.6767 20.2893 11.5764 20.6523 11.3571 20.9608C11.1038 21.2407 10.8043 21.3768 10.4324 21.4297C10.0598 21.446 9.76029 21.338 9.47496 21.1003C9.17956 20.8168 9.06254 20.5481 9.0399 20.1388C9.05269 19.7569 9.19812 19.4349 9.46617 19.1638C9.69423 18.9816 9.88125 18.918 10.1693 18.8357C10.2776 18.186 10.3859 17.5363 10.4974 16.8669C10.3427 16.836 10.188 16.8051 10.0287 16.7732C9.90269 16.6706 9.90269 16.6706 9.84117 16.5388C9.83824 16.3689 9.83824 16.3689 9.88804 16.2107C9.98765 16.1169 9.98765 16.1169 10.1224 16.0701C10.3379 16.0924 10.5422 16.139 10.7523 16.1902C11.9605 16.4486 13.1761 16.1922 14.2123 15.5427C15.2618 14.8549 15.9241 13.8055 16.2103 12.5955C16.4195 11.4175 16.1965 10.1423 15.5079 9.15142C14.772 8.12751 13.7953 7.47193 12.5599 7.21069C12.5183 7.20175 12.4768 7.1928 12.4339 7.18359C11.7231 7.09305 10.9909 7.12466 10.3099 7.35131C10.2799 7.36111 10.2498 7.37091 10.2189 7.381C9.54436 7.608 8.99166 7.98212 8.48179 8.47631C8.4537 8.50097 8.4256 8.52562 8.39665 8.55102C7.69415 9.18996 7.21474 10.2845 7.16271 11.2196C7.11696 12.5741 7.41923 13.7713 8.34117 14.8044C8.37519 14.8429 8.40921 14.8813 8.44426 14.9209C8.69604 15.1889 8.96678 15.3912 9.27859 15.5826C9.55666 15.7563 9.55666 15.7563 9.60679 15.9294C9.59799 16.0732 9.58154 16.1747 9.50718 16.2986C9.36554 16.3836 9.24768 16.3874 9.09117 16.3513C8.91254 16.2684 8.74378 16.1723 8.57554 16.0701C8.56503 16.0951 8.55452 16.1201 8.54368 16.1459C8.46121 16.2947 8.35272 16.417 8.24156 16.5447C8.19494 16.599 8.14837 16.6534 8.10185 16.7078C8.07887 16.7347 8.05588 16.7615 8.0322 16.7892C7.90798 16.9355 7.78729 17.0842 7.66972 17.2359C7.59117 17.3357 7.59117 17.3357 7.51994 17.4106C7.45112 17.4819 7.45112 17.4819 7.40367 17.6169C7.43924 17.738 7.48927 17.8473 7.5421 17.9619C7.65483 18.2463 7.61665 18.5153 7.515 18.7976C7.34698 19.1718 7.12838 19.3877 6.74742 19.5388C6.3956 19.6561 6.01475 19.6132 5.6812 19.4601C5.406 19.2989 5.20857 19.0729 5.09086 18.7758C5.00977 18.4413 4.99132 18.046 5.13902 17.7283C5.23293 17.5755 5.34691 17.4541 5.48179 17.3357C5.5195 17.3019 5.5572 17.268 5.59605 17.2331C5.82155 17.0737 6.03582 17.0421 6.30797 17.0456C6.35981 17.046 6.41166 17.0463 6.46507 17.0466C6.58315 17.0531 6.6818 17.067 6.79429 17.1013C7.0614 16.8151 7.30901 16.5195 7.5489 16.2105C7.69834 16.0181 7.85195 15.831 8.01304 15.6482C7.94372 15.4882 7.85251 15.3834 7.73179 15.2585C7.37402 14.869 7.10136 14.419 6.84117 13.9607C6.7631 13.9905 6.7631 13.9905 6.68345 14.0209C6.4908 14.0945 6.29807 14.1678 6.10531 14.2411C6.02181 14.2728 5.93833 14.3047 5.85487 14.3366C5.73508 14.3823 5.61522 14.4279 5.49534 14.4734C5.45789 14.4877 5.42044 14.5021 5.38185 14.5169C5.11747 14.6169 5.11747 14.6169 5.01304 14.6169C5.01691 14.6604 5.02078 14.7039 5.02476 14.7488C5.02275 15.0791 4.89935 15.4046 4.6732 15.6453C4.39601 15.8933 4.10316 16.0066 3.7357 16.0349C3.33466 16.0082 3.00944 15.8548 2.73082 15.5632C2.50645 15.254 2.40942 14.936 2.44499 14.5563C2.51721 14.1567 2.71699 13.8664 3.0443 13.6326C3.36955 13.4467 3.69736 13.386 4.06383 13.4771C4.35515 13.5725 4.53452 13.6792 4.7318 13.9138C5.13385 13.803 5.52077 13.6561 5.90953 13.5066C5.97288 13.4824 6.03623 13.4582 6.09959 13.434C6.2531 13.3754 6.40653 13.3165 6.55992 13.2576C6.5537 13.2208 6.54747 13.184 6.54106 13.1461C6.5239 13.044 6.50694 12.9419 6.49015 12.8397C6.47322 12.7376 6.45544 12.6356 6.43706 12.5337C6.40963 12.2762 6.41445 12.0193 6.41637 11.7605C6.41658 11.7061 6.41679 11.6517 6.41701 11.5956C6.41756 11.4621 6.41832 11.3286 6.41929 11.1951C6.39088 11.1931 6.36246 11.1911 6.33318 11.189C5.93338 11.1572 5.54014 11.0937 5.14488 11.0281C5.07723 11.017 5.00957 11.0059 4.94191 10.9948C4.77809 10.968 4.61431 10.941 4.45055 10.9138C4.42116 10.9585 4.39177 11.0032 4.3615 11.0492C4.14795 11.3656 3.88844 11.5425 3.51305 11.6169C3.09679 11.6708 2.76632 11.5554 2.42027 11.3269C2.10479 10.9967 1.99426 10.6535 2.00023 10.2048C2.03599 9.82881 2.25037 9.51927 2.52867 9.27319C2.86145 9.03356 3.25929 9.04211 3.65367 9.08569C3.79699 9.12844 3.90766 9.18628 4.02867 9.27319C4.07024 9.30026 4.11181 9.32733 4.15465 9.35522C4.41493 9.60847 4.52498 9.85009 4.5443 10.2107C4.57606 10.2127 4.60783 10.2147 4.64056 10.2167C5.05422 10.2465 5.45995 10.3094 5.86851 10.3777C5.93595 10.3888 6.0034 10.3999 6.07085 10.4109C6.23391 10.4377 6.39693 10.4647 6.55992 10.4919C6.56656 10.4414 6.57321 10.3908 6.58005 10.3387C6.60855 10.1524 6.66039 9.98466 6.72691 9.80932C6.73894 9.77713 6.75098 9.74494 6.76337 9.71177C6.87689 9.42017 7.02612 9.15843 7.1909 8.89306C7.27773 8.75556 7.27773 8.75556 7.26304 8.57006C7.17718 8.48206 7.09509 8.40862 6.99937 8.33276C6.95877 8.29954 6.95877 8.29954 6.91735 8.26565C6.82999 8.19455 6.74194 8.1244 6.65367 8.05444C6.609 8.01883 6.609 8.01883 6.56342 7.9825C6.31472 7.78454 6.06506 7.58783 5.80992 7.39819C5.76738 7.42042 5.72484 7.44266 5.68101 7.46557C5.37607 7.61218 5.03872 7.64462 4.70964 7.55365C4.32593 7.39503 4.06757 7.16167 3.88805 6.78881C3.78242 6.4548 3.78795 6.06218 3.93199 5.74292C4.09454 5.45983 4.32798 5.21869 4.63164 5.09234C5.03168 4.98922 5.44094 5.00288 5.80113 5.21319C6.08404 5.42184 6.30669 5.68724 6.37242 6.03881C6.39123 6.31101 6.38598 6.5691 6.32554 6.83569C6.3653 6.86638 6.40506 6.89708 6.44603 6.92871C6.77854 7.187 7.10388 7.45035 7.41733 7.73167C7.56167 7.85871 7.68817 7.94958 7.87242 8.00756C7.91206 7.96406 7.9517 7.92055 7.99254 7.87573C8.16197 7.70664 8.34534 7.56352 8.53746 7.42163C8.56496 7.40109 8.59245 7.38056 8.62078 7.3594C8.88996 7.16371 9.1772 7.00018 9.46617 6.83569C9.43635 6.75762 9.43635 6.75762 9.40593 6.67797C9.33239 6.48531 9.25906 6.29259 9.18579 6.09983C9.15402 6.01633 9.12219 5.93285 9.0903 5.84939C9.04455 5.7296 8.99899 5.60974 8.95347 5.48986C8.93912 5.45241 8.92476 5.41496 8.90998 5.37637C8.80992 5.11199 8.80992 5.11199 8.80992 5.00756C8.75771 5.01143 8.70551 5.0153 8.65172 5.01928C8.34888 5.01928 8.08774 4.89571 7.83433 4.73803C7.55775 4.45355 7.40775 4.12547 7.38609 3.72729C7.39572 3.37389 7.5443 3.03803 7.78801 2.78283C8.1191 2.49986 8.44343 2.43771 8.87419 2.45379C9.20341 2.49738 9.44895 2.62554 9.67418 2.86889C9.92125 3.19344 10.004 3.54365 9.97337 3.94628C9.93164 4.19325 9.83419 4.35624 9.67418 4.54705C9.57404 4.67255 9.57404 4.67255 9.51304 4.82006C9.54741 4.95153 9.58597 5.06836 9.63554 5.19397C9.65586 5.24786 9.65586 5.24786 9.67659 5.30284C9.72004 5.41757 9.76448 5.53189 9.80894 5.64624C9.8384 5.7236 9.86778 5.801 9.89711 5.87841C10.0221 6.22127 10.0221 6.22127 10.1693 6.55444C10.4134 6.52702 10.4134 6.52702 10.6549 6.48358C11.1739 6.37532 11.7043 6.4055 12.2318 6.41381C12.2341 6.38356 12.2363 6.35331 12.2386 6.32214C12.2712 5.92473 12.3348 5.53524 12.4018 5.14242C12.4101 5.09278 12.4183 5.04314 12.4268 4.992C12.4344 4.94766 12.4419 4.90332 12.4497 4.85763C12.4673 4.71727 12.4753 4.58633 12.4662 4.44506C12.3709 4.33657 12.3709 4.33657 12.2435 4.24585C11.9614 4.00687 11.838 3.79077 11.7944 3.42334C11.7789 3.00937 11.8917 2.69857 12.1468 2.37451C12.6312 1.88596 13.3169 1.90761 13.8728 2.25366ZM12.5658 3.00659C12.4966 3.17189 12.4912 3.28275 12.513 3.46069C12.6027 3.64708 12.6765 3.72714 12.8529 3.83569C13.068 3.89305 13.204 3.88655 13.4037 3.78881C13.5417 3.67093 13.6211 3.58514 13.6604 3.40521C13.6728 3.21185 13.6539 3.07869 13.5326 2.92456C13.3741 2.77685 13.2947 2.72093 13.0814 2.69311C12.8496 2.72093 12.711 2.82753 12.5658 3.00659ZM8.13316 3.49877C8.0909 3.66312 8.10915 3.8152 8.15367 3.97631C8.25788 4.14161 8.3486 4.23182 8.52867 4.30444C8.75144 4.31998 8.91032 4.28838 9.08824 4.1521C9.21812 3.97892 9.28039 3.86978 9.27574 3.65112C9.2177 3.46153 9.13406 3.36962 8.99742 3.22631C8.63985 3.04753 8.35848 3.21467 8.13316 3.49877ZM16.5912 4.82006C16.5158 4.97077 16.5221 5.12536 16.5443 5.28881C16.6197 5.43429 16.6851 5.53336 16.8138 5.63452C17.0583 5.70244 17.231 5.69665 17.4525 5.58178C17.6397 5.42134 17.6643 5.35156 17.6839 5.10424C17.6787 4.92704 17.6442 4.81885 17.5287 4.67944C17.37 4.54796 17.2234 4.50887 17.0162 4.51556C16.8356 4.55891 16.7123 4.68449 16.5912 4.82006ZM4.57359 6.0271C4.51609 6.23411 4.49494 6.4096 4.59245 6.60314C4.71902 6.77354 4.82771 6.8555 5.03941 6.88842C5.27134 6.897 5.39106 6.81971 5.56383 6.67163C5.69773 6.51094 5.68613 6.3312 5.66929 6.13256C5.59368 5.98943 5.52724 5.88702 5.39976 5.78686C5.06326 5.69339 4.79656 5.74331 4.57359 6.0271ZM19.3099 8.24194C19.1792 8.39334 19.1273 8.4888 19.099 8.68725C19.1273 8.8857 19.1792 8.98116 19.3099 9.13256C19.47 9.24287 19.5604 9.27319 19.7552 9.27319C19.9617 9.2142 20.0493 9.14313 20.2005 8.99194C20.2589 8.81682 20.278 8.65789 20.2474 8.47631C20.1636 8.31737 20.0518 8.21589 19.8929 8.13061C19.6547 8.06953 19.5127 8.11518 19.3099 8.24194ZM2.8568 9.92944C2.73421 10.1197 2.6833 10.2665 2.71617 10.4919C2.82251 10.6928 2.92265 10.8324 3.13804 10.9138C3.32987 10.9319 3.48864 10.9161 3.64964 10.805C3.79332 10.6586 3.86017 10.5307 3.8734 10.3249C3.85815 10.0963 3.76996 9.99108 3.6068 9.83569C3.36845 9.71652 3.05393 9.75549 2.8568 9.92944ZM19.6706 12.719C19.573 12.8689 19.5446 12.9615 19.5414 13.1433C19.6034 13.3442 19.6793 13.4359 19.8255 13.5857C19.9892 13.6675 20.1626 13.6593 20.3412 13.6326C20.4994 13.5523 20.5979 13.4387 20.6898 13.2869C20.7376 13.0638 20.7074 12.897 20.5873 12.7039C20.4444 12.5649 20.3292 12.518 20.1332 12.4929C19.9439 12.516 19.7978 12.5717 19.6706 12.719ZM3.37242 14.2888C3.23026 14.4348 3.14297 14.5508 3.13804 14.7576C3.21372 14.9972 3.29477 15.1442 3.51305 15.2732C3.70842 15.3311 3.83649 15.3378 4.01695 15.2468C4.17799 15.1405 4.25224 15.0388 4.30992 14.8513C4.32347 14.6358 4.29109 14.5112 4.15465 14.3415C3.87462 14.1201 3.68837 14.0979 3.37242 14.2888ZM17.9037 16.6794C17.7693 16.8416 17.738 16.9842 17.7464 17.1952C17.7802 17.385 17.8838 17.5176 18.0326 17.6345C18.1975 17.6803 18.3461 17.7004 18.513 17.6638C18.6688 17.5665 18.8052 17.4545 18.888 17.2888C18.9095 17.0043 18.8604 16.8582 18.6771 16.6443C18.446 16.4517 18.1233 16.5025 17.9037 16.6794ZM5.85679 17.9451C5.73045 18.1346 5.7319 18.285 5.76304 18.5076C5.83905 18.6569 5.90242 18.7523 6.03551 18.8533C6.23326 18.9098 6.402 18.9094 6.59215 18.8298C6.75567 18.6972 6.87388 18.5752 6.90068 18.3585C6.89329 18.1494 6.84909 18.0188 6.69762 17.8718C6.5734 17.7804 6.47686 17.7375 6.32262 17.7283C6.11809 17.7607 6.01488 17.8133 5.85679 17.9451ZM14.2943 19.3044C14.184 19.4646 14.1537 19.555 14.1537 19.7498C14.2123 19.9549 14.2867 20.0433 14.4349 20.1951C14.599 20.2771 14.7716 20.2678 14.9505 20.2419C15.1364 20.1338 15.2391 20.0308 15.308 19.8289C15.3438 19.6357 15.2986 19.5045 15.2007 19.3372C15.0692 19.17 14.9199 19.1261 14.7162 19.0964C14.5312 19.1234 14.4368 19.1841 14.2943 19.3044ZM9.8734 19.7878C9.77993 19.9367 9.74742 20.0186 9.74742 20.1951C9.81046 20.401 9.89075 20.5369 10.0638 20.6667C10.2558 20.7221 10.4002 20.7217 10.5912 20.6638C10.7308 20.5788 10.8052 20.5097 10.89 20.3708C10.9306 20.1922 10.9355 20.0386 10.8724 19.8669C10.7417 19.7003 10.5998 19.605 10.4007 19.5359C10.1701 19.5408 10.0341 19.6271 9.8734 19.7878Z" fill="#005F73"/>
<path d="M13.8728 2.25366C14.109 2.4336 14.2557 2.66162 14.3412 2.94506C14.3941 3.39363 14.3554 3.75072 14.098 4.12573C13.8292 4.39457 13.5966 4.51844 13.2162 4.53881C13.2142 4.57058 13.2122 4.60235 13.2101 4.63508C13.1803 5.04874 13.1174 5.45447 13.0492 5.86303C13.0381 5.93047 13.027 5.99792 13.0159 6.06536C12.9892 6.22843 12.9621 6.39145 12.9349 6.55444C12.9645 6.55947 12.994 6.56451 13.0245 6.56969C13.2905 6.61838 13.5272 6.68508 13.7728 6.7976C13.8045 6.81175 13.8363 6.82589 13.869 6.84046C14.1271 6.95809 14.3692 7.0947 14.6103 7.2442C14.7095 7.31217 14.7095 7.31217 14.8099 7.30444C14.8987 7.21067 14.9821 7.11626 15.0648 7.01733C15.0895 6.98813 15.1143 6.95893 15.1398 6.92884C15.3404 6.69037 15.5343 6.44679 15.725 6.20029C15.8069 6.09441 15.887 5.99297 15.9818 5.89819C15.9675 5.76933 15.9348 5.66344 15.8851 5.5437C15.7856 5.17871 15.8029 4.80577 15.9604 4.46026C16.1342 4.18299 16.4053 3.95067 16.7214 3.85455C17.1263 3.78124 17.4984 3.81389 17.8568 4.02319C18.1375 4.2263 18.293 4.48456 18.3724 4.82006C18.4255 5.22763 18.3828 5.56181 18.138 5.89819C17.8958 6.16627 17.6411 6.35442 17.2751 6.37664C17.0395 6.37932 16.8192 6.38182 16.5912 6.32006C16.5749 6.34008 16.5587 6.3601 16.5419 6.38073C16.4656 6.47477 16.3892 6.56881 16.3128 6.66284C16.2852 6.69687 16.2576 6.73091 16.2291 6.76597C16.035 7.00491 15.8401 7.24324 15.6445 7.48095C15.5671 7.5768 15.4925 7.67409 15.4193 7.77319C15.4961 7.95717 15.6226 8.092 15.7533 8.23901C16.0788 8.61388 16.3235 9.0157 16.5443 9.46069C16.5844 9.44581 16.6246 9.43092 16.6659 9.41559C16.817 9.35965 16.9682 9.30384 17.1194 9.24811C17.1844 9.22412 17.2494 9.20007 17.3144 9.17597C17.6794 9.04062 18.0439 8.90899 18.4193 8.80444C18.4154 8.75223 18.4116 8.70002 18.4076 8.64623C18.4076 8.3434 18.5312 8.08226 18.6888 7.82885C18.9667 7.55867 19.2774 7.40501 19.6661 7.39508C20.0639 7.41354 20.4145 7.53839 20.6898 7.83471C20.9579 8.18941 20.9989 8.55345 20.9505 8.99194C20.8645 9.30299 20.6978 9.59357 20.4161 9.76263C20.0686 9.9417 19.7583 10.0444 19.3683 9.94262C19.102 9.85276 18.8975 9.75668 18.7005 9.55444C18.7005 9.5235 18.7005 9.49256 18.7005 9.46069C18.0973 9.69272 17.494 9.92475 16.8724 10.1638C16.8724 10.3193 16.8904 10.4459 16.9224 10.5965C17.0352 11.1387 17.0273 11.6748 17.013 12.2263C17.0536 12.2309 17.0941 12.2355 17.1359 12.2402C17.1949 12.2472 17.254 12.2542 17.3148 12.2615C17.3473 12.265 17.3798 12.2686 17.4133 12.2723C17.6319 12.2981 17.8441 12.3364 18.0589 12.3845C18.5859 12.526 18.5859 12.526 19.0922 12.4219C19.1959 12.2998 19.2747 12.1759 19.3568 12.0388C19.6624 11.7942 20.0112 11.7699 20.388 11.8044C20.746 11.887 21.0163 12.0696 21.2318 12.3669C21.4233 12.7385 21.4823 13.0713 21.3607 13.4744C21.216 13.8631 20.978 14.1119 20.6081 14.2956C20.267 14.4038 19.8429 14.3891 19.5179 14.239C19.1039 13.9925 19.0125 13.7287 18.8412 13.2576C17.8666 13.0951 17.8666 13.0951 16.8724 12.9294C16.8415 13.0841 16.8105 13.2388 16.7787 13.3982C16.7322 13.5254 16.6854 13.6449 16.6293 13.7673C16.6151 13.7991 16.6009 13.8308 16.5863 13.8635C16.4517 14.1584 16.2917 14.4343 16.1224 14.7107C16.1069 14.7416 16.0915 14.7726 16.0755 14.8044C16.1158 14.8357 16.1562 14.8669 16.1977 14.8991C16.5155 15.1466 16.829 15.3975 17.133 15.662C17.2888 15.7963 17.4415 15.9244 17.6224 16.0232C17.726 16.0056 17.726 16.0056 17.8158 15.9412C18.1083 15.7895 18.408 15.7808 18.7249 15.8683C19.0904 16.0165 19.347 16.2337 19.5102 16.5936C19.6429 16.9282 19.6395 17.2927 19.5179 17.6316C19.3646 17.9656 19.1208 18.2006 18.778 18.336C18.4023 18.4295 18.0066 18.4175 17.6612 18.2358C17.5351 18.1529 17.439 18.0597 17.3412 17.9451C17.3073 17.9074 17.2735 17.8697 17.2386 17.8308C17.0728 17.5964 17.0486 17.3778 17.0541 17.0955C17.0549 17.0393 17.0558 16.9831 17.0566 16.9252C17.0577 16.875 17.0588 16.8249 17.0599 16.7732C17.08 16.5917 17.08 16.5917 16.9907 16.5035C16.9575 16.4755 16.9242 16.4475 16.89 16.4187C16.8327 16.3702 16.8327 16.3702 16.7743 16.3207C16.5629 16.15 16.3493 15.9822 16.1349 15.8154C15.9699 15.6865 15.8107 15.5522 15.6537 15.4138C15.5006 15.4814 15.3944 15.5662 15.2728 15.6804C14.8752 16.0392 14.4395 16.2947 13.9662 16.5388C14.1416 17.0498 14.3211 17.5578 14.5224 18.0593C14.6224 18.3106 14.6224 18.3106 14.6224 18.4138C14.6746 18.4099 14.7268 18.4061 14.7806 18.4021C15.1126 18.4039 15.406 18.5274 15.6478 18.7537C15.9203 19.0564 16.0331 19.3655 16.0287 19.7732C16.0025 20.1037 15.8735 20.3698 15.6537 20.6169C15.2543 20.942 14.8915 20.9888 14.388 20.9451C14.0417 20.8474 13.7857 20.6356 13.5912 20.3357C13.4201 19.9918 13.3975 19.6416 13.5062 19.2751C13.5864 19.0574 13.7044 18.8025 13.9193 18.6951C13.8085 18.293 13.6615 17.9061 13.5121 17.5173C13.4879 17.454 13.4637 17.3906 13.4395 17.3273C13.3808 17.1738 13.322 17.0203 13.263 16.8669C13.0567 16.8912 12.8567 16.9197 12.6537 16.9636C12.1764 17.0471 11.6832 17.0152 11.2005 17.0076C11.1937 17.0676 11.1937 17.0676 11.1866 17.1288C11.1127 17.7469 11.016 18.3614 10.9193 18.9763C10.9626 19.0042 11.0059 19.032 11.0506 19.0607C11.3685 19.2792 11.5449 19.5345 11.6224 19.9138C11.6767 20.2893 11.5764 20.6523 11.3571 20.9608C11.1038 21.2407 10.8043 21.3768 10.4324 21.4297C10.0598 21.446 9.76029 21.338 9.47496 21.1003C9.17956 20.8168 9.06254 20.5481 9.0399 20.1388C9.05269 19.7569 9.19812 19.4349 9.46617 19.1638C9.69423 18.9816 9.88125 18.918 10.1693 18.8357C10.2776 18.186 10.3859 17.5363 10.4974 16.8669C10.3427 16.836 10.188 16.8051 10.0287 16.7732C9.90269 16.6706 9.90269 16.6706 9.84117 16.5388C9.83824 16.3689 9.83824 16.3689 9.88804 16.2107C9.98765 16.1169 9.98765 16.1169 10.1224 16.0701C10.3379 16.0924 10.5422 16.139 10.7523 16.1902C11.9605 16.4486 13.1761 16.1922 14.2123 15.5427C15.2618 14.8549 15.9241 13.8055 16.2103 12.5955C16.4195 11.4175 16.1965 10.1423 15.5079 9.15142C14.772 8.12751 13.7953 7.47193 12.5599 7.21069C12.5183 7.20175 12.4768 7.1928 12.4339 7.18359C11.7231 7.09305 10.9909 7.12466 10.3099 7.35131C10.2799 7.36111 10.2498 7.37091 10.2189 7.381C9.54436 7.608 8.99166 7.98212 8.48179 8.47631C8.4537 8.50097 8.4256 8.52562 8.39665 8.55102C7.69415 9.18996 7.21474 10.2845 7.16271 11.2196C7.11696 12.5741 7.41923 13.7713 8.34117 14.8044C8.37519 14.8429 8.40921 14.8813 8.44426 14.9209C8.69604 15.1889 8.96678 15.3912 9.27859 15.5826C9.55666 15.7563 9.55666 15.7563 9.60679 15.9294C9.59799 16.0732 9.58154 16.1747 9.50718 16.2986C9.36554 16.3836 9.24768 16.3874 9.09117 16.3513C8.91254 16.2684 8.74378 16.1723 8.57554 16.0701C8.56503 16.0951 8.55452 16.1201 8.54368 16.1459C8.46121 16.2947 8.35272 16.417 8.24156 16.5447C8.19494 16.599 8.14837 16.6534 8.10185 16.7078C8.07887 16.7347 8.05588 16.7615 8.0322 16.7892C7.90798 16.9355 7.78729 17.0842 7.66972 17.2359C7.59117 17.3357 7.59117 17.3357 7.51994 17.4106C7.45112 17.4819 7.45112 17.4819 7.40367 17.6169C7.43924 17.738 7.48927 17.8473 7.5421 17.9619C7.65483 18.2463 7.61665 18.5153 7.515 18.7976C7.34698 19.1718 7.12838 19.3877 6.74742 19.5388C6.3956 19.6561 6.01475 19.6132 5.6812 19.4601C5.406 19.2989 5.20857 19.0729 5.09086 18.7758C5.00977 18.4413 4.99132 18.046 5.13902 17.7283C5.23293 17.5755 5.34691 17.4541 5.48179 17.3357C5.5195 17.3019 5.5572 17.268 5.59605 17.2331C5.82155 17.0737 6.03582 17.0421 6.30797 17.0456C6.35981 17.046 6.41166 17.0463 6.46507 17.0466C6.58315 17.0531 6.6818 17.067 6.79429 17.1013C7.0614 16.8151 7.30901 16.5195 7.5489 16.2105C7.69834 16.0181 7.85195 15.831 8.01304 15.6482C7.94372 15.4882 7.85251 15.3834 7.73179 15.2585C7.37402 14.869 7.10136 14.419 6.84117 13.9607C6.7631 13.9905 6.7631 13.9905 6.68345 14.0209C6.4908 14.0945 6.29807 14.1678 6.10531 14.2411C6.02181 14.2728 5.93833 14.3047 5.85487 14.3366C5.73508 14.3823 5.61522 14.4279 5.49534 14.4734C5.45789 14.4877 5.42044 14.5021 5.38185 14.5169C5.11747 14.6169 5.11747 14.6169 5.01304 14.6169C5.01691 14.6604 5.02078 14.7039 5.02476 14.7488C5.02275 15.0791 4.89935 15.4046 4.6732 15.6453C4.39601 15.8933 4.10316 16.0066 3.7357 16.0349C3.33466 16.0082 3.00944 15.8548 2.73082 15.5632C2.50645 15.254 2.40942 14.936 2.44499 14.5563C2.51721 14.1567 2.71699 13.8664 3.0443 13.6326C3.36955 13.4467 3.69736 13.386 4.06383 13.4771C4.35515 13.5725 4.53452 13.6792 4.7318 13.9138C5.13385 13.803 5.52077 13.6561 5.90953 13.5066C5.97288 13.4824 6.03623 13.4582 6.09959 13.434C6.2531 13.3754 6.40653 13.3165 6.55992 13.2576C6.5537 13.2208 6.54747 13.184 6.54106 13.1461C6.5239 13.044 6.50694 12.9419 6.49015 12.8397C6.47322 12.7376 6.45544 12.6356 6.43706 12.5337C6.40963 12.2762 6.41445 12.0193 6.41637 11.7605C6.41658 11.7061 6.41679 11.6517 6.41701 11.5956C6.41756 11.4621 6.41832 11.3286 6.41929 11.1951C6.39088 11.1931 6.36246 11.1911 6.33318 11.189C5.93338 11.1572 5.54014 11.0937 5.14488 11.0281C5.07723 11.017 5.00957 11.0059 4.94191 10.9948C4.77809 10.968 4.61431 10.941 4.45055 10.9138C4.42116 10.9585 4.39177 11.0032 4.3615 11.0492C4.14795 11.3656 3.88844 11.5425 3.51305 11.6169C3.09679 11.6708 2.76632 11.5554 2.42027 11.3269C2.10479 10.9967 1.99426 10.6535 2.00023 10.2048C2.03599 9.82881 2.25037 9.51927 2.52867 9.27319C2.86145 9.03356 3.25929 9.04211 3.65367 9.08569C3.79699 9.12844 3.90766 9.18628 4.02867 9.27319C4.07024 9.30026 4.11181 9.32733 4.15465 9.35522C4.41493 9.60847 4.52498 9.85009 4.5443 10.2107C4.57606 10.2127 4.60783 10.2147 4.64056 10.2167C5.05422 10.2465 5.45995 10.3094 5.86851 10.3777C5.93595 10.3888 6.0034 10.3999 6.07085 10.4109C6.23391 10.4377 6.39693 10.4647 6.55992 10.4919C6.56656 10.4414 6.57321 10.3908 6.58005 10.3387C6.60855 10.1524 6.66039 9.98466 6.72691 9.80932C6.73894 9.77713 6.75098 9.74494 6.76337 9.71177C6.87689 9.42017 7.02612 9.15843 7.1909 8.89306C7.27773 8.75556 7.27773 8.75556 7.26304 8.57006C7.17718 8.48206 7.09509 8.40862 6.99937 8.33276C6.95877 8.29954 6.95877 8.29954 6.91735 8.26565C6.82999 8.19455 6.74194 8.1244 6.65367 8.05444C6.609 8.01883 6.609 8.01883 6.56342 7.9825C6.31472 7.78454 6.06506 7.58783 5.80992 7.39819C5.76738 7.42042 5.72484 7.44266 5.68101 7.46557C5.37607 7.61218 5.03872 7.64462 4.70964 7.55365C4.32593 7.39503 4.06757 7.16167 3.88805 6.78881C3.78242 6.4548 3.78795 6.06218 3.93199 5.74292C4.09454 5.45983 4.32798 5.21869 4.63164 5.09234C5.03168 4.98922 5.44094 5.00288 5.80113 5.21319C6.08404 5.42184 6.30669 5.68724 6.37242 6.03881C6.39123 6.31101 6.38598 6.5691 6.32554 6.83569C6.3653 6.86638 6.40506 6.89708 6.44603 6.92871C6.77854 7.187 7.10388 7.45035 7.41733 7.73167C7.56167 7.85871 7.68817 7.94958 7.87242 8.00756C7.91206 7.96406 7.9517 7.92055 7.99254 7.87573C8.16197 7.70664 8.34534 7.56352 8.53746 7.42163C8.56496 7.40109 8.59245 7.38056 8.62078 7.3594C8.88996 7.16371 9.1772 7.00018 9.46617 6.83569C9.43635 6.75762 9.43635 6.75762 9.40593 6.67797C9.33239 6.48531 9.25906 6.29259 9.18579 6.09983C9.15402 6.01633 9.12219 5.93285 9.0903 5.84939C9.04455 5.7296 8.99899 5.60974 8.95347 5.48986C8.93912 5.45241 8.92476 5.41496 8.90998 5.37637C8.80992 5.11199 8.80992 5.11199 8.80992 5.00756C8.75771 5.01143 8.70551 5.0153 8.65172 5.01928C8.34888 5.01928 8.08774 4.89571 7.83433 4.73803C7.55775 4.45355 7.40775 4.12547 7.38609 3.72729C7.39572 3.37389 7.5443 3.03803 7.78801 2.78283C8.1191 2.49986 8.44343 2.43771 8.87419 2.45379C9.20341 2.49738 9.44895 2.62554 9.67418 2.86889C9.92125 3.19344 10.004 3.54365 9.97337 3.94628C9.93164 4.19325 9.83419 4.35624 9.67418 4.54705C9.57404 4.67255 9.57404 4.67255 9.51304 4.82006C9.54741 4.95153 9.58597 5.06836 9.63554 5.19397C9.65586 5.24786 9.65586 5.24786 9.67659 5.30284C9.72004 5.41757 9.76448 5.53189 9.80894 5.64624C9.8384 5.7236 9.86778 5.801 9.89711 5.87841C10.0221 6.22127 10.0221 6.22127 10.1693 6.55444C10.4134 6.52702 10.4134 6.52702 10.6549 6.48358C11.1739 6.37532 11.7043 6.4055 12.2318 6.41381C12.2341 6.38356 12.2363 6.35331 12.2386 6.32214C12.2712 5.92473 12.3348 5.53524 12.4018 5.14242C12.4101 5.09278 12.4183 5.04314 12.4268 4.992C12.4344 4.94766 12.4419 4.90332 12.4497 4.85763C12.4673 4.71727 12.4753 4.58633 12.4662 4.44506C12.3709 4.33657 12.3709 4.33657 12.2435 4.24585C11.9614 4.00687 11.838 3.79077 11.7944 3.42334C11.7789 3.00937 11.8917 2.69857 12.1468 2.37451C12.6312 1.88596 13.3169 1.90761 13.8728 2.25366ZM12.5658 3.00659C12.4966 3.17189 12.4912 3.28275 12.513 3.46069C12.6027 3.64708 12.6765 3.72714 12.8529 3.83569C13.068 3.89305 13.204 3.88655 13.4037 3.78881C13.5417 3.67093 13.6211 3.58514 13.6604 3.40521C13.6728 3.21185 13.6539 3.07869 13.5326 2.92456C13.3741 2.77685 13.2947 2.72093 13.0814 2.69311C12.8496 2.72093 12.711 2.82753 12.5658 3.00659ZM8.13316 3.49877C8.0909 3.66312 8.10915 3.8152 8.15367 3.97631C8.25788 4.14161 8.3486 4.23182 8.52867 4.30444C8.75144 4.31998 8.91032 4.28838 9.08824 4.1521C9.21812 3.97892 9.28039 3.86978 9.27574 3.65112C9.2177 3.46153 9.13406 3.36962 8.99742 3.22631C8.63985 3.04753 8.35848 3.21467 8.13316 3.49877ZM16.5912 4.82006C16.5158 4.97077 16.5221 5.12536 16.5443 5.28881C16.6197 5.43429 16.6851 5.53336 16.8138 5.63452C17.0583 5.70244 17.231 5.69665 17.4525 5.58178C17.6397 5.42134 17.6643 5.35156 17.6839 5.10424C17.6787 4.92704 17.6442 4.81885 17.5287 4.67944C17.37 4.54796 17.2234 4.50887 17.0162 4.51556C16.8356 4.55891 16.7123 4.68449 16.5912 4.82006ZM4.57359 6.0271C4.51609 6.23411 4.49494 6.4096 4.59245 6.60314C4.71902 6.77354 4.82771 6.8555 5.03941 6.88842C5.27134 6.897 5.39106 6.81971 5.56383 6.67163C5.69773 6.51094 5.68613 6.3312 5.66929 6.13256C5.59368 5.98943 5.52724 5.88702 5.39976 5.78686C5.06326 5.69339 4.79656 5.74331 4.57359 6.0271ZM19.3099 8.24194C19.1792 8.39334 19.1273 8.4888 19.099 8.68725C19.1273 8.8857 19.1792 8.98116 19.3099 9.13256C19.47 9.24287 19.5604 9.27319 19.7552 9.27319C19.9617 9.2142 20.0493 9.14313 20.2005 8.99194C20.2589 8.81682 20.278 8.65789 20.2474 8.47631C20.1636 8.31737 20.0518 8.21589 19.8929 8.13061C19.6547 8.06953 19.5127 8.11518 19.3099 8.24194ZM2.8568 9.92944C2.73421 10.1197 2.6833 10.2665 2.71617 10.4919C2.82251 10.6928 2.92265 10.8324 3.13804 10.9138C3.32987 10.9319 3.48864 10.9161 3.64964 10.805C3.79332 10.6586 3.86017 10.5307 3.8734 10.3249C3.85815 10.0963 3.76996 9.99108 3.6068 9.83569C3.36845 9.71652 3.05393 9.75549 2.8568 9.92944ZM19.6706 12.719C19.573 12.8689 19.5446 12.9615 19.5414 13.1433C19.6034 13.3442 19.6793 13.4359 19.8255 13.5857C19.9892 13.6675 20.1626 13.6593 20.3412 13.6326C20.4994 13.5523 20.5979 13.4387 20.6898 13.2869C20.7376 13.0638 20.7074 12.897 20.5873 12.7039C20.4444 12.5649 20.3292 12.518 20.1332 12.4929C19.9439 12.516 19.7978 12.5717 19.6706 12.719ZM3.37242 14.2888C3.23026 14.4348 3.14297 14.5508 3.13804 14.7576C3.21372 14.9972 3.29477 15.1442 3.51305 15.2732C3.70842 15.3311 3.83649 15.3378 4.01695 15.2468C4.17799 15.1405 4.25224 15.0388 4.30992 14.8513C4.32347 14.6358 4.29109 14.5112 4.15465 14.3415C3.87462 14.1201 3.68837 14.0979 3.37242 14.2888ZM17.9037 16.6794C17.7693 16.8416 17.738 16.9842 17.7464 17.1952C17.7802 17.385 17.8838 17.5176 18.0326 17.6345C18.1975 17.6803 18.3461 17.7004 18.513 17.6638C18.6688 17.5665 18.8052 17.4545 18.888 17.2888C18.9095 17.0043 18.8604 16.8582 18.6771 16.6443C18.446 16.4517 18.1233 16.5025 17.9037 16.6794ZM5.85679 17.9451C5.73045 18.1346 5.7319 18.285 5.76304 18.5076C5.83905 18.6569 5.90242 18.7523 6.03551 18.8533C6.23326 18.9098 6.402 18.9094 6.59215 18.8298C6.75567 18.6972 6.87388 18.5752 6.90068 18.3585C6.89329 18.1494 6.84909 18.0188 6.69762 17.8718C6.5734 17.7804 6.47686 17.7375 6.32262 17.7283C6.11809 17.7607 6.01488 17.8133 5.85679 17.9451ZM14.2943 19.3044C14.184 19.4646 14.1537 19.555 14.1537 19.7498C14.2123 19.9549 14.2867 20.0433 14.4349 20.1951C14.599 20.2771 14.7716 20.2678 14.9505 20.2419C15.1364 20.1338 15.2391 20.0308 15.308 19.8289C15.3438 19.6357 15.2986 19.5045 15.2007 19.3372C15.0692 19.17 14.9199 19.1261 14.7162 19.0964C14.5312 19.1234 14.4368 19.1841 14.2943 19.3044ZM9.8734 19.7878C9.77993 19.9367 9.74742 20.0186 9.74742 20.1951C9.81046 20.401 9.89075 20.5369 10.0638 20.6667C10.2558 20.7221 10.4002 20.7217 10.5912 20.6638C10.7308 20.5788 10.8052 20.5097 10.89 20.3708C10.9306 20.1922 10.9355 20.0386 10.8724 19.8669C10.7417 19.7003 10.5998 19.605 10.4007 19.5359C10.1701 19.5408 10.0341 19.6271 9.8734 19.7878Z" stroke="#005F73" stroke-width="0.4" mask="url(#path-1-outside-1_12474_324575)"/>
<path d="M11.4824 8.29443C11.8571 8.27031 12.2227 8.32209 12.54 8.53369L12.6729 8.63525L12.6758 8.63721C12.8546 8.80376 12.992 8.96856 13.0869 9.15674C13.1822 9.34564 13.2325 9.55338 13.2441 9.80225V9.81006C13.2294 10.2491 13.0789 10.6282 12.7734 10.9487L12.7666 10.9565L12.7656 10.9556C12.3864 11.282 12.0203 11.3598 11.5469 11.355H11.54C11.1376 11.3221 10.7825 11.1451 10.5166 10.8394L10.5098 10.8306C10.2616 10.4748 10.1256 10.0874 10.1641 9.64014L10.165 9.62939H10.166C10.2634 9.13123 10.5001 8.78506 10.9121 8.49658L10.918 8.49365C11.0494 8.41356 11.1717 8.36792 11.3184 8.3335V8.33252L11.4648 8.29736L11.4736 8.29541L11.4824 8.29443ZM11.7227 9.1958C11.583 9.18976 11.4357 9.23936 11.2832 9.36768C11.1414 9.51614 11.069 9.63994 11.0566 9.82959C11.0819 10.0341 11.1798 10.1867 11.3359 10.3374C11.5043 10.4432 11.6683 10.4667 11.874 10.4409C12.0939 10.3237 12.2422 10.1802 12.3203 9.95557C12.3313 9.8325 12.3267 9.73727 12.3027 9.65186C12.2788 9.56679 12.2345 9.48529 12.1602 9.39111C12.0095 9.26585 11.8631 9.20193 11.7227 9.1958Z" fill="#005F73" stroke="#005F73" stroke-width="0.2"/>
<path d="M9.56702 11.789C9.77386 11.937 9.90328 12.1043 10.0026 12.3376C10.0544 12.671 10.0182 12.9406 9.8208 13.2201C9.64866 13.4186 9.48856 13.5211 9.22626 13.5611C8.88562 13.576 8.64507 13.5344 8.38837 13.3043C8.19234 13.1083 8.10946 12.9056 8.10547 12.6265C8.12599 12.2932 8.22813 12.0862 8.47919 11.8629C8.82194 11.6111 9.19196 11.5764 9.56702 11.789ZM8.88934 12.4577C8.86324 12.4896 8.83714 12.5215 8.81024 12.5543C8.86123 12.7067 8.86123 12.7067 8.95087 12.8356C9.06409 12.8552 9.06409 12.8552 9.18524 12.8356C9.28267 12.7617 9.28267 12.7617 9.32587 12.6481C9.31011 12.5189 9.31011 12.5189 9.23212 12.4137C9.07109 12.3417 9.02609 12.3431 8.88934 12.4577Z" fill="#005F73"/>
<path d="M14.4101 12.8855C14.6647 13.0779 14.8715 13.3071 14.9186 13.6305C14.9395 13.9375 14.8492 14.1807 14.6708 14.4294C14.4625 14.6313 14.228 14.702 13.9421 14.7169C13.6243 14.6997 13.3916 14.5565 13.1708 14.3357C13.0022 14.1108 13.001 13.8704 13.0079 13.5981C13.0536 13.2849 13.2186 13.1009 13.455 12.903C13.7423 12.7632 14.1134 12.7938 14.4101 12.8855ZM13.8154 13.5446C13.7237 13.6275 13.7237 13.6275 13.7099 13.7497C13.7242 13.8716 13.7242 13.8716 13.8124 13.9577C13.9207 14.0201 13.9207 14.0201 14.0468 13.9841C14.1646 13.9228 14.1646 13.9228 14.1992 13.7995C14.2139 13.6679 14.2139 13.6679 14.1083 13.5388C13.9825 13.48 13.9407 13.482 13.8154 13.5446Z" fill="#005F73"/>
</svg>
