<svg width="24" height="24" viewBox="0 0 24 24" fill="none" xmlns="http://www.w3.org/2000/svg">
<path d="M5.5 7.49989C11 4.50006 13 9.49996 18.5 7.99996M12 19C12 20.5 9.99999 22.5 7.99999 22.5M7 18.5H17C18.1046 18.5 19 17.6046 19 16.5V4.5C19 3.39543 18.1046 2.5 17 2.5H7C5.89543 2.5 5 3.39543 5 4.5V16.5C5 17.6046 5.89543 18.5 7 18.5ZM14 13.5555C14 14.8055 13.1046 15.4999 12 15.4999C10.8954 15.4999 10 14.8055 10 13.5555C10 12.3055 12 10.4999 12 10.4999C12 10.4999 14 12.3055 14 13.5555Z" stroke="#005F73" stroke-width="1.5" stroke-linecap="round" stroke-linejoin="round"/>
</svg>
