<svg width="24" height="24" viewBox="0 0 24 24" fill="none" xmlns="http://www.w3.org/2000/svg">
<path d="M21.3799 6.86009L20.6699 6.15009L19.2599 4.74009L17.1399 2.62009C16.8499 2.33009 16.3699 2.33009 16.0799 2.62009C15.7899 2.91009 15.7899 3.39009 16.0799 3.68009L16.2599 3.86009L15.1999 4.92009L15.0199 4.74009C14.3399 4.06009 13.2299 4.06009 12.5499 4.74009L6.05994 11.2301C5.53994 11.7501 5.24994 12.4401 5.24994 13.1701V17.6901L2.46994 20.4701C2.17994 20.7601 2.17994 21.2401 2.46994 21.5301C2.61994 21.6801 2.80994 21.7501 2.99994 21.7501C3.18994 21.7501 3.37994 21.6801 3.52994 21.5301L6.30994 18.7501H10.8299C11.5599 18.7501 12.2499 18.4601 12.7699 17.9401L14.2999 16.4101L19.2499 11.4601C19.5799 11.1301 19.7599 10.6901 19.7599 10.2201C19.7599 9.75009 19.5799 9.31009 19.2499 8.98009L19.0699 8.80009L20.1299 7.74009L20.3099 7.92009C20.4599 8.07009 20.6499 8.14009 20.8399 8.14009C21.0299 8.14009 21.2199 8.07009 21.3699 7.92009C21.6599 7.63009 21.6599 7.15009 21.3699 6.86009H21.3799ZM18.1999 10.4001L16.6099 11.9901L15.0199 10.4001C14.7299 10.1101 14.2499 10.1101 13.9599 10.4001C13.6699 10.6901 13.6699 11.1701 13.9599 11.4601L15.5499 13.0501L13.7799 14.8201L12.1899 13.2301C11.8999 12.9401 11.4199 12.9401 11.1299 13.2301C10.8399 13.5201 10.8399 14.0001 11.1299 14.2901L12.7199 15.8801L11.7099 16.8901C11.4799 17.1201 11.1599 17.2601 10.8299 17.2601H6.74994V13.1801C6.74994 12.8501 6.87994 12.5301 7.11994 12.3001L13.6099 5.81009C13.7099 5.71009 13.8699 5.71009 13.9599 5.81009L16.0799 7.93009L17.4899 9.34009L18.1999 10.0501C18.2599 10.1101 18.2699 10.1901 18.2699 10.2301C18.2699 10.2701 18.2699 10.3401 18.1999 10.4101V10.4001ZM18.0199 7.75009L17.1399 6.87009L16.2599 5.99009L17.3199 4.93009L18.1999 5.81009L19.0799 6.69009L18.0199 7.75009Z" fill="#005F73"/>
</svg>
