<svg width="24" height="24" viewBox="0 0 24 24" fill="none" xmlns="http://www.w3.org/2000/svg">
<path d="M7.92892 10.8444C9.36951 11.3736 10.1938 12.9246 9.78885 14.4358C9.36002 16.0362 7.71503 16.986 6.11463 16.5572C2.91383 15.6995 1.07228 12.1933 2.0014 8.72572C2.93053 5.25819 6.27848 3.14247 9.47928 4.00012C10.5462 4.28601 11.1794 5.38268 10.8935 6.44961C10.6076 7.51655 9.51094 8.14971 8.444 7.86383C8.11833 7.77656 7.83308 7.61376 7.60204 7.39931M7.92892 10.8444C7.84389 10.8131 7.75672 10.7855 7.66753 10.7616C7.26344 10.6533 6.8565 10.6329 6.46702 10.6887M7.92892 10.8444C8.38202 10.712 8.73546 10.395 8.95374 10.0001M8.83857 7.96953C9.30607 8.56071 9.29803 9.37728 8.95374 10.0001M16.0739 10.8443C14.6333 11.3735 13.809 12.9245 14.2139 14.4357C14.6428 16.0361 16.2878 16.9859 17.8882 16.5571C21.089 15.6994 22.9305 12.1932 22.0014 8.72565C21.0723 5.25812 17.7243 3.14239 14.5235 4.00004C13.4566 4.28592 12.8234 5.3826 13.1093 6.44953C13.3952 7.51646 14.4919 8.14963 15.5588 7.86374C15.8845 7.77648 16.1697 7.61368 16.4007 7.39923M16.0739 10.8443C16.1589 10.8131 16.2461 10.7854 16.3353 10.7615C16.7393 10.6532 17.1463 10.6328 17.5358 10.6886M16.0739 10.8443C15.6208 10.712 15.2674 10.395 15.0491 10.0001M15.1642 7.96945C14.6967 8.56066 14.7048 9.37727 15.0491 10.0001M15.0491 10.0001V10.0001C13.5789 10.0001 12.3243 11.063 12.0826 12.5131L12.0014 13.0001M12.0014 21.0001L12.0014 13.0001M8.95374 10.0001V10.0001C10.4239 10.0001 11.6785 11.063 11.9202 12.5131L12.0014 13.0001" stroke="#005F73" stroke-width="1.5" stroke-linecap="round" stroke-linejoin="round"/>
</svg>
