<svg width="24" height="24" viewBox="0 0 24 24" fill="none" xmlns="http://www.w3.org/2000/svg">
<path d="M11.5001 16C10.0001 18 8.50009 18 7.00009 18.5C5.50009 19 4.66924 20.0846 3.50009 19.5C2.33094 18.9154 3.50009 15.5 3.50009 13.5C3.50009 11.5 2.00009 8 5.00009 6C8.00009 4 12.5001 6.5 12.5001 6.5M16.0001 13.5C16.0001 13.5 17.9168 12.6111 19.5001 10.5C20.3088 9.42171 21.0741 8.01005 21.6292 6.88689C22.0007 6.13541 21.2955 5.30069 20.4677 5.43272C19.2755 5.62285 17.7607 5.75211 16.5001 5.49999C14.0001 4.99998 12.5001 6.5 12.5001 6.5M12.5001 6.5C12.6668 7.16667 13.0001 9 13.0001 11M10.0001 10.5C10.0001 11.5 10.5001 13.5 12.5001 13.5M12.5001 13.5C14.5001 13.5 15.0001 11.5 15.0001 10.5M12.5001 13.5C9.00009 15 7.33343 13.1667 7.00009 12.5M12.5001 13.5C13.1668 13.8333 15.0001 15.5 14.5001 17.5" stroke="#005F73" stroke-width="1.5" stroke-linecap="round" stroke-linejoin="round"/>
</svg>
