<svg width="24" height="25" viewBox="0 0 24 25" fill="none" xmlns="http://www.w3.org/2000/svg">
<path d="M10.1416 24.2871C10.5474 24.2735 10.9483 24.2501 11.2783 24.2178C11.603 24.186 11.8729 24.1442 12.0078 24.0928H12.0088C12.4714 23.9133 12.7207 23.4667 12.7207 22.877C12.7207 22.5644 12.6301 22.2994 12.4424 22.0879C12.2562 21.8781 11.9825 21.7296 11.6299 21.6348C11.4963 21.5948 11.3598 21.5549 11.248 21.5234C11.1891 21.5068 11.1344 21.4946 11.0908 21.4834C11.0941 21.4704 11.0973 21.4548 11.1025 21.4375C11.1288 21.3503 11.1761 21.2234 11.2412 21.0635C11.3714 20.7441 11.5713 20.3016 11.8164 19.8047L12.1562 19.0918C12.8844 17.5333 13.168 16.6782 13.168 16.0029C13.1679 15.4528 12.9859 14.9885 12.6426 14.6426C12.3431 14.3409 11.9269 14.1349 11.416 14.0371L11.1914 14.002C10.9004 13.9662 10.1693 13.9931 9.46484 14.0459C9.11028 14.0725 8.75835 14.1063 8.4668 14.1426C8.32029 14.1608 8.18652 14.1803 8.07422 14.2002C8.1292 14.1361 8.1956 14.0562 8.27734 13.9668C8.54696 13.6719 8.94831 13.2552 9.41699 12.7861C9.8813 12.3216 10.3149 11.8737 10.6396 11.5293C10.802 11.3572 10.9375 11.2101 11.0361 11.0996C11.0852 11.0447 11.126 10.9984 11.1562 10.9619L11.2227 10.8721L11.2256 10.8662L11.2422 10.8457C11.2534 10.8368 11.2728 10.8256 11.3076 10.8145C11.3827 10.7905 11.511 10.77 11.7354 10.7529C11.959 10.7359 12.2702 10.7226 12.7041 10.7119L14.4102 10.6846C15.9209 10.6616 17.5942 10.5842 19.0068 10.4824C20.4144 10.381 21.5744 10.2547 22.0547 10.1318C22.6134 9.99182 23.0018 9.38013 23.002 8.74023C23.002 8.57498 22.9781 8.43137 22.9141 8.28711C22.8507 8.1445 22.7504 8.00598 22.6074 7.84766L22.5986 7.83789L22.5977 7.83887L22.5967 7.83789L22.5947 7.83594C22.5932 7.83471 22.5913 7.833 22.5889 7.83105C22.5833 7.82665 22.575 7.82025 22.5645 7.8125C22.5434 7.79701 22.5121 7.775 22.4697 7.74805C22.385 7.69412 22.2556 7.61986 22.0732 7.53516C22.0385 7.51901 21.9909 7.50786 21.9414 7.49902C21.8895 7.48977 21.826 7.4808 21.7539 7.47363C21.6093 7.45926 21.4232 7.44905 21.2129 7.44043C20.792 7.42318 20.2653 7.41523 19.751 7.41309C19.2364 7.41094 18.733 7.41439 18.3584 7.41797C18.1711 7.41976 18.0156 7.42137 17.9072 7.42285C17.8534 7.42359 17.8111 7.42436 17.7822 7.4248C17.7678 7.42503 17.7565 7.42468 17.749 7.4248C17.7453 7.42486 17.7421 7.42575 17.7402 7.42578H17.7373V7.42676C15.2773 7.43248 13.9656 7.42534 13.0967 7.33301C12.4517 7.26446 12.0535 7.14842 11.6074 6.95117L11.1348 6.72559L10.6797 6.49707L10.9121 6.46777C11.6481 6.37346 12.3689 5.99583 12.7461 5.48828C13.4049 4.60139 13.637 3.51765 13.4893 2.55273C13.3415 1.58791 12.8118 0.732722 11.9375 0.320312H11.9365C11.6499 0.185758 11.2009 0.113159 10.7656 0.101562C10.331 0.0899889 9.88522 0.138877 9.60742 0.262695H9.60645C9.30076 0.401385 8.98338 0.64838 8.70801 0.939453C8.4322 1.23099 8.19309 1.57274 8.04785 1.90625L8.04688 1.90723C7.7873 2.52233 7.72231 3.25171 7.8252 3.92578C7.92798 4.59894 8.20042 5.22943 8.62891 5.63867L8.80176 5.80469L8.27734 5.84473C7.32564 5.91525 6.48342 6.32744 5.92773 7.00391V7.00488C5.81612 7.13789 5.58375 7.47723 5.30371 7.91211C5.02084 8.35139 4.68438 8.89406 4.36523 9.43359C3.80888 10.3741 3.04002 11.5412 2.53711 12.2217L2.33887 12.4814C1.76795 13.2102 1.39616 13.7531 1.16211 14.2461C0.926629 14.7421 0.831486 15.185 0.808594 15.7119L0.802734 16.0596C0.8083 16.3893 0.849946 16.67 0.941406 16.9287C1.06371 17.2746 1.27235 17.573 1.58594 17.8945C1.81798 18.1324 2.27401 18.4588 2.58301 18.623L2.58496 18.624C2.84171 18.7527 3.02082 18.8275 3.32129 18.8652C3.61421 18.902 4.02403 18.9041 4.74219 18.8984C5.45653 18.8984 5.87957 18.89 6.25879 18.8389C6.6393 18.7875 6.97326 18.6935 7.50977 18.5273H7.51074C7.83368 18.4246 8.13965 18.3331 8.37305 18.2676C8.48986 18.2348 8.58853 18.2083 8.66113 18.1904C8.66545 18.1894 8.66971 18.1885 8.67383 18.1875C8.65606 18.2613 8.62544 18.3657 8.58105 18.4951C8.48434 18.777 8.33223 19.1675 8.14844 19.5957H8.14746C7.56741 20.9736 7.24239 21.8135 7.11426 22.3955C7.04985 22.6882 7.03352 22.922 7.0625 23.1299C7.0917 23.3388 7.16547 23.5158 7.27051 23.6953L7.27246 23.6973C7.36677 23.8483 7.46105 23.9575 7.59961 24.04C7.73427 24.1202 7.90407 24.1709 8.13965 24.2227V24.2236C8.31767 24.2632 8.61876 24.2854 8.96973 24.2949C9.32327 24.3045 9.73571 24.3008 10.1416 24.2871ZM11.8564 4.92285C11.1884 5.59671 10.1762 5.63878 9.49121 5.02344C9.24941 4.80309 9.08124 4.56811 8.97168 4.29492C8.86181 4.0208 8.80959 3.70182 8.80957 3.30957C8.80957 2.50213 9.15399 1.84197 9.66211 1.45703C10.1691 1.07301 10.8438 0.958153 11.5195 1.24707L11.6211 1.29785C12.118 1.57232 12.4273 2.18671 12.4951 2.88184C12.5671 3.62093 12.3617 4.41662 11.8574 4.92285H11.8564ZM9.81543 23.2354C9.35721 23.2353 9.00718 23.232 8.74121 23.2168C8.47285 23.2015 8.30021 23.1742 8.19141 23.1328C8.13861 23.1127 8.10525 23.0909 8.08398 23.0693C8.06366 23.0487 8.05075 23.024 8.04297 22.9922C8.02578 22.9215 8.03553 22.819 8.06934 22.6572L8.07031 22.6562C8.09344 22.5403 8.20835 22.2076 8.37891 21.7568C8.54771 21.3107 8.76629 20.7588 8.99023 20.2109C9.21414 19.6632 9.4432 19.1202 9.63281 18.6914C9.72767 18.4769 9.81269 18.2911 9.88184 18.1484C9.91717 18.0756 9.94776 18.0159 9.97266 17.9697L10.0303 17.8721L10.0322 17.8711C10.1684 17.6769 10.2471 17.4699 10.2568 17.292C10.2664 17.1153 10.2053 16.9401 10.0312 16.8721H10.0303C10.0105 16.8645 9.99045 16.8622 9.97656 16.8613C9.96101 16.8604 9.94406 16.8604 9.92676 16.8613C9.89195 16.8631 9.84852 16.8688 9.7998 16.876C9.70209 16.8904 9.57344 16.9151 9.42383 16.9482C9.1237 17.0147 8.7329 17.1155 8.32324 17.2363V17.2373C6.19076 17.8439 5.62044 17.9545 4.66309 17.9658C3.63001 17.9657 2.81151 17.6731 2.33398 17.1738L2.33496 17.1729C2.09715 16.912 1.9582 16.7222 1.87695 16.5254C1.79621 16.3296 1.76856 16.1181 1.76855 15.8086C1.76855 15.1021 2.09315 14.4507 3.17773 13.0752L3.17871 13.0732C3.53308 12.6062 4.15076 11.6882 4.72559 10.7744L5.27539 9.87891C5.61004 9.30714 5.94702 8.75529 6.22266 8.32715C6.36041 8.11318 6.48278 7.93059 6.58105 7.79199C6.63142 7.72098 6.67458 7.66354 6.70898 7.62012L6.78711 7.53125L6.79199 7.52637C6.86632 7.45024 6.99964 7.35575 7.15918 7.2627C7.31653 7.17092 7.49229 7.0843 7.64844 7.02344L7.80176 6.97168C8.15482 6.86126 8.48223 6.82499 8.81836 6.86328C9.20369 6.9072 9.60748 7.04973 10.0811 7.30371L10.082 7.30469C10.5216 7.5358 11.2745 7.86941 11.7598 8.04297L11.7607 8.04395L12.6436 8.35254L12.6592 8.3584H12.6758L17.2803 8.4043C19.766 8.42725 20.9916 8.43944 21.5801 8.51855C21.7262 8.5382 21.8272 8.56099 21.8955 8.58691C21.9635 8.61276 21.9905 8.63769 22.002 8.65527C22.0126 8.67176 22.0185 8.69609 22.0146 8.74121C22.0106 8.78862 21.9973 8.84494 21.9785 8.92188L21.9775 8.92578C21.9643 8.98877 21.9328 9.05181 21.8926 9.10254C21.851 9.15489 21.8072 9.18516 21.7773 9.19434L21.7744 9.19531C21.7726 9.19574 21.7671 9.19713 21.7559 9.19922C21.7418 9.20183 21.7223 9.20444 21.6982 9.20801C21.6503 9.21512 21.5844 9.22451 21.5029 9.23438C21.3399 9.25413 21.1155 9.27877 20.8457 9.30664L18.8145 9.49902C17.0824 9.64484 16.0351 9.70086 14.3711 9.70996L12.4541 9.70508C10.7301 9.6822 9.83193 9.6732 9.36133 9.69629C9.12986 9.70766 8.9861 9.72758 8.89746 9.76465C8.84938 9.78476 8.81018 9.81308 8.7832 9.85352C8.75775 9.89185 8.74981 9.93211 8.74512 9.96094V9.96191C8.72558 10.0604 8.7362 10.1552 8.7793 10.2402C8.82258 10.3255 8.89481 10.3943 8.98438 10.4473C9.16144 10.5518 9.42217 10.6045 9.7373 10.6045C9.87801 10.6045 10.0067 10.6149 10.0977 10.6309C10.105 10.6321 10.1115 10.6354 10.1182 10.6367C10.1018 10.6554 10.0833 10.6773 10.0615 10.7012C9.97332 10.7978 9.84455 10.9324 9.68555 11.0947C9.36793 11.4189 8.93011 11.8532 8.4502 12.3223L7.40723 13.3418C7.10905 13.6401 6.86046 13.8972 6.66113 14.1123C6.462 14.3272 6.31007 14.5018 6.20801 14.6357C6.1571 14.7025 6.11687 14.7618 6.08887 14.8115C6.06358 14.8565 6.03906 14.91 6.03906 14.9609V14.9639L6.05664 15.0908C6.0679 15.1315 6.08535 15.1704 6.1123 15.2051C6.16739 15.2758 6.24901 15.3141 6.34668 15.334C6.44324 15.3536 6.56647 15.3571 6.71973 15.3506C6.87417 15.344 7.0657 15.3266 7.30078 15.3008H7.30176C9.05234 15.0944 10.1288 15.001 10.8193 15.0293C11.1636 15.0434 11.4051 15.0879 11.583 15.1592C11.7576 15.2293 11.8752 15.3263 11.9707 15.4551L11.9727 15.458C12.0993 15.6191 12.1642 15.7877 12.1719 16.002C12.1777 16.1663 12.1501 16.3601 12.0869 16.5996L12.0117 16.8545C11.9021 17.1915 11.5695 17.9625 11.1934 18.7725C10.8179 19.5808 10.4033 20.4191 10.1318 20.8906C9.97599 21.1616 9.85808 21.3815 9.79785 21.5615C9.73727 21.7427 9.72714 21.9066 9.81836 22.0479C9.90469 22.1815 10.0678 22.2715 10.2852 22.3486C10.5061 22.427 10.8058 22.4992 11.1904 22.585L11.373 22.6377C11.5356 22.6969 11.6394 22.7735 11.6875 22.8447C11.7173 22.889 11.724 22.9281 11.7168 22.9629C11.7092 22.9992 11.6834 23.0452 11.6221 23.0947L11.5645 23.127C11.4916 23.1577 11.3681 23.1848 11.1514 23.2031C10.8683 23.2271 10.4471 23.2354 9.81543 23.2354Z" fill="#005F73" stroke="#005F73" stroke-width="0.2"/>
</svg>
