<svg width="24" height="25" viewBox="0 0 24 25" fill="none" xmlns="http://www.w3.org/2000/svg">
<path d="M4.46387 23.6343C4.61363 23.7159 4.79161 23.7158 4.94141 23.6343L4.94043 23.6333C4.98904 23.6075 5.02405 23.567 5.04883 23.5024C5.07161 23.443 5.08877 23.358 5.10254 23.2358C5.13025 22.9897 5.14916 22.5598 5.16211 21.7974C5.18806 20.2693 5.19043 17.3882 5.19043 11.9302C5.19043 6.29779 5.19001 3.41698 5.16406 1.93115C5.15112 1.19012 5.13165 0.790594 5.10156 0.568848C5.08667 0.45908 5.06861 0.382401 5.04102 0.327637C5.00919 0.264601 4.96798 0.235505 4.92969 0.215332L4.92871 0.216309C4.86528 0.181949 4.81322 0.151617 4.76953 0.132324C4.72599 0.113099 4.67839 0.0975104 4.62793 0.100098C4.57376 0.102916 4.53115 0.126163 4.49512 0.153809C4.46157 0.179552 4.42574 0.21635 4.38672 0.255371C4.36717 0.274978 4.35745 0.297984 4.35352 0.309082C4.34843 0.323458 4.34509 0.339893 4.3418 0.355957C4.33521 0.388206 4.32947 0.430427 4.32422 0.481934C4.31362 0.586147 4.30339 0.737906 4.29492 0.941895C4.27797 1.35059 4.26512 1.97735 4.25488 2.87451C4.23441 4.66965 4.22656 7.55313 4.22656 11.9526C4.22656 17.3285 4.22933 20.2036 4.25391 21.7466C4.26618 22.5169 4.28349 22.959 4.30957 23.2153C4.32252 23.3426 4.33771 23.431 4.3584 23.4927C4.37994 23.5569 4.41177 23.6045 4.46289 23.6333L4.46387 23.6343Z" fill="#005F73" stroke="#005F73" stroke-width="0.2"/>
<path d="M17.3975 24.2896L17.3965 24.2886C17.8386 24.2804 18.186 24.2703 18.459 24.2446C18.7307 24.2191 18.9377 24.1793 19.0947 24.1099C19.2564 24.0383 19.3641 23.9357 19.4365 23.7935C19.4713 23.7251 19.4978 23.6484 19.5186 23.564L19.5684 23.2866V23.2856V23.2847C19.6095 22.949 19.5293 22.6419 19.335 22.3794C19.142 22.1188 18.8408 21.9069 18.4473 21.7495C18.2885 21.686 18.1471 21.6134 18.0488 21.5483C17.9992 21.5155 17.9644 21.4861 17.9434 21.4644C17.9399 21.4608 17.9368 21.4582 17.9346 21.4556C17.9373 21.4458 17.9418 21.4333 17.9463 21.4185C17.9571 21.3825 17.9726 21.3336 17.9922 21.2729C18.0315 21.151 18.0871 20.9828 18.1553 20.7817C18.2916 20.3797 18.4769 19.845 18.6787 19.2778L19.0703 18.1382C19.3202 17.3781 19.396 17.0261 19.4189 16.5806L19.4268 16.2983C19.4322 15.7664 19.3867 15.3886 19.2246 15.0942C19.0606 14.7965 18.7864 14.5999 18.376 14.4058V14.4048C18.1461 14.2983 17.9615 14.2342 17.7158 14.1997C17.4742 14.1658 17.1752 14.162 16.7178 14.1675V14.1665C16.1125 14.1665 14.9844 14.243 14.1963 14.3306H14.1953C13.8091 14.3741 13.4501 14.4073 13.1855 14.4263C13.0535 14.4358 12.9457 14.4415 12.8701 14.4438C12.8655 14.444 12.8607 14.4447 12.8564 14.4448C12.8719 14.3901 12.8961 14.3161 12.9287 14.228C12.9987 14.0388 13.1003 13.7915 13.209 13.5464C13.3176 13.3014 13.4323 13.06 13.5264 12.8804C13.5736 12.7902 13.6145 12.7174 13.6465 12.6685C13.6547 12.6559 13.6629 12.6463 13.6689 12.6382C13.6811 12.641 13.696 12.6434 13.7129 12.6479C13.762 12.6611 13.8276 12.6812 13.9053 12.7056C14.0605 12.7542 14.261 12.8212 14.4668 12.897L14.4678 12.8979C14.9255 13.0614 15.237 13.1514 15.5127 13.1587C15.7941 13.1661 16.0298 13.0873 16.3359 12.937H16.335C17.2419 12.5012 17.5293 11.331 17.1416 10.0239C16.9249 9.29508 16.3419 8.43246 15.3867 7.40771L14.9551 6.9585C14.6901 6.68809 14.4929 6.48608 14.3486 6.33252C14.2031 6.17759 14.1161 6.07697 14.0703 6.00732C14.0223 5.93427 14.0385 5.92496 14.0342 5.93506C14.0342 5.93507 14.0374 5.92955 14.0527 5.9165C14.0687 5.90292 14.0898 5.88801 14.1211 5.8667L14.1221 5.86572C14.7438 5.43601 15.1895 4.75818 15.4092 4.02393C15.6014 3.38119 15.6223 2.68816 15.4307 2.07275L15.3359 1.81396C15.0187 1.08876 14.4062 0.534515 13.626 0.285645C13.2897 0.175418 13.036 0.116727 12.7783 0.11377C12.5205 0.110873 12.2659 0.162997 11.9297 0.262207L11.9277 0.263184C11.3398 0.447829 10.6774 1.05862 10.3193 1.72998V1.73096C10.1105 2.11432 10.0674 2.39943 10.0674 3.30615C10.0674 3.79565 10.0754 4.09153 10.1182 4.32959C10.1617 4.57192 10.241 4.75155 10.373 5.01025L10.374 5.01221C10.4573 5.16759 10.5491 5.32089 10.6289 5.43994C10.6686 5.49911 10.7064 5.55104 10.7393 5.59131C10.7548 5.61038 10.7704 5.62833 10.7852 5.64307C10.7806 5.64796 10.7757 5.65381 10.7695 5.65967C10.7156 5.71124 10.6174 5.78013 10.4775 5.86084V5.86182C10.1278 6.05861 9.84639 6.23495 9.6084 6.47412C9.36874 6.71503 9.17699 7.01441 8.99805 7.45166C8.64297 8.31931 8.32768 9.75273 7.77734 12.4009C7.42859 14.0847 7.24321 15.0651 7.20996 15.731C7.19325 16.066 7.21461 16.3261 7.27441 16.5591C7.33427 16.7922 7.43148 16.9933 7.55957 17.2104L7.70703 17.4419C8.06125 17.9537 8.48955 18.2603 9.12012 18.4771H9.12109C9.5007 18.6035 10.1642 18.6399 11.0059 18.603C11.6409 18.5752 12.3853 18.5055 13.2002 18.396L14.0371 18.2739L14.0381 18.2729C14.4629 18.2021 14.8496 18.1429 15.1299 18.1021C15.2596 18.0832 15.3665 18.0689 15.4434 18.0591L15.3613 18.4038C15.2918 18.6916 15.1955 19.0849 15.0918 19.5161V19.5171C14.7267 20.9829 14.5286 21.9239 14.4814 22.564C14.434 23.2088 14.5382 23.5692 14.7988 23.854C14.9775 24.0509 15.2232 24.169 15.6221 24.2339C16.0184 24.2983 16.5785 24.3114 17.3975 24.2896ZM12.6455 5.33447C12.1512 5.3344 11.7374 5.13181 11.4453 4.78467C11.1521 4.4361 10.9775 3.93622 10.9775 3.33838C10.9776 2.82194 11.0784 2.39548 11.2764 2.05127C11.4739 1.70789 11.7716 1.43989 12.1758 1.24561H12.1748C12.4084 1.13661 12.6218 1.08949 12.8467 1.10205C13.073 1.11477 13.3186 1.18861 13.6172 1.33252H13.6182C14.1559 1.58858 14.4825 2.10258 14.5674 2.7085C14.6523 3.3148 14.4937 4.0095 14.0605 4.61182C13.8704 4.87587 13.6763 5.05483 13.4541 5.16846C13.232 5.28195 12.9729 5.33447 12.6455 5.33447ZM17.1084 23.3462C16.7878 23.3374 16.469 23.3202 16.2139 23.2964C16.0864 23.2845 15.9761 23.2709 15.8896 23.2563C15.7992 23.2411 15.7462 23.2265 15.7256 23.2163L15.7246 23.2173C15.6636 23.1854 15.6269 23.1607 15.6006 23.1362C15.577 23.1142 15.5597 23.0892 15.5469 23.0483C15.533 23.0041 15.5238 22.9412 15.5195 22.8452C15.5153 22.75 15.5158 22.6281 15.5186 22.4673C15.5211 22.3298 15.5715 21.9998 15.6523 21.562C15.7324 21.1281 15.8405 20.5971 15.957 20.063C16.1899 18.9952 16.4518 17.9282 16.5801 17.5933L16.5986 17.5356C16.6121 17.4759 16.6095 17.412 16.5986 17.354C16.584 17.2759 16.5511 17.1959 16.502 17.1323C16.461 17.0788 16.4126 17.0258 16.3242 16.9966C16.244 16.9702 16.1394 16.9654 15.9922 16.9751C15.6955 16.9946 15.1707 17.0781 14.1914 17.2358H14.1904C12.3615 17.5361 11.1643 17.6758 10.332 17.6489C9.5051 17.6222 9.0524 17.4308 8.69922 17.0776C8.46527 16.8437 8.31343 16.5866 8.23633 16.2808C8.1589 15.9736 8.15515 15.6117 8.22461 15.1675C8.33873 14.4773 8.67693 12.8556 9.0127 11.3364C9.18047 10.5774 9.34736 9.84472 9.48535 9.26807C9.62415 8.68803 9.73122 8.27436 9.78027 8.14502C10.0143 7.52817 10.5151 6.88211 10.9727 6.60107C11.1687 6.4813 11.2624 6.43352 11.4062 6.42432C11.484 6.41934 11.5765 6.42573 11.7041 6.44287L12.2139 6.52686C12.6551 6.6086 12.9036 6.66904 13.1357 6.78955C13.3696 6.91101 13.5926 7.09626 13.9756 7.44092C14.6962 8.09652 15.2629 8.76328 15.6484 9.396C16.0347 10.0299 16.2354 10.6233 16.2354 11.1333C16.2353 11.5042 16.1904 11.7127 16.0977 11.8306C16.0112 11.9402 15.8632 11.9937 15.582 11.9937C14.913 11.9935 14.0773 11.6718 12.8916 10.9478L12.3623 10.6128L11.5918 10.106L11.7891 10.0249H11.7881C12.0107 9.93385 12.1979 9.9068 12.4795 9.97021C12.77 10.0357 13.1591 10.1965 13.7822 10.4917V10.4927C14.3579 10.7642 14.739 10.9207 14.9922 10.9644C15.12 10.9864 15.2321 10.9829 15.3232 10.936C15.3941 10.8995 15.4417 10.8426 15.4746 10.7759L15.5029 10.7065V10.7056C15.5343 10.6082 15.5452 10.5097 15.5137 10.4097C15.4827 10.3115 15.4148 10.2243 15.3164 10.1392C15.1229 9.9718 14.7762 9.78759 14.2275 9.52686L14.2285 9.52588C13.4603 9.15822 12.838 8.95276 12.3037 8.91455C11.765 8.87607 11.3191 9.00803 10.9072 9.30518C10.7163 9.43837 10.5832 9.5917 10.5215 9.76709C10.4591 9.94449 10.4737 10.1316 10.5547 10.3208C10.7134 10.6916 11.1319 11.085 11.7734 11.4907H11.7744C12.0031 11.6323 12.2235 11.7715 12.3936 11.8804C12.5349 11.9708 12.6359 12.0396 12.6807 12.0708C12.68 12.0814 12.68 12.0966 12.6768 12.1157C12.6658 12.18 12.6413 12.2747 12.6016 12.3979C12.5223 12.6437 12.389 12.9895 12.2148 13.4087L11.9941 13.9575C11.927 14.1317 11.8673 14.2941 11.8184 14.436C11.7696 14.5775 11.7313 14.7002 11.7061 14.7944C11.6935 14.8414 11.6836 14.8832 11.6777 14.9175C11.673 14.9454 11.6674 14.9833 11.6738 15.0161L11.6934 15.0972C11.717 15.1771 11.7562 15.2515 11.8311 15.3101C11.9259 15.3842 12.0626 15.4206 12.251 15.436C12.6287 15.4669 13.2919 15.4193 14.4668 15.3159L15.4424 15.2319C16.3163 15.1632 16.8972 15.1403 17.3047 15.1675C17.5749 15.1855 17.7622 15.2256 17.9053 15.2856C18.0463 15.3449 18.1494 15.4259 18.248 15.5347C18.4427 15.7498 18.5283 15.9562 18.5283 16.1772C18.5282 16.4008 18.435 16.8401 18.2422 17.4937C18.0506 18.1431 17.7639 18.9927 17.3877 20.0288C17.2179 20.4943 17.0701 20.9439 16.9658 21.2925C16.9137 21.4667 16.8726 21.6174 16.8447 21.7319C16.8309 21.789 16.8195 21.8386 16.8125 21.8784C16.8062 21.9144 16.801 21.9531 16.8037 21.9829V21.9868H16.8047C16.8211 22.1102 16.9004 22.2006 17.0225 22.2769C17.1423 22.3517 17.3183 22.4234 17.5586 22.5054H17.5596C17.9156 22.6241 18.3091 22.7849 18.4463 22.8579C18.5581 22.9254 18.6172 23.0268 18.627 23.1128C18.6361 23.1945 18.6033 23.2584 18.5264 23.2886L18.5254 23.2896C18.4982 23.3003 18.4392 23.3123 18.3457 23.3228C18.2551 23.3328 18.141 23.3402 18.0107 23.3452C17.7502 23.3552 17.4289 23.355 17.1084 23.3462Z" fill="#005F73" stroke="#005F73" stroke-width="0.2"/>
</svg>
