<svg width="24" height="25" viewBox="0 0 24 25" fill="none" xmlns="http://www.w3.org/2000/svg">
<mask id="path-1-outside-1_12474_324406" maskUnits="userSpaceOnUse" x="3" y="0" width="17" height="25" fill="black">
<rect fill="white" x="3" width="17" height="25"/>
<path d="M12.165 1.14024C10.7575 1.64512 10.1703 3.49634 11.0278 4.75854L11.2515 5.08577L10.3754 5.18862C8.85611 5.36626 6.32087 6.31992 5.7989 6.91829C5.482 7.27358 4.86683 9.0313 4.50332 10.5646C4.35419 11.2378 4.34487 11.3033 4.494 11.6118C4.69906 12.0512 5.06257 12.2663 5.60317 12.2663C6.23698 12.2663 6.63777 11.8549 6.89875 10.9573C7.19702 9.89146 7.56053 9.0126 7.78422 8.78821C7.952 8.61992 8.10113 8.57317 8.48328 8.57317C9.05185 8.57317 9.05185 8.27398 8.47396 10.9573C8.09181 12.7524 8.08249 12.8459 8.18502 13.5285C8.29687 14.2951 8.35279 14.0894 7.34615 16.8943C7.20634 17.2776 6.83351 17.8106 5.84551 18.998C4.10253 21.111 4 21.2512 4 21.6346C4 22.0833 4.21438 22.4573 4.87615 23.1398C5.49132 23.7943 5.81755 24 6.19038 24C6.5166 24 6.66802 23.8598 6.80783 23.7546C6.87774 23.6845 6.84278 23.7195 6.87774 23.6845C6.91269 23.6494 6.90807 23.6541 7.00128 23.5606C7.25294 23.3362 7.22498 22.7191 6.93604 22.289L6.6937 21.9431L8.11045 20.335C9.49924 18.7455 9.5272 18.6894 10.2356 17.2402C10.8974 15.8565 10.9626 15.7724 11.177 15.8098C11.3075 15.8378 11.9599 15.9033 12.6217 15.9687C13.2928 16.0341 13.8427 16.0902 13.8614 16.0996C13.8707 16.1089 13.6656 16.511 13.4046 16.9972C12.5192 18.624 12.1091 19.5309 12.1091 19.8768C12.1091 20.335 12.37 20.737 13.0132 21.2419C14.2621 22.2236 15.0824 22.2984 15.5204 21.4569C15.7162 21.0736 15.623 20.6435 15.2315 20.1199C15.0544 19.8862 14.9053 19.6805 14.9053 19.6524C14.9053 19.6337 15.1756 19.2037 15.4925 18.6988C16.3686 17.3431 16.9092 16.352 17.1516 15.6602C17.338 15.1272 17.3566 15.0057 17.2541 14.6785C17.105 14.1829 16.8347 13.8463 16.3873 13.622C16.0797 13.463 14.3833 13.1171 12.92 12.9207C12.5378 12.874 12.4819 12.8366 12.5378 12.7057C12.6683 12.4065 13.2182 10.4898 13.2275 10.3215C13.2275 10.1813 13.3114 10.2187 13.6749 10.5179C14.6723 11.3594 15.4366 11.4996 16.2288 10.9947C16.7042 10.6862 18.5404 8.81626 18.8293 8.33943C19.0717 7.94675 19.053 7.36707 18.792 6.97439C18.5404 6.59106 17.9811 6.29187 17.6829 6.37602C17.5617 6.41342 17.0024 6.92764 16.4246 7.52602L15.3806 8.61057L15.1103 8.35813C14.9612 8.21789 14.8121 8.13374 14.7655 8.17114C14.7282 8.21789 14.7189 8.18984 14.7561 8.12439C14.8027 8.04025 14.6257 7.77846 14.2435 7.36707C13.5538 6.61911 12.9945 5.77764 13.1623 5.73089C13.2275 5.7122 13.4512 5.64675 13.6656 5.59065C15.0078 5.22602 15.4459 3.05691 14.4392 1.82277C14.0944 1.41138 13.3021 1 12.864 1C12.6776 1.00935 12.37 1.06545 12.165 1.14024ZM13.3953 1.87886C13.9732 2.17805 14.2715 2.72033 14.2621 3.45894C14.2621 4.07602 14.1037 4.5061 13.7775 4.78659C13.5444 4.98293 13.3953 5.02033 12.9386 5.02033C12.165 5.02033 11.7921 4.84268 11.5498 4.3565C11.2795 3.83293 11.3168 2.82317 11.6057 2.43049C12.0718 1.80407 12.8174 1.57968 13.3953 1.87886ZM12.1277 5.88049C12.2116 5.88984 12.2675 5.92724 12.2489 5.96464C12.2209 5.99268 12.3328 6.14228 12.4912 6.29187C13.0318 6.8061 13.1623 7.12399 13.0971 7.72236C12.9852 8.66667 12.1277 11.9577 11.8294 12.5374C11.671 12.8366 11.5498 13.1638 11.5498 13.2573C11.5498 13.463 11.4846 13.4537 13.7868 13.7622C16.2102 14.0894 16.583 14.2671 16.583 15.0711C16.583 15.5573 15.8094 17.0439 14.6163 18.839C14.3647 19.213 14.1596 19.615 14.1596 19.7366C14.1596 19.8581 14.3181 20.1386 14.5138 20.363C14.9332 20.8398 15.0078 20.9988 14.8866 21.2138C14.7468 21.4943 14.4206 21.4008 13.7402 20.9146C12.9759 20.363 12.7615 20.1293 12.7615 19.8581C12.7615 19.7459 13.1809 18.8671 13.6936 17.8947C14.6629 16.0715 14.84 15.6228 14.6163 15.548C14.5418 15.5199 13.7961 15.4358 12.9479 15.3516C9.88139 15.0618 9.10777 14.7252 8.85611 13.5378C8.74426 13.0142 8.77222 12.8366 9.31283 10.2748C9.5272 9.27439 9.68566 8.34878 9.66702 8.21789C9.63905 8.00285 9.57381 7.9561 9.21962 7.89065C8.7163 7.78781 7.71898 7.9374 7.39275 8.15244C7.12245 8.33008 6.80555 9.0126 6.36747 10.3683C6.19038 10.9106 5.99464 11.3967 5.9294 11.4528C5.68706 11.6305 5.49132 11.6398 5.28626 11.4809C5.08121 11.3126 5.08121 11.2846 5.19306 10.7329C5.37015 9.90081 6.04124 7.74106 6.21834 7.47927C6.40475 7.18008 7.15041 6.81545 8.52988 6.34797C9.99324 5.84309 10.9626 5.71219 12.1277 5.88049ZM18.1116 7.28293C18.4285 7.73171 18.326 7.94675 17.2261 9.13415C16.1077 10.3402 15.7348 10.6301 15.3061 10.6301C15.0078 10.6301 14.3647 10.2561 13.8054 9.75122L13.4419 9.41463L13.5817 8.71342C13.6656 8.33008 13.7588 8.0122 13.7961 8.0122C13.8334 8.0122 14.1223 8.30203 14.4392 8.66667C15.2874 9.62033 15.3247 9.61098 16.6762 8.19919C17.2634 7.58212 17.7947 7.07724 17.86 7.07724C17.9159 7.07724 18.0371 7.17073 18.1116 7.28293ZM9.77887 15.4638C10.0398 15.5573 10.2449 15.6602 10.2449 15.6976C10.2449 15.7443 9.9746 16.324 9.63905 16.9878C9.01456 18.2313 8.48328 18.9325 6.63777 20.952C6.26494 21.3541 5.95736 21.7654 5.95736 21.8589C5.95736 21.9524 6.08785 22.2423 6.25562 22.5041C6.57253 23.0089 6.55389 23.2614 6.1997 23.3268C6.01328 23.3642 4.66177 21.9805 4.65245 21.7467C4.65245 21.5598 5.0346 21.0549 6.47932 19.3252C7.10381 18.5772 7.67238 17.8386 7.74694 17.689C7.82151 17.5301 8.08249 16.8289 8.32483 16.1276L8.77222 14.8374L9.05185 15.0711C9.20098 15.1927 9.5272 15.3703 9.77887 15.4638Z"/>
</mask>
<path d="M12.165 1.14024C10.7575 1.64512 10.1703 3.49634 11.0278 4.75854L11.2515 5.08577L10.3754 5.18862C8.85611 5.36626 6.32087 6.31992 5.7989 6.91829C5.482 7.27358 4.86683 9.0313 4.50332 10.5646C4.35419 11.2378 4.34487 11.3033 4.494 11.6118C4.69906 12.0512 5.06257 12.2663 5.60317 12.2663C6.23698 12.2663 6.63777 11.8549 6.89875 10.9573C7.19702 9.89146 7.56053 9.0126 7.78422 8.78821C7.952 8.61992 8.10113 8.57317 8.48328 8.57317C9.05185 8.57317 9.05185 8.27398 8.47396 10.9573C8.09181 12.7524 8.08249 12.8459 8.18502 13.5285C8.29687 14.2951 8.35279 14.0894 7.34615 16.8943C7.20634 17.2776 6.83351 17.8106 5.84551 18.998C4.10253 21.111 4 21.2512 4 21.6346C4 22.0833 4.21438 22.4573 4.87615 23.1398C5.49132 23.7943 5.81755 24 6.19038 24C6.5166 24 6.66802 23.8598 6.80783 23.7546C6.87774 23.6845 6.84278 23.7195 6.87774 23.6845C6.91269 23.6494 6.90807 23.6541 7.00128 23.5606C7.25294 23.3362 7.22498 22.7191 6.93604 22.289L6.6937 21.9431L8.11045 20.335C9.49924 18.7455 9.5272 18.6894 10.2356 17.2402C10.8974 15.8565 10.9626 15.7724 11.177 15.8098C11.3075 15.8378 11.9599 15.9033 12.6217 15.9687C13.2928 16.0341 13.8427 16.0902 13.8614 16.0996C13.8707 16.1089 13.6656 16.511 13.4046 16.9972C12.5192 18.624 12.1091 19.5309 12.1091 19.8768C12.1091 20.335 12.37 20.737 13.0132 21.2419C14.2621 22.2236 15.0824 22.2984 15.5204 21.4569C15.7162 21.0736 15.623 20.6435 15.2315 20.1199C15.0544 19.8862 14.9053 19.6805 14.9053 19.6524C14.9053 19.6337 15.1756 19.2037 15.4925 18.6988C16.3686 17.3431 16.9092 16.352 17.1516 15.6602C17.338 15.1272 17.3566 15.0057 17.2541 14.6785C17.105 14.1829 16.8347 13.8463 16.3873 13.622C16.0797 13.463 14.3833 13.1171 12.92 12.9207C12.5378 12.874 12.4819 12.8366 12.5378 12.7057C12.6683 12.4065 13.2182 10.4898 13.2275 10.3215C13.2275 10.1813 13.3114 10.2187 13.6749 10.5179C14.6723 11.3594 15.4366 11.4996 16.2288 10.9947C16.7042 10.6862 18.5404 8.81626 18.8293 8.33943C19.0717 7.94675 19.053 7.36707 18.792 6.97439C18.5404 6.59106 17.9811 6.29187 17.6829 6.37602C17.5617 6.41342 17.0024 6.92764 16.4246 7.52602L15.3806 8.61057L15.1103 8.35813C14.9612 8.21789 14.8121 8.13374 14.7655 8.17114C14.7282 8.21789 14.7189 8.18984 14.7561 8.12439C14.8027 8.04025 14.6257 7.77846 14.2435 7.36707C13.5538 6.61911 12.9945 5.77764 13.1623 5.73089C13.2275 5.7122 13.4512 5.64675 13.6656 5.59065C15.0078 5.22602 15.4459 3.05691 14.4392 1.82277C14.0944 1.41138 13.3021 1 12.864 1C12.6776 1.00935 12.37 1.06545 12.165 1.14024ZM13.3953 1.87886C13.9732 2.17805 14.2715 2.72033 14.2621 3.45894C14.2621 4.07602 14.1037 4.5061 13.7775 4.78659C13.5444 4.98293 13.3953 5.02033 12.9386 5.02033C12.165 5.02033 11.7921 4.84268 11.5498 4.3565C11.2795 3.83293 11.3168 2.82317 11.6057 2.43049C12.0718 1.80407 12.8174 1.57968 13.3953 1.87886ZM12.1277 5.88049C12.2116 5.88984 12.2675 5.92724 12.2489 5.96464C12.2209 5.99268 12.3328 6.14228 12.4912 6.29187C13.0318 6.8061 13.1623 7.12399 13.0971 7.72236C12.9852 8.66667 12.1277 11.9577 11.8294 12.5374C11.671 12.8366 11.5498 13.1638 11.5498 13.2573C11.5498 13.463 11.4846 13.4537 13.7868 13.7622C16.2102 14.0894 16.583 14.2671 16.583 15.0711C16.583 15.5573 15.8094 17.0439 14.6163 18.839C14.3647 19.213 14.1596 19.615 14.1596 19.7366C14.1596 19.8581 14.3181 20.1386 14.5138 20.363C14.9332 20.8398 15.0078 20.9988 14.8866 21.2138C14.7468 21.4943 14.4206 21.4008 13.7402 20.9146C12.9759 20.363 12.7615 20.1293 12.7615 19.8581C12.7615 19.7459 13.1809 18.8671 13.6936 17.8947C14.6629 16.0715 14.84 15.6228 14.6163 15.548C14.5418 15.5199 13.7961 15.4358 12.9479 15.3516C9.88139 15.0618 9.10777 14.7252 8.85611 13.5378C8.74426 13.0142 8.77222 12.8366 9.31283 10.2748C9.5272 9.27439 9.68566 8.34878 9.66702 8.21789C9.63905 8.00285 9.57381 7.9561 9.21962 7.89065C8.7163 7.78781 7.71898 7.9374 7.39275 8.15244C7.12245 8.33008 6.80555 9.0126 6.36747 10.3683C6.19038 10.9106 5.99464 11.3967 5.9294 11.4528C5.68706 11.6305 5.49132 11.6398 5.28626 11.4809C5.08121 11.3126 5.08121 11.2846 5.19306 10.7329C5.37015 9.90081 6.04124 7.74106 6.21834 7.47927C6.40475 7.18008 7.15041 6.81545 8.52988 6.34797C9.99324 5.84309 10.9626 5.71219 12.1277 5.88049ZM18.1116 7.28293C18.4285 7.73171 18.326 7.94675 17.2261 9.13415C16.1077 10.3402 15.7348 10.6301 15.3061 10.6301C15.0078 10.6301 14.3647 10.2561 13.8054 9.75122L13.4419 9.41463L13.5817 8.71342C13.6656 8.33008 13.7588 8.0122 13.7961 8.0122C13.8334 8.0122 14.1223 8.30203 14.4392 8.66667C15.2874 9.62033 15.3247 9.61098 16.6762 8.19919C17.2634 7.58212 17.7947 7.07724 17.86 7.07724C17.9159 7.07724 18.0371 7.17073 18.1116 7.28293ZM9.77887 15.4638C10.0398 15.5573 10.2449 15.6602 10.2449 15.6976C10.2449 15.7443 9.9746 16.324 9.63905 16.9878C9.01456 18.2313 8.48328 18.9325 6.63777 20.952C6.26494 21.3541 5.95736 21.7654 5.95736 21.8589C5.95736 21.9524 6.08785 22.2423 6.25562 22.5041C6.57253 23.0089 6.55389 23.2614 6.1997 23.3268C6.01328 23.3642 4.66177 21.9805 4.65245 21.7467C4.65245 21.5598 5.0346 21.0549 6.47932 19.3252C7.10381 18.5772 7.67238 17.8386 7.74694 17.689C7.82151 17.5301 8.08249 16.8289 8.32483 16.1276L8.77222 14.8374L9.05185 15.0711C9.20098 15.1927 9.5272 15.3703 9.77887 15.4638Z" fill="#005F73"/>
<path d="M11.5312 5.64675L11.5508 5.7448C11.4454 5.76595 11.2821 5.7664 11.1832 5.74435L11.2049 5.64675L11.2267 5.54914C11.2956 5.5645 11.4305 5.56495 11.5115 5.5487L11.5312 5.64675ZM18.0464 6.57236L18.1172 6.64296C18.0775 6.68275 18.0196 6.6949 17.979 6.69781C17.9329 6.70111 17.8793 6.69485 17.8298 6.67358L17.8693 6.58171L17.9088 6.48984C17.9245 6.49661 17.9454 6.4997 17.9647 6.49833C17.9739 6.49766 17.9804 6.49611 17.9837 6.49498C17.9882 6.49346 17.9832 6.49413 17.9756 6.50176L18.0464 6.57236ZM8.1757 8.07764L8.14049 8.17124C8.11889 8.16311 8.0887 8.14969 8.06615 8.12602C8.0541 8.11336 8.03614 8.08921 8.03381 8.0542C8.03125 8.01572 8.04881 7.98614 8.06643 7.96848C8.09455 7.94027 8.13199 7.9317 8.15017 7.92818C8.17431 7.92352 8.20207 7.92155 8.23162 7.92155V8.02155V8.12154C8.2099 8.12154 8.19572 8.12308 8.18812 8.12455C8.18432 8.12528 8.18415 8.12563 8.18639 8.12473C8.18763 8.12423 8.19739 8.12039 8.20807 8.10968C8.22044 8.09727 8.23553 8.07339 8.23337 8.04094C8.23144 8.01195 8.21676 7.99415 8.21096 7.98807C8.20094 7.97755 8.19522 7.97815 8.2109 7.98405L8.1757 8.07764ZM9.12641 8.04959H9.02641C9.02641 7.99173 9.06412 7.95674 9.09097 7.94075C9.11661 7.92549 9.14518 7.91852 9.16779 7.91482C9.21482 7.90713 9.27157 7.90816 9.32481 7.91395C9.37878 7.91982 9.43631 7.93137 9.48571 7.9486C9.51037 7.9572 9.53564 7.96812 9.55822 7.98212C9.5795 7.99531 9.60642 8.01614 9.62401 8.04789L9.53653 8.09634L9.44905 8.14479C9.45498 8.1555 9.46035 8.15676 9.45282 8.15209C9.4466 8.14824 9.43583 8.14302 9.41986 8.13744C9.388 8.12633 9.34591 8.11743 9.30318 8.11278C9.25971 8.10805 9.22267 8.1085 9.20009 8.1122C9.18789 8.11419 9.1877 8.11592 9.19328 8.1126C9.20007 8.10856 9.22641 8.08876 9.22641 8.04959H9.12641ZM8.25958 8.44228L8.3304 8.51288C8.29073 8.55267 8.23281 8.56482 8.19216 8.56773C8.14613 8.57103 8.09248 8.56477 8.04299 8.5435L8.08249 8.45163L8.12198 8.35976C8.13774 8.36653 8.15866 8.36962 8.17787 8.36824C8.18714 8.36758 8.19361 8.36603 8.19693 8.36489C8.20136 8.36338 8.19637 8.36405 8.18876 8.37168L8.25958 8.44228ZM15.3993 11.163L15.4268 11.2591C15.3822 11.2719 15.3278 11.277 15.2793 11.277C15.2317 11.277 15.1773 11.2722 15.1345 11.2578L15.1663 11.163L15.198 11.0682C15.2111 11.0726 15.2407 11.077 15.2793 11.077C15.3169 11.077 15.3511 11.0728 15.3717 11.0669L15.3993 11.163ZM8.62309 12.902L8.69391 12.8314C8.73352 12.8712 8.74558 12.9291 8.74847 12.9697C8.75175 13.0158 8.74553 13.0694 8.72437 13.119L8.63241 13.0797L8.54045 13.0404C8.54726 13.0245 8.55036 13.0033 8.54898 12.9839C8.54831 12.9746 8.54675 12.968 8.5456 12.9646C8.54406 12.9601 8.54469 12.965 8.55227 12.9726L8.62309 12.902ZM14.4113 13.3041L14.4821 13.3747C14.4424 13.4145 14.3845 13.4266 14.3439 13.4295C14.2978 13.4328 14.2442 13.4266 14.1947 13.4053L14.2342 13.3134L14.2737 13.2215C14.2894 13.2283 14.3104 13.2314 14.3296 13.23C14.3388 13.2294 14.3453 13.2278 14.3486 13.2267C14.3531 13.2252 14.3481 13.2258 14.3405 13.2335L14.4113 13.3041ZM15.623 13.865L15.6938 13.9356C15.6541 13.9754 15.5962 13.9876 15.5556 13.9905C15.5095 13.9938 15.4559 13.9875 15.4064 13.9663L15.4459 13.8744L15.4854 13.7825C15.5011 13.7893 15.5221 13.7924 15.5413 13.791C15.5505 13.7903 15.557 13.7888 15.5603 13.7877C15.5648 13.7861 15.5598 13.7868 15.5522 13.7944L15.623 13.865ZM14.1876 15.6508L14.2151 15.7469C14.1705 15.7597 14.1161 15.7648 14.0676 15.7648C14.02 15.7648 13.9656 15.76 13.9229 15.7457L13.9546 15.6508L13.9863 15.556C13.9994 15.5604 14.029 15.5648 14.0676 15.5648C14.1052 15.5648 14.1394 15.5606 14.16 15.5547L14.1876 15.6508ZM14.4299 15.5854V15.4854C14.5228 15.4854 14.6233 15.5434 14.6685 15.6343L14.5791 15.6789L14.4896 15.7235C14.4789 15.7022 14.4489 15.6854 14.4299 15.6854V15.5854ZM16.9652 15.8378L17.051 15.8891C17.0225 15.9368 16.9958 15.9762 16.9718 16.0018C16.9627 16.0115 16.9408 16.0342 16.9087 16.0441C16.889 16.0502 16.858 16.0536 16.8262 16.0369C16.7957 16.0209 16.7814 15.9952 16.7752 15.9791C16.7643 15.951 16.7661 15.9224 16.7673 15.9085C16.7689 15.8904 16.7725 15.8704 16.7772 15.8498C16.7866 15.8083 16.8025 15.7554 16.824 15.693L16.9186 15.7256L17.0131 15.7582C16.9927 15.8173 16.9794 15.8626 16.9722 15.8942C16.9686 15.9101 16.9671 15.9203 16.9666 15.9259C16.9663 15.9287 16.9665 15.9287 16.9664 15.9267C16.9663 15.9255 16.9659 15.9176 16.9617 15.9068C16.9575 15.896 16.9461 15.874 16.9192 15.8598C16.8909 15.845 16.8642 15.8485 16.8496 15.853C16.8363 15.8571 16.8285 15.8632 16.8269 15.8644C16.8246 15.8661 16.8243 15.8667 16.826 15.8649C16.8343 15.856 16.8519 15.8323 16.8793 15.7865L16.9652 15.8378ZM11.9879 15.735L12.0587 15.8056C12.019 15.8454 11.9611 15.8575 11.9205 15.8604C11.8744 15.8637 11.8208 15.8575 11.7713 15.8362L11.8108 15.7443L11.8503 15.6524C11.866 15.6592 11.887 15.6623 11.9062 15.6609C11.9154 15.6603 11.9219 15.6587 11.9252 15.6576C11.9297 15.6561 11.9247 15.6567 11.9171 15.6644L11.9879 15.735ZM14.5697 20.1667V20.0667C14.5993 20.0667 14.6217 20.0792 14.628 20.0828C14.6382 20.0885 14.6474 20.0951 14.6548 20.1009C14.67 20.1128 14.6863 20.1279 14.7023 20.144C14.7347 20.1765 14.7724 20.2194 14.8072 20.2643L14.7282 20.3256L14.6492 20.3869C14.6187 20.3477 14.5865 20.3111 14.5607 20.2852C14.5475 20.272 14.5376 20.2632 14.5315 20.2584C14.5283 20.2559 14.5281 20.256 14.5304 20.2573C14.5316 20.258 14.535 20.2598 14.5401 20.2617C14.5446 20.2633 14.5553 20.2667 14.5697 20.2667V20.1667ZM4.15845 21.6346L4.25463 21.6072C4.26736 21.6519 4.27243 21.7063 4.27243 21.7549C4.27243 21.8026 4.26758 21.857 4.25335 21.8998L4.15845 21.8683L4.06356 21.8368C4.06797 21.8235 4.07243 21.7937 4.07243 21.7549C4.07243 21.7171 4.06819 21.6827 4.06228 21.6619L4.15845 21.6346ZM12.165 1.14024L12.2335 1.32814L12.2325 1.3285L12.165 1.14024ZM11.0278 4.75854L10.8627 4.8714L10.8624 4.87093L11.0278 4.75854ZM11.2515 5.08577L11.4167 4.97291L11.6032 5.24586L11.2749 5.28441L11.2515 5.08577ZM10.3754 5.18862L10.3987 5.38725L10.3986 5.38726L10.3754 5.18862ZM5.7989 6.91829L5.94963 7.04977L5.94816 7.05142L5.7989 6.91829ZM4.50332 10.5646L4.30803 10.5214L4.30871 10.5185L4.50332 10.5646ZM4.494 11.6118L4.67408 11.5247L4.67524 11.5272L4.494 11.6118ZM6.89875 10.9573L7.09136 11.0112L7.0908 11.0132L6.89875 10.9573ZM7.78422 8.78821L7.64259 8.64701L7.78422 8.78821ZM8.47396 10.9573L8.27834 10.9157L8.27844 10.9152L8.47396 10.9573ZM8.18502 13.5285L8.3828 13.4987L8.38292 13.4996L8.18502 13.5285ZM7.34615 16.8943L7.5344 16.9619L7.53404 16.9628L7.34615 16.8943ZM5.84551 18.998L5.69122 18.8707L5.69177 18.87L5.84551 18.998ZM4.87615 23.1398L5.01975 23.0006L5.02188 23.0029L4.87615 23.1398ZM6.80783 23.7546L6.94947 23.8958L6.93943 23.9058L6.92807 23.9144L6.80783 23.7546ZM6.87774 23.6845L6.7361 23.5432L6.7361 23.5432L6.87774 23.6845ZM7.00128 23.5606L6.8594 23.4191L6.86818 23.4113L7.00128 23.5606ZM6.93604 22.289L7.09987 22.1743L7.10205 22.1775L6.93604 22.289ZM6.6937 21.9431L6.52989 22.0578L6.4396 21.929L6.54363 21.8109L6.6937 21.9431ZM8.11045 20.335L8.26106 20.4666L8.26052 20.4672L8.11045 20.335ZM10.2356 17.2402L10.416 17.3265L10.4153 17.3281L10.2356 17.2402ZM11.177 15.8098L11.2114 15.6126L11.219 15.6142L11.177 15.8098ZM12.6217 15.9687L12.6023 16.1678L12.602 16.1677L12.6217 15.9687ZM13.8614 16.0996L13.951 15.9208L13.9801 15.9354L14.003 15.9584L13.8614 16.0996ZM13.4046 16.9972L13.5809 17.0917L13.5803 17.0928L13.4046 16.9972ZM13.0132 21.2419L13.1367 21.0846L13.1368 21.0846L13.0132 21.2419ZM15.5204 21.4569L15.6986 21.5479L15.6978 21.5493L15.5204 21.4569ZM15.2315 20.1199L15.3909 19.9991L15.3917 20.0002L15.2315 20.1199ZM15.4925 18.6988L15.3231 18.5924L15.3245 18.5902L15.4925 18.6988ZM17.1516 15.6602L17.3404 15.7262L17.3403 15.7263L17.1516 15.6602ZM17.2541 14.6785L17.0632 14.7383L17.0626 14.7361L17.2541 14.6785ZM16.3873 13.622L16.2976 13.8007L16.2955 13.7996L16.3873 13.622ZM12.92 12.9207L12.9442 12.7222L12.9466 12.7225L12.92 12.9207ZM12.5378 12.7057L12.3539 12.6271L12.3545 12.6257L12.5378 12.7057ZM13.2275 10.3215H13.4278L13.4272 10.3326L13.2275 10.3215ZM13.6749 10.5179L13.802 10.3635L13.8039 10.365L13.6749 10.5179ZM16.2288 10.9947L16.3377 11.1625L16.3363 11.1634L16.2288 10.9947ZM18.8293 8.33943L18.6583 8.23578L18.6591 8.2344L18.8293 8.33943ZM18.792 6.97439L18.6255 7.08509L18.6248 7.08415L18.792 6.97439ZM17.6829 6.37602L17.6239 6.18486L17.6286 6.18353L17.6829 6.37602ZM16.4246 7.52602L16.2805 7.38732L16.2807 7.38708L16.4246 7.52602ZM15.3806 8.61057L15.5247 8.74927L15.3881 8.89121L15.2441 8.75674L15.3806 8.61057ZM15.1103 8.35813L14.9738 8.5043L14.9733 8.50383L15.1103 8.35813ZM14.7655 8.17114L14.6091 8.04644L14.623 8.02906L14.6403 8.01515L14.7655 8.17114ZM14.7561 8.12439L14.9311 8.2213L14.9299 8.22339L14.7561 8.12439ZM14.2435 7.36707L14.097 7.50319L14.0965 7.50266L14.2435 7.36707ZM13.1623 5.73089L13.2174 5.92316L13.216 5.92356L13.1623 5.73089ZM13.6656 5.59065L13.7181 5.78366L13.7162 5.78414L13.6656 5.59065ZM14.4392 1.82277L14.5925 1.69427L14.5942 1.69635L14.4392 1.82277ZM12.864 1L12.854 0.800001H12.864V1ZM14.2621 3.45894H14.0621L14.0622 3.45642L14.2621 3.45894ZM13.7775 4.78659L13.9079 4.93825L13.9063 4.93953L13.7775 4.78659ZM11.5498 4.3565L11.7275 4.26475L11.7288 4.26728L11.5498 4.3565ZM11.6057 2.43049L11.4446 2.31195L11.4453 2.31111L11.6057 2.43049ZM12.1277 5.88049L12.1055 6.07936L12.0991 6.07843L12.1277 5.88049ZM12.2489 5.96464L12.4279 6.05386L12.4134 6.08288L12.3905 6.10584L12.2489 5.96464ZM12.4912 6.29187L12.6285 6.14644L12.629 6.14696L12.4912 6.29187ZM13.0971 7.72236L13.2959 7.74404L13.2957 7.74588L13.0971 7.72236ZM11.8294 12.5374L12.0073 12.6289L12.0062 12.631L11.8294 12.5374ZM13.7868 13.7622L13.8134 13.564L13.8136 13.564L13.7868 13.7622ZM14.6163 18.839L14.7829 18.9497L14.7823 18.9507L14.6163 18.839ZM14.5138 20.363L14.3636 20.4951L14.3631 20.4945L14.5138 20.363ZM14.8866 21.2138L14.7074 21.1245L14.7124 21.1156L14.8866 21.2138ZM13.7402 20.9146L13.6239 21.0774L13.6231 21.0768L13.7402 20.9146ZM13.6936 17.8947L13.5167 17.8014L13.517 17.8008L13.6936 17.8947ZM14.6163 15.548L14.5529 15.7378L14.5459 15.7352L14.6163 15.548ZM12.9479 15.3516L12.9667 15.1525L12.9677 15.1526L12.9479 15.3516ZM8.85611 13.5378L9.0517 13.496L9.05176 13.4963L8.85611 13.5378ZM9.31283 10.2748L9.11714 10.2335L9.11727 10.2329L9.31283 10.2748ZM9.66702 8.21789L9.469 8.24609L9.46869 8.24368L9.66702 8.21789ZM9.21962 7.89065L9.18327 8.08736L9.17958 8.0866L9.21962 7.89065ZM7.39275 8.15244L7.50283 8.31942L7.5026 8.31958L7.39275 8.15244ZM6.36747 10.3683L6.55778 10.4298L6.55759 10.4304L6.36747 10.3683ZM5.9294 11.4528L6.05979 11.6045L6.0539 11.6096L6.04764 11.6142L5.9294 11.4528ZM5.28626 11.4809L5.16369 11.639L5.15938 11.6355L5.28626 11.4809ZM5.19306 10.7329L4.99704 10.6932L4.99744 10.6913L5.19306 10.7329ZM6.21834 7.47927L6.38821 7.58511L6.38399 7.59133L6.21834 7.47927ZM8.52988 6.34797L8.59512 6.53703L8.59408 6.53739L8.52988 6.34797ZM18.1116 7.28293L17.9482 7.39834L17.945 7.39363L18.1116 7.28293ZM17.2261 9.13415L17.3729 9.27006L17.3728 9.27014L17.2261 9.13415ZM13.8054 9.75122L13.6714 9.89968L13.6695 9.89797L13.8054 9.75122ZM13.4419 9.41463L13.306 9.56139L13.2239 9.48532L13.2458 9.37553L13.4419 9.41463ZM13.5817 8.71342L13.3856 8.6743L13.3864 8.67066L13.5817 8.71342ZM14.4392 8.66667L14.2898 8.79959L14.2883 8.79786L14.4392 8.66667ZM16.6762 8.19919L16.8211 8.33706L16.8207 8.33749L16.6762 8.19919ZM9.77887 15.4638L9.71141 15.6521L9.70921 15.6513L9.77887 15.4638ZM9.63905 16.9878L9.46033 16.898L9.46056 16.8976L9.63905 16.9878ZM6.63777 20.952L6.78541 21.087L6.78442 21.088L6.63777 20.952ZM6.25562 22.5041L6.42402 22.3961L6.42502 22.3977L6.25562 22.5041ZM6.1997 23.3268L6.16035 23.1307L6.16336 23.1302L6.1997 23.3268ZM4.65245 21.7467L4.45245 21.7547V21.7467H4.65245ZM6.47932 19.3252L6.63284 19.4534L6.63282 19.4534L6.47932 19.3252ZM7.74694 17.689L7.92806 17.774L7.92594 17.7782L7.74694 17.689ZM8.32483 16.1276L8.1358 16.0623L8.13587 16.0621L8.32483 16.1276ZM8.77222 14.8374L8.58326 14.7719L8.67819 14.4981L8.90049 14.6839L8.77222 14.8374ZM9.05185 15.0711L8.92548 15.2262L8.92358 15.2246L9.05185 15.0711ZM12.165 1.14024L12.2325 1.3285C10.952 1.78786 10.4069 3.48868 11.1933 4.64614L11.0278 4.75854L10.8624 4.87093C9.93375 3.50401 10.5631 1.50238 12.0974 0.95199L12.165 1.14024ZM11.0278 4.75854L11.193 4.64567L11.4167 4.97291L11.2515 5.08577L11.0864 5.19864L10.8627 4.8714L11.0278 4.75854ZM11.2515 5.08577L11.2749 5.28441L10.3987 5.38725L10.3754 5.18862L10.3521 4.98998L11.2282 4.88714L11.2515 5.08577ZM10.3754 5.18862L10.3986 5.38726C9.66106 5.47351 8.66422 5.7506 7.78376 6.08281C7.34468 6.24847 6.93932 6.42607 6.61373 6.59753C6.28118 6.77267 6.05391 6.93021 5.94962 7.04976L5.7989 6.91829L5.64819 6.78682C5.80488 6.60719 6.09025 6.42114 6.42734 6.24361C6.77139 6.06243 7.19266 5.87831 7.64255 5.70856C8.54002 5.36993 9.57045 5.08137 10.3522 4.98997L10.3754 5.18862ZM5.7989 6.91829L5.94816 7.05142C5.89152 7.11492 5.80428 7.26547 5.69614 7.50468C5.59131 7.73656 5.47543 8.03185 5.35715 8.36637C5.12066 9.03521 4.87802 9.85112 4.69793 10.6108L4.50332 10.5646L4.30871 10.5185C4.49213 9.74481 4.73883 8.9152 4.98003 8.23303C5.10059 7.89204 5.22064 7.58545 5.33165 7.33991C5.43934 7.10171 5.54784 6.89931 5.64965 6.78516L5.7989 6.91829ZM4.50332 10.5646L4.69859 10.6079C4.62192 10.954 4.58869 11.1145 4.58678 11.2283C4.58525 11.3196 4.60339 11.3785 4.67407 11.5248L4.494 11.6118L4.31393 11.6988C4.23548 11.5365 4.18371 11.4085 4.18684 11.2216C4.18959 11.0573 4.23559 10.8485 4.30805 10.5214L4.50332 10.5646ZM4.494 11.6118L4.67524 11.5272C4.76321 11.7157 4.8799 11.8462 5.02444 11.9316C5.17044 12.0178 5.35911 12.0663 5.60317 12.0663V12.2663V12.4663C5.30662 12.4663 5.04324 12.4072 4.82107 12.276C4.59744 12.144 4.42984 11.9473 4.31276 11.6964L4.494 11.6118ZM5.60317 12.2663V12.0663C5.87062 12.0663 6.07667 11.9821 6.24836 11.8079C6.42713 11.6267 6.58049 11.3356 6.70671 10.9015L6.89875 10.9573L7.0908 11.0132C6.95604 11.4766 6.77851 11.84 6.53318 12.0888C6.28078 12.3448 5.96953 12.4663 5.60317 12.4663V12.2663ZM6.89875 10.9573L6.70615 10.9034C6.85695 10.3646 7.02479 9.87086 7.18439 9.48138C7.26413 9.28678 7.34278 9.11583 7.41727 8.97723C7.48961 8.84264 7.56538 8.72445 7.64259 8.64701L7.78422 8.78821L7.92586 8.92941C7.89122 8.96417 7.83766 9.03999 7.76961 9.1666C7.70371 9.2892 7.6309 9.44666 7.55452 9.63305C7.40187 10.0056 7.23882 10.4842 7.09135 11.0112L6.89875 10.9573ZM7.78422 8.78821L7.64259 8.64701C7.74356 8.54572 7.84995 8.47105 7.99438 8.42648C8.13031 8.38452 8.28804 8.37317 8.48328 8.37317V8.57317V8.77317C8.29637 8.77317 8.18846 8.78519 8.11234 8.80869C8.04472 8.82956 7.99266 8.86241 7.92586 8.92941L7.78422 8.78821ZM8.48328 8.57317V8.37317C8.54716 8.37317 8.60108 8.36905 8.6588 8.36586C8.70864 8.36311 8.7776 8.3596 8.84136 8.37207C8.91671 8.38682 9.00043 8.42682 9.05452 8.51787C9.10018 8.59475 9.10888 8.68338 9.10854 8.75989C9.10785 8.9142 9.0663 9.1493 8.99501 9.49335C8.92246 9.84345 8.8134 10.3311 8.66948 10.9994L8.47396 10.9573L8.27844 10.9152C8.42346 10.2418 8.53111 9.76067 8.60333 9.41218C8.6768 9.05764 8.70807 8.86441 8.70854 8.7581C8.70878 8.7043 8.70016 8.70455 8.71061 8.72215C8.71762 8.73395 8.72879 8.74605 8.743 8.75498C8.75583 8.76305 8.76509 8.76474 8.76455 8.76463C8.75738 8.76323 8.73757 8.76212 8.68084 8.76525C8.63199 8.76795 8.56154 8.77317 8.48328 8.77317V8.57317ZM8.47396 10.9573L8.66958 10.999C8.47751 11.9012 8.38241 12.3615 8.34649 12.6824C8.31212 12.9894 8.33237 13.1631 8.3828 13.4987L8.18502 13.5285L7.98724 13.5582C7.93513 13.2113 7.90878 12.9969 7.94898 12.6379C7.98763 12.2925 8.08826 11.8086 8.27834 10.9157L8.47396 10.9573ZM8.18502 13.5285L8.38292 13.4996C8.40927 13.6802 8.43674 13.8291 8.44253 13.9755C8.4487 14.1311 8.4314 14.2843 8.37915 14.4951C8.27808 14.9031 8.03485 15.5674 7.53439 16.9619L7.34615 16.8943L7.15791 16.8268C7.66409 15.4163 7.89622 14.7811 7.99089 14.399C8.0365 14.2148 8.04716 14.1003 8.04285 13.9913C8.03816 13.8729 8.01669 13.76 7.98711 13.5573L8.18502 13.5285ZM7.34615 16.8943L7.53404 16.9628C7.37992 17.3854 6.98081 17.9462 5.99925 19.1259L5.84551 18.998L5.69177 18.87C6.68621 17.6749 7.03276 17.1699 7.15826 16.8258L7.34615 16.8943ZM5.84551 18.998L5.99979 19.1252C5.12536 20.1853 4.67067 20.7408 4.43287 21.0797C4.31447 21.2485 4.25885 21.3513 4.23094 21.4271C4.20543 21.4964 4.2 21.5508 4.2 21.6346H4H3.8C3.8 21.5266 3.80738 21.4198 3.85557 21.2889C3.90136 21.1646 3.9803 21.0284 4.10541 20.85C4.35462 20.4948 4.82267 19.9236 5.69122 18.8707L5.84551 18.998ZM4 21.6346H4.2C4.2 21.998 4.36114 22.3214 5.01974 23.0006L4.87615 23.1398L4.73256 23.2791C4.06762 22.5933 3.8 22.1687 3.8 21.6346H4ZM4.87615 23.1398L5.02188 23.0029C5.639 23.6594 5.91186 23.8 6.19038 23.8V24V24.2C5.72323 24.2 5.34364 23.9292 4.73042 23.2768L4.87615 23.1398ZM6.19038 24V23.8C6.44184 23.8 6.54374 23.703 6.68759 23.5948L6.80783 23.7546L6.92807 23.9144C6.7923 24.0165 6.59137 24.2 6.19038 24.2V24ZM6.80783 23.7546L6.66619 23.6134C6.7361 23.5432 6.70114 23.5783 6.7361 23.5432L6.87774 23.6845L7.01938 23.8257C6.98442 23.8607 7.01938 23.8257 6.94947 23.8958L6.80783 23.7546ZM6.87774 23.6845L6.7361 23.5432C6.75361 23.5257 6.76124 23.518 6.77608 23.5032C6.79092 23.4883 6.81305 23.4661 6.85964 23.4194L7.00128 23.5606L7.14292 23.7018C7.09631 23.7485 7.07414 23.7708 7.05925 23.7857C7.04435 23.8006 7.03682 23.8082 7.01938 23.8257L6.87774 23.6845ZM7.00128 23.5606L6.86818 23.4113C6.92732 23.3586 6.9821 23.2239 6.97163 23.0118C6.96166 22.8097 6.89296 22.5835 6.77002 22.4006L6.93604 22.289L7.10205 22.1775C7.26806 22.4246 7.35781 22.722 7.37114 22.9921C7.38398 23.2521 7.32691 23.5382 7.13438 23.7098L7.00128 23.5606ZM6.93604 22.289L6.77223 22.4038L6.52989 22.0578L6.6937 21.9431L6.8575 21.8283L7.09984 22.1743L6.93604 22.289ZM6.6937 21.9431L6.54363 21.8109L7.96038 20.2027L8.11045 20.335L8.26052 20.4672L6.84377 22.0753L6.6937 21.9431ZM8.11045 20.335L7.95984 20.2034C8.65691 19.4056 9.00207 19.0041 9.26304 18.6222C9.52238 18.2427 9.7 17.8805 10.0559 17.1524L10.2356 17.2402L10.4153 17.3281C10.0628 18.0492 9.87224 18.4397 9.5933 18.8478C9.316 19.2537 8.95278 19.6749 8.26106 20.4666L8.11045 20.335ZM10.2356 17.2402L10.0552 17.154C10.383 16.4685 10.5719 16.0854 10.7075 15.8814C10.7747 15.7802 10.8468 15.6941 10.9402 15.6455C11.0458 15.5905 11.1439 15.601 11.2113 15.6127L11.177 15.8098L11.1426 16.0068C11.1029 15.9998 11.1124 16.0068 11.1248 16.0003C11.125 16.0002 11.0992 16.0146 11.0406 16.1028C10.9246 16.2774 10.75 16.6282 10.416 17.3265L10.2356 17.2402ZM11.177 15.8098L11.219 15.6142C11.2712 15.6254 11.4533 15.6477 11.7214 15.6763C11.9826 15.7043 12.3104 15.7369 12.6414 15.7697L12.6217 15.9687L12.602 16.1677C12.2712 16.135 11.9419 16.1022 11.6788 16.0741C11.4226 16.0467 11.2132 16.0221 11.1349 16.0053L11.177 15.8098ZM12.6217 15.9687L12.6411 15.7696C12.9768 15.8024 13.2826 15.8328 13.507 15.8563C13.6191 15.868 13.7115 15.878 13.7775 15.8858C13.8103 15.8896 13.8377 15.893 13.8582 15.8959C13.8682 15.8973 13.8783 15.8989 13.8872 15.9005C13.8915 15.9013 13.8977 15.9024 13.9043 15.904C13.9047 15.9041 13.9271 15.9088 13.951 15.9208L13.8614 16.0996L13.7717 16.2784C13.7861 16.2856 13.798 16.2893 13.8013 16.2903C13.8063 16.2918 13.8101 16.2927 13.8118 16.2932C13.8153 16.294 13.8172 16.2943 13.8162 16.2941C13.8147 16.2939 13.8105 16.2932 13.8023 16.292C13.7865 16.2898 13.7627 16.2868 13.7308 16.283C13.6675 16.2756 13.577 16.2658 13.4654 16.2541C13.2424 16.2308 12.9377 16.2005 12.6023 16.1678L12.6217 15.9687ZM13.8614 16.0996L14.003 15.9584C14.0492 16.0048 14.0579 16.0578 14.0601 16.0758C14.0629 16.0983 14.0612 16.1163 14.0603 16.1248C14.0582 16.1426 14.0541 16.1567 14.0525 16.1624C14.0486 16.1757 14.0437 16.1881 14.0404 16.1963C14.033 16.2143 14.0229 16.2366 14.0115 16.2608C13.9882 16.3101 13.9542 16.3785 13.9126 16.4603C13.829 16.6244 13.7118 16.8478 13.5809 17.0917L13.4046 16.9972L13.2284 16.9026C13.3585 16.6603 13.4743 16.4396 13.5561 16.2788C13.5972 16.1982 13.629 16.1339 13.6498 16.0901C13.6603 16.0676 13.6667 16.0532 13.6699 16.0455C13.6718 16.0408 13.6706 16.0432 13.6688 16.0494C13.6682 16.0514 13.6648 16.0627 13.663 16.0784C13.6621 16.0859 13.6605 16.103 13.6631 16.1248C13.6653 16.1421 13.6738 16.1947 13.7197 16.2408L13.8614 16.0996ZM13.4046 16.9972L13.5803 17.0928C13.1383 17.9048 12.8173 18.533 12.6071 18.9995C12.5021 19.2328 12.4262 19.4223 12.377 19.5722C12.3264 19.7259 12.3091 19.823 12.3091 19.8768H12.1091H11.9091C11.9091 19.7577 11.9429 19.6117 11.997 19.4473C12.0523 19.2789 12.1343 19.0752 12.2424 18.8352C12.4588 18.355 12.7855 17.7163 13.229 16.9015L13.4046 16.9972ZM12.1091 19.8768H12.3091C12.3091 20.2402 12.5075 20.5906 13.1367 21.0846L13.0132 21.2419L12.8897 21.3992C12.2326 20.8834 11.9091 20.4297 11.9091 19.8768H12.1091ZM13.0132 21.2419L13.1368 21.0846C13.7544 21.5701 14.233 21.8029 14.5883 21.8338C14.7596 21.8488 14.8986 21.8165 15.0157 21.7454C15.1347 21.6732 15.2456 21.5517 15.343 21.3646L15.5204 21.4569L15.6978 21.5493C15.5762 21.7829 15.4204 21.9676 15.2233 22.0873C15.0244 22.2082 14.7982 22.2536 14.5535 22.2323C14.077 22.1908 13.5209 21.8953 12.8896 21.3991L13.0132 21.2419ZM15.5204 21.4569L15.3423 21.366C15.487 21.0826 15.4436 20.7376 15.0713 20.2397L15.2315 20.1199L15.3917 20.0002C15.8023 20.5494 15.9453 21.0646 15.6986 21.5479L15.5204 21.4569ZM15.2315 20.1199L15.0721 20.2407C14.9831 20.1233 14.9 20.0113 14.8386 19.9244C14.8082 19.8813 14.7814 19.842 14.7616 19.8102C14.7519 19.7947 14.7418 19.7776 14.7335 19.7611C14.7294 19.753 14.724 19.7416 14.7192 19.7284C14.7161 19.7199 14.7053 19.6905 14.7053 19.6524H14.9053H15.1053C15.1053 19.6179 15.0957 19.5933 15.0948 19.591C15.0934 19.5872 15.0922 19.5845 15.0916 19.5831C15.091 19.5817 15.0906 19.5809 15.0906 19.5809C15.0906 19.5808 15.0908 19.5812 15.0913 19.5822C15.0918 19.5831 15.0924 19.5843 15.0934 19.5859C15.0953 19.5892 15.0978 19.5934 15.1011 19.5987C15.1148 19.6207 15.1364 19.6526 15.1654 19.6937C15.2228 19.7751 15.3028 19.8828 15.3909 19.9991L15.2315 20.1199ZM14.9053 19.6524H14.7053C14.7053 19.6264 14.7104 19.6064 14.7122 19.5997C14.7147 19.5905 14.7173 19.5832 14.719 19.5787C14.7224 19.5698 14.7258 19.5624 14.728 19.5579C14.7325 19.5484 14.7377 19.5387 14.7423 19.5303C14.752 19.5127 14.7652 19.4901 14.7807 19.4642C14.8119 19.4118 14.8563 19.3392 14.91 19.2526C15.0176 19.079 15.1648 18.8446 15.3231 18.5925L15.4925 18.6988L15.6619 18.8051C15.5033 19.0578 15.3569 19.2909 15.25 19.4633C15.1966 19.5496 15.1536 19.6196 15.1243 19.6689C15.1094 19.6938 15.099 19.7118 15.0927 19.7233C15.0893 19.7294 15.0884 19.7313 15.0888 19.7305C15.0889 19.7303 15.0908 19.7264 15.0931 19.7203C15.0943 19.7172 15.0965 19.711 15.0987 19.7028C15.1003 19.6971 15.1053 19.6779 15.1053 19.6524H14.9053ZM15.4925 18.6988L15.3245 18.5902C16.1997 17.2359 16.7289 16.2619 16.9628 15.594L17.1516 15.6602L17.3403 15.7263C17.0896 16.4422 16.5375 17.4502 15.6605 18.8073L15.4925 18.6988ZM17.1516 15.6602L16.9628 15.5941C17.0574 15.3237 17.1002 15.1817 17.1124 15.0703C17.1232 14.9719 17.1108 14.8901 17.0633 14.7383L17.2541 14.6785L17.445 14.6187C17.4999 14.794 17.5295 14.9367 17.51 15.114C17.4919 15.2785 17.4322 15.4637 17.3404 15.7262L17.1516 15.6602ZM17.2541 14.6785L17.0626 14.7361C16.9281 14.2891 16.6921 13.9986 16.2976 13.8007L16.3873 13.622L16.4769 13.4432C16.9772 13.6941 17.2819 14.0767 17.4456 14.6208L17.2541 14.6785ZM16.3873 13.622L16.2955 13.7996C16.242 13.772 16.1005 13.7254 15.8718 13.6666C15.6511 13.6099 15.368 13.5464 15.0473 13.4814C14.406 13.3513 13.6204 13.2165 12.8934 13.119L12.92 12.9207L12.9466 12.7225C13.6829 12.8213 14.4772 12.9576 15.1268 13.0894C15.4515 13.1552 15.7417 13.2202 15.9713 13.2792C16.1929 13.3362 16.3788 13.3924 16.4791 13.4443L16.3873 13.622ZM12.92 12.9207L12.8957 13.1193C12.7987 13.1074 12.7169 13.0955 12.6503 13.0816C12.5873 13.0684 12.5206 13.0502 12.4647 13.0181C12.4008 12.9812 12.3371 12.9168 12.3223 12.8172C12.3104 12.7367 12.3372 12.6661 12.3539 12.6271L12.5378 12.7057L12.7217 12.7843C12.7104 12.8107 12.7232 12.7939 12.718 12.7587C12.7148 12.7366 12.7057 12.7148 12.6917 12.6967C12.679 12.6802 12.6669 12.6729 12.6645 12.6715C12.6634 12.6709 12.6788 12.6789 12.732 12.69C12.7817 12.7004 12.8501 12.7107 12.9442 12.7222L12.92 12.9207ZM12.5378 12.7057L12.3545 12.6257C12.4132 12.4912 12.5791 11.9532 12.7359 11.4091C12.8131 11.1413 12.8864 10.8781 12.9408 10.672C12.9681 10.5687 12.9903 10.4809 13.0059 10.4144C13.0234 10.3397 13.0279 10.3103 13.0278 10.3105L13.2275 10.3215L13.4272 10.3326C13.4249 10.3749 13.4102 10.4422 13.3953 10.5056C13.3785 10.5773 13.3552 10.6692 13.3276 10.774C13.2722 10.984 13.198 11.2502 13.1203 11.5199C12.9672 12.0511 12.793 12.621 12.7211 12.7856L12.5378 12.7057ZM13.2275 10.3215H13.0275C13.0275 10.2962 13.0292 10.2628 13.038 10.2282C13.0467 10.194 13.0668 10.1412 13.1166 10.0988C13.2283 10.0036 13.358 10.0554 13.3955 10.0719C13.4501 10.0959 13.5095 10.1355 13.5702 10.1802C13.6337 10.2268 13.7104 10.2881 13.802 10.3635L13.6749 10.5179L13.5478 10.6723C13.4577 10.5981 13.3877 10.5425 13.3332 10.5024C13.2759 10.4602 13.2462 10.4432 13.2344 10.438C13.2054 10.4252 13.2914 10.4753 13.376 10.4032C13.4123 10.3723 13.423 10.3373 13.4257 10.3267C13.4285 10.3157 13.4275 10.3119 13.4275 10.3215H13.2275ZM13.6749 10.5179L13.8039 10.365C14.2905 10.7756 14.6993 10.9965 15.0653 11.0646C15.4223 11.1309 15.7605 11.056 16.1213 10.8261L16.2288 10.9947L16.3363 11.1634C15.9049 11.4383 15.4648 11.5457 14.9922 11.4578C14.5287 11.3716 14.0567 11.1017 13.546 10.6707L13.6749 10.5179ZM16.2288 10.9947L16.1199 10.827C16.2221 10.7607 16.414 10.5977 16.659 10.3702C16.8996 10.1466 17.1805 9.87134 17.4562 9.59017C17.7319 9.30898 18.001 9.02327 18.2186 8.77906C18.4404 8.53007 18.597 8.33689 18.6583 8.23578L18.8293 8.33943L19.0004 8.44308C18.9172 8.58039 18.7359 8.79976 18.5173 9.04513C18.2944 9.29528 18.0207 9.58574 17.7418 9.8702C17.4629 10.1547 17.1775 10.4345 16.9312 10.6633C16.6892 10.888 16.4732 11.0745 16.3377 11.1625L16.2288 10.9947ZM18.8293 8.33943L18.6591 8.2344C18.8585 7.91135 18.8453 7.41591 18.6255 7.08509L18.792 6.97439L18.9586 6.86369C19.2607 7.31823 19.2848 7.98215 18.9995 8.44447L18.8293 8.33943ZM18.792 6.97439L18.6248 7.08415C18.5208 6.92567 18.3457 6.77583 18.1602 6.67603C18.0685 6.6267 17.9798 6.59264 17.9025 6.57519C17.8232 6.55727 17.7686 6.55965 17.7372 6.5685L17.6829 6.37602L17.6286 6.18353C17.7463 6.15031 17.8734 6.15853 17.9907 6.18502C18.11 6.21199 18.2328 6.2609 18.3497 6.32377C18.5813 6.44836 18.8116 6.63978 18.9592 6.86463L18.792 6.97439ZM17.6829 6.37602L17.7418 6.56712C17.757 6.56246 17.7559 6.55976 17.7292 6.57768C17.7076 6.59219 17.6783 6.61391 17.6414 6.64349C17.5677 6.70241 17.472 6.7856 17.36 6.88816C17.1365 7.09284 16.8552 7.36802 16.5684 7.66495L16.4246 7.52602L16.2807 7.38708C16.5718 7.08564 16.8591 6.80452 17.0899 6.59315C17.2051 6.48767 17.3081 6.3979 17.3914 6.33118C17.433 6.29794 17.4718 6.26868 17.5062 6.24557C17.5356 6.22587 17.5785 6.19893 17.6239 6.18491L17.6829 6.37602ZM16.4246 7.52602L16.5687 7.66471L15.5247 8.74927L15.3806 8.61057L15.2365 8.47187L16.2805 7.38732L16.4246 7.52602ZM15.3806 8.61057L15.2441 8.75674L14.9738 8.5043L15.1103 8.35813L15.2468 8.21196L15.5171 8.4644L15.3806 8.61057ZM15.1103 8.35813L14.9733 8.50383C14.9068 8.44131 14.8459 8.39675 14.8032 8.37335C14.7809 8.36111 14.7727 8.3597 14.7768 8.36055C14.7793 8.36108 14.7915 8.36352 14.8102 8.3614C14.8298 8.35917 14.8606 8.35121 14.8906 8.32712L14.7655 8.17114L14.6403 8.01515C14.7229 7.94888 14.8171 7.96026 14.8593 7.96916C14.9091 7.97966 14.9562 8.00103 14.9957 8.02269C15.0765 8.06707 15.1647 8.13471 15.2473 8.21243L15.1103 8.35813ZM14.7655 8.17114L14.9218 8.29584C14.9093 8.31156 14.8804 8.3464 14.8364 8.36962C14.8167 8.38004 14.7557 8.40868 14.679 8.38578C14.5861 8.358 14.5495 8.28132 14.5388 8.2382C14.529 8.19883 14.5328 8.16547 14.5352 8.14981C14.5381 8.13096 14.5429 8.11436 14.5473 8.10132C14.5563 8.07507 14.5687 8.04932 14.5824 8.02539L14.7561 8.12439L14.9299 8.22339C14.9249 8.23219 14.9245 8.23449 14.9259 8.23044C14.9266 8.22851 14.9289 8.22155 14.9305 8.21072C14.9317 8.20311 14.9356 8.17617 14.9269 8.14147C14.9173 8.10303 14.8831 8.02927 14.7936 8.00252C14.7203 7.98064 14.6639 8.0084 14.6497 8.0159C14.6167 8.03328 14.603 8.05409 14.6091 8.04644L14.7655 8.17114ZM14.7561 8.12439L14.5812 8.02749C14.5473 8.08876 14.5748 8.13223 14.5621 8.09852C14.5542 8.0772 14.5344 8.03878 14.495 7.98055C14.4173 7.86581 14.2856 7.70629 14.097 7.50319L14.2435 7.36707L14.39 7.23096C14.5835 7.43924 14.7315 7.61631 14.8262 7.75635C14.873 7.8255 14.9127 7.89402 14.9368 7.95831C14.9562 8.0102 14.9883 8.11794 14.9311 8.22129L14.7561 8.12439ZM14.2435 7.36707L14.0965 7.50266C13.7456 7.12214 13.4264 6.71642 13.2146 6.39644C13.1098 6.23823 13.0254 6.09223 12.9783 5.9766C12.956 5.92206 12.9337 5.85467 12.9323 5.78797C12.9316 5.75344 12.9361 5.70252 12.9644 5.65163C12.9963 5.59421 13.0485 5.55497 13.1086 5.53823L13.1623 5.73089L13.216 5.92356C13.2551 5.91266 13.2921 5.88548 13.314 5.84588C13.3324 5.81282 13.3324 5.7855 13.3323 5.77992C13.3321 5.77111 13.3313 5.78296 13.3487 5.82557C13.3807 5.90424 13.4478 6.02412 13.5481 6.17562C13.7463 6.47504 14.0517 6.86404 14.3905 7.23149L14.2435 7.36707ZM13.1623 5.73089L13.1072 5.53864C13.1711 5.52032 13.3977 5.45401 13.615 5.39717L13.6656 5.59065L13.7162 5.78414C13.5047 5.83949 13.284 5.90407 13.2174 5.92315L13.1623 5.73089ZM13.6656 5.59065L13.6132 5.39765C14.1862 5.24198 14.5949 4.69049 14.7373 3.99278C14.879 3.2985 14.7431 2.51171 14.2843 1.94918L14.4392 1.82277L14.5942 1.69635C15.142 2.36797 15.2904 3.2828 15.1292 4.07277C14.9687 4.8593 14.4872 5.57469 13.7181 5.78366L13.6656 5.59065ZM14.4392 1.82277L14.286 1.95125C14.1363 1.77272 13.8766 1.58172 13.5941 1.43446C13.3079 1.28524 13.0348 1.2 12.864 1.2V1V0.800001C13.1313 0.800001 13.4734 0.92045 13.779 1.07977C14.0884 1.24105 14.3973 1.46143 14.5925 1.69428L14.4392 1.82277ZM12.864 1L12.8741 1.19975C12.7056 1.2082 12.418 1.26086 12.2335 1.32813L12.165 1.14024L12.0964 0.952353C12.3221 0.870039 12.6496 0.810503 12.854 0.800251L12.864 1ZM13.3953 1.87886L13.4873 1.70126C14.1426 2.04055 14.4722 2.65954 14.4621 3.46147L14.2621 3.45894L14.0622 3.45642C14.0707 2.78112 13.8038 2.31555 13.3034 2.05647L13.3953 1.87886ZM14.2621 3.45894H14.4621C14.4621 4.10895 14.2944 4.60587 13.9079 4.93824L13.7775 4.78659L13.6471 4.63494C13.913 4.40633 14.0621 4.04308 14.0621 3.45894H14.2621ZM13.7775 4.78659L13.9063 4.93953C13.7767 5.04874 13.6558 5.1258 13.4948 5.16995C13.3429 5.21164 13.1675 5.22033 12.9386 5.22033V5.02033V4.82033C13.1664 4.82033 13.2939 4.81031 13.389 4.78422C13.4751 4.76059 13.5452 4.72078 13.6486 4.63364L13.7775 4.78659ZM12.9386 5.02033V5.22033C12.5405 5.22033 12.2187 5.17536 11.9588 5.0512C11.6906 4.9231 11.5077 4.72031 11.3708 4.44573L11.5498 4.3565L11.7288 4.26728C11.8343 4.47888 11.9589 4.608 12.1312 4.69026C12.3116 4.77647 12.5631 4.82033 12.9386 4.82033V5.02033ZM11.5498 4.3565L11.3721 4.44825C11.2154 4.14472 11.1559 3.72332 11.1682 3.33806C11.1802 2.95784 11.264 2.55751 11.4446 2.31196L11.6057 2.43049L11.7668 2.54902C11.6586 2.69615 11.5792 2.99704 11.568 3.35076C11.5569 3.69945 11.6139 4.04471 11.7275 4.26476L11.5498 4.3565ZM11.6057 2.43049L11.4453 2.31111C11.9545 1.62659 12.8014 1.34617 13.4873 1.70126L13.3953 1.87886L13.3034 2.05647C12.8334 1.81318 12.189 1.98154 11.7662 2.54987L11.6057 2.43049ZM12.1277 5.88049L12.1498 5.68172C12.2114 5.68857 12.2816 5.70711 12.3399 5.74714C12.369 5.76714 12.4085 5.80171 12.4326 5.85629C12.4601 5.91861 12.4595 5.99029 12.4279 6.05386L12.2489 5.96464L12.0699 5.87541C12.0475 5.92028 12.047 5.97326 12.0666 6.01776C12.0828 6.05452 12.1066 6.07214 12.1136 6.07694C12.1276 6.08659 12.1279 6.08175 12.1055 6.07926L12.1277 5.88049ZM12.2489 5.96464L12.3905 6.10584C12.4469 6.04928 12.4459 5.98298 12.4438 5.96113C12.4425 5.94818 12.44 5.93877 12.4385 5.93399C12.437 5.92893 12.4357 5.92592 12.4354 5.9253C12.435 5.92436 12.4363 5.92745 12.4411 5.9351C12.4456 5.94236 12.4521 5.95182 12.4607 5.96342C12.4962 6.01119 12.5552 6.07727 12.6285 6.14644L12.4912 6.29187L12.3539 6.4373C12.2687 6.35688 12.1926 6.27337 12.1396 6.20193C12.1141 6.16758 12.0877 6.12788 12.0699 6.08782C12.0614 6.06873 12.0494 6.03762 12.0457 6.0001C12.0422 5.96411 12.0439 5.887 12.1072 5.82343L12.2489 5.96464ZM12.4912 6.29187L12.629 6.14696C12.9059 6.41029 13.0975 6.64118 13.2056 6.89793C13.3158 7.15947 13.3305 7.42637 13.2959 7.74404L13.0971 7.72236L12.8982 7.70068C12.9288 7.41997 12.9109 7.22874 12.837 7.05319C12.761 6.87284 12.6171 6.68768 12.3534 6.43678L12.4912 6.29187ZM13.0971 7.72236L13.2957 7.74588C13.2379 8.23388 12.9918 9.3057 12.7266 10.3173C12.5933 10.8258 12.4539 11.3238 12.3288 11.7319C12.2058 12.1334 12.0914 12.4654 12.0073 12.6289L11.8294 12.5374L11.6516 12.4459C11.7166 12.3196 11.8213 12.0228 11.9464 11.6147C12.0694 11.2132 12.2073 10.7207 12.3397 10.2159C12.6058 9.20101 12.8444 8.15514 12.8984 7.69883L13.0971 7.72236ZM11.8294 12.5374L12.0062 12.631C11.9308 12.7733 11.8643 12.9225 11.817 13.046C11.7933 13.1078 11.7753 13.1611 11.7635 13.2023C11.75 13.2499 11.7498 13.2643 11.7498 13.2573H11.5498H11.3498C11.3498 13.2036 11.3648 13.142 11.3789 13.0926C11.3948 13.0369 11.417 12.9721 11.4434 12.903C11.4963 12.7647 11.5696 12.6007 11.6527 12.4438L11.8294 12.5374ZM11.5498 13.2573H11.7498C11.7498 13.3455 11.7582 13.2832 11.7236 13.2451C11.7102 13.2304 11.7029 13.2315 11.726 13.2409C11.7481 13.2499 11.786 13.2617 11.8495 13.2762C12.1093 13.3355 12.6551 13.4087 13.8134 13.564L13.7868 13.7622L13.7602 13.9604C12.6163 13.8071 12.0435 13.7308 11.7605 13.6662C11.6882 13.6497 11.6263 13.6322 11.5752 13.6113C11.5249 13.5909 11.4708 13.5617 11.4275 13.5141C11.3332 13.4102 11.3498 13.272 11.3498 13.2573H11.5498ZM13.7868 13.7622L13.8136 13.564C14.4201 13.6459 14.903 13.719 15.2853 13.7956C15.6657 13.8718 15.9584 13.9535 16.1786 14.0568C16.4027 14.1619 16.5639 14.2951 16.6629 14.4784C16.7592 14.6567 16.783 14.8583 16.783 15.0711H16.583H16.383C16.383 14.8819 16.3602 14.7598 16.3109 14.6685C16.2643 14.5821 16.1808 14.4996 16.0087 14.4189C15.8328 14.3364 15.5779 14.2621 15.2068 14.1878C14.8376 14.1139 14.3652 14.0421 13.76 13.9604L13.7868 13.7622ZM16.583 15.0711H16.783C16.783 15.2326 16.7221 15.4465 16.63 15.6847C16.5352 15.9299 16.3976 16.2245 16.2244 16.5567C15.8777 17.2215 15.3821 18.0482 14.7829 18.9497L14.6163 18.839L14.4498 18.7283C15.0437 17.8347 15.5314 17.0205 15.8697 16.3717C16.039 16.0471 16.1694 15.7668 16.257 15.5404C16.3472 15.307 16.383 15.1528 16.383 15.0711H16.583ZM14.6163 18.839L14.7823 18.9507C14.6605 19.1317 14.5505 19.3187 14.4718 19.4732C14.4324 19.5507 14.4022 19.6172 14.3824 19.669C14.3595 19.729 14.3596 19.7465 14.3596 19.7366H14.1596H13.9596C13.9596 19.6659 13.9853 19.5876 14.0088 19.5263C14.0353 19.4568 14.0721 19.3767 14.1154 19.2917C14.2022 19.1213 14.3205 18.9203 14.4504 18.7274L14.6163 18.839ZM14.1596 19.7366H14.3596C14.3596 19.7305 14.3593 19.7437 14.3743 19.7828C14.3877 19.8179 14.4088 19.8621 14.4374 19.9128C14.4947 20.0142 14.5754 20.1293 14.6645 20.2315L14.5138 20.363L14.3631 20.4945C14.2565 20.3723 14.1601 20.235 14.0892 20.1096C14.0538 20.047 14.023 19.9843 14.0006 19.9256C13.9797 19.8709 13.9596 19.8035 13.9596 19.7366H14.1596ZM14.5138 20.363L14.664 20.2309C14.8705 20.4657 15.0155 20.6468 15.0858 20.8056C15.1235 20.8907 15.1442 20.9782 15.138 21.0705C15.132 21.162 15.1006 21.2415 15.0609 21.312L14.8866 21.2138L14.7124 21.1156C14.7332 21.0786 14.738 21.0576 14.7389 21.044C14.7398 21.031 14.7383 21.0086 14.7201 20.9676C14.6786 20.8739 14.5765 20.7371 14.3636 20.4951L14.5138 20.363ZM14.8866 21.2138L15.0656 21.303C15.0141 21.4064 14.9341 21.4957 14.8151 21.5408C14.7009 21.5841 14.5795 21.5756 14.4646 21.545C14.2417 21.4855 13.9638 21.3202 13.6239 21.0774L13.7402 20.9146L13.8565 20.7519C14.197 20.9952 14.4224 21.1197 14.5677 21.1585C14.6369 21.1769 14.6657 21.1696 14.6733 21.1668C14.6761 21.1657 14.6892 21.1615 14.7076 21.1246L14.8866 21.2138ZM13.7402 20.9146L13.6231 21.0768C13.2413 20.8012 12.9816 20.5946 12.8174 20.417C12.6474 20.2332 12.5615 20.0607 12.5615 19.8581H12.7615H12.9615C12.9615 19.9267 12.9828 20.0067 13.1111 20.1454C13.2451 20.2904 13.4748 20.4764 13.8572 20.7525L13.7402 20.9146ZM12.7615 19.8581H12.5615C12.5615 19.826 12.5681 19.7968 12.5723 19.7799C12.5773 19.7597 12.5839 19.7383 12.5912 19.717C12.6057 19.6743 12.626 19.6223 12.6505 19.5637C12.6996 19.4461 12.7696 19.292 12.8547 19.1131C13.0251 18.7547 13.2594 18.2894 13.5167 17.8014L13.6936 17.8947L13.8705 17.988C13.6151 18.4724 13.3834 18.9327 13.2159 19.2849C13.1321 19.4612 13.0652 19.6087 13.0196 19.7178C12.9967 19.7726 12.9803 19.8153 12.9699 19.8458C12.9647 19.8612 12.9618 19.8711 12.9604 19.8766C12.9582 19.8854 12.9615 19.8762 12.9615 19.8581H12.7615ZM13.6936 17.8947L13.517 17.8008C14.003 16.8867 14.2837 16.3293 14.4162 15.9925C14.4842 15.8196 14.5027 15.7298 14.5028 15.6891C14.5029 15.6724 14.4995 15.6834 14.5121 15.7031C14.5268 15.7261 14.5466 15.7355 14.5529 15.7376L14.6163 15.548L14.6798 15.3583C14.7419 15.3791 14.8052 15.4189 14.8493 15.4879C14.8912 15.5536 14.9031 15.6261 14.9028 15.6905C14.9024 15.812 14.8579 15.9623 14.7885 16.1389C14.646 16.501 14.3535 17.0796 13.8702 17.9886L13.6936 17.8947ZM14.6163 15.548L14.5459 15.7352C14.5571 15.7393 14.5561 15.7377 14.5233 15.7319C14.4974 15.7273 14.4615 15.7218 14.4157 15.7153C14.3243 15.7025 14.1994 15.687 14.0492 15.6695C13.7489 15.6346 13.3517 15.5927 12.9282 15.5506L12.9479 15.3516L12.9677 15.1526C13.3924 15.1947 13.792 15.2369 14.0953 15.2722C14.2468 15.2898 14.3753 15.3058 14.4713 15.3192C14.5191 15.3259 14.5603 15.3322 14.5928 15.338C14.6183 15.3425 14.657 15.3496 14.6867 15.3608L14.6163 15.548ZM12.9479 15.3516L12.9291 15.5507C11.4005 15.4063 10.4081 15.2482 9.76559 14.9642C9.43816 14.8195 9.19234 14.6385 9.01173 14.4032C8.83191 14.1688 8.72721 13.8942 8.66046 13.5793L8.85611 13.5378L9.05176 13.4963C9.11084 13.7751 9.19722 13.9878 9.32906 14.1596C9.46012 14.3304 9.64654 14.4743 9.92729 14.5984C10.5012 14.852 11.4289 15.0072 12.9667 15.1525L12.9479 15.3516ZM8.85611 13.5378L8.66052 13.5796C8.59973 13.295 8.57788 13.0961 8.64175 12.6427C8.70354 12.2041 8.84761 11.5107 9.11714 10.2335L9.31283 10.2748L9.50852 10.3161C9.23744 11.6006 9.09723 12.277 9.03784 12.6985C8.98054 13.1053 9.00064 13.257 9.0517 13.496L8.85611 13.5378ZM9.31283 10.2748L9.11727 10.2329C9.22399 9.73488 9.31665 9.25609 9.38019 8.8864C9.412 8.70135 9.43625 8.54515 9.45133 8.42823C9.45889 8.36961 9.4639 8.32273 9.4665 8.28794C9.46953 8.2473 9.46793 8.23844 9.46901 8.24609L9.66702 8.21789L9.86502 8.18969C9.87077 8.23005 9.86829 8.27875 9.86539 8.31769C9.86205 8.36249 9.85606 8.41721 9.84804 8.4794C9.83196 8.60411 9.80669 8.76639 9.77441 8.95415C9.7098 9.3301 9.61605 9.81431 9.50839 10.3167L9.31283 10.2748ZM9.66702 8.21789L9.46869 8.24368C9.46252 8.19627 9.45614 8.17511 9.45187 8.16535C9.44984 8.16071 9.44993 8.16131 9.44778 8.15975C9.44149 8.15516 9.4233 8.14447 9.37743 8.13068C9.33193 8.117 9.27022 8.10339 9.18328 8.08732L9.21962 7.89065L9.25596 7.69398C9.42409 7.72505 9.57636 7.75842 9.68353 7.8366C9.81651 7.93361 9.84953 8.07049 9.86535 8.1921L9.66702 8.21789ZM9.21962 7.89065L9.17958 8.0866C8.96112 8.04196 8.61257 8.05015 8.2686 8.10025C8.09935 8.1249 7.93755 8.15881 7.8007 8.19845C7.66035 8.23911 7.55945 8.2821 7.50283 8.31942L7.39275 8.15244L7.28268 7.98545C7.38917 7.91526 7.53527 7.85891 7.68939 7.81425C7.84703 7.76858 8.02718 7.7312 8.21095 7.70443C8.57303 7.65168 8.9748 7.63649 9.25966 7.6947L9.21962 7.89065ZM7.39275 8.15244L7.5026 8.31958C7.46638 8.34337 7.41343 8.3951 7.34574 8.49508C7.27936 8.59315 7.20583 8.72704 7.12451 8.90264C6.96183 9.25394 6.776 9.75447 6.55778 10.4298L6.36747 10.3683L6.17716 10.3068C6.39701 9.62643 6.58868 9.10785 6.76154 8.73456C6.848 8.54786 6.93176 8.39308 7.0145 8.27085C7.09595 8.15054 7.18397 8.05033 7.28291 7.9853L7.39275 8.15244ZM6.36747 10.3683L6.55759 10.4304C6.46793 10.7049 6.3732 10.9664 6.29196 11.1677C6.25147 11.2681 6.21335 11.3559 6.18013 11.4238C6.16361 11.4576 6.147 11.4892 6.13077 11.516C6.11804 11.537 6.09405 11.575 6.05979 11.6045L5.9294 11.4528L5.79901 11.3012C5.78106 11.3166 5.77745 11.3272 5.78861 11.3088C5.79626 11.2961 5.80703 11.2763 5.8208 11.2481C5.84816 11.1922 5.88229 11.114 5.92102 11.018C5.99824 10.8267 6.08992 10.5739 6.17735 10.3062L6.36747 10.3683ZM5.9294 11.4528L6.04764 11.6142C5.90922 11.7156 5.76192 11.7858 5.60276 11.7929C5.43874 11.8002 5.29323 11.7393 5.16374 11.639L5.28626 11.4809L5.40879 11.3228C5.48435 11.3814 5.53924 11.3953 5.58494 11.3933C5.6355 11.391 5.70723 11.3677 5.81115 11.2915L5.9294 11.4528ZM5.28626 11.4809L5.15938 11.6355C5.05893 11.553 4.94438 11.4588 4.92225 11.2745C4.9131 11.1984 4.92066 11.1161 4.93385 11.0289C4.94727 10.9402 4.96936 10.8297 4.99704 10.6932L5.19306 10.7329L5.38907 10.7727C5.36083 10.9119 5.34098 11.0119 5.32935 11.0887C5.31748 11.1672 5.31689 11.2059 5.31939 11.2268C5.32056 11.2365 5.30855 11.2404 5.41315 11.3263L5.28626 11.4809ZM5.19306 10.7329L4.99744 10.6913C5.08804 10.2656 5.30245 9.51021 5.51485 8.83242C5.62136 8.49254 5.72827 8.16923 5.8201 7.91349C5.86595 7.78577 5.90862 7.67329 5.94603 7.58333C5.98124 7.49862 6.01785 7.4187 6.05268 7.36721L6.21834 7.47927L6.38399 7.59133C6.37456 7.60528 6.35145 7.65012 6.31538 7.73689C6.28149 7.81839 6.24129 7.9241 6.19656 8.04867C6.10722 8.29751 6.00209 8.61524 5.89655 8.95203C5.68485 9.62759 5.47517 10.3681 5.38867 10.7746L5.19306 10.7329ZM6.21834 7.47927L6.04859 7.3735C6.11524 7.26654 6.22091 7.16947 6.34838 7.07895C6.47794 6.98695 6.64208 6.89334 6.83881 6.79708C7.23224 6.60457 7.77281 6.39335 8.46569 6.15855L8.52988 6.34797L8.59408 6.53739C7.90749 6.77006 7.38549 6.9749 7.01462 7.15638C6.8292 7.2471 6.68575 7.32997 6.57997 7.40509C6.47209 7.4817 6.41464 7.54241 6.38809 7.58503L6.21834 7.47927ZM8.52988 6.34797L8.46465 6.15891C9.94814 5.64708 10.9506 5.50839 12.1563 5.68254L12.1277 5.88049L12.0991 6.07843C10.9746 5.916 10.0383 6.0391 8.59511 6.53703L8.52988 6.34797ZM18.1116 7.28293L18.275 7.16756C18.3592 7.28682 18.4331 7.41389 18.4586 7.56015C18.4854 7.7132 18.4552 7.86181 18.3806 8.01783C18.3082 8.16915 18.1899 8.3363 18.0277 8.53395C17.8642 8.73309 17.6481 8.97294 17.3729 9.27006L17.2261 9.13415L17.0794 8.99824C17.3541 8.70165 17.5632 8.46935 17.7185 8.2802C17.8749 8.08954 17.9686 7.95224 18.0197 7.84528C18.0686 7.74302 18.0734 7.67951 18.0646 7.62891C18.0546 7.57153 18.0225 7.50342 17.9482 7.39829L18.1116 7.28293ZM17.2261 9.13415L17.3728 9.27014C16.8146 9.87201 16.4315 10.2576 16.1303 10.4922C15.8223 10.7321 15.5796 10.8301 15.3061 10.8301V10.6301V10.4301C15.4613 10.4301 15.6194 10.3831 15.8846 10.1766C16.1566 9.96474 16.5192 9.60238 17.0795 8.99815L17.2261 9.13415ZM15.3061 10.6301V10.8301C15.1954 10.8301 15.0724 10.7968 14.9522 10.7503C14.8287 10.7025 14.6931 10.6347 14.5527 10.5527C14.2719 10.3885 13.9603 10.1605 13.6714 9.89967L13.8054 9.75122L13.9395 9.60277C14.2098 9.84685 14.4994 10.0582 14.7545 10.2073C14.8821 10.2819 14.9982 10.3392 15.0966 10.3772C15.1984 10.4166 15.2676 10.4301 15.3061 10.4301V10.6301ZM13.8054 9.75122L13.6695 9.89797L13.306 9.56139L13.4419 9.41463L13.5778 9.26788L13.9413 9.60447L13.8054 9.75122ZM13.4419 9.41463L13.2458 9.37553L13.3856 8.67431L13.5817 8.71342L13.7779 8.75252L13.6381 9.45374L13.4419 9.41463ZM13.5817 8.71342L13.3864 8.67066C13.429 8.47597 13.4745 8.29527 13.5149 8.16127C13.5349 8.0952 13.5551 8.03522 13.5748 7.98928C13.5841 7.96745 13.5968 7.94042 13.6131 7.91583C13.621 7.90395 13.6351 7.8844 13.6563 7.86574C13.6746 7.84969 13.723 7.81219 13.7961 7.81219V8.0122V8.2122C13.8646 8.2122 13.9079 8.17718 13.9206 8.16598C13.9363 8.15216 13.9445 8.13981 13.9462 8.13738C13.95 8.13167 13.9486 8.13247 13.9426 8.14643C13.9316 8.17207 13.9164 8.21552 13.8979 8.27684C13.8614 8.39761 13.8184 8.56752 13.7771 8.75617L13.5817 8.71342ZM13.7961 8.0122V7.81219C13.8502 7.81219 13.8905 7.83403 13.8985 7.8382C13.9143 7.84645 13.9279 7.85563 13.9377 7.86264C13.9579 7.87705 13.9793 7.89491 14 7.91316C14.0423 7.95043 14.0955 8.00174 14.1552 8.0622C14.2752 8.18379 14.4295 8.3506 14.5902 8.53547L14.4392 8.66667L14.2883 8.79786C14.1321 8.61811 13.9835 8.45768 13.8705 8.34319C13.8136 8.28561 13.7678 8.24167 13.7355 8.2132C13.7189 8.19858 13.7092 8.19095 13.7052 8.18809C13.7029 8.18646 13.7062 8.18905 13.7135 8.19288C13.7173 8.19484 13.7251 8.19872 13.7361 8.20244C13.7457 8.20568 13.7673 8.2122 13.7961 8.2122V8.0122ZM14.4392 8.66667L14.5887 8.53375C14.805 8.77692 14.9529 8.93893 15.0788 9.03622C15.1964 9.12705 15.2639 9.13765 15.3279 9.12423C15.4143 9.10612 15.5381 9.03516 15.7427 8.8527C15.9423 8.67459 16.192 8.41581 16.5317 8.06088L16.6762 8.19919L16.8207 8.33749C16.4847 8.68846 16.2229 8.96027 16.0089 9.15118C15.7998 9.33774 15.608 9.47422 15.41 9.51571C15.1898 9.5619 15.0045 9.48425 14.8343 9.35275C14.6724 9.22768 14.4976 9.03324 14.2898 8.79958L14.4392 8.66667ZM16.6762 8.19919L16.5313 8.06132C16.8266 7.75101 17.1087 7.468 17.3262 7.26171C17.4346 7.15888 17.5289 7.07321 17.6018 7.01232C17.6378 6.98223 17.6718 6.95542 17.7014 6.93512C17.716 6.92516 17.7335 6.914 17.7522 6.90454C17.7628 6.89917 17.8052 6.87724 17.86 6.87724V7.07724V7.27724C17.8876 7.27724 17.9077 7.27109 17.9155 7.26853C17.9247 7.26547 17.9307 7.26249 17.9325 7.26157C17.936 7.25982 17.9348 7.2601 17.9275 7.26515C17.9133 7.27487 17.8905 7.29233 17.8583 7.31922C17.7948 7.37227 17.7074 7.45138 17.6015 7.55191C17.3902 7.75233 17.113 8.03029 16.8211 8.33706L16.6762 8.19919ZM17.86 7.07724V6.87724C17.9217 6.87724 17.9739 6.9003 18.0041 6.91586C18.0393 6.934 18.0732 6.95733 18.104 6.98202C18.1653 7.03122 18.2286 7.09761 18.2782 7.17223L18.1116 7.28293L17.945 7.39363C17.9201 7.35605 17.8855 7.3196 17.8536 7.29399C17.8378 7.28129 17.8263 7.27423 17.8207 7.27134C17.818 7.26995 17.8191 7.27079 17.8237 7.27223C17.8275 7.27343 17.8405 7.27724 17.86 7.27724V7.07724ZM9.77887 15.4638L9.84632 15.2755C9.98209 15.3242 10.1064 15.3763 10.1994 15.423C10.245 15.4458 10.2888 15.4702 10.3237 15.4947C10.3406 15.5066 10.3623 15.5232 10.382 15.5444C10.3929 15.5561 10.4449 15.6112 10.4449 15.6976H10.2449H10.0449C10.0449 15.7402 10.0591 15.7714 10.0675 15.7866C10.0764 15.8026 10.0853 15.8127 10.0892 15.8169C10.0966 15.8249 10.1003 15.8266 10.0939 15.8221C10.0822 15.8139 10.0584 15.7997 10.0201 15.7805C9.94531 15.743 9.83662 15.697 9.71141 15.6521L9.77887 15.4638ZM10.2449 15.6976H10.4449C10.4449 15.7329 10.4352 15.7636 10.4336 15.7691C10.4297 15.7824 10.4249 15.7961 10.4201 15.809C10.4104 15.8351 10.397 15.8676 10.3812 15.9044C10.3494 15.9786 10.3041 16.0784 10.2489 16.1961C10.1384 16.432 9.98604 16.7447 9.81755 17.078L9.63905 16.9878L9.46056 16.8976C9.62762 16.5671 9.77818 16.258 9.8867 16.0264C9.94106 15.9104 9.98429 15.8151 10.0136 15.7467C10.0284 15.7122 10.0388 15.6866 10.0452 15.6694C10.0467 15.6653 10.0479 15.6621 10.0487 15.6596C10.0491 15.6584 10.0495 15.6574 10.0497 15.6568C10.0499 15.6561 10.05 15.6558 10.05 15.6558C10.05 15.6558 10.0499 15.6559 10.0499 15.6562C10.0498 15.6564 10.0497 15.6568 10.0496 15.6573C10.0493 15.6582 10.0489 15.66 10.0484 15.6624C10.0479 15.6649 10.0449 15.6786 10.0449 15.6976H10.2449ZM9.63905 16.9878L9.81778 17.0776C9.18049 18.3466 8.63377 19.0643 6.78541 21.087L6.63777 20.952L6.49013 20.8171C8.33279 18.8007 8.84864 18.116 9.46033 16.898L9.63905 16.9878ZM6.63777 20.952L6.78442 21.088C6.60196 21.2848 6.43648 21.4828 6.3178 21.6411C6.25818 21.7207 6.2126 21.7873 6.18292 21.8369C6.16794 21.862 6.15912 21.8793 6.15466 21.8895C6.14739 21.9062 6.15736 21.8909 6.15736 21.8589H5.95736H5.75736C5.75736 21.8037 5.77693 21.755 5.78794 21.7298C5.80176 21.698 5.81988 21.6647 5.83957 21.6317C5.8792 21.5654 5.93383 21.4865 5.99771 21.4012C6.12603 21.23 6.30075 21.0213 6.49113 20.816L6.63777 20.952ZM5.95736 21.8589H6.15736C6.15736 21.8477 6.15605 21.8571 6.17004 21.8989C6.18196 21.9346 6.20052 21.9808 6.22537 22.035C6.27497 22.1432 6.34503 22.2729 6.42401 22.3961L6.25562 22.5041L6.08723 22.612C5.99844 22.4734 5.91936 22.3273 5.86178 22.2018C5.83303 22.1391 5.80849 22.079 5.7907 22.0258C5.77498 21.9788 5.75736 21.9169 5.75736 21.8589H5.95736ZM6.25562 22.5041L6.42502 22.3977C6.50807 22.5301 6.57326 22.6522 6.61674 22.7638C6.65957 22.8737 6.68634 22.9859 6.67884 23.0941C6.67084 23.2095 6.62381 23.3137 6.53409 23.3922C6.4503 23.4655 6.34381 23.5036 6.23604 23.5235L6.1997 23.3268L6.16336 23.1302C6.23268 23.1173 6.26134 23.0994 6.27076 23.0911C6.27425 23.0881 6.27848 23.0854 6.2798 23.0664C6.28162 23.0401 6.27577 22.9905 6.24403 22.909C6.21294 22.8292 6.16162 22.7305 6.08623 22.6104L6.25562 22.5041ZM6.1997 23.3268L6.23904 23.5229C6.16725 23.5373 6.1047 23.5145 6.07678 23.5033C6.04099 23.4888 6.00553 23.4688 5.97307 23.4482C5.90741 23.4066 5.83154 23.3483 5.75224 23.282C5.5924 23.1482 5.40065 22.9664 5.21668 22.7783C5.0326 22.5901 4.85242 22.3916 4.71637 22.2232C4.64866 22.1394 4.58913 22.0597 4.54516 21.9905C4.52326 21.9561 4.50296 21.9207 4.4873 21.8863C4.47351 21.856 4.45476 21.8085 4.45261 21.7547L4.65245 21.7467L4.85229 21.7388C4.85131 21.7142 4.84421 21.7049 4.85134 21.7205C4.85659 21.7321 4.86646 21.7504 4.88277 21.776C4.91522 21.8271 4.96427 21.8936 5.02748 21.9718C5.15329 22.1275 5.32439 22.3164 5.50265 22.4986C5.68102 22.681 5.86269 22.8528 6.00898 22.9752C6.08273 23.037 6.14311 23.0824 6.18708 23.1103C6.20943 23.1244 6.22213 23.1306 6.22662 23.1324C6.23898 23.1374 6.20884 23.121 6.16036 23.1307L6.1997 23.3268ZM4.65245 21.7467H4.45245C4.45245 21.6425 4.50184 21.5356 4.56175 21.4324C4.62632 21.3211 4.72506 21.1787 4.86449 20.994C5.14407 20.6236 5.60395 20.0612 6.32582 19.197L6.47932 19.3252L6.63282 19.4534C5.90997 20.3188 5.45642 20.8737 5.18374 21.235C5.04705 21.4161 4.95996 21.5431 4.90773 21.6331C4.85084 21.7312 4.85245 21.7575 4.85245 21.7467H4.65245ZM6.47932 19.3252L6.32579 19.197C6.63658 18.8248 6.93327 18.4551 7.16113 18.1604C7.27513 18.0129 7.37125 17.8851 7.44303 17.7856C7.5187 17.6807 7.5579 17.6199 7.56795 17.5998L7.74694 17.689L7.92594 17.7782C7.8987 17.8329 7.83887 17.9206 7.76745 18.0196C7.69213 18.124 7.5931 18.2557 7.47757 18.4051C7.24639 18.7041 6.94655 19.0777 6.63284 19.4534L6.47932 19.3252ZM7.74694 17.689L7.56588 17.6041C7.63497 17.4568 7.89232 16.7668 8.1358 16.0623L8.32483 16.1276L8.51386 16.193C8.27266 16.8909 8.00804 17.6034 7.92801 17.774L7.74694 17.689ZM8.32483 16.1276L8.13587 16.0621L8.58326 14.7719L8.77222 14.8374L8.96119 14.9029L8.51379 16.1932L8.32483 16.1276ZM8.77222 14.8374L8.90049 14.6839L9.18012 14.9177L9.05185 15.0711L8.92358 15.2246L8.64395 14.9908L8.77222 14.8374ZM9.05185 15.0711L9.1782 14.9161C9.30577 15.0201 9.61104 15.1881 9.84852 15.2763L9.77887 15.4638L9.70921 15.6513C9.44337 15.5525 9.09619 15.3653 8.92549 15.2262L9.05185 15.0711Z" fill="#005F73" mask="url(#path-1-outside-1_12474_324406)"/>
</svg>
