<svg width="24" height="24" viewBox="0 0 24 24" fill="none" xmlns="http://www.w3.org/2000/svg">
<path d="M9.50021 6.49989C9.50021 5.33322 8.68727 4.16704 5.50021 6.99993C1.00018 10.9999 2.50021 19.9999 3.00021 20.4999C3.50021 20.9999 9.00021 18.4999 9.50021 17.4999C10.0002 16.4999 9.00021 14.9999 10.0002 12.9999M14.5002 6.49987C14.5002 5.3332 15.3131 4.16702 18.5002 6.99991C23.0002 10.9999 21.5002 19.9999 21.0002 20.4999C20.5002 20.9999 15.0002 18.4999 14.5002 17.4999C14.0002 16.4999 15.0002 14.9999 14.0002 12.9999M17.0002 14.5C17.0002 12.1389 15.4807 10.9617 14.3235 10.1959C11.9366 8.61644 12.0002 5.67554 12.0002 3.13888C12.0002 5.67554 12.0639 8.61644 9.67697 10.1959C8.51974 10.9617 7.00024 12.1389 7.00024 14.5" stroke="#005F73" stroke-width="1.5" stroke-linecap="round" stroke-linejoin="round"/>
</svg>
