<svg width="25" height="24" viewBox="0 0 25 24" fill="none" xmlns="http://www.w3.org/2000/svg">
<path d="M14.9385 2.25H10.9385C8.86848 2.25 7.18848 3.93 7.18848 6V14C7.18848 16.07 8.86848 17.75 10.9385 17.75H11.9885C11.8885 18.46 11.9985 19.04 12.3585 19.47C12.9085 20.14 13.7685 20.2 14.4585 20.25C14.7385 20.27 15.1985 20.3 15.2885 20.38C15.2885 20.38 15.3285 20.48 15.2285 20.75C15.0885 21.14 15.2985 21.57 15.6885 21.71C15.7685 21.74 15.8585 21.75 15.9385 21.75C16.2485 21.75 16.5385 21.56 16.6485 21.25C16.8685 20.62 16.8485 20.07 16.5885 19.62C16.1385 18.86 15.2585 18.8 14.5585 18.75C14.1585 18.72 13.6585 18.69 13.5285 18.52C13.4485 18.43 13.4185 18.17 13.5085 17.74H14.9485C17.0185 17.74 18.6985 16.06 18.6985 13.99V6C18.6985 3.93 17.0185 2.25 14.9485 2.25H14.9385ZM17.1885 14C17.1885 15.24 16.1785 16.25 14.9385 16.25H10.9385C9.69848 16.25 8.68848 15.24 8.68848 14V13.75H10.9385C11.3485 13.75 11.6885 13.41 11.6885 13C11.6885 12.59 11.3485 12.25 10.9385 12.25H8.68848V10.75H10.9385C11.3485 10.75 11.6885 10.41 11.6885 10C11.6885 9.59 11.3485 9.25 10.9385 9.25H8.68848V7.75H10.9385C11.3485 7.75 11.6885 7.41 11.6885 7C11.6885 6.59 11.3485 6.25 10.9385 6.25H8.68848V6C8.68848 4.76 9.69848 3.75 10.9385 3.75H14.9385C16.1785 3.75 17.1885 4.76 17.1885 6V14Z" fill="#005F73"/>
</svg>
