<svg width="24" height="24" viewBox="0 0 24 24" fill="none" xmlns="http://www.w3.org/2000/svg">
<g clip-path="url(#clip0_12474_324545)">
<path d="M6.63281 18.8367C7.50242 19.7845 8.95553 19.7922 9.86621 18.8621H9.86719L10.1045 18.6169L10.3926 18.6794C11.9424 19.0122 13.4894 18.8215 14.8789 18.1267H14.8799C15.3738 17.875 15.6514 17.6929 16.1016 17.3328L16.415 17.0808L16.7148 17.1804C18.0782 17.6349 19.5259 16.8287 19.8535 15.4353C20.098 14.403 19.6373 13.3325 18.7148 12.781L18.5312 12.6736L18.5059 11.9958C18.4631 10.8902 18.2012 9.91485 17.7061 9.01929L17.707 9.01831L17.5518 8.73413L17.668 8.55933C18.0448 8.00138 18.1957 7.14679 18.0293 6.49097C17.8011 5.57449 17.1324 4.86286 16.2559 4.573L16.0781 4.52026C15.8959 4.47286 15.6606 4.45171 15.4307 4.45288C15.2007 4.45408 14.9674 4.47774 14.79 4.52515C14.2265 4.67576 13.6767 5.03941 13.3574 5.46655V5.46753C13.3031 5.54078 13.254 5.60757 13.2188 5.65698C13.2099 5.66935 13.2024 5.68123 13.1953 5.69116C13.1944 5.69251 13.1933 5.69377 13.1924 5.69507C13.172 5.69258 13.1462 5.68847 13.1162 5.68433C13.0323 5.67274 12.9161 5.65546 12.7881 5.63452L12.7871 5.63354C12.2887 5.55816 11.4706 5.56775 10.874 5.65112L10.6338 5.69116C9.8669 5.83888 8.94032 6.20863 8.30566 6.62378V6.62476C8.22977 6.67302 8.15659 6.71751 8.10059 6.74976C8.0772 6.76322 8.05735 6.77393 8.04199 6.78198C8.03706 6.77911 8.03144 6.77597 8.02539 6.77222C7.99479 6.75322 7.95566 6.72589 7.91602 6.69507L7.91504 6.69409C6.99996 5.99559 5.61308 6.1318 4.77441 6.98022H4.77344C3.68853 8.09446 3.89442 9.88913 5.21289 10.7341L5.33203 10.8152C5.35941 10.8362 5.36859 10.8478 5.37207 10.8533C5.37415 10.8566 5.38054 10.8603 5.36523 10.947V10.948C5.07089 12.7238 5.3798 14.333 6.30273 15.7937V15.7947C6.34986 15.8689 6.38358 15.9229 6.40723 15.9646C6.43116 16.0068 6.44097 16.0294 6.44434 16.0427C6.4464 16.0511 6.44562 16.0529 6.44434 16.0564C6.44075 16.0662 6.43258 16.0802 6.41113 16.113C5.85236 16.9758 5.94087 18.0809 6.63281 18.8367ZM15.4434 8.59546C15.2606 8.59545 15.1555 8.59069 15.0693 8.57397C14.9858 8.55777 14.9157 8.52923 14.8037 8.47437H14.8027C14.6591 8.40577 14.5014 8.28523 14.3623 8.14331C14.2234 8.00155 14.1081 7.84388 14.0439 7.70288V7.7019C13.9801 7.56389 13.9443 7.33765 13.9443 7.10132C13.9444 6.86519 13.9802 6.63967 14.0439 6.50171C14.0971 6.38694 14.196 6.24444 14.3125 6.11206C14.4289 5.97977 14.5564 5.86509 14.6621 5.79956C15.0636 5.55083 15.6647 5.52398 16.0938 5.73413C16.4057 5.88353 16.6802 6.16248 16.8252 6.46558C16.8989 6.62415 16.9409 6.85421 16.9443 7.0896C16.9477 7.32581 16.9124 7.5518 16.8438 7.7019L16.8428 7.70288C16.7786 7.84392 16.6633 8.00155 16.5244 8.14331C16.3853 8.28523 16.2286 8.40577 16.085 8.47437H16.084C15.9717 8.52937 15.901 8.55775 15.8174 8.57397C15.7312 8.59063 15.626 8.59546 15.4434 8.59546ZM16.8301 14.6052C15.7991 16.7546 13.4413 18.0036 11.0752 17.6492L11.0762 17.6482C10.9014 17.621 10.7745 17.6017 10.6807 17.5818C10.5849 17.5615 10.5372 17.5436 10.5117 17.5261C10.4943 17.5142 10.4845 17.5007 10.4775 17.4666C10.4732 17.4455 10.4712 17.4204 10.4697 17.3884L10.4668 17.2673C10.4422 15.81 8.99646 14.8012 7.58594 15.2371V15.238C7.48531 15.2682 7.42979 15.2874 7.38477 15.2947C7.35015 15.3002 7.34 15.2951 7.32812 15.2859C7.30576 15.2685 7.27449 15.2289 7.22266 15.1375L7.01953 14.7527C6.56294 13.8671 6.40723 13.2261 6.40723 12.2107C6.40725 11.4704 6.47197 11.0455 6.67871 10.4343C7.09729 9.2062 8.00029 8.1138 9.14746 7.44116H9.14648C9.67939 7.13336 10.4602 6.85687 11.1045 6.75562H11.1035C11.2534 6.73357 11.6422 6.72572 12.0186 6.73218C12.2051 6.73538 12.3857 6.74226 12.5273 6.75171C12.5981 6.75643 12.6582 6.76146 12.7041 6.76733C12.7271 6.77028 12.7459 6.7733 12.7598 6.77612C12.7737 6.77896 12.7793 6.78104 12.7793 6.78101L12.7822 6.78198C12.7864 6.78359 12.7893 6.78503 12.791 6.78589C12.7922 6.78814 12.7955 6.79529 12.7988 6.81226C12.8095 6.86739 12.8125 6.96854 12.8125 7.17163C12.8125 7.52768 12.8422 7.70328 12.9307 7.96362V7.96558C13.1981 8.70927 13.8003 9.32698 14.541 9.59546C14.6978 9.65483 14.8091 9.69057 14.9443 9.70972C15.0768 9.72847 15.2292 9.73059 15.4668 9.72827C15.7011 9.72827 15.8533 9.72321 15.9844 9.70386C16.1177 9.68418 16.2264 9.65021 16.374 9.59546H16.375C16.4655 9.56065 16.5513 9.529 16.6162 9.50659C16.6361 9.49974 16.6538 9.49394 16.6689 9.48901C16.6787 9.5049 16.6918 9.52415 16.7051 9.54858C16.7457 9.62362 16.7969 9.72961 16.8506 9.84839C16.9583 10.0864 17.0721 10.3695 17.1289 10.5535C17.5481 11.9359 17.4471 13.3206 16.8301 14.6052ZM5.71973 9.71362C5.68423 9.6851 5.64056 9.64242 5.59473 9.59155C5.50238 9.48907 5.41065 9.36235 5.3623 9.26147L5.36133 9.2605C4.82083 8.15709 5.90451 7.01503 7.02734 7.4978L7.02832 7.49878L7.14551 7.54858L6.8877 7.85229C6.47431 8.33229 6.08932 8.93065 5.85547 9.44604C5.81155 9.54314 5.76948 9.63032 5.73633 9.69214C5.73153 9.70109 5.72591 9.70898 5.72168 9.71655C5.72082 9.71587 5.72061 9.71433 5.71973 9.71362ZM17.2393 16.1589H17.2363C17.2392 16.153 17.242 16.146 17.2461 16.1384C17.2746 16.0867 17.3226 16.015 17.3916 15.9138H17.3926C17.726 15.4185 18.0106 14.8285 18.1963 14.2478H18.1973C18.2391 14.1153 18.279 13.9953 18.3105 13.9099C18.3125 13.9045 18.3145 13.8993 18.3164 13.8943C18.3431 13.9191 18.3743 13.9473 18.4053 13.9783C18.7506 14.342 18.8663 14.8146 18.7188 15.2791V15.28C18.6591 15.4759 18.5899 15.585 18.4014 15.7781C18.2554 15.9217 18.1203 16.0174 17.9766 16.0779C17.8329 16.1383 17.6739 16.1658 17.4775 16.1658C17.3654 16.1658 17.2895 16.1651 17.2393 16.1589ZM8.60352 18.364C8.32229 18.4505 8.03481 18.4282 7.78711 18.3044C6.97825 17.9 6.98595 16.7509 7.79785 16.3748H7.79883L7.90527 16.3318C8.16393 16.2455 8.48612 16.2527 8.69824 16.3513L8.7793 16.3962C8.86185 16.4476 8.94773 16.5188 9.02637 16.6003C9.1309 16.7088 9.21616 16.8292 9.26172 16.9363L9.29004 17.0222C9.31463 17.115 9.32854 17.2281 9.32812 17.3455C9.32755 17.5017 9.3021 17.6543 9.25684 17.7654C9.21562 17.8674 9.11192 18.0011 8.98145 18.1208C8.85091 18.2406 8.70989 18.3328 8.60449 18.364H8.60352Z" fill="#005F73" stroke="#005F73" stroke-width="0.2"/>
<path d="M3.31934 18.0996C3.4184 18.0996 3.50775 18.0827 3.58496 18.0371C3.6625 17.9913 3.71822 17.9224 3.76172 17.8379L3.79785 17.7588C3.82827 17.6798 3.84016 17.6011 3.82129 17.5117C3.798 17.4018 3.73052 17.2859 3.63086 17.1406C1.63313 14.2222 1.37347 10.4519 2.95508 7.29492L3.07812 7.05762C4.38625 4.62518 6.72446 2.82034 9.39746 2.19043L9.6875 2.125C10.3372 1.98596 10.8141 1.94824 11.6426 1.94824C12.9092 1.94826 13.9126 2.11668 15.0029 2.51953L15.4541 2.70605C15.6194 2.77921 15.7918 2.85957 15.9473 2.93555C16.0872 3.00397 16.2116 3.06981 16.3037 3.12109C16.2579 3.13356 16.2068 3.14833 16.1543 3.16113C15.9602 3.2086 15.8227 3.25109 15.7266 3.31348C15.6207 3.38221 15.5707 3.4703 15.5371 3.58301C15.5028 3.69842 15.5032 3.81254 15.5479 3.91699C15.5923 4.02075 15.6758 4.10404 15.7871 4.16797L15.9189 4.24609L15.9541 4.2666L15.9932 4.25781L16.8965 4.04102C17.2844 3.94774 17.5191 3.88923 17.6689 3.83984C17.8197 3.79017 17.8973 3.74616 17.9629 3.67871L18.0264 3.60645C18.0455 3.58005 18.0627 3.55088 18.0752 3.5166C18.0998 3.4491 18.1046 3.3726 18.0967 3.2793C18.0812 3.0968 18.0117 2.81119 17.8857 2.32227C17.7905 1.95818 17.7318 1.74257 17.6836 1.60938C17.6339 1.47198 17.5896 1.40452 17.5146 1.35059L17.5137 1.35156C17.3008 1.19232 17.0195 1.22467 16.8447 1.41992C16.7705 1.50332 16.7198 1.58417 16.71 1.7002C16.701 1.80596 16.7271 1.93332 16.7725 2.10645C16.7799 2.13705 16.7852 2.16692 16.791 2.19434C16.7843 2.19137 16.7776 2.18773 16.7705 2.18457C16.6617 2.13585 16.5131 2.06595 16.3516 1.9873C15.1378 1.39554 13.9225 1.06015 12.5664 0.938477L12.5674 0.9375C12.1176 0.89549 11.233 0.886895 10.8838 0.920898C8.99357 1.10154 7.52318 1.56696 6.05566 2.45801L5.76172 2.6416C4.66864 3.35161 3.47268 4.52149 2.74512 5.60156C1.65851 7.21466 1.05183 8.99088 0.924805 10.9316L0.905273 11.3223C0.83387 13.5052 1.44298 15.6798 2.64844 17.5225C2.79823 17.7521 2.89958 17.8972 2.99316 17.9824C3.04255 18.0274 3.09257 18.0585 3.14941 18.0771C3.20512 18.0954 3.26169 18.0996 3.31934 18.0996Z" fill="#005F73" stroke="#005F73" stroke-width="0.2"/>
<path d="M6.65918 21.9639C10.3252 23.691 14.6711 23.4351 18.0625 21.292C19.2457 20.549 20.3965 19.4585 21.1885 18.3418C22.1265 17.0121 22.7251 15.5748 22.9941 13.9824L23.0439 13.6621V13.6611C23.0868 13.346 23.1046 12.8215 23.0996 12.2979C23.0946 11.7737 23.0671 11.2405 23.0176 10.9092C22.9196 10.2498 22.6617 9.25762 22.4385 8.68457C22.2617 8.22852 21.9297 7.58506 21.6113 7.04102C21.4519 6.76854 21.2939 6.51847 21.1602 6.32812C21.0935 6.23325 21.0317 6.15164 20.9775 6.08887C20.9265 6.02975 20.8728 5.97515 20.8223 5.94922C20.7476 5.91104 20.6395 5.89931 20.5469 5.90039C20.4542 5.90149 20.3474 5.91569 20.2754 5.9541L20.2734 5.95508C20.2003 5.99593 20.1375 6.07978 20.0947 6.1582C20.0512 6.23813 20.0157 6.33706 20.0156 6.4248C20.0156 6.45887 20.0266 6.49504 20.0371 6.52246C20.0488 6.55303 20.0656 6.58701 20.084 6.62207C20.1209 6.69234 20.1701 6.77317 20.2227 6.84863L20.2236 6.84961C21.1266 8.09681 21.6986 9.47933 21.9385 10.9814C21.9923 11.3189 22.02 11.8384 22.0205 12.3584C22.021 12.878 21.994 13.39 21.9424 13.7148C21.6893 15.2466 21.1533 16.5465 20.25 17.8105C18.7455 19.9128 16.4116 21.3697 13.7246 21.8867L13.1826 21.9775C12.5778 22.0637 11.3592 22.0742 10.583 22.0068L10.2803 21.9736C9.18848 21.8212 8.17032 21.5215 7.16113 21.0557L7.16211 21.0547C7.00614 20.9816 6.89083 20.9281 6.81055 20.8867C6.85616 20.8765 6.91202 20.8627 6.98047 20.8486C7.26108 20.7927 7.43434 20.7185 7.54395 20.5674L7.58691 20.4971L7.58789 20.4961C7.75552 20.1639 7.50735 19.7854 7.1377 19.7852C7.10812 19.7852 7.05858 19.7917 7.00391 19.8008C6.94597 19.8104 6.87253 19.8243 6.78906 19.8408C6.62195 19.874 6.41197 19.9191 6.2002 19.9668C5.781 20.0612 5.3406 20.1692 5.21582 20.2158C5.03059 20.2858 4.90045 20.4428 4.90039 20.6377C4.90039 20.6651 4.90869 20.7149 4.91895 20.7676C4.93014 20.825 4.94625 20.8997 4.96582 20.9863C5.00518 21.1605 5.05947 21.3856 5.11914 21.6191C5.21774 22.0037 5.27609 22.224 5.32617 22.3604C5.35156 22.4294 5.37675 22.4817 5.40625 22.5254C5.43603 22.5694 5.46779 22.601 5.50195 22.6299C5.54803 22.6708 5.60434 22.7044 5.65723 22.7285C5.70776 22.7515 5.76749 22.7714 5.81934 22.7715C6.11385 22.7715 6.37791 22.5382 6.37793 22.2471C6.37793 22.2122 6.3678 22.1535 6.35547 22.0947C6.34253 22.0332 6.3238 21.9605 6.30371 21.8906L6.30469 21.8896C6.29628 21.8569 6.28972 21.8249 6.2832 21.7959C6.28481 21.7966 6.28646 21.7972 6.28809 21.7979L6.65918 21.9639Z" fill="#005F73" stroke="#005F73" stroke-width="0.2"/>
</g>
<defs>
<clipPath id="clip0_12474_324545">
<rect width="24" height="24" fill="white"/>
</clipPath>
</defs>
</svg>
