<svg width="24" height="24" viewBox="0 0 24 24" fill="none" xmlns="http://www.w3.org/2000/svg">
<path d="M17 2.25H7C4.38 2.25 2.25 4.38 2.25 7V17C2.25 19.62 4.38 21.75 7 21.75H17C19.62 21.75 21.75 19.62 21.75 17V7C21.75 4.38 19.62 2.25 17 2.25ZM20.25 17C20.25 18.79 18.79 20.25 17 20.25H7C5.21 20.25 3.75 18.79 3.75 17V7C3.75 5.21 5.21 3.75 7 3.75H17C18.79 3.75 20.25 5.21 20.25 7V17Z" fill="#005F73"/>
<path d="M17 9.25009H15C14.68 9.25009 14.39 9.46009 14.29 9.76009L13.86 11.0401L11.67 6.66009C11.55 6.42009 11.31 6.26009 11.05 6.25009C10.78 6.24009 10.53 6.36009 10.38 6.58009L8.6 9.25009H7C6.59 9.25009 6.25 9.59009 6.25 10.0001C6.25 10.4101 6.59 10.7501 7 10.7501H9C9.25 10.7501 9.48 10.6201 9.62 10.4201L10.9 8.50009L13.32 13.3401C13.45 13.6001 13.71 13.7501 13.99 13.7501C14.01 13.7501 14.03 13.7501 14.04 13.7501C14.34 13.7301 14.6 13.5301 14.7 13.2401L15.53 10.7501H16.99C17.4 10.7501 17.74 10.4101 17.74 10.0001C17.74 9.59009 17.4 9.25009 16.99 9.25009H17Z" fill="#005F73"/>
<path d="M7.02002 17.25H7.01002C6.60002 17.25 6.27002 17.59 6.27002 18C6.27002 18.41 6.61002 18.75 7.02002 18.75C7.43002 18.75 7.77002 18.41 7.77002 18C7.77002 17.59 7.43002 17.25 7.02002 17.25Z" fill="#005F73"/>
<path d="M10.02 17.25H10.01C9.60002 17.25 9.27002 17.59 9.27002 18C9.27002 18.41 9.61002 18.75 10.02 18.75C10.43 18.75 10.77 18.41 10.77 18C10.77 17.59 10.43 17.25 10.02 17.25Z" fill="#005F73"/>
</svg>
