<svg width="24" height="24" viewBox="0 0 24 24" fill="none" xmlns="http://www.w3.org/2000/svg">
<path d="M4 22.5V18.073C4 17.1571 3.65701 16.285 3.19922 15.4917C2.43644 14.1698 2 12.6359 2 11C2 6.02944 6.02944 2 11 2C15.9061 2 19.8953 5.89691 19.998 11.2867C20.0006 11.4266 20.0294 11.5661 20.0862 11.6939L22 16L20 17C19 20.5 19.2 21.5 16 21.5C12.8 21.5 12.5 21 12 19.5" stroke="#005F73" stroke-width="1.5" stroke-linecap="round" stroke-linejoin="round"/>
<path d="M12.6787 12.2339L12.6777 12.2329C13.3595 12.1999 13.934 11.9451 14.4189 11.4585C14.8028 11.0767 15.0398 10.642 15.1533 10.1118L15.1719 10.0015C15.1876 9.88108 15.1953 9.73403 15.1953 9.59229C15.1953 9.45032 15.1876 9.30267 15.1719 9.18213L15.1533 9.07178C15.0398 8.54188 14.8025 8.10867 14.4189 7.72705C13.991 7.29909 13.4968 7.04862 12.9199 6.97217L12.668 6.94971C12.0566 6.92076 11.4478 7.11121 10.9629 7.47998C10.9547 7.48619 10.9468 7.492 10.9395 7.49756C10.8458 7.27738 10.7144 7.04559 10.583 6.87256L10.582 6.87061C10.3644 6.5904 9.99146 6.28727 9.65625 6.11963C9.24485 5.91293 8.67095 5.81305 8.20215 5.86279C7.61353 5.92519 7.05823 6.19706 6.625 6.63232V6.6333C6.28966 6.96712 6.06596 7.34059 5.93945 7.78369L5.8916 7.97803C5.86275 8.11017 5.84961 8.30929 5.84961 8.49854C5.84963 8.68756 5.86281 8.88601 5.8916 9.01807L5.93945 9.2124C6.06607 9.65603 6.29005 10.0306 6.62598 10.3647C7.11081 10.8512 7.6847 11.107 8.36621 11.1401L8.60938 11.1411C9.1482 11.1168 9.68431 10.9209 10.1045 10.5952C10.1993 10.8149 10.3304 11.0451 10.4619 11.2183L10.4648 11.2222C10.514 11.2821 10.6314 11.4093 10.7305 11.5044L10.9346 11.6821C11.4283 12.0692 12.0442 12.2665 12.6787 12.2339ZM9.88672 9.97705C8.88023 10.9157 7.2834 10.627 6.66406 9.39404C6.28642 8.63864 6.43473 7.69188 7.02637 7.08936C7.50302 6.60374 8.14245 6.38777 8.80078 6.48779V6.48877C9.22706 6.55226 9.61598 6.74941 9.92773 7.06104C10.1665 7.29978 10.3295 7.56995 10.4277 7.88428L10.4287 7.88525L10.457 7.97705C10.3745 8.07607 10.2562 8.26643 10.1855 8.40771C9.964 8.84882 9.85974 9.43006 9.9248 9.896L9.92969 9.93701L9.88672 9.97705ZM13.7051 11.27C13.0784 11.6884 12.3298 11.7413 11.6719 11.4214L11.6709 11.4224C11.2476 11.2141 10.9382 10.9064 10.7266 10.4868C10.3495 9.73166 10.4972 8.78752 11.0889 8.18311C11.5655 7.69749 12.2049 7.48152 12.8633 7.58154V7.58252C13.2896 7.64601 13.6785 7.84316 13.9902 8.15479C14.685 8.85137 14.7861 9.91053 14.2314 10.7427C14.1214 10.9078 13.8702 11.1599 13.7051 11.27Z" fill="#005F73" stroke="#005F73" stroke-width="0.3"/>
<path d="M7.5374 7.29883C7.41435 7.35938 7.33037 7.46875 7.27959 7.63672C7.20732 7.86523 7.24834 8.14062 7.37724 8.31641C7.44756 8.41211 7.60576 8.49805 7.70928 8.49805C7.81279 8.49805 7.97099 8.41211 8.04131 8.31641C8.11748 8.21094 8.17803 8.01758 8.17803 7.87305C8.17803 7.72852 8.11748 7.53516 8.04131 7.42969C7.97099 7.33398 7.81279 7.24805 7.70928 7.24805C7.67021 7.24805 7.59404 7.27148 7.5374 7.29883ZM7.80107 7.63477C7.8831 7.75977 7.8831 7.98633 7.80107 8.11133C7.72295 8.22461 7.63896 8.19531 7.58037 8.03516C7.53154 7.89258 7.55888 7.68945 7.64287 7.59766C7.6917 7.54492 7.74834 7.55859 7.80107 7.63477Z" fill="#005F73"/>
<path d="M9.0999 7.29883C8.97685 7.35938 8.89287 7.46875 8.84209 7.63672C8.76982 7.86523 8.81084 8.14062 8.93974 8.31641C9.01006 8.41211 9.16826 8.49805 9.27178 8.49805C9.37529 8.49805 9.53349 8.41211 9.60381 8.31641C9.67998 8.21094 9.74053 8.01758 9.74053 7.87305C9.74053 7.72852 9.67998 7.53516 9.60381 7.42969C9.53349 7.33398 9.37529 7.24805 9.27178 7.24805C9.23271 7.24805 9.15654 7.27148 9.0999 7.29883ZM9.36357 7.63477C9.41435 7.71289 9.43779 7.83984 9.42021 7.95898C9.40459 8.0625 9.33428 8.17383 9.27959 8.18164C9.19951 8.19336 9.11748 8.03516 9.11748 7.87305C9.11748 7.71094 9.19951 7.55273 9.27959 7.56445C9.30107 7.56836 9.33818 7.59961 9.36357 7.63477Z" fill="#005F73"/>
<path d="M7.48438 9.43018C7.8081 9.91267 8.48717 10.0935 9.03418 9.82666C9.29044 9.70253 9.50869 9.47242 9.60156 9.23096C9.6172 9.19049 9.62911 9.15788 9.62988 9.12646C9.63068 9.09215 9.61855 9.06368 9.60449 9.03369L9.60352 9.03271C9.57899 8.98366 9.54028 8.93897 9.48633 8.92627C9.4293 8.91238 9.37618 8.91474 9.32617 8.94971C9.28089 8.9814 9.2434 9.0362 9.2041 9.10889C9.07863 9.34137 8.8831 9.48251 8.62109 9.52686C8.27849 9.5858 7.91466 9.40435 7.77441 9.10986L7.77344 9.10889C7.75597 9.07297 7.73576 9.03746 7.7168 9.00928C7.70744 8.99539 7.69765 8.9828 7.68848 8.97217C7.68029 8.96269 7.66887 8.95036 7.65527 8.94287L7.6543 8.94189C7.57228 8.89855 7.47348 8.91408 7.40918 8.98096V8.98193C7.39035 9.00051 7.37381 9.02086 7.36328 9.04541C7.35221 9.07131 7.34915 9.09925 7.35156 9.12842C7.35623 9.18348 7.38308 9.24807 7.4248 9.32959L7.48438 9.43018Z" fill="#005F73" stroke="#005F73" stroke-width="0.1"/>
<path d="M11.5999 8.39258C11.4769 8.45312 11.3929 8.5625 11.3421 8.73047C11.2698 8.95898 11.3108 9.23438 11.4397 9.41016C11.5101 9.50586 11.6683 9.5918 11.7718 9.5918C11.8753 9.5918 12.0335 9.50586 12.1038 9.41016C12.18 9.30469 12.2405 9.11133 12.2405 8.9668C12.2405 8.82227 12.18 8.62891 12.1038 8.52344C12.0335 8.42773 11.8753 8.3418 11.7718 8.3418C11.7327 8.3418 11.6565 8.36523 11.5999 8.39258ZM11.8636 8.72852C11.9144 8.80664 11.9378 8.93359 11.9202 9.05273C11.9046 9.15625 11.8343 9.26758 11.7796 9.27539C11.6995 9.28711 11.6175 9.12891 11.6175 8.9668C11.6175 8.80469 11.6995 8.64648 11.7796 8.6582C11.8011 8.66211 11.8382 8.69336 11.8636 8.72852Z" fill="#005F73"/>
<path d="M13.1624 8.39258C13.0394 8.45312 12.9554 8.5625 12.9046 8.73047C12.8323 8.95898 12.8733 9.23438 13.0022 9.41016C13.0726 9.50586 13.2308 9.5918 13.3343 9.5918C13.4378 9.5918 13.596 9.50586 13.6663 9.41016C13.7425 9.30469 13.803 9.11133 13.803 8.9668C13.803 8.82227 13.7425 8.62891 13.6663 8.52344C13.596 8.42773 13.4378 8.3418 13.3343 8.3418C13.2952 8.3418 13.219 8.36523 13.1624 8.39258ZM13.4261 8.72852C13.4769 8.80664 13.5003 8.93359 13.4827 9.05273C13.4671 9.15625 13.3968 9.26758 13.3421 9.27539C13.262 9.28711 13.18 9.12891 13.18 8.9668C13.18 8.80469 13.262 8.64648 13.3421 8.6582C13.3636 8.66211 13.4007 8.69336 13.4261 8.72852Z" fill="#005F73"/>
<path d="M13.4941 11.0479C13.5782 11.0479 13.6441 11.0074 13.6719 10.9355C13.6977 10.8685 13.6854 10.7848 13.6465 10.7012L13.6475 10.7002C13.4247 10.2159 12.8446 9.92523 12.3184 10.0312C12.196 10.0559 12.0621 10.1091 11.9414 10.1768C11.821 10.2443 11.7101 10.3281 11.6357 10.415C11.5838 10.4754 11.5278 10.5619 11.4854 10.6416C11.464 10.6817 11.446 10.7215 11.4326 10.7559C11.42 10.7882 11.4092 10.8223 11.4092 10.8496C11.4092 10.9008 11.4385 10.9495 11.4717 10.9834C11.5049 11.0172 11.5536 11.0479 11.6055 11.0479C11.6552 11.0479 11.6993 11.0379 11.7393 11.0029C11.7757 10.971 11.8045 10.9212 11.8359 10.8555L11.8984 10.75C12.0666 10.5188 12.3829 10.3861 12.6826 10.4375C12.9477 10.4838 13.1415 10.6221 13.2588 10.8457C13.2958 10.9158 13.3274 10.9672 13.3633 11C13.4031 11.0364 13.4453 11.0479 13.4941 11.0479Z" fill="#005F73" stroke="#005F73" stroke-width="0.1"/>
<path d="M13.0254 5.60132C13.0943 5.60695 13.18 5.6055 13.2402 5.54663C13.3002 5.488 13.3043 5.40264 13.3008 5.33374C13.2988 5.29622 13.2935 5.2526 13.2861 5.20386L13.2588 5.04272C13.2432 4.95339 13.2296 4.8809 13.2158 4.823C13.2023 4.76605 13.1872 4.71687 13.167 4.67749C13.1456 4.63593 13.1156 4.60006 13.0713 4.57788C13.0299 4.55722 12.9861 4.55444 12.9512 4.55444C12.8882 4.55452 12.8277 4.57438 12.7812 4.62085C12.7599 4.64224 12.7438 4.66728 12.7314 4.69409L12.7295 4.69116C12.0741 4.13252 11.1367 3.83534 10.2646 3.91187V3.91284C10.1569 3.92091 10.0173 3.93736 9.95215 3.94995C9.90507 3.95916 9.71085 4.00789 9.51367 4.05835L9.05566 4.17944C9.03307 4.18622 9.01538 4.19829 9.00488 4.20679C8.99335 4.21615 8.98332 4.22693 8.97461 4.23706C8.95722 4.25729 8.94108 4.28171 8.92871 4.3064L8.92773 4.30737C8.89667 4.37104 8.891 4.44196 8.91406 4.50659C8.93732 4.57162 8.98752 4.62244 9.05371 4.65015L9.05664 4.6521C9.10734 4.67148 9.15549 4.67005 9.22754 4.65698L9.58984 4.56909L10.0488 4.45679C10.1422 4.43877 10.2112 4.43235 10.3477 4.42163L10.5303 4.41479C10.9604 4.41374 11.407 4.5122 11.7949 4.69702C11.9373 4.76504 12.1963 4.93009 12.3496 5.0437C12.3417 5.05038 12.334 5.05708 12.3271 5.06421C12.2858 5.1074 12.252 5.16999 12.252 5.23999C12.252 5.27477 12.2562 5.31735 12.2783 5.35815C12.3012 5.40002 12.3362 5.42893 12.376 5.44995C12.4484 5.48819 12.5655 5.51445 12.7354 5.54956V5.55054C12.8532 5.57555 12.9507 5.5952 13.0254 5.60132Z" fill="#005F73" stroke="#005F73" stroke-width="0.2"/>
<path d="M9.68652 13.6042C9.86553 13.6023 10.0495 13.5917 10.1689 13.573H10.1699C10.2716 13.5565 10.4956 13.5042 10.7021 13.4519C10.8063 13.4255 10.908 13.3986 10.9893 13.3757L11.166 13.3191L11.168 13.3181C11.2224 13.2918 11.2611 13.2428 11.2832 13.196C11.3049 13.1498 11.3204 13.0853 11.2998 13.0232L11.2988 13.0242C11.2828 12.9745 11.2489 12.9307 11.2158 12.9011C11.1983 12.8855 11.1779 12.8704 11.1562 12.8591C11.136 12.8486 11.1071 12.8377 11.0742 12.8376C11.0617 12.8376 11.0477 12.8396 11.042 12.8406C11.0332 12.8421 11.0217 12.8449 11.0098 12.8474C10.9857 12.8525 10.9537 12.86 10.917 12.8689L10.6455 12.9382C10.3709 13.0106 10.2082 13.05 10.0625 13.0701C9.91842 13.0899 9.7875 13.0915 9.57617 13.0857C9.1781 13.0742 8.97779 13.0375 8.6416 12.9128L8.64258 12.9119C8.35567 12.8043 8.17791 12.7057 7.89746 12.4978H7.89648L7.85742 12.4695C7.96064 12.386 7.9958 12.2343 7.89746 12.113V12.1121C7.86409 12.0715 7.81351 12.0501 7.76074 12.033C7.70462 12.0147 7.62327 11.9947 7.50586 11.9685H7.50488C7.42164 11.9509 7.34017 11.934 7.27637 11.9216C7.24455 11.9155 7.21637 11.9107 7.19434 11.907C7.17637 11.904 7.1531 11.9002 7.13672 11.9001C7.10071 11.9001 7.06688 11.9134 7.04395 11.9255C7.02009 11.9382 6.99625 11.9569 6.97559 11.9783L6.97461 11.9773C6.96014 11.9913 6.93681 12.0135 6.9209 12.0457C6.90387 12.0801 6.89979 12.1163 6.90039 12.1531C6.90155 12.2199 6.92088 12.3262 6.9541 12.5046C6.96923 12.588 6.98264 12.6558 6.99609 12.7097C7.00927 12.7625 7.02402 12.8089 7.04492 12.8464C7.06759 12.887 7.09916 12.9198 7.14355 12.9392C7.18371 12.9566 7.22615 12.9597 7.25977 12.9597C7.3609 12.9595 7.43641 12.8983 7.47559 12.8171C7.738 13.0463 8.1771 13.2974 8.52539 13.4187L8.68652 13.4695C8.85631 13.5183 9.04797 13.5611 9.20801 13.5837L9.42383 13.6003C9.50641 13.6037 9.59712 13.6052 9.68652 13.6042Z" fill="#005F73" stroke="#005F73" stroke-width="0.2"/>
</svg>
