<svg width="24" height="24" viewBox="0 0 24 24" fill="none" xmlns="http://www.w3.org/2000/svg">
<path d="M8.2627 1.96191C8.81534 1.73204 9.1909 1.72364 9.43066 1.77148C9.67001 1.81935 9.81785 1.93212 9.90039 2.01758L9.90723 2.02344C9.99196 2.10819 10.0998 2.25508 10.1445 2.48438C10.1891 2.7128 10.1796 3.06933 9.95215 3.58984V3.59082C9.46468 4.71412 9.22026 5.91267 9.23047 7.1416V7.14258C9.25181 11.8454 13.148 15.8168 17.8975 16.0088V16.0098C18.5881 16.0416 19.2655 15.9878 19.918 15.8721H19.9199C20.5029 15.7661 20.8657 15.8388 21.085 15.9355C21.3038 16.0321 21.4227 16.171 21.4854 16.2725C21.5501 16.3773 21.6233 16.5481 21.6143 16.7881C21.6051 17.0282 21.5109 17.3861 21.1582 17.8623L21.1572 17.8652C19.1328 20.6345 15.9129 22.25 12.46 22.25C12.2877 22.25 12.1322 22.2502 11.9795 22.2412L11.9727 22.2402C6.78815 22.0087 2.43145 17.9519 1.82617 12.9336L1.7793 12.4443C1.45495 7.94166 4.05862 3.73034 8.2627 1.96191ZM9.1709 2.25C9.00119 2.25 8.77457 2.28889 8.4668 2.41895C4.4616 4.10092 1.97672 8.11882 2.27148 12.4043V12.4053C2.62993 17.4235 6.89934 21.5163 11.9863 21.7383V21.7393C15.444 21.9074 18.724 20.3306 20.7432 17.5752L20.7441 17.5762L20.7471 17.5703C20.9194 17.3291 21.0116 17.141 21.0586 17.0156L21.2842 16.4141L20.6455 16.3428C20.5465 16.3318 20.4022 16.3233 20.2061 16.3457L20.0029 16.3779C19.3095 16.5014 18.5851 16.5491 17.8701 16.5205C12.8537 16.3209 8.75074 12.107 8.7207 7.16016C8.7207 5.84876 8.97675 4.58966 9.49609 3.40723C9.62452 3.1247 9.65352 2.92021 9.66699 2.8125L9.7373 2.25H9.1709Z" fill="#292D32" stroke="#005F73"/>
</svg>
