<svg width="24" height="24" viewBox="0 0 24 24" fill="none" xmlns="http://www.w3.org/2000/svg">
<g clip-path="url(#clip0_12474_324665)">
<mask id="path-1-outside-1_12474_324665" maskUnits="userSpaceOnUse" x="-0.640625" y="-0.648926" width="25" height="25" fill="black">
<rect fill="white" x="-0.640625" y="-0.648926" width="25" height="25"/>
<path d="M4.14462 0.362523C4.1752 0.362311 4.20578 0.362098 4.23729 0.361879C4.33996 0.361285 4.44261 0.361363 4.54528 0.36144C4.61881 0.36116 4.69234 0.360841 4.76587 0.360486C4.96577 0.359657 5.16567 0.359438 5.36557 0.359378C5.53238 0.359289 5.69919 0.358944 5.86601 0.358612C6.25955 0.357848 6.65309 0.35762 7.04664 0.357686C7.45273 0.357743 7.8588 0.356753 8.26489 0.355273C8.61342 0.354047 8.96195 0.353544 9.31048 0.353604C9.51869 0.353628 9.7269 0.35336 9.93511 0.352369C10.1309 0.351462 10.3268 0.351453 10.5226 0.352136C10.5945 0.352234 10.6663 0.352012 10.7382 0.351446C10.8364 0.350723 10.9344 0.351157 11.0326 0.35188C11.0875 0.351829 11.1424 0.351778 11.199 0.351725C11.375 0.379938 11.4526 0.439293 11.5789 0.562559C11.6367 0.678184 11.629 0.748239 11.625 0.877317C11.6183 1.13772 11.6152 1.39796 11.6133 1.65844C11.6119 1.77028 11.6094 1.88211 11.6057 1.99389C11.5825 2.74018 11.6474 3.20961 12.1649 3.76697C12.1935 3.7965 12.2222 3.82604 12.2517 3.85646C12.3481 3.95768 12.4296 4.06612 12.5102 4.18017C12.5339 4.2126 12.5575 4.24502 12.5819 4.27843C12.6162 4.32578 12.6162 4.32578 12.6512 4.37408C12.9211 4.74382 13.1973 5.10847 13.4772 5.47076C13.5067 5.50923 13.5363 5.5477 13.5667 5.58734C13.5925 5.6207 13.6183 5.65406 13.6448 5.68844C13.6746 5.7294 13.7045 5.77036 13.7352 5.81256C13.7709 5.85565 13.7709 5.85565 13.8073 5.8996C14.0406 6.20376 14.0541 6.45405 14.0439 6.82934C14.0435 6.88493 14.0431 6.94052 14.0427 6.99779C14.0411 7.17405 14.0376 7.3502 14.034 7.52643C14.0326 7.64645 14.0313 7.76648 14.0302 7.8865C14.0271 8.1796 14.0224 8.47263 14.0164 8.76568C14.059 8.76517 14.059 8.76517 14.1024 8.76465C14.1587 8.76425 14.1587 8.76425 14.2162 8.76384C14.2533 8.7635 14.2904 8.76316 14.3286 8.7628C15.2422 8.78677 16.0979 9.35644 16.8289 9.84381C16.7402 9.06838 16.5572 8.36737 16.3087 7.62951C16.292 7.57974 16.2753 7.52997 16.258 7.47869C16.2255 7.38249 16.1927 7.2864 16.1594 7.19046C15.7742 6.0637 15.867 4.96681 16.3602 3.89068C16.3757 3.85975 16.3911 3.82881 16.4071 3.79693C16.6735 3.87407 16.9118 3.99804 17.1571 4.12506C17.1279 4.3421 17.0697 4.5325 16.993 4.73736C16.8641 5.08251 16.8185 5.3708 16.8143 5.73639C16.8122 5.79304 16.8122 5.79304 16.8102 5.85083C16.8034 6.51949 17.0924 7.18233 17.3115 7.80558C17.4767 8.27741 17.594 8.74057 17.6727 9.23443C17.8267 9.18374 17.9797 9.1325 18.1306 9.0733C18.1617 9.06134 18.1927 9.04937 18.2247 9.03705C18.2878 9.01257 18.351 8.98792 18.414 8.96307C19.1751 8.67129 20.1023 8.63338 20.8602 8.95318C22.0352 9.48242 22.7272 10.488 23.1759 11.6555C23.8311 13.5234 23.8042 15.5379 22.9578 17.3379C22.6542 17.9623 22.279 18.4832 21.7977 18.9844C21.7611 19.0234 21.7246 19.0624 21.6869 19.1025C21.403 19.3973 21.0991 19.6384 20.7664 19.8751C20.8253 19.9152 20.8253 19.9152 20.8853 19.9562C21.6472 20.4839 22.4508 21.0731 22.7996 21.961C22.8531 22.2606 22.8258 22.5402 22.6572 22.7991C22.2294 23.3181 21.492 23.4453 20.8602 23.5313C20.8249 23.5362 20.7896 23.5411 20.7533 23.5461C17.0106 24.0324 12.2392 23.5007 7.31331 21.4219C6.75874 20.9795 6.5267 20.5392 6.32893 19.8751C6.30664 19.9013 6.28434 19.9275 6.26137 19.9545C5.47983 20.8498 4.34404 21.9862 3.09602 22.0943C2.53919 22.1212 2.07492 22.0041 1.63557 21.6426C1.60657 21.6162 1.57757 21.5898 1.54768 21.5626C1.49838 21.5179 1.49838 21.5179 1.44807 21.4723C1.14168 21.1642 1.00603 20.8196 0.974747 20.387C0.991485 19.8755 1.23803 19.4463 1.58394 19.0804C2.04524 18.6563 2.04524 18.6563 2.25081 18.6563C2.25081 18.6254 2.25081 18.5944 2.25081 18.5626C2.21957 18.5587 2.18833 18.5548 2.15614 18.5508C1.53224 18.3938 0.901404 17.8962 0.571915 17.3548C0.329111 16.8964 0.301801 16.4206 0.451981 15.9229C0.567558 15.6144 0.715828 15.371 0.988188 15.1812C1.11328 15.0768 1.12463 15.0525 1.16062 14.8821C1.1619 14.8175 1.16164 14.7528 1.16015 14.6882C1.16045 14.6524 1.16075 14.6167 1.16106 14.5798C1.16172 14.4601 1.16039 14.3405 1.15907 14.2209C1.15914 14.135 1.15934 14.0492 1.15966 13.9633C1.16009 13.7785 1.15963 13.5937 1.1585 13.4088C1.15672 13.1165 1.15698 12.8242 1.15754 12.5319C1.15833 11.964 1.15701 11.3962 1.1555 10.8283C1.1537 10.1058 1.15294 9.38337 1.15387 8.66089C1.15418 8.37038 1.15351 8.07988 1.15207 7.78937C1.15135 7.60852 1.15139 7.42767 1.15163 7.24681C1.15158 7.16304 1.15121 7.07928 1.15049 6.99551C1.14955 6.88098 1.14976 6.7665 1.15025 6.65197C1.14969 6.61898 1.14914 6.58598 1.14857 6.55199C1.15234 6.22908 1.30213 6.01432 1.49898 5.76788C1.52459 5.73547 1.5502 5.70307 1.57659 5.66968C1.60379 5.63562 1.63099 5.60156 1.65901 5.56646C1.89091 5.27232 2.11773 4.97535 2.3387 4.67291C2.6147 4.29537 2.89662 3.92266 3.18115 3.55152C3.2113 3.51214 3.24146 3.47276 3.27254 3.43219C3.29929 3.39735 3.32604 3.36252 3.35361 3.32663C3.47909 3.15915 3.52814 3.07011 3.52915 2.86211C3.52963 2.81502 3.5301 2.76792 3.5306 2.7194C3.5307 2.66857 3.5308 2.61774 3.5309 2.56537C3.53208 2.45794 3.53327 2.35052 3.53447 2.2431C3.53582 2.07358 3.53694 1.90405 3.53782 1.73453C3.53884 1.57103 3.54069 1.40756 3.54262 1.24408C3.54262 1.19344 3.54263 1.14279 3.54263 1.09062C3.54849 0.647097 3.54849 0.647097 3.70393 0.468809C3.87174 0.356938 3.94527 0.363094 4.14462 0.362523ZM4.40706 1.21881C4.40706 1.72928 4.40706 2.23975 4.40706 2.76568C6.51081 2.76568 8.61456 2.76568 10.7821 2.76568C10.7821 2.25521 10.7821 1.74475 10.7821 1.21881C8.67831 1.21881 6.57456 1.21881 4.40706 1.21881ZM3.61763 4.35471C3.54731 4.48218 3.46211 4.59479 3.37215 4.70898C3.32248 4.77696 3.27291 4.84501 3.22347 4.91314C2.9932 5.22837 2.75851 5.53932 2.51778 5.84662C2.43364 5.93729 2.43364 5.93729 2.43831 6.00006C3.22758 6.01983 4.01676 6.03468 4.80622 6.04378C5.17286 6.04811 5.53933 6.05402 5.90587 6.06371C6.22563 6.07216 6.54529 6.07757 6.86516 6.07945C7.03436 6.08054 7.20324 6.08308 7.37233 6.08927C8.06648 6.13822 8.06648 6.13822 8.69943 5.91734C8.90215 5.72222 9.04771 5.50133 9.18086 5.25478C9.25118 5.12731 9.33639 5.0147 9.42635 4.90051C9.47602 4.83254 9.52558 4.76449 9.57503 4.69635C9.80529 4.38112 10.04 4.07018 10.2807 3.76288C10.3649 3.6722 10.3649 3.6722 10.3602 3.60943C9.57092 3.58966 8.78173 3.57481 7.99227 3.56572C7.62564 3.56138 7.25916 3.55547 6.89262 3.54578C6.57286 3.53733 6.25321 3.53192 5.93334 3.53005C5.76414 3.52895 5.59526 3.52642 5.42616 3.52022C4.56235 3.4898 4.0522 3.55003 3.61763 4.35471ZM11.1571 3.93756C11.0892 4.01225 11.0892 4.01225 11.0208 4.11096C10.9939 4.14803 10.967 4.1851 10.9393 4.22329C10.9106 4.26339 10.8819 4.30348 10.8524 4.34479C10.7927 4.42704 10.733 4.50925 10.6733 4.59143C10.6439 4.63194 10.6145 4.67244 10.5843 4.71418C10.4749 4.86353 10.3625 5.01027 10.2489 5.15631C9.87936 5.55145 9.87936 5.55145 9.65706 6.00006C10.678 6.00006 11.6989 6.00006 12.7508 6.00006C12.5296 5.66578 12.5296 5.66578 12.2945 5.34472C12.2639 5.30498 12.2334 5.26523 12.2019 5.22428C12.1546 5.16308 12.1546 5.16308 12.1063 5.10064C11.8589 4.77926 11.6155 4.45648 11.3876 4.1209C11.3442 4.0582 11.2978 3.99759 11.2508 3.93756C11.2199 3.93756 11.1889 3.93756 11.1571 3.93756ZM2.01643 6.84381C2.01643 7.61725 2.01643 8.39068 2.01643 9.18756C4.12018 9.18756 6.22393 9.18756 8.39143 9.18756C8.39143 8.41412 8.39143 7.64068 8.39143 6.84381C6.28768 6.84381 4.18393 6.84381 2.01643 6.84381ZM9.23518 6.84381C9.23518 9.58178 9.23518 12.3197 9.23518 15.1407C9.49815 15.1407 9.76112 15.1407 10.0321 15.1407C10.0304 15.0467 10.0288 14.9526 10.0271 14.8558C10.0045 13.0108 10.3332 11.099 11.6568 9.71325C12.1203 9.27105 12.5622 9.06291 13.1727 8.85943C13.1727 8.19428 13.1727 7.52912 13.1727 6.84381C11.8733 6.84381 10.5739 6.84381 9.23518 6.84381ZM11.96 10.6033C11.1547 11.6968 10.8183 13.0311 10.8231 14.3731C10.8229 14.4243 10.8227 14.4756 10.8225 14.5284C10.8228 14.7843 10.8303 15.0292 10.8758 15.2813C11.093 15.3565 11.3105 15.427 11.5322 15.4877C12.7961 15.8345 13.9995 16.3269 15.1883 16.8751C15.2975 16.9249 15.4067 16.9747 15.5159 17.0245C16.5939 17.5182 17.6501 18.0413 18.6772 18.634C18.8874 18.7547 19.0992 18.8723 19.3112 18.9896C19.4457 19.0647 19.57 19.1415 19.694 19.2333C19.8198 19.3229 19.8198 19.3229 19.947 19.3111C20.3891 19.1384 20.7563 18.7922 21.0946 18.4688C21.1228 18.4436 21.151 18.4183 21.1801 18.3923C22.1942 17.4514 22.7264 15.9477 22.7951 14.5952C22.8408 13.1135 22.4455 11.474 21.4232 10.3552C20.85 9.81096 20.251 9.57568 19.4713 9.59515C18.8787 9.62643 18.3733 9.89945 17.8602 10.1719C17.8272 10.1848 17.7943 10.1977 17.7603 10.211C17.6648 10.2588 17.6648 10.2588 17.6334 10.3602C17.6263 10.398 17.6191 10.4359 17.6117 10.475C17.5996 10.537 17.5996 10.537 17.5873 10.6003C17.5759 10.6652 17.5759 10.6652 17.5643 10.7315C17.5558 10.7746 17.5473 10.8177 17.5386 10.8621C17.488 11.1048 17.488 11.1048 17.5321 11.3438C17.6249 11.2355 17.7177 11.1272 17.8133 11.0157C17.9867 11.08 18.1392 11.1593 18.2967 11.2559C18.3381 11.2812 18.3795 11.3064 18.4221 11.3325C18.4533 11.3517 18.4844 11.3709 18.5164 11.3907C18.2794 11.8746 17.8876 12.1271 17.3934 12.3165C16.8507 12.481 16.2699 12.3794 15.7726 12.1273C15.479 11.9465 15.159 11.6776 15.0477 11.3438C15.1057 11.3279 15.1057 11.3279 15.1649 11.3116C15.3361 11.2474 15.4716 11.165 15.6226 11.0637C15.7039 11.0157 15.7039 11.0157 15.7977 11.0157C15.8507 11.0732 15.9011 11.1333 15.95 11.1944C16.0878 11.3565 16.2032 11.4572 16.4071 11.5313C16.4535 11.5313 16.4999 11.5313 16.5477 11.5313C16.6096 11.2993 16.6714 11.0672 16.7352 10.8282C16.6407 10.7652 16.5462 10.7023 16.4516 10.6396C16.3504 10.5718 16.2501 10.5032 16.1502 10.4338C14.7522 9.46946 13.1644 9.18518 11.96 10.6033ZM2.01643 10.0313C2.01643 11.5937 2.01643 13.156 2.01643 14.7657C2.26393 14.7657 2.51143 14.7657 2.76643 14.7657C2.97027 14.7793 3.17267 14.7931 3.37581 14.8126C3.34617 14.7312 3.34617 14.7312 3.31593 14.6481C3.28998 14.576 3.26404 14.5038 3.23811 14.4317C3.21858 14.3782 3.21858 14.3782 3.19865 14.3237C3.00931 13.7944 2.97851 13.2801 3.18831 12.7501C3.39402 12.3683 3.72825 12.134 4.13753 12.0059C4.65602 11.8844 5.23202 11.9059 5.70674 12.163C6.80465 12.8894 7.14329 14.4085 7.39209 15.6185C7.41323 15.7248 7.43393 15.8311 7.45393 15.9376C7.47869 15.9188 7.50345 15.8999 7.52896 15.8806C7.85914 15.6311 7.85914 15.6311 8.02815 15.5274C8.07202 15.5002 8.07202 15.5002 8.11678 15.4725C8.20624 15.4206 8.29894 15.3744 8.39143 15.3282C8.39143 13.5802 8.39143 11.8322 8.39143 10.0313C6.28768 10.0313 4.18393 10.0313 2.01643 10.0313ZM4.01448 12.9727C3.84029 13.2139 3.8254 13.4617 3.86379 13.7473C3.98044 14.2865 4.29551 14.7567 4.65315 15.1683C4.7429 15.2919 4.75957 15.3478 4.75569 15.4981C4.75563 15.5335 4.75557 15.5689 4.75551 15.6054C4.72979 15.7291 4.693 15.7658 4.59456 15.8438C4.26859 15.9024 3.94178 15.811 3.62776 15.7296C2.98123 15.5733 2.23283 15.4137 1.62093 15.7618C1.38467 15.9288 1.26585 16.1087 1.21663 16.3946C1.19728 16.7163 1.32693 16.954 1.52681 17.1986C1.98433 17.647 2.67778 17.8604 3.26906 18.0684C3.78258 18.2511 3.78258 18.2511 3.84456 18.3751C3.87184 18.7133 3.87184 18.7133 3.77205 18.8477C3.62708 18.961 3.47499 19.0127 3.30257 19.0694C2.96695 19.1876 2.67946 19.335 2.39143 19.5469C2.34303 19.5825 2.34303 19.5825 2.29366 19.6187C2.05614 19.8071 1.92327 20.0044 1.83186 20.2969C1.82697 20.5317 1.89576 20.6853 2.05104 20.8545C2.34355 21.1243 2.63315 21.2748 3.03743 21.2626C3.5857 21.1602 4.0814 20.7841 4.50081 20.4376C4.52678 20.4163 4.55274 20.395 4.5795 20.3731C5.0749 19.9654 5.55353 19.5293 5.9651 19.0355C6.02103 18.9692 6.07842 18.9041 6.13707 18.8401C6.41268 18.5254 6.52975 18.2193 6.63655 17.8184C6.65314 17.7626 6.66972 17.7069 6.68681 17.6494C6.78998 17.2785 6.81188 16.973 6.75081 16.5938C6.74382 16.5474 6.73683 16.5009 6.72963 16.4531C6.54507 15.3127 6.28157 13.7696 5.39436 12.9376C4.96926 12.6599 4.42411 12.6709 4.01448 12.9727ZM8.11458 16.4969C7.47597 17.2602 7.12936 18.5663 7.15968 19.5488C7.2052 20.0347 7.40108 20.3639 7.7632 20.6868C9.30882 21.9162 12.4188 22.5337 14.3914 22.4532C14.516 22.1824 14.601 21.9078 14.6815 21.6212C14.6943 21.5769 14.707 21.5326 14.7202 21.4869C14.7905 21.2472 14.7905 21.2472 14.8133 21.0001C14.9374 21.038 15.0614 21.0761 15.1854 21.1143C15.2208 21.1251 15.2561 21.1359 15.2926 21.147C15.558 21.2291 15.558 21.2291 15.6102 21.2813C15.6002 21.3144 15.5903 21.3475 15.5801 21.3816C15.5352 21.5317 15.4906 21.6819 15.4461 21.8321C15.4226 21.9102 15.4226 21.9102 15.3987 21.9899C15.3839 22.0401 15.3691 22.0902 15.3538 22.1419C15.3401 22.1881 15.3263 22.2342 15.3122 22.2817C15.2747 22.4153 15.2747 22.4153 15.2821 22.5938C15.4994 22.6132 15.7167 22.6323 15.9341 22.6513C16.0076 22.6578 16.0811 22.6643 16.1545 22.6708C17.0161 22.7476 17.874 22.7912 18.7391 22.7901C18.7798 22.7901 18.8205 22.79 18.8625 22.79C20.5044 22.8402 20.5044 22.8402 21.9852 22.2657C21.6692 21.4382 20.7688 20.9122 20.0633 20.4376C19.9584 20.6219 19.9056 20.8212 19.8465 21.0235C19.8358 21.0591 19.825 21.0947 19.8139 21.1313C19.7987 21.1831 19.7987 21.1831 19.7832 21.2359C19.7739 21.2671 19.7647 21.2983 19.7552 21.3305C19.7285 21.4369 19.7285 21.4369 19.7352 21.6094C19.69 21.5959 19.6448 21.5824 19.5982 21.5684C19.539 21.551 19.4798 21.5336 19.4188 21.5157C19.36 21.4983 19.3013 21.4809 19.2408 21.4629C19.0765 21.4143 19.0765 21.4143 18.8914 21.4219C18.9028 21.3848 18.9142 21.3477 18.9259 21.3095C18.968 21.1711 19.0099 21.0326 19.0517 20.8941C19.0786 20.8049 19.1059 20.7159 19.1331 20.6268C19.1501 20.5705 19.167 20.5141 19.1844 20.4561C19.208 20.3784 19.208 20.3784 19.232 20.2991C19.265 20.1622 19.2893 20.061 19.2664 19.9219C19.1837 19.8402 19.1837 19.8402 19.0665 19.7802C19.0225 19.755 18.9785 19.7297 18.9332 19.7038C18.8846 19.6771 18.836 19.6505 18.786 19.6231C18.7356 19.5947 18.6853 19.5663 18.6334 19.5371C18.4976 19.4609 18.3615 19.3858 18.2248 19.3112C18.1428 19.2664 18.0609 19.2214 17.979 19.1764C16.5047 18.3687 14.9973 17.6365 13.4422 16.9981C13.3887 16.976 13.3351 16.954 13.2799 16.9312C13.2307 16.9114 13.1816 16.8915 13.1309 16.871C13.0879 16.8536 13.0449 16.8362 13.0005 16.8182C12.8884 16.7738 12.8884 16.7738 12.7508 16.7813C12.6284 17.2005 12.5061 17.6198 12.3841 18.0392C12.3275 18.2339 12.2707 18.4286 12.2139 18.6232C12.159 18.811 12.1043 18.9988 12.0497 19.1867C12.0289 19.2584 12.0079 19.3301 11.9869 19.4018C11.9576 19.5021 11.9284 19.6024 11.8994 19.7028C11.8744 19.7885 11.8744 19.7885 11.8489 19.876C11.8075 20.0144 11.8075 20.0144 11.8133 20.1563C11.5503 20.079 11.2874 20.0016 11.0164 19.9219C11.0583 19.7705 11.1003 19.6192 11.1424 19.4678C11.1632 19.3932 11.1632 19.3932 11.1844 19.3171C11.2879 18.9471 11.3943 18.578 11.502 18.2092C11.5299 18.1136 11.5577 18.018 11.5856 17.9224C11.6276 17.7781 11.6698 17.6338 11.7122 17.4897C11.7524 17.3529 11.7923 17.2161 11.8322 17.0792C11.8445 17.0378 11.8567 16.9963 11.8694 16.9536C11.8806 16.9151 11.8917 16.8766 11.9032 16.837C11.913 16.8035 11.9229 16.77 11.933 16.7354C11.9607 16.6263 11.9607 16.6263 11.9539 16.4532C9.95422 15.7988 9.95422 15.7988 8.11458 16.4969Z"/>
</mask>
<path d="M4.14462 0.362523C4.1752 0.362311 4.20578 0.362098 4.23729 0.361879C4.33996 0.361285 4.44261 0.361363 4.54528 0.36144C4.61881 0.36116 4.69234 0.360841 4.76587 0.360486C4.96577 0.359657 5.16567 0.359438 5.36557 0.359378C5.53238 0.359289 5.69919 0.358944 5.86601 0.358612C6.25955 0.357848 6.65309 0.35762 7.04664 0.357686C7.45273 0.357743 7.8588 0.356753 8.26489 0.355273C8.61342 0.354047 8.96195 0.353544 9.31048 0.353604C9.51869 0.353628 9.7269 0.35336 9.93511 0.352369C10.1309 0.351462 10.3268 0.351453 10.5226 0.352136C10.5945 0.352234 10.6663 0.352012 10.7382 0.351446C10.8364 0.350723 10.9344 0.351157 11.0326 0.35188C11.0875 0.351829 11.1424 0.351778 11.199 0.351725C11.375 0.379938 11.4526 0.439293 11.5789 0.562559C11.6367 0.678184 11.629 0.748239 11.625 0.877317C11.6183 1.13772 11.6152 1.39796 11.6133 1.65844C11.6119 1.77028 11.6094 1.88211 11.6057 1.99389C11.5825 2.74018 11.6474 3.20961 12.1649 3.76697C12.1935 3.7965 12.2222 3.82604 12.2517 3.85646C12.3481 3.95768 12.4296 4.06612 12.5102 4.18017C12.5339 4.2126 12.5575 4.24502 12.5819 4.27843C12.6162 4.32578 12.6162 4.32578 12.6512 4.37408C12.9211 4.74382 13.1973 5.10847 13.4772 5.47076C13.5067 5.50923 13.5363 5.5477 13.5667 5.58734C13.5925 5.6207 13.6183 5.65406 13.6448 5.68844C13.6746 5.7294 13.7045 5.77036 13.7352 5.81256C13.7709 5.85565 13.7709 5.85565 13.8073 5.8996C14.0406 6.20376 14.0541 6.45405 14.0439 6.82934C14.0435 6.88493 14.0431 6.94052 14.0427 6.99779C14.0411 7.17405 14.0376 7.3502 14.034 7.52643C14.0326 7.64645 14.0313 7.76648 14.0302 7.8865C14.0271 8.1796 14.0224 8.47263 14.0164 8.76568C14.059 8.76517 14.059 8.76517 14.1024 8.76465C14.1587 8.76425 14.1587 8.76425 14.2162 8.76384C14.2533 8.7635 14.2904 8.76316 14.3286 8.7628C15.2422 8.78677 16.0979 9.35644 16.8289 9.84381C16.7402 9.06838 16.5572 8.36737 16.3087 7.62951C16.292 7.57974 16.2753 7.52997 16.258 7.47869C16.2255 7.38249 16.1927 7.2864 16.1594 7.19046C15.7742 6.0637 15.867 4.96681 16.3602 3.89068C16.3757 3.85975 16.3911 3.82881 16.4071 3.79693C16.6735 3.87407 16.9118 3.99804 17.1571 4.12506C17.1279 4.3421 17.0697 4.5325 16.993 4.73736C16.8641 5.08251 16.8185 5.3708 16.8143 5.73639C16.8122 5.79304 16.8122 5.79304 16.8102 5.85083C16.8034 6.51949 17.0924 7.18233 17.3115 7.80558C17.4767 8.27741 17.594 8.74057 17.6727 9.23443C17.8267 9.18374 17.9797 9.1325 18.1306 9.0733C18.1617 9.06134 18.1927 9.04937 18.2247 9.03705C18.2878 9.01257 18.351 8.98792 18.414 8.96307C19.1751 8.67129 20.1023 8.63338 20.8602 8.95318C22.0352 9.48242 22.7272 10.488 23.1759 11.6555C23.8311 13.5234 23.8042 15.5379 22.9578 17.3379C22.6542 17.9623 22.279 18.4832 21.7977 18.9844C21.7611 19.0234 21.7246 19.0624 21.6869 19.1025C21.403 19.3973 21.0991 19.6384 20.7664 19.8751C20.8253 19.9152 20.8253 19.9152 20.8853 19.9562C21.6472 20.4839 22.4508 21.0731 22.7996 21.961C22.8531 22.2606 22.8258 22.5402 22.6572 22.7991C22.2294 23.3181 21.492 23.4453 20.8602 23.5313C20.8249 23.5362 20.7896 23.5411 20.7533 23.5461C17.0106 24.0324 12.2392 23.5007 7.31331 21.4219C6.75874 20.9795 6.5267 20.5392 6.32893 19.8751C6.30664 19.9013 6.28434 19.9275 6.26137 19.9545C5.47983 20.8498 4.34404 21.9862 3.09602 22.0943C2.53919 22.1212 2.07492 22.0041 1.63557 21.6426C1.60657 21.6162 1.57757 21.5898 1.54768 21.5626C1.49838 21.5179 1.49838 21.5179 1.44807 21.4723C1.14168 21.1642 1.00603 20.8196 0.974747 20.387C0.991485 19.8755 1.23803 19.4463 1.58394 19.0804C2.04524 18.6563 2.04524 18.6563 2.25081 18.6563C2.25081 18.6254 2.25081 18.5944 2.25081 18.5626C2.21957 18.5587 2.18833 18.5548 2.15614 18.5508C1.53224 18.3938 0.901404 17.8962 0.571915 17.3548C0.329111 16.8964 0.301801 16.4206 0.451981 15.9229C0.567558 15.6144 0.715828 15.371 0.988188 15.1812C1.11328 15.0768 1.12463 15.0525 1.16062 14.8821C1.1619 14.8175 1.16164 14.7528 1.16015 14.6882C1.16045 14.6524 1.16075 14.6167 1.16106 14.5798C1.16172 14.4601 1.16039 14.3405 1.15907 14.2209C1.15914 14.135 1.15934 14.0492 1.15966 13.9633C1.16009 13.7785 1.15963 13.5937 1.1585 13.4088C1.15672 13.1165 1.15698 12.8242 1.15754 12.5319C1.15833 11.964 1.15701 11.3962 1.1555 10.8283C1.1537 10.1058 1.15294 9.38337 1.15387 8.66089C1.15418 8.37038 1.15351 8.07988 1.15207 7.78937C1.15135 7.60852 1.15139 7.42767 1.15163 7.24681C1.15158 7.16304 1.15121 7.07928 1.15049 6.99551C1.14955 6.88098 1.14976 6.7665 1.15025 6.65197C1.14969 6.61898 1.14914 6.58598 1.14857 6.55199C1.15234 6.22908 1.30213 6.01432 1.49898 5.76788C1.52459 5.73547 1.5502 5.70307 1.57659 5.66968C1.60379 5.63562 1.63099 5.60156 1.65901 5.56646C1.89091 5.27232 2.11773 4.97535 2.3387 4.67291C2.6147 4.29537 2.89662 3.92266 3.18115 3.55152C3.2113 3.51214 3.24146 3.47276 3.27254 3.43219C3.29929 3.39735 3.32604 3.36252 3.35361 3.32663C3.47909 3.15915 3.52814 3.07011 3.52915 2.86211C3.52963 2.81502 3.5301 2.76792 3.5306 2.7194C3.5307 2.66857 3.5308 2.61774 3.5309 2.56537C3.53208 2.45794 3.53327 2.35052 3.53447 2.2431C3.53582 2.07358 3.53694 1.90405 3.53782 1.73453C3.53884 1.57103 3.54069 1.40756 3.54262 1.24408C3.54262 1.19344 3.54263 1.14279 3.54263 1.09062C3.54849 0.647097 3.54849 0.647097 3.70393 0.468809C3.87174 0.356938 3.94527 0.363094 4.14462 0.362523ZM4.40706 1.21881C4.40706 1.72928 4.40706 2.23975 4.40706 2.76568C6.51081 2.76568 8.61456 2.76568 10.7821 2.76568C10.7821 2.25521 10.7821 1.74475 10.7821 1.21881C8.67831 1.21881 6.57456 1.21881 4.40706 1.21881ZM3.61763 4.35471C3.54731 4.48218 3.46211 4.59479 3.37215 4.70898C3.32248 4.77696 3.27291 4.84501 3.22347 4.91314C2.9932 5.22837 2.75851 5.53932 2.51778 5.84662C2.43364 5.93729 2.43364 5.93729 2.43831 6.00006C3.22758 6.01983 4.01676 6.03468 4.80622 6.04378C5.17286 6.04811 5.53933 6.05402 5.90587 6.06371C6.22563 6.07216 6.54529 6.07757 6.86516 6.07945C7.03436 6.08054 7.20324 6.08308 7.37233 6.08927C8.06648 6.13822 8.06648 6.13822 8.69943 5.91734C8.90215 5.72222 9.04771 5.50133 9.18086 5.25478C9.25118 5.12731 9.33639 5.0147 9.42635 4.90051C9.47602 4.83254 9.52558 4.76449 9.57503 4.69635C9.80529 4.38112 10.04 4.07018 10.2807 3.76288C10.3649 3.6722 10.3649 3.6722 10.3602 3.60943C9.57092 3.58966 8.78173 3.57481 7.99227 3.56572C7.62564 3.56138 7.25916 3.55547 6.89262 3.54578C6.57286 3.53733 6.25321 3.53192 5.93334 3.53005C5.76414 3.52895 5.59526 3.52642 5.42616 3.52022C4.56235 3.4898 4.0522 3.55003 3.61763 4.35471ZM11.1571 3.93756C11.0892 4.01225 11.0892 4.01225 11.0208 4.11096C10.9939 4.14803 10.967 4.1851 10.9393 4.22329C10.9106 4.26339 10.8819 4.30348 10.8524 4.34479C10.7927 4.42704 10.733 4.50925 10.6733 4.59143C10.6439 4.63194 10.6145 4.67244 10.5843 4.71418C10.4749 4.86353 10.3625 5.01027 10.2489 5.15631C9.87936 5.55145 9.87936 5.55145 9.65706 6.00006C10.678 6.00006 11.6989 6.00006 12.7508 6.00006C12.5296 5.66578 12.5296 5.66578 12.2945 5.34472C12.2639 5.30498 12.2334 5.26523 12.2019 5.22428C12.1546 5.16308 12.1546 5.16308 12.1063 5.10064C11.8589 4.77926 11.6155 4.45648 11.3876 4.1209C11.3442 4.0582 11.2978 3.99759 11.2508 3.93756C11.2199 3.93756 11.1889 3.93756 11.1571 3.93756ZM2.01643 6.84381C2.01643 7.61725 2.01643 8.39068 2.01643 9.18756C4.12018 9.18756 6.22393 9.18756 8.39143 9.18756C8.39143 8.41412 8.39143 7.64068 8.39143 6.84381C6.28768 6.84381 4.18393 6.84381 2.01643 6.84381ZM9.23518 6.84381C9.23518 9.58178 9.23518 12.3197 9.23518 15.1407C9.49815 15.1407 9.76112 15.1407 10.0321 15.1407C10.0304 15.0467 10.0288 14.9526 10.0271 14.8558C10.0045 13.0108 10.3332 11.099 11.6568 9.71325C12.1203 9.27105 12.5622 9.06291 13.1727 8.85943C13.1727 8.19428 13.1727 7.52912 13.1727 6.84381C11.8733 6.84381 10.5739 6.84381 9.23518 6.84381ZM11.96 10.6033C11.1547 11.6968 10.8183 13.0311 10.8231 14.3731C10.8229 14.4243 10.8227 14.4756 10.8225 14.5284C10.8228 14.7843 10.8303 15.0292 10.8758 15.2813C11.093 15.3565 11.3105 15.427 11.5322 15.4877C12.7961 15.8345 13.9995 16.3269 15.1883 16.8751C15.2975 16.9249 15.4067 16.9747 15.5159 17.0245C16.5939 17.5182 17.6501 18.0413 18.6772 18.634C18.8874 18.7547 19.0992 18.8723 19.3112 18.9896C19.4457 19.0647 19.57 19.1415 19.694 19.2333C19.8198 19.3229 19.8198 19.3229 19.947 19.3111C20.3891 19.1384 20.7563 18.7922 21.0946 18.4688C21.1228 18.4436 21.151 18.4183 21.1801 18.3923C22.1942 17.4514 22.7264 15.9477 22.7951 14.5952C22.8408 13.1135 22.4455 11.474 21.4232 10.3552C20.85 9.81096 20.251 9.57568 19.4713 9.59515C18.8787 9.62643 18.3733 9.89945 17.8602 10.1719C17.8272 10.1848 17.7943 10.1977 17.7603 10.211C17.6648 10.2588 17.6648 10.2588 17.6334 10.3602C17.6263 10.398 17.6191 10.4359 17.6117 10.475C17.5996 10.537 17.5996 10.537 17.5873 10.6003C17.5759 10.6652 17.5759 10.6652 17.5643 10.7315C17.5558 10.7746 17.5473 10.8177 17.5386 10.8621C17.488 11.1048 17.488 11.1048 17.5321 11.3438C17.6249 11.2355 17.7177 11.1272 17.8133 11.0157C17.9867 11.08 18.1392 11.1593 18.2967 11.2559C18.3381 11.2812 18.3795 11.3064 18.4221 11.3325C18.4533 11.3517 18.4844 11.3709 18.5164 11.3907C18.2794 11.8746 17.8876 12.1271 17.3934 12.3165C16.8507 12.481 16.2699 12.3794 15.7726 12.1273C15.479 11.9465 15.159 11.6776 15.0477 11.3438C15.1057 11.3279 15.1057 11.3279 15.1649 11.3116C15.3361 11.2474 15.4716 11.165 15.6226 11.0637C15.7039 11.0157 15.7039 11.0157 15.7977 11.0157C15.8507 11.0732 15.9011 11.1333 15.95 11.1944C16.0878 11.3565 16.2032 11.4572 16.4071 11.5313C16.4535 11.5313 16.4999 11.5313 16.5477 11.5313C16.6096 11.2993 16.6714 11.0672 16.7352 10.8282C16.6407 10.7652 16.5462 10.7023 16.4516 10.6396C16.3504 10.5718 16.2501 10.5032 16.1502 10.4338C14.7522 9.46946 13.1644 9.18518 11.96 10.6033ZM2.01643 10.0313C2.01643 11.5937 2.01643 13.156 2.01643 14.7657C2.26393 14.7657 2.51143 14.7657 2.76643 14.7657C2.97027 14.7793 3.17267 14.7931 3.37581 14.8126C3.34617 14.7312 3.34617 14.7312 3.31593 14.6481C3.28998 14.576 3.26404 14.5038 3.23811 14.4317C3.21858 14.3782 3.21858 14.3782 3.19865 14.3237C3.00931 13.7944 2.97851 13.2801 3.18831 12.7501C3.39402 12.3683 3.72825 12.134 4.13753 12.0059C4.65602 11.8844 5.23202 11.9059 5.70674 12.163C6.80465 12.8894 7.14329 14.4085 7.39209 15.6185C7.41323 15.7248 7.43393 15.8311 7.45393 15.9376C7.47869 15.9188 7.50345 15.8999 7.52896 15.8806C7.85914 15.6311 7.85914 15.6311 8.02815 15.5274C8.07202 15.5002 8.07202 15.5002 8.11678 15.4725C8.20624 15.4206 8.29894 15.3744 8.39143 15.3282C8.39143 13.5802 8.39143 11.8322 8.39143 10.0313C6.28768 10.0313 4.18393 10.0313 2.01643 10.0313ZM4.01448 12.9727C3.84029 13.2139 3.8254 13.4617 3.86379 13.7473C3.98044 14.2865 4.29551 14.7567 4.65315 15.1683C4.7429 15.2919 4.75957 15.3478 4.75569 15.4981C4.75563 15.5335 4.75557 15.5689 4.75551 15.6054C4.72979 15.7291 4.693 15.7658 4.59456 15.8438C4.26859 15.9024 3.94178 15.811 3.62776 15.7296C2.98123 15.5733 2.23283 15.4137 1.62093 15.7618C1.38467 15.9288 1.26585 16.1087 1.21663 16.3946C1.19728 16.7163 1.32693 16.954 1.52681 17.1986C1.98433 17.647 2.67778 17.8604 3.26906 18.0684C3.78258 18.2511 3.78258 18.2511 3.84456 18.3751C3.87184 18.7133 3.87184 18.7133 3.77205 18.8477C3.62708 18.961 3.47499 19.0127 3.30257 19.0694C2.96695 19.1876 2.67946 19.335 2.39143 19.5469C2.34303 19.5825 2.34303 19.5825 2.29366 19.6187C2.05614 19.8071 1.92327 20.0044 1.83186 20.2969C1.82697 20.5317 1.89576 20.6853 2.05104 20.8545C2.34355 21.1243 2.63315 21.2748 3.03743 21.2626C3.5857 21.1602 4.0814 20.7841 4.50081 20.4376C4.52678 20.4163 4.55274 20.395 4.5795 20.3731C5.0749 19.9654 5.55353 19.5293 5.9651 19.0355C6.02103 18.9692 6.07842 18.9041 6.13707 18.8401C6.41268 18.5254 6.52975 18.2193 6.63655 17.8184C6.65314 17.7626 6.66972 17.7069 6.68681 17.6494C6.78998 17.2785 6.81188 16.973 6.75081 16.5938C6.74382 16.5474 6.73683 16.5009 6.72963 16.4531C6.54507 15.3127 6.28157 13.7696 5.39436 12.9376C4.96926 12.6599 4.42411 12.6709 4.01448 12.9727ZM8.11458 16.4969C7.47597 17.2602 7.12936 18.5663 7.15968 19.5488C7.2052 20.0347 7.40108 20.3639 7.7632 20.6868C9.30882 21.9162 12.4188 22.5337 14.3914 22.4532C14.516 22.1824 14.601 21.9078 14.6815 21.6212C14.6943 21.5769 14.707 21.5326 14.7202 21.4869C14.7905 21.2472 14.7905 21.2472 14.8133 21.0001C14.9374 21.038 15.0614 21.0761 15.1854 21.1143C15.2208 21.1251 15.2561 21.1359 15.2926 21.147C15.558 21.2291 15.558 21.2291 15.6102 21.2813C15.6002 21.3144 15.5903 21.3475 15.5801 21.3816C15.5352 21.5317 15.4906 21.6819 15.4461 21.8321C15.4226 21.9102 15.4226 21.9102 15.3987 21.9899C15.3839 22.0401 15.3691 22.0902 15.3538 22.1419C15.3401 22.1881 15.3263 22.2342 15.3122 22.2817C15.2747 22.4153 15.2747 22.4153 15.2821 22.5938C15.4994 22.6132 15.7167 22.6323 15.9341 22.6513C16.0076 22.6578 16.0811 22.6643 16.1545 22.6708C17.0161 22.7476 17.874 22.7912 18.7391 22.7901C18.7798 22.7901 18.8205 22.79 18.8625 22.79C20.5044 22.8402 20.5044 22.8402 21.9852 22.2657C21.6692 21.4382 20.7688 20.9122 20.0633 20.4376C19.9584 20.6219 19.9056 20.8212 19.8465 21.0235C19.8358 21.0591 19.825 21.0947 19.8139 21.1313C19.7987 21.1831 19.7987 21.1831 19.7832 21.2359C19.7739 21.2671 19.7647 21.2983 19.7552 21.3305C19.7285 21.4369 19.7285 21.4369 19.7352 21.6094C19.69 21.5959 19.6448 21.5824 19.5982 21.5684C19.539 21.551 19.4798 21.5336 19.4188 21.5157C19.36 21.4983 19.3013 21.4809 19.2408 21.4629C19.0765 21.4143 19.0765 21.4143 18.8914 21.4219C18.9028 21.3848 18.9142 21.3477 18.9259 21.3095C18.968 21.1711 19.0099 21.0326 19.0517 20.8941C19.0786 20.8049 19.1059 20.7159 19.1331 20.6268C19.1501 20.5705 19.167 20.5141 19.1844 20.4561C19.208 20.3784 19.208 20.3784 19.232 20.2991C19.265 20.1622 19.2893 20.061 19.2664 19.9219C19.1837 19.8402 19.1837 19.8402 19.0665 19.7802C19.0225 19.755 18.9785 19.7297 18.9332 19.7038C18.8846 19.6771 18.836 19.6505 18.786 19.6231C18.7356 19.5947 18.6853 19.5663 18.6334 19.5371C18.4976 19.4609 18.3615 19.3858 18.2248 19.3112C18.1428 19.2664 18.0609 19.2214 17.979 19.1764C16.5047 18.3687 14.9973 17.6365 13.4422 16.9981C13.3887 16.976 13.3351 16.954 13.2799 16.9312C13.2307 16.9114 13.1816 16.8915 13.1309 16.871C13.0879 16.8536 13.0449 16.8362 13.0005 16.8182C12.8884 16.7738 12.8884 16.7738 12.7508 16.7813C12.6284 17.2005 12.5061 17.6198 12.3841 18.0392C12.3275 18.2339 12.2707 18.4286 12.2139 18.6232C12.159 18.811 12.1043 18.9988 12.0497 19.1867C12.0289 19.2584 12.0079 19.3301 11.9869 19.4018C11.9576 19.5021 11.9284 19.6024 11.8994 19.7028C11.8744 19.7885 11.8744 19.7885 11.8489 19.876C11.8075 20.0144 11.8075 20.0144 11.8133 20.1563C11.5503 20.079 11.2874 20.0016 11.0164 19.9219C11.0583 19.7705 11.1003 19.6192 11.1424 19.4678C11.1632 19.3932 11.1632 19.3932 11.1844 19.3171C11.2879 18.9471 11.3943 18.578 11.502 18.2092C11.5299 18.1136 11.5577 18.018 11.5856 17.9224C11.6276 17.7781 11.6698 17.6338 11.7122 17.4897C11.7524 17.3529 11.7923 17.2161 11.8322 17.0792C11.8445 17.0378 11.8567 16.9963 11.8694 16.9536C11.8806 16.9151 11.8917 16.8766 11.9032 16.837C11.913 16.8035 11.9229 16.77 11.933 16.7354C11.9607 16.6263 11.9607 16.6263 11.9539 16.4532C9.95422 15.7988 9.95422 15.7988 8.11458 16.4969Z" fill="#005F73"/>
<path d="M4.14462 0.362523C4.1752 0.362311 4.20578 0.362098 4.23729 0.361879C4.33996 0.361285 4.44261 0.361363 4.54528 0.36144C4.61881 0.36116 4.69234 0.360841 4.76587 0.360486C4.96577 0.359657 5.16567 0.359438 5.36557 0.359378C5.53238 0.359289 5.69919 0.358944 5.86601 0.358612C6.25955 0.357848 6.65309 0.35762 7.04664 0.357686C7.45273 0.357743 7.8588 0.356753 8.26489 0.355273C8.61342 0.354047 8.96195 0.353544 9.31048 0.353604C9.51869 0.353628 9.7269 0.35336 9.93511 0.352369C10.1309 0.351462 10.3268 0.351453 10.5226 0.352136C10.5945 0.352234 10.6663 0.352012 10.7382 0.351446C10.8364 0.350723 10.9344 0.351157 11.0326 0.35188C11.0875 0.351829 11.1424 0.351778 11.199 0.351725C11.375 0.379938 11.4526 0.439293 11.5789 0.562559C11.6367 0.678184 11.629 0.748239 11.625 0.877317C11.6183 1.13772 11.6152 1.39796 11.6133 1.65844C11.6119 1.77028 11.6094 1.88211 11.6057 1.99389C11.5825 2.74018 11.6474 3.20961 12.1649 3.76697C12.1935 3.7965 12.2222 3.82604 12.2517 3.85646C12.3481 3.95768 12.4296 4.06612 12.5102 4.18017C12.5339 4.2126 12.5575 4.24502 12.5819 4.27843C12.6162 4.32578 12.6162 4.32578 12.6512 4.37408C12.9211 4.74382 13.1973 5.10847 13.4772 5.47076C13.5067 5.50923 13.5363 5.5477 13.5667 5.58734C13.5925 5.6207 13.6183 5.65406 13.6448 5.68844C13.6746 5.7294 13.7045 5.77036 13.7352 5.81256C13.7709 5.85565 13.7709 5.85565 13.8073 5.8996C14.0406 6.20376 14.0541 6.45405 14.0439 6.82934C14.0435 6.88493 14.0431 6.94052 14.0427 6.99779C14.0411 7.17405 14.0376 7.3502 14.034 7.52643C14.0326 7.64645 14.0313 7.76648 14.0302 7.8865C14.0271 8.1796 14.0224 8.47263 14.0164 8.76568C14.059 8.76517 14.059 8.76517 14.1024 8.76465C14.1587 8.76425 14.1587 8.76425 14.2162 8.76384C14.2533 8.7635 14.2904 8.76316 14.3286 8.7628C15.2422 8.78677 16.0979 9.35644 16.8289 9.84381C16.7402 9.06838 16.5572 8.36737 16.3087 7.62951C16.292 7.57974 16.2753 7.52997 16.258 7.47869C16.2255 7.38249 16.1927 7.2864 16.1594 7.19046C15.7742 6.0637 15.867 4.96681 16.3602 3.89068C16.3757 3.85975 16.3911 3.82881 16.4071 3.79693C16.6735 3.87407 16.9118 3.99804 17.1571 4.12506C17.1279 4.3421 17.0697 4.5325 16.993 4.73736C16.8641 5.08251 16.8185 5.3708 16.8143 5.73639C16.8122 5.79304 16.8122 5.79304 16.8102 5.85083C16.8034 6.51949 17.0924 7.18233 17.3115 7.80558C17.4767 8.27741 17.594 8.74057 17.6727 9.23443C17.8267 9.18374 17.9797 9.1325 18.1306 9.0733C18.1617 9.06134 18.1927 9.04937 18.2247 9.03705C18.2878 9.01257 18.351 8.98792 18.414 8.96307C19.1751 8.67129 20.1023 8.63338 20.8602 8.95318C22.0352 9.48242 22.7272 10.488 23.1759 11.6555C23.8311 13.5234 23.8042 15.5379 22.9578 17.3379C22.6542 17.9623 22.279 18.4832 21.7977 18.9844C21.7611 19.0234 21.7246 19.0624 21.6869 19.1025C21.403 19.3973 21.0991 19.6384 20.7664 19.8751C20.8253 19.9152 20.8253 19.9152 20.8853 19.9562C21.6472 20.4839 22.4508 21.0731 22.7996 21.961C22.8531 22.2606 22.8258 22.5402 22.6572 22.7991C22.2294 23.3181 21.492 23.4453 20.8602 23.5313C20.8249 23.5362 20.7896 23.5411 20.7533 23.5461C17.0106 24.0324 12.2392 23.5007 7.31331 21.4219C6.75874 20.9795 6.5267 20.5392 6.32893 19.8751C6.30664 19.9013 6.28434 19.9275 6.26137 19.9545C5.47983 20.8498 4.34404 21.9862 3.09602 22.0943C2.53919 22.1212 2.07492 22.0041 1.63557 21.6426C1.60657 21.6162 1.57757 21.5898 1.54768 21.5626C1.49838 21.5179 1.49838 21.5179 1.44807 21.4723C1.14168 21.1642 1.00603 20.8196 0.974747 20.387C0.991485 19.8755 1.23803 19.4463 1.58394 19.0804C2.04524 18.6563 2.04524 18.6563 2.25081 18.6563C2.25081 18.6254 2.25081 18.5944 2.25081 18.5626C2.21957 18.5587 2.18833 18.5548 2.15614 18.5508C1.53224 18.3938 0.901404 17.8962 0.571915 17.3548C0.329111 16.8964 0.301801 16.4206 0.451981 15.9229C0.567558 15.6144 0.715828 15.371 0.988188 15.1812C1.11328 15.0768 1.12463 15.0525 1.16062 14.8821C1.1619 14.8175 1.16164 14.7528 1.16015 14.6882C1.16045 14.6524 1.16075 14.6167 1.16106 14.5798C1.16172 14.4601 1.16039 14.3405 1.15907 14.2209C1.15914 14.135 1.15934 14.0492 1.15966 13.9633C1.16009 13.7785 1.15963 13.5937 1.1585 13.4088C1.15672 13.1165 1.15698 12.8242 1.15754 12.5319C1.15833 11.964 1.15701 11.3962 1.1555 10.8283C1.1537 10.1058 1.15294 9.38337 1.15387 8.66089C1.15418 8.37038 1.15351 8.07988 1.15207 7.78937C1.15135 7.60852 1.15139 7.42767 1.15163 7.24681C1.15158 7.16304 1.15121 7.07928 1.15049 6.99551C1.14955 6.88098 1.14976 6.7665 1.15025 6.65197C1.14969 6.61898 1.14914 6.58598 1.14857 6.55199C1.15234 6.22908 1.30213 6.01432 1.49898 5.76788C1.52459 5.73547 1.5502 5.70307 1.57659 5.66968C1.60379 5.63562 1.63099 5.60156 1.65901 5.56646C1.89091 5.27232 2.11773 4.97535 2.3387 4.67291C2.6147 4.29537 2.89662 3.92266 3.18115 3.55152C3.2113 3.51214 3.24146 3.47276 3.27254 3.43219C3.29929 3.39735 3.32604 3.36252 3.35361 3.32663C3.47909 3.15915 3.52814 3.07011 3.52915 2.86211C3.52963 2.81502 3.5301 2.76792 3.5306 2.7194C3.5307 2.66857 3.5308 2.61774 3.5309 2.56537C3.53208 2.45794 3.53327 2.35052 3.53447 2.2431C3.53582 2.07358 3.53694 1.90405 3.53782 1.73453C3.53884 1.57103 3.54069 1.40756 3.54262 1.24408C3.54262 1.19344 3.54263 1.14279 3.54263 1.09062C3.54849 0.647097 3.54849 0.647097 3.70393 0.468809C3.87174 0.356938 3.94527 0.363094 4.14462 0.362523ZM4.40706 1.21881C4.40706 1.72928 4.40706 2.23975 4.40706 2.76568C6.51081 2.76568 8.61456 2.76568 10.7821 2.76568C10.7821 2.25521 10.7821 1.74475 10.7821 1.21881C8.67831 1.21881 6.57456 1.21881 4.40706 1.21881ZM3.61763 4.35471C3.54731 4.48218 3.46211 4.59479 3.37215 4.70898C3.32248 4.77696 3.27291 4.84501 3.22347 4.91314C2.9932 5.22837 2.75851 5.53932 2.51778 5.84662C2.43364 5.93729 2.43364 5.93729 2.43831 6.00006C3.22758 6.01983 4.01676 6.03468 4.80622 6.04378C5.17286 6.04811 5.53933 6.05402 5.90587 6.06371C6.22563 6.07216 6.54529 6.07757 6.86516 6.07945C7.03436 6.08054 7.20324 6.08308 7.37233 6.08927C8.06648 6.13822 8.06648 6.13822 8.69943 5.91734C8.90215 5.72222 9.04771 5.50133 9.18086 5.25478C9.25118 5.12731 9.33639 5.0147 9.42635 4.90051C9.47602 4.83254 9.52558 4.76449 9.57503 4.69635C9.80529 4.38112 10.04 4.07018 10.2807 3.76288C10.3649 3.6722 10.3649 3.6722 10.3602 3.60943C9.57092 3.58966 8.78173 3.57481 7.99227 3.56572C7.62564 3.56138 7.25916 3.55547 6.89262 3.54578C6.57286 3.53733 6.25321 3.53192 5.93334 3.53005C5.76414 3.52895 5.59526 3.52642 5.42616 3.52022C4.56235 3.4898 4.0522 3.55003 3.61763 4.35471ZM11.1571 3.93756C11.0892 4.01225 11.0892 4.01225 11.0208 4.11096C10.9939 4.14803 10.967 4.1851 10.9393 4.22329C10.9106 4.26339 10.8819 4.30348 10.8524 4.34479C10.7927 4.42704 10.733 4.50925 10.6733 4.59143C10.6439 4.63194 10.6145 4.67244 10.5843 4.71418C10.4749 4.86353 10.3625 5.01027 10.2489 5.15631C9.87936 5.55145 9.87936 5.55145 9.65706 6.00006C10.678 6.00006 11.6989 6.00006 12.7508 6.00006C12.5296 5.66578 12.5296 5.66578 12.2945 5.34472C12.2639 5.30498 12.2334 5.26523 12.2019 5.22428C12.1546 5.16308 12.1546 5.16308 12.1063 5.10064C11.8589 4.77926 11.6155 4.45648 11.3876 4.1209C11.3442 4.0582 11.2978 3.99759 11.2508 3.93756C11.2199 3.93756 11.1889 3.93756 11.1571 3.93756ZM2.01643 6.84381C2.01643 7.61725 2.01643 8.39068 2.01643 9.18756C4.12018 9.18756 6.22393 9.18756 8.39143 9.18756C8.39143 8.41412 8.39143 7.64068 8.39143 6.84381C6.28768 6.84381 4.18393 6.84381 2.01643 6.84381ZM9.23518 6.84381C9.23518 9.58178 9.23518 12.3197 9.23518 15.1407C9.49815 15.1407 9.76112 15.1407 10.0321 15.1407C10.0304 15.0467 10.0288 14.9526 10.0271 14.8558C10.0045 13.0108 10.3332 11.099 11.6568 9.71325C12.1203 9.27105 12.5622 9.06291 13.1727 8.85943C13.1727 8.19428 13.1727 7.52912 13.1727 6.84381C11.8733 6.84381 10.5739 6.84381 9.23518 6.84381ZM11.96 10.6033C11.1547 11.6968 10.8183 13.0311 10.8231 14.3731C10.8229 14.4243 10.8227 14.4756 10.8225 14.5284C10.8228 14.7843 10.8303 15.0292 10.8758 15.2813C11.093 15.3565 11.3105 15.427 11.5322 15.4877C12.7961 15.8345 13.9995 16.3269 15.1883 16.8751C15.2975 16.9249 15.4067 16.9747 15.5159 17.0245C16.5939 17.5182 17.6501 18.0413 18.6772 18.634C18.8874 18.7547 19.0992 18.8723 19.3112 18.9896C19.4457 19.0647 19.57 19.1415 19.694 19.2333C19.8198 19.3229 19.8198 19.3229 19.947 19.3111C20.3891 19.1384 20.7563 18.7922 21.0946 18.4688C21.1228 18.4436 21.151 18.4183 21.1801 18.3923C22.1942 17.4514 22.7264 15.9477 22.7951 14.5952C22.8408 13.1135 22.4455 11.474 21.4232 10.3552C20.85 9.81096 20.251 9.57568 19.4713 9.59515C18.8787 9.62643 18.3733 9.89945 17.8602 10.1719C17.8272 10.1848 17.7943 10.1977 17.7603 10.211C17.6648 10.2588 17.6648 10.2588 17.6334 10.3602C17.6263 10.398 17.6191 10.4359 17.6117 10.475C17.5996 10.537 17.5996 10.537 17.5873 10.6003C17.5759 10.6652 17.5759 10.6652 17.5643 10.7315C17.5558 10.7746 17.5473 10.8177 17.5386 10.8621C17.488 11.1048 17.488 11.1048 17.5321 11.3438C17.6249 11.2355 17.7177 11.1272 17.8133 11.0157C17.9867 11.08 18.1392 11.1593 18.2967 11.2559C18.3381 11.2812 18.3795 11.3064 18.4221 11.3325C18.4533 11.3517 18.4844 11.3709 18.5164 11.3907C18.2794 11.8746 17.8876 12.1271 17.3934 12.3165C16.8507 12.481 16.2699 12.3794 15.7726 12.1273C15.479 11.9465 15.159 11.6776 15.0477 11.3438C15.1057 11.3279 15.1057 11.3279 15.1649 11.3116C15.3361 11.2474 15.4716 11.165 15.6226 11.0637C15.7039 11.0157 15.7039 11.0157 15.7977 11.0157C15.8507 11.0732 15.9011 11.1333 15.95 11.1944C16.0878 11.3565 16.2032 11.4572 16.4071 11.5313C16.4535 11.5313 16.4999 11.5313 16.5477 11.5313C16.6096 11.2993 16.6714 11.0672 16.7352 10.8282C16.6407 10.7652 16.5462 10.7023 16.4516 10.6396C16.3504 10.5718 16.2501 10.5032 16.1502 10.4338C14.7522 9.46946 13.1644 9.18518 11.96 10.6033ZM2.01643 10.0313C2.01643 11.5937 2.01643 13.156 2.01643 14.7657C2.26393 14.7657 2.51143 14.7657 2.76643 14.7657C2.97027 14.7793 3.17267 14.7931 3.37581 14.8126C3.34617 14.7312 3.34617 14.7312 3.31593 14.6481C3.28998 14.576 3.26404 14.5038 3.23811 14.4317C3.21858 14.3782 3.21858 14.3782 3.19865 14.3237C3.00931 13.7944 2.97851 13.2801 3.18831 12.7501C3.39402 12.3683 3.72825 12.134 4.13753 12.0059C4.65602 11.8844 5.23202 11.9059 5.70674 12.163C6.80465 12.8894 7.14329 14.4085 7.39209 15.6185C7.41323 15.7248 7.43393 15.8311 7.45393 15.9376C7.47869 15.9188 7.50345 15.8999 7.52896 15.8806C7.85914 15.6311 7.85914 15.6311 8.02815 15.5274C8.07202 15.5002 8.07202 15.5002 8.11678 15.4725C8.20624 15.4206 8.29894 15.3744 8.39143 15.3282C8.39143 13.5802 8.39143 11.8322 8.39143 10.0313C6.28768 10.0313 4.18393 10.0313 2.01643 10.0313ZM4.01448 12.9727C3.84029 13.2139 3.8254 13.4617 3.86379 13.7473C3.98044 14.2865 4.29551 14.7567 4.65315 15.1683C4.7429 15.2919 4.75957 15.3478 4.75569 15.4981C4.75563 15.5335 4.75557 15.5689 4.75551 15.6054C4.72979 15.7291 4.693 15.7658 4.59456 15.8438C4.26859 15.9024 3.94178 15.811 3.62776 15.7296C2.98123 15.5733 2.23283 15.4137 1.62093 15.7618C1.38467 15.9288 1.26585 16.1087 1.21663 16.3946C1.19728 16.7163 1.32693 16.954 1.52681 17.1986C1.98433 17.647 2.67778 17.8604 3.26906 18.0684C3.78258 18.2511 3.78258 18.2511 3.84456 18.3751C3.87184 18.7133 3.87184 18.7133 3.77205 18.8477C3.62708 18.961 3.47499 19.0127 3.30257 19.0694C2.96695 19.1876 2.67946 19.335 2.39143 19.5469C2.34303 19.5825 2.34303 19.5825 2.29366 19.6187C2.05614 19.8071 1.92327 20.0044 1.83186 20.2969C1.82697 20.5317 1.89576 20.6853 2.05104 20.8545C2.34355 21.1243 2.63315 21.2748 3.03743 21.2626C3.5857 21.1602 4.0814 20.7841 4.50081 20.4376C4.52678 20.4163 4.55274 20.395 4.5795 20.3731C5.0749 19.9654 5.55353 19.5293 5.9651 19.0355C6.02103 18.9692 6.07842 18.9041 6.13707 18.8401C6.41268 18.5254 6.52975 18.2193 6.63655 17.8184C6.65314 17.7626 6.66972 17.7069 6.68681 17.6494C6.78998 17.2785 6.81188 16.973 6.75081 16.5938C6.74382 16.5474 6.73683 16.5009 6.72963 16.4531C6.54507 15.3127 6.28157 13.7696 5.39436 12.9376C4.96926 12.6599 4.42411 12.6709 4.01448 12.9727ZM8.11458 16.4969C7.47597 17.2602 7.12936 18.5663 7.15968 19.5488C7.2052 20.0347 7.40108 20.3639 7.7632 20.6868C9.30882 21.9162 12.4188 22.5337 14.3914 22.4532C14.516 22.1824 14.601 21.9078 14.6815 21.6212C14.6943 21.5769 14.707 21.5326 14.7202 21.4869C14.7905 21.2472 14.7905 21.2472 14.8133 21.0001C14.9374 21.038 15.0614 21.0761 15.1854 21.1143C15.2208 21.1251 15.2561 21.1359 15.2926 21.147C15.558 21.2291 15.558 21.2291 15.6102 21.2813C15.6002 21.3144 15.5903 21.3475 15.5801 21.3816C15.5352 21.5317 15.4906 21.6819 15.4461 21.8321C15.4226 21.9102 15.4226 21.9102 15.3987 21.9899C15.3839 22.0401 15.3691 22.0902 15.3538 22.1419C15.3401 22.1881 15.3263 22.2342 15.3122 22.2817C15.2747 22.4153 15.2747 22.4153 15.2821 22.5938C15.4994 22.6132 15.7167 22.6323 15.9341 22.6513C16.0076 22.6578 16.0811 22.6643 16.1545 22.6708C17.0161 22.7476 17.874 22.7912 18.7391 22.7901C18.7798 22.7901 18.8205 22.79 18.8625 22.79C20.5044 22.8402 20.5044 22.8402 21.9852 22.2657C21.6692 21.4382 20.7688 20.9122 20.0633 20.4376C19.9584 20.6219 19.9056 20.8212 19.8465 21.0235C19.8358 21.0591 19.825 21.0947 19.8139 21.1313C19.7987 21.1831 19.7987 21.1831 19.7832 21.2359C19.7739 21.2671 19.7647 21.2983 19.7552 21.3305C19.7285 21.4369 19.7285 21.4369 19.7352 21.6094C19.69 21.5959 19.6448 21.5824 19.5982 21.5684C19.539 21.551 19.4798 21.5336 19.4188 21.5157C19.36 21.4983 19.3013 21.4809 19.2408 21.4629C19.0765 21.4143 19.0765 21.4143 18.8914 21.4219C18.9028 21.3848 18.9142 21.3477 18.9259 21.3095C18.968 21.1711 19.0099 21.0326 19.0517 20.8941C19.0786 20.8049 19.1059 20.7159 19.1331 20.6268C19.1501 20.5705 19.167 20.5141 19.1844 20.4561C19.208 20.3784 19.208 20.3784 19.232 20.2991C19.265 20.1622 19.2893 20.061 19.2664 19.9219C19.1837 19.8402 19.1837 19.8402 19.0665 19.7802C19.0225 19.755 18.9785 19.7297 18.9332 19.7038C18.8846 19.6771 18.836 19.6505 18.786 19.6231C18.7356 19.5947 18.6853 19.5663 18.6334 19.5371C18.4976 19.4609 18.3615 19.3858 18.2248 19.3112C18.1428 19.2664 18.0609 19.2214 17.979 19.1764C16.5047 18.3687 14.9973 17.6365 13.4422 16.9981C13.3887 16.976 13.3351 16.954 13.2799 16.9312C13.2307 16.9114 13.1816 16.8915 13.1309 16.871C13.0879 16.8536 13.0449 16.8362 13.0005 16.8182C12.8884 16.7738 12.8884 16.7738 12.7508 16.7813C12.6284 17.2005 12.5061 17.6198 12.3841 18.0392C12.3275 18.2339 12.2707 18.4286 12.2139 18.6232C12.159 18.811 12.1043 18.9988 12.0497 19.1867C12.0289 19.2584 12.0079 19.3301 11.9869 19.4018C11.9576 19.5021 11.9284 19.6024 11.8994 19.7028C11.8744 19.7885 11.8744 19.7885 11.8489 19.876C11.8075 20.0144 11.8075 20.0144 11.8133 20.1563C11.5503 20.079 11.2874 20.0016 11.0164 19.9219C11.0583 19.7705 11.1003 19.6192 11.1424 19.4678C11.1632 19.3932 11.1632 19.3932 11.1844 19.3171C11.2879 18.9471 11.3943 18.578 11.502 18.2092C11.5299 18.1136 11.5577 18.018 11.5856 17.9224C11.6276 17.7781 11.6698 17.6338 11.7122 17.4897C11.7524 17.3529 11.7923 17.2161 11.8322 17.0792C11.8445 17.0378 11.8567 16.9963 11.8694 16.9536C11.8806 16.9151 11.8917 16.8766 11.9032 16.837C11.913 16.8035 11.9229 16.77 11.933 16.7354C11.9607 16.6263 11.9607 16.6263 11.9539 16.4532C9.95422 15.7988 9.95422 15.7988 8.11458 16.4969Z" stroke="#005F73" stroke-width="0.3" mask="url(#path-1-outside-1_12474_324665)"/>
<path d="M18.957 5.0835C19.4358 5.08558 19.8689 5.21757 20.2529 5.50635L20.4414 5.66357L20.4434 5.66553C20.5484 5.77116 20.6289 5.85248 20.6895 5.91846C20.7497 5.98406 20.7936 6.03865 20.8242 6.09229C20.8884 6.20506 20.8867 6.30579 20.8867 6.46045V6.47119L20.8838 6.48291C20.7377 6.94822 20.3177 7.29411 19.9189 7.51025L19.915 7.51221C19.372 7.76305 18.7852 7.77157 18.2227 7.58936L18.2178 7.5874C17.7528 7.39953 17.3182 7.03327 17.1055 6.56689L17.0996 6.55615L17.0986 6.54443C17.0841 6.41102 17.098 6.30214 17.1357 6.19971C17.1728 6.09914 17.232 6.00798 17.3018 5.91064L17.3047 5.90674C17.6712 5.45614 18.1328 5.17824 18.709 5.09424L18.7139 5.09326L18.957 5.0835ZM19.1494 6.10205C18.9148 6.10095 18.8087 6.10026 18.7109 6.12354C18.6151 6.14637 18.525 6.192 18.3291 6.29346C18.2987 6.33189 18.2699 6.37136 18.2412 6.41064C18.4807 6.61546 18.7029 6.70549 19.0293 6.72119C19.3089 6.70615 19.4993 6.59428 19.7148 6.41553C19.545 6.2406 19.3935 6.13461 19.1494 6.10205Z" fill="#005F73" stroke="#005F73" stroke-width="0.15"/>
</g>
<defs>
<clipPath id="clip0_12474_324665">
<rect width="24" height="24" fill="white"/>
</clipPath>
</defs>
</svg>
