<svg width="24" height="24" viewBox="0 0 24 24" fill="none" xmlns="http://www.w3.org/2000/svg">
<g clip-path="url(#clip0_12474_324740)">
<path d="M15.0611 7.07114C15.1429 7.14768 15.2215 7.22552 15.2985 7.30687C15.3609 7.37359 15.3609 7.37359 15.4618 7.44778C15.6143 7.57351 15.7353 7.72098 15.8625 7.87182C15.8962 7.91126 15.93 7.9507 15.9648 7.99133C16.7665 8.937 17.3261 10.0136 17.6761 11.201C17.6849 11.2304 17.6937 11.2599 17.7027 11.2902C18.1845 12.9389 18.053 14.73 17.5074 16.3421C17.4973 16.3721 17.4872 16.402 17.4768 16.4328C17.0552 17.6461 16.2989 18.6873 15.3985 19.587C15.3741 19.6138 15.3497 19.6407 15.3245 19.6683C14.5951 20.4522 13.5993 21.0032 12.6148 21.3991C12.5867 21.4105 12.5586 21.4219 12.5296 21.4337C10.6743 22.1762 8.58813 22.1694 6.70989 21.5255C6.68336 21.5167 6.65683 21.5079 6.62949 21.4989C4.58158 20.8176 2.86799 19.2367 1.88975 17.3326C1.51852 16.5801 1.24545 15.7783 1.10026 14.9515C1.09281 14.9105 1.08536 14.8694 1.07769 14.8272C1.00654 14.3927 0.999044 13.9634 1.00009 13.524C1.00012 13.4858 1.00016 13.4477 1.0002 13.4084C1.00214 12.7992 1.0362 12.2157 1.18461 11.6224C1.19479 11.581 1.20497 11.5397 1.21546 11.4971C1.50364 10.3602 1.99219 9.31106 2.70301 8.37751C2.72916 8.34242 2.75531 8.30733 2.78226 8.27117C2.96072 8.03934 3.15757 7.82506 3.35677 7.61107C3.38279 7.58302 3.40882 7.55497 3.43563 7.52607C4.05584 6.86803 4.80784 6.33917 5.61327 5.93334C5.64243 5.91832 5.67159 5.9033 5.70162 5.88782C8.75826 4.32264 12.4651 4.89467 15.0611 7.07114ZM6.24594 6.69187C6.2019 6.71219 6.15786 6.73251 6.11249 6.75344C5.44871 7.07017 4.85231 7.50882 4.31104 8.00351C4.27869 8.03299 4.27869 8.03299 4.2457 8.06307C2.85274 9.36365 2.00573 11.2886 1.94083 13.1845C1.89558 14.9263 2.39528 16.5855 3.42794 17.9935C3.45198 18.0263 3.47601 18.0591 3.50077 18.0929C3.63753 18.2745 3.7815 18.4389 3.946 18.5961C4.01052 18.6599 4.01052 18.6599 4.11333 18.7863C5.11875 19.9624 6.74042 20.653 8.22829 20.9355C8.27576 20.9451 8.32322 20.9546 8.37212 20.9645C9.29911 21.1205 10.2665 21.0439 11.1807 20.8512C11.2267 20.8418 11.2267 20.8418 11.2736 20.8321C12.2281 20.6287 13.1422 20.1649 13.9223 19.587C13.9564 19.5619 13.9905 19.5368 14.0256 19.511C14.2708 19.3254 14.4991 19.1226 14.7237 18.9127C14.7601 18.8791 14.7966 18.8454 14.8342 18.8107C16.2266 17.478 16.9864 15.5539 17.0434 13.6451C17.0705 11.644 16.3083 9.74231 14.9345 8.29323C14.8796 8.23424 14.8796 8.23424 14.8235 8.17405C13.7468 7.04205 12.2845 6.33964 10.759 6.05976C10.7191 6.05226 10.6793 6.04475 10.6383 6.03702C10.2658 5.97272 9.89937 5.95863 9.52262 5.95968C9.47577 5.95971 9.47577 5.95971 9.42798 5.95975C8.30653 5.9635 7.2579 6.21156 6.24594 6.69187Z" fill="#005F73" stroke="#005F73" stroke-width="0.8"/>
<path d="M23.2004 16.6903C23.6738 17.1368 23.9869 17.6229 24.0157 18.2878C24.0291 19.1106 23.9097 19.7693 23.3232 20.3878C22.8958 20.7967 22.3973 21.1186 21.9044 21.4421C21.6531 21.6084 21.4186 21.791 21.1875 21.9845C21.1586 22.0077 21.1296 22.0309 21.0998 22.0548C20.9806 22.1508 20.8983 22.2307 20.8125 22.3595C22.3903 22.3827 22.3903 22.3827 24 22.4063C24 22.8704 24 23.3345 24 23.8126C22.283 23.8126 20.5659 23.8126 18.7969 23.8126C18.7969 22.8289 19.0749 22.1329 19.7626 21.4413C19.8176 21.3857 19.8714 21.3287 19.9248 21.2715C20.2875 20.8884 20.7267 20.5823 21.1493 20.2692C21.9953 19.6649 21.9953 19.6649 22.4355 18.7594C22.4724 18.4449 22.4195 18.1631 22.2744 17.8829C22.0675 17.6464 21.8762 17.5119 21.5594 17.4724C21.2796 17.4578 21.0471 17.5162 20.8125 17.672C20.4775 18.016 20.4585 18.4156 20.3906 18.8907C19.8956 18.8907 19.4006 18.8907 18.8906 18.8907C18.8906 18.19 18.9405 17.6333 19.3594 17.0626C19.3834 17.0295 19.4075 16.9964 19.4323 16.9623C19.829 16.465 20.3784 16.2603 20.9854 16.1368C21.761 16.0783 22.5876 16.1698 23.2004 16.6903Z" fill="#005F73"/>
<path d="M21.1875 0.843741C21.5899 1.29383 21.7385 1.82354 21.718 2.42083C21.677 2.8546 21.5446 3.17107 21.2812 3.51562C21.2474 3.56396 21.2136 3.6123 21.1787 3.6621C20.8296 4.06507 20.2863 4.2737 19.7659 4.31249C19.1957 4.31249 18.674 4.12087 18.2549 3.73241C18.2172 3.69181 18.1795 3.6512 18.1406 3.60937C18.0826 3.54991 18.0826 3.54991 18.0234 3.48925C17.6991 3.09311 17.5915 2.56201 17.625 2.06249C17.6796 1.53303 17.9211 1.00798 18.3351 0.667045C19.232 -0.00494763 20.3781 0.0587957 21.1875 0.843741Z" fill="#005F73"/>
<path d="M20.571 6.40747C20.9848 6.65678 21.2143 6.99252 21.3591 7.45539C21.4452 7.92326 21.3387 8.35755 21.0859 8.7569C20.8667 9.0373 20.5057 9.25612 20.1572 9.32819C19.7016 9.37618 19.2967 9.32321 18.9147 9.05957C18.5384 8.74853 18.3534 8.40756 18.2895 7.92432C18.2645 7.4363 18.433 7.02831 18.7568 6.66803C19.2413 6.22298 19.9752 6.11857 20.571 6.40747Z" fill="#005F73"/>
<path d="M15.6053 2.41172C15.8977 2.62904 16.0769 2.8985 16.1486 3.2595C16.2001 3.64463 16.1395 3.97602 15.9258 4.30375C15.7283 4.55525 15.4938 4.69565 15.1875 4.78129C14.7157 4.83219 14.3921 4.75252 14.0039 4.49125C13.7375 4.21878 13.5893 3.90856 13.582 3.52738C13.5862 3.17535 13.7061 2.90251 13.9219 2.62504C14.3845 2.18298 15.0375 2.07689 15.6053 2.41172Z" fill="#005F73"/>
</g>
<defs>
<clipPath id="clip0_12474_324740">
<rect width="24" height="24" fill="white"/>
</clipPath>
</defs>
</svg>
