<svg width="25" height="24" viewBox="0 0 25 24" fill="none" xmlns="http://www.w3.org/2000/svg">
<path d="M21.187 3.68977C18.947 1.44977 15.297 1.44977 13.057 3.68977L4.56696 12.1798C2.32696 14.4198 2.32696 18.0698 4.56696 20.3098C5.68696 21.4298 7.15696 21.9898 8.63696 21.9898C10.117 21.9898 11.577 21.4298 12.707 20.3098L21.197 11.8198C23.437 9.57977 23.437 5.92977 21.197 3.68977H21.187ZM11.637 19.2498C10.837 20.0498 9.76696 20.4898 8.62696 20.4898C7.48696 20.4898 6.42696 20.0498 5.61696 19.2498C4.80696 18.4498 4.37696 17.3798 4.37696 16.2398C4.37696 15.0998 4.81696 14.0398 5.61696 13.2298L9.32696 9.51977L15.337 15.5298L11.627 19.2398L11.637 19.2498ZM20.127 10.7598L16.417 14.4698L10.407 8.45977L14.117 4.74977C14.917 3.94977 15.987 3.50977 17.127 3.50977C18.267 3.50977 19.327 3.94977 20.137 4.74977C20.947 5.54977 21.377 6.61977 21.377 7.75977C21.377 8.89977 20.937 9.95977 20.137 10.7698L20.127 10.7598Z" fill="#005F73"/>
</svg>
