<svg width="24" height="24" viewBox="0 0 24 24" fill="none" xmlns="http://www.w3.org/2000/svg">
<path d="M8.99996 2.5H15M8.99996 2.5V6.96887C8.99996 7.31693 8.90913 7.65895 8.73644 7.96115L2.70983 18.5077C1.94793 19.841 2.91067 21.5 4.44631 21.5H19.5536C21.0892 21.5 22.052 19.841 21.2901 18.5077L15.2635 7.96115C15.0908 7.65895 15 7.31693 15 6.96887V2.5M8.99996 2.5H6.99996M15 2.5H17" stroke="#005F73" stroke-width="1.5" stroke-linecap="round" stroke-linejoin="round"/>
<path d="M12 12.8496C12.2195 12.8496 12.4004 13.0305 12.4004 13.25V14.917C12.4002 15.1364 12.2194 15.3164 12 15.3164C11.7806 15.3164 11.5998 15.1364 11.5996 14.917V13.25C11.5996 13.0305 11.7805 12.8496 12 12.8496Z" fill="#005F73" stroke="#005F73" stroke-width="0.3"/>
<path d="M12.083 15.8613L12.084 15.8594C12.0877 15.8599 12.0911 15.8617 12.0947 15.8623C12.096 15.8626 12.0974 15.862 12.0986 15.8623L12.0977 15.8633C12.1248 15.8683 12.1494 15.8756 12.1729 15.8857C12.1758 15.8867 12.1788 15.8886 12.1816 15.8896C12.1853 15.8913 12.1898 15.8918 12.1934 15.8936L12.1924 15.8945L12.2695 15.9326L12.2803 15.9395L12.2793 15.9404L12.3301 15.9805L12.3379 15.9873L12.3447 15.9941C12.4293 16.0834 12.4824 16.2065 12.4824 16.334C12.4824 16.4616 12.4293 16.5845 12.3447 16.6738L12.3379 16.6816L12.3301 16.6875C12.3134 16.7008 12.296 16.7142 12.2793 16.7275L12.2695 16.7363L12.2686 16.7354C12.2449 16.7511 12.2191 16.7628 12.1924 16.7734L12.1934 16.7754C12.1602 16.792 12.1246 16.8038 12.084 16.8096L12.083 16.8086C12.0622 16.812 12.0303 16.8174 11.999 16.8174C11.9663 16.8173 11.9313 16.8125 11.9111 16.8096L11.9082 16.8086C11.8721 16.8026 11.8376 16.7913 11.8057 16.7754V16.7734C11.7791 16.7628 11.7531 16.7511 11.7295 16.7354L11.7188 16.7285L11.8125 16.6104L11.7188 16.7275C11.7106 16.721 11.7025 16.7145 11.6943 16.708C11.686 16.7013 11.6773 16.6942 11.6689 16.6875L11.6611 16.6816L11.6533 16.6738C11.5689 16.5846 11.5156 16.4614 11.5156 16.334C11.5157 16.2065 11.5688 16.0834 11.6533 15.9941L11.6689 15.9805C11.6855 15.9672 11.7022 15.9537 11.7188 15.9404L11.7295 15.9326L11.8057 15.8945V15.8936C11.809 15.8919 11.813 15.8912 11.8164 15.8896C11.8195 15.8885 11.8221 15.8858 11.8252 15.8848V15.8857C11.849 15.8754 11.8735 15.8673 11.8994 15.8623V15.8613H11.9014C11.9036 15.8609 11.9059 15.8598 11.9082 15.8594V15.8604C11.9651 15.8485 12.0256 15.8495 12.083 15.8613Z" fill="#005F73" stroke="#005F73" stroke-width="0.3"/>
<path d="M11.999 9.84961C12.7754 9.84961 13.4593 10.3332 13.9414 11.1602L16.7578 15.9922C17.2171 16.78 17.2862 17.5686 16.8945 18.2021V18.2031C16.5047 18.8238 15.7532 19.1504 14.8154 19.1504H9.18262C8.24486 19.1504 7.49336 18.8237 7.10352 18.1982L7.10254 18.1973C6.7162 17.5688 6.78088 16.7765 7.24023 15.9883L10.0566 11.1602L10.1494 11.0088C10.6246 10.2744 11.2712 9.84962 11.999 9.84961ZM11.999 10.8145C11.6848 10.8145 11.3486 11.0169 11.0498 11.4404L10.9248 11.6348L8.11328 16.4668C7.81053 16.9844 7.78582 17.4168 7.96289 17.708C8.14091 18.0004 8.55746 18.1904 9.1875 18.1904H14.8203C15.4491 18.1904 15.8621 18.0011 16.0449 17.707C16.2026 17.4534 16.2017 17.0951 15.9951 16.6582L15.8945 16.4668L13.0732 11.6348C12.7455 11.0787 12.3579 10.8145 11.999 10.8145Z" fill="#005F73" stroke="#005F73" stroke-width="0.3"/>
</svg>
