<svg width="24" height="24" viewBox="0 0 24 24" fill="none" xmlns="http://www.w3.org/2000/svg">
<path d="M12 4.83815C10.8091 3.72652 9.88889 3.05566 9.88889 3.05566C9.88889 3.05566 2.5 8.44247 2.5 13.9807C2.5 19.5189 6.72222 21.0001 9.88889 21.0001C12.4378 21.0001 15.6705 20.0404 16.8349 16.7779M8.83333 17.3057C7.47619 17.3057 5.66667 16.6374 5.66667 14.139M21.5 10.0099C21.5 13.2677 19.0873 14.139 17.2778 14.139C15.4683 14.139 13.0556 13.2677 13.0556 10.0099C13.0556 9.08046 13.3992 8.15825 13.8905 7.31481C15.1211 5.20198 17.2778 3.58344 17.2778 3.58344C17.2778 3.58344 21.5 6.75215 21.5 10.0099Z" stroke="#005F73" stroke-width="1.5" stroke-linecap="round" stroke-linejoin="round"/>
</svg>
