<svg width="24" height="24" viewBox="0 0 24 24" fill="none" xmlns="http://www.w3.org/2000/svg">
<path d="M16 4.25H15.75V4C15.75 3.04 14.96 2.25 14 2.25H10C9.04 2.25 8.25 3.04 8.25 4V4.25H8C5.93 4.25 4.25 5.93 4.25 8V18C4.25 20.07 5.93 21.75 8 21.75H16C18.07 21.75 19.75 20.07 19.75 18V8C19.75 5.93 18.07 4.25 16 4.25ZM9.75 4C9.75 3.86 9.86 3.75 10 3.75H14C14.14 3.75 14.25 3.86 14.25 4V5C14.25 5.14 14.14 5.25 14 5.25H10C9.86 5.25 9.75 5.14 9.75 5V4ZM18.25 18C18.25 19.24 17.24 20.25 16 20.25H8C6.76 20.25 5.75 19.24 5.75 18V8C5.75 6.76 6.76 5.75 8 5.75H8.43C8.71 6.34 9.31 6.75 10 6.75H14C14.7 6.75 15.29 6.34 15.57 5.75H16C17.24 5.75 18.25 6.76 18.25 8V18Z" fill="#005F73"/>
<path d="M10 12.75H11.25V14C11.25 14.41 11.59 14.75 12 14.75C12.41 14.75 12.75 14.41 12.75 14V12.75H14C14.41 12.75 14.75 12.41 14.75 12C14.75 11.59 14.41 11.25 14 11.25H12.75V10C12.75 9.59 12.41 9.25 12 9.25C11.59 9.25 11.25 9.59 11.25 10V11.25H10C9.59 11.25 9.25 11.59 9.25 12C9.25 12.41 9.59 12.75 10 12.75Z" fill="#005F73"/>
<path d="M15 16.25H9C8.59 16.25 8.25 16.59 8.25 17C8.25 17.41 8.59 17.75 9 17.75H15C15.41 17.75 15.75 17.41 15.75 17C15.75 16.59 15.41 16.25 15 16.25Z" fill="#005F73"/>
</svg>
