<svg width="25" height="24" viewBox="0 0 25 24" fill="none" xmlns="http://www.w3.org/2000/svg">
<path d="M20.4102 17.9287L21.5011 14.257C22.6996 14.0929 23.5992 13.0738 23.5992 11.8325C23.5992 10.4947 22.5002 9.39569 21.1624 9.39569C20.7594 9.39569 20.3526 9.49311 20.0095 9.69224L17.5909 7.42967C17.8998 6.92406 18.0773 6.32115 18.0773 5.6692C18.0773 3.77277 16.5312 2.25625 14.6644 2.25625C12.7679 2.25625 11.2514 3.80233 11.2514 5.6692C11.2514 6.17872 11.3742 6.68618 11.5742 7.12579L8.90829 9.01524C8.21676 8.34359 7.26702 7.94549 6.21416 7.94549C4.0683 7.94549 2.29922 9.68523 2.29922 11.8604H2.29916L2.29927 11.8645C2.35718 14.0071 4.09471 15.7475 6.24205 15.7475C6.71954 15.7475 7.17032 15.6508 7.59306 15.5039L8.61524 17.4235C8.05335 17.8722 7.70958 18.5501 7.70958 19.3066C7.70958 20.6445 8.80861 21.7435 10.1464 21.7435C10.9814 21.7435 11.7038 21.3251 12.1519 20.6817L17.4241 20.5465C17.7694 21.1078 18.4068 21.4925 19.1265 21.4925C20.2412 21.4925 21.145 20.5887 21.145 19.474C21.145 18.8587 20.8601 18.2958 20.4102 17.9287ZM10.1464 20.9136C9.28107 20.9136 8.56735 20.1999 8.56735 19.3345C8.56735 18.4692 9.28107 17.7555 10.1464 17.7555C11.0118 17.7555 11.7255 18.4692 11.7255 19.3345C11.7255 20.1999 11.0118 20.9136 10.1464 20.9136ZM19.1265 20.6626C18.4843 20.6626 17.9658 20.1441 17.9658 19.5019C17.9658 18.8596 18.4843 18.3411 19.1265 18.3411C19.7688 18.3411 20.2873 18.8596 20.2873 19.5019C20.2873 20.1441 19.7688 20.6626 19.1265 20.6626ZM22.7693 11.8604C22.7693 12.7258 22.0556 13.4395 21.1903 13.4395C20.3249 13.4395 19.6112 12.7258 19.6112 11.8604C19.6112 10.9951 20.3249 10.2813 21.1903 10.2813C22.0556 10.2813 22.7693 10.9951 22.7693 11.8604ZM14.6922 3.14191C16.1144 3.14191 17.2474 4.30083 17.2474 5.69709C17.2474 7.11922 16.0885 8.25227 14.6922 8.25227C13.2701 8.25227 12.1371 7.09334 12.1371 5.69709C12.1371 4.27395 13.2691 3.14191 14.6922 3.14191ZM9.49039 9.69403L12.0685 7.88167C12.6867 8.63389 13.6372 9.11003 14.6922 9.11003C15.6308 9.11003 16.466 8.74354 17.0961 8.11164L19.3609 10.2492C18.9793 10.6802 18.7534 11.2335 18.7534 11.8604C18.7534 13.0186 19.5593 13.9895 20.6363 14.2355L19.6387 17.5608C19.4835 17.5193 19.3144 17.4833 19.1265 17.4833C18.0118 17.4833 17.108 18.3871 17.108 19.5019L17.108 19.5099C17.108 19.569 17.108 19.6429 17.1135 19.7192L12.5151 19.8484C12.5525 19.6918 12.5833 19.5278 12.5833 19.3345C12.5833 17.9967 11.4843 16.8977 10.1464 16.8977C9.8726 16.8977 9.61671 16.9397 9.38017 17.0251L8.39056 15.1201C9.45394 14.4147 10.157 13.2326 10.157 11.8604C10.157 11.072 9.90288 10.3109 9.49039 9.69403ZM6.24205 8.80326C7.91703 8.80326 9.29922 10.1593 9.29922 11.8604C9.29922 13.5625 7.94407 14.9176 6.24205 14.9176C4.56707 14.9176 3.18488 13.5616 3.18488 11.8604C3.18488 10.1593 4.56707 8.80326 6.24205 8.80326Z" fill="#005F73" stroke="#005F73" stroke-width="0.3"/>
</svg>
