<svg width="24" height="24" viewBox="0 0 24 24" fill="none" xmlns="http://www.w3.org/2000/svg">
<path d="M11.9902 1.75244C12.5125 1.75244 13.018 1.81908 13.4199 1.94189L13.585 1.99854L18.5752 3.86768L18.5762 3.86865C19.8289 4.33537 20.8299 5.78727 20.8301 7.11963V14.5503C20.83 15.164 20.635 15.8843 20.2959 16.5591C19.9568 17.2338 19.4951 17.8212 19.002 18.189H19.001L14.7012 21.3989L14.6953 21.4038C13.9659 21.9662 12.9973 22.2603 12 22.2603C11.0663 22.2602 10.1533 22.0026 9.42188 21.5103L9.27832 21.4087L4.97949 18.1997V18.1987L4.7959 18.0513C4.37273 17.6831 3.98158 17.1579 3.68457 16.5659C3.34508 15.8893 3.15042 15.1686 3.15039 14.5601V7.11963L3.16211 6.86865C3.27686 5.60951 4.23068 4.30609 5.40527 3.86865L5.40625 3.86768L10.3955 1.99854C10.819 1.84026 11.3934 1.75246 11.9902 1.75244ZM12 2.25146C11.5073 2.25283 10.9851 2.31824 10.5752 2.47119V2.47217L5.58496 4.34131L5.58398 4.34229C5.03994 4.5472 4.56548 4.97582 4.23047 5.46045C3.89521 5.94551 3.66016 6.54356 3.66016 7.13037V14.5601C3.66018 15.1378 3.85976 15.7858 4.14258 16.3501C4.38995 16.8436 4.72558 17.3228 5.1123 17.6636L5.28125 17.8003L9.58105 21.0103C10.2597 21.5178 11.144 21.7554 12.002 21.7554C12.86 21.7553 13.745 21.5173 14.4277 21.0112L14.4297 21.0103L18.7295 17.8003H18.7305C19.1919 17.4542 19.591 16.9102 19.873 16.3462C20.155 15.7822 20.3506 15.1368 20.3506 14.5601V7.11963C20.3505 6.53695 20.1147 5.94236 19.7803 5.4585C19.4456 4.97432 18.9729 4.54368 18.4316 4.3335L18.4258 4.33154L13.4355 2.46143L13.4268 2.4585L13.2676 2.40771C12.8854 2.29832 12.4319 2.25029 12 2.25146Z" fill="#005F73" stroke="#005F73"/>
<path d="M10.6602 14.2301C10.4702 14.2301 10.2802 14.1601 10.1302 14.0101L8.52023 12.4001C8.23023 12.1101 8.23023 11.6301 8.52023 11.3401C8.81023 11.0501 9.29023 11.0501 9.58023 11.3401L10.6602 12.4201L14.4302 8.65012C14.7202 8.36012 15.2002 8.36012 15.4902 8.65012C15.7802 8.94012 15.7802 9.42012 15.4902 9.71012L11.1902 14.0101C11.0402 14.1601 10.8502 14.2301 10.6602 14.2301Z" fill="#005F73"/>
</svg>
