<svg width="24" height="24" viewBox="0 0 24 24" fill="none" xmlns="http://www.w3.org/2000/svg">
<path d="M21.9999 11.7025C21.8699 11.7025 21.7399 11.6725 21.6199 11.5925L19.1199 10.0925C17.8199 9.3125 16.1999 9.3125 14.8899 10.0925C13.1099 11.1625 10.8999 11.1625 9.11989 10.0925C7.81989 9.3125 6.19991 9.3125 4.88991 10.0925L2.38991 11.5925C2.02991 11.8025 1.56988 11.6925 1.35988 11.3325C1.14988 10.9725 1.25989 10.5125 1.61989 10.3025L4.11989 8.8025C5.89989 7.7325 8.10991 7.7325 9.88991 8.8025C11.1899 9.5825 12.8099 9.5825 14.1199 8.8025C15.8999 7.7325 18.1099 7.7325 19.8899 8.8025L22.3899 10.3025C22.7499 10.5125 22.8599 10.9725 22.6499 11.3325C22.4999 11.5725 22.2499 11.7025 21.9999 11.7025Z" fill="#005F73"/>
<path d="M21.9987 4.75342L2.25 4.81128C1.84 4.81128 1.5 4.47128 1.5 4.06128C1.5 3.65128 1.84 3.31128 2.25 3.31128L21.9987 3.25342C22.4087 3.25342 22.7487 3.59342 22.7487 4.00342C22.7487 4.41342 22.4087 4.75342 21.9987 4.75342Z" fill="#005F73"/>
<path d="M21.9999 15.555C21.8699 15.555 21.7399 15.525 21.6199 15.445L19.1199 13.945C17.8199 13.165 16.1999 13.165 14.8899 13.945C13.1099 15.015 10.8999 15.015 9.11989 13.945C7.81989 13.165 6.19991 13.165 4.88991 13.945L2.38991 15.445C2.02991 15.655 1.56988 15.545 1.35988 15.185C1.14988 14.825 1.25989 14.365 1.61989 14.155L4.11989 12.655C5.89989 11.585 8.10991 11.585 9.88991 12.655C11.1899 13.435 12.8099 13.435 14.1199 12.655C15.8999 11.585 18.1099 11.585 19.8899 12.655L22.3899 14.155C22.7499 14.365 22.8599 14.825 22.6499 15.185C22.4999 15.425 22.2499 15.555 21.9999 15.555Z" fill="#005F73"/>
<path d="M12.0059 22.6008C11.9059 22.6008 11.8059 22.5908 11.7159 22.5708C11.6159 22.5508 11.5259 22.5208 11.4359 22.4908C11.3459 22.4508 11.2558 22.4008 11.1758 22.3508C11.0958 22.2908 11.0159 22.2308 10.9459 22.1608C10.6659 21.8808 10.5059 21.5008 10.5059 21.1008C10.5059 20.7008 10.6659 20.3208 10.9459 20.0408C11.0159 19.9708 11.0958 19.9108 11.1758 19.8508C11.2558 19.8008 11.3459 19.7508 11.4359 19.7208C11.5259 19.6808 11.6159 19.6508 11.7159 19.6308C11.9059 19.5908 12.1058 19.5908 12.2958 19.6308C12.3958 19.6508 12.4859 19.6808 12.5759 19.7208C12.6659 19.7508 12.7559 19.8008 12.8359 19.8508C12.9159 19.9108 12.9959 19.9708 13.0659 20.0408C13.3459 20.3208 13.5059 20.7008 13.5059 21.1008C13.5059 21.5008 13.3459 21.8808 13.0659 22.1608C12.9959 22.2308 12.9159 22.2908 12.8359 22.3508C12.7559 22.4008 12.6659 22.4508 12.5759 22.4908C12.4859 22.5208 12.3958 22.5508 12.2958 22.5708C12.2058 22.5908 12.1059 22.6008 12.0059 22.6008Z" fill="#005F73"/>
<path d="M3.50586 22.6008C3.10586 22.6008 2.72586 22.4408 2.44586 22.1608C2.16586 21.8808 2.00586 21.5008 2.00586 21.1008C2.00586 20.7108 2.16586 20.3208 2.44586 20.0408C2.99586 19.4808 4.00586 19.4808 4.56586 20.0408C4.84586 20.3208 5.00586 20.7108 5.00586 21.1008C5.00586 21.5008 4.84586 21.8808 4.56586 22.1608C4.49586 22.2308 4.41588 22.2908 4.33588 22.3508C4.25588 22.4008 4.16587 22.4509 4.07587 22.4809C3.98587 22.5209 3.89584 22.5508 3.79584 22.5708C3.70584 22.5908 3.60586 22.6008 3.50586 22.6008Z" fill="#005F73"/>
<path d="M20.5059 22.6008C20.1159 22.6008 19.7259 22.4408 19.4459 22.1608C19.1659 21.8808 19.0059 21.4908 19.0059 21.1008C19.0059 21.0008 19.0159 20.9008 19.0359 20.8108C19.0559 20.7108 19.0858 20.6208 19.1158 20.5308C19.1558 20.4408 19.2059 20.3508 19.2559 20.2708C19.3159 20.1908 19.3759 20.1108 19.4459 20.0408C19.5159 19.9708 19.5958 19.9108 19.6758 19.8508C19.7558 19.8008 19.8459 19.7508 19.9359 19.7208C20.0259 19.6808 20.1159 19.6508 20.2159 19.6308C20.4059 19.5908 20.6058 19.5908 20.7958 19.6308C20.8958 19.6508 20.9859 19.6808 21.0759 19.7208C21.1659 19.7508 21.2559 19.8008 21.3359 19.8508C21.4159 19.9108 21.4959 19.9708 21.5659 20.0408C21.6359 20.1108 21.6959 20.1908 21.7559 20.2708C21.8059 20.3508 21.8559 20.4408 21.8859 20.5308C21.9259 20.6208 21.9558 20.7108 21.9758 20.8108C21.9958 20.9008 22.0059 21.0008 22.0059 21.1008C22.0059 21.5008 21.8459 21.8808 21.5659 22.1608C21.4959 22.2308 21.4159 22.2908 21.3359 22.3508C21.2559 22.4008 21.1659 22.4508 21.0759 22.4908C20.9859 22.5208 20.8958 22.5508 20.7958 22.5708C20.6958 22.5908 20.6059 22.6008 20.5059 22.6008Z" fill="#005F73"/>
<path d="M7.75586 19C7.65586 19 7.55588 18.99 7.46588 18.97C7.36588 18.95 7.27585 18.92 7.18585 18.88C7.08585 18.85 7.00584 18.8 6.92584 18.75C6.83584 18.69 6.76586 18.63 6.69586 18.56C6.41586 18.28 6.25586 17.89 6.25586 17.5C6.25586 17.11 6.41586 16.72 6.69586 16.44C7.25586 15.88 8.25586 15.88 8.81586 16.44C9.09586 16.72 9.25586 17.1 9.25586 17.5C9.25586 17.9 9.09586 18.28 8.81586 18.56C8.74586 18.63 8.66588 18.69 8.58588 18.75C8.50588 18.8 8.41587 18.85 8.32587 18.88C8.23587 18.92 8.14584 18.95 8.04584 18.97C7.95584 18.99 7.85586 19 7.75586 19Z" fill="#005F73"/>
<path d="M16.2559 19C16.1559 19 16.0559 18.99 15.9659 18.97C15.8659 18.95 15.7759 18.92 15.6859 18.88C15.5959 18.85 15.5058 18.8 15.4258 18.75C15.3458 18.69 15.2659 18.63 15.1959 18.56C15.1259 18.49 15.0659 18.41 15.0059 18.33C14.9559 18.25 14.9058 18.16 14.8658 18.07C14.8358 17.98 14.8059 17.89 14.7859 17.79C14.7659 17.7 14.7559 17.6 14.7559 17.5C14.7559 17.11 14.9159 16.72 15.1959 16.44C15.2659 16.37 15.3458 16.31 15.4258 16.25C15.5058 16.2 15.5959 16.15 15.6859 16.12C15.7759 16.08 15.8659 16.05 15.9659 16.03C16.1559 15.99 16.3558 15.99 16.5458 16.03C16.6458 16.05 16.7359 16.08 16.8259 16.12C16.9159 16.15 17.0059 16.2 17.0859 16.25C17.1659 16.31 17.2459 16.37 17.3159 16.44C17.5959 16.72 17.7559 17.11 17.7559 17.5C17.7559 17.6 17.7458 17.7 17.7258 17.79C17.7058 17.89 17.6759 17.98 17.6459 18.07C17.6059 18.16 17.5559 18.25 17.5059 18.33C17.4459 18.41 17.3859 18.49 17.3159 18.56C17.2459 18.63 17.1659 18.69 17.0859 18.75C17.0059 18.8 16.9159 18.85 16.8259 18.88C16.7359 18.92 16.6458 18.95 16.5458 18.97C16.4558 18.99 16.3559 19 16.2559 19Z" fill="#005F73"/>
</svg>
