<svg width="24" height="24" viewBox="0 0 24 24" fill="none" xmlns="http://www.w3.org/2000/svg">
<path d="M4 22.5V18.073C4 17.1571 3.65701 16.285 3.19922 15.4917C2.43644 14.1698 2 12.6359 2 11C2 6.02944 6.02944 2 11 2C15.9061 2 19.8953 5.89691 19.998 11.2867C20.0006 11.4266 20.0294 11.5661 20.0862 11.6939L22 16L20 17C19 20.5 19.2 21.5 16 21.5C12.8 21.5 12.5 21 12 19.5M6.5 14.5C5.33333 13.5 4.9 9.2 8.5 8C12.1 6.8 15.7933 6 17.2933 8C18.2933 10 11.8 15.3551 9 10C6.2 4.64486 10 3.17514 12.5 5C15 6.82486 17 15 10.5 14C8.5 13.5 4.8 11.2 6 6" stroke="#005F73" stroke-width="1.5" stroke-linecap="round" stroke-linejoin="round"/>
</svg>
