<svg width="24" height="24" viewBox="0 0 24 24" fill="none" xmlns="http://www.w3.org/2000/svg">
<path d="M19.19 5.11007C18.99 4.18007 18.44 3.38007 17.64 2.84007C15.98 1.73007 13.75 2.14007 12.67 3.75007L8.88 9.41007C8.5 9.98007 8.3 10.6501 8.31 11.3501V12.2201C8.33 12.6101 8.22 12.9801 8.01 13.3001L4.61 18.3801C4.29 18.8601 4.18 19.4401 4.3 20.0101C4.42 20.5701 4.75 21.0601 5.24 21.3801C5.62 21.6301 6.05 21.7601 6.47 21.7601C7.16 21.7601 7.84 21.4301 8.24 20.8201L11.64 15.7401C11.85 15.4201 12.15 15.1801 12.52 15.0401L13.33 14.7201C13.98 14.4701 14.52 14.0301 14.9 13.4601L18.69 7.80007C19.22 7.01007 19.4 6.06007 19.19 5.13007V5.11007ZM6.07 20.1301C5.91 20.0201 5.81 19.8701 5.77 19.6901C5.73 19.5201 5.77 19.3501 5.85 19.2201L7.42 16.8501L8.56 17.6201L6.99 19.9901C6.79 20.2801 6.38 20.3501 6.06 20.1401L6.07 20.1301ZM17.44 6.95007L13.65 12.6101C13.44 12.9301 13.13 13.1701 12.77 13.3101L11.96 13.6301C11.31 13.8901 10.77 14.3201 10.39 14.8901L8.56 17.6201L7.42 16.8501L9.25 14.1201C9.63 13.5501 9.83 12.8801 9.82 12.1801V11.3101C9.8 10.9201 9.91 10.5501 10.12 10.2301L13.91 4.57007C14.29 4.00007 14.93 3.70007 15.59 3.70007C16.01 3.70007 16.43 3.82007 16.81 4.07007C17.29 4.39007 17.61 4.87007 17.73 5.41007C17.85 5.95007 17.75 6.49007 17.45 6.93007L17.44 6.95007Z" fill="#005F73"/>
</svg>
