<svg width="24" height="24" viewBox="0 0 24 24" fill="none" xmlns="http://www.w3.org/2000/svg">
<path d="M8.6567 9.68626L5.93425 12.4087C5.86515 12.4778 5.81805 12.5658 5.79888 12.6617L5.18055 15.7533C5.14183 15.9469 5.04667 16.1247 4.90707 16.2643L2.99985 18.1715C2.2188 18.9526 2.2188 20.2189 2.99985 21C3.7809 21.781 5.04723 21.781 5.82828 21L7.7355 19.0927C7.8751 18.9531 8.0529 18.858 8.24649 18.8193L11.3382 18.2009C11.434 18.1818 11.522 18.1347 11.5911 18.0656L19.2633 10.3934C20.8254 8.83127 20.8254 6.29861 19.2633 4.73651C17.7012 3.17442 15.1685 3.17442 13.6064 4.73651L11.4851 6.85783M8.6567 9.68626L11.4851 6.85783M8.6567 9.68626L11.4851 12.5147M11.4851 6.85783L14.3136 9.68626" stroke="#005F73" stroke-width="1.5" stroke-linecap="round" stroke-linejoin="round"/>
</svg>
