<svg width="24" height="24" viewBox="0 0 24 24" fill="none" xmlns="http://www.w3.org/2000/svg">
<path d="M14.5 16C14 18 14 21 15 22.5M9.5 16C10 18 10 21 9 22.5M7.5 6.5C9.3 7.5 14.7 7.5 16.5 6.5M12 11C12 11 14.5 11 15.5 11.5C15.5 10 17.5 2.5 19 2.5C20.5 2.5 22 8 22 11.5C22 15 20.5 18 19 18C17.5 18 16.5 17 15.5 15C14.7 15.4 12.6667 15.5 12 15.5C11.3333 15.5 9.3 15.4 8.5 15C7.5 17 6.5 18 5 18C3.5 18 2 15 2 11.5C2 8 3.5 2.5 5 2.5C6.5 2.5 8.5 10 8.5 11.5C9.5 11 12 11 12 11Z" stroke="#005F73" stroke-width="1.5" stroke-linecap="round" stroke-linejoin="round"/>
</svg>
