<svg width="24" height="24" viewBox="0 0 24 24" fill="none" xmlns="http://www.w3.org/2000/svg">
<path d="M9.8252 23.0996C10.087 23.1037 10.3515 23.0583 10.5762 22.96C10.8001 22.862 10.9907 22.7086 11.0928 22.4932L11.126 22.4062C11.1379 22.3698 11.151 22.3266 11.1641 22.2793C11.1913 22.1809 11.2229 22.0545 11.2568 21.9092C11.3248 21.6184 11.4025 21.2491 11.4736 20.8711L11.8184 19.1709C11.9242 18.6696 12.0195 18.24 12.0996 17.9023C12.1421 17.7234 12.1801 17.5713 12.2129 17.4482C12.2425 17.6085 12.2842 17.818 12.334 18.0596C12.4365 18.5575 12.5754 19.1947 12.7168 19.8291C12.8582 20.4637 13.0031 21.0961 13.1201 21.583C13.1786 21.8262 13.2299 22.0338 13.2705 22.1875C13.2908 22.2642 13.3086 22.3283 13.3232 22.377C13.3366 22.4212 13.3503 22.4632 13.3633 22.4873C13.5756 22.8996 14.0678 23.0986 14.7197 23.0986C15.0175 23.0986 15.2485 23.0697 15.4404 22.9902C15.5866 22.9297 15.7056 22.842 15.8135 22.7246L15.918 22.5967L16.0957 22.3574L16.1191 22.3252L16.1143 22.2861L15.875 20.2637V20.2627C15.5825 17.9317 15.2537 15.6388 15.084 14.8613V14.8604C14.9987 14.4849 14.9881 14.1063 15.041 13.4268V13.4258C15.0852 12.8385 15.1626 12.1619 15.2422 11.6084C15.282 11.3317 15.3227 11.0868 15.3594 10.8994C15.3777 10.8056 15.3945 10.7271 15.4102 10.667C15.4264 10.6046 15.4395 10.5705 15.4463 10.5576L15.5527 10.4023C15.6139 10.316 15.6973 10.2001 15.7969 10.0635C15.9961 9.79005 16.26 9.43367 16.5391 9.06152V9.06055C17.2696 8.08205 17.6915 7.46673 17.9287 6.90039C18.1681 6.3288 18.2178 5.81197 18.2178 5.03613C18.2178 4.83773 18.2243 4.53704 18.2354 4.21191L18.2793 3.24121V3.24023L18.3281 2.25293L20.4512 2.23535L21.625 2.21484C21.9276 2.20733 22.1493 2.19885 22.3125 2.18652C22.4745 2.17427 22.5871 2.15802 22.666 2.13379C22.7492 2.10818 22.8064 2.07031 22.8428 2.00977H22.8418C22.8831 1.94686 22.9096 1.87962 22.9043 1.80566C22.8989 1.73131 22.8628 1.66704 22.8164 1.61035L22.8145 1.60938C22.7693 1.55667 22.7067 1.52482 22.6182 1.50293C22.5314 1.48149 22.4095 1.46707 22.2344 1.45703C21.8827 1.43688 21.2919 1.43262 20.2822 1.43262C19.4928 1.43262 18.9552 1.42687 18.5928 1.41309C18.4117 1.4062 18.2754 1.3968 18.1738 1.38574C18.0715 1.37458 18.0096 1.36223 17.9736 1.34961C17.9365 1.33649 17.8776 1.30534 17.7998 1.26074C17.7294 1.22038 17.6314 1.16193 17.5459 1.11328C17.4559 1.06208 17.3615 1.01059 17.2725 0.97168C17.1856 0.933742 17.0933 0.903305 17.0117 0.900391H17.0088C16.8343 0.900391 16.6208 0.945884 16.4277 1.01367C16.2366 1.08082 16.0502 1.17477 15.9375 1.28223C15.9021 1.31587 15.8752 1.33824 15.8037 1.35742C15.7234 1.37892 15.5901 1.3956 15.3438 1.40723C14.8533 1.43036 13.9446 1.43262 12.1826 1.43262C10.9416 1.43261 10.0615 1.41856 9.47168 1.39941C9.17686 1.38984 8.95481 1.37816 8.79688 1.36719C8.63616 1.35601 8.54922 1.34574 8.51758 1.33789C8.4391 1.31823 8.40523 1.31703 8.38184 1.31543C8.37506 1.31497 8.37427 1.31482 8.37305 1.31445C8.36937 1.31333 8.36093 1.31005 8.3418 1.30078C8.33357 1.29679 8.32515 1.2929 8.32031 1.29102C8.31492 1.28892 8.31124 1.28769 8.30762 1.28613C8.30175 1.28359 8.29453 1.27968 8.28418 1.27246C8.19893 1.21299 8.07132 1.1207 7.92969 1.04395C7.78913 0.967797 7.62195 0.900391 7.45508 0.900391H7.44727C7.3209 0.910145 7.07332 0.965831 6.88281 1.0293L6.87793 1.03027C6.78082 1.06728 6.67523 1.11654 6.58203 1.16602C6.49081 1.21445 6.40438 1.26799 6.35059 1.31641L6.34863 1.31738C6.33325 1.33163 6.30432 1.35029 6.22754 1.36719C6.14898 1.38444 6.02952 1.3983 5.84082 1.4082C5.46369 1.42798 4.83014 1.43262 3.73828 1.43262C2.81586 1.43262 2.17509 1.43934 1.75488 1.45605C1.54548 1.46439 1.38832 1.47499 1.27734 1.48926C1.22201 1.49638 1.17473 1.50454 1.1377 1.51465C1.10567 1.52341 1.06316 1.5384 1.0332 1.56836C0.949864 1.65182 0.908061 1.77436 0.901367 1.88281C0.897988 1.93824 0.903166 1.99602 0.920898 2.04785C0.938564 2.09941 0.970317 2.15221 1.02441 2.18555H1.02539C1.04103 2.19493 1.05729 2.19821 1.06152 2.19922C1.0688 2.20095 1.07615 2.20307 1.08301 2.2041C1.09704 2.20621 1.11511 2.20825 1.13477 2.20996C1.1743 2.21338 1.22847 2.21661 1.29492 2.21973C1.42905 2.22602 1.61751 2.23133 1.8457 2.23633C2.30212 2.24632 2.92128 2.25292 3.5957 2.25293L5.94043 2.26172L5.98926 3.20508C6.06016 4.68947 6.10897 5.54856 6.16699 6.08984C6.22527 6.63341 6.29327 6.86682 6.40723 7.09473C6.46887 7.21796 6.6088 7.42985 6.78027 7.66992C6.95329 7.91214 7.16293 8.18904 7.36816 8.44336C7.77704 8.95001 8.29096 9.57758 8.50391 9.84375L8.50488 9.8457C8.74798 10.141 8.89746 10.379 9.00879 10.7119C9.12158 11.0493 9.19603 11.4879 9.28027 12.1885C9.45669 13.6439 9.44849 14.433 9.2373 15.7266L9.23633 15.7285C9.1919 16.0307 9.11242 16.6009 9.02148 17.2773L8.73926 19.4648C8.58423 20.7006 8.50426 21.3697 8.47852 21.7637C8.46564 21.9608 8.46557 22.095 8.47852 22.1992C8.49187 22.3064 8.51892 22.3792 8.55273 22.4541L8.55371 22.4561C8.76 22.8887 9.3106 23.0916 9.8252 23.0996ZM14.6934 22.2773C14.4992 22.2773 14.356 22.246 14.252 22.1885C14.1505 22.1323 14.0789 22.0475 14.0332 21.9258C14.0242 21.8997 14.0023 21.8153 13.9697 21.6768C13.9373 21.5391 13.8958 21.3543 13.8477 21.1357C13.7513 20.6983 13.629 20.1258 13.5049 19.5273C13.2698 18.3566 13.0834 17.4943 12.9365 16.9023C12.8632 16.6069 12.7996 16.377 12.7441 16.209C12.7164 16.125 12.6897 16.0547 12.665 15.999C12.6412 15.9452 12.6162 15.8976 12.5879 15.8643L12.5869 15.8652C12.4262 15.6691 12.132 15.6782 11.9111 15.8389L11.9082 15.8408C11.8664 15.8735 11.8313 15.9253 11.7998 15.9824C11.7671 16.0418 11.7331 16.1172 11.6982 16.208C11.6284 16.3898 11.5511 16.6412 11.4648 16.9629C11.2922 17.6069 11.0824 18.5429 10.834 19.7939C10.7097 20.3929 10.5994 20.9455 10.5195 21.3516C10.4796 21.5546 10.447 21.7213 10.4248 21.8389C10.4137 21.8976 10.4053 21.9445 10.3994 21.9775C10.3965 21.9939 10.3942 22.0077 10.3926 22.0176C10.3918 22.0222 10.3911 22.0266 10.3906 22.0303C10.3905 22.0313 10.3887 22.0408 10.3887 22.0498C10.3886 22.0591 10.3839 22.0777 10.3594 22.1045C10.3348 22.1314 10.2952 22.1607 10.2412 22.1875C10.1331 22.241 9.982 22.2773 9.82324 22.2773C9.57634 22.2773 9.43784 22.2332 9.36523 22.1631C9.29762 22.0977 9.26375 21.9853 9.29297 21.7803C9.33126 21.5805 9.48964 20.3074 9.65625 18.9307L9.93457 16.8496C10.0242 16.2099 10.1038 15.6747 10.1523 15.3965L10.251 14.8096C10.2743 14.6405 10.2883 14.4891 10.2939 14.3311C10.3053 14.016 10.2821 13.6753 10.2334 13.1084C10.1667 12.2724 10.0733 11.5653 9.95801 11.0068C9.84338 10.4515 9.70514 10.0326 9.54395 9.78125L9.54297 9.78027C9.33474 9.46341 8.93057 8.97773 8.57715 8.56836C8.39989 8.36304 8.23408 8.17533 8.11035 8.03516C8.04842 7.96499 7.99694 7.90665 7.95996 7.86426C7.94144 7.84303 7.92649 7.8259 7.91602 7.81348C7.90815 7.80414 7.90455 7.79936 7.90332 7.79785L7.90234 7.79883C7.90193 7.79815 7.90199 7.79692 7.90137 7.7959C7.89976 7.79327 7.89803 7.78932 7.89551 7.78516C7.89019 7.77638 7.88333 7.7655 7.87891 7.75781C7.79347 7.60925 7.72216 7.53944 7.61426 7.39844C7.3601 7.06102 7.21852 6.82273 7.12695 6.50488C7.05729 6.26297 7.01541 5.97172 6.98242 5.55078L6.95215 5.08301C6.88564 4.04543 6.85632 3.31475 6.86621 2.82031C6.87116 2.57293 6.88593 2.38807 6.90918 2.25488C6.92115 2.18628 6.93461 2.1355 6.94824 2.09863L6.98828 2.02539L6.98926 2.02441C7.02046 1.98896 7.07943 1.95403 7.16406 1.92871C7.24666 1.90404 7.34427 1.89114 7.44043 1.89062C7.53678 1.89014 7.62692 1.90247 7.69629 1.9248C7.77007 1.94861 7.80119 1.97739 7.80957 1.99414C7.8075 1.99 7.81097 1.99847 7.81738 2.03516C7.8229 2.06675 7.82877 2.11001 7.83496 2.16406C7.84733 2.27217 7.86035 2.41964 7.87305 2.5957C7.89844 2.94793 7.92272 3.41286 7.94043 3.9043C7.98014 5.05134 8.00877 5.67456 8.14746 6.13672C8.2889 6.60778 8.54394 6.90935 9.00391 7.41797L9.00488 7.41895C9.40178 7.85111 9.92566 8.3506 10.1768 8.5293C10.1786 8.53106 10.1812 8.53282 10.1836 8.53516C10.1921 8.54337 10.2038 8.5554 10.2188 8.56934C10.2489 8.59734 10.2913 8.63497 10.3389 8.67383C10.3861 8.71242 10.44 8.75361 10.4941 8.78711C10.5462 8.81929 10.6082 8.85042 10.668 8.86035C10.7163 8.86832 10.8212 8.8733 10.9414 8.87695C11.0654 8.88072 11.2151 8.8831 11.3594 8.88477C11.5037 8.88643 11.6429 8.88728 11.7461 8.8877C11.7976 8.8879 11.8404 8.88764 11.8701 8.8877C11.8847 8.88772 11.8964 8.88867 11.9043 8.88867H11.9141C12.8293 8.9152 13.3845 8.89473 13.8721 8.6709C14.3582 8.44761 14.7667 8.02629 15.4072 7.29297L15.6875 6.95801C15.7732 6.84983 15.8508 6.74603 15.917 6.65039C16.0141 6.51007 16.0924 6.38097 16.1387 6.27637L16.1738 6.17969V6.17773C16.1869 6.12556 16.2014 6.02399 16.2158 5.89258C16.2305 5.75826 16.2466 5.58555 16.2627 5.3877C16.2949 4.99191 16.3278 4.49168 16.3545 3.98535C16.3855 3.39627 16.4191 2.92104 16.4521 2.58398C16.4687 2.41555 16.4842 2.28297 16.5 2.18848C16.5079 2.14103 16.5156 2.10452 16.5225 2.0791C16.5252 2.06874 16.5258 2.06109 16.5273 2.05664C16.7179 1.83071 17.0626 1.79564 17.3145 1.97559C17.3148 1.9765 17.3161 1.97745 17.3164 1.97852C17.3214 1.99444 17.3273 2.01875 17.333 2.05273C17.3444 2.12068 17.3547 2.21675 17.3633 2.33594C17.3804 2.57365 17.3908 2.89672 17.3936 3.25977C17.3991 3.98569 17.3746 4.86659 17.3174 5.54102L17.2725 5.91699C17.2215 6.26486 17.1466 6.53871 17 6.83984C16.8023 7.2461 16.4734 7.70598 15.8916 8.46094C15.2384 9.30828 14.904 9.74197 14.7109 10.1406C14.5155 10.5443 14.4656 10.9115 14.3643 11.6123H14.3633C14.1141 13.3743 14.1131 14.7635 14.3564 15.8359V15.8369C14.457 16.2613 14.6628 17.63 14.8438 18.9756C14.9341 19.6471 15.0178 20.3111 15.0791 20.8447C15.1408 21.3815 15.1787 21.7799 15.1787 21.9258C15.1787 22.1196 15.153 22.1835 15.1113 22.2158C15.0879 22.234 15.0487 22.2504 14.9785 22.2617C14.9085 22.273 14.8163 22.2773 14.6934 22.2773ZM12.1475 8.08496C11.808 8.08496 11.5254 8.07436 11.3057 8.05371C11.0825 8.03272 10.934 8.00201 10.8564 7.96875L10.8545 7.96777C10.8202 7.95384 10.7665 7.92197 10.6953 7.86914C10.6255 7.81738 10.5436 7.75015 10.4541 7.6709C10.2753 7.51256 10.0686 7.30997 9.86719 7.09863C9.66576 6.8873 9.47051 6.66799 9.31543 6.47656C9.15875 6.28313 9.04964 6.12706 9.01074 6.03711C9.0004 6.01166 8.98775 5.95965 8.97266 5.87988C8.95795 5.80213 8.94291 5.70277 8.92773 5.58594C8.89741 5.35246 8.86692 5.05089 8.83984 4.70996C8.78567 4.02783 8.74419 3.19149 8.73535 2.43555L8.73438 2.43359L8.72852 2.25391L12.1299 2.26172L15.5332 2.27051V2.88672L15.5029 3.74512C15.4874 4.09036 15.4674 4.46699 15.4453 4.79004C15.4005 5.47131 15.3777 5.78613 15.2617 6.05957C15.1455 6.33311 14.9337 6.56921 14.4766 7.08008V7.08105C14.0598 7.54214 13.7976 7.7854 13.4863 7.91992C13.1739 8.05485 12.8008 8.08496 12.1475 8.08496Z" fill="#005F73" stroke="#005F73" stroke-width="0.2"/>
<path d="M12.1357 7.82324C13.1099 7.83252 13.8925 7.29151 14.2441 6.36621H14.2432C14.4532 5.82299 14.4012 5.07604 14.1338 4.5332L14.0771 4.42676C13.8379 4.0187 13.4353 3.70332 12.9873 3.52246C12.5394 3.34168 12.0365 3.291 11.5938 3.42285C10.92 3.6259 10.4073 4.07121 10.1465 4.68555C10.037 4.93796 9.98801 5.28577 9.99023 5.61816C9.9925 5.94974 10.0463 6.28506 10.1582 6.50879L10.2607 6.69727C10.4997 7.10126 10.7248 7.27361 10.8086 7.35742L10.8154 7.36426L10.8242 7.37012C10.9232 7.43608 10.9224 7.43535 10.9785 7.47559C11.1804 7.65226 11.5949 7.81418 12.1348 7.82324H12.1357ZM12.3018 6.9502C11.8262 7.00743 11.3915 6.80446 11.1191 6.40918C10.9824 6.20407 10.9102 5.90734 10.9102 5.60352C10.9102 5.30032 10.983 5.00487 11.1191 4.7998C11.1774 4.71466 11.2079 4.66446 11.2236 4.63379C11.2261 4.62904 11.2274 4.62363 11.2295 4.61914C11.231 4.61789 11.2327 4.61659 11.2344 4.61523C11.2506 4.60215 11.2728 4.58434 11.2959 4.56543C11.3323 4.53564 11.3764 4.49913 11.4023 4.47559C11.4374 4.45734 11.4593 4.44307 11.4863 4.42773L11.6221 4.36621L11.6338 4.3623V4.36133C11.778 4.28558 12.0153 4.25593 12.2627 4.27734C12.5097 4.29878 12.7409 4.36921 12.875 4.46875C13.0753 4.61789 13.2081 4.76232 13.2969 4.92871C13.3859 5.0956 13.4346 5.29177 13.4561 5.5498C13.4692 5.76097 13.4686 5.89032 13.4463 5.99512C13.4247 6.09636 13.3813 6.1816 13.2969 6.2998L13.2959 6.30176C13.1549 6.51118 13.0103 6.65993 12.8516 6.7627C12.6935 6.86492 12.516 6.92508 12.3027 6.9502H12.3018Z" fill="#005F73" stroke="#005F73" stroke-width="0.2"/>
</svg>
