<svg width="24" height="25" viewBox="0 0 24 25" fill="none" xmlns="http://www.w3.org/2000/svg">
<path d="M12.5879 6.99707L12.7949 6.96875C12.9887 6.93909 13.1453 6.90291 13.2861 6.85254C13.4751 6.78498 13.6314 6.69398 13.8096 6.56738C14.5664 6.03087 14.8828 5.13309 14.8047 4.26953C14.7314 3.46001 14.3109 2.66845 13.5664 2.21875L13.4131 2.13379C13.1648 2.00721 12.8445 1.93177 12.5244 1.9082C12.2044 1.88467 11.8754 1.91275 11.6084 2C10.6429 2.30606 9.98704 3.17527 9.91113 4.22852H9.91016C9.85372 5.09392 10.0712 5.74616 10.6064 6.29102H10.6074C10.863 6.54661 11.1268 6.72557 11.4443 6.83887C11.7604 6.95161 12.1241 6.99706 12.5762 6.99707H12.5879ZM13.4033 5.76074C12.7678 6.29184 12.0151 6.25128 11.4785 5.87891C10.9746 5.52919 10.6589 4.88449 10.8184 4.13184L10.8564 3.97949C11.1423 2.97454 12.1747 2.50711 13.0566 2.96094L13.1436 3.00977C13.5672 3.26826 13.8287 3.76097 13.8926 4.28711C13.9607 4.84851 13.8005 5.42161 13.4033 5.75977V5.76074Z" fill="#005F73" stroke="#005F73" stroke-width="0.2"/>
<path d="M6.97852 24.063C6.87909 24.063 6.7864 24.0519 6.71484 24.0083C6.65503 23.9716 6.61946 23.9191 6.60059 23.8579L6.58691 23.7935V23.7896C6.58535 23.7723 6.58629 23.7525 6.58789 23.7378C6.58975 23.7208 6.59291 23.7004 6.59668 23.6772C6.60431 23.6303 6.61672 23.568 6.63184 23.4937C6.66211 23.3447 6.70661 23.1418 6.7627 22.9009C6.81883 22.6597 6.88608 22.3794 6.96191 22.0747L7.21191 21.1021L8.23535 17.1235L8.60645 15.6313L8.45312 14.2319V14.231C8.37092 13.4546 8.23336 12.3948 8.15137 11.8755L8.02832 11.0874L7.82617 11.2056C6.95136 11.725 6.50492 11.9901 6.2041 12.1235C6.05098 12.1915 5.93147 12.2267 5.80957 12.2446C5.68992 12.2622 5.57071 12.2622 5.42383 12.2622C5.1582 12.2622 4.93223 12.2435 4.7334 12.1636C4.53091 12.0821 4.36515 11.9415 4.21191 11.7144C4.06035 11.4897 3.91868 11.1773 3.76172 10.7495C3.60444 10.3208 3.42978 9.76957 3.21484 9.06299V9.06201C3.05052 8.51426 2.88368 7.99677 2.74707 7.604C2.67871 7.40745 2.6182 7.24247 2.56934 7.12158C2.54495 7.06128 2.52407 7.01266 2.50684 6.97705C2.49831 6.95944 2.49112 6.94592 2.48535 6.93604C2.47911 6.92536 2.47648 6.92217 2.47754 6.92334H2.47656C1.90199 6.28167 1.73106 5.2061 2.08594 4.42822L2.08496 4.42725C2.58219 3.3371 3.8718 2.79234 5 3.19385C5.49577 3.36889 5.983 3.85873 6.17578 4.36963C6.31177 4.72927 6.32779 5.15837 6.24609 5.56689C6.16431 5.97564 5.98341 6.37284 5.71777 6.66748L5.71582 6.66943L5.57422 6.81885L5.83984 7.66846C5.9362 7.9782 6.00617 8.20616 6.06543 8.36865C6.09493 8.44952 6.12093 8.51149 6.14453 8.55811C6.16857 8.60555 6.18767 8.63123 6.20117 8.64404C6.20659 8.64916 6.21042 8.65111 6.21191 8.65186L6.21387 8.65283C6.21678 8.65278 6.22917 8.65119 6.25586 8.63525C6.28499 8.61781 6.31834 8.59081 6.35938 8.55518L6.50879 8.42041C7.3095 7.67564 8.25051 7.20162 9.375 6.98779L9.37402 6.98682C9.53473 6.95421 9.67418 6.93543 9.79199 6.93115C9.90861 6.92695 10.011 6.93655 10.0947 6.96826C10.1817 7.00124 10.2488 7.05851 10.2871 7.14111C10.3237 7.22013 10.3291 7.31193 10.3164 7.40869C10.3098 7.4636 10.2908 7.51577 10.251 7.56299C10.2129 7.6081 10.1605 7.64282 10.0977 7.67334C9.97397 7.73331 9.77824 7.79056 9.4834 7.86768H9.48242C8.60245 8.09219 7.84697 8.49639 7.06055 9.13818L6.83398 9.32178C6.61937 9.48996 6.4425 9.61107 6.29785 9.68701C6.11514 9.7829 5.94453 9.82649 5.81152 9.74072H5.81055L5.80957 9.73975L5.80762 9.73877H5.80859C5.77189 9.71556 5.73883 9.67915 5.71094 9.64111C5.68072 9.59989 5.64926 9.54714 5.61621 9.48682C5.55006 9.36603 5.47505 9.20474 5.39551 9.01221C5.23617 8.62653 5.05433 8.1089 4.87988 7.52588L4.74121 7.08936C4.69483 6.95105 4.64885 6.82199 4.60645 6.70947C4.56405 6.59699 4.52492 6.50226 4.49219 6.43115C4.47577 6.3955 4.46127 6.36638 4.44922 6.34521L4.42969 6.31396L4.42383 6.30908H4.4248C4.39697 6.27707 4.33991 6.24313 4.25488 6.21729C4.17242 6.19228 4.0736 6.17796 3.97363 6.17529C3.87334 6.17263 3.77575 6.18214 3.69629 6.20264C3.61418 6.22384 3.56529 6.25305 3.54395 6.27881L3.54297 6.27979C3.51745 6.31081 3.49529 6.35871 3.49121 6.45459C3.48703 6.55314 3.50258 6.69429 3.54492 6.90381C3.62957 7.32255 3.81786 7.98805 4.14746 9.07764C4.40394 9.92497 4.56093 10.4193 4.68262 10.728C4.77302 10.9574 4.84135 11.0777 4.91309 11.1616L4.9873 11.2368C5.10103 11.3392 5.18366 11.4016 5.26953 11.4312C5.35087 11.4591 5.44691 11.4618 5.59277 11.4185C5.74154 11.3742 5.93558 11.2843 6.20703 11.1353C6.3421 11.0611 6.49501 10.9728 6.66992 10.8696L7.26562 10.5122C7.74678 10.2217 8.06464 10.0501 8.27637 9.99658C8.38391 9.9694 8.48504 9.96691 8.56934 10.0161C8.65353 10.0653 8.69616 10.1516 8.72168 10.2407C8.84751 10.6788 9.0223 11.729 9.16504 12.7808C9.30784 13.833 9.42089 14.9033 9.4209 15.3823C9.4209 15.6892 9.30989 16.3031 9.04199 17.4341C8.77293 18.5699 8.34218 20.2383 7.69727 22.6626C7.60819 22.9938 7.541 23.2444 7.48633 23.4321C7.43209 23.6184 7.3882 23.7497 7.3457 23.8403C7.30325 23.9307 7.25496 23.9972 7.18164 24.0327C7.11397 24.0654 7.03796 24.063 6.97852 24.063ZM5.21094 5.84326L5.21191 5.84131C5.40947 5.53865 5.45107 5.15603 5.3623 4.81592C5.27337 4.47566 5.05752 4.18959 4.75488 4.06689H4.75391C4.60016 4.00216 4.36813 3.97697 4.13086 3.99463C3.89353 4.01233 3.66912 4.07116 3.52832 4.15967L3.52539 4.16162C3.35958 4.25762 3.15868 4.42491 3.07617 4.52393C2.97059 4.65458 2.88026 4.86464 2.8252 5.09033C2.76993 5.31695 2.75463 5.54319 2.78711 5.70166V5.70264L2.80859 5.80615L2.85059 5.75732L2.85156 5.7583C2.90238 5.69252 2.98465 5.62036 3.07227 5.55811C3.16356 5.49324 3.26819 5.43215 3.36328 5.39209C3.64033 5.27623 4.01582 5.27419 4.34961 5.34521C4.68 5.41558 5.00364 5.56428 5.1582 5.78271L5.15918 5.78564C5.17798 5.81384 5.19451 5.83418 5.20703 5.8501C5.20833 5.84804 5.20955 5.84551 5.21094 5.84326Z" fill="#005F73" stroke="#005F73" stroke-width="0.2"/>
<path d="M17.7559 24.0583C17.8553 24.0583 17.948 24.0473 18.0195 24.0037C18.0793 23.967 18.1149 23.9145 18.1338 23.8533L18.1475 23.7888V23.7849C18.149 23.7677 18.1481 23.7479 18.1465 23.7332C18.1446 23.7162 18.1415 23.6958 18.1377 23.6726C18.1301 23.6257 18.1177 23.5634 18.1025 23.489C18.0723 23.3401 18.0278 23.1372 17.9717 22.8962C17.9155 22.6551 17.8483 22.3747 17.7725 22.0701L17.5225 21.0974L16.499 17.1189L16.1279 15.6267L16.2812 14.2273V14.2263C16.3635 13.4499 16.501 12.3902 16.583 11.8708L16.7061 11.0828L16.9082 11.2009C17.783 11.7204 18.2295 11.9855 18.5303 12.1189C18.6834 12.1868 18.8029 12.2221 18.9248 12.24C19.0445 12.2575 19.1637 12.2576 19.3105 12.2576C19.5762 12.2576 19.8021 12.2389 20.001 12.1589C20.2035 12.0775 20.3692 11.9368 20.5225 11.7097C20.674 11.4851 20.8157 11.1727 20.9727 10.7449C21.1299 10.3162 21.3046 9.76493 21.5195 9.05835V9.05737C21.6839 8.50962 21.8507 7.99213 21.9873 7.59937C22.0557 7.40281 22.1162 7.23784 22.165 7.11694C22.1894 7.05664 22.2103 7.00802 22.2275 6.97241C22.2361 6.95481 22.2433 6.94128 22.249 6.9314C22.2553 6.92073 22.2579 6.91753 22.2568 6.9187H22.2578C22.8324 6.27703 23.0033 5.20146 22.6484 4.42358L22.6494 4.42261C22.1522 3.33246 20.8626 2.7877 19.7344 3.18921C19.2386 3.36425 18.7514 3.85409 18.5586 4.36499C18.4226 4.72463 18.4066 5.15374 18.4883 5.56226C18.5701 5.971 18.751 6.3682 19.0166 6.66284L19.0186 6.66479L19.1602 6.81421L18.8945 7.66382C18.7982 7.97357 18.7282 8.20152 18.6689 8.36401C18.6394 8.44488 18.6134 8.50685 18.5898 8.55347C18.5658 8.60091 18.5467 8.62659 18.5332 8.6394C18.5278 8.64452 18.524 8.64647 18.5225 8.64722L18.5205 8.64819C18.5176 8.64814 18.5052 8.64655 18.4785 8.63062C18.4494 8.61317 18.416 8.58617 18.375 8.55054L18.2256 8.41577C17.4249 7.671 16.4839 7.19698 15.3594 6.98315L15.3604 6.98218C15.1996 6.94957 15.0602 6.93079 14.9424 6.92651C14.8258 6.92231 14.7234 6.93191 14.6396 6.96362C14.5527 6.9966 14.4856 7.05387 14.4473 7.13647C14.4107 7.21549 14.4053 7.30729 14.418 7.40405C14.4246 7.45896 14.4435 7.51113 14.4834 7.55835C14.5215 7.60346 14.5738 7.63818 14.6367 7.6687C14.7604 7.72867 14.9561 7.78592 15.251 7.86304H15.252C16.1319 8.08755 16.8874 8.49175 17.6738 9.13354L17.9004 9.31714C18.115 9.48532 18.2919 9.60643 18.4365 9.68237C18.6192 9.77826 18.7898 9.82185 18.9229 9.73608H18.9238L18.9248 9.73511L18.9268 9.73413H18.9258C18.9625 9.71092 18.9955 9.67451 19.0234 9.63647C19.0537 9.59525 19.0851 9.5425 19.1182 9.48218C19.1843 9.36139 19.2593 9.20011 19.3389 9.00757C19.4982 8.62189 19.68 8.10426 19.8545 7.52124L19.9932 7.08472C20.0395 6.94641 20.0855 6.81735 20.1279 6.70483C20.1703 6.59235 20.2095 6.49762 20.2422 6.42651C20.2586 6.39086 20.2731 6.36174 20.2852 6.34058L20.3047 6.30933L20.3105 6.30444H20.3096C20.3374 6.27243 20.3945 6.2385 20.4795 6.21265C20.562 6.18764 20.6608 6.17332 20.7607 6.17065C20.861 6.16799 20.9586 6.1775 21.0381 6.198C21.1202 6.2192 21.1691 6.24841 21.1904 6.27417L21.1914 6.27515C21.2169 6.30617 21.2391 6.35407 21.2432 6.44995C21.2473 6.5485 21.2318 6.68966 21.1895 6.89917C21.1048 7.31791 20.9165 7.98341 20.5869 9.073C20.3304 9.92034 20.1734 10.4146 20.0518 10.7234C19.9614 10.9528 19.893 11.0731 19.8213 11.157L19.7471 11.2322C19.6333 11.3345 19.5507 11.3969 19.4648 11.4265C19.3835 11.4545 19.2875 11.4572 19.1416 11.4138C18.9928 11.3696 18.7988 11.2797 18.5273 11.1306C18.3923 11.0565 18.2394 10.9682 18.0645 10.865L17.4688 10.5076C16.9876 10.217 16.6697 10.0455 16.458 9.99194C16.3505 9.96476 16.2493 9.96228 16.165 10.0115C16.0808 10.0606 16.0382 10.1469 16.0127 10.2361C15.8869 10.6742 15.7121 11.7244 15.5693 12.7761C15.4265 13.8283 15.3135 14.8987 15.3135 15.3777C15.3135 15.6845 15.4245 16.2985 15.6924 17.4294C15.9614 18.5653 16.3922 20.2337 17.0371 22.658C17.1262 22.9891 17.1934 23.2397 17.248 23.4275C17.3023 23.6137 17.3462 23.7451 17.3887 23.8357C17.4311 23.9261 17.4794 23.9926 17.5527 24.0281C17.6204 24.0608 17.6964 24.0583 17.7559 24.0583ZM19.5234 5.83862L19.5225 5.83667C19.3249 5.53401 19.2833 5.15139 19.3721 4.81128C19.461 4.47102 19.6769 4.18495 19.9795 4.06226H19.9805C20.1342 3.99752 20.3662 3.97233 20.6035 3.98999C20.8408 4.00769 21.0653 4.06652 21.2061 4.15503L21.209 4.15698C21.3748 4.25298 21.5757 4.42027 21.6582 4.51929C21.7638 4.64994 21.8541 4.86 21.9092 5.08569C21.9644 5.31231 21.9797 5.53855 21.9473 5.69702V5.698L21.9258 5.80151L21.8838 5.75269L21.8828 5.75366C21.832 5.68788 21.7497 5.61572 21.6621 5.55347C21.5708 5.4886 21.4662 5.42751 21.3711 5.38745C21.094 5.27159 20.7186 5.26955 20.3848 5.34058C20.0544 5.41094 19.7307 5.55965 19.5762 5.77808L19.5752 5.78101C19.5564 5.8092 19.5399 5.82954 19.5273 5.84546C19.526 5.8434 19.5248 5.84087 19.5234 5.83862Z" fill="#005F73" stroke="#005F73" stroke-width="0.2"/>
<path d="M14.4814 24.0977C14.5785 24.0862 14.6642 24.0255 14.7402 23.9473L14.792 23.8887C14.808 23.8668 14.8215 23.8418 14.832 23.8135C14.8531 23.7569 14.8562 23.6954 14.8477 23.625C14.8312 23.4902 14.7672 23.2869 14.6543 22.9482C14.3878 22.1443 13.8655 20.7971 13.3896 19.6406C13.1517 19.0622 12.9249 18.5302 12.7471 18.1367C12.6582 17.9401 12.581 17.7766 12.5205 17.6592C12.4904 17.6007 12.4631 17.5521 12.4404 17.5156C12.4292 17.4976 12.4182 17.4807 12.4072 17.4668L12.3584 17.4219C12.3084 17.3936 12.2637 17.3683 12.2256 17.3516C12.1853 17.3339 12.1412 17.3208 12.0908 17.3262C12.0424 17.3314 11.9997 17.3531 11.9609 17.377C11.9228 17.4005 11.8769 17.4333 11.8223 17.4727L11.7559 17.5381C11.7338 17.5649 11.7119 17.5963 11.6904 17.6289C11.6443 17.699 11.59 17.7909 11.5303 17.9023C11.4105 18.1256 11.263 18.4314 11.0957 18.7998C10.8445 19.353 10.5484 20.0511 10.2363 20.8311L9.91992 21.6357C9.60475 22.4534 9.41912 22.9839 9.3418 23.3213C9.30354 23.4882 9.28876 23.6199 9.30469 23.7197C9.31297 23.7713 9.33012 23.8195 9.36035 23.8594C9.39071 23.8994 9.43018 23.9263 9.47363 23.9424C9.54669 23.9711 9.61988 23.986 9.69238 23.9795C9.7668 23.9728 9.83388 23.9434 9.89258 23.8945C10.0035 23.8018 10.0885 23.6375 10.1709 23.418L10.1719 23.416C10.3433 22.9429 11.1207 20.9803 11.6064 19.7861L11.9619 18.9316V18.9297L12.0781 18.6582L12.7559 20.3457C13.1764 21.3971 13.6422 22.6397 13.7969 23.0947C13.8704 23.3199 13.9393 23.5046 14.0059 23.6504C14.0719 23.7951 14.1392 23.9082 14.2119 23.9844C14.2864 24.0624 14.3766 24.11 14.4814 24.0977Z" fill="#005F73" stroke="#005F73" stroke-width="0.2"/>
</svg>
