<svg width="25" height="24" viewBox="0 0 25 24" fill="none" xmlns="http://www.w3.org/2000/svg">
<path d="M1.47949 18.9531C2.16309 19.2357 2.89101 19.1075 3.33008 18.5967C3.48452 18.4165 3.55053 18.1355 3.54688 17.8594C3.54314 17.5811 3.46842 17.2855 3.31738 17.0674V17.0664C3.26744 16.996 3.23119 16.9439 3.20703 16.9043C3.19632 16.8867 3.18865 16.8731 3.18359 16.8623C3.19296 16.8574 3.2065 16.8487 3.22754 16.8398H3.22656C3.76275 16.619 7.16853 15.3986 10.4512 14.2373C12.0917 13.6569 13.7003 13.0916 14.9014 12.6748C15.5019 12.4664 16.0009 12.2954 16.3506 12.1777C16.5251 12.119 16.6619 12.0737 16.7559 12.0439C16.7674 12.0403 16.7789 12.0373 16.7891 12.0342C16.7923 12.0675 16.7974 12.1076 16.8018 12.1543C16.8157 12.3051 16.8344 12.5222 16.8574 12.7891C16.9035 13.3229 16.9651 14.0561 17.0312 14.8564C17.1631 16.429 17.2415 17.277 17.3545 17.7715C17.4114 18.0207 17.4791 18.1905 17.5732 18.3203C17.6679 18.4508 17.7839 18.5335 17.9189 18.6172C18.2125 18.7991 18.4625 18.8242 19.5771 18.8242H20.9326L20.9619 18.7949L21.2354 18.5146L21.2363 18.5137C21.4433 18.2972 21.5536 18.0585 21.5469 17.8037C21.5401 17.5505 21.4189 17.2991 21.2012 17.0566H21.2002C21.0628 16.9067 20.9588 16.8058 20.8145 16.7412C20.6733 16.6781 20.5013 16.6539 20.2383 16.6299L19.7432 16.5811V16.2754C19.7432 16.0573 19.8003 14.8455 19.876 13.5713L20.083 9.93457L20.084 9.93359L20.1338 8.76855L20.3721 8.89062C20.839 9.13152 21.4304 9.15306 21.9971 9.00781C22.5646 8.86229 23.1185 8.54617 23.5156 8.0957H23.5166C23.9908 7.54743 24.2544 6.95098 24.2939 6.3623C24.3286 5.84621 24.19 5.34213 23.8789 4.88867L23.7354 4.69727C23.1794 4.0284 22.1063 3.72737 21.2656 4L21.2646 4.00098C20.6997 4.19157 20.1765 4.598 19.7949 5.08398C19.4141 5.5691 19.1661 6.1445 19.166 6.67969V6.78418L18.8779 6.62988C18.6985 6.53582 18.5434 6.47155 18.3682 6.43164C18.1937 6.39192 18.003 6.37695 17.7539 6.37695C16.9178 6.37701 16.3683 6.5596 14.2686 7.65527L13.2676 8.18262C12.6747 8.49965 11.704 8.97117 11.1113 9.23047V9.23145C10.4382 9.52188 9.80529 9.87214 9.43555 10.1797L8.72266 10.748C8.05832 11.267 7.51791 11.6511 6.91504 12.0127C6.11049 12.4952 5.19189 12.9393 3.71387 13.6094C2.27029 14.2644 1.46045 14.6372 0.986328 14.8975C0.748957 15.0278 0.59025 15.1333 0.476562 15.2344C0.361289 15.3369 0.29465 15.4335 0.238281 15.543C0.108496 15.7815 0.0656267 16.0195 0.125977 16.3545C0.184973 16.682 0.343255 17.1068 0.612305 17.7236C0.81827 18.1967 0.9403 18.468 1.05566 18.6357C1.11538 18.7225 1.17605 18.7849 1.24707 18.835C1.28177 18.8594 1.31797 18.8805 1.35645 18.8994L1.47949 18.9531ZM21.4629 8.25684C21.0643 8.28024 20.6885 8.13374 20.377 7.80664C20.2426 7.66473 20.1734 7.57228 20.1299 7.46289C20.0853 7.35067 20.0648 7.21203 20.0459 6.9707C20.0184 6.54771 20.0463 6.34665 20.1855 6.08008L20.1865 6.0791C20.4308 5.59882 20.8855 5.17066 21.3857 4.93848L21.5674 4.86133C21.7369 4.79538 21.8723 4.76321 22.002 4.76074C22.1735 4.75754 22.3465 4.80614 22.5859 4.91895C23.0979 5.15775 23.3735 5.62043 23.4023 6.13379C23.4311 6.64838 23.2114 7.21714 22.7227 7.65625C22.3001 8.0361 21.8642 8.2332 21.4629 8.25684ZM2.21582 18.1426C2.1142 18.1426 2.0389 18.1336 1.97656 18.1113C1.9164 18.0898 1.86167 18.0536 1.80469 17.9893C1.68457 17.8535 1.56339 17.605 1.37305 17.1436C1.20291 16.7238 1.10742 16.455 1.06934 16.2666C1.04158 16.1291 1.04595 16.0427 1.07031 15.9756L1.10059 15.9131L1.10156 15.9111C1.10119 15.9118 1.1038 15.9089 1.11133 15.9014C1.11879 15.8939 1.12939 15.8838 1.14453 15.8721C1.17488 15.8485 1.21829 15.8195 1.27637 15.7842C1.39249 15.7135 1.56106 15.6225 1.78809 15.5078C2.24192 15.2786 2.92288 14.9583 3.87207 14.5244C5.97062 13.5594 7.2243 12.8907 8.24219 12.1914C9.30026 11.468 9.5118 11.2619 9.57227 11.2002C9.64002 11.131 9.67518 11.0947 9.74023 11.0283C9.83877 10.9616 9.89223 10.9331 10.0098 10.8232L10.1416 10.7109C10.4689 10.4532 10.943 10.2146 11.9355 9.80078C12.9421 9.38394 13.6173 9.04415 15.0928 8.2041C15.8535 7.77266 16.5127 7.49013 17.0684 7.35449C17.6245 7.21874 18.0674 7.23208 18.4033 7.37891L18.4072 7.38086C18.479 7.40942 18.5788 7.47209 18.6807 7.55273C18.7816 7.63259 18.8773 7.72399 18.9424 7.80371L18.9434 7.80469L19.1934 8.10449L19.1377 10.2354C19.0999 11.4304 19.0145 13.2895 18.9297 14.377V14.3779C18.8543 15.4647 18.7881 16.4927 18.7881 16.6611C18.7881 16.9182 18.8618 17.1221 19.0527 17.2646C19.2342 17.4 19.5081 17.4689 19.8789 17.5029L20.1377 17.5371C20.2156 17.55 20.2858 17.5642 20.3477 17.5801C20.4729 17.6123 20.5584 17.6486 20.6094 17.6836C20.6579 17.7169 20.6584 17.7364 20.6582 17.7393C20.6575 17.7479 20.647 17.7813 20.5762 17.834L20.5742 17.835C20.52 17.8764 20.4376 17.9095 20.2627 17.9268C20.0871 17.9441 19.8311 17.9451 19.4395 17.9307C19.0029 17.9161 18.7504 17.9018 18.5879 17.8721C18.5084 17.8575 18.4549 17.8399 18.4141 17.8193C18.3741 17.7992 18.3421 17.7734 18.3076 17.7383C18.2492 17.6786 18.1965 17.5775 18.1357 17.1182C18.0759 16.6657 18.0101 15.892 17.9014 14.5215L17.5986 10.5889C17.5819 10.3307 17.5569 10.1134 17.5215 9.93848C17.4864 9.76561 17.4403 9.62608 17.3789 9.52832C17.3163 9.4288 17.2258 9.35735 17.1064 9.36328C16.9981 9.36867 16.897 9.43795 16.8047 9.53223L16.8008 9.53516C16.7337 9.61052 16.6999 9.71439 16.6836 9.85547C16.6672 9.99688 16.6674 10.1899 16.6816 10.4561V10.457L16.7227 11.085L15.1992 11.6094C13.1236 12.3254 10.054 13.3999 8.11035 14.0918L6.62012 14.6289C5.95001 14.8794 4.73153 15.323 3.92871 15.6123C3.52617 15.7574 3.13977 15.9073 2.84277 16.0322C2.69435 16.0947 2.56663 16.1514 2.4707 16.1982C2.42316 16.2214 2.38219 16.2428 2.34961 16.2617C2.32233 16.2775 2.29428 16.297 2.27344 16.3164V16.3154C2.27205 16.3166 2.27091 16.3181 2.26953 16.3193C2.26878 16.3201 2.26733 16.3205 2.2666 16.3213V16.3223C2.20443 16.3767 2.15244 16.4352 2.12012 16.5049C2.08583 16.5789 2.07591 16.6588 2.08691 16.7441C2.10802 16.9067 2.20826 17.0979 2.36816 17.3428V17.3438C2.47185 17.499 2.54202 17.6304 2.58105 17.7393C2.62048 17.8492 2.62555 17.927 2.6123 17.9795C2.60038 18.0267 2.57092 18.0642 2.51172 18.0928C2.44859 18.1233 2.35235 18.1425 2.21582 18.1426Z" fill="#005F73" stroke="#005F73" stroke-width="0.2"/>
</svg>
