<svg width="24" height="24" viewBox="0 0 24 24" fill="none" xmlns="http://www.w3.org/2000/svg">
<mask id="path-1-outside-1_12474_324330" maskUnits="userSpaceOnUse" x="2.4375" y="0.434082" width="21" height="23" fill="black">
<rect fill="white" x="2.4375" y="0.434082" width="21" height="23"/>
<path d="M19.3121 1.45309C19.6577 1.72284 19.8969 2.1673 20.1385 2.52897C20.1985 2.6186 20.2592 2.70773 20.3201 2.79672C20.9972 3.79045 21.6608 4.84952 22.0309 5.99997C22.0433 6.03797 22.0557 6.07598 22.0684 6.11514C22.2654 6.83741 22.0913 7.59099 21.7504 8.23623C21.6052 8.47342 21.4329 8.66618 21.234 8.85934C21.1841 8.90992 21.1841 8.90992 21.1331 8.96152C20.5514 9.51903 19.8097 9.70728 19.0247 9.70932C18.8966 9.70339 18.781 9.68272 18.6559 9.65622C18.6529 9.71488 18.6529 9.71488 18.6498 9.77473C18.6188 10.3072 18.5559 10.8341 18.4898 11.3632C18.4775 11.4626 18.4652 11.5619 18.453 11.6612C18.42 11.929 18.3867 12.1968 18.3533 12.4646C18.3254 12.6888 18.2976 12.913 18.2698 13.1373C18.2042 13.6665 18.1384 14.1957 18.0725 14.7248C18.0046 15.2694 17.9371 15.8141 17.8698 16.3588C17.8119 16.8278 17.7536 17.2969 17.6952 17.7659C17.6604 18.0454 17.6257 18.3249 17.5912 18.6045C17.5588 18.8673 17.5261 19.1301 17.4931 19.3929C17.4811 19.4889 17.4692 19.5849 17.4575 19.681C17.2304 21.5322 17.2304 21.5322 16.4793 22.1206C15.913 22.5085 15.3373 22.5747 14.6708 22.5704C14.5925 22.5705 14.5142 22.5708 14.4359 22.5711C14.2251 22.5718 14.0143 22.5713 13.8035 22.5705C13.5819 22.5698 13.3604 22.5701 13.1388 22.5703C12.767 22.5704 12.3953 22.5698 12.0235 22.5687C11.5946 22.5675 11.1658 22.5674 10.7369 22.5679C10.3229 22.5684 9.90891 22.5681 9.49492 22.5675C9.31933 22.5672 9.14375 22.5672 8.96817 22.5674C8.76128 22.5677 8.55441 22.5672 8.34752 22.5662C8.2719 22.5659 8.19628 22.5659 8.12066 22.5661C7.34649 22.5682 6.77571 22.4054 6.20088 21.8644C5.60195 21.2267 5.56575 20.3269 5.46567 19.5027C5.45091 19.3846 5.4361 19.2664 5.42125 19.1482C5.38539 18.8619 5.35004 18.5755 5.31492 18.2891C5.27395 17.9551 5.2324 17.6212 5.19082 17.2872C5.11664 16.6914 5.04299 16.0955 4.96964 15.4995C4.89854 14.9219 4.82708 14.3443 4.75522 13.7668C4.75079 13.7312 4.74636 13.6955 4.74179 13.6588C4.73737 13.6233 4.73294 13.5877 4.72839 13.5511C4.71948 13.4795 4.71057 13.4079 4.70166 13.3363C4.69727 13.301 4.69288 13.2657 4.68835 13.2293C4.61974 12.6778 4.55147 12.1262 4.48322 11.5746C4.45853 11.3751 4.43379 11.1756 4.40901 10.976C4.36604 10.6301 4.3233 10.2841 4.28082 9.93804C4.26669 9.82322 4.25248 9.7084 4.23819 9.5936C4.21869 9.43686 4.19948 9.28009 4.18033 9.12331C4.17463 9.07794 4.16892 9.03258 4.16303 8.98584C4.13317 8.7384 4.1191 8.49921 4.12465 8.24997C4.09691 8.25214 4.06918 8.25432 4.0406 8.25656C4.00356 8.25825 3.96652 8.25994 3.92836 8.26169C3.89192 8.26386 3.85549 8.26604 3.81795 8.26828C3.65152 8.24182 3.58466 8.18424 3.4684 8.06247C3.44503 7.92267 3.43676 7.80955 3.43882 7.6698C3.43848 7.6303 3.43815 7.59079 3.4378 7.55009C3.43701 7.41959 3.43792 7.28916 3.43892 7.15866C3.43888 7.06794 3.43877 6.97723 3.43858 6.88651C3.43844 6.69642 3.43913 6.50635 3.44042 6.31626C3.44202 6.07256 3.44173 5.8289 3.44086 5.58519C3.44036 5.39788 3.44078 5.21057 3.44148 5.02326C3.44173 4.9334 3.4417 4.84355 3.44141 4.75369C3.44116 4.6281 3.44211 4.50259 3.44339 4.37701C3.44309 4.33985 3.44278 4.30268 3.44247 4.26439C3.44521 4.10643 3.45029 4.00759 3.54896 3.88091C3.67598 3.78105 3.73146 3.77396 3.89103 3.77566C3.93871 3.7757 3.98638 3.77574 4.03551 3.77578C4.0878 3.77679 4.1401 3.77779 4.19398 3.77882C4.2496 3.77913 4.30523 3.77944 4.36254 3.77976C4.48476 3.78058 4.60692 3.78174 4.72913 3.78348C4.92796 3.78631 5.1268 3.78785 5.32565 3.78923C5.57698 3.79106 5.82831 3.79324 6.07963 3.79583C6.57387 3.80093 7.06811 3.8037 7.56238 3.80563C7.64022 3.80594 7.71806 3.80626 7.7959 3.80658C7.91388 3.80706 8.03186 3.80753 8.14984 3.80801C8.59473 3.8098 9.03962 3.81184 9.4845 3.81417C9.5455 3.81449 9.5455 3.81449 9.60774 3.81481C10.266 3.81833 10.9242 3.82461 11.5825 3.83175C12.2588 3.83901 12.935 3.84266 13.6113 3.84316C14.0282 3.84359 14.4449 3.8469 14.8618 3.85393C15.1478 3.8585 15.4338 3.85961 15.7198 3.85805C15.8848 3.85726 16.0493 3.85796 16.2142 3.86283C16.8719 3.90292 16.8719 3.90292 17.4552 3.65737C17.6482 3.4346 17.7804 3.18895 17.9013 2.92157C17.9691 2.77783 18.0522 2.65711 18.146 2.52902C18.1723 2.49144 18.1987 2.45385 18.2259 2.41513C18.2508 2.37996 18.2757 2.34479 18.3014 2.30856C18.3276 2.27122 18.3538 2.23388 18.3808 2.1954C18.5065 2.01682 18.6338 1.83936 18.763 1.6633C18.7853 1.63295 18.8075 1.6026 18.8304 1.57133C18.9648 1.41112 19.1161 1.42147 19.3121 1.45309ZM19.1246 2.39059C19.0385 2.50565 18.9551 2.6215 18.8727 2.73923C18.8474 2.77525 18.8222 2.81127 18.7962 2.84838C17.3634 4.82094 17.3634 4.82094 16.8746 7.12497C16.9966 7.739 17.3522 8.26263 17.859 8.62497C18.4961 8.9857 19.1163 9.10494 19.8283 8.90823C20.4638 8.68645 20.9189 8.2863 21.2113 7.68106C21.505 6.99504 21.4644 6.42865 21.1918 5.74545C20.7366 4.68181 20.0814 3.70793 19.4216 2.76269C19.3633 2.67801 19.3068 2.59235 19.2508 2.50613C19.2246 2.468 19.1985 2.42988 19.1715 2.39059C19.1561 2.39059 19.1406 2.39059 19.1246 2.39059ZM4.17152 4.49997C4.17152 5.50544 4.17152 6.51091 4.17152 7.54684C8.16246 7.54684 12.1534 7.54684 16.2653 7.54684C16.2498 7.42309 16.2343 7.29934 16.2184 7.17184C16.1448 6.29189 16.4192 5.61165 16.7864 4.8265C16.8346 4.71903 16.8778 4.60934 16.9215 4.49997C12.714 4.49997 8.50652 4.49997 4.17152 4.49997ZM4.82777 8.24997C4.85192 8.62162 4.87983 8.99093 4.9305 9.35995C4.93563 9.39856 4.94077 9.43717 4.94606 9.47695C4.96211 9.59728 4.97843 9.71757 4.99477 9.83786C5.00586 9.92068 5.01694 10.0035 5.028 10.0863C5.0548 10.2867 5.08184 10.4871 5.10902 10.6875C5.13468 10.6875 5.16034 10.6876 5.18678 10.6877C5.81284 10.6894 6.43889 10.6922 7.06494 10.6961C7.3677 10.6979 7.67046 10.6994 7.97323 10.7002C8.26562 10.7009 8.55799 10.7025 8.85038 10.7047C8.96172 10.7054 9.07307 10.7058 9.18441 10.7058C9.34082 10.7059 9.49718 10.7072 9.65359 10.7088C9.69924 10.7085 9.74489 10.7083 9.79193 10.708C10.2288 10.7146 10.6128 10.8403 10.9215 11.1562C11.6066 12.078 11.2747 13.1645 11.2965 14.3437C13.3075 14.3437 15.3184 14.3437 17.3903 14.3437C17.7005 11.9069 17.7005 11.9069 17.9996 9.46872C17.9523 9.44136 17.9049 9.414 17.856 9.38581C17.7928 9.3487 17.7295 9.31158 17.6662 9.27444C17.6351 9.25656 17.604 9.23867 17.572 9.22024C17.2301 9.01841 16.8859 8.74741 16.7098 8.38487C16.5822 8.23705 16.5687 8.22964 16.3866 8.21536C16.2991 8.21418 16.2116 8.21456 16.1242 8.21615C16.076 8.21591 16.0278 8.21567 15.9781 8.21542C15.8161 8.21495 15.6541 8.2165 15.4921 8.21804C15.3761 8.21812 15.2602 8.21807 15.1442 8.21791C14.8944 8.21785 14.6445 8.21865 14.3946 8.22023C14.0334 8.22252 13.6721 8.22325 13.3108 8.2236C12.7247 8.22422 12.1386 8.22609 11.5524 8.22875C10.9831 8.23133 10.4137 8.23332 9.84429 8.23452C9.8092 8.23459 9.7741 8.23467 9.73794 8.23474C9.56189 8.23511 9.38583 8.23546 9.20977 8.23581C7.7491 8.23873 6.28844 8.2437 4.82777 8.24997ZM5.20277 11.3906C5.26465 11.9475 5.32652 12.5043 5.39027 13.0781C5.74231 13.0824 5.74231 13.0824 6.10146 13.0867C6.25014 13.0886 6.39882 13.0905 6.5475 13.0925C6.78349 13.0956 7.01948 13.0986 7.25548 13.1014C7.44574 13.1036 7.636 13.1061 7.82626 13.1087C7.89885 13.1097 7.97144 13.1105 8.04403 13.1113C8.1457 13.1125 8.24736 13.1139 8.34903 13.1153C8.4069 13.1161 8.46478 13.1168 8.52441 13.1176C8.64493 13.1236 8.74449 13.1363 8.85902 13.1718C8.86284 13.2392 8.86556 13.3066 8.86781 13.374C8.87026 13.4303 8.87026 13.4303 8.87276 13.4877C8.85902 13.5937 8.85902 13.5937 8.80741 13.6694C8.67522 13.7659 8.56791 13.7531 8.40553 13.7546C8.35818 13.7553 8.35818 13.7553 8.30987 13.7561C8.20563 13.7575 8.1014 13.7579 7.99715 13.7583C7.92483 13.7591 7.85252 13.76 7.7802 13.7609C7.58994 13.7631 7.39968 13.7645 7.20941 13.7657C7.01523 13.7671 6.82105 13.7693 6.62688 13.7714C6.24593 13.7755 5.86498 13.7786 5.48402 13.7812C5.50616 13.9756 5.52874 14.1699 5.55141 14.3642C5.55772 14.4197 5.56404 14.4752 5.57054 14.5324C5.57674 14.5851 5.58293 14.6378 5.58931 14.6922C5.59496 14.741 5.6006 14.7899 5.60642 14.8402C5.61293 14.9505 5.61293 14.9505 5.67152 15C5.76736 15.0053 5.86338 15.0073 5.95936 15.0081C6.02099 15.0087 6.08262 15.0094 6.14612 15.01C6.17927 15.0103 6.21241 15.0105 6.24656 15.0107C6.34997 15.0115 6.45337 15.0126 6.55678 15.0138C6.85084 15.0171 7.14491 15.0199 7.43898 15.0223C7.61867 15.0238 7.79834 15.0257 7.97802 15.028C8.04662 15.0287 8.11523 15.0293 8.18385 15.0297C8.27969 15.0302 8.37554 15.0314 8.47138 15.0326C8.52599 15.0331 8.5806 15.0336 8.63687 15.0341C8.76527 15.0468 8.76527 15.0468 8.85902 15.1406C8.87148 15.2285 8.87148 15.2285 8.87074 15.3281C8.87111 15.3774 8.87111 15.3774 8.87148 15.4277C8.85902 15.5156 8.85902 15.5156 8.76527 15.6093C8.61103 15.6632 8.46064 15.6635 8.29831 15.6658C8.24202 15.6668 8.18572 15.6677 8.12772 15.6687C8.06717 15.6695 8.00662 15.6702 7.94423 15.671C7.88144 15.672 7.81865 15.673 7.75586 15.674C7.59095 15.6766 7.42604 15.6789 7.26113 15.6812C7.09271 15.6835 6.92429 15.6861 6.75588 15.6887C6.42568 15.6938 6.09548 15.6985 5.76527 15.7031C5.79114 16.3177 5.8677 16.9223 5.95277 17.5312C6.4719 17.5356 6.99103 17.5389 7.51017 17.5409C7.75126 17.5419 7.99232 17.5432 8.2334 17.5454C8.46621 17.5474 8.69901 17.5485 8.93184 17.549C9.02049 17.5494 9.10915 17.55 9.1978 17.551C9.32235 17.5524 9.44685 17.5526 9.5714 17.5525C9.60774 17.5532 9.64409 17.5539 9.68154 17.5545C9.94113 17.5526 10.1494 17.5025 10.359 17.3437C10.6064 17.0835 10.627 16.8155 10.6222 16.4702C10.6226 16.3974 10.6226 16.3974 10.623 16.3231C10.6236 16.1637 10.6224 16.0043 10.6212 15.8448C10.6212 15.7336 10.6212 15.6223 10.6212 15.5111C10.6212 15.2784 10.6203 15.0457 10.6188 14.813C10.6169 14.5148 10.6167 14.2168 10.6171 13.9186C10.6172 13.6891 10.6167 13.4596 10.6159 13.23C10.6155 13.1201 10.6154 13.0102 10.6154 12.9002C10.6153 12.7466 10.6143 12.5931 10.6131 12.4395C10.6132 12.3942 10.6134 12.3489 10.6135 12.3022C10.61 12.0229 10.5787 11.8099 10.3825 11.5948C10.195 11.4488 10.0666 11.3847 9.83069 11.385C9.78988 11.3849 9.74906 11.3848 9.707 11.3848C9.66236 11.3849 9.61772 11.3851 9.57173 11.3853C9.52462 11.3853 9.4775 11.3853 9.42896 11.3853C9.27298 11.3853 9.117 11.3856 8.96101 11.386C8.85297 11.3861 8.74492 11.3862 8.63687 11.3862C8.35228 11.3864 8.0677 11.3869 7.78311 11.3874C7.49279 11.3879 7.20247 11.3881 6.91216 11.3883C6.34236 11.3888 5.77257 11.3896 5.20277 11.3906ZM11.2965 15.0468C11.2811 15.712 11.2656 16.3772 11.2496 17.0625C11.0368 17.5946 10.8798 17.8632 10.3746 18.0979C10.145 18.1875 9.93105 18.1953 9.68643 18.1971C9.64709 18.1976 9.60774 18.198 9.5672 18.1985C9.43734 18.2 9.30749 18.2011 9.17763 18.2023C9.08751 18.2033 8.9974 18.2042 8.90729 18.2052C8.67025 18.2078 8.43321 18.2102 8.19617 18.2124C7.95423 18.2148 7.71229 18.2174 7.47035 18.22C6.99575 18.225 6.52114 18.2298 6.04652 18.2343C6.08225 18.5588 6.11898 18.8831 6.15639 19.2074C6.16897 19.3175 6.18134 19.4277 6.19347 19.5378C6.21103 19.697 6.22941 19.856 6.24794 20.015C6.25312 20.0636 6.25831 20.1123 6.26365 20.1623C6.32612 20.6838 6.45967 21.0999 6.8434 21.4687C6.87917 21.5035 6.91494 21.5383 6.9518 21.5742C7.38602 21.8569 7.81157 21.8708 8.3152 21.868C8.3921 21.8682 8.46899 21.8686 8.54588 21.869C8.75353 21.8698 8.96116 21.8695 9.16881 21.8689C9.3868 21.8684 9.60479 21.8689 9.82278 21.8692C10.1888 21.8695 10.5547 21.8691 10.9207 21.8682C11.343 21.8671 11.7652 21.8675 12.1874 21.8685C12.5509 21.8694 12.9144 21.8695 13.2778 21.869C13.4945 21.8687 13.7112 21.8687 13.9279 21.8693C14.1316 21.8698 14.3354 21.8694 14.5392 21.8684C14.6137 21.8681 14.6881 21.8682 14.7626 21.8686C15.3301 21.8715 15.791 21.8095 16.2093 21.3972C16.5588 21.0031 16.6468 20.5327 16.7033 20.0251C16.7115 19.9584 16.7198 19.8917 16.7282 19.825C16.7502 19.6479 16.771 19.4705 16.7915 19.2932C16.813 19.1092 16.8357 18.9253 16.8583 18.7415C16.8945 18.4465 16.93 18.1515 16.9651 17.8564C17.01 17.4793 17.0569 17.1025 17.1048 16.7257C17.1116 16.6727 17.1183 16.6197 17.1252 16.565C17.1381 16.4637 17.151 16.3624 17.1639 16.2611C17.1928 16.0334 17.2215 15.8058 17.2498 15.578C17.2546 15.54 17.2595 15.5019 17.2644 15.4627C17.2817 15.323 17.2965 15.1877 17.2965 15.0468C15.3165 15.0468 13.3365 15.0468 11.2965 15.0468Z"/>
</mask>
<path d="M19.3121 1.45309C19.6577 1.72284 19.8969 2.1673 20.1385 2.52897C20.1985 2.6186 20.2592 2.70773 20.3201 2.79672C20.9972 3.79045 21.6608 4.84952 22.0309 5.99997C22.0433 6.03797 22.0557 6.07598 22.0684 6.11514C22.2654 6.83741 22.0913 7.59099 21.7504 8.23623C21.6052 8.47342 21.4329 8.66618 21.234 8.85934C21.1841 8.90992 21.1841 8.90992 21.1331 8.96152C20.5514 9.51903 19.8097 9.70728 19.0247 9.70932C18.8966 9.70339 18.781 9.68272 18.6559 9.65622C18.6529 9.71488 18.6529 9.71488 18.6498 9.77473C18.6188 10.3072 18.5559 10.8341 18.4898 11.3632C18.4775 11.4626 18.4652 11.5619 18.453 11.6612C18.42 11.929 18.3867 12.1968 18.3533 12.4646C18.3254 12.6888 18.2976 12.913 18.2698 13.1373C18.2042 13.6665 18.1384 14.1957 18.0725 14.7248C18.0046 15.2694 17.9371 15.8141 17.8698 16.3588C17.8119 16.8278 17.7536 17.2969 17.6952 17.7659C17.6604 18.0454 17.6257 18.3249 17.5912 18.6045C17.5588 18.8673 17.5261 19.1301 17.4931 19.3929C17.4811 19.4889 17.4692 19.5849 17.4575 19.681C17.2304 21.5322 17.2304 21.5322 16.4793 22.1206C15.913 22.5085 15.3373 22.5747 14.6708 22.5704C14.5925 22.5705 14.5142 22.5708 14.4359 22.5711C14.2251 22.5718 14.0143 22.5713 13.8035 22.5705C13.5819 22.5698 13.3604 22.5701 13.1388 22.5703C12.767 22.5704 12.3953 22.5698 12.0235 22.5687C11.5946 22.5675 11.1658 22.5674 10.7369 22.5679C10.3229 22.5684 9.90891 22.5681 9.49492 22.5675C9.31933 22.5672 9.14375 22.5672 8.96817 22.5674C8.76128 22.5677 8.55441 22.5672 8.34752 22.5662C8.2719 22.5659 8.19628 22.5659 8.12066 22.5661C7.34649 22.5682 6.77571 22.4054 6.20088 21.8644C5.60195 21.2267 5.56575 20.3269 5.46567 19.5027C5.45091 19.3846 5.4361 19.2664 5.42125 19.1482C5.38539 18.8619 5.35004 18.5755 5.31492 18.2891C5.27395 17.9551 5.2324 17.6212 5.19082 17.2872C5.11664 16.6914 5.04299 16.0955 4.96964 15.4995C4.89854 14.9219 4.82708 14.3443 4.75522 13.7668C4.75079 13.7312 4.74636 13.6955 4.74179 13.6588C4.73737 13.6233 4.73294 13.5877 4.72839 13.5511C4.71948 13.4795 4.71057 13.4079 4.70166 13.3363C4.69727 13.301 4.69288 13.2657 4.68835 13.2293C4.61974 12.6778 4.55147 12.1262 4.48322 11.5746C4.45853 11.3751 4.43379 11.1756 4.40901 10.976C4.36604 10.6301 4.3233 10.2841 4.28082 9.93804C4.26669 9.82322 4.25248 9.7084 4.23819 9.5936C4.21869 9.43686 4.19948 9.28009 4.18033 9.12331C4.17463 9.07794 4.16892 9.03258 4.16303 8.98584C4.13317 8.7384 4.1191 8.49921 4.12465 8.24997C4.09691 8.25214 4.06918 8.25432 4.0406 8.25656C4.00356 8.25825 3.96652 8.25994 3.92836 8.26169C3.89192 8.26386 3.85549 8.26604 3.81795 8.26828C3.65152 8.24182 3.58466 8.18424 3.4684 8.06247C3.44503 7.92267 3.43676 7.80955 3.43882 7.6698C3.43848 7.6303 3.43815 7.59079 3.4378 7.55009C3.43701 7.41959 3.43792 7.28916 3.43892 7.15866C3.43888 7.06794 3.43877 6.97723 3.43858 6.88651C3.43844 6.69642 3.43913 6.50635 3.44042 6.31626C3.44202 6.07256 3.44173 5.8289 3.44086 5.58519C3.44036 5.39788 3.44078 5.21057 3.44148 5.02326C3.44173 4.9334 3.4417 4.84355 3.44141 4.75369C3.44116 4.6281 3.44211 4.50259 3.44339 4.37701C3.44309 4.33985 3.44278 4.30268 3.44247 4.26439C3.44521 4.10643 3.45029 4.00759 3.54896 3.88091C3.67598 3.78105 3.73146 3.77396 3.89103 3.77566C3.93871 3.7757 3.98638 3.77574 4.03551 3.77578C4.0878 3.77679 4.1401 3.77779 4.19398 3.77882C4.2496 3.77913 4.30523 3.77944 4.36254 3.77976C4.48476 3.78058 4.60692 3.78174 4.72913 3.78348C4.92796 3.78631 5.1268 3.78785 5.32565 3.78923C5.57698 3.79106 5.82831 3.79324 6.07963 3.79583C6.57387 3.80093 7.06811 3.8037 7.56238 3.80563C7.64022 3.80594 7.71806 3.80626 7.7959 3.80658C7.91388 3.80706 8.03186 3.80753 8.14984 3.80801C8.59473 3.8098 9.03962 3.81184 9.4845 3.81417C9.5455 3.81449 9.5455 3.81449 9.60774 3.81481C10.266 3.81833 10.9242 3.82461 11.5825 3.83175C12.2588 3.83901 12.935 3.84266 13.6113 3.84316C14.0282 3.84359 14.4449 3.8469 14.8618 3.85393C15.1478 3.8585 15.4338 3.85961 15.7198 3.85805C15.8848 3.85726 16.0493 3.85796 16.2142 3.86283C16.8719 3.90292 16.8719 3.90292 17.4552 3.65737C17.6482 3.4346 17.7804 3.18895 17.9013 2.92157C17.9691 2.77783 18.0522 2.65711 18.146 2.52902C18.1723 2.49144 18.1987 2.45385 18.2259 2.41513C18.2508 2.37996 18.2757 2.34479 18.3014 2.30856C18.3276 2.27122 18.3538 2.23388 18.3808 2.1954C18.5065 2.01682 18.6338 1.83936 18.763 1.6633C18.7853 1.63295 18.8075 1.6026 18.8304 1.57133C18.9648 1.41112 19.1161 1.42147 19.3121 1.45309ZM19.1246 2.39059C19.0385 2.50565 18.9551 2.6215 18.8727 2.73923C18.8474 2.77525 18.8222 2.81127 18.7962 2.84838C17.3634 4.82094 17.3634 4.82094 16.8746 7.12497C16.9966 7.739 17.3522 8.26263 17.859 8.62497C18.4961 8.9857 19.1163 9.10494 19.8283 8.90823C20.4638 8.68645 20.9189 8.2863 21.2113 7.68106C21.505 6.99504 21.4644 6.42865 21.1918 5.74545C20.7366 4.68181 20.0814 3.70793 19.4216 2.76269C19.3633 2.67801 19.3068 2.59235 19.2508 2.50613C19.2246 2.468 19.1985 2.42988 19.1715 2.39059C19.1561 2.39059 19.1406 2.39059 19.1246 2.39059ZM4.17152 4.49997C4.17152 5.50544 4.17152 6.51091 4.17152 7.54684C8.16246 7.54684 12.1534 7.54684 16.2653 7.54684C16.2498 7.42309 16.2343 7.29934 16.2184 7.17184C16.1448 6.29189 16.4192 5.61165 16.7864 4.8265C16.8346 4.71903 16.8778 4.60934 16.9215 4.49997C12.714 4.49997 8.50652 4.49997 4.17152 4.49997ZM4.82777 8.24997C4.85192 8.62162 4.87983 8.99093 4.9305 9.35995C4.93563 9.39856 4.94077 9.43717 4.94606 9.47695C4.96211 9.59728 4.97843 9.71757 4.99477 9.83786C5.00586 9.92068 5.01694 10.0035 5.028 10.0863C5.0548 10.2867 5.08184 10.4871 5.10902 10.6875C5.13468 10.6875 5.16034 10.6876 5.18678 10.6877C5.81284 10.6894 6.43889 10.6922 7.06494 10.6961C7.3677 10.6979 7.67046 10.6994 7.97323 10.7002C8.26562 10.7009 8.55799 10.7025 8.85038 10.7047C8.96172 10.7054 9.07307 10.7058 9.18441 10.7058C9.34082 10.7059 9.49718 10.7072 9.65359 10.7088C9.69924 10.7085 9.74489 10.7083 9.79193 10.708C10.2288 10.7146 10.6128 10.8403 10.9215 11.1562C11.6066 12.078 11.2747 13.1645 11.2965 14.3437C13.3075 14.3437 15.3184 14.3437 17.3903 14.3437C17.7005 11.9069 17.7005 11.9069 17.9996 9.46872C17.9523 9.44136 17.9049 9.414 17.856 9.38581C17.7928 9.3487 17.7295 9.31158 17.6662 9.27444C17.6351 9.25656 17.604 9.23867 17.572 9.22024C17.2301 9.01841 16.8859 8.74741 16.7098 8.38487C16.5822 8.23705 16.5687 8.22964 16.3866 8.21536C16.2991 8.21418 16.2116 8.21456 16.1242 8.21615C16.076 8.21591 16.0278 8.21567 15.9781 8.21542C15.8161 8.21495 15.6541 8.2165 15.4921 8.21804C15.3761 8.21812 15.2602 8.21807 15.1442 8.21791C14.8944 8.21785 14.6445 8.21865 14.3946 8.22023C14.0334 8.22252 13.6721 8.22325 13.3108 8.2236C12.7247 8.22422 12.1386 8.22609 11.5524 8.22875C10.9831 8.23133 10.4137 8.23332 9.84429 8.23452C9.8092 8.23459 9.7741 8.23467 9.73794 8.23474C9.56189 8.23511 9.38583 8.23546 9.20977 8.23581C7.7491 8.23873 6.28844 8.2437 4.82777 8.24997ZM5.20277 11.3906C5.26465 11.9475 5.32652 12.5043 5.39027 13.0781C5.74231 13.0824 5.74231 13.0824 6.10146 13.0867C6.25014 13.0886 6.39882 13.0905 6.5475 13.0925C6.78349 13.0956 7.01948 13.0986 7.25548 13.1014C7.44574 13.1036 7.636 13.1061 7.82626 13.1087C7.89885 13.1097 7.97144 13.1105 8.04403 13.1113C8.1457 13.1125 8.24736 13.1139 8.34903 13.1153C8.4069 13.1161 8.46478 13.1168 8.52441 13.1176C8.64493 13.1236 8.74449 13.1363 8.85902 13.1718C8.86284 13.2392 8.86556 13.3066 8.86781 13.374C8.87026 13.4303 8.87026 13.4303 8.87276 13.4877C8.85902 13.5937 8.85902 13.5937 8.80741 13.6694C8.67522 13.7659 8.56791 13.7531 8.40553 13.7546C8.35818 13.7553 8.35818 13.7553 8.30987 13.7561C8.20563 13.7575 8.1014 13.7579 7.99715 13.7583C7.92483 13.7591 7.85252 13.76 7.7802 13.7609C7.58994 13.7631 7.39968 13.7645 7.20941 13.7657C7.01523 13.7671 6.82105 13.7693 6.62688 13.7714C6.24593 13.7755 5.86498 13.7786 5.48402 13.7812C5.50616 13.9756 5.52874 14.1699 5.55141 14.3642C5.55772 14.4197 5.56404 14.4752 5.57054 14.5324C5.57674 14.5851 5.58293 14.6378 5.58931 14.6922C5.59496 14.741 5.6006 14.7899 5.60642 14.8402C5.61293 14.9505 5.61293 14.9505 5.67152 15C5.76736 15.0053 5.86338 15.0073 5.95936 15.0081C6.02099 15.0087 6.08262 15.0094 6.14612 15.01C6.17927 15.0103 6.21241 15.0105 6.24656 15.0107C6.34997 15.0115 6.45337 15.0126 6.55678 15.0138C6.85084 15.0171 7.14491 15.0199 7.43898 15.0223C7.61867 15.0238 7.79834 15.0257 7.97802 15.028C8.04662 15.0287 8.11523 15.0293 8.18385 15.0297C8.27969 15.0302 8.37554 15.0314 8.47138 15.0326C8.52599 15.0331 8.5806 15.0336 8.63687 15.0341C8.76527 15.0468 8.76527 15.0468 8.85902 15.1406C8.87148 15.2285 8.87148 15.2285 8.87074 15.3281C8.87111 15.3774 8.87111 15.3774 8.87148 15.4277C8.85902 15.5156 8.85902 15.5156 8.76527 15.6093C8.61103 15.6632 8.46064 15.6635 8.29831 15.6658C8.24202 15.6668 8.18572 15.6677 8.12772 15.6687C8.06717 15.6695 8.00662 15.6702 7.94423 15.671C7.88144 15.672 7.81865 15.673 7.75586 15.674C7.59095 15.6766 7.42604 15.6789 7.26113 15.6812C7.09271 15.6835 6.92429 15.6861 6.75588 15.6887C6.42568 15.6938 6.09548 15.6985 5.76527 15.7031C5.79114 16.3177 5.8677 16.9223 5.95277 17.5312C6.4719 17.5356 6.99103 17.5389 7.51017 17.5409C7.75126 17.5419 7.99232 17.5432 8.2334 17.5454C8.46621 17.5474 8.69901 17.5485 8.93184 17.549C9.02049 17.5494 9.10915 17.55 9.1978 17.551C9.32235 17.5524 9.44685 17.5526 9.5714 17.5525C9.60774 17.5532 9.64409 17.5539 9.68154 17.5545C9.94113 17.5526 10.1494 17.5025 10.359 17.3437C10.6064 17.0835 10.627 16.8155 10.6222 16.4702C10.6226 16.3974 10.6226 16.3974 10.623 16.3231C10.6236 16.1637 10.6224 16.0043 10.6212 15.8448C10.6212 15.7336 10.6212 15.6223 10.6212 15.5111C10.6212 15.2784 10.6203 15.0457 10.6188 14.813C10.6169 14.5148 10.6167 14.2168 10.6171 13.9186C10.6172 13.6891 10.6167 13.4596 10.6159 13.23C10.6155 13.1201 10.6154 13.0102 10.6154 12.9002C10.6153 12.7466 10.6143 12.5931 10.6131 12.4395C10.6132 12.3942 10.6134 12.3489 10.6135 12.3022C10.61 12.0229 10.5787 11.8099 10.3825 11.5948C10.195 11.4488 10.0666 11.3847 9.83069 11.385C9.78988 11.3849 9.74906 11.3848 9.707 11.3848C9.66236 11.3849 9.61772 11.3851 9.57173 11.3853C9.52462 11.3853 9.4775 11.3853 9.42896 11.3853C9.27298 11.3853 9.117 11.3856 8.96101 11.386C8.85297 11.3861 8.74492 11.3862 8.63687 11.3862C8.35228 11.3864 8.0677 11.3869 7.78311 11.3874C7.49279 11.3879 7.20247 11.3881 6.91216 11.3883C6.34236 11.3888 5.77257 11.3896 5.20277 11.3906ZM11.2965 15.0468C11.2811 15.712 11.2656 16.3772 11.2496 17.0625C11.0368 17.5946 10.8798 17.8632 10.3746 18.0979C10.145 18.1875 9.93105 18.1953 9.68643 18.1971C9.64709 18.1976 9.60774 18.198 9.5672 18.1985C9.43734 18.2 9.30749 18.2011 9.17763 18.2023C9.08751 18.2033 8.9974 18.2042 8.90729 18.2052C8.67025 18.2078 8.43321 18.2102 8.19617 18.2124C7.95423 18.2148 7.71229 18.2174 7.47035 18.22C6.99575 18.225 6.52114 18.2298 6.04652 18.2343C6.08225 18.5588 6.11898 18.8831 6.15639 19.2074C6.16897 19.3175 6.18134 19.4277 6.19347 19.5378C6.21103 19.697 6.22941 19.856 6.24794 20.015C6.25312 20.0636 6.25831 20.1123 6.26365 20.1623C6.32612 20.6838 6.45967 21.0999 6.8434 21.4687C6.87917 21.5035 6.91494 21.5383 6.9518 21.5742C7.38602 21.8569 7.81157 21.8708 8.3152 21.868C8.3921 21.8682 8.46899 21.8686 8.54588 21.869C8.75353 21.8698 8.96116 21.8695 9.16881 21.8689C9.3868 21.8684 9.60479 21.8689 9.82278 21.8692C10.1888 21.8695 10.5547 21.8691 10.9207 21.8682C11.343 21.8671 11.7652 21.8675 12.1874 21.8685C12.5509 21.8694 12.9144 21.8695 13.2778 21.869C13.4945 21.8687 13.7112 21.8687 13.9279 21.8693C14.1316 21.8698 14.3354 21.8694 14.5392 21.8684C14.6137 21.8681 14.6881 21.8682 14.7626 21.8686C15.3301 21.8715 15.791 21.8095 16.2093 21.3972C16.5588 21.0031 16.6468 20.5327 16.7033 20.0251C16.7115 19.9584 16.7198 19.8917 16.7282 19.825C16.7502 19.6479 16.771 19.4705 16.7915 19.2932C16.813 19.1092 16.8357 18.9253 16.8583 18.7415C16.8945 18.4465 16.93 18.1515 16.9651 17.8564C17.01 17.4793 17.0569 17.1025 17.1048 16.7257C17.1116 16.6727 17.1183 16.6197 17.1252 16.565C17.1381 16.4637 17.151 16.3624 17.1639 16.2611C17.1928 16.0334 17.2215 15.8058 17.2498 15.578C17.2546 15.54 17.2595 15.5019 17.2644 15.4627C17.2817 15.323 17.2965 15.1877 17.2965 15.0468C15.3165 15.0468 13.3365 15.0468 11.2965 15.0468Z" fill="#005F73"/>
<path d="M19.3121 1.45309C19.6577 1.72284 19.8969 2.1673 20.1385 2.52897C20.1985 2.6186 20.2592 2.70773 20.3201 2.79672C20.9972 3.79045 21.6608 4.84952 22.0309 5.99997C22.0433 6.03797 22.0557 6.07598 22.0684 6.11514C22.2654 6.83741 22.0913 7.59099 21.7504 8.23623C21.6052 8.47342 21.4329 8.66618 21.234 8.85934C21.1841 8.90992 21.1841 8.90992 21.1331 8.96152C20.5514 9.51903 19.8097 9.70728 19.0247 9.70932C18.8966 9.70339 18.781 9.68272 18.6559 9.65622C18.6529 9.71488 18.6529 9.71488 18.6498 9.77473C18.6188 10.3072 18.5559 10.8341 18.4898 11.3632C18.4775 11.4626 18.4652 11.5619 18.453 11.6612C18.42 11.929 18.3867 12.1968 18.3533 12.4646C18.3254 12.6888 18.2976 12.913 18.2698 13.1373C18.2042 13.6665 18.1384 14.1957 18.0725 14.7248C18.0046 15.2694 17.9371 15.8141 17.8698 16.3588C17.8119 16.8278 17.7536 17.2969 17.6952 17.7659C17.6604 18.0454 17.6257 18.3249 17.5912 18.6045C17.5588 18.8673 17.5261 19.1301 17.4931 19.3929C17.4811 19.4889 17.4692 19.5849 17.4575 19.681C17.2304 21.5322 17.2304 21.5322 16.4793 22.1206C15.913 22.5085 15.3373 22.5747 14.6708 22.5704C14.5925 22.5705 14.5142 22.5708 14.4359 22.5711C14.2251 22.5718 14.0143 22.5713 13.8035 22.5705C13.5819 22.5698 13.3604 22.5701 13.1388 22.5703C12.767 22.5704 12.3953 22.5698 12.0235 22.5687C11.5946 22.5675 11.1658 22.5674 10.7369 22.5679C10.3229 22.5684 9.90891 22.5681 9.49492 22.5675C9.31933 22.5672 9.14375 22.5672 8.96817 22.5674C8.76128 22.5677 8.55441 22.5672 8.34752 22.5662C8.2719 22.5659 8.19628 22.5659 8.12066 22.5661C7.34649 22.5682 6.77571 22.4054 6.20088 21.8644C5.60195 21.2267 5.56575 20.3269 5.46567 19.5027C5.45091 19.3846 5.4361 19.2664 5.42125 19.1482C5.38539 18.8619 5.35004 18.5755 5.31492 18.2891C5.27395 17.9551 5.2324 17.6212 5.19082 17.2872C5.11664 16.6914 5.04299 16.0955 4.96964 15.4995C4.89854 14.9219 4.82708 14.3443 4.75522 13.7668C4.75079 13.7312 4.74636 13.6955 4.74179 13.6588C4.73737 13.6233 4.73294 13.5877 4.72839 13.5511C4.71948 13.4795 4.71057 13.4079 4.70166 13.3363C4.69727 13.301 4.69288 13.2657 4.68835 13.2293C4.61974 12.6778 4.55147 12.1262 4.48322 11.5746C4.45853 11.3751 4.43379 11.1756 4.40901 10.976C4.36604 10.6301 4.3233 10.2841 4.28082 9.93804C4.26669 9.82322 4.25248 9.7084 4.23819 9.5936C4.21869 9.43686 4.19948 9.28009 4.18033 9.12331C4.17463 9.07794 4.16892 9.03258 4.16303 8.98584C4.13317 8.7384 4.1191 8.49921 4.12465 8.24997C4.09691 8.25214 4.06918 8.25432 4.0406 8.25656C4.00356 8.25825 3.96652 8.25994 3.92836 8.26169C3.89192 8.26386 3.85549 8.26604 3.81795 8.26828C3.65152 8.24182 3.58466 8.18424 3.4684 8.06247C3.44503 7.92267 3.43676 7.80955 3.43882 7.6698C3.43848 7.6303 3.43815 7.59079 3.4378 7.55009C3.43701 7.41959 3.43792 7.28916 3.43892 7.15866C3.43888 7.06794 3.43877 6.97723 3.43858 6.88651C3.43844 6.69642 3.43913 6.50635 3.44042 6.31626C3.44202 6.07256 3.44173 5.8289 3.44086 5.58519C3.44036 5.39788 3.44078 5.21057 3.44148 5.02326C3.44173 4.9334 3.4417 4.84355 3.44141 4.75369C3.44116 4.6281 3.44211 4.50259 3.44339 4.37701C3.44309 4.33985 3.44278 4.30268 3.44247 4.26439C3.44521 4.10643 3.45029 4.00759 3.54896 3.88091C3.67598 3.78105 3.73146 3.77396 3.89103 3.77566C3.93871 3.7757 3.98638 3.77574 4.03551 3.77578C4.0878 3.77679 4.1401 3.77779 4.19398 3.77882C4.2496 3.77913 4.30523 3.77944 4.36254 3.77976C4.48476 3.78058 4.60692 3.78174 4.72913 3.78348C4.92796 3.78631 5.1268 3.78785 5.32565 3.78923C5.57698 3.79106 5.82831 3.79324 6.07963 3.79583C6.57387 3.80093 7.06811 3.8037 7.56238 3.80563C7.64022 3.80594 7.71806 3.80626 7.7959 3.80658C7.91388 3.80706 8.03186 3.80753 8.14984 3.80801C8.59473 3.8098 9.03962 3.81184 9.4845 3.81417C9.5455 3.81449 9.5455 3.81449 9.60774 3.81481C10.266 3.81833 10.9242 3.82461 11.5825 3.83175C12.2588 3.83901 12.935 3.84266 13.6113 3.84316C14.0282 3.84359 14.4449 3.8469 14.8618 3.85393C15.1478 3.8585 15.4338 3.85961 15.7198 3.85805C15.8848 3.85726 16.0493 3.85796 16.2142 3.86283C16.8719 3.90292 16.8719 3.90292 17.4552 3.65737C17.6482 3.4346 17.7804 3.18895 17.9013 2.92157C17.9691 2.77783 18.0522 2.65711 18.146 2.52902C18.1723 2.49144 18.1987 2.45385 18.2259 2.41513C18.2508 2.37996 18.2757 2.34479 18.3014 2.30856C18.3276 2.27122 18.3538 2.23388 18.3808 2.1954C18.5065 2.01682 18.6338 1.83936 18.763 1.6633C18.7853 1.63295 18.8075 1.6026 18.8304 1.57133C18.9648 1.41112 19.1161 1.42147 19.3121 1.45309ZM19.1246 2.39059C19.0385 2.50565 18.9551 2.6215 18.8727 2.73923C18.8474 2.77525 18.8222 2.81127 18.7962 2.84838C17.3634 4.82094 17.3634 4.82094 16.8746 7.12497C16.9966 7.739 17.3522 8.26263 17.859 8.62497C18.4961 8.9857 19.1163 9.10494 19.8283 8.90823C20.4638 8.68645 20.9189 8.2863 21.2113 7.68106C21.505 6.99504 21.4644 6.42865 21.1918 5.74545C20.7366 4.68181 20.0814 3.70793 19.4216 2.76269C19.3633 2.67801 19.3068 2.59235 19.2508 2.50613C19.2246 2.468 19.1985 2.42988 19.1715 2.39059C19.1561 2.39059 19.1406 2.39059 19.1246 2.39059ZM4.17152 4.49997C4.17152 5.50544 4.17152 6.51091 4.17152 7.54684C8.16246 7.54684 12.1534 7.54684 16.2653 7.54684C16.2498 7.42309 16.2343 7.29934 16.2184 7.17184C16.1448 6.29189 16.4192 5.61165 16.7864 4.8265C16.8346 4.71903 16.8778 4.60934 16.9215 4.49997C12.714 4.49997 8.50652 4.49997 4.17152 4.49997ZM4.82777 8.24997C4.85192 8.62162 4.87983 8.99093 4.9305 9.35995C4.93563 9.39856 4.94077 9.43717 4.94606 9.47695C4.96211 9.59728 4.97843 9.71757 4.99477 9.83786C5.00586 9.92068 5.01694 10.0035 5.028 10.0863C5.0548 10.2867 5.08184 10.4871 5.10902 10.6875C5.13468 10.6875 5.16034 10.6876 5.18678 10.6877C5.81284 10.6894 6.43889 10.6922 7.06494 10.6961C7.3677 10.6979 7.67046 10.6994 7.97323 10.7002C8.26562 10.7009 8.55799 10.7025 8.85038 10.7047C8.96172 10.7054 9.07307 10.7058 9.18441 10.7058C9.34082 10.7059 9.49718 10.7072 9.65359 10.7088C9.69924 10.7085 9.74489 10.7083 9.79193 10.708C10.2288 10.7146 10.6128 10.8403 10.9215 11.1562C11.6066 12.078 11.2747 13.1645 11.2965 14.3437C13.3075 14.3437 15.3184 14.3437 17.3903 14.3437C17.7005 11.9069 17.7005 11.9069 17.9996 9.46872C17.9523 9.44136 17.9049 9.414 17.856 9.38581C17.7928 9.3487 17.7295 9.31158 17.6662 9.27444C17.6351 9.25656 17.604 9.23867 17.572 9.22024C17.2301 9.01841 16.8859 8.74741 16.7098 8.38487C16.5822 8.23705 16.5687 8.22964 16.3866 8.21536C16.2991 8.21418 16.2116 8.21456 16.1242 8.21615C16.076 8.21591 16.0278 8.21567 15.9781 8.21542C15.8161 8.21495 15.6541 8.2165 15.4921 8.21804C15.3761 8.21812 15.2602 8.21807 15.1442 8.21791C14.8944 8.21785 14.6445 8.21865 14.3946 8.22023C14.0334 8.22252 13.6721 8.22325 13.3108 8.2236C12.7247 8.22422 12.1386 8.22609 11.5524 8.22875C10.9831 8.23133 10.4137 8.23332 9.84429 8.23452C9.8092 8.23459 9.7741 8.23467 9.73794 8.23474C9.56189 8.23511 9.38583 8.23546 9.20977 8.23581C7.7491 8.23873 6.28844 8.2437 4.82777 8.24997ZM5.20277 11.3906C5.26465 11.9475 5.32652 12.5043 5.39027 13.0781C5.74231 13.0824 5.74231 13.0824 6.10146 13.0867C6.25014 13.0886 6.39882 13.0905 6.5475 13.0925C6.78349 13.0956 7.01948 13.0986 7.25548 13.1014C7.44574 13.1036 7.636 13.1061 7.82626 13.1087C7.89885 13.1097 7.97144 13.1105 8.04403 13.1113C8.1457 13.1125 8.24736 13.1139 8.34903 13.1153C8.4069 13.1161 8.46478 13.1168 8.52441 13.1176C8.64493 13.1236 8.74449 13.1363 8.85902 13.1718C8.86284 13.2392 8.86556 13.3066 8.86781 13.374C8.87026 13.4303 8.87026 13.4303 8.87276 13.4877C8.85902 13.5937 8.85902 13.5937 8.80741 13.6694C8.67522 13.7659 8.56791 13.7531 8.40553 13.7546C8.35818 13.7553 8.35818 13.7553 8.30987 13.7561C8.20563 13.7575 8.1014 13.7579 7.99715 13.7583C7.92483 13.7591 7.85252 13.76 7.7802 13.7609C7.58994 13.7631 7.39968 13.7645 7.20941 13.7657C7.01523 13.7671 6.82105 13.7693 6.62688 13.7714C6.24593 13.7755 5.86498 13.7786 5.48402 13.7812C5.50616 13.9756 5.52874 14.1699 5.55141 14.3642C5.55772 14.4197 5.56404 14.4752 5.57054 14.5324C5.57674 14.5851 5.58293 14.6378 5.58931 14.6922C5.59496 14.741 5.6006 14.7899 5.60642 14.8402C5.61293 14.9505 5.61293 14.9505 5.67152 15C5.76736 15.0053 5.86338 15.0073 5.95936 15.0081C6.02099 15.0087 6.08262 15.0094 6.14612 15.01C6.17927 15.0103 6.21241 15.0105 6.24656 15.0107C6.34997 15.0115 6.45337 15.0126 6.55678 15.0138C6.85084 15.0171 7.14491 15.0199 7.43898 15.0223C7.61867 15.0238 7.79834 15.0257 7.97802 15.028C8.04662 15.0287 8.11523 15.0293 8.18385 15.0297C8.27969 15.0302 8.37554 15.0314 8.47138 15.0326C8.52599 15.0331 8.5806 15.0336 8.63687 15.0341C8.76527 15.0468 8.76527 15.0468 8.85902 15.1406C8.87148 15.2285 8.87148 15.2285 8.87074 15.3281C8.87111 15.3774 8.87111 15.3774 8.87148 15.4277C8.85902 15.5156 8.85902 15.5156 8.76527 15.6093C8.61103 15.6632 8.46064 15.6635 8.29831 15.6658C8.24202 15.6668 8.18572 15.6677 8.12772 15.6687C8.06717 15.6695 8.00662 15.6702 7.94423 15.671C7.88144 15.672 7.81865 15.673 7.75586 15.674C7.59095 15.6766 7.42604 15.6789 7.26113 15.6812C7.09271 15.6835 6.92429 15.6861 6.75588 15.6887C6.42568 15.6938 6.09548 15.6985 5.76527 15.7031C5.79114 16.3177 5.8677 16.9223 5.95277 17.5312C6.4719 17.5356 6.99103 17.5389 7.51017 17.5409C7.75126 17.5419 7.99232 17.5432 8.2334 17.5454C8.46621 17.5474 8.69901 17.5485 8.93184 17.549C9.02049 17.5494 9.10915 17.55 9.1978 17.551C9.32235 17.5524 9.44685 17.5526 9.5714 17.5525C9.60774 17.5532 9.64409 17.5539 9.68154 17.5545C9.94113 17.5526 10.1494 17.5025 10.359 17.3437C10.6064 17.0835 10.627 16.8155 10.6222 16.4702C10.6226 16.3974 10.6226 16.3974 10.623 16.3231C10.6236 16.1637 10.6224 16.0043 10.6212 15.8448C10.6212 15.7336 10.6212 15.6223 10.6212 15.5111C10.6212 15.2784 10.6203 15.0457 10.6188 14.813C10.6169 14.5148 10.6167 14.2168 10.6171 13.9186C10.6172 13.6891 10.6167 13.4596 10.6159 13.23C10.6155 13.1201 10.6154 13.0102 10.6154 12.9002C10.6153 12.7466 10.6143 12.5931 10.6131 12.4395C10.6132 12.3942 10.6134 12.3489 10.6135 12.3022C10.61 12.0229 10.5787 11.8099 10.3825 11.5948C10.195 11.4488 10.0666 11.3847 9.83069 11.385C9.78988 11.3849 9.74906 11.3848 9.707 11.3848C9.66236 11.3849 9.61772 11.3851 9.57173 11.3853C9.52462 11.3853 9.4775 11.3853 9.42896 11.3853C9.27298 11.3853 9.117 11.3856 8.96101 11.386C8.85297 11.3861 8.74492 11.3862 8.63687 11.3862C8.35228 11.3864 8.0677 11.3869 7.78311 11.3874C7.49279 11.3879 7.20247 11.3881 6.91216 11.3883C6.34236 11.3888 5.77257 11.3896 5.20277 11.3906ZM11.2965 15.0468C11.2811 15.712 11.2656 16.3772 11.2496 17.0625C11.0368 17.5946 10.8798 17.8632 10.3746 18.0979C10.145 18.1875 9.93105 18.1953 9.68643 18.1971C9.64709 18.1976 9.60774 18.198 9.5672 18.1985C9.43734 18.2 9.30749 18.2011 9.17763 18.2023C9.08751 18.2033 8.9974 18.2042 8.90729 18.2052C8.67025 18.2078 8.43321 18.2102 8.19617 18.2124C7.95423 18.2148 7.71229 18.2174 7.47035 18.22C6.99575 18.225 6.52114 18.2298 6.04652 18.2343C6.08225 18.5588 6.11898 18.8831 6.15639 19.2074C6.16897 19.3175 6.18134 19.4277 6.19347 19.5378C6.21103 19.697 6.22941 19.856 6.24794 20.015C6.25312 20.0636 6.25831 20.1123 6.26365 20.1623C6.32612 20.6838 6.45967 21.0999 6.8434 21.4687C6.87917 21.5035 6.91494 21.5383 6.9518 21.5742C7.38602 21.8569 7.81157 21.8708 8.3152 21.868C8.3921 21.8682 8.46899 21.8686 8.54588 21.869C8.75353 21.8698 8.96116 21.8695 9.16881 21.8689C9.3868 21.8684 9.60479 21.8689 9.82278 21.8692C10.1888 21.8695 10.5547 21.8691 10.9207 21.8682C11.343 21.8671 11.7652 21.8675 12.1874 21.8685C12.5509 21.8694 12.9144 21.8695 13.2778 21.869C13.4945 21.8687 13.7112 21.8687 13.9279 21.8693C14.1316 21.8698 14.3354 21.8694 14.5392 21.8684C14.6137 21.8681 14.6881 21.8682 14.7626 21.8686C15.3301 21.8715 15.791 21.8095 16.2093 21.3972C16.5588 21.0031 16.6468 20.5327 16.7033 20.0251C16.7115 19.9584 16.7198 19.8917 16.7282 19.825C16.7502 19.6479 16.771 19.4705 16.7915 19.2932C16.813 19.1092 16.8357 18.9253 16.8583 18.7415C16.8945 18.4465 16.93 18.1515 16.9651 17.8564C17.01 17.4793 17.0569 17.1025 17.1048 16.7257C17.1116 16.6727 17.1183 16.6197 17.1252 16.565C17.1381 16.4637 17.151 16.3624 17.1639 16.2611C17.1928 16.0334 17.2215 15.8058 17.2498 15.578C17.2546 15.54 17.2595 15.5019 17.2644 15.4627C17.2817 15.323 17.2965 15.1877 17.2965 15.0468C15.3165 15.0468 13.3365 15.0468 11.2965 15.0468Z" stroke="#005F73" stroke-width="0.6" mask="url(#path-1-outside-1_12474_324330)"/>
<path d="M17.9085 6.3562C17.9991 6.37488 17.9991 6.37488 18.1105 6.46277C18.1976 6.6304 18.223 6.7792 18.2546 6.96393C18.3142 7.22755 18.4831 7.40066 18.7023 7.54675C18.8583 7.61119 18.9848 7.64061 19.1534 7.65515C19.3116 7.68738 19.3116 7.68738 19.4288 7.78699C19.522 7.9656 19.5089 8.05861 19.4523 8.24988C19.35 8.37178 19.2838 8.38767 19.1271 8.41101C18.6641 8.38712 18.2281 8.2061 17.9054 7.87488C17.5873 7.48615 17.4687 7.13771 17.4648 6.6391C17.4835 6.5155 17.4835 6.5155 17.5434 6.42999C17.6592 6.35094 17.7712 6.34965 17.9085 6.3562Z" fill="#005F73"/>
</svg>
