<svg width="24" height="24" viewBox="0 0 24 24" fill="none" xmlns="http://www.w3.org/2000/svg">
<path d="M13.9991 21V13.9687M13.9991 13.9687C15.2767 12.5194 15.9991 9.79957 15.9991 7.5C15.9991 4.18629 14.9991 3 11.9991 3C8.99905 3 7.99905 4.18629 7.99905 7.5C7.99905 9.79957 8.72142 12.5194 9.99905 13.9687M13.9991 13.9687C13.4356 14.6079 12.7642 15 11.9991 15C11.2339 15 10.5625 14.6079 9.99905 13.9687M9.99905 21V13.9687M15.6797 5C16.6797 4 18.1797 3.49998 19.6797 3.99997C23.1003 5.14012 21.6797 10.5 19.6797 9.99995C17.6797 9.49995 19.1797 5.5 21.6797 6.5M8.31844 5C7.31844 4 5.81844 3.49998 4.31844 3.99997C0.897906 5.14012 2.31844 10.5 4.31844 9.99995C6.31844 9.49995 4.81844 5.5 2.31844 6.5" stroke="#005F73" stroke-width="1.5" stroke-linecap="round" stroke-linejoin="round"/>
</svg>
