<svg width="24" height="24" viewBox="0 0 24 24" fill="none" xmlns="http://www.w3.org/2000/svg">
<path d="M6.00095 3C7.00098 6 6.50098 8.5 4.00096 11.5C3.62748 11.9482 3.34327 12.4298 3.13333 12.9316C1.93796 15.7887 3.15034 19.2988 4.00095 21M18.001 3C17.0009 6 17.5009 8.5 20.001 11.5C20.3627 11.9341 20.6407 12.3996 20.8486 12.8844C22.0774 15.7499 20.8563 19.2894 20.001 21M12.0386 9V8.5M12.0009 19L12.0668 18.473C12.3148 16.4889 14.0014 15 16.0009 15M12.0009 19V21M12.0009 19L11.935 18.473C11.687 16.4889 10.0004 15 8.00095 15" stroke="#005F73" stroke-width="1.5" stroke-linecap="round" stroke-linejoin="round"/>
</svg>
