<svg width="24" height="24" viewBox="0 0 24 24" fill="none" xmlns="http://www.w3.org/2000/svg">
<g clip-path="url(#clip0_12474_324770)">
<mask id="path-1-outside-1_12474_324770" maskUnits="userSpaceOnUse" x="-0.640625" y="-0.647705" width="25" height="25" fill="black">
<rect fill="white" x="-0.640625" y="-0.647705" width="25" height="25"/>
<path d="M11.6154 0.357491C11.6688 0.356267 11.7223 0.355043 11.7774 0.353783C11.8276 0.353677 11.8779 0.353571 11.9298 0.353462C11.9973 0.352884 11.9973 0.352884 12.0661 0.352295C12.225 0.38232 12.2733 0.437786 12.3742 0.562569C12.398 0.68351 12.398 0.68351 12.3984 0.821846C12.399 0.873781 12.3996 0.925716 12.4002 0.979225C12.3996 1.06302 12.3996 1.06302 12.3991 1.14851C12.3992 1.20606 12.3994 1.26362 12.3996 1.32291C12.3997 1.44459 12.3994 1.56626 12.3986 1.68793C12.3976 1.87437 12.3986 2.06071 12.3998 2.24714C12.3997 2.3653 12.3994 2.48347 12.3991 2.60163C12.3994 2.65749 12.3998 2.71336 12.4002 2.77091C12.3993 2.84881 12.3993 2.84881 12.3984 2.92829C12.3983 2.97394 12.3981 3.01959 12.398 3.06663C12.3674 3.2218 12.3085 3.27735 12.1867 3.37507C12.0267 3.42327 11.8671 3.43031 11.7007 3.43879C9.3318 3.5775 7.21741 4.53182 5.59486 6.27253C4.3597 7.6906 3.46987 9.6007 3.45839 11.5044C3.45789 11.5593 3.45789 11.5593 3.45739 11.6153C3.44093 12.7069 3.44093 12.7069 3.60853 13.7813C3.61785 13.8196 3.62716 13.8578 3.63676 13.8972C4.19782 16.1473 5.54667 18.1265 7.54882 19.3326C9.5007 20.469 11.8141 20.8849 14.0221 20.3321C16.2635 19.7378 18.2128 18.3634 19.3937 16.3477C20.0932 15.1181 20.5438 13.7127 20.5578 12.2907C20.5626 12.052 20.6059 11.8844 20.7179 11.6719C20.8382 11.6118 20.9256 11.6181 21.0603 11.6168C21.1122 11.6162 21.1642 11.6156 21.2177 11.6149C21.3022 11.6144 21.3022 11.6144 21.3884 11.6139C21.4461 11.6135 21.5038 11.6131 21.5633 11.6128C21.6855 11.6121 21.8077 11.6116 21.93 11.6112C22.0554 11.6108 22.1807 11.6098 22.3061 11.6083C22.4866 11.6064 22.667 11.6056 22.8474 11.6051C22.9036 11.6043 22.9597 11.6035 23.0176 11.6026C23.0698 11.6028 23.1221 11.6029 23.1759 11.603C23.2218 11.6028 23.2678 11.6025 23.3151 11.6022C23.4713 11.6316 23.5267 11.6895 23.6242 11.8126C23.6477 11.9286 23.6477 11.9286 23.6474 12.0596C23.6476 12.1084 23.6477 12.1572 23.6478 12.2075C23.6468 12.2599 23.6457 12.3123 23.6447 12.3663C23.6436 12.448 23.6436 12.448 23.6426 12.5313C23.5757 15.6597 22.0738 18.5174 19.8486 20.655C19.6631 20.8286 19.4661 20.986 19.2648 21.1407C19.2393 21.1604 19.2137 21.1802 19.1874 21.2005C17.1157 22.7926 14.63 23.6499 12.0167 23.6397C11.9483 23.6396 11.9483 23.6396 11.8784 23.6395C11.2206 23.6374 10.583 23.6155 9.93666 23.4844C9.85079 23.4689 9.76491 23.4533 9.67903 23.4377C7.46576 23.016 5.45685 21.8979 3.84291 20.3438C3.81836 20.3203 3.79381 20.2968 3.76852 20.2725C3.43967 19.9559 3.13718 19.6283 2.85853 19.2657C2.8388 19.2402 2.81906 19.2146 2.79873 19.1883C2.04645 18.2095 1.45965 17.1405 1.03041 15.9844C1.01755 15.9506 1.00468 15.9168 0.991431 15.8819C0.818747 15.4232 0.700831 14.9573 0.596816 14.4786C0.585267 14.4256 0.573719 14.3725 0.56182 14.3179C0.402948 13.5551 0.356493 12.8208 0.359511 12.044C0.359612 11.9973 0.359713 11.9506 0.359817 11.9024C0.362174 11.2236 0.375157 10.5575 0.514785 9.89069C0.529502 9.8198 0.529502 9.8198 0.544517 9.74748C1.02453 7.50029 2.05931 5.50142 3.65541 3.84382C3.67893 3.81927 3.70245 3.79472 3.72668 3.76943C4.47253 2.99481 5.34415 2.35488 6.28041 1.82819C6.30975 1.81131 6.3391 1.79443 6.36933 1.77704C7.54431 1.10431 8.84023 0.693333 10.171 0.468819C10.2036 0.46326 10.2361 0.4577 10.2697 0.451973C10.7163 0.379157 11.1633 0.363572 11.6154 0.357491ZM6.84291 2.43757C6.78871 2.46633 6.73451 2.49509 6.67866 2.52473C5.59898 3.11923 4.52457 3.9582 3.74916 4.92194C3.70713 4.97226 3.66507 5.02255 3.623 5.07282C1.84221 7.22315 0.898856 10.1183 1.15783 12.909C1.23975 13.6679 1.3733 14.4096 1.59291 15.1407C1.61711 15.2247 1.61711 15.2247 1.6418 15.3104C2.0923 16.7693 2.87861 18.0826 3.88978 19.2188C3.91074 19.2427 3.93169 19.2665 3.95328 19.2911C4.91114 20.3789 6.09164 21.2347 7.40541 21.8438C7.44927 21.8647 7.44927 21.8647 7.49401 21.886C10.1035 23.1256 13.0941 23.1372 15.7902 22.1895C17.4379 21.584 19.0294 20.5327 20.1554 19.1719C20.192 19.1312 20.2286 19.0904 20.2664 19.0483C21.872 17.2461 22.8273 14.7843 22.8273 12.3751C22.3478 12.3751 21.8682 12.3751 21.3742 12.3751C21.3568 12.5597 21.3394 12.7444 21.3214 12.9346C21.1194 14.8379 20.3921 16.6478 19.1242 18.0938C19.0901 18.133 19.056 18.1722 19.0209 18.2127C18.5791 18.7123 18.114 19.1524 17.5773 19.5469C17.5507 19.5665 17.524 19.5861 17.4966 19.6062C15.896 20.7645 13.9951 21.3506 12.0285 21.3458C11.9873 21.3457 11.9462 21.3457 11.9038 21.3456C9.32154 21.3372 6.99932 20.2909 5.18772 18.4684C4.72244 17.9878 4.33787 17.4408 3.98353 16.8751C3.96579 16.847 3.94804 16.8189 3.92975 16.7899C3.37532 15.8994 3.03313 14.8957 2.81166 13.8751C2.80339 13.8395 2.79512 13.804 2.7866 13.7674C2.53264 12.6443 2.54832 11.2444 2.81166 10.1251C2.82122 10.0827 2.83078 10.0403 2.84064 9.99669C3.40333 7.54648 4.85496 5.41302 6.98646 4.06354C8.40256 3.19318 9.93088 2.77474 11.5773 2.62507C11.5773 2.14554 11.5773 1.66601 11.5773 1.17194C9.91034 1.17194 8.30559 1.65509 6.84291 2.43757Z"/>
</mask>
<path d="M11.6154 0.357491C11.6688 0.356267 11.7223 0.355043 11.7774 0.353783C11.8276 0.353677 11.8779 0.353571 11.9298 0.353462C11.9973 0.352884 11.9973 0.352884 12.0661 0.352295C12.225 0.38232 12.2733 0.437786 12.3742 0.562569C12.398 0.68351 12.398 0.68351 12.3984 0.821846C12.399 0.873781 12.3996 0.925716 12.4002 0.979225C12.3996 1.06302 12.3996 1.06302 12.3991 1.14851C12.3992 1.20606 12.3994 1.26362 12.3996 1.32291C12.3997 1.44459 12.3994 1.56626 12.3986 1.68793C12.3976 1.87437 12.3986 2.06071 12.3998 2.24714C12.3997 2.3653 12.3994 2.48347 12.3991 2.60163C12.3994 2.65749 12.3998 2.71336 12.4002 2.77091C12.3993 2.84881 12.3993 2.84881 12.3984 2.92829C12.3983 2.97394 12.3981 3.01959 12.398 3.06663C12.3674 3.2218 12.3085 3.27735 12.1867 3.37507C12.0267 3.42327 11.8671 3.43031 11.7007 3.43879C9.3318 3.5775 7.21741 4.53182 5.59486 6.27253C4.3597 7.6906 3.46987 9.6007 3.45839 11.5044C3.45789 11.5593 3.45789 11.5593 3.45739 11.6153C3.44093 12.7069 3.44093 12.7069 3.60853 13.7813C3.61785 13.8196 3.62716 13.8578 3.63676 13.8972C4.19782 16.1473 5.54667 18.1265 7.54882 19.3326C9.5007 20.469 11.8141 20.8849 14.0221 20.3321C16.2635 19.7378 18.2128 18.3634 19.3937 16.3477C20.0932 15.1181 20.5438 13.7127 20.5578 12.2907C20.5626 12.052 20.6059 11.8844 20.7179 11.6719C20.8382 11.6118 20.9256 11.6181 21.0603 11.6168C21.1122 11.6162 21.1642 11.6156 21.2177 11.6149C21.3022 11.6144 21.3022 11.6144 21.3884 11.6139C21.4461 11.6135 21.5038 11.6131 21.5633 11.6128C21.6855 11.6121 21.8077 11.6116 21.93 11.6112C22.0554 11.6108 22.1807 11.6098 22.3061 11.6083C22.4866 11.6064 22.667 11.6056 22.8474 11.6051C22.9036 11.6043 22.9597 11.6035 23.0176 11.6026C23.0698 11.6028 23.1221 11.6029 23.1759 11.603C23.2218 11.6028 23.2678 11.6025 23.3151 11.6022C23.4713 11.6316 23.5267 11.6895 23.6242 11.8126C23.6477 11.9286 23.6477 11.9286 23.6474 12.0596C23.6476 12.1084 23.6477 12.1572 23.6478 12.2075C23.6468 12.2599 23.6457 12.3123 23.6447 12.3663C23.6436 12.448 23.6436 12.448 23.6426 12.5313C23.5757 15.6597 22.0738 18.5174 19.8486 20.655C19.6631 20.8286 19.4661 20.986 19.2648 21.1407C19.2393 21.1604 19.2137 21.1802 19.1874 21.2005C17.1157 22.7926 14.63 23.6499 12.0167 23.6397C11.9483 23.6396 11.9483 23.6396 11.8784 23.6395C11.2206 23.6374 10.583 23.6155 9.93666 23.4844C9.85079 23.4689 9.76491 23.4533 9.67903 23.4377C7.46576 23.016 5.45685 21.8979 3.84291 20.3438C3.81836 20.3203 3.79381 20.2968 3.76852 20.2725C3.43967 19.9559 3.13718 19.6283 2.85853 19.2657C2.8388 19.2402 2.81906 19.2146 2.79873 19.1883C2.04645 18.2095 1.45965 17.1405 1.03041 15.9844C1.01755 15.9506 1.00468 15.9168 0.991431 15.8819C0.818747 15.4232 0.700831 14.9573 0.596816 14.4786C0.585267 14.4256 0.573719 14.3725 0.56182 14.3179C0.402948 13.5551 0.356493 12.8208 0.359511 12.044C0.359612 11.9973 0.359713 11.9506 0.359817 11.9024C0.362174 11.2236 0.375157 10.5575 0.514785 9.89069C0.529502 9.8198 0.529502 9.8198 0.544517 9.74748C1.02453 7.50029 2.05931 5.50142 3.65541 3.84382C3.67893 3.81927 3.70245 3.79472 3.72668 3.76943C4.47253 2.99481 5.34415 2.35488 6.28041 1.82819C6.30975 1.81131 6.3391 1.79443 6.36933 1.77704C7.54431 1.10431 8.84023 0.693333 10.171 0.468819C10.2036 0.46326 10.2361 0.4577 10.2697 0.451973C10.7163 0.379157 11.1633 0.363572 11.6154 0.357491ZM6.84291 2.43757C6.78871 2.46633 6.73451 2.49509 6.67866 2.52473C5.59898 3.11923 4.52457 3.9582 3.74916 4.92194C3.70713 4.97226 3.66507 5.02255 3.623 5.07282C1.84221 7.22315 0.898856 10.1183 1.15783 12.909C1.23975 13.6679 1.3733 14.4096 1.59291 15.1407C1.61711 15.2247 1.61711 15.2247 1.6418 15.3104C2.0923 16.7693 2.87861 18.0826 3.88978 19.2188C3.91074 19.2427 3.93169 19.2665 3.95328 19.2911C4.91114 20.3789 6.09164 21.2347 7.40541 21.8438C7.44927 21.8647 7.44927 21.8647 7.49401 21.886C10.1035 23.1256 13.0941 23.1372 15.7902 22.1895C17.4379 21.584 19.0294 20.5327 20.1554 19.1719C20.192 19.1312 20.2286 19.0904 20.2664 19.0483C21.872 17.2461 22.8273 14.7843 22.8273 12.3751C22.3478 12.3751 21.8682 12.3751 21.3742 12.3751C21.3568 12.5597 21.3394 12.7444 21.3214 12.9346C21.1194 14.8379 20.3921 16.6478 19.1242 18.0938C19.0901 18.133 19.056 18.1722 19.0209 18.2127C18.5791 18.7123 18.114 19.1524 17.5773 19.5469C17.5507 19.5665 17.524 19.5861 17.4966 19.6062C15.896 20.7645 13.9951 21.3506 12.0285 21.3458C11.9873 21.3457 11.9462 21.3457 11.9038 21.3456C9.32154 21.3372 6.99932 20.2909 5.18772 18.4684C4.72244 17.9878 4.33787 17.4408 3.98353 16.8751C3.96579 16.847 3.94804 16.8189 3.92975 16.7899C3.37532 15.8994 3.03313 14.8957 2.81166 13.8751C2.80339 13.8395 2.79512 13.804 2.7866 13.7674C2.53264 12.6443 2.54832 11.2444 2.81166 10.1251C2.82122 10.0827 2.83078 10.0403 2.84064 9.99669C3.40333 7.54648 4.85496 5.41302 6.98646 4.06354C8.40256 3.19318 9.93088 2.77474 11.5773 2.62507C11.5773 2.14554 11.5773 1.66601 11.5773 1.17194C9.91034 1.17194 8.30559 1.65509 6.84291 2.43757Z" fill="#005F73"/>
<path d="M11.6154 0.357491C11.6688 0.356267 11.7223 0.355043 11.7774 0.353783C11.8276 0.353677 11.8779 0.353571 11.9298 0.353462C11.9973 0.352884 11.9973 0.352884 12.0661 0.352295C12.225 0.38232 12.2733 0.437786 12.3742 0.562569C12.398 0.68351 12.398 0.68351 12.3984 0.821846C12.399 0.873781 12.3996 0.925716 12.4002 0.979225C12.3996 1.06302 12.3996 1.06302 12.3991 1.14851C12.3992 1.20606 12.3994 1.26362 12.3996 1.32291C12.3997 1.44459 12.3994 1.56626 12.3986 1.68793C12.3976 1.87437 12.3986 2.06071 12.3998 2.24714C12.3997 2.3653 12.3994 2.48347 12.3991 2.60163C12.3994 2.65749 12.3998 2.71336 12.4002 2.77091C12.3993 2.84881 12.3993 2.84881 12.3984 2.92829C12.3983 2.97394 12.3981 3.01959 12.398 3.06663C12.3674 3.2218 12.3085 3.27735 12.1867 3.37507C12.0267 3.42327 11.8671 3.43031 11.7007 3.43879C9.3318 3.5775 7.21741 4.53182 5.59486 6.27253C4.3597 7.6906 3.46987 9.6007 3.45839 11.5044C3.45789 11.5593 3.45789 11.5593 3.45739 11.6153C3.44093 12.7069 3.44093 12.7069 3.60853 13.7813C3.61785 13.8196 3.62716 13.8578 3.63676 13.8972C4.19782 16.1473 5.54667 18.1265 7.54882 19.3326C9.5007 20.469 11.8141 20.8849 14.0221 20.3321C16.2635 19.7378 18.2128 18.3634 19.3937 16.3477C20.0932 15.1181 20.5438 13.7127 20.5578 12.2907C20.5626 12.052 20.6059 11.8844 20.7179 11.6719C20.8382 11.6118 20.9256 11.6181 21.0603 11.6168C21.1122 11.6162 21.1642 11.6156 21.2177 11.6149C21.3022 11.6144 21.3022 11.6144 21.3884 11.6139C21.4461 11.6135 21.5038 11.6131 21.5633 11.6128C21.6855 11.6121 21.8077 11.6116 21.93 11.6112C22.0554 11.6108 22.1807 11.6098 22.3061 11.6083C22.4866 11.6064 22.667 11.6056 22.8474 11.6051C22.9036 11.6043 22.9597 11.6035 23.0176 11.6026C23.0698 11.6028 23.1221 11.6029 23.1759 11.603C23.2218 11.6028 23.2678 11.6025 23.3151 11.6022C23.4713 11.6316 23.5267 11.6895 23.6242 11.8126C23.6477 11.9286 23.6477 11.9286 23.6474 12.0596C23.6476 12.1084 23.6477 12.1572 23.6478 12.2075C23.6468 12.2599 23.6457 12.3123 23.6447 12.3663C23.6436 12.448 23.6436 12.448 23.6426 12.5313C23.5757 15.6597 22.0738 18.5174 19.8486 20.655C19.6631 20.8286 19.4661 20.986 19.2648 21.1407C19.2393 21.1604 19.2137 21.1802 19.1874 21.2005C17.1157 22.7926 14.63 23.6499 12.0167 23.6397C11.9483 23.6396 11.9483 23.6396 11.8784 23.6395C11.2206 23.6374 10.583 23.6155 9.93666 23.4844C9.85079 23.4689 9.76491 23.4533 9.67903 23.4377C7.46576 23.016 5.45685 21.8979 3.84291 20.3438C3.81836 20.3203 3.79381 20.2968 3.76852 20.2725C3.43967 19.9559 3.13718 19.6283 2.85853 19.2657C2.8388 19.2402 2.81906 19.2146 2.79873 19.1883C2.04645 18.2095 1.45965 17.1405 1.03041 15.9844C1.01755 15.9506 1.00468 15.9168 0.991431 15.8819C0.818747 15.4232 0.700831 14.9573 0.596816 14.4786C0.585267 14.4256 0.573719 14.3725 0.56182 14.3179C0.402948 13.5551 0.356493 12.8208 0.359511 12.044C0.359612 11.9973 0.359713 11.9506 0.359817 11.9024C0.362174 11.2236 0.375157 10.5575 0.514785 9.89069C0.529502 9.8198 0.529502 9.8198 0.544517 9.74748C1.02453 7.50029 2.05931 5.50142 3.65541 3.84382C3.67893 3.81927 3.70245 3.79472 3.72668 3.76943C4.47253 2.99481 5.34415 2.35488 6.28041 1.82819C6.30975 1.81131 6.3391 1.79443 6.36933 1.77704C7.54431 1.10431 8.84023 0.693333 10.171 0.468819C10.2036 0.46326 10.2361 0.4577 10.2697 0.451973C10.7163 0.379157 11.1633 0.363572 11.6154 0.357491ZM6.84291 2.43757C6.78871 2.46633 6.73451 2.49509 6.67866 2.52473C5.59898 3.11923 4.52457 3.9582 3.74916 4.92194C3.70713 4.97226 3.66507 5.02255 3.623 5.07282C1.84221 7.22315 0.898856 10.1183 1.15783 12.909C1.23975 13.6679 1.3733 14.4096 1.59291 15.1407C1.61711 15.2247 1.61711 15.2247 1.6418 15.3104C2.0923 16.7693 2.87861 18.0826 3.88978 19.2188C3.91074 19.2427 3.93169 19.2665 3.95328 19.2911C4.91114 20.3789 6.09164 21.2347 7.40541 21.8438C7.44927 21.8647 7.44927 21.8647 7.49401 21.886C10.1035 23.1256 13.0941 23.1372 15.7902 22.1895C17.4379 21.584 19.0294 20.5327 20.1554 19.1719C20.192 19.1312 20.2286 19.0904 20.2664 19.0483C21.872 17.2461 22.8273 14.7843 22.8273 12.3751C22.3478 12.3751 21.8682 12.3751 21.3742 12.3751C21.3568 12.5597 21.3394 12.7444 21.3214 12.9346C21.1194 14.8379 20.3921 16.6478 19.1242 18.0938C19.0901 18.133 19.056 18.1722 19.0209 18.2127C18.5791 18.7123 18.114 19.1524 17.5773 19.5469C17.5507 19.5665 17.524 19.5861 17.4966 19.6062C15.896 20.7645 13.9951 21.3506 12.0285 21.3458C11.9873 21.3457 11.9462 21.3457 11.9038 21.3456C9.32154 21.3372 6.99932 20.2909 5.18772 18.4684C4.72244 17.9878 4.33787 17.4408 3.98353 16.8751C3.96579 16.847 3.94804 16.8189 3.92975 16.7899C3.37532 15.8994 3.03313 14.8957 2.81166 13.8751C2.80339 13.8395 2.79512 13.804 2.7866 13.7674C2.53264 12.6443 2.54832 11.2444 2.81166 10.1251C2.82122 10.0827 2.83078 10.0403 2.84064 9.99669C3.40333 7.54648 4.85496 5.41302 6.98646 4.06354C8.40256 3.19318 9.93088 2.77474 11.5773 2.62507C11.5773 2.14554 11.5773 1.66601 11.5773 1.17194C9.91034 1.17194 8.30559 1.65509 6.84291 2.43757Z" stroke="#005F73" stroke-width="0.4" mask="url(#path-1-outside-1_12474_324770)"/>
<path d="M11.6738 6.75391C11.8527 6.66461 12.0333 6.67592 12.2002 6.69824L12.2197 6.7002L12.2373 6.71094C12.4484 6.83453 12.5958 7.02622 12.7344 7.18848C12.83 7.29959 12.9284 7.40809 13.0283 7.51758H13.0293C13.2528 7.76562 13.4634 8.022 13.6709 8.28125L13.7295 8.35352C15.001 9.94008 16.3498 11.6573 16.2246 13.834L16.2236 13.8389C16.1611 14.405 15.918 14.9046 15.6494 15.3779C15.6268 15.4177 15.6033 15.457 15.5801 15.498L15.5781 15.502C14.9818 16.4613 13.9912 17.0877 12.9131 17.3477L12.9082 17.3486C11.8694 17.5429 10.89 17.396 9.97559 16.9209L9.79395 16.8213C9.75408 16.7986 9.71393 16.7763 9.67285 16.7529L9.66992 16.751C8.70446 16.1519 8.09326 15.1644 7.82422 14.0869L7.82324 14.084L7.82422 14.083C7.52269 12.733 8.08163 11.5209 8.75977 10.4297L8.76074 10.4287L8.96875 10.1094C9.46134 9.36999 10.0081 8.66835 10.5859 7.99609C10.7012 7.86091 10.8137 7.7233 10.9258 7.58398V7.58301C11.0718 7.40329 11.2237 7.23694 11.3906 7.07617C11.4796 6.98695 11.5549 6.88799 11.6396 6.78125L11.6533 6.76465L11.6738 6.75391ZM11.7744 8.13477V8.13574C11.723 8.19684 11.6715 8.25824 11.6201 8.31934L11.6191 8.31836C11.5934 8.34909 11.5685 8.38045 11.542 8.41211V8.41309C11.475 8.49267 11.4061 8.57029 11.3379 8.64844C10.765 9.30987 10.0883 10.1005 9.56934 10.9541C9.05091 11.807 8.69822 12.7122 8.75781 13.6074L8.78027 13.7666C8.91707 14.5531 9.39311 15.2366 9.99902 15.7646C10.6829 16.2725 11.5398 16.5166 12.3887 16.4287C13.3225 16.2612 14.1221 15.8015 14.6914 15.0391C15.1619 14.3183 15.3488 13.485 15.1963 12.6377C14.9672 11.8891 14.5367 11.1509 14.0742 10.5117V10.5107C14.0372 10.4581 13.9997 10.4053 13.9629 10.3525C13.4551 9.62948 12.8993 8.94499 12.3252 8.26953C12.2628 8.19591 12.1999 8.12083 12.1387 8.04395C12.0944 7.98869 12.0475 7.93522 12 7.88086H11.998C11.9214 7.96404 11.8472 8.04718 11.7744 8.13477Z" fill="#005F73" stroke="#005F73" stroke-width="0.2"/>
<path d="M13.501 1.48145V1.48242C15.3269 1.52616 17.2532 2.55684 18.625 3.67188C18.6491 3.6912 18.6734 3.71056 18.6982 3.73047C19.3545 4.25748 19.9585 4.85121 20.46 5.5332L20.6367 5.76855V5.76953C20.9582 6.19919 21.2195 6.65483 21.4639 7.12598L21.5195 7.23242L21.668 7.53418C22.0011 8.24312 22.2398 8.98361 22.4102 9.74902L22.4395 9.88086L22.4404 9.88184C22.4943 10.1412 22.5419 10.4178 22.5059 10.7002L22.5029 10.7236L22.4893 10.7432C22.4411 10.8146 22.396 10.869 22.3379 10.9121C22.3093 10.9334 22.2789 10.9511 22.2461 10.9668L22.124 11.0156H22.1094C22.0294 11.0195 21.9623 11.0153 21.8955 10.998C21.8296 10.981 21.7692 10.953 21.7021 10.916L21.6865 10.9072L21.6748 10.8945C21.6121 10.8236 21.5659 10.7565 21.5312 10.6816C21.4969 10.6073 21.4763 10.5294 21.4609 10.4385L21.4365 10.3066V10.3057C21.4282 10.2586 21.4197 10.2116 21.4111 10.1631V10.1621C21.116 8.6417 20.4873 7.18787 19.4893 6.00195V6.00098C19.4214 5.9202 19.3541 5.83891 19.2881 5.75781V5.75684C17.8497 4.01243 15.8455 3.009 13.6533 2.53906H13.6523C13.598 2.5273 13.5433 2.51505 13.4873 2.50293V2.50195C13.4225 2.48909 13.4212 2.49 13.3535 2.47656L13.3428 2.47461V2.47363C13.2781 2.45281 13.224 2.43035 13.1748 2.39551C13.1257 2.36069 13.0868 2.31683 13.0459 2.26367L13.0352 2.25L13.0293 2.23242C13.0035 2.14754 12.9838 2.07203 12.9844 1.99414C12.985 1.91324 13.0076 1.83842 13.0498 1.75L13.0537 1.74121L13.0596 1.7334C13.0958 1.68508 13.1265 1.64446 13.1533 1.61328C13.1807 1.58153 13.2093 1.55331 13.2451 1.53223C13.3153 1.49097 13.3967 1.48844 13.4922 1.48242L13.501 1.48145Z" fill="#005F73" stroke="#005F73" stroke-width="0.2"/>
<path d="M13.3125 10.4999C13.8817 10.9916 14.5663 12.0892 14.6333 12.8433C14.6596 13.7453 14.4685 14.4233 13.8393 15.0959C13.7344 15.1874 13.7344 15.1874 13.5586 15.249C13.3829 15.2321 13.3026 15.2132 13.1719 15.0937C13.0908 14.9147 13.0618 14.8168 13.1221 14.6279C13.202 14.5091 13.2797 14.4177 13.377 14.3144C13.7021 13.9499 13.8244 13.5389 13.8032 13.0545C13.7088 12.3504 13.2286 11.7162 12.8099 11.1615C12.741 11.0476 12.7159 10.9603 12.7031 10.8281C12.8243 10.5281 12.9826 10.4203 13.3125 10.4999Z" fill="#005F73"/>
</g>
<defs>
<clipPath id="clip0_12474_324770">
<rect width="24" height="24" fill="white"/>
</clipPath>
</defs>
</svg>
